<?xml version="1.0" standalone="no"?>
<!DOCTYPE svg PUBLIC "-//W3C//DTD SVG 1.1//EN" "http://www.w3.org/Graphics/SVG/1.1/DTD/svg11.dtd" >
<svg xmlns="http://www.w3.org/2000/svg" xmlns:xlink="http://www.w3.org/1999/xlink" version="1.1">
<metadata>
Created by FontForge 20170731 at Fri Jun  4 06:59:54 2021
 By Aleksey,,,
Copyright (c) 2017 Commercial Type, Inc.. All rights reserved.
</metadata>
<defs>
<font id="GraphikTH-Light" horiz-adv-x="0" >
  <font-face 
    font-family="Graphik TH Light"
    font-weight="300"
    font-stretch="normal"
    units-per-em="2048"
    panose-1="2 11 4 3 3 2 2 6 2 3"
    ascent="1638"
    descent="-410"
    x-height="1071"
    cap-height="1464"
    bbox="-1235 -862 2189 2234"
    underline-thickness="135"
    underline-position="-323"
    unicode-range="U+0020-FB02"
  />
<missing-glyph horiz-adv-x="1024" 
 />
    <glyph glyph-name="uniFB00" unicode="ff" horiz-adv-x="1251" 
d="M215 0v979h-162v92h162v176q0 162 82 244t221 82q66 0 119 -19v-92q-59 19 -115 19q-93 0 -145.5 -55.5t-52.5 -168.5v-186h462v193q0 162 82 243.5t222 81.5q58 0 116 -18v-92q-56 18 -114 18q-92 0 -144.5 -55t-52.5 -168v-203h297v-92h-297v-979h-109v979h-462v-979
h-109z" />
    <glyph glyph-name="uni0E45.2" unicode="&#xe24;&#xe45;" horiz-adv-x="2109" 
d="M1124 -471h-110v1229q0 177 -96 280t-287 103q-183 0 -285 -92t-102 -226v-22h258v-76q-108 -29 -169 -99t-61 -202v-100q0 -136 57.5 -192t159.5 -56q65 0 115 18v-90q-58 -18 -133 -18q-309 0 -309 338v90q0 142 50.5 210.5t141.5 94.5h-219v82q0 89 31 166t91.5 137
t157.5 94.5t220 34.5q348 0 446 -293q47 152 161.5 222.5t264.5 70.5q201 0 315.5 -110t114.5 -316v-1278h-110v1278q0 173 -87 255.5t-241 82.5q-52 0 -98.5 -9.5t-95.5 -37t-85.5 -71t-62.5 -117.5t-33 -171v-1210z" />
    <glyph glyph-name="uni0E45.1" unicode="&#xe26;&#xe45;" horiz-adv-x="2136" 
d="M1149 -471h-111v1229q0 177 -96.5 280t-288.5 103q-185 0 -292 -92.5t-107 -225.5v-22h260v-78q-95 -26 -135.5 -88t-40.5 -176v-223q0 -134 -70.5 -190t-210.5 -58v90q93 3 131.5 38.5t38.5 119.5v213q0 124 32 185.5t108 84.5h-222v82q0 88 33 165.5t95.5 137.5
t161.5 94.5t222 34.5q351 0 449 -293q47 152 162 222.5t270 70.5q199 0 312.5 -110t113.5 -316v-1278h-111v1278q0 172 -88 255t-237 83q-55 0 -103.5 -10.5t-101 -41t-89.5 -79.5t-61 -132.5t-24 -193.5v-1159z" />
    <glyph glyph-name=".notdef" horiz-adv-x="1024" 
 />
    <glyph glyph-name=".null" 
 />
    <glyph glyph-name="nonmarkingreturn" horiz-adv-x="682" 
 />
    <glyph glyph-name="uni0020" unicode=" " horiz-adv-x="505" 
 />
    <glyph glyph-name="uni0021" unicode="!" horiz-adv-x="555" 
d="M238 367l-19 1097h121l-16 -1097h-86zM279 -10q-37 0 -63 25.5t-26 60.5q0 37 26 62.5t63 25.5q35 0 60.5 -25.5t25.5 -62.5q0 -35 -25.5 -60.5t-60.5 -25.5z" />
    <glyph glyph-name="uni0022" unicode="&#x22;" horiz-adv-x="624" 
d="M137 1036l-18 428h119l-19 -428h-82zM406 1036l-19 428h119l-19 -428h-81z" />
    <glyph glyph-name="uni0023" unicode="#" horiz-adv-x="1007" 
d="M528 203l58 401h-246l-57 -401h-93l58 401h-185v92h199l47 322h-188v92h201l53 354h92l-53 -354h245l54 354h92l-53 -354h190v-92h-203l-47 -322h193v-92h-207l-57 -401h-93zM401 1018l-47 -322h246l47 322h-246z" />
    <glyph glyph-name="uni0024" unicode="$" horiz-adv-x="1241" 
d="M580 -276v262q-121 6 -212.5 42t-148 96.5t-88.5 133.5t-43 162h111q10 -70 33 -125t65 -103.5t113.5 -77.5t169.5 -36v643q-224 38 -330.5 126.5t-106.5 250.5q0 164 121.5 269.5t315.5 113.5v184h82v-186q180 -12 289 -107.5t132 -259.5h-104q-50 254 -317 274v-579
q246 -40 354 -128t108 -280q0 -172 -127.5 -290t-334.5 -125v-260h-82zM250 1106q0 -118 71 -185t259 -102v567q-154 -6 -242 -80t-88 -200zM1014 391q0 145 -77.5 213.5t-274.5 102.5v-631q160 7 256 95t96 220z" />
    <glyph glyph-name="uni0025" unicode="%" horiz-adv-x="1568" 
d="M403 815q-130 0 -225.5 91.5t-95.5 234.5q0 144 95 239t226 95q133 0 226.5 -94t93.5 -236q0 -146 -94.5 -238t-225.5 -92zM264 0l934 1464h102l-931 -1464h-105zM403 901q97 0 158.5 65t61.5 179q0 111 -62 177.5t-158 66.5q-95 0 -157 -66.5t-62 -181.5q0 -112 62 -176
t157 -64zM1163 -14q-129 0 -224 92t-95 235q0 145 94 239.5t225 94.5q133 0 227.5 -94t94.5 -236q0 -146 -95.5 -238.5t-226.5 -92.5zM1163 74q97 0 158 64.5t61 178.5q0 111 -61 176.5t-158 65.5q-95 0 -157 -66t-62 -180q0 -112 62.5 -175.5t156.5 -63.5z" />
    <glyph glyph-name="uni0026" unicode="&#x26;" horiz-adv-x="1357" 
d="M1272 741l-240 -442l256 -299h-135l-186 217q-176 -231 -430 -231q-197 0 -317 110t-120 285q0 82 28 151.5t81 123t110.5 92.5t135.5 77q-77 95 -113.5 171t-36.5 157q0 143 97 231.5t235 88.5q132 0 217.5 -84.5t85.5 -210.5q0 -228 -332 -375l363 -426l196 364h105z
M412 1153q0 -67 35 -132t112 -157q139 65 208 137.5t69 178.5q0 90 -55 147t-148 57q-96 0 -158.5 -62.5t-62.5 -168.5zM541 78q213 0 366 211l-399 473q-65 -32 -114 -65.5t-93 -78t-67 -102t-23 -125.5q0 -142 88 -227.5t242 -85.5z" />
    <glyph glyph-name="uni0027" unicode="'" horiz-adv-x="356" 
d="M137 1036l-18 428h119l-19 -428h-82z" />
    <glyph glyph-name="uni0028" unicode="(" horiz-adv-x="612" 
d="M451 -303q-338 402 -338 942q0 287 92.5 524.5t245.5 419.5h110q-155 -193 -244.5 -422t-89.5 -522t89.5 -521t244.5 -421h-110z" />
    <glyph glyph-name="uni0029" unicode=")" horiz-adv-x="612" 
d="M53 -299q155 193 244.5 422t89.5 520q0 293 -89.5 522t-244.5 422h109q154 -181 246 -418.5t92 -525.5t-92 -524.5t-246 -417.5h-109z" />
    <glyph glyph-name="uni002A" unicode="*" horiz-adv-x="854" 
d="M256 866l-76 56l185 239l-271 82l31 90l262 -104l-8 293h98l-8 -293l262 104l29 -90l-271 -82l185 -239l-76 -56l-172 250z" />
    <glyph glyph-name="uni002B" unicode="+" horiz-adv-x="1044" 
d="M473 225v428h-399v95h399v428h98v-428h400v-95h-400v-428h-98z" />
    <glyph glyph-name="uni002C" unicode="," horiz-adv-x="468" 
d="M141 -240l-73 37l157 375l107 -49z" />
    <glyph glyph-name="uni002D" unicode="-" horiz-adv-x="681" 
d="M127 516v102h428v-102h-428z" />
    <glyph glyph-name="uni002E" unicode="." horiz-adv-x="468" 
d="M233 -10q-35 0 -60.5 25.5t-25.5 60.5q0 37 25.5 62.5t60.5 25.5q37 0 63 -25.5t26 -62.5q0 -35 -26 -60.5t-63 -25.5z" />
    <glyph glyph-name="uni002F" unicode="/" horiz-adv-x="800" 
d="M27 -303l596 1892h102l-596 -1892h-102z" />
    <glyph glyph-name="uni0030" unicode="0" horiz-adv-x="1349" 
d="M680 -16q-261 0 -412 183.5t-151 502.5v123q0 321 148 504.5t409 183.5q260 0 410.5 -184t150.5 -498v-125q0 -322 -146 -506t-409 -184zM680 80q216 0 327 151.5t111 444.5v123q0 271 -117.5 429t-326.5 158q-210 0 -325.5 -154.5t-115.5 -436.5v-125q0 -288 117.5 -439
t329.5 -151z" />
    <glyph glyph-name="uni0031" unicode="1" horiz-adv-x="753" 
d="M391 0v1346l-336 -234v107l353 245h96v-1464h-113z" />
    <glyph glyph-name="uni0032" unicode="2" horiz-adv-x="1099" 
d="M41 0v27l588 608q119 122 174 228t55 222q0 144 -84 222.5t-227 78.5q-146 0 -237.5 -86.5t-112.5 -261.5h-107q17 206 140.5 324.5t316.5 118.5q192 0 309 -106.5t117 -293.5q0 -130 -70 -256t-209 -262l-473 -469h772v-94h-952z" />
    <glyph glyph-name="uni0033" unicode="3" horiz-adv-x="1161" 
d="M565 -16q-218 0 -349.5 124t-139.5 306h104q15 -148 112 -242t275 -94q176 0 271.5 86t95.5 242q0 146 -84 229.5t-250 83.5h-106v96h98q150 0 223.5 77.5t73.5 201.5q0 129 -79 209.5t-222 80.5q-149 0 -243.5 -85t-108.5 -220h-103q11 171 138 286.5t317 115.5
q189 0 300 -111t111 -274q0 -118 -65 -203t-174 -119q134 -30 212.5 -125t78.5 -243q0 -197 -133.5 -309.5t-352.5 -112.5z" />
    <glyph glyph-name="uni0034" unicode="4" horiz-adv-x="1218" 
d="M823 0v330h-755v35l708 1099h160v-1040h203v-94h-203v-330h-113zM219 424h604v956z" />
    <glyph glyph-name="uni0035" unicode="5" horiz-adv-x="1148" 
d="M549 -16q-108 0 -195.5 31t-144.5 85t-90 124.5t-41 152.5h110q10 -64 34 -116t66 -94.5t108.5 -65.5t152.5 -23q174 0 273.5 106t99.5 291q0 171 -99.5 277t-253.5 106q-230 0 -362 -160h-43v766h799v-98h-703v-537q52 52 137 87.5t191 35.5q195 0 322.5 -130.5
t127.5 -346.5q0 -225 -136.5 -358t-352.5 -133z" />
    <glyph glyph-name="uni0036" unicode="6" horiz-adv-x="1228" 
d="M633 -16q-135 0 -235.5 47t-159.5 132t-87 194t-28 243v107q0 197 40.5 347t114.5 242.5t173.5 138.5t222.5 46q167 0 276 -84.5t135 -249.5h-108q-23 120 -99.5 178.5t-209.5 58.5q-199 0 -314 -157t-118 -486v-59q49 118 162 184t247 66q223 0 351 -132.5t128 -336.5
q0 -215 -134 -347t-357 -132zM633 76q169 0 272 106t103 277q0 174 -98.5 277.5t-278.5 103.5q-162 0 -272.5 -99.5t-110.5 -263.5q0 -114 42.5 -203t131 -143.5t211.5 -54.5z" />
    <glyph glyph-name="uni0037" unicode="7" horiz-adv-x="1032" 
d="M305 0l545 1370h-793v94h936v-18l-571 -1446h-117z" />
    <glyph glyph-name="uni0038" unicode="8" horiz-adv-x="1193" 
d="M598 -16q-95 0 -182.5 27.5t-157 78.5t-111 133.5t-41.5 184.5q0 148 89.5 248t232.5 137q-118 34 -189 116.5t-71 202.5q0 109 62 195t159 130t209 44q173 0 300.5 -103t127.5 -262q0 -123 -69 -204.5t-187 -118.5q146 -38 231.5 -135.5t85.5 -245.5q0 -83 -26 -153
t-71.5 -120t-107 -85.5t-133.5 -52.5t-151 -17zM604 834q135 0 221 74t86 208q0 119 -88.5 196t-224.5 77q-137 0 -226 -76t-89 -201q0 -87 47 -152t119 -95.5t155 -30.5zM598 80q168 0 270.5 87t102.5 249q0 153 -105 239t-264 86q-160 0 -269.5 -88t-109.5 -241
q0 -159 106.5 -245.5t268.5 -86.5z" />
    <glyph glyph-name="uni0039" unicode="9" horiz-adv-x="1226" 
d="M575 -14q-182 0 -300 90.5t-148 259.5h111q28 -125 113.5 -190.5t226.5 -65.5q100 0 174.5 32t129.5 103t83.5 191t29.5 288v78q-49 -113 -164 -176.5t-251 -63.5q-219 0 -348.5 132t-129.5 340q0 214 135 345.5t359 131.5q252 0 381 -162.5t129 -441.5v-168
q0 -191 -36 -330.5t-105.5 -225t-166 -126.5t-223.5 -41zM594 625q163 0 275 97t112 255q0 179 -101 296.5t-284 117.5q-171 0 -274 -106t-103 -277q0 -174 98.5 -278.5t276.5 -104.5z" />
    <glyph glyph-name="uni003A" unicode=":" horiz-adv-x="485" 
d="M242 655q-36 0 -61 25t-25 61t25 61t61 25q37 0 62.5 -24.5t25.5 -61.5t-25.5 -61.5t-62.5 -24.5zM242 -10q-35 0 -60.5 25.5t-25.5 60.5q0 37 25.5 62.5t60.5 25.5q37 0 62.5 -25.5t25.5 -62.5q0 -35 -25.5 -60.5t-62.5 -25.5z" />
    <glyph glyph-name="uni003B" unicode=";" horiz-adv-x="485" 
d="M252 655q-36 0 -61 25t-25 61t25 61t61 25q37 0 62.5 -24.5t25.5 -61.5t-25.5 -61.5t-62.5 -24.5zM121 -240l-74 37l158 375l108 -49z" />
    <glyph glyph-name="uni003C" unicode="&#x3c;" horiz-adv-x="1015" 
d="M891 213l-787 432v29l787 432v-107l-627 -340l627 -340v-106z" />
    <glyph glyph-name="uni003D" unicode="=" horiz-adv-x="991" 
d="M82 778v94h827v-94h-827zM82 436v94h827v-94h-827z" />
    <glyph glyph-name="uni003E" unicode="&#x3e;" horiz-adv-x="1015" 
d="M125 213v106l627 340l-627 340v107l786 -432v-29z" />
    <glyph glyph-name="uni003F" unicode="?" horiz-adv-x="976" 
d="M385 367v116q0 48 12 92t26.5 74.5t47 71t53 62t66.5 67.5q41 41 56 56.5t44.5 51t41 59t22 59.5t10.5 73q0 109 -67 174.5t-199 65.5q-134 0 -220 -83t-98 -225h-104q10 180 127 290t297 110q183 0 280 -93.5t97 -234.5q0 -27 -3 -51.5t-11.5 -48.5t-14.5 -41.5t-23 -41
t-24.5 -35.5t-31 -37t-31.5 -33.5t-36.5 -36.5t-35.5 -35q-40 -39 -60 -60t-48 -55.5t-41.5 -61.5t-23.5 -64t-10 -77v-108h-98zM432 -10q-37 0 -62.5 25.5t-25.5 60.5q0 37 25.5 62.5t62.5 25.5q35 0 60.5 -25.5t25.5 -62.5q0 -35 -25.5 -60.5t-60.5 -25.5z" />
    <glyph glyph-name="uni0040" unicode="@" horiz-adv-x="1861" 
d="M942 -301q-160 0 -298 45t-238 124t-171 185t-106 229t-35 255q0 183 71.5 346.5t190.5 278t279 181t332 66.5q180 0 331.5 -58t255 -158.5t161 -238.5t57.5 -295q0 -108 -22 -197t-58 -147t-83.5 -98t-97 -57t-100.5 -17q-214 0 -233 207q-41 -89 -126 -155t-190 -66
q-146 0 -235.5 96t-89.5 260q0 202 117.5 339t279.5 137q107 0 176.5 -54.5t91.5 -136.5l19 172h108l-57 -491q-14 -106 20.5 -166t118.5 -60q113 0 188.5 109t75.5 321q0 145 -48.5 267.5t-138 211t-223.5 138t-298 49.5q-159 0 -300.5 -59t-245 -161t-164 -248.5
t-60.5 -313.5q0 -120 30 -230t91.5 -205.5t148.5 -165.5t209 -110.5t266 -40.5q354 0 557 213h103q-79 -131 -255 -216t-405 -85zM881 215q122 0 211.5 109.5t89.5 269.5q0 132 -65 205t-175 73q-120 0 -207.5 -108t-87.5 -279q0 -125 64.5 -197.5t169.5 -72.5z" />
    <glyph glyph-name="uni0041" unicode="A" horiz-adv-x="1339" 
d="M68 0l526 1464h151l527 -1464h-115l-162 449h-659l-160 -449h-108zM666 1370l-297 -829h594z" />
    <glyph glyph-name="uni0042" unicode="B" horiz-adv-x="1236" 
d="M188 0v1464h416q206 0 325.5 -90t119.5 -280v-9q0 -122 -63.5 -202.5t-186.5 -114.5q164 -31 242.5 -118.5t78.5 -237.5v-9q0 -197 -120 -300t-334 -103h-478zM301 805h305q330 0 330 282v9q0 276 -334 276h-301v-567zM301 92h363q171 0 258.5 79t87.5 232v9
q0 303 -385 303h-324v-623z" />
    <glyph glyph-name="uni0043" unicode="C" horiz-adv-x="1484" 
d="M788 -16q-311 0 -495 202.5t-184 536.5v16q0 159 52.5 298t143 236.5t216 153.5t267.5 56q153 0 277.5 -51t208.5 -156t106 -252h-114q-34 179 -154 273t-321 94q-248 0 -407 -181t-159 -469v-16q0 -297 152.5 -471t413.5 -174q200 0 332 102t167 289h107
q-39 -232 -203.5 -359.5t-405.5 -127.5z" />
    <glyph glyph-name="uni0044" unicode="D" horiz-adv-x="1404" 
d="M188 0v1464h381q177 0 317 -54.5t229.5 -152t136 -228t46.5 -284.5v-18q0 -123 -28 -231.5t-86.5 -200t-144 -157t-206.5 -102t-268 -36.5h-377zM303 94h258q153 0 271.5 46.5t194.5 131.5t114.5 200.5t38.5 256.5v16q0 137 -37 249.5t-111.5 197.5t-195 131.5
t-277.5 46.5h-256v-1276z" />
    <glyph glyph-name="uni0045" unicode="E" horiz-adv-x="1159" 
d="M188 0v1464h842v-94h-727v-571h590v-94h-590v-611h764v-94h-879z" />
    <glyph glyph-name="uni0046" unicode="F" horiz-adv-x="1105" 
d="M188 0v1464h834v-94h-719v-582h565v-94h-565v-694h-115z" />
    <glyph glyph-name="uni0047" unicode="G" horiz-adv-x="1548" 
d="M811 -16q-216 0 -376 95.5t-243 262t-83 381.5v16q0 211 90.5 381.5t250 266.5t357.5 96q108 0 203 -26t175 -77.5t135 -136.5t75 -196h-115q-38 175 -163 259.5t-308 84.5q-262 0 -423 -181t-161 -469v-16q0 -297 154 -472t432 -175q251 0 383 142t135 390v8h-450v97
h561v-84q0 -310 -170 -478.5t-459 -168.5z" />
    <glyph glyph-name="uni0048" unicode="H" horiz-adv-x="1468" 
d="M188 0v1464h115v-682h862v682h115v-1464h-115v686h-862v-686h-115z" />
    <glyph glyph-name="uni0049" unicode="I" horiz-adv-x="512" 
d="M199 0v1464h114v-1464h-114z" />
    <glyph glyph-name="uni004A" unicode="J" horiz-adv-x="821" 
d="M281 -14q-116 0 -205 41v96q95 -43 198 -43q265 0 265 295v1089h114v-1093q0 -194 -101.5 -289.5t-270.5 -95.5z" />
    <glyph glyph-name="uni004B" unicode="K" horiz-adv-x="1226" 
d="M188 0v1464h115v-721l711 723h131l-709 -714l744 -752h-140l-737 739v-739h-115z" />
    <glyph glyph-name="uni004C" unicode="L" horiz-adv-x="1085" 
d="M188 0v1464h115v-1370h711v-94h-826z" />
    <glyph glyph-name="uni004D" unicode="M" horiz-adv-x="1742" 
d="M188 0v1464h164l516 -1257l518 1257h160v-1464h-112v1321l-551 -1321h-37l-551 1321v-1321h-107z" />
    <glyph glyph-name="uni004E" unicode="N" horiz-adv-x="1460" 
d="M188 0v1464h156l819 -1306v1306h109v-1464h-135l-838 1337v-1337h-111z" />
    <glyph glyph-name="uni004F" unicode="O" horiz-adv-x="1640" 
d="M825 -16q-205 0 -369.5 99t-255.5 267.5t-91 372.5v16q0 154 54 291t147 236t226 157t285 58t285.5 -57.5t227 -156.5t147 -235t53.5 -289v-16q0 -205 -91 -375t-254 -269t-364 -99zM825 80q172 0 307 83.5t209 231.5t74 334v16q0 178 -73 323.5t-209.5 231.5t-311.5 86
q-176 0 -312.5 -84t-210 -230.5t-73.5 -330.5v-16q0 -183 78.5 -331t216 -231t305.5 -83z" />
    <glyph glyph-name="uni0050" unicode="P" horiz-adv-x="1163" 
d="M188 0v1464h387q110 0 199 -23t157.5 -70.5t106 -128.5t37.5 -189v-9q0 -110 -37 -191.5t-105 -130t-156.5 -72t-198.5 -23.5h-275v-627h-115zM303 719h283q182 0 278.5 80t96.5 245v9q0 170 -98 243.5t-281 73.5h-279v-651z" />
    <glyph glyph-name="uni0051" unicode="Q" horiz-adv-x="1640" 
d="M1376 -123l-190 205q-162 -98 -361 -98q-205 0 -369.5 99t-255.5 267.5t-91 372.5v16q0 154 54 291t147 236t226 157t285 58t285.5 -57.5t227 -156.5t147 -235t53.5 -289v-16q0 -179 -71 -333t-197 -257l180 -192zM825 80q163 0 293 76l-207 225l70 68l217 -238
q104 88 160.5 222.5t56.5 295.5v16q0 178 -73 323.5t-209.5 231.5t-311.5 86q-176 0 -312.5 -84t-210 -230.5t-73.5 -330.5v-16q0 -183 78.5 -331t216 -231t305.5 -83z" />
    <glyph glyph-name="uni0052" unicode="R" horiz-adv-x="1241" 
d="M188 0v1464h402q110 0 198.5 -22t156.5 -68t105 -123t37 -180v-8q0 -174 -101 -268t-277 -119l465 -676h-127l-459 668h-285v-668h-115zM303 760h293q377 0 377 303v8q0 83 -26.5 141.5t-77.5 92.5t-118 49.5t-155 15.5h-293v-610z" />
    <glyph glyph-name="uni0053" unicode="S" horiz-adv-x="1232" 
d="M631 -16q-132 0 -233 34t-164.5 95t-99.5 137t-48 170h113q46 -342 432 -342q170 0 274.5 88t104.5 225q0 152 -85 220t-309 102q-245 36 -359 125.5t-114 259.5t128 276.5t333 106.5q203 0 324.5 -96.5t146.5 -272.5h-104q-27 138 -116.5 206t-250.5 68q-168 0 -261 -74
t-93 -206q0 -84 32 -137.5t117 -92.5t236 -61q129 -19 215 -47.5t149.5 -76t92 -119t28.5 -173.5q0 -177 -136 -296t-353 -119z" />
    <glyph glyph-name="uni0054" unicode="T" horiz-adv-x="1144" 
d="M516 0v1370h-455v94h1022v-94h-454v-1370h-113z" />
    <glyph glyph-name="uni0055" unicode="U" horiz-adv-x="1396" 
d="M692 -14q-250 0 -387 139t-137 399v940h113v-927q0 -232 103.5 -343.5t309.5 -111.5q215 0 318.5 113t103.5 368v901h115v-917q0 -268 -135 -414.5t-404 -146.5z" />
    <glyph glyph-name="uni0056" unicode="V" horiz-adv-x="1304" 
d="M590 0l-531 1464h113l490 -1351l475 1351h106l-518 -1464h-135z" />
    <glyph glyph-name="uni0057" unicode="W" horiz-adv-x="1884" 
d="M455 0l-387 1464h114l336 -1290l387 1290h80l373 -1294l354 1294h105l-402 -1464h-110l-361 1262l-381 -1262h-108z" />
    <glyph glyph-name="uni0058" unicode="X" horiz-adv-x="1323" 
d="M94 0l506 758l-463 706h125l410 -620l405 620h119l-467 -708l500 -756h-129l-445 672l-444 -672h-117z" />
    <glyph glyph-name="uni0059" unicode="Y" horiz-adv-x="1183" 
d="M549 0v651l-502 813h127l434 -716l414 716h115l-473 -815v-649h-115z" />
    <glyph glyph-name="uni005A" unicode="Z" horiz-adv-x="1202" 
d="M55 0v23l908 1347h-834v94h993v-20l-895 -1346h883v-98h-1055z" />
    <glyph glyph-name="uni005B" unicode="[" horiz-adv-x="696" 
d="M190 -303v1892h422v-88h-313v-1716h313v-88h-422z" />
    <glyph glyph-name="uni005C" unicode="\" horiz-adv-x="800" 
d="M672 -303l-596 1892h102l596 -1892h-102z" />
    <glyph glyph-name="uni005D" unicode="]" horiz-adv-x="696" 
d="M86 -303v88h311v1716h-311v88h420v-1892h-420z" />
    <glyph glyph-name="uni005E" unicode="^" horiz-adv-x="978" 
d="M94 864l342 600h109l342 -600h-113l-285 502l-286 -502h-109z" />
    <glyph glyph-name="uni005F" unicode="_" horiz-adv-x="796" 
d="M-2 -309v90h801v-90h-801z" />
    <glyph glyph-name="uni0060" unicode="`" horiz-adv-x="819" 
d="M377 1239l-189 301h134l139 -301h-84z" />
    <glyph glyph-name="uni0061" unicode="a" horiz-adv-x="1083" 
d="M453 -16q-164 0 -263.5 78.5t-99.5 226.5q0 90 40.5 154.5t112.5 100.5t158 52t191 16h223v97q0 150 -64.5 218t-205.5 68q-126 0 -204.5 -56t-96.5 -171h-107q9 82 46 144.5t93.5 100t125.5 56t147 18.5q176 0 275.5 -91t99.5 -287v-709h-109v164q-118 -180 -362 -180z
M461 72q149 0 251.5 77.5t102.5 196.5v182h-219q-71 0 -127.5 -6t-108.5 -22.5t-86 -43t-54.5 -69t-20.5 -98.5q0 -104 66 -160.5t196 -56.5z" />
    <glyph glyph-name="uni0062" unicode="b" horiz-adv-x="1253" 
d="M684 -16q-148 0 -254.5 75.5t-153.5 184.5v-244h-108v1583h108v-762q48 110 160.5 188t247.5 78q207 0 344 -147.5t137 -392.5v-17q0 -248 -135 -397t-346 -149zM676 76q172 0 274.5 119t102.5 331v17q0 108 -30.5 195t-82.5 142.5t-120 85t-146 29.5q-79 0 -150.5 -29.5
t-127.5 -85t-89 -143t-33 -194.5v-17q0 -212 114 -331t288 -119z" />
    <glyph glyph-name="uni0063" unicode="c" horiz-adv-x="1138" 
d="M600 -16q-220 0 -366 149.5t-146 390.5v17q0 120 40.5 223t109.5 173.5t163 110t199 39.5q112 0 206 -37.5t160.5 -120t80.5 -198.5h-107q-19 129 -113 196.5t-227 67.5q-172 0 -285.5 -123.5t-113.5 -330.5v-17q0 -207 112.5 -327.5t286.5 -120.5q139 0 237.5 77.5
t118.5 217.5h101q-22 -172 -148 -279.5t-309 -107.5z" />
    <glyph glyph-name="uni0064" unicode="d" horiz-adv-x="1253" 
d="M569 -16q-102 0 -190 36.5t-152.5 103.5t-101.5 169t-37 227v17q0 244 141.5 397t356.5 153q147 0 243.5 -70.5t147.5 -182.5v749h108v-1583h-108v248q-47 -107 -157 -185.5t-251 -78.5zM580 76q82 0 154 29.5t127 85t86.5 142.5t31.5 195v17q0 215 -105.5 332.5
t-277.5 117.5q-176 0 -285.5 -121t-109.5 -333v-17q0 -213 106.5 -330.5t272.5 -117.5z" />
    <glyph glyph-name="uni0065" unicode="e" horiz-adv-x="1134" 
d="M596 -16q-231 0 -369.5 148.5t-138.5 391.5v17q0 242 138 394t354 152q98 0 182 -32.5t149 -95t101.5 -164t36.5 -230.5v-39h-848q3 -217 104.5 -333.5t290.5 -116.5q136 0 222.5 56t113.5 167h108q-33 -151 -151 -233t-293 -82zM205 614h731q-7 190 -101 285.5
t-255 95.5q-156 0 -258 -103.5t-117 -277.5z" />
    <glyph glyph-name="uni0066" unicode="f" horiz-adv-x="681" 
d="M215 0v979h-162v92h162v193q0 162 82 243.5t221 81.5q60 0 119 -18v-92q-56 18 -115 18q-93 0 -145.5 -55t-52.5 -168v-203h299v-92h-299v-979h-109z" />
    <glyph glyph-name="uni0067" unicode="g" horiz-adv-x="1253" 
d="M590 -385q-112 0 -200.5 26t-145.5 72t-90 102.5t-43 123.5h110q23 -108 114.5 -170t252.5 -62q181 0 285 89.5t104 279.5v219q-47 -106 -156.5 -183t-249.5 -77q-208 0 -345.5 141.5t-137.5 370.5v14q0 228 142.5 377t355.5 149q147 0 243.5 -68.5t147.5 -178.5v231h108
v-999q-1 -116 -37.5 -204t-103.5 -143t-156 -82.5t-198 -27.5zM582 127q169 0 283 115.5t114 310.5v16q0 199 -106 312.5t-277 113.5q-175 0 -285 -116.5t-110 -313.5v-16q0 -194 108 -308t273 -114z" />
    <glyph glyph-name="uni0068" unicode="h" horiz-adv-x="1193" 
d="M168 0v1583h108v-721q39 94 141.5 159.5t237.5 65.5q179 0 280 -104t101 -324v-659h-108v666q0 327 -297 327q-92 0 -171 -38t-131.5 -118t-52.5 -188v-649h-108z" />
    <glyph glyph-name="uni0069" unicode="i" horiz-adv-x="452" 
d="M225 1300q-32 0 -55 23t-23 55q0 31 23 53.5t55 22.5t54 -22.5t22 -53.5q0 -32 -22 -55t-54 -23zM172 0v1071h109v-1071h-109z" />
    <glyph glyph-name="uni006A" unicode="j" horiz-adv-x="452" 
d="M225 1300q-32 0 -55 23t-23 55q0 31 23 53.5t55 22.5t54 -22.5t22 -53.5q0 -32 -22 -55t-54 -23zM14 -385v92q88 7 123 52t35 135v1177h109v-1169q0 -143 -62 -212t-205 -75z" />
    <glyph glyph-name="uni006B" unicode="k" horiz-adv-x="997" 
d="M168 0v1583h108v-1016l523 504h129l-522 -500l557 -571h-136l-551 567v-567h-108z" />
    <glyph glyph-name="uni006C" unicode="l" horiz-adv-x="454" 
d="M172 0v1583h111v-1583h-111z" />
    <glyph glyph-name="uni006D" unicode="m" horiz-adv-x="1851" 
d="M168 0v1071h108v-203q39 93 133 156t218 63q264 0 327 -239q50 112 153.5 175.5t227.5 63.5q166 0 262.5 -100t96.5 -317v-670h-109v676q0 166 -67.5 241.5t-200.5 75.5q-85 0 -159 -37.5t-123.5 -116.5t-49.5 -186v-653h-108v676q0 166 -68 241.5t-201 75.5
q-85 0 -159 -37.5t-123.5 -116.5t-49.5 -186v-653h-108z" />
    <glyph glyph-name="uni006E" unicode="n" horiz-adv-x="1193" 
d="M168 0v1071h108v-209q39 94 141.5 159.5t237.5 65.5q179 0 280 -104t101 -324v-659h-108v666q0 327 -297 327q-92 0 -171 -38t-131.5 -118t-52.5 -188v-649h-108z" />
    <glyph glyph-name="uni006F" unicode="o" horiz-adv-x="1210" 
d="M604 -16q-108 0 -203.5 40.5t-164 112t-108.5 172.5t-40 217v17q0 118 40.5 220.5t110.5 173t165 110.5t202 40q108 0 202.5 -39.5t164 -109t109.5 -171.5t40 -222v-17q0 -239 -149 -391.5t-369 -152.5zM606 76q175 0 289.5 123.5t114.5 326.5v17q0 207 -114.5 329.5
t-289.5 122.5q-176 0 -290.5 -123.5t-114.5 -328.5v-17q0 -203 114 -326.5t291 -123.5z" />
    <glyph glyph-name="uni0070" unicode="p" horiz-adv-x="1253" 
d="M168 -373v1444h108v-250q48 110 160.5 188t247.5 78q207 0 344 -147.5t137 -392.5v-17q0 -248 -135 -397t-346 -149q-149 0 -254.5 75.5t-153.5 184.5v-617h-108zM676 76q172 0 274.5 119t102.5 331v17q0 108 -30.5 195t-82.5 142.5t-120 85t-146 29.5
q-79 0 -150.5 -29.5t-127.5 -85t-89 -143t-33 -194.5v-17q0 -212 114 -331t288 -119z" />
    <glyph glyph-name="uni0071" unicode="q" horiz-adv-x="1253" 
d="M977 -373v621q-47 -107 -157 -185.5t-251 -78.5q-102 0 -190 36.5t-152.5 103.5t-101.5 169t-37 227v17q0 244 141.5 397t356.5 153q147 0 243.5 -70.5t147.5 -182.5v237h108v-1444h-108zM580 76q82 0 154 29.5t127 85t86.5 142.5t31.5 195v17q0 215 -105.5 332.5
t-277.5 117.5q-176 0 -285.5 -121t-109.5 -333v-17q0 -213 106.5 -330.5t272.5 -117.5z" />
    <glyph glyph-name="uni0072" unicode="r" horiz-adv-x="712" 
d="M168 0v1071h108v-225q104 231 363 239v-102q-363 -14 -363 -389v-594h-108z" />
    <glyph glyph-name="uni0073" unicode="s" horiz-adv-x="952" 
d="M489 -18q-186 0 -293 90.5t-118 246.5h104q14 -115 89 -180t218 -65q133 0 203 56t70 155t-61.5 143.5t-219.5 73.5q-202 36 -285 100.5t-83 198.5q0 130 104.5 208t247.5 78q154 0 253 -69.5t120 -220.5h-105q-20 102 -86 150t-184 48q-113 0 -181.5 -52t-68.5 -138
q0 -91 63 -134t230 -73q75 -13 126 -27.5t98.5 -37.5t75.5 -54t44 -77.5t16 -108.5q0 -139 -99.5 -225t-277.5 -86z" />
    <glyph glyph-name="uni0074" unicode="t" horiz-adv-x="692" 
d="M471 -14q-127 0 -194.5 71t-67.5 201v721h-158v92h158v244h108v-244h281v-92h-281v-713q0 -94 42 -141t118 -47q67 0 135 22v-92q-64 -22 -141 -22z" />
    <glyph glyph-name="uni0075" unicode="u" horiz-adv-x="1185" 
d="M535 -16q-176 0 -276.5 99t-100.5 310v678h108v-672q0 -321 293 -321q90 0 168 37.5t130 117t52 187.5v651h109v-1071h-109v205q-39 -93 -139.5 -157t-234.5 -64z" />
    <glyph glyph-name="uni0076" unicode="v" horiz-adv-x="1060" 
d="M463 0l-412 1071h119l365 -962l362 962h111l-404 -1071h-141z" />
    <glyph glyph-name="uni0077" unicode="w" horiz-adv-x="1589" 
d="M393 0l-334 1071h117l287 -938l293 938h92l282 -938l289 938h111l-338 -1071h-125l-266 897l-285 -897h-123z" />
    <glyph glyph-name="uni0078" unicode="x" horiz-adv-x="1046" 
d="M59 0l398 553l-373 518h129l309 -436l305 436h121l-366 -510l405 -561h-129l-340 479l-340 -479h-119z" />
    <glyph glyph-name="uni0079" unicode="y" horiz-adv-x="1040" 
d="M281 -373l194 465l-424 979h117l367 -854l342 854h110l-594 -1444h-112z" />
    <glyph glyph-name="uni007A" unicode="z" horiz-adv-x="970" 
d="M49 0v18l696 961h-634v92h804v-20l-690 -955h676v-96h-852z" />
    <glyph glyph-name="uni007B" unicode="{" horiz-adv-x="743" 
d="M657 -299q-220 0 -315.5 95t-54.5 313l45 233q23 116 -36 189.5t-210 74.5v82q151 1 210 74.5t36 189.5l-45 234q-41 218 54 312.5t316 94.5v-86q-67 -1 -114 -10t-85 -30.5t-55.5 -58t-23.5 -91t10 -129.5l47 -246q22 -123 -30.5 -196t-161.5 -99q109 -26 161.5 -99
t30.5 -196l-47 -246q-16 -75 -10 -129.5t23.5 -91t55.5 -58t85 -30.5t114 -10v-86z" />
    <glyph glyph-name="uni007C" unicode="|" horiz-adv-x="493" 
d="M201 -303v1892h92v-1892h-92z" />
    <glyph glyph-name="uni007D" unicode="}" horiz-adv-x="743" 
d="M86 -299v86q55 1 96.5 7t77 20.5t56.5 38t35 59t12.5 83.5t-11.5 111l-45 246q-22 123 31 196t162 99q-109 26 -162 99t-31 196l45 246q10 63 11.5 111t-12.5 83.5t-35 59t-56.5 38t-77 20.5t-96.5 7v86q221 0 316.5 -95t54.5 -312l-47 -234q-22 -116 36.5 -189.5
t210.5 -74.5v-82q-152 -1 -210.5 -74.5t-36.5 -189.5l47 -233q41 -218 -54.5 -313t-316.5 -95z" />
    <glyph glyph-name="uni007E" unicode="~" horiz-adv-x="897" 
d="M94 475q10 104 65.5 164.5t133.5 60.5q44 0 90.5 -19t79 -42t70.5 -42t67 -19q45 0 76 35t35 92h90q-9 -106 -63 -166t-130 -60q-46 0 -94 19t-80.5 42.5t-70 42.5t-66.5 19q-44 0 -74.5 -35.5t-38.5 -91.5h-90z" />
    <glyph glyph-name="uni00A0" unicode="&#xa0;" horiz-adv-x="505" 
 />
    <glyph glyph-name="uni00A1" unicode="&#xa1;" horiz-adv-x="557" 
d="M279 1061q-35 0 -60.5 25.5t-25.5 62.5q0 35 25.5 60.5t60.5 25.5q37 0 62.5 -25.5t25.5 -60.5q0 -37 -25.5 -62.5t-62.5 -25.5zM217 -240l16 1098h86l19 -1098h-121z" />
    <glyph glyph-name="uni00A2" unicode="&#xa2;" horiz-adv-x="1132" 
d="M553 -276v262q-204 15 -334.5 160t-130.5 378v17q0 232 132.5 380.5t332.5 163.5v203h82v-203q162 -10 277.5 -101t134.5 -253h-107q-18 120 -101 186.5t-204 75.5v-915q126 9 214.5 85.5t106.5 207.5h101q-22 -163 -137.5 -269t-284.5 -116v-262h-82zM201 524
q0 -198 97.5 -315t254.5 -131v915q-156 -15 -254 -135t-98 -317v-17z" />
    <glyph glyph-name="uni00A3" unicode="&#xa3;" horiz-adv-x="1206" 
d="M100 670v84h146q-49 167 -49 309q0 186 125 302t317 116q193 0 305 -101.5t127 -273.5h-110q-23 139 -98.5 208.5t-223.5 69.5q-145 0 -235.5 -89t-90.5 -232q0 -132 47 -309h469v-84h-446q39 -164 39 -281q0 -87 -37 -166q62 -10 146 -46t159 -65.5t131 -29.5
q96 0 150.5 53t60.5 160h98q-9 -141 -89 -226t-210 -85q-63 0 -135.5 23.5t-126.5 51t-116.5 51t-108.5 23.5q-69 0 -110.5 -38t-49.5 -95h-98q5 48 26.5 92t65 80.5t101.5 48.5q40 75 40 170q0 116 -49 279h-170z" />
    <glyph glyph-name="uni00A5" unicode="&#xa5;" horiz-adv-x="1122" 
d="M150 625v80h350l-443 759h123l400 -696l374 696h111l-416 -759h350v-80h-368v-199h368v-80h-368v-346h-111v346h-370v80h370v199h-370z" />
    <glyph glyph-name="uni00A6" unicode="&#xa6;" horiz-adv-x="499" 
d="M201 752v837h92v-837h-92zM201 -303v911h92v-911h-92z" />
    <glyph glyph-name="uni00A7" unicode="&#xa7;" horiz-adv-x="1095" 
d="M545 -281q-164 0 -268 83t-111 231h113q9 -104 76.5 -161.5t187.5 -57.5t182.5 60t62.5 159q0 106 -66 160t-249 100q-92 24 -155.5 50t-117 65t-80 93.5t-26.5 127.5q0 104 72.5 177.5t189.5 102.5q-73 45 -108 105t-35 157q0 135 102 223.5t244 88.5q157 0 248 -78.5
t100 -220.5h-110q-9 101 -64.5 153t-171.5 52q-109 0 -175.5 -58.5t-66.5 -156.5q0 -101 62.5 -153.5t236.5 -102.5q95 -26 157.5 -51.5t117.5 -64.5t81.5 -94t26.5 -130q0 -103 -66.5 -175.5t-182.5 -103.5q143 -82 143 -264q0 -137 -98 -226.5t-252 -89.5zM666 346
q227 51 227 225q0 50 -18.5 87.5t-60 65.5t-91 48t-127.5 43l-158 47q-106 -20 -170.5 -78t-64.5 -147q0 -98 71.5 -149t231.5 -95z" />
    <glyph glyph-name="uni00A8" unicode="&#xa8;" horiz-adv-x="819" 
d="M240 1303q-32 0 -54 22t-22 53t22 52.5t54 21.5q31 0 52 -21.5t21 -52.5t-21 -53t-52 -22zM580 1303q-31 0 -52.5 22t-21.5 53t21.5 52.5t52.5 21.5q32 0 53.5 -21.5t21.5 -52.5t-21.5 -53t-53.5 -22z" />
    <glyph glyph-name="uni00A9" unicode="&#xa9;" horiz-adv-x="1728" 
d="M862 -18q-205 0 -377 98t-272 270.5t-100 380.5q0 154 59 293.5t159 240t240 159.5t295 59q157 0 296.5 -59t238.5 -159t157 -238t58 -292q0 -157 -59 -297t-159.5 -240t-240 -158t-295.5 -58zM862 47q137 0 261.5 52t216 142t146 219t54.5 275q0 145 -53 272t-143 216.5
t-214.5 141.5t-263.5 52t-264 -52t-216 -142.5t-144.5 -218.5t-53.5 -273q0 -146 54.5 -274.5t146.5 -217.5t215 -140.5t258 -51.5zM868 309q-184 0 -291.5 114.5t-107.5 305.5v14q0 185 113.5 302.5t283.5 117.5q141 0 237 -70.5t114 -201.5h-107q-17 91 -79 138.5
t-165 47.5q-127 0 -206.5 -91t-79.5 -243v-12q0 -155 77 -244.5t211 -89.5q103 0 171 53t85 150h101q-18 -138 -115.5 -214.5t-241.5 -76.5z" />
    <glyph glyph-name="uni00AA" unicode="&#xaa;" horiz-adv-x="856" 
d="M360 618q-128 0 -206 62t-78 178q0 71 31.5 122t88 79.5t125 41.5t152.5 13h166v68q0 110 -48.5 161.5t-154.5 51.5q-191 0 -221 -164h-102q13 123 104.5 186.5t224.5 63.5q141 0 220 -72.5t79 -226.5v-549h-102v123q-90 -138 -279 -138zM377 700q110 0 186 58t76 147
v133h-162q-68 0 -119 -8t-92.5 -27.5t-63.5 -55.5t-22 -87q0 -160 197 -160z" />
    <glyph glyph-name="uni00AB" unicode="&#xab;" horiz-adv-x="917" 
d="M387 170l-276 365l276 364h111l-271 -364l271 -365h-111zM711 170l-277 365l277 364h110l-270 -364l270 -365h-110z" />
    <glyph glyph-name="uni00AE" unicode="&#xae;" horiz-adv-x="1052" 
d="M526 578q-190 0 -322 129.5t-132 320.5q0 189 132 322t322 133q193 0 324 -131.5t131 -321.5q0 -191 -132 -321.5t-323 -130.5zM526 635q167 0 279.5 112t112.5 283q0 172 -111.5 284.5t-280.5 112.5q-167 0 -279 -114t-112 -285t112.5 -282t278.5 -111zM375 805v467h153
q79 0 124.5 -35t45.5 -102v-2q0 -102 -104 -125l133 -203h-84l-125 190h-67v-190h-76zM451 1053h75q99 0 99 77v3q0 79 -99 79h-75v-159z" />
    <glyph glyph-name="uni00AF" unicode="&#xaf;" horiz-adv-x="819" 
d="M162 1325v86h495v-86h-495z" />
    <glyph glyph-name="uni00B0" unicode="&#xb0;" horiz-adv-x="833" 
d="M418 874q-130 0 -222 89.5t-92 214.5q0 126 92 215.5t222 89.5q129 0 220 -89.5t91 -215.5q0 -125 -91 -214.5t-220 -89.5zM418 954q92 0 152.5 64.5t60.5 159.5t-61 160t-152 65q-93 0 -155 -65t-62 -160q0 -94 62 -159t155 -65z" />
    <glyph glyph-name="uni00B1" unicode="&#xb1;" horiz-adv-x="1044" 
d="M473 268v408h-399v92h399v408h98v-408h400v-92h-400v-408h-98zM74 0v92h897v-92h-897z" />
    <glyph glyph-name="uni00B2" unicode="&#xb2;" horiz-adv-x="587" 
d="M31 762v18l266 269q67 69 97 118.5t30 102.5q0 61 -36.5 96t-98.5 35q-67 0 -106 -41.5t-48 -118.5h-84q6 108 70.5 170t169.5 62q103 0 163 -55.5t60 -145.5q0 -69 -34.5 -127t-112.5 -133l-185 -178h340v-72h-491z" />
    <glyph glyph-name="uni00B3" unicode="&#xb3;" horiz-adv-x="630" 
d="M313 754q-119 0 -189 59.5t-75 155.5h84q8 -65 53 -105.5t125 -40.5q76 0 118 36.5t42 101.5q0 61 -39 97t-110 36h-56v67h51q67 0 101.5 32.5t34.5 88.5q0 55 -37 88t-101 33q-68 0 -108.5 -37t-48.5 -98h-82q6 90 70 147.5t171 57.5q101 0 162.5 -53t61.5 -134
q0 -58 -32.5 -98t-88.5 -55q64 -14 103.5 -59.5t39.5 -115.5q0 -96 -67.5 -150t-182.5 -54z" />
    <glyph glyph-name="uni00B4" unicode="&#xb4;" horiz-adv-x="819" 
d="M358 1239l140 301h133l-189 -301h-84z" />
    <glyph glyph-name="uni00B6" unicode="&#xb6;" horiz-adv-x="1144" 
d="M555 -205v928h-29q-197 0 -315.5 93t-118.5 269q0 185 120.5 282t313.5 97h426v-1669h-94v1591h-211v-1591h-92z" />
    <glyph glyph-name="uni00B7" unicode="&#xb7;" horiz-adv-x="468" 
d="M233 575q-35 0 -60.5 26t-25.5 63q0 35 25.5 60.5t60.5 25.5q37 0 63 -25.5t26 -60.5q0 -37 -26 -63t-63 -26z" />
    <glyph glyph-name="uni00B8" unicode="&#xb8;" horiz-adv-x="819" 
d="M430 -434q-83 0 -136 44t-61 116h91q6 -37 33 -61.5t69 -24.5q46 0 74 24.5t28 65.5t-27 60.5t-65 19.5q-40 0 -74 -17l-53 43l92 164h88l-71 -125q81 19 144 -20.5t63 -128.5q0 -75 -56 -117.5t-139 -42.5z" />
    <glyph glyph-name="uni00B9" unicode="&#xb9;" horiz-adv-x="444" 
d="M223 762v606l-180 -125v84l197 137h75v-702h-92z" />
    <glyph glyph-name="uni00BA" unicode="&#xba;" horiz-adv-x="972" 
d="M485 618q-173 0 -289 119t-116 305v13q0 189 116.5 306.5t290.5 117.5q175 0 290.5 -116t115.5 -306v-13q0 -191 -116.5 -308.5t-291.5 -117.5zM487 705q131 0 215 92.5t84 246.5v13q0 154 -83.5 245t-215.5 91q-130 0 -215.5 -93t-85.5 -245v-13q0 -152 84.5 -244.5
t216.5 -92.5z" />
    <glyph glyph-name="uni00BB" unicode="&#xbb;" horiz-adv-x="917" 
d="M96 170l271 365l-271 364h111l276 -364l-276 -365h-111zM420 170l270 365l-270 364h110l277 -364l-277 -365h-110z" />
    <glyph glyph-name="uni00BC" unicode="&#xbc;" horiz-adv-x="1353" 
d="M229 762v606l-180 -125v84l197 137h76v-702h-93zM92 0l1057 1464h92l-1057 -1464h-92zM1112 0v152h-364v32l335 518h117v-481h96v-69h-96v-152h-88zM852 221h262v414z" />
    <glyph glyph-name="uni00BD" unicode="&#xbd;" horiz-adv-x="1361" 
d="M231 762v606l-180 -125v84l197 137h76v-702h-93zM59 0l1057 1464h92l-1056 -1464h-93zM797 0v18l266 271q67 67 97 117t30 104q0 60 -36.5 94.5t-98.5 34.5q-136 0 -154 -160h-84q6 108 70.5 170t169.5 62q103 0 163 -54.5t60 -146.5q0 -68 -35 -127t-112 -131l-185 -180
h340v-72h-491z" />
    <glyph glyph-name="uni00BE" unicode="&#xbe;" horiz-adv-x="1382" 
d="M319 754q-119 0 -189 59.5t-75 155.5h84q8 -65 53 -105.5t125 -40.5q76 0 118 36.5t42 101.5q0 61 -39 97t-110 36h-56v67h52q67 0 101 32.5t34 88.5q0 55 -36.5 88t-100.5 33q-68 0 -109 -37t-49 -98h-82q6 89 70.5 147t171.5 58q101 0 162 -53t61 -134q0 -58 -32.5 -98
t-88.5 -55q64 -14 103.5 -59.5t39.5 -115.5q0 -96 -67.5 -150t-182.5 -54zM176 0l1057 1464h92l-1057 -1464h-92zM1133 0v152h-365v32l336 518h117v-481h96v-69h-96v-152h-88zM872 221h263v414z" />
    <glyph glyph-name="uni00BF" unicode="&#xbf;" horiz-adv-x="976" 
d="M545 1235q35 0 60.5 -25.5t25.5 -60.5q0 -37 -25.5 -62.5t-60.5 -25.5q-37 0 -62.5 25.5t-25.5 62.5q0 35 25.5 60.5t62.5 25.5zM592 858v-117q0 -48 -12 -92t-26 -74t-47.5 -71t-53 -61.5t-66.5 -67.5q-49 -48 -70.5 -71t-51.5 -63t-42 -79.5t-12 -85.5
q0 -109 68 -174.5t200 -65.5q134 0 220 82.5t96 224.5h104q-11 -180 -126.5 -289.5t-295.5 -109.5q-184 0 -280.5 93.5t-96.5 234.5q0 30 5.5 59.5t11 50.5t22 48.5t24 41t33.5 42.5t33.5 37.5t40 41l39.5 39.5q34 34 44 44.5t37 39.5t36.5 42.5t26.5 40.5t23.5 47t12 47.5
t5.5 56.5v108h98z" />
    <glyph glyph-name="uni00C0" unicode="&#xc0;" horiz-adv-x="1339" 
d="M631 1579l-180 250h135l131 -250h-86zM68 0l526 1464h151l527 -1464h-115l-162 449h-659l-160 -449h-108zM666 1370l-297 -829h594z" />
    <glyph glyph-name="uni00C1" unicode="&#xc1;" horiz-adv-x="1339" 
d="M604 1579l131 250h135l-180 -250h-86zM68 0l526 1464h151l527 -1464h-115l-162 449h-659l-160 -449h-108zM666 1370l-297 -829h594z" />
    <glyph glyph-name="uni00C2" unicode="&#xc2;" horiz-adv-x="1339" 
d="M387 1579l225 250h103l221 -250h-86l-188 160l-191 -160h-84zM68 0l526 1464h151l527 -1464h-115l-162 449h-659l-160 -449h-108zM666 1370l-297 -829h594z" />
    <glyph glyph-name="uni00C3" unicode="&#xc3;" horiz-adv-x="1339" 
d="M788 1585q-42 0 -89.5 27.5t-90 54.5t-71.5 27q-36 0 -62 -29.5t-33 -81.5h-84q12 96 61 149.5t118 53.5q32 0 69 -17t64.5 -37.5t60.5 -37.5t57 -17q35 0 61.5 30t33.5 81h82q-12 -96 -60.5 -149.5t-116.5 -53.5zM68 0l526 1464h151l527 -1464h-115l-162 449h-659
l-160 -449h-108zM666 1370l-297 -829h594z" />
    <glyph glyph-name="uni00C4" unicode="&#xc4;" horiz-adv-x="1339" 
d="M477 1614q-32 0 -54 22.5t-22 53.5q0 30 22 51.5t54 21.5q31 0 52.5 -21.5t21.5 -51.5q0 -31 -21.5 -53.5t-52.5 -22.5zM846 1614q-31 0 -52.5 22.5t-21.5 53.5q0 30 22 51.5t52 21.5t52 -21.5t22 -51.5q0 -31 -21.5 -53.5t-52.5 -22.5zM68 0l526 1464h151l527 -1464
h-115l-162 449h-659l-160 -449h-108zM666 1370l-297 -829h594z" />
    <glyph glyph-name="uni00C5" unicode="&#xc5;" horiz-adv-x="1339" 
d="M662 1544q-82 0 -141.5 58.5t-59.5 138.5q0 79 59.5 136.5t141.5 57.5q83 0 141.5 -57t58.5 -137t-58.5 -138.5t-141.5 -58.5zM662 1610q54 0 89 37.5t35 93.5t-35 93.5t-89 37.5q-53 0 -89 -38t-36 -93t36 -93t89 -38zM68 0l526 1464h151l527 -1464h-115l-162 449h-659
l-160 -449h-108zM666 1370l-297 -829h594z" />
    <glyph glyph-name="uni00C6" unicode="&#xc6;" horiz-adv-x="1937" 
d="M59 0l744 1464h1005v-94h-727v-571h590v-94h-590v-611h764v-94h-878v451h-566l-225 -451h-117zM862 1370l-416 -829h521v829h-105z" />
    <glyph glyph-name="uni00C7" unicode="&#xc7;" horiz-adv-x="1484" 
d="M760 -434q-83 0 -136 44t-61 116h90q6 -37 33.5 -61.5t69.5 -24.5q46 0 74 24.5t28 65.5t-27 60.5t-65 19.5q-40 0 -74 -17l-53 43l84 150q-284 22 -449 221t-165 516v16q0 159 52.5 298t143 236.5t216 153.5t267.5 56q153 0 277.5 -51t208.5 -156t106 -252h-114
q-34 179 -154 273t-321 94q-248 0 -407 -181t-159 -469v-16q0 -297 152.5 -471t413.5 -174q200 0 332 102t167 289h107q-39 -227 -197 -354t-391 -133l-61 -109q81 19 143.5 -20.5t62.5 -128.5q0 -75 -55.5 -117.5t-138.5 -42.5z" />
    <glyph glyph-name="uni00C8" unicode="&#xc8;" horiz-adv-x="1159" 
d="M582 1579l-181 250h136l131 -250h-86zM188 0v1464h842v-94h-727v-571h590v-94h-590v-611h764v-94h-879z" />
    <glyph glyph-name="uni00C9" unicode="&#xc9;" horiz-adv-x="1159" 
d="M555 1579l131 250h135l-180 -250h-86zM188 0v1464h842v-94h-727v-571h590v-94h-590v-611h764v-94h-879z" />
    <glyph glyph-name="uni00CA" unicode="&#xca;" horiz-adv-x="1159" 
d="M338 1579l225 250h103l221 -250h-86l-189 160l-190 -160h-84zM188 0v1464h842v-94h-727v-571h590v-94h-590v-611h764v-94h-879z" />
    <glyph glyph-name="uni00CB" unicode="&#xcb;" horiz-adv-x="1159" 
d="M428 1614q-32 0 -54 22.5t-22 53.5q0 30 22 51.5t54 21.5q30 0 52 -21.5t22 -51.5q0 -31 -21.5 -53.5t-52.5 -22.5zM797 1614q-31 0 -52.5 22.5t-21.5 53.5q0 30 21.5 51.5t52.5 21.5q30 0 51.5 -21.5t21.5 -51.5q0 -31 -21.5 -53.5t-51.5 -22.5zM188 0v1464h842v-94
h-727v-571h590v-94h-590v-611h764v-94h-879z" />
    <glyph glyph-name="uni00CC" unicode="&#xcc;" horiz-adv-x="512" 
d="M225 1579l-180 250h135l131 -250h-86zM199 0v1464h114v-1464h-114z" />
    <glyph glyph-name="uni00CD" unicode="&#xcd;" horiz-adv-x="512" 
d="M199 1579l131 250h135l-180 -250h-86zM199 0v1464h114v-1464h-114z" />
    <glyph glyph-name="uni00CE" unicode="&#xce;" horiz-adv-x="512" 
d="M-18 1579l225 250h102l221 -250h-86l-188 160l-190 -160h-84zM199 0v1464h114v-1464h-114z" />
    <glyph glyph-name="uni00CF" unicode="&#xcf;" horiz-adv-x="512" 
d="M72 1614q-32 0 -54 22.5t-22 53.5q0 30 22 51.5t54 21.5q30 0 51.5 -21.5t21.5 -51.5q0 -31 -21.5 -53.5t-51.5 -22.5zM440 1614q-30 0 -51.5 22.5t-21.5 53.5q0 30 21.5 51.5t51.5 21.5t52 -21.5t22 -51.5q0 -31 -21.5 -53.5t-52.5 -22.5zM199 0v1464h114v-1464h-114z
" />
    <glyph glyph-name="uni00D0" unicode="&#xd0;" horiz-adv-x="1427" 
d="M57 690v90h154v684h379q178 0 318 -54.5t229 -152t135.5 -227.5t46.5 -285v-18q0 -123 -27.5 -231.5t-86 -200t-144 -157t-207 -102t-268.5 -36.5h-375v690h-154zM326 94h256q154 0 273 46.5t194.5 131.5t114 200.5t38.5 256.5v16q0 138 -37 250t-111.5 197t-195 131.5
t-278.5 46.5h-254v-590h426v-90h-426v-596z" />
    <glyph glyph-name="uni00D1" unicode="&#xd1;" horiz-adv-x="1460" 
d="M879 1585q-42 0 -89.5 27.5t-90.5 54.5t-72 27q-36 0 -62 -29.5t-33 -81.5h-83q12 96 60.5 149.5t117.5 53.5q41 0 88 -27t90.5 -54.5t73.5 -27.5q35 0 61 30t33 81h82q-12 -96 -60 -149.5t-116 -53.5zM188 0v1464h156l819 -1306v1306h109v-1464h-135l-838 1337v-1337
h-111z" />
    <glyph glyph-name="uni00D2" unicode="&#xd2;" horiz-adv-x="1640" 
d="M788 1579l-180 250h135l131 -250h-86zM825 -16q-205 0 -369.5 99t-255.5 267.5t-91 372.5v16q0 154 54 291t147 236t226 157t285 58t285.5 -57.5t227 -156.5t147 -235t53.5 -289v-16q0 -205 -91 -375t-254 -269t-364 -99zM825 80q172 0 307 83.5t209 231.5t74 334v16
q0 178 -73 323.5t-209.5 231.5t-311.5 86q-176 0 -312.5 -84t-210 -230.5t-73.5 -330.5v-16q0 -183 78.5 -331t216 -231t305.5 -83z" />
    <glyph glyph-name="uni00D3" unicode="&#xd3;" horiz-adv-x="1640" 
d="M762 1579l131 250h135l-180 -250h-86zM825 -16q-205 0 -369.5 99t-255.5 267.5t-91 372.5v16q0 154 54 291t147 236t226 157t285 58t285.5 -57.5t227 -156.5t147 -235t53.5 -289v-16q0 -205 -91 -375t-254 -269t-364 -99zM825 80q172 0 307 83.5t209 231.5t74 334v16
q0 178 -73 323.5t-209.5 231.5t-311.5 86q-176 0 -312.5 -84t-210 -230.5t-73.5 -330.5v-16q0 -183 78.5 -331t216 -231t305.5 -83z" />
    <glyph glyph-name="uni00D4" unicode="&#xd4;" horiz-adv-x="1640" 
d="M545 1579l225 250h102l222 -250h-86l-189 160l-190 -160h-84zM825 -16q-205 0 -369.5 99t-255.5 267.5t-91 372.5v16q0 154 54 291t147 236t226 157t285 58t285.5 -57.5t227 -156.5t147 -235t53.5 -289v-16q0 -205 -91 -375t-254 -269t-364 -99zM825 80q172 0 307 83.5
t209 231.5t74 334v16q0 178 -73 323.5t-209.5 231.5t-311.5 86q-176 0 -312.5 -84t-210 -230.5t-73.5 -330.5v-16q0 -183 78.5 -331t216 -231t305.5 -83z" />
    <glyph glyph-name="uni00D5" unicode="&#xd5;" horiz-adv-x="1640" 
d="M946 1585q-42 0 -89.5 27.5t-90.5 54.5t-72 27q-36 0 -61.5 -29.5t-32.5 -81.5h-84q12 96 60.5 149.5t117.5 53.5q41 0 88 -27t90.5 -54.5t73.5 -27.5q35 0 61 30t33 81h82q-12 -96 -60 -149.5t-116 -53.5zM825 -16q-205 0 -369.5 99t-255.5 267.5t-91 372.5v16
q0 154 54 291t147 236t226 157t285 58t285.5 -57.5t227 -156.5t147 -235t53.5 -289v-16q0 -205 -91 -375t-254 -269t-364 -99zM825 80q172 0 307 83.5t209 231.5t74 334v16q0 178 -73 323.5t-209.5 231.5t-311.5 86q-176 0 -312.5 -84t-210 -230.5t-73.5 -330.5v-16
q0 -183 78.5 -331t216 -231t305.5 -83z" />
    <glyph glyph-name="uni00D6" unicode="&#xd6;" horiz-adv-x="1640" 
d="M635 1614q-32 0 -54 22.5t-22 53.5q0 30 22 51.5t54 21.5q31 0 52.5 -21.5t21.5 -51.5q0 -31 -21.5 -53.5t-52.5 -22.5zM1004 1614q-31 0 -52.5 22.5t-21.5 53.5q0 30 22 51.5t52 21.5t51.5 -21.5t21.5 -51.5q0 -31 -21.5 -53.5t-51.5 -22.5zM825 -16q-205 0 -369.5 99
t-255.5 267.5t-91 372.5v16q0 154 54 291t147 236t226 157t285 58t285.5 -57.5t227 -156.5t147 -235t53.5 -289v-16q0 -205 -91 -375t-254 -269t-364 -99zM825 80q172 0 307 83.5t209 231.5t74 334v16q0 178 -73 323.5t-209.5 231.5t-311.5 86q-176 0 -312.5 -84
t-210 -230.5t-73.5 -330.5v-16q0 -183 78.5 -331t216 -231t305.5 -83z" />
    <glyph glyph-name="uni00D7" unicode="&#xd7;" horiz-adv-x="989" 
d="M156 293l-64 63l330 328l-330 330l64 65l329 -329l330 329l64 -65l-330 -330l330 -328l-64 -63l-330 328z" />
    <glyph glyph-name="uni00D8" unicode="&#xd8;" horiz-adv-x="1640" 
d="M145 -49l-61 59l199 219q-174 205 -174 494v16q0 154 54 291t147 236t226 157t285 58q259 0 453 -160l174 192l59 -61l-172 -188q95 -101 147 -235.5t52 -285.5v-16q0 -205 -91 -375t-254 -269t-364 -99q-286 0 -483 184zM225 725q0 -245 129 -416l852 938
q-155 139 -385 139q-176 0 -312.5 -84t-210 -230.5t-73.5 -330.5v-16zM825 80q172 0 307 83.5t209 231.5t74 334v16q0 268 -149 443l-854 -944q167 -164 413 -164z" />
    <glyph glyph-name="uni00D9" unicode="&#xd9;" horiz-adv-x="1396" 
d="M668 1579l-181 250h136l131 -250h-86zM692 -14q-250 0 -387 139t-137 399v940h113v-927q0 -232 103.5 -343.5t309.5 -111.5q215 0 318.5 113t103.5 368v901h115v-917q0 -268 -135 -414.5t-404 -146.5z" />
    <glyph glyph-name="uni00DA" unicode="&#xda;" horiz-adv-x="1396" 
d="M641 1579l131 250h135l-180 -250h-86zM692 -14q-250 0 -387 139t-137 399v940h113v-927q0 -232 103.5 -343.5t309.5 -111.5q215 0 318.5 113t103.5 368v901h115v-917q0 -268 -135 -414.5t-404 -146.5z" />
    <glyph glyph-name="uni00DB" unicode="&#xdb;" horiz-adv-x="1396" 
d="M424 1579l225 250h103l221 -250h-86l-189 160l-190 -160h-84zM692 -14q-250 0 -387 139t-137 399v940h113v-927q0 -232 103.5 -343.5t309.5 -111.5q215 0 318.5 113t103.5 368v901h115v-917q0 -268 -135 -414.5t-404 -146.5z" />
    <glyph glyph-name="uni00DC" unicode="&#xdc;" horiz-adv-x="1396" 
d="M514 1614q-32 0 -54 22.5t-22 53.5q0 30 22 51.5t54 21.5q30 0 52 -21.5t22 -51.5q0 -31 -21.5 -53.5t-52.5 -22.5zM883 1614q-31 0 -52.5 22.5t-21.5 53.5q0 30 21.5 51.5t52.5 21.5q30 0 51.5 -21.5t21.5 -51.5q0 -31 -21.5 -53.5t-51.5 -22.5zM692 -14
q-250 0 -387 139t-137 399v940h113v-927q0 -232 103.5 -343.5t309.5 -111.5q215 0 318.5 113t103.5 368v901h115v-917q0 -268 -135 -414.5t-404 -146.5z" />
    <glyph glyph-name="uni00DD" unicode="&#xdd;" horiz-adv-x="1183" 
d="M541 1579l131 250h135l-180 -250h-86zM549 0v651l-502 813h127l434 -716l414 716h115l-473 -815v-649h-115z" />
    <glyph glyph-name="uni00DE" unicode="&#xde;" horiz-adv-x="1163" 
d="M188 0v1464h115v-295h272q111 0 199 -21.5t157 -67.5t106.5 -125t37.5 -187v-8q0 -109 -37.5 -189.5t-106.5 -127.5t-157 -69t-199 -22h-272v-352h-115zM303 444h279q379 0 379 316v8q0 166 -97.5 236.5t-281.5 70.5h-279v-631z" />
    <glyph glyph-name="uni00DF" unicode="&#xdf;" horiz-adv-x="1167" 
d="M655 -14q-106 0 -192 32v95q86 -35 188 -35q64 0 117.5 17t101 54.5t74.5 108t27 168.5v14q0 181 -126 298t-317 112v94q82 -1 147 23.5t102.5 67t57 93.5t19.5 107v8q0 119 -72.5 187.5t-206.5 68.5q-139 0 -219 -87.5t-80 -235.5v-1176h-108v1171q0 188 116 303
t291 115q176 0 279.5 -96.5t103.5 -249.5v-8q0 -113 -70 -205.5t-192 -126.5q164 -33 275.5 -160t111.5 -303v-12q0 -97 -24 -174t-64.5 -126.5t-96.5 -82t-116 -46t-127 -13.5z" />
    <glyph glyph-name="uni00E0" unicode="&#xe0;" horiz-adv-x="1083" 
d="M518 1239l-188 301h133l139 -301h-84zM453 -16q-164 0 -263.5 78.5t-99.5 226.5q0 90 40.5 154.5t112.5 100.5t158 52t191 16h223v97q0 150 -64.5 218t-205.5 68q-126 0 -204.5 -56t-96.5 -171h-107q9 82 46 144.5t93.5 100t125.5 56t147 18.5q176 0 275.5 -91t99.5 -287
v-709h-109v164q-118 -180 -362 -180zM461 72q149 0 251.5 77.5t102.5 196.5v182h-219q-71 0 -127.5 -6t-108.5 -22.5t-86 -43t-54.5 -69t-20.5 -98.5q0 -104 66 -160.5t196 -56.5z" />
    <glyph glyph-name="uni00E1" unicode="&#xe1;" horiz-adv-x="1083" 
d="M492 1239l139 301h133l-189 -301h-83zM453 -16q-164 0 -263.5 78.5t-99.5 226.5q0 90 40.5 154.5t112.5 100.5t158 52t191 16h223v97q0 150 -64.5 218t-205.5 68q-126 0 -204.5 -56t-96.5 -171h-107q9 82 46 144.5t93.5 100t125.5 56t147 18.5q176 0 275.5 -91t99.5 -287
v-709h-109v164q-118 -180 -362 -180zM461 72q149 0 251.5 77.5t102.5 196.5v182h-219q-71 0 -127.5 -6t-108.5 -22.5t-86 -43t-54.5 -69t-20.5 -98.5q0 -104 66 -160.5t196 -56.5z" />
    <glyph glyph-name="uni00E2" unicode="&#xe2;" horiz-adv-x="1083" 
d="M262 1239l225 277h103l221 -277h-86l-188 184l-191 -184h-84zM453 -16q-164 0 -263.5 78.5t-99.5 226.5q0 90 40.5 154.5t112.5 100.5t158 52t191 16h223v97q0 150 -64.5 218t-205.5 68q-126 0 -204.5 -56t-96.5 -171h-107q9 82 46 144.5t93.5 100t125.5 56t147 18.5
q176 0 275.5 -91t99.5 -287v-709h-109v164q-118 -180 -362 -180zM461 72q149 0 251.5 77.5t102.5 196.5v182h-219q-71 0 -127.5 -6t-108.5 -22.5t-86 -43t-54.5 -69t-20.5 -98.5q0 -104 66 -160.5t196 -56.5z" />
    <glyph glyph-name="uni00E3" unicode="&#xe3;" horiz-adv-x="1083" 
d="M676 1262q-42 0 -90 27t-91.5 54t-72.5 27q-33 0 -59 -29t-33 -79h-84q12 95 60.5 148.5t117.5 53.5q41 0 88.5 -27t91 -54t72.5 -27q34 0 60.5 28.5t33.5 79.5h82q-12 -95 -60 -148.5t-116 -53.5zM453 -16q-164 0 -263.5 78.5t-99.5 226.5q0 90 40.5 154.5t112.5 100.5
t158 52t191 16h223v97q0 150 -64.5 218t-205.5 68q-126 0 -204.5 -56t-96.5 -171h-107q9 82 46 144.5t93.5 100t125.5 56t147 18.5q176 0 275.5 -91t99.5 -287v-709h-109v164q-118 -180 -362 -180zM461 72q149 0 251.5 77.5t102.5 196.5v182h-219q-71 0 -127.5 -6
t-108.5 -22.5t-86 -43t-54.5 -69t-20.5 -98.5q0 -104 66 -160.5t196 -56.5z" />
    <glyph glyph-name="uni00E4" unicode="&#xe4;" horiz-adv-x="1083" 
d="M379 1303q-32 0 -54 22t-22 53t22 52.5t54 21.5q31 0 52.5 -21.5t21.5 -52.5t-21.5 -53t-52.5 -22zM719 1303q-31 0 -52.5 22t-21.5 53t21.5 52.5t52.5 21.5q32 0 54 -21.5t22 -52.5t-22 -53t-54 -22zM453 -16q-164 0 -263.5 78.5t-99.5 226.5q0 90 40.5 154.5
t112.5 100.5t158 52t191 16h223v97q0 150 -64.5 218t-205.5 68q-126 0 -204.5 -56t-96.5 -171h-107q9 82 46 144.5t93.5 100t125.5 56t147 18.5q176 0 275.5 -91t99.5 -287v-709h-109v164q-118 -180 -362 -180zM461 72q149 0 251.5 77.5t102.5 196.5v182h-219
q-71 0 -127.5 -6t-108.5 -22.5t-86 -43t-54.5 -69t-20.5 -98.5q0 -104 66 -160.5t196 -56.5z" />
    <glyph glyph-name="uni00E5" unicode="&#xe5;" horiz-adv-x="1083" 
d="M549 1231q-82 0 -141.5 57.5t-59.5 136.5q0 80 59.5 138.5t141.5 58.5q83 0 142 -58.5t59 -138.5t-59 -137t-142 -57zM549 1296q54 0 89.5 36.5t35.5 92.5q0 57 -35.5 94t-89.5 37q-53 0 -89 -37t-36 -94q0 -55 36 -92t89 -37zM453 -16q-164 0 -263.5 78.5t-99.5 226.5
q0 90 40.5 154.5t112.5 100.5t158 52t191 16h223v97q0 150 -64.5 218t-205.5 68q-126 0 -204.5 -56t-96.5 -171h-107q9 82 46 144.5t93.5 100t125.5 56t147 18.5q176 0 275.5 -91t99.5 -287v-709h-109v164q-118 -180 -362 -180zM461 72q149 0 251.5 77.5t102.5 196.5v182
h-219q-71 0 -127.5 -6t-108.5 -22.5t-86 -43t-54.5 -69t-20.5 -98.5q0 -104 66 -160.5t196 -56.5z" />
    <glyph glyph-name="uni00E6" unicode="&#xe6;" horiz-adv-x="1837" 
d="M1307 -16q-151 0 -261 70.5t-167 197.5q-51 -132 -162.5 -200t-263.5 -68q-164 0 -263.5 77.5t-99.5 225.5q0 73 27 129.5t72 93t110 60t135.5 33t153.5 9.5h231v95q0 150 -66.5 219t-207.5 69q-126 0 -204.5 -56t-96.5 -171h-107q18 159 133.5 239t278.5 80
q287 0 350 -233q61 110 163 171.5t232 61.5q96 0 178 -32t145 -95t98.5 -164t35.5 -231v-37h-825q3 -218 100 -335t283 -117q132 0 215.5 56t109.5 167h109q-32 -151 -148.5 -233t-287.5 -82zM928 612h712q-7 192 -97.5 287.5t-248.5 95.5q-152 0 -251.5 -104t-114.5 -279z
M463 72q151 0 253.5 82t102.5 217v157h-229q-89 0 -156 -11t-122 -37t-84 -74.5t-29 -118.5q0 -104 66 -159.5t198 -55.5z" />
    <glyph glyph-name="uni00E7" unicode="&#xe7;" horiz-adv-x="1138" 
d="M561 -434q-83 0 -135.5 43.5t-60.5 116.5h90q6 -37 33 -61.5t69 -24.5q46 0 74 24.5t28 65.5t-27 60.5t-65 19.5q-39 0 -73 -17l-54 43l86 154q-193 25 -315.5 170t-122.5 364v17q0 120 40.5 223t109.5 173.5t163 110t199 39.5q112 0 206 -37.5t160.5 -120t80.5 -198.5
h-107q-19 129 -113 196.5t-227 67.5q-172 0 -285.5 -123.5t-113.5 -330.5v-17q0 -207 112.5 -327.5t286.5 -120.5q139 0 237.5 77.5t118.5 217.5h101q-22 -170 -144.5 -276t-302.5 -111l-61 -109q81 19 144 -20.5t63 -128.5q0 -75 -56 -117.5t-139 -42.5z" />
    <glyph glyph-name="uni00E8" unicode="&#xe8;" horiz-adv-x="1134" 
d="M547 1239l-189 301h134l139 -301h-84zM596 -16q-231 0 -369.5 148.5t-138.5 391.5v17q0 242 138 394t354 152q98 0 182 -32.5t149 -95t101.5 -164t36.5 -230.5v-39h-848q3 -217 104.5 -333.5t290.5 -116.5q136 0 222.5 56t113.5 167h108q-33 -151 -151 -233t-293 -82z
M205 614h731q-7 190 -101 285.5t-255 95.5q-156 0 -258 -103.5t-117 -277.5z" />
    <glyph glyph-name="uni00E9" unicode="&#xe9;" horiz-adv-x="1134" 
d="M520 1239l139 301h134l-189 -301h-84zM596 -16q-231 0 -369.5 148.5t-138.5 391.5v17q0 242 138 394t354 152q98 0 182 -32.5t149 -95t101.5 -164t36.5 -230.5v-39h-848q3 -217 104.5 -333.5t290.5 -116.5q136 0 222.5 56t113.5 167h108q-33 -151 -151 -233t-293 -82z
M205 614h731q-7 190 -101 285.5t-255 95.5q-156 0 -258 -103.5t-117 -277.5z" />
    <glyph glyph-name="uni00EA" unicode="&#xea;" horiz-adv-x="1134" 
d="M303 1239l225 277h103l221 -277h-86l-188 184l-191 -184h-84zM596 -16q-231 0 -369.5 148.5t-138.5 391.5v17q0 242 138 394t354 152q98 0 182 -32.5t149 -95t101.5 -164t36.5 -230.5v-39h-848q3 -217 104.5 -333.5t290.5 -116.5q136 0 222.5 56t113.5 167h108
q-33 -151 -151 -233t-293 -82zM205 614h731q-7 190 -101 285.5t-255 95.5q-156 0 -258 -103.5t-117 -277.5z" />
    <glyph glyph-name="uni00EB" unicode="&#xeb;" horiz-adv-x="1134" 
d="M408 1303q-32 0 -54 22t-22 53t22 52.5t54 21.5q31 0 52 -21.5t21 -52.5t-21 -53t-52 -22zM748 1303q-31 0 -52.5 22t-21.5 53t21.5 52.5t52.5 21.5q32 0 53.5 -21.5t21.5 -52.5t-21.5 -53t-53.5 -22zM596 -16q-231 0 -369.5 148.5t-138.5 391.5v17q0 242 138 394
t354 152q98 0 182 -32.5t149 -95t101.5 -164t36.5 -230.5v-39h-848q3 -217 104.5 -333.5t290.5 -116.5q136 0 222.5 56t113.5 167h108q-33 -151 -151 -233t-293 -82zM205 614h731q-7 190 -101 285.5t-255 95.5q-156 0 -258 -103.5t-117 -277.5z" />
    <glyph glyph-name="uni00EC" unicode="&#xec;" horiz-adv-x="452" 
d="M190 1239l-188 301h133l139 -301h-84zM172 0v1071h109v-1071h-109z" />
    <glyph glyph-name="uni00ED" unicode="&#xed;" horiz-adv-x="452" 
d="M176 1239l139 301h134l-189 -301h-84zM172 0v1071h109v-1071h-109z" />
    <glyph glyph-name="uni00EE" unicode="&#xee;" horiz-adv-x="452" 
d="M-47 1239l225 277h103l221 -277h-86l-189 184l-190 -184h-84zM172 0v1071h109v-1071h-109z" />
    <glyph glyph-name="uni00EF" unicode="&#xef;" horiz-adv-x="452" 
d="M74 1303q-31 0 -52.5 22t-21.5 53t21.5 52.5t52.5 21.5t53.5 -21.5t22.5 -52.5t-22.5 -53t-53.5 -22zM379 1303q-31 0 -53.5 22t-22.5 53t22.5 52.5t53.5 21.5t52.5 -21.5t21.5 -52.5t-21.5 -53t-52.5 -22zM172 0v1071h109v-1071h-109z" />
    <glyph glyph-name="uni00F0" unicode="&#xf0;" horiz-adv-x="1216" 
d="M326 1196l-39 64l248 143q-106 88 -254 180h145q102 -57 197 -129l200 119l39 -68l-178 -102q89 -75 163 -161t138 -190.5t100.5 -229t36.5 -253.5v-37q0 -119 -40.5 -222t-110 -174t-165 -111.5t-202.5 -40.5q-108 0 -203.5 40.5t-164 112t-108.5 172.5t-40 217v17
q0 118 40.5 220.5t108 173t156.5 110.5t185 40q231 0 368 -186q-108 237 -350 451zM604 76q177 0 291.5 123.5t114.5 328.5v27q0 199 -114.5 319.5t-295.5 120.5q-171 0 -285 -123.5t-114 -328.5v-17q0 -203 113.5 -326.5t289.5 -123.5z" />
    <glyph glyph-name="uni00F1" unicode="&#xf1;" horiz-adv-x="1193" 
d="M721 1262q-42 0 -90 27t-91.5 54t-72.5 27q-33 0 -59 -29t-33 -79h-84q12 95 60.5 148.5t117.5 53.5q41 0 88.5 -27t91 -54t72.5 -27q34 0 60.5 28.5t33.5 79.5h82q-12 -95 -60 -148.5t-116 -53.5zM168 0v1071h108v-209q39 94 141.5 159.5t237.5 65.5q179 0 280 -104
t101 -324v-659h-108v666q0 327 -297 327q-92 0 -171 -38t-131.5 -118t-52.5 -188v-649h-108z" />
    <glyph glyph-name="uni00F2" unicode="&#xf2;" horiz-adv-x="1210" 
d="M573 1239l-188 301h133l139 -301h-84zM604 -16q-108 0 -203.5 40.5t-164 112t-108.5 172.5t-40 217v17q0 118 40.5 220.5t110.5 173t165 110.5t202 40q108 0 202.5 -39.5t164 -109t109.5 -171.5t40 -222v-17q0 -239 -149 -391.5t-369 -152.5zM606 76q175 0 289.5 123.5
t114.5 326.5v17q0 207 -114.5 329.5t-289.5 122.5q-176 0 -290.5 -123.5t-114.5 -328.5v-17q0 -203 114 -326.5t291 -123.5z" />
    <glyph glyph-name="uni00F3" unicode="&#xf3;" horiz-adv-x="1210" 
d="M547 1239l139 301h133l-188 -301h-84zM604 -16q-108 0 -203.5 40.5t-164 112t-108.5 172.5t-40 217v17q0 118 40.5 220.5t110.5 173t165 110.5t202 40q108 0 202.5 -39.5t164 -109t109.5 -171.5t40 -222v-17q0 -239 -149 -391.5t-369 -152.5zM606 76q175 0 289.5 123.5
t114.5 326.5v17q0 207 -114.5 329.5t-289.5 122.5q-176 0 -290.5 -123.5t-114.5 -328.5v-17q0 -203 114 -326.5t291 -123.5z" />
    <glyph glyph-name="uni00F4" unicode="&#xf4;" horiz-adv-x="1210" 
d="M330 1239l225 277h102l222 -277h-86l-189 184l-190 -184h-84zM604 -16q-108 0 -203.5 40.5t-164 112t-108.5 172.5t-40 217v17q0 118 40.5 220.5t110.5 173t165 110.5t202 40q108 0 202.5 -39.5t164 -109t109.5 -171.5t40 -222v-17q0 -239 -149 -391.5t-369 -152.5z
M606 76q175 0 289.5 123.5t114.5 326.5v17q0 207 -114.5 329.5t-289.5 122.5q-176 0 -290.5 -123.5t-114.5 -328.5v-17q0 -203 114 -326.5t291 -123.5z" />
    <glyph glyph-name="uni00F5" unicode="&#xf5;" horiz-adv-x="1210" 
d="M731 1262q-42 0 -90 27t-91.5 54t-72.5 27q-33 0 -59 -29t-33 -79h-84q12 95 60.5 148.5t117.5 53.5q41 0 88.5 -27t91 -54t72.5 -27q34 0 60.5 28.5t33.5 79.5h82q-12 -95 -60 -148.5t-116 -53.5zM604 -16q-108 0 -203.5 40.5t-164 112t-108.5 172.5t-40 217v17
q0 118 40.5 220.5t110.5 173t165 110.5t202 40q108 0 202.5 -39.5t164 -109t109.5 -171.5t40 -222v-17q0 -239 -149 -391.5t-369 -152.5zM606 76q175 0 289.5 123.5t114.5 326.5v17q0 207 -114.5 329.5t-289.5 122.5q-176 0 -290.5 -123.5t-114.5 -328.5v-17
q0 -203 114 -326.5t291 -123.5z" />
    <glyph glyph-name="uni00F6" unicode="&#xf6;" horiz-adv-x="1210" 
d="M434 1303q-32 0 -54 22t-22 53t22 52.5t54 21.5q31 0 52.5 -21.5t21.5 -52.5t-21.5 -53t-52.5 -22zM774 1303q-31 0 -52.5 22t-21.5 53t21.5 52.5t52.5 21.5q32 0 54 -21.5t22 -52.5t-22 -53t-54 -22zM604 -16q-108 0 -203.5 40.5t-164 112t-108.5 172.5t-40 217v17
q0 118 40.5 220.5t110.5 173t165 110.5t202 40q108 0 202.5 -39.5t164 -109t109.5 -171.5t40 -222v-17q0 -239 -149 -391.5t-369 -152.5zM606 76q175 0 289.5 123.5t114.5 326.5v17q0 207 -114.5 329.5t-289.5 122.5q-176 0 -290.5 -123.5t-114.5 -328.5v-17
q0 -203 114 -326.5t291 -123.5z" />
    <glyph glyph-name="uni00F7" unicode="&#xf7;" horiz-adv-x="1044" 
d="M522 977q-37 0 -62.5 25.5t-25.5 62.5q0 35 25.5 60.5t62.5 25.5q35 0 60.5 -25.5t25.5 -60.5q0 -37 -25.5 -62.5t-60.5 -25.5zM74 653v95h897v-95h-897zM522 250q-37 0 -62.5 25.5t-25.5 62.5q0 35 25.5 60.5t62.5 25.5q35 0 60.5 -25.5t25.5 -60.5q0 -37 -25.5 -62.5
t-60.5 -25.5z" />
    <glyph glyph-name="uni00F8" unicode="&#xf8;" horiz-adv-x="1210" 
d="M125 -51l-62 51l148 164q-123 148 -123 362v17q0 118 40.5 220.5t110.5 173t165 110.5t202 40q192 0 332 -118l131 147l59 -51l-135 -150q129 -152 129 -370v-17q0 -239 -149 -391.5t-369 -152.5q-197 0 -338 122zM201 526q0 -168 80 -284l589 653q-106 100 -264 100
q-176 0 -290.5 -123.5t-114.5 -328.5v-17zM606 76q175 0 289.5 123.5t114.5 326.5v17q0 172 -86 295l-592 -658q110 -104 274 -104z" />
    <glyph glyph-name="uni00F9" unicode="&#xf9;" horiz-adv-x="1185" 
d="M561 1239l-188 301h133l139 -301h-84zM535 -16q-176 0 -276.5 99t-100.5 310v678h108v-672q0 -321 293 -321q90 0 168 37.5t130 117t52 187.5v651h109v-1071h-109v205q-39 -93 -139.5 -157t-234.5 -64z" />
    <glyph glyph-name="uni00FA" unicode="&#xfa;" horiz-adv-x="1185" 
d="M535 1239l139 301h133l-189 -301h-83zM535 -16q-176 0 -276.5 99t-100.5 310v678h108v-672q0 -321 293 -321q90 0 168 37.5t130 117t52 187.5v651h109v-1071h-109v205q-39 -93 -139.5 -157t-234.5 -64z" />
    <glyph glyph-name="uni00FB" unicode="&#xfb;" horiz-adv-x="1185" 
d="M317 1239l226 277h102l221 -277h-86l-188 184l-191 -184h-84zM535 -16q-176 0 -276.5 99t-100.5 310v678h108v-672q0 -321 293 -321q90 0 168 37.5t130 117t52 187.5v651h109v-1071h-109v205q-39 -93 -139.5 -157t-234.5 -64z" />
    <glyph glyph-name="uni00FC" unicode="&#xfc;" horiz-adv-x="1185" 
d="M422 1303q-32 0 -54 22t-22 53t22 52.5t54 21.5q31 0 52.5 -21.5t21.5 -52.5t-21.5 -53t-52.5 -22zM762 1303q-31 0 -52.5 22t-21.5 53t21.5 52.5t52.5 21.5q32 0 54 -21.5t22 -52.5t-22 -53t-54 -22zM535 -16q-176 0 -276.5 99t-100.5 310v678h108v-672q0 -321 293 -321
q90 0 168 37.5t130 117t52 187.5v651h109v-1071h-109v205q-39 -93 -139.5 -157t-234.5 -64z" />
    <glyph glyph-name="uni00FD" unicode="&#xfd;" horiz-adv-x="1040" 
d="M469 1239l139 301h133l-188 -301h-84zM281 -373l194 465l-424 979h117l367 -854l342 854h110l-594 -1444h-112z" />
    <glyph glyph-name="uni00FE" unicode="&#xfe;" horiz-adv-x="1253" 
d="M168 -373v1956h108v-762q50 111 162.5 188.5t247.5 77.5q207 0 343 -147.5t136 -392.5v-17q0 -248 -135 -397t-346 -149q-149 0 -254.5 75.5t-153.5 184.5v-617h-108zM676 76q172 0 274.5 119t102.5 331v17q0 213 -108 332.5t-269 119.5q-81 0 -153 -29.5t-128 -85
t-88.5 -143t-32.5 -194.5v-17q0 -212 114 -331t288 -119z" />
    <glyph glyph-name="uni00FF" unicode="&#xff;" horiz-adv-x="1040" 
d="M360 1303q-32 0 -53.5 22t-21.5 53t21.5 52.5t53.5 21.5q31 0 52.5 -21.5t21.5 -52.5t-21.5 -53t-52.5 -22zM700 1303q-31 0 -52 22t-21 53t21 52.5t52 21.5q32 0 54 -21.5t22 -52.5t-22 -53t-54 -22zM281 -373l194 465l-424 979h117l367 -854l342 854h110l-594 -1444
h-112z" />
    <glyph glyph-name="uni0100" unicode="&#x100;" horiz-adv-x="1339" 
d="M408 1620v86h507v-86h-507zM68 0l526 1464h151l527 -1464h-115l-162 449h-659l-160 -449h-108zM666 1370l-297 -829h594z" />
    <glyph glyph-name="uni0101" unicode="&#x101;" horiz-adv-x="1083" 
d="M301 1325v86h496v-86h-496zM453 -16q-164 0 -263.5 78.5t-99.5 226.5q0 90 40.5 154.5t112.5 100.5t158 52t191 16h223v97q0 150 -64.5 218t-205.5 68q-126 0 -204.5 -56t-96.5 -171h-107q9 82 46 144.5t93.5 100t125.5 56t147 18.5q176 0 275.5 -91t99.5 -287v-709h-109
v164q-118 -180 -362 -180zM461 72q149 0 251.5 77.5t102.5 196.5v182h-219q-71 0 -127.5 -6t-108.5 -22.5t-86 -43t-54.5 -69t-20.5 -98.5q0 -104 66 -160.5t196 -56.5z" />
    <glyph glyph-name="uni0102" unicode="&#x102;" horiz-adv-x="1339" 
d="M657 1579q-104 0 -178 71.5t-80 178.5h90q8 -72 53 -116t115 -44q71 0 119.5 44.5t57.5 115.5h88q-6 -106 -83.5 -178t-181.5 -72zM68 0l526 1464h151l527 -1464h-115l-162 449h-659l-160 -449h-108zM666 1370l-297 -829h594z" />
    <glyph glyph-name="uni0103" unicode="&#x103;" horiz-adv-x="1083" 
d="M545 1262q-104 0 -174 69t-76 178h90q8 -73 49.5 -115t110.5 -42q71 0 115 42t55 115h86q-6 -108 -79 -177.5t-177 -69.5zM453 -16q-164 0 -263.5 78.5t-99.5 226.5q0 90 40.5 154.5t112.5 100.5t158 52t191 16h223v97q0 150 -64.5 218t-205.5 68q-126 0 -204.5 -56
t-96.5 -171h-107q9 82 46 144.5t93.5 100t125.5 56t147 18.5q176 0 275.5 -91t99.5 -287v-709h-109v164q-118 -180 -362 -180zM461 72q149 0 251.5 77.5t102.5 196.5v182h-219q-71 0 -127.5 -6t-108.5 -22.5t-86 -43t-54.5 -69t-20.5 -98.5q0 -104 66 -160.5t196 -56.5z" />
    <glyph glyph-name="uni0104" unicode="&#x104;" horiz-adv-x="1339" 
d="M1190 -373q-88 0 -139.5 42t-51.5 112q0 64 44 121t114 98l-162 449h-659l-160 -449h-108l526 1464h151l525 -1460q-86 -53 -126 -101.5t-40 -103.5q0 -42 25 -66t75 -24q56 0 105 21v-80q-63 -23 -119 -23zM666 1370l-297 -829h594z" />
    <glyph glyph-name="uni0105" unicode="&#x105;" horiz-adv-x="1083" 
d="M846 -373q-88 0 -139.5 42t-51.5 112q0 66 45.5 124t114.5 97v162q-118 -180 -362 -180q-164 0 -263.5 78.5t-99.5 226.5q0 90 40.5 154.5t112.5 100.5t158 52t191 16h223v97q0 150 -64.5 218t-205.5 68q-126 0 -204.5 -56t-96.5 -171h-107q9 82 46 144.5t93.5 100
t125.5 56t147 18.5q176 0 275.5 -91t99.5 -287v-705q-164 -99 -164 -205q0 -42 25 -66t75 -24q56 0 103 21v-80q-59 -23 -117 -23zM461 72q149 0 251.5 77.5t102.5 196.5v182h-219q-71 0 -127.5 -6t-108.5 -22.5t-86 -43t-54.5 -69t-20.5 -98.5q0 -104 66 -160.5t196 -56.5z
" />
    <glyph glyph-name="uni0106" unicode="&#x106;" horiz-adv-x="1484" 
d="M735 1579l131 250h135l-180 -250h-86zM788 -16q-311 0 -495 202.5t-184 536.5v16q0 159 52.5 298t143 236.5t216 153.5t267.5 56q153 0 277.5 -51t208.5 -156t106 -252h-114q-34 179 -154 273t-321 94q-248 0 -407 -181t-159 -469v-16q0 -297 152.5 -471t413.5 -174
q200 0 332 102t167 289h107q-39 -232 -203.5 -359.5t-405.5 -127.5z" />
    <glyph glyph-name="uni0107" unicode="&#x107;" horiz-adv-x="1138" 
d="M535 1239l139 301h133l-189 -301h-83zM600 -16q-220 0 -366 149.5t-146 390.5v17q0 120 40.5 223t109.5 173.5t163 110t199 39.5q112 0 206 -37.5t160.5 -120t80.5 -198.5h-107q-19 129 -113 196.5t-227 67.5q-172 0 -285.5 -123.5t-113.5 -330.5v-17
q0 -207 112.5 -327.5t286.5 -120.5q139 0 237.5 77.5t118.5 217.5h101q-22 -172 -148 -279.5t-309 -107.5z" />
    <glyph glyph-name="uni0108" unicode="&#x108;" horiz-adv-x="1484" 
d="M518 1579l225 250h103l221 -250h-86l-188 160l-191 -160h-84zM788 -16q-311 0 -495 202.5t-184 536.5v16q0 159 52.5 298t143 236.5t216 153.5t267.5 56q153 0 277.5 -51t208.5 -156t106 -252h-114q-34 179 -154 273t-321 94q-248 0 -407 -181t-159 -469v-16
q0 -297 152.5 -471t413.5 -174q200 0 332 102t167 289h107q-39 -232 -203.5 -359.5t-405.5 -127.5z" />
    <glyph glyph-name="uni0109" unicode="&#x109;" horiz-adv-x="1138" 
d="M317 1239l226 277h102l221 -277h-86l-188 184l-191 -184h-84zM600 -16q-220 0 -366 149.5t-146 390.5v17q0 120 40.5 223t109.5 173.5t163 110t199 39.5q112 0 206 -37.5t160.5 -120t80.5 -198.5h-107q-19 129 -113 196.5t-227 67.5q-172 0 -285.5 -123.5t-113.5 -330.5
v-17q0 -207 112.5 -327.5t286.5 -120.5q139 0 237.5 77.5t118.5 217.5h101q-22 -172 -148 -279.5t-309 -107.5z" />
    <glyph glyph-name="uni010A" unicode="&#x10a;" horiz-adv-x="1484" 
d="M786 1612q-32 0 -54.5 23t-22.5 55q0 31 22.5 53t54.5 22t55 -22t23 -53q0 -32 -23 -55t-55 -23zM788 -16q-311 0 -495 202.5t-184 536.5v16q0 159 52.5 298t143 236.5t216 153.5t267.5 56q153 0 277.5 -51t208.5 -156t106 -252h-114q-34 179 -154 273t-321 94
q-248 0 -407 -181t-159 -469v-16q0 -297 152.5 -471t413.5 -174q200 0 332 102t167 289h107q-39 -232 -203.5 -359.5t-405.5 -127.5z" />
    <glyph glyph-name="uni010B" unicode="&#x10b;" horiz-adv-x="1138" 
d="M592 1300q-32 0 -55 23t-23 55q0 31 23 53.5t55 22.5t55 -22.5t23 -53.5q0 -32 -23 -55t-55 -23zM600 -16q-220 0 -366 149.5t-146 390.5v17q0 120 40.5 223t109.5 173.5t163 110t199 39.5q112 0 206 -37.5t160.5 -120t80.5 -198.5h-107q-19 129 -113 196.5t-227 67.5
q-172 0 -285.5 -123.5t-113.5 -330.5v-17q0 -207 112.5 -327.5t286.5 -120.5q139 0 237.5 77.5t118.5 217.5h101q-22 -172 -148 -279.5t-309 -107.5z" />
    <glyph glyph-name="uni010C" unicode="&#x10c;" horiz-adv-x="1484" 
d="M739 1579l-223 250h86l191 -158l192 158h84l-227 -250h-103zM788 -16q-311 0 -495 202.5t-184 536.5v16q0 159 52.5 298t143 236.5t216 153.5t267.5 56q153 0 277.5 -51t208.5 -156t106 -252h-114q-34 179 -154 273t-321 94q-248 0 -407 -181t-159 -469v-16
q0 -297 152.5 -471t413.5 -174q200 0 332 102t167 289h107q-39 -232 -203.5 -359.5t-405.5 -127.5z" />
    <glyph glyph-name="uni010D" unicode="&#x10d;" horiz-adv-x="1138" 
d="M539 1255l-222 277h86l189 -184l190 184h84l-225 -277h-102zM600 -16q-220 0 -366 149.5t-146 390.5v17q0 120 40.5 223t109.5 173.5t163 110t199 39.5q112 0 206 -37.5t160.5 -120t80.5 -198.5h-107q-19 129 -113 196.5t-227 67.5q-172 0 -285.5 -123.5t-113.5 -330.5
v-17q0 -207 112.5 -327.5t286.5 -120.5q139 0 237.5 77.5t118.5 217.5h101q-22 -172 -148 -279.5t-309 -107.5z" />
    <glyph glyph-name="uni010E" unicode="&#x10e;" horiz-adv-x="1404" 
d="M590 1579l-223 250h86l190 -158l193 158h84l-228 -250h-102zM188 0v1464h381q177 0 317 -54.5t229.5 -152t136 -228t46.5 -284.5v-18q0 -123 -28 -231.5t-86.5 -200t-144 -157t-206.5 -102t-268 -36.5h-377zM303 94h258q153 0 271.5 46.5t194.5 131.5t114.5 200.5
t38.5 256.5v16q0 137 -37 249.5t-111.5 197.5t-195 131.5t-277.5 46.5h-256v-1276z" />
    <glyph glyph-name="uni010F" unicode="&#x10f;" horiz-adv-x="1253" 
d="M569 -16q-102 0 -190 36.5t-152.5 103.5t-101.5 169t-37 227v17q0 244 141.5 397t356.5 153q147 0 243.5 -70.5t147.5 -182.5v749h108v-1583h-108v248q-47 -107 -157 -185.5t-251 -78.5zM1198 1251l25 332h123l-68 -332h-80zM580 76q82 0 154 29.5t127 85t86.5 142.5
t31.5 195v17q0 215 -105.5 332.5t-277.5 117.5q-176 0 -285.5 -121t-109.5 -333v-17q0 -213 106.5 -330.5t272.5 -117.5z" />
    <glyph glyph-name="uni0110" unicode="&#x110;" horiz-adv-x="1427" 
d="M57 690v90h154v684h379q178 0 318 -54.5t229 -152t135.5 -227.5t46.5 -285v-18q0 -123 -27.5 -231.5t-86 -200t-144 -157t-207 -102t-268.5 -36.5h-375v690h-154zM326 94h256q154 0 273 46.5t194.5 131.5t114 200.5t38.5 256.5v16q0 138 -37 250t-111.5 197t-195 131.5
t-278.5 46.5h-254v-590h426v-90h-426v-596z" />
    <glyph glyph-name="uni0111" unicode="&#x111;" horiz-adv-x="1253" 
d="M590 1276v84h387v223h108v-223h158v-84h-158v-1276h-108v248q-47 -107 -157 -185.5t-251 -78.5q-102 0 -190 36.5t-152.5 103.5t-101.5 169t-37 227v17q0 244 141.5 397t356.5 153q147 0 243.5 -70.5t147.5 -182.5v442h-387zM580 76q82 0 154 29.5t127 85t86.5 142.5
t31.5 195v17q0 215 -105.5 332.5t-277.5 117.5q-176 0 -285.5 -121t-109.5 -333v-17q0 -213 106.5 -330.5t272.5 -117.5z" />
    <glyph glyph-name="uni0112" unicode="&#x112;" horiz-adv-x="1159" 
d="M358 1620v86h508v-86h-508zM188 0v1464h842v-94h-727v-571h590v-94h-590v-611h764v-94h-879z" />
    <glyph glyph-name="uni0113" unicode="&#x113;" horiz-adv-x="1134" 
d="M330 1325v86h495v-86h-495zM596 -16q-231 0 -369.5 148.5t-138.5 391.5v17q0 242 138 394t354 152q98 0 182 -32.5t149 -95t101.5 -164t36.5 -230.5v-39h-848q3 -217 104.5 -333.5t290.5 -116.5q136 0 222.5 56t113.5 167h108q-33 -151 -151 -233t-293 -82zM205 614h731
q-7 190 -101 285.5t-255 95.5q-156 0 -258 -103.5t-117 -277.5z" />
    <glyph glyph-name="uni0114" unicode="&#x114;" horiz-adv-x="1159" 
d="M616 1579q-104 0 -178 71.5t-80 178.5h91q8 -72 53 -116t114 -44q71 0 119.5 44.5t57.5 115.5h88q-6 -106 -83.5 -178t-181.5 -72zM188 0v1464h842v-94h-727v-571h590v-94h-590v-611h764v-94h-879z" />
    <glyph glyph-name="uni0115" unicode="&#x115;" horiz-adv-x="1134" 
d="M565 1262q-104 0 -174 69t-76 178h91q8 -73 49 -115t110 -42q71 0 115 42t55 115h86q-6 -108 -79 -177.5t-177 -69.5zM596 -16q-231 0 -369.5 148.5t-138.5 391.5v17q0 242 138 394t354 152q98 0 182 -32.5t149 -95t101.5 -164t36.5 -230.5v-39h-848q3 -217 104.5 -333.5
t290.5 -116.5q136 0 222.5 56t113.5 167h108q-33 -151 -151 -233t-293 -82zM205 614h731q-7 190 -101 285.5t-255 95.5q-156 0 -258 -103.5t-117 -277.5z" />
    <glyph glyph-name="uni0116" unicode="&#x116;" horiz-adv-x="1159" 
d="M612 1612q-32 0 -54.5 23t-22.5 55q0 31 22.5 53t54.5 22t55 -22t23 -53q0 -32 -23 -55t-55 -23zM188 0v1464h842v-94h-727v-571h590v-94h-590v-611h764v-94h-879z" />
    <glyph glyph-name="uni0117" unicode="&#x117;" horiz-adv-x="1134" 
d="M578 1300q-32 0 -55 23t-23 55q0 31 23 53.5t55 22.5t54.5 -22.5t22.5 -53.5q0 -32 -22.5 -55t-54.5 -23zM596 -16q-231 0 -369.5 148.5t-138.5 391.5v17q0 242 138 394t354 152q98 0 182 -32.5t149 -95t101.5 -164t36.5 -230.5v-39h-848q3 -217 104.5 -333.5
t290.5 -116.5q136 0 222.5 56t113.5 167h108q-33 -151 -151 -233t-293 -82zM205 614h731q-7 190 -101 285.5t-255 95.5q-156 0 -258 -103.5t-117 -277.5z" />
    <glyph glyph-name="uni0118" unicode="&#x118;" horiz-adv-x="1159" 
d="M895 -373q-89 0 -141 42t-52 112q0 64 45 122t115 97h-674v1464h842v-94h-727v-571h590v-94h-590v-611h764v-94h-104q-78 -51 -116 -99t-38 -102q0 -90 100 -90q54 0 103 21v-80q-59 -23 -117 -23z" />
    <glyph glyph-name="uni0119" unicode="&#x119;" horiz-adv-x="1134" 
d="M766 -373q-88 0 -139.5 42t-51.5 112q0 63 44 121t114 100q-67 -18 -137 -18q-231 0 -369.5 148.5t-138.5 391.5v17q0 242 138 394t354 152q98 0 182 -32.5t149 -95t101.5 -164t36.5 -230.5v-39h-848q3 -217 104.5 -333.5t290.5 -116.5q136 0 222.5 56t113.5 167h108
q-13 -62 -43.5 -115t-57 -80t-62.5 -57q-11 -9 -38.5 -32t-40.5 -34t-35.5 -32t-34 -36t-24.5 -34.5t-18.5 -39.5t-5.5 -40q0 -42 25 -66t75 -24q56 0 103 21v-80q-59 -23 -117 -23zM205 614h731q-7 190 -101 285.5t-255 95.5q-156 0 -258 -103.5t-117 -277.5z" />
    <glyph glyph-name="uni011A" unicode="&#x11a;" horiz-adv-x="1159" 
d="M563 1579l-223 250h86l190 -158l193 158h84l-227 -250h-103zM188 0v1464h842v-94h-727v-571h590v-94h-590v-611h764v-94h-879z" />
    <glyph glyph-name="uni011B" unicode="&#x11b;" horiz-adv-x="1134" 
d="M524 1255l-221 277h86l189 -184l190 184h84l-225 -277h-103zM596 -16q-231 0 -369.5 148.5t-138.5 391.5v17q0 242 138 394t354 152q98 0 182 -32.5t149 -95t101.5 -164t36.5 -230.5v-39h-848q3 -217 104.5 -333.5t290.5 -116.5q136 0 222.5 56t113.5 167h108
q-33 -151 -151 -233t-293 -82zM205 614h731q-7 190 -101 285.5t-255 95.5q-156 0 -258 -103.5t-117 -277.5z" />
    <glyph glyph-name="uni011C" unicode="&#x11c;" horiz-adv-x="1548" 
d="M524 1579l226 250h102l221 -250h-86l-188 160l-191 -160h-84zM811 -16q-216 0 -376 95.5t-243 262t-83 381.5v16q0 211 90.5 381.5t250 266.5t357.5 96q108 0 203 -26t175 -77.5t135 -136.5t75 -196h-115q-38 175 -163 259.5t-308 84.5q-262 0 -423 -181t-161 -469v-16
q0 -297 154 -472t432 -175q251 0 383 142t135 390v8h-450v97h561v-84q0 -310 -170 -478.5t-459 -168.5z" />
    <glyph glyph-name="uni011D" unicode="&#x11d;" horiz-adv-x="1253" 
d="M317 1239l226 277h102l221 -277h-86l-188 184l-191 -184h-84zM590 -385q-112 0 -200.5 26t-145.5 72t-90 102.5t-43 123.5h110q23 -108 114.5 -170t252.5 -62q181 0 285 89.5t104 279.5v219q-47 -106 -156.5 -183t-249.5 -77q-208 0 -345.5 141.5t-137.5 370.5v14
q0 228 142.5 377t355.5 149q147 0 243.5 -68.5t147.5 -178.5v231h108v-999q-1 -116 -37.5 -204t-103.5 -143t-156 -82.5t-198 -27.5zM582 127q169 0 283 115.5t114 310.5v16q0 199 -106 312.5t-277 113.5q-175 0 -285 -116.5t-110 -313.5v-16q0 -194 108 -308t273 -114z" />
    <glyph glyph-name="uni011E" unicode="&#x11e;" horiz-adv-x="1548" 
d="M795 1579q-104 0 -178 71.5t-80 178.5h90q8 -72 53 -116t115 -44q71 0 119 44.5t57 115.5h88q-6 -106 -83 -178t-181 -72zM811 -16q-216 0 -376 95.5t-243 262t-83 381.5v16q0 211 90.5 381.5t250 266.5t357.5 96q108 0 203 -26t175 -77.5t135 -136.5t75 -196h-115
q-38 175 -163 259.5t-308 84.5q-262 0 -423 -181t-161 -469v-16q0 -297 154 -472t432 -175q251 0 383 142t135 390v8h-450v97h561v-84q0 -310 -170 -478.5t-459 -168.5z" />
    <glyph glyph-name="uni011F" unicode="&#x11f;" horiz-adv-x="1253" 
d="M590 1262q-104 0 -174 69t-76 178h90q8 -73 49.5 -115t110.5 -42q71 0 115 42t55 115h86q-6 -108 -79 -177.5t-177 -69.5zM590 -385q-112 0 -200.5 26t-145.5 72t-90 102.5t-43 123.5h110q23 -108 114.5 -170t252.5 -62q181 0 285 89.5t104 279.5v219
q-47 -106 -156.5 -183t-249.5 -77q-208 0 -345.5 141.5t-137.5 370.5v14q0 228 142.5 377t355.5 149q147 0 243.5 -68.5t147.5 -178.5v231h108v-999q-1 -116 -37.5 -204t-103.5 -143t-156 -82.5t-198 -27.5zM582 127q169 0 283 115.5t114 310.5v16q0 199 -106 312.5
t-277 113.5q-175 0 -285 -116.5t-110 -313.5v-16q0 -194 108 -308t273 -114z" />
    <glyph glyph-name="uni0120" unicode="&#x120;" horiz-adv-x="1548" 
d="M799 1612q-32 0 -55 23t-23 55q0 31 23 53t55 22t55 -22t23 -53q0 -32 -23 -55t-55 -23zM811 -16q-216 0 -376 95.5t-243 262t-83 381.5v16q0 211 90.5 381.5t250 266.5t357.5 96q108 0 203 -26t175 -77.5t135 -136.5t75 -196h-115q-38 175 -163 259.5t-308 84.5
q-262 0 -423 -181t-161 -469v-16q0 -297 154 -472t432 -175q251 0 383 142t135 390v8h-450v97h561v-84q0 -310 -170 -478.5t-459 -168.5z" />
    <glyph glyph-name="uni0121" unicode="&#x121;" horiz-adv-x="1253" 
d="M592 1300q-32 0 -55 23t-23 55q0 31 23 53.5t55 22.5t55 -22.5t23 -53.5q0 -32 -23 -55t-55 -23zM590 -385q-112 0 -200.5 26t-145.5 72t-90 102.5t-43 123.5h110q23 -108 114.5 -170t252.5 -62q181 0 285 89.5t104 279.5v219q-47 -106 -156.5 -183t-249.5 -77
q-208 0 -345.5 141.5t-137.5 370.5v14q0 228 142.5 377t355.5 149q147 0 243.5 -68.5t147.5 -178.5v231h108v-999q-1 -116 -37.5 -204t-103.5 -143t-156 -82.5t-198 -27.5zM582 127q169 0 283 115.5t114 310.5v16q0 199 -106 312.5t-277 113.5q-175 0 -285 -116.5
t-110 -313.5v-16q0 -194 108 -308t273 -114z" />
    <glyph glyph-name="uni0122" unicode="&#x122;" horiz-adv-x="1548" 
d="M811 -16q-216 0 -376 95.5t-243 262t-83 381.5v16q0 211 90.5 381.5t250 266.5t357.5 96q108 0 203 -26t175 -77.5t135 -136.5t75 -196h-115q-38 175 -163 259.5t-308 84.5q-262 0 -423 -181t-161 -469v-16q0 -297 154 -472t432 -175q251 0 383 142t135 390v8h-450v97
h561v-84q0 -310 -170 -478.5t-459 -168.5zM721 -418l-70 33l119 301l104 -31z" />
    <glyph glyph-name="uni0123" unicode="&#x123;" horiz-adv-x="1253" 
d="M639 1243l-107 31l154 303l72 -35zM590 -385q-112 0 -200.5 26t-145.5 72t-90 102.5t-43 123.5h110q23 -108 114.5 -170t252.5 -62q181 0 285 89.5t104 279.5v219q-47 -106 -156.5 -183t-249.5 -77q-208 0 -345.5 141.5t-137.5 370.5v14q0 228 142.5 377t355.5 149
q147 0 243.5 -68.5t147.5 -178.5v231h108v-999q-1 -116 -37.5 -204t-103.5 -143t-156 -82.5t-198 -27.5zM582 127q169 0 283 115.5t114 310.5v16q0 199 -106 312.5t-277 113.5q-175 0 -285 -116.5t-110 -313.5v-16q0 -194 108 -308t273 -114z" />
    <glyph glyph-name="uni0124" unicode="&#x124;" horiz-adv-x="1468" 
d="M459 1579l225 250h102l222 -250h-86l-189 160l-190 -160h-84zM188 0v1464h115v-682h862v682h115v-1464h-115v686h-862v-686h-115z" />
    <glyph glyph-name="uni0125" unicode="&#x125;" horiz-adv-x="1193" 
d="M340 1671l225 250h103l221 -250h-86l-189 160l-190 -160h-84zM168 0v1583h108v-721q39 94 141.5 159.5t237.5 65.5q179 0 280 -104t101 -324v-659h-108v666q0 327 -297 327q-92 0 -171 -38t-131.5 -118t-52.5 -188v-649h-108z" />
    <glyph glyph-name="uni0126" unicode="&#x126;" horiz-adv-x="1468" 
d="M27 1044v91h161v329h115v-329h862v329h115v-329h162v-91h-162v-1044h-115v686h-862v-686h-115v1044h-161zM303 782h862v262h-862v-262z" />
    <glyph glyph-name="uni0127" unicode="&#x127;" horiz-adv-x="1193" 
d="M8 1276v84h160v223h108v-223h388v-84h-388v-414q39 94 141.5 159.5t237.5 65.5q179 0 280 -104t101 -324v-659h-108v666q0 327 -297 327q-92 0 -171 -38t-131.5 -118t-52.5 -188v-649h-108v1276h-160z" />
    <glyph glyph-name="uni0128" unicode="&#x128;" horiz-adv-x="512" 
d="M385 1585q-42 0 -89.5 27.5t-90.5 54.5t-72 27q-36 0 -61.5 -29.5t-32.5 -81.5h-84q12 96 60.5 149.5t117.5 53.5q41 0 88 -27t90.5 -54.5t73.5 -27.5q35 0 61 30t33 81h82q-12 -96 -60 -149.5t-116 -53.5zM199 0v1464h114v-1464h-114z" />
    <glyph glyph-name="uni0129" unicode="&#x129;" horiz-adv-x="452" 
d="M356 1262q-42 0 -90 27t-91.5 54t-72.5 27q-33 0 -59 -29t-33 -79h-84q12 95 60.5 148.5t117.5 53.5q41 0 88.5 -27t91 -54t72.5 -27q34 0 61 28.5t34 79.5h81q-12 -95 -60 -148.5t-116 -53.5zM172 0v1071h109v-1071h-109z" />
    <glyph glyph-name="uni012A" unicode="&#x12a;" horiz-adv-x="512" 
d="M2 1620v86h508v-86h-508zM199 0v1464h114v-1464h-114z" />
    <glyph glyph-name="uni012B" unicode="&#x12b;" horiz-adv-x="452" 
d="M49 1325v86h354v-86h-354zM172 0v1071h109v-1071h-109z" />
    <glyph glyph-name="uni012C" unicode="&#x12c;" horiz-adv-x="512" 
d="M256 1579q-104 0 -178 71.5t-80 178.5h90q8 -72 53 -116t115 -44q71 0 119 44.5t57 115.5h88q-6 -106 -83 -178t-181 -72zM199 0v1464h114v-1464h-114z" />
    <glyph glyph-name="uni012D" unicode="&#x12d;" horiz-adv-x="452" 
d="M225 1262q-104 0 -174 69t-76 178h91q8 -73 49 -115t110 -42q71 0 115 42t55 115h86q-6 -108 -79 -177.5t-177 -69.5zM172 0v1071h109v-1071h-109z" />
    <glyph glyph-name="uni012E" unicode="&#x12e;" horiz-adv-x="512" 
d="M254 -373q-89 0 -141 42t-52 112q0 118 138 217v1466h114v-1460q-145 -97 -145 -205q0 -90 100 -90q54 0 103 21v-80q-59 -23 -117 -23z" />
    <glyph glyph-name="uni012F" unicode="&#x12f;" horiz-adv-x="452" 
d="M225 1300q-32 0 -55 23t-23 55q0 31 23 53.5t55 22.5t54 -22.5t22 -53.5q0 -32 -22 -55t-54 -23zM231 -373q-88 0 -139 42t-51 112q0 119 131 215v1075h109v-1067q-136 -104 -136 -205q0 -42 25.5 -66t75.5 -24q56 0 102 21v-80q-59 -23 -117 -23z" />
    <glyph glyph-name="uni0130" unicode="&#x130;" horiz-adv-x="512" 
d="M256 1612q-32 0 -55 23t-23 55q0 31 23 53t55 22t55 -22t23 -53q0 -32 -23 -55t-55 -23zM199 0v1464h114v-1464h-114z" />
    <glyph glyph-name="uni0131" unicode="&#x131;" horiz-adv-x="452" 
d="M172 0v1071h109v-1071h-109z" />
    <glyph glyph-name="uni0132" unicode="&#x132;" horiz-adv-x="1261" 
d="M199 0v1464h114v-1464h-114zM719 -14q-116 0 -205 41v96q95 -43 199 -43q264 0 264 295v1089h115v-1093q0 -194 -102 -289.5t-271 -95.5z" />
    <glyph glyph-name="uni0133" unicode="&#x133;" horiz-adv-x="452" 
d="M225 1300q-32 0 -55 23t-23 55q0 31 23 53.5t55 22.5t54 -22.5t22 -53.5q0 -32 -22 -55t-54 -23zM678 1300q-32 0 -55 23t-23 55q0 31 23 53.5t55 22.5t54 -22.5t22 -53.5q0 -32 -22 -55t-54 -23zM172 0v1071h109v-1071h-109zM467 -385v92q88 7 123 52t35 135v1177h108
v-1169q0 -143 -61.5 -212t-204.5 -75z" />
    <glyph glyph-name="uni0134" unicode="&#x134;" horiz-adv-x="821" 
d="M319 1579l226 250h102l221 -250h-86l-188 160l-191 -160h-84zM281 -14q-116 0 -205 41v96q95 -43 198 -43q265 0 265 295v1089h114v-1093q0 -194 -101.5 -289.5t-270.5 -95.5z" />
    <glyph glyph-name="uni0135" unicode="&#x135;" horiz-adv-x="452" 
d="M-47 1239l225 277h103l221 -277h-86l-189 184l-190 -184h-84zM14 -385v92q88 7 123 52t35 135v1177h109v-1169q0 -143 -62 -212t-205 -75z" />
    <glyph glyph-name="uni0136" unicode="&#x136;" horiz-adv-x="1226" 
d="M188 0v1464h115v-721l711 723h131l-709 -714l744 -752h-140l-737 739v-739h-115zM561 -418l-69 33l118 301l105 -31z" />
    <glyph glyph-name="uni0137" unicode="&#x137;" horiz-adv-x="997" 
d="M168 0v1583h108v-1016l523 504h129l-522 -500l557 -571h-136l-551 567v-567h-108zM444 -418l-69 33l119 301l104 -31z" />
    <glyph glyph-name="uni0139" unicode="&#x139;" horiz-adv-x="1085" 
d="M195 1579l131 250h135l-180 -250h-86zM188 0v1464h115v-1370h711v-94h-826z" />
    <glyph glyph-name="uni013A" unicode="&#x13a;" horiz-adv-x="454" 
d="M172 1671l131 250h135l-180 -250h-86zM172 0v1583h111v-1583h-111z" />
    <glyph glyph-name="uni013B" unicode="&#x13b;" horiz-adv-x="1085" 
d="M188 0v1464h115v-1370h711v-94h-826zM514 -418l-70 33l119 301l105 -31z" />
    <glyph glyph-name="uni013C" unicode="&#x13c;" horiz-adv-x="454" 
d="M172 0v1583h111v-1583h-111zM147 -418l-69 33l119 301l104 -31z" />
    <glyph glyph-name="uni013D" unicode="&#x13d;" horiz-adv-x="1085" 
d="M623 1143l49 321h121l-91 -321h-79zM188 0v1464h115v-1370h711v-94h-826z" />
    <glyph glyph-name="uni013E" unicode="&#x13e;" horiz-adv-x="454" 
d="M172 0v1583h111v-1583h-111zM395 1251l25 332h123l-68 -332h-80z" />
    <glyph glyph-name="uni013F" unicode="&#x13f;" horiz-adv-x="1085" 
d="M188 0v1464h115v-1370h711v-94h-826zM858 682q-35 0 -60.5 25.5t-25.5 62.5q0 35 25.5 60.5t60.5 25.5q37 0 62.5 -25.5t25.5 -60.5q0 -37 -25.5 -62.5t-62.5 -25.5z" />
    <glyph glyph-name="uni0140" unicode="&#x140;" horiz-adv-x="571" 
d="M172 0v1583h111v-1583h-111zM510 676q-35 0 -60.5 25.5t-25.5 62.5q0 35 25.5 60.5t60.5 25.5q37 0 62.5 -25.5t25.5 -60.5q0 -37 -25.5 -62.5t-62.5 -25.5z" />
    <glyph glyph-name="uni0141" unicode="&#x141;" horiz-adv-x="1116" 
d="M70 530v93l149 55v786h115v-745l454 170v-92l-454 -170v-533h710v-94h-825v586z" />
    <glyph glyph-name="uni0142" unicode="&#x142;" horiz-adv-x="489" 
d="M33 680v94l157 98v711h109v-641l166 105v-95l-166 -104v-848h-109v778z" />
    <glyph glyph-name="uni0143" unicode="&#x143;" horiz-adv-x="1460" 
d="M694 1579l131 250h136l-181 -250h-86zM188 0v1464h156l819 -1306v1306h109v-1464h-135l-838 1337v-1337h-111z" />
    <glyph glyph-name="uni0144" unicode="&#x144;" horiz-adv-x="1193" 
d="M537 1239l139 301h133l-188 -301h-84zM168 0v1071h108v-209q39 94 141.5 159.5t237.5 65.5q179 0 280 -104t101 -324v-659h-108v666q0 327 -297 327q-92 0 -171 -38t-131.5 -118t-52.5 -188v-649h-108z" />
    <glyph glyph-name="uni0145" unicode="&#x145;" horiz-adv-x="1460" 
d="M188 0v1464h156l819 -1306v1306h109v-1464h-135l-838 1337v-1337h-111zM631 -418l-70 33l119 301l104 -31z" />
    <glyph glyph-name="uni0146" unicode="&#x146;" horiz-adv-x="1193" 
d="M168 0v1071h108v-209q39 94 141.5 159.5t237.5 65.5q179 0 280 -104t101 -324v-659h-108v666q0 327 -297 327q-92 0 -171 -38t-131.5 -118t-52.5 -188v-649h-108zM516 -418l-70 33l119 301l105 -31z" />
    <glyph glyph-name="uni0147" unicode="&#x147;" horiz-adv-x="1460" 
d="M698 1579l-223 250h86l191 -158l192 158h84l-227 -250h-103zM188 0v1464h156l819 -1306v1306h109v-1464h-135l-838 1337v-1337h-111z" />
    <glyph glyph-name="uni0148" unicode="&#x148;" horiz-adv-x="1193" 
d="M541 1255l-222 277h87l188 -184l190 184h84l-225 -277h-102zM168 0v1071h108v-209q39 94 141.5 159.5t237.5 65.5q179 0 280 -104t101 -324v-659h-108v666q0 327 -297 327q-92 0 -171 -38t-131.5 -118t-52.5 -188v-649h-108z" />
    <glyph glyph-name="uni0149" unicode="&#x149;" horiz-adv-x="1208" 
d="M-2 1081l-70 35l154 363l104 -45zM180 0v1071h109v-209q39 94 141.5 159.5t237.5 65.5q179 0 280 -104t101 -324v-659h-109v666q0 327 -297 327q-92 0 -171 -38t-131 -118t-52 -188v-649h-109z" />
    <glyph glyph-name="uni014A" unicode="&#x14a;" horiz-adv-x="1460" 
d="M899 -389q-125 0 -205 41v96q95 -43 201 -43q261 0 264 285l-860 1347v-1337h-111v1464h156l819 -1280v1280h109v-1460q0 -201 -101 -297t-272 -96z" />
    <glyph glyph-name="uni014B" unicode="&#x14b;" horiz-adv-x="1193" 
d="M750 -385v92q97 9 137.5 57.5t40.5 151.5v750q0 327 -297 327q-92 0 -171 -38t-131.5 -118t-52.5 -188v-649h-108v1071h108v-209q39 94 141.5 159.5t237.5 65.5q179 0 280 -104t101 -324v-735q0 -156 -66.5 -229t-219.5 -80z" />
    <glyph glyph-name="uni014C" unicode="&#x14c;" horiz-adv-x="1640" 
d="M565 1620v86h508v-86h-508zM825 -16q-205 0 -369.5 99t-255.5 267.5t-91 372.5v16q0 154 54 291t147 236t226 157t285 58t285.5 -57.5t227 -156.5t147 -235t53.5 -289v-16q0 -205 -91 -375t-254 -269t-364 -99zM825 80q172 0 307 83.5t209 231.5t74 334v16
q0 178 -73 323.5t-209.5 231.5t-311.5 86q-176 0 -312.5 -84t-210 -230.5t-73.5 -330.5v-16q0 -183 78.5 -331t216 -231t305.5 -83z" />
    <glyph glyph-name="uni014D" unicode="&#x14d;" horiz-adv-x="1210" 
d="M356 1325v86h496v-86h-496zM604 -16q-108 0 -203.5 40.5t-164 112t-108.5 172.5t-40 217v17q0 118 40.5 220.5t110.5 173t165 110.5t202 40q108 0 202.5 -39.5t164 -109t109.5 -171.5t40 -222v-17q0 -239 -149 -391.5t-369 -152.5zM606 76q175 0 289.5 123.5t114.5 326.5
v17q0 207 -114.5 329.5t-289.5 122.5q-176 0 -290.5 -123.5t-114.5 -328.5v-17q0 -203 114 -326.5t291 -123.5z" />
    <glyph glyph-name="uni014E" unicode="&#x14e;" horiz-adv-x="1640" 
d="M815 1579q-104 0 -178 71.5t-80 178.5h90q8 -72 53 -116t115 -44q71 0 119 44.5t57 115.5h88q-6 -106 -83 -178t-181 -72zM825 -16q-205 0 -369.5 99t-255.5 267.5t-91 372.5v16q0 154 54 291t147 236t226 157t285 58t285.5 -57.5t227 -156.5t147 -235t53.5 -289v-16
q0 -205 -91 -375t-254 -269t-364 -99zM825 80q172 0 307 83.5t209 231.5t74 334v16q0 178 -73 323.5t-209.5 231.5t-311.5 86q-176 0 -312.5 -84t-210 -230.5t-73.5 -330.5v-16q0 -183 78.5 -331t216 -231t305.5 -83z" />
    <glyph glyph-name="uni014F" unicode="&#x14f;" horiz-adv-x="1210" 
d="M602 1262q-104 0 -174 69t-76 178h90q8 -73 49.5 -115t110.5 -42q71 0 115 42t55 115h86q-6 -108 -79 -177.5t-177 -69.5zM604 -16q-108 0 -203.5 40.5t-164 112t-108.5 172.5t-40 217v17q0 118 40.5 220.5t110.5 173t165 110.5t202 40q108 0 202.5 -39.5t164 -109
t109.5 -171.5t40 -222v-17q0 -239 -149 -391.5t-369 -152.5zM606 76q175 0 289.5 123.5t114.5 326.5v17q0 207 -114.5 329.5t-289.5 122.5q-176 0 -290.5 -123.5t-114.5 -328.5v-17q0 -203 114 -326.5t291 -123.5z" />
    <glyph glyph-name="uni0150" unicode="&#x150;" horiz-adv-x="1640" 
d="M635 1579l92 250h123l-133 -250h-82zM905 1579l92 250h123l-133 -250h-82zM825 -16q-205 0 -369.5 99t-255.5 267.5t-91 372.5v16q0 154 54 291t147 236t226 157t285 58t285.5 -57.5t227 -156.5t147 -235t53.5 -289v-16q0 -205 -91 -375t-254 -269t-364 -99zM825 80
q172 0 307 83.5t209 231.5t74 334v16q0 178 -73 323.5t-209.5 231.5t-311.5 86q-176 0 -312.5 -84t-210 -230.5t-73.5 -330.5v-16q0 -183 78.5 -331t216 -231t305.5 -83z" />
    <glyph glyph-name="uni0151" unicode="&#x151;" horiz-adv-x="1210" 
d="M428 1239l100 301h123l-141 -301h-82zM698 1239l101 301h123l-142 -301h-82zM604 -16q-108 0 -203.5 40.5t-164 112t-108.5 172.5t-40 217v17q0 118 40.5 220.5t110.5 173t165 110.5t202 40q108 0 202.5 -39.5t164 -109t109.5 -171.5t40 -222v-17q0 -239 -149 -391.5
t-369 -152.5zM606 76q175 0 289.5 123.5t114.5 326.5v17q0 207 -114.5 329.5t-289.5 122.5q-176 0 -290.5 -123.5t-114.5 -328.5v-17q0 -203 114 -326.5t291 -123.5z" />
    <glyph glyph-name="uni0152" unicode="&#x152;" horiz-adv-x="1957" 
d="M109 735q0 155 45 285.5t132.5 230.5t230 156.5t325.5 56.5h987v-94h-696v-571h559v-94h-559v-611h733v-94h-1028q-178 0 -318 54.5t-229 152t-135.5 227.5t-46.5 285v16zM1020 1370h-174q-154 0 -273 -46.5t-194.5 -131.5t-114.5 -200.5t-39 -256.5v-16q0 -138 37 -250
t111.5 -197t195.5 -131.5t279 -46.5h172v1276z" />
    <glyph glyph-name="uni0153" unicode="&#x153;" horiz-adv-x="2054" 
d="M604 -16q-108 0 -203.5 40.5t-164 112t-108.5 172.5t-40 217v17q0 118 40.5 220.5t110.5 173t165 110.5t202 40q158 0 280 -82t179 -227q53 144 167 226.5t269 82.5q98 0 182 -32.5t148 -95.5t100.5 -164t36.5 -230v-39h-848q5 -217 107 -333.5t291 -116.5
q134 0 220.5 56t112.5 167h109q-32 -151 -150.5 -233t-293.5 -82q-167 0 -284 82t-169 227q-57 -143 -179.5 -226t-279.5 -83zM606 76q175 0 289.5 123.5t114.5 326.5v17q0 207 -114.5 329.5t-289.5 122.5q-176 0 -290.5 -123.5t-114.5 -328.5v-17q0 -203 114 -326.5
t291 -123.5zM1124 614h734q-7 190 -102 285.5t-255 95.5q-156 0 -259 -103.5t-118 -277.5z" />
    <glyph glyph-name="uni0154" unicode="&#x154;" horiz-adv-x="1241" 
d="M545 1579l131 250h135l-180 -250h-86zM188 0v1464h402q110 0 198.5 -22t156.5 -68t105 -123t37 -180v-8q0 -174 -101 -268t-277 -119l465 -676h-127l-459 668h-285v-668h-115zM303 760h293q377 0 377 303v8q0 83 -26.5 141.5t-77.5 92.5t-118 49.5t-155 15.5h-293v-610z
" />
    <glyph glyph-name="uni0155" unicode="&#x155;" horiz-adv-x="712" 
d="M338 1239l139 301h133l-188 -301h-84zM168 0v1071h108v-225q104 231 363 239v-102q-363 -14 -363 -389v-594h-108z" />
    <glyph glyph-name="uni0156" unicode="&#x156;" horiz-adv-x="1241" 
d="M188 0v1464h402q110 0 198.5 -22t156.5 -68t105 -123t37 -180v-8q0 -174 -101 -268t-277 -119l465 -676h-127l-459 668h-285v-668h-115zM303 760h293q377 0 377 303v8q0 83 -26.5 141.5t-77.5 92.5t-118 49.5t-155 15.5h-293v-610zM545 -418l-70 33l119 301l104 -31z" />
    <glyph glyph-name="uni0157" unicode="&#x157;" horiz-adv-x="712" 
d="M168 0v1071h108v-225q104 231 363 239v-102q-363 -14 -363 -389v-594h-108zM141 -418l-69 33l118 301l105 -31z" />
    <glyph glyph-name="uni0158" unicode="&#x158;" horiz-adv-x="1241" 
d="M549 1579l-223 250h86l190 -158l193 158h84l-228 -250h-102zM188 0v1464h402q110 0 198.5 -22t156.5 -68t105 -123t37 -180v-8q0 -174 -101 -268t-277 -119l465 -676h-127l-459 668h-285v-668h-115zM303 760h293q377 0 377 303v8q0 83 -26.5 141.5t-77.5 92.5t-118 49.5
t-155 15.5h-293v-610z" />
    <glyph glyph-name="uni0159" unicode="&#x159;" horiz-adv-x="712" 
d="M342 1255l-221 277h86l188 -184l191 184h84l-226 -277h-102zM168 0v1071h108v-225q104 231 363 239v-102q-363 -14 -363 -389v-594h-108z" />
    <glyph glyph-name="uni015A" unicode="&#x15a;" horiz-adv-x="1232" 
d="M545 1579l131 250h135l-180 -250h-86zM631 -16q-132 0 -233 34t-164.5 95t-99.5 137t-48 170h113q46 -342 432 -342q170 0 274.5 88t104.5 225q0 152 -85 220t-309 102q-245 36 -359 125.5t-114 259.5t128 276.5t333 106.5q203 0 324.5 -96.5t146.5 -272.5h-104
q-27 138 -116.5 206t-250.5 68q-168 0 -261 -74t-93 -206q0 -84 32 -137.5t117 -92.5t236 -61q129 -19 215 -47.5t149.5 -76t92 -119t28.5 -173.5q0 -177 -136 -296t-353 -119z" />
    <glyph glyph-name="uni015B" unicode="&#x15b;" horiz-adv-x="952" 
d="M418 1239l139 301h133l-188 -301h-84zM489 -18q-186 0 -293 90.5t-118 246.5h104q14 -115 89 -180t218 -65q133 0 203 56t70 155t-61.5 143.5t-219.5 73.5q-202 36 -285 100.5t-83 198.5q0 130 104.5 208t247.5 78q154 0 253 -69.5t120 -220.5h-105q-20 102 -86 150
t-184 48q-113 0 -181.5 -52t-68.5 -138q0 -91 63 -134t230 -73q75 -13 126 -27.5t98.5 -37.5t75.5 -54t44 -77.5t16 -108.5q0 -139 -99.5 -225t-277.5 -86z" />
    <glyph glyph-name="uni015C" unicode="&#x15c;" horiz-adv-x="1232" 
d="M328 1579l225 250h102l222 -250h-86l-189 160l-190 -160h-84zM631 -16q-132 0 -233 34t-164.5 95t-99.5 137t-48 170h113q46 -342 432 -342q170 0 274.5 88t104.5 225q0 152 -85 220t-309 102q-245 36 -359 125.5t-114 259.5t128 276.5t333 106.5q203 0 324.5 -96.5
t146.5 -272.5h-104q-27 138 -116.5 206t-250.5 68q-168 0 -261 -74t-93 -206q0 -84 32 -137.5t117 -92.5t236 -61q129 -19 215 -47.5t149.5 -76t92 -119t28.5 -173.5q0 -177 -136 -296t-353 -119z" />
    <glyph glyph-name="uni015D" unicode="&#x15d;" horiz-adv-x="952" 
d="M201 1239l225 277h102l222 -277h-86l-189 184l-190 -184h-84zM489 -18q-186 0 -293 90.5t-118 246.5h104q14 -115 89 -180t218 -65q133 0 203 56t70 155t-61.5 143.5t-219.5 73.5q-202 36 -285 100.5t-83 198.5q0 130 104.5 208t247.5 78q154 0 253 -69.5t120 -220.5
h-105q-20 102 -86 150t-184 48q-113 0 -181.5 -52t-68.5 -138q0 -91 63 -134t230 -73q75 -13 126 -27.5t98.5 -37.5t75.5 -54t44 -77.5t16 -108.5q0 -139 -99.5 -225t-277.5 -86z" />
    <glyph glyph-name="uni015E" unicode="&#x15e;" horiz-adv-x="1232" 
d="M567 -434q-83 0 -135.5 43.5t-60.5 116.5h90q6 -37 33 -61.5t69 -24.5q46 0 74.5 24.5t28.5 65.5t-27.5 60.5t-65.5 19.5q-39 0 -73 -17l-54 43l86 154q-107 11 -189 49t-134.5 97t-82 129.5t-40.5 154.5h113q46 -342 432 -342q170 0 274.5 88t104.5 225q0 152 -85 220
t-309 102q-245 36 -359 125.5t-114 259.5t128 276.5t333 106.5q203 0 324.5 -96.5t146.5 -272.5h-104q-27 138 -116.5 206t-250.5 68q-168 0 -261 -74t-93 -206q0 -84 32 -137.5t117 -92.5t236 -61q129 -19 215 -47.5t149.5 -76t92 -119t28.5 -173.5q0 -177 -136 -296
t-353 -119h-15l-61 -109q81 19 144 -20.5t63 -128.5q0 -75 -56 -117.5t-139 -42.5z" />
    <glyph glyph-name="uni015F" unicode="&#x15f;" horiz-adv-x="952" 
d="M446 -434q-83 0 -135.5 43.5t-60.5 116.5h90q6 -37 33 -61.5t69 -24.5q46 0 74.5 24.5t28.5 65.5t-27 60.5t-65 19.5q-40 0 -74 -17l-53 43l84 152q-151 19 -237 106t-95 225h104q14 -115 89 -180t218 -65q133 0 203 56t70 155t-61.5 143.5t-219.5 73.5
q-202 36 -285 100.5t-83 198.5q0 130 104.5 208t247.5 78q154 0 253 -69.5t120 -220.5h-105q-20 102 -86 150t-184 48q-113 0 -181.5 -52t-68.5 -138q0 -91 63 -134t230 -73q75 -13 126 -27.5t98.5 -37.5t75.5 -54t44 -77.5t16 -108.5q0 -139 -97 -224.5t-273 -86.5
l-62 -107q81 19 144 -20.5t63 -128.5q0 -75 -56 -117.5t-139 -42.5z" />
    <glyph glyph-name="uni0160" unicode="&#x160;" horiz-adv-x="1232" 
d="M547 1579l-223 250h86l190 -158l193 158h84l-228 -250h-102zM631 -16q-132 0 -233 34t-164.5 95t-99.5 137t-48 170h113q46 -342 432 -342q170 0 274.5 88t104.5 225q0 152 -85 220t-309 102q-245 36 -359 125.5t-114 259.5t128 276.5t333 106.5q203 0 324.5 -96.5
t146.5 -272.5h-104q-27 138 -116.5 206t-250.5 68q-168 0 -261 -74t-93 -206q0 -84 32 -137.5t117 -92.5t236 -61q129 -19 215 -47.5t149.5 -76t92 -119t28.5 -173.5q0 -177 -136 -296t-353 -119z" />
    <glyph glyph-name="uni0161" unicode="&#x161;" horiz-adv-x="952" 
d="M422 1255l-221 277h86l188 -184l191 184h84l-226 -277h-102zM489 -18q-186 0 -293 90.5t-118 246.5h104q14 -115 89 -180t218 -65q133 0 203 56t70 155t-61.5 143.5t-219.5 73.5q-202 36 -285 100.5t-83 198.5q0 130 104.5 208t247.5 78q154 0 253 -69.5t120 -220.5h-105
q-20 102 -86 150t-184 48q-113 0 -181.5 -52t-68.5 -138q0 -91 63 -134t230 -73q75 -13 126 -27.5t98.5 -37.5t75.5 -54t44 -77.5t16 -108.5q0 -139 -99.5 -225t-277.5 -86z" />
    <glyph glyph-name="uni0162" unicode="&#x162;" horiz-adv-x="1144" 
d="M516 0v1370h-455v94h1022v-94h-454v-1370h-113zM494 -418l-70 33l119 301l104 -31z" />
    <glyph glyph-name="uni0163" unicode="&#x163;" horiz-adv-x="692" 
d="M471 -14q-127 0 -194.5 71t-67.5 201v721h-158v92h158v244h108v-244h281v-92h-281v-713q0 -94 42 -141t118 -47q67 0 135 22v-92q-64 -22 -141 -22zM299 -418l-70 33l119 301l105 -31z" />
    <glyph glyph-name="uni0164" unicode="&#x164;" horiz-adv-x="1144" 
d="M518 1579l-223 250h86l190 -158l193 158h84l-227 -250h-103zM516 0v1370h-455v94h1022v-94h-454v-1370h-113z" />
    <glyph glyph-name="uni0165" unicode="&#x165;" horiz-adv-x="692" 
d="M500 1251l24 332h123l-67 -332h-80zM471 -14q-127 0 -194.5 71t-67.5 201v721h-158v92h158v244h108v-244h281v-92h-281v-713q0 -94 42 -141t118 -47q67 0 135 22v-92q-64 -22 -141 -22z" />
    <glyph glyph-name="uni0166" unicode="&#x166;" horiz-adv-x="1144" 
d="M205 748v88h311v534h-455v94h1022v-94h-454v-534h313v-88h-313v-748h-113v748h-311z" />
    <glyph glyph-name="uni0167" unicode="&#x167;" horiz-adv-x="692" 
d="M51 618v80h158v281h-158v92h158v244h108v-244h281v-92h-281v-281h281v-80h-281v-352q0 -94 42 -141t118 -47q67 0 135 22v-92q-64 -22 -141 -22q-127 0 -194.5 71t-67.5 201v360h-158z" />
    <glyph glyph-name="uni0168" unicode="&#x168;" horiz-adv-x="1396" 
d="M825 1585q-42 0 -89.5 27.5t-90.5 54.5t-72 27q-36 0 -61.5 -29.5t-32.5 -81.5h-84q12 96 60.5 149.5t117.5 53.5q41 0 88 -27t90.5 -54.5t73.5 -27.5q35 0 61.5 30t33.5 81h81q-12 -96 -60 -149.5t-116 -53.5zM692 -14q-250 0 -387 139t-137 399v940h113v-927
q0 -232 103.5 -343.5t309.5 -111.5q215 0 318.5 113t103.5 368v901h115v-917q0 -268 -135 -414.5t-404 -146.5z" />
    <glyph glyph-name="uni0169" unicode="&#x169;" horiz-adv-x="1185" 
d="M719 1262q-42 0 -90 27t-91.5 54t-72.5 27q-33 0 -59 -29t-33 -79h-84q12 95 60.5 148.5t117.5 53.5q41 0 88.5 -27t91 -54t72.5 -27q34 0 60.5 28.5t33.5 79.5h82q-12 -95 -60 -148.5t-116 -53.5zM535 -16q-176 0 -276.5 99t-100.5 310v678h108v-672q0 -321 293 -321
q90 0 168 37.5t130 117t52 187.5v651h109v-1071h-109v205q-39 -93 -139.5 -157t-234.5 -64z" />
    <glyph glyph-name="uni016A" unicode="&#x16a;" horiz-adv-x="1396" 
d="M444 1620v86h508v-86h-508zM692 -14q-250 0 -387 139t-137 399v940h113v-927q0 -232 103.5 -343.5t309.5 -111.5q215 0 318.5 113t103.5 368v901h115v-917q0 -268 -135 -414.5t-404 -146.5z" />
    <glyph glyph-name="uni016B" unicode="&#x16b;" horiz-adv-x="1185" 
d="M344 1325v86h496v-86h-496zM535 -16q-176 0 -276.5 99t-100.5 310v678h108v-672q0 -321 293 -321q90 0 168 37.5t130 117t52 187.5v651h109v-1071h-109v205q-39 -93 -139.5 -157t-234.5 -64z" />
    <glyph glyph-name="uni016C" unicode="&#x16c;" horiz-adv-x="1396" 
d="M694 1579q-104 0 -178 71.5t-80 178.5h90q8 -72 53 -116t115 -44q71 0 119 44.5t57 115.5h88q-6 -106 -83 -178t-181 -72zM692 -14q-250 0 -387 139t-137 399v940h113v-927q0 -232 103.5 -343.5t309.5 -111.5q215 0 318.5 113t103.5 368v901h115v-917q0 -268 -135 -414.5
t-404 -146.5z" />
    <glyph glyph-name="uni016D" unicode="&#x16d;" horiz-adv-x="1185" 
d="M590 1262q-104 0 -174 69t-76 178h90q8 -73 49.5 -115t110.5 -42q71 0 115 42t55 115h86q-6 -108 -79 -177.5t-177 -69.5zM535 -16q-176 0 -276.5 99t-100.5 310v678h108v-672q0 -321 293 -321q90 0 168 37.5t130 117t52 187.5v651h109v-1071h-109v205
q-39 -93 -139.5 -157t-234.5 -64z" />
    <glyph glyph-name="uni016E" unicode="&#x16e;" horiz-adv-x="1396" 
d="M698 1495q-82 0 -141 58.5t-59 138.5q0 79 59 136.5t141 57.5q83 0 142 -57t59 -137t-59 -138.5t-142 -58.5zM698 1561q54 0 89.5 37.5t35.5 93.5t-35.5 93.5t-89.5 37.5q-53 0 -89 -38t-36 -93t36 -93t89 -38zM692 -14q-250 0 -387 139t-137 399v940h113v-927
q0 -232 103.5 -343.5t309.5 -111.5q215 0 318.5 113t103.5 368v901h115v-917q0 -268 -135 -414.5t-404 -146.5z" />
    <glyph glyph-name="uni016F" unicode="&#x16f;" horiz-adv-x="1185" 
d="M590 1198q-82 0 -141.5 58t-59.5 137q0 80 59.5 138t141.5 58q83 0 142 -58t59 -138t-59 -137.5t-142 -57.5zM590 1264q54 0 89.5 36.5t35.5 92.5q0 57 -35.5 94t-89.5 37q-53 0 -89 -37t-36 -94q0 -55 36 -92t89 -37zM535 -16q-176 0 -276.5 99t-100.5 310v678h108v-672
q0 -321 293 -321q90 0 168 37.5t130 117t52 187.5v651h109v-1071h-109v205q-39 -93 -139.5 -157t-234.5 -64z" />
    <glyph glyph-name="uni0170" unicode="&#x170;" horiz-adv-x="1396" 
d="M514 1579l92 250h123l-133 -250h-82zM784 1579l93 250h122l-133 -250h-82zM692 -14q-250 0 -387 139t-137 399v940h113v-927q0 -232 103.5 -343.5t309.5 -111.5q215 0 318.5 113t103.5 368v901h115v-917q0 -268 -135 -414.5t-404 -146.5z" />
    <glyph glyph-name="uni0171" unicode="&#x171;" horiz-adv-x="1185" 
d="M416 1239l100 301h123l-141 -301h-82zM686 1239l100 301h123l-141 -301h-82zM535 -16q-176 0 -276.5 99t-100.5 310v678h108v-672q0 -321 293 -321q90 0 168 37.5t130 117t52 187.5v651h109v-1071h-109v205q-39 -93 -139.5 -157t-234.5 -64z" />
    <glyph glyph-name="uni0172" unicode="&#x172;" horiz-adv-x="1396" 
d="M780 -373q-88 0 -139 42t-51 112q0 61 40 115.5t105 91.5q-6 0 -21.5 -1t-21.5 -1q-250 0 -387 139t-137 399v940h113v-927q0 -232 103.5 -343.5t309.5 -111.5q215 0 318.5 113t103.5 368v901h115v-917q0 -192 -71.5 -323.5t-207.5 -188.5q-61 -27 -101 -48t-79.5 -50
t-58.5 -63t-19 -75q0 -42 25.5 -66t75.5 -24q55 0 102 21v-80q-59 -23 -117 -23z" />
    <glyph glyph-name="uni0173" unicode="&#x173;" horiz-adv-x="1185" 
d="M942 -373q-88 0 -139 42t-51 112q0 66 45 124.5t112 94.5v205q-39 -93 -139.5 -157t-234.5 -64q-176 0 -276.5 99t-100.5 310v678h108v-672q0 -321 293 -321q90 0 168 37.5t130 117t52 187.5v651h109v-1065q-84 -54 -124 -103.5t-40 -103.5q0 -42 26 -66t76 -24
q56 0 103 21v-80q-59 -23 -117 -23z" />
    <glyph glyph-name="uni0174" unicode="&#x174;" horiz-adv-x="1884" 
d="M666 1579l225 250h102l221 -250h-86l-188 160l-190 -160h-84zM455 0l-387 1464h114l336 -1290l387 1290h80l373 -1294l354 1294h105l-402 -1464h-110l-361 1262l-381 -1262h-108z" />
    <glyph glyph-name="uni0175" unicode="&#x175;" horiz-adv-x="1589" 
d="M520 1239l225 277h103l221 -277h-86l-188 184l-191 -184h-84zM393 0l-334 1071h117l287 -938l293 938h92l282 -938l289 938h111l-338 -1071h-125l-266 897l-285 -897h-123z" />
    <glyph glyph-name="uni0176" unicode="&#x176;" horiz-adv-x="1183" 
d="M324 1579l225 250h102l221 -250h-86l-188 160l-190 -160h-84zM549 0v651l-502 813h127l434 -716l414 716h115l-473 -815v-649h-115z" />
    <glyph glyph-name="uni0177" unicode="&#x177;" horiz-adv-x="1040" 
d="M248 1239l225 277h102l222 -277h-86l-189 184l-190 -184h-84zM281 -373l194 465l-424 979h117l367 -854l342 854h110l-594 -1444h-112z" />
    <glyph glyph-name="uni0178" unicode="&#x178;" horiz-adv-x="1183" 
d="M414 1614q-32 0 -54 22.5t-22 53.5q0 30 22 51.5t54 21.5q30 0 51.5 -21.5t21.5 -51.5q0 -31 -21.5 -53.5t-51.5 -22.5zM782 1614q-30 0 -51.5 22.5t-21.5 53.5q0 30 21.5 51.5t51.5 21.5t52 -21.5t22 -51.5q0 -31 -21.5 -53.5t-52.5 -22.5zM549 0v651l-502 813h127
l434 -716l414 716h115l-473 -815v-649h-115z" />
    <glyph glyph-name="uni0179" unicode="&#x179;" horiz-adv-x="1202" 
d="M551 1579l131 250h135l-180 -250h-86zM55 0v23l908 1347h-834v94h993v-20l-895 -1346h883v-98h-1055z" />
    <glyph glyph-name="uni017A" unicode="&#x17a;" horiz-adv-x="970" 
d="M444 1239l140 301h133l-189 -301h-84zM49 0v18l696 961h-634v92h804v-20l-690 -955h676v-96h-852z" />
    <glyph glyph-name="uni017B" unicode="&#x17b;" horiz-adv-x="1202" 
d="M606 1612q-32 0 -55 23t-23 55q0 31 23 53t55 22t55 -22t23 -53q0 -32 -23 -55t-55 -23zM55 0v23l908 1347h-834v94h993v-20l-895 -1346h883v-98h-1055z" />
    <glyph glyph-name="uni017C" unicode="&#x17c;" horiz-adv-x="970" 
d="M502 1300q-32 0 -55 23t-23 55q0 31 23 53.5t55 22.5t55 -22.5t23 -53.5q0 -32 -23 -55t-55 -23zM49 0v18l696 961h-634v92h804v-20l-690 -955h676v-96h-852z" />
    <glyph glyph-name="uni017D" unicode="&#x17d;" horiz-adv-x="1202" 
d="M553 1579l-223 250h86l190 -158l193 158h84l-228 -250h-102zM55 0v23l908 1347h-834v94h993v-20l-895 -1346h883v-98h-1055z" />
    <glyph glyph-name="uni017E" unicode="&#x17e;" horiz-adv-x="970" 
d="M449 1255l-222 277h86l189 -184l190 184h84l-225 -277h-102zM49 0v18l696 961h-634v92h804v-20l-690 -955h676v-96h-852z" />
    <glyph glyph-name="uni0192" unicode="&#x192;" horiz-adv-x="786" 
d="M59 735v90h195l51 334q47 324 330 324q68 0 139 -23v-94q-65 25 -137 25q-189 0 -225 -236l-52 -330h297v-90h-309l-170 -1108h-108l170 1108h-181z" />
    <glyph glyph-name="uni01FA" unicode="&#x1fa;" horiz-adv-x="1339" 
d="M616 1985l132 249h135l-181 -249h-86zM668 1534q-82 0 -141.5 58.5t-59.5 138.5q0 79 59.5 136.5t141.5 57.5q83 0 141.5 -57t58.5 -137t-58.5 -138.5t-141.5 -58.5zM668 1599q54 0 89.5 38t35.5 94t-35.5 93.5t-89.5 37.5q-53 0 -89 -38t-36 -93t36 -93.5t89 -38.5z
M68 0l526 1464h151l527 -1464h-115l-162 449h-659l-160 -449h-108zM666 1370l-297 -829h594z" />
    <glyph glyph-name="uni01FB" unicode="&#x1fb;" horiz-adv-x="1083" 
d="M506 1698l131 250h135l-180 -250h-86zM551 1210q-82 0 -141.5 58t-59.5 137q0 80 59.5 138.5t141.5 58.5q83 0 142 -58.5t59 -138.5t-59 -137.5t-142 -57.5zM551 1276q54 0 89.5 36.5t35.5 92.5q0 57 -35.5 94t-89.5 37q-53 0 -89 -37t-36 -94q0 -55 36 -92t89 -37z
M453 -16q-164 0 -263.5 78.5t-99.5 226.5q0 90 40.5 154.5t112.5 100.5t158 52t191 16h223v97q0 150 -64.5 218t-205.5 68q-126 0 -204.5 -56t-96.5 -171h-107q9 82 46 144.5t93.5 100t125.5 56t147 18.5q176 0 275.5 -91t99.5 -287v-709h-109v164q-118 -180 -362 -180z
M461 72q149 0 251.5 77.5t102.5 196.5v182h-219q-71 0 -127.5 -6t-108.5 -22.5t-86 -43t-54.5 -69t-20.5 -98.5q0 -104 66 -160.5t196 -56.5z" />
    <glyph glyph-name="uni01FC" unicode="&#x1fc;" horiz-adv-x="1937" 
d="M1188 1579l131 250h135l-180 -250h-86zM59 0l744 1464h1005v-94h-727v-571h590v-94h-590v-611h764v-94h-878v451h-566l-225 -451h-117zM862 1370l-416 -829h521v829h-105z" />
    <glyph glyph-name="uni01FD" unicode="&#x1fd;" horiz-adv-x="1837" 
d="M870 1239l140 301h133l-189 -301h-84zM1307 -16q-151 0 -261 70.5t-167 197.5q-51 -132 -162.5 -200t-263.5 -68q-164 0 -263.5 77.5t-99.5 225.5q0 73 27 129.5t72 93t110 60t135.5 33t153.5 9.5h231v95q0 150 -66.5 219t-207.5 69q-126 0 -204.5 -56t-96.5 -171h-107
q18 159 133.5 239t278.5 80q287 0 350 -233q61 110 163 171.5t232 61.5q96 0 178 -32t145 -95t98.5 -164t35.5 -231v-37h-825q3 -218 100 -335t283 -117q132 0 215.5 56t109.5 167h109q-32 -151 -148.5 -233t-287.5 -82zM928 612h712q-7 192 -97.5 287.5t-248.5 95.5
q-152 0 -251.5 -104t-114.5 -279zM463 72q151 0 253.5 82t102.5 217v157h-229q-89 0 -156 -11t-122 -37t-84 -74.5t-29 -118.5q0 -104 66 -159.5t198 -55.5z" />
    <glyph glyph-name="uni01FE" unicode="&#x1fe;" horiz-adv-x="1640" 
d="M764 1579l131 250h135l-180 -250h-86zM145 -49l-61 59l199 219q-174 205 -174 494v16q0 154 54 291t147 236t226 157t285 58q259 0 453 -160l174 192l59 -61l-172 -188q95 -101 147 -235.5t52 -285.5v-16q0 -205 -91 -375t-254 -269t-364 -99q-286 0 -483 184zM225 725
q0 -245 129 -416l852 938q-155 139 -385 139q-176 0 -312.5 -84t-210 -230.5t-73.5 -330.5v-16zM825 80q172 0 307 83.5t209 231.5t74 334v16q0 268 -149 443l-854 -944q167 -164 413 -164z" />
    <glyph glyph-name="uni01FF" unicode="&#x1ff;" horiz-adv-x="1210" 
d="M545 1239l139 301h133l-188 -301h-84zM125 -51l-62 51l148 164q-123 148 -123 362v17q0 118 40.5 220.5t110.5 173t165 110.5t202 40q192 0 332 -118l131 147l59 -51l-135 -150q129 -152 129 -370v-17q0 -239 -149 -391.5t-369 -152.5q-197 0 -338 122zM201 526
q0 -168 80 -284l589 653q-106 100 -264 100q-176 0 -290.5 -123.5t-114.5 -328.5v-17zM606 76q175 0 289.5 123.5t114.5 326.5v17q0 172 -86 295l-592 -658q110 -104 274 -104z" />
    <glyph glyph-name="uni0218" unicode="&#x218;" horiz-adv-x="1232" 
d="M631 -16q-132 0 -233 34t-164.5 95t-99.5 137t-48 170h113q46 -342 432 -342q170 0 274.5 88t104.5 225q0 152 -85 220t-309 102q-245 36 -359 125.5t-114 259.5t128 276.5t333 106.5q203 0 324.5 -96.5t146.5 -272.5h-104q-27 138 -116.5 206t-250.5 68q-168 0 -261 -74
t-93 -206q0 -84 32 -137.5t117 -92.5t236 -61q129 -19 215 -47.5t149.5 -76t92 -119t28.5 -173.5q0 -177 -136 -296t-353 -119zM520 -418l-69 33l118 301l105 -31z" />
    <glyph glyph-name="uni0219" unicode="&#x219;" horiz-adv-x="952" 
d="M489 -18q-186 0 -293 90.5t-118 246.5h104q14 -115 89 -180t218 -65q133 0 203 56t70 155t-61.5 143.5t-219.5 73.5q-202 36 -285 100.5t-83 198.5q0 130 104.5 208t247.5 78q154 0 253 -69.5t120 -220.5h-105q-20 102 -86 150t-184 48q-113 0 -181.5 -52t-68.5 -138
q0 -91 63 -134t230 -73q75 -13 126 -27.5t98.5 -37.5t75.5 -54t44 -77.5t16 -108.5q0 -139 -99.5 -225t-277.5 -86zM399 -418l-69 33l119 301l104 -31z" />
    <glyph glyph-name="uni021A" unicode="&#x21a;" horiz-adv-x="1144" 
d="M516 0v1370h-455v94h1022v-94h-454v-1370h-113zM494 -418l-70 33l119 301l104 -31z" />
    <glyph glyph-name="uni021B" unicode="&#x21b;" horiz-adv-x="692" 
d="M471 -14q-127 0 -194.5 71t-67.5 201v721h-158v92h158v244h108v-244h281v-92h-281v-713q0 -94 42 -141t118 -47q67 0 135 22v-92q-64 -22 -141 -22zM299 -418l-70 33l119 301l105 -31z" />
    <glyph glyph-name="uni0237" unicode="&#x237;" horiz-adv-x="452" 
d="M14 -385v92q88 7 123 52t35 135v1177h109v-1169q0 -143 -62 -212t-205 -75z" />
    <glyph glyph-name="uni02C6" unicode="&#x2c6;" horiz-adv-x="819" 
d="M135 1239l225 277h103l221 -277h-86l-188 184l-191 -184h-84z" />
    <glyph glyph-name="uni02C7" unicode="&#x2c7;" horiz-adv-x="819" 
d="M356 1255l-221 277h86l189 -184l190 184h84l-225 -277h-103z" />
    <glyph glyph-name="uni02D8" unicode="&#x2d8;" horiz-adv-x="819" 
d="M408 1262q-104 0 -174 69t-76 178h90q8 -73 49.5 -115t110.5 -42q71 0 115 42t55 115h86q-6 -108 -79 -177.5t-177 -69.5z" />
    <glyph glyph-name="uni02D9" unicode="&#x2d9;" horiz-adv-x="819" 
d="M410 1300q-32 0 -55 23t-23 55q0 31 23 53.5t55 22.5t54.5 -22.5t22.5 -53.5q0 -32 -22.5 -55t-54.5 -23z" />
    <glyph glyph-name="uni02DA" unicode="&#x2da;" horiz-adv-x="819" 
d="M410 1231q-82 0 -141.5 57.5t-59.5 136.5q0 80 59.5 138.5t141.5 58.5q83 0 141.5 -58.5t58.5 -138.5t-58.5 -137t-141.5 -57zM410 1296q54 0 89.5 36.5t35.5 92.5q0 57 -35.5 94t-89.5 37q-53 0 -89 -37t-36 -94q0 -55 36 -92t89 -37z" />
    <glyph glyph-name="uni02DB" unicode="&#x2db;" horiz-adv-x="819" 
d="M444 -373q-88 0 -139 42t-51 112q0 66 45.5 123t116.5 96h98q-79 -52 -117.5 -100t-38.5 -101q0 -42 25.5 -66t75.5 -24q55 0 102 21v-80q-59 -23 -117 -23z" />
    <glyph glyph-name="uni02DC" unicode="&#x2dc;" horiz-adv-x="819" 
d="M541 1262q-42 0 -90 27t-91.5 54t-72.5 27q-33 0 -59 -29t-33 -79h-84q12 95 60.5 148.5t117.5 53.5q41 0 88.5 -27t91 -54t72.5 -27q34 0 60.5 28.5t33.5 79.5h82q-12 -95 -60 -148.5t-116 -53.5z" />
    <glyph glyph-name="uni02DD" unicode="&#x2dd;" horiz-adv-x="819" 
d="M229 1239l101 301h123l-142 -301h-82zM500 1239l100 301h123l-141 -301h-82z" />
    <glyph glyph-name="uni0E01" unicode="&#xe01;" horiz-adv-x="1290" 
d="M295 0h-111v416q0 142 44 210t132 93h-219v82q0 89 32 166t93.5 137t159 94.5t219.5 34.5q243 0 366.5 -127.5t123.5 -349.5v-756h-111v758q0 178 -95 280.5t-288 102.5q-184 0 -288.5 -92.5t-104.5 -225.5v-22h264v-78q-107 -23 -162 -94t-55 -203v-426z" />
    <glyph glyph-name="uni0E02" unicode="&#xe02;" horiz-adv-x="1183" 
d="M1026 436q0 -102 -23 -182.5t-72.5 -143t-135 -96.5t-203.5 -34q-116 0 -201.5 33.5t-136 96t-74.5 144t-24 184.5v25q0 129 27 202.5t91 155.5q66 84 87.5 122.5t21.5 82.5q0 113 -121 113q-58 0 -131 -25v88q69 27 152 27q100 0 153 -49.5t53 -147.5q0 -62 -23 -108
t-91 -138q-62 -87 -85.5 -150t-23.5 -165v-33q0 -173 80 -269.5t246 -96.5q165 0 244 95.5t79 266.5v783h111v-781z" />
    <glyph glyph-name="uni0E03" unicode="&#xe03;" horiz-adv-x="1208" 
d="M1051 428q0 -207 -108 -327.5t-333 -120.5q-219 0 -334.5 112t-115.5 303v64q0 63 13 112.5t44 93.5t57 71t78 75q76 69 111 119.5t35 109.5q0 52 -29 79.5t-78 27.5q-53 0 -86.5 -43t-54.5 -146h-111l-90 259h92l64 -201q27 217 205 217q85 0 135.5 -47.5t50.5 -141.5
q0 -82 -39.5 -142t-122.5 -136q-47 -43 -71 -69t-49 -63.5t-34.5 -79t-9.5 -97.5v-51q0 -155 88 -244.5t252 -89.5t247 91t83 265v789h111v-789z" />
    <glyph glyph-name="uni0E04" unicode="&#xe04;" horiz-adv-x="1280" 
d="M156 758q0 221 117.5 348t365.5 127t365.5 -127t117.5 -348v-758h-110v758q0 383 -371 383q-196 0 -287.5 -101t-91.5 -282v-312q21 60 59 100.5t92 60.5t110.5 28t131.5 8h95v-90h-95q-72 0 -124.5 -7t-105.5 -29t-85.5 -59.5t-53 -102t-20.5 -154.5v-201h-110v758z" />
    <glyph glyph-name="uni0E05" unicode="&#xe05;" horiz-adv-x="1290" 
d="M645 1061l213 170q156 -28 216.5 -115t60.5 -248v-868h-111v864q0 120 -31.5 181t-122.5 83l-221 -170h-12l-221 170q-91 -22 -122.5 -83t-31.5 -181v-418q21 60 59 100.5t92 60.5t110.5 28t131.5 8h95v-90h-95q-72 0 -124.5 -7t-105.5 -29t-85.5 -59.5t-53 -102
t-20.5 -154.5v-201h-110v868q0 161 60 248t214 115z" />
    <glyph glyph-name="uni0E06" unicode="&#xe06;" horiz-adv-x="1271" 
d="M1114 434q0 -211 -98.5 -331.5t-308.5 -120.5q-81 0 -150.5 19.5t-113.5 47.5t-79.5 65.5t-53 66.5t-29.5 59v-240h-111v432q0 116 41 191.5t149 189.5q81 87 110.5 133t29.5 96q0 52 -27 76.5t-74 24.5q-52 0 -85.5 -42.5t-53.5 -142.5h-113l-100 259h100l66 -193
q41 209 211 209q86 0 133 -48t47 -138q0 -72 -35 -130.5t-127 -160.5q-51 -57 -76 -88t-47.5 -69.5t-30 -74.5t-7.5 -84v-6q0 -61 26 -122.5t75 -114.5t129.5 -86t178.5 -33q314 0 314 356v783h110v-783z" />
    <glyph glyph-name="uni0E07" unicode="&#xe07;" horiz-adv-x="1202" 
d="M496 0h-66l-381 1219h111l356 -1129q89 4 170.5 39t150 100.5t109.5 174t41 245.5v6q0 106 -25 190.5t-66.5 138.5t-97 90.5t-113.5 51.5t-120 15t-141 -23v94q77 21 160 21q104 0 194.5 -33t163.5 -99.5t115.5 -179t42.5 -259.5v-9q0 -166 -51 -294.5t-137.5 -205
t-192 -115t-223.5 -38.5z" />
    <glyph glyph-name="uni0E08" unicode="&#xe08;" horiz-adv-x="1210" 
d="M1108 616q0 -292 -137 -462t-359 -170q-97 0 -186 28l-129 520h-176v91h258l135 -535q44 -12 94 -12q173 0 280 148.5t107 393.5v15q0 136 -31 236t-88.5 158.5t-130.5 86t-165 27.5q-162 0 -274 -81t-136 -222h-104q19 129 91.5 219.5t178.5 133t239 42.5
q117 0 212.5 -35.5t168 -106.5t112.5 -187.5t40 -270.5v-17z" />
    <glyph glyph-name="uni0E09" unicode="&#xe09;" horiz-adv-x="1263" 
d="M997 254q-8 -30 -25 -62.5t-52 -71t-80 -68.5t-115 -50t-152 -20q-207 0 -310 120t-103 326v174h110v-145q0 -65 7.5 -117t29 -102.5t56 -84.5t92 -54.5t133.5 -20.5q191 0 300 114.5t109 294.5v256q0 185 -90 293.5t-289 108.5q-82 0 -148.5 -19.5t-110 -50.5t-74 -72.5
t-45.5 -82.5t-19 -84h-106q7 83 39 153t90.5 126t153.5 88t218 32q245 0 368.5 -127.5t123.5 -364.5v-743h-111v254z" />
    <glyph glyph-name="uni0E0A" unicode="&#xe0a;" horiz-adv-x="1189" 
d="M1053 1217v-13q0 -57 -11.5 -108t-37.5 -101t-76 -87t-119 -52q108 -24 170.5 -103.5t62.5 -205.5v-125q0 -202 -110 -322t-334 -120q-222 0 -331 120t-109 322v41q0 129 27 202.5t91 155.5q66 84 87.5 122.5t21.5 82.5q0 113 -121 113q-64 0 -131 -23v86q69 27 152 27
q100 0 153.5 -50.5t53.5 -146.5q0 -63 -22.5 -107.5t-92.5 -138.5q-62 -84 -85.5 -148.5t-23.5 -166.5v-49q0 -166 84.5 -258t245.5 -92q160 0 247 92.5t87 257.5v125q0 131 -72.5 198.5t-200.5 67.5h-38v88h20q83 0 143 23.5t94 65.5t50 95t16 119v13h109z" />
    <glyph glyph-name="uni0E0B" unicode="&#xe0b;" horiz-adv-x="1187" 
d="M1053 1217v-13q0 -57 -11 -107.5t-36 -100t-74 -85.5t-117 -51q108 -25 167.5 -104.5t59.5 -202.5v-137q0 -203 -108 -319.5t-334 -116.5q-225 0 -334.5 115t-109.5 315v49q0 63 13 112.5t44 93.5t57 71t78 75q76 69 111 119.5t35 109.5q0 52 -28.5 79.5t-74.5 27.5
q-53 0 -86.5 -43t-54.5 -146h-111l-90 259h92l64 -201q27 217 201 217q85 0 135.5 -48.5t50.5 -140.5q0 -79 -39.5 -140.5t-122.5 -137.5q-47 -43 -71.5 -69.5t-49 -64t-34 -79t-9.5 -96.5v-47q0 -163 84.5 -250.5t247.5 -87.5t248.5 88.5t85.5 255.5v133q0 129 -70.5 196.5
t-193.5 67.5h-9v88h7q147 0 212.5 82.5t65.5 220.5v13h109z" />
    <glyph glyph-name="uni0E0C" unicode="&#xe0c;" horiz-adv-x="1984" 
d="M1827 420q0 -208 -92 -323t-281 -115q-74 0 -137.5 19t-105.5 48t-75 66.5t-50 70t-27 64.5v-250h-111v762q0 379 -348 379q-171 0 -263.5 -88.5t-92.5 -229.5v-22h258v-76q-108 -29 -169 -99t-61 -202v-98q0 -137 57.5 -193.5t159.5 -56.5q65 0 115 18v-90
q-58 -18 -135 -18q-307 0 -307 338v90q0 142 50.5 210.5t141.5 94.5h-219v90q0 184 121.5 304t347.5 120q225 0 340 -123.5t115 -347.5v-264q0 -185 103 -302.5t268 -117.5q286 0 286 346v793h111v-797z" />
    <glyph glyph-name="uni0E0D" unicode="&#xe0d;" horiz-adv-x="1982" 
d="M936 772q0 175 -82.5 272t-255.5 97q-168 0 -261 -89t-93 -229v-22h258v-76q-108 -29 -169 -99t-61 -202v-98q0 -137 57.5 -193.5t159.5 -56.5q65 0 115 18v-90q-58 -18 -133 -18q-309 0 -309 338v90q0 142 50.5 210.5t141.5 94.5h-219v90q0 184 121 304t346 120
q221 0 333 -121t112 -340v-352q0 -150 72 -239t220 -89q173 0 272 117.5t99 306.5v701h111v-1223q0 -120 -35 -209t-98 -140t-142 -75.5t-176 -24.5q-193 0 -304.5 88.5t-129.5 225.5h108q22 -109 105 -165t221 -56q342 0 342 352v272q-11 -33 -26 -63t-46.5 -68.5
t-71 -65.5t-102.5 -46t-139 -19q-190 0 -290.5 110t-100.5 306v356z" />
    <glyph glyph-name="uni0E0E" unicode="&#xe0e;" horiz-adv-x="1327" 
d="M354 -471h-108v18q0 119 96 198t262 79q149 0 273 -62.5t182 -138.5v1135q0 177 -96.5 280t-288.5 103q-186 0 -293 -92.5t-107 -225.5v-22h261v-78q-96 -26 -136.5 -88t-40.5 -176v-223q0 -134 -70.5 -190t-209.5 -58v90q93 3 131.5 38.5t38.5 119.5v213q0 124 32 185.5
t107 84.5h-221v82q0 88 33 165.5t95.5 137.5t161.5 94.5t222 34.5q242 0 366.5 -127.5t124.5 -349.5v-1227h-116q-64 82 -177.5 142.5t-244.5 60.5q-137 0 -207 -62.5t-70 -140.5z" />
    <glyph glyph-name="uni0E0F" unicode="&#xe0f;" horiz-adv-x="1327" 
d="M244 -471h-23v96h23q67 0 129 42t94 138h41l137 -170l131 172h29l156 -184q98 12 98 154v981q0 176 -97 279.5t-286 103.5q-187 0 -294.5 -92.5t-107.5 -225.5v-22h261v-78q-96 -26 -136.5 -88t-40.5 -176v-223q0 -134 -70.5 -190t-209.5 -58v90q93 3 131.5 38.5
t38.5 119.5v213q0 124 32 185.5t107 84.5h-221v82q0 88 33 166t95.5 137.5t161 94t220.5 34.5q243 0 368 -127.5t125 -349.5v-971q0 -118 -56 -187t-165 -69h-22l-138 168l-124 -168h-37l-129 160q-70 -160 -254 -160z" />
    <glyph glyph-name="uni0E10" unicode="&#xe10;" horiz-adv-x="1218" 
d="M1094 1296h125l-228 -254q117 -139 117 -409v-17q0 -292 -137 -462t-359 -170q-97 0 -186 28l-129 520h-176v91h258l135 -535q44 -12 94 -12q173 0 280 148.5t107 393.5v15q0 136 -31 236t-88.5 158.5t-130.5 86t-165 27.5q-162 0 -274 -81t-136 -222h-104
q28 192 170 293.5t346 101.5q220 0 346 -123zM819 -393q65 0 105.5 37.5t40.5 119.5v56h110v-56q0 -122 -61 -186.5t-176 -64.5q-81 0 -142 38t-110 127q-59 -98 -126 -127.5t-204 -29.5h-78v92h78q121 0 186.5 36.5t116.5 133.5h51q46 -93 95 -134.5t114 -41.5z" />
    <glyph glyph-name="uni0E11" unicode="&#xe11;" horiz-adv-x="1306" 
d="M301 0h-111v457q0 107 41 185t146 206q88 102 105 129q24 38 24 74q0 48 -26.5 72t-71.5 24q-53 0 -87 -43t-55 -146h-110l-90 259h92l63 -201q14 114 67 165.5t132 51.5q76 0 125 -42.5t49 -127.5v-21q151 191 324 191q104 0 165.5 -60.5t61.5 -175.5v-997h-109v987
q0 76 -37.5 113t-99.5 37q-76 0 -154 -59t-210 -204q-139 -154 -186.5 -239.5t-47.5 -202.5v-432z" />
    <glyph glyph-name="uni0E12" unicode="&#xe12;" horiz-adv-x="2093" 
d="M1937 426q0 -209 -94.5 -326.5t-292.5 -117.5q-97 0 -175.5 28t-126 72.5t-74 85.5t-39.5 82v-250h-105v881q0 105 -42 163.5t-140 81.5l-180 -149h-15l-180 149q-113 -29 -172 -144t-59 -341v-16q0 -279 107 -413t290 -134q63 0 115 12v-88q-51 -14 -140 -14
q-227 0 -356 160t-129 477v16q0 268 87 413t271 179l175 -150l174 150q169 -32 237 -119.5t68 -232.5v-383q0 -188 104 -304t281 -116q69 0 122.5 20t86.5 52.5t54.5 79.5t29.5 96t8 106v785h110v-791z" />
    <glyph glyph-name="uni0E13" unicode="&#xe13;" horiz-adv-x="1986" 
d="M1716 246q-13 -41 -39 -82.5t-72 -84.5t-121.5 -70t-168.5 -27q-188 0 -283.5 108.5t-95.5 308.5v363q0 180 -81.5 279.5t-256.5 99.5q-168 0 -261 -89t-93 -229v-22h258v-76q-108 -29 -169 -99t-61 -202v-98q0 -137 57.5 -193.5t159.5 -56.5q65 0 115 18v-90
q-58 -18 -133 -18q-309 0 -309 338v90q0 142 50.5 210.5t141.5 94.5h-219v90q0 89 29.5 165t86 134t146.5 91.5t203 33.5q222 0 334.5 -124.5t112.5 -348.5v-359q0 -150 70.5 -236.5t217.5 -86.5q174 0 274.5 116.5t100.5 303.5v719h111v-1217h-105v246z" />
    <glyph glyph-name="uni0E14" unicode="&#xe14;" horiz-adv-x="1323" 
d="M752 2q-51 -14 -138 -14q-227 0 -356 155.5t-129 456.5v14q0 312 148 465.5t405 153.5q234 0 359.5 -121t125.5 -334v-778h-110v778q0 169 -96.5 266t-276.5 97q-96 0 -174 -29.5t-139.5 -91t-95 -165t-33.5 -241.5v-14q0 -263 107 -392.5t290 -129.5q64 0 113 14v-90z
" />
    <glyph glyph-name="uni0E15" unicode="&#xe15;" horiz-adv-x="1331" 
d="M752 2q-51 -14 -138 -14q-225 0 -355 160t-130 468v17q0 533 373 600l180 -162l186 162q171 -32 239.5 -119.5t68.5 -232.5v-881h-111v881q0 105 -42.5 163.5t-141.5 81.5l-195 -157h-14l-185 157q-116 -29 -180.5 -151.5t-64.5 -341.5v-17q0 -272 107.5 -405t289.5 -133
q64 0 113 14v-90z" />
    <glyph glyph-name="uni0E16" unicode="&#xe16;" horiz-adv-x="1280" 
d="M604 4q-58 -18 -133 -18q-309 0 -309 338v90q0 142 50.5 210.5t141.5 94.5h-219v82q0 89 31 166t91.5 137t157.5 94.5t220 34.5q241 0 365 -127.5t124 -349.5v-756h-110v758q0 177 -96 280t-287 103q-183 0 -285 -92t-102 -226v-22h258v-76q-108 -29 -169 -99t-61 -202
v-100q0 -136 57.5 -192t159.5 -56q65 0 115 18v-90z" />
    <glyph glyph-name="uni0E17" unicode="&#xe17;" horiz-adv-x="1265" 
d="M279 0h-111v1217h106v-254q9 30 27 62t53.5 70.5t81 68t116.5 49.5t155 20q109 0 188 -32.5t125.5 -94t68 -140.5t21.5 -180v-786h-111v758q0 65 -8 118t-29.5 103t-56 83.5t-91.5 54t-132 20.5q-187 0 -295 -115t-108 -303v-719z" />
    <glyph glyph-name="uni0E18" unicode="&#xe18;" horiz-adv-x="1245" 
d="M1114 362q0 -192 -122.5 -287t-342.5 -95q-262 0 -467 120v482h109v-424q159 -86 360 -86q353 0 353 290q0 119 -70 187.5t-246 101.5l-536 101v92q0 132 60 220.5t161 127.5t239 39q217 0 343 -91t151 -237h-111q-22 105 -117 170.5t-264 65.5q-167 0 -261.5 -70
t-94.5 -211v-33l465 -86q202 -37 296.5 -126.5t94.5 -250.5z" />
    <glyph glyph-name="uni0E19" unicode="&#xe19;" horiz-adv-x="1265" 
d="M993 246q-8 -27 -24.5 -57.5t-51.5 -68.5t-80 -67.5t-116 -50t-154 -20.5q-109 0 -189.5 32.5t-127.5 94t-69.5 142t-22.5 183.5v783h110v-754q0 -65 8 -118.5t30 -104.5t57 -85.5t93 -55.5t134 -21q189 0 294 115t105 296v728h111v-1217h-107v246z" />
    <glyph glyph-name="uni0E1A" unicode="&#xe1a;" horiz-adv-x="1255" 
d="M1098 457q0 -225 -115 -351t-356 -126q-240 0 -354.5 126t-114.5 351v760h110v-760q0 -83 19 -150.5t60 -121.5t112 -83.5t168 -29.5t168.5 29.5t112.5 83.5t60 121.5t19 150.5v760h111v-760z" />
    <glyph glyph-name="uni0E1B" unicode="&#xe1b;" horiz-adv-x="1255" 
d="M1098 457q0 -225 -115 -351t-356 -126q-240 0 -354.5 126t-114.5 351v760h110v-760q0 -83 19 -150.5t60 -121.5t112 -83.5t168 -29.5t168.5 29.5t112.5 83.5t60 121.5t19 150.5v1175h111v-1175z" />
    <glyph glyph-name="uni0E1C" unicode="&#xe1c;" horiz-adv-x="1339" 
d="M1065 123v1096h106v-1219h-139l-366 565l-367 -565h-141v915q0 314 284 314q70 0 125 -19v-88q-53 17 -100 17q-95 0 -148 -50t-53 -174v-792l383 586h33z" />
    <glyph glyph-name="uni0E1D" unicode="&#xe1d;" horiz-adv-x="1335" 
d="M1065 123v1509h106v-1632h-139l-366 565l-367 -565h-141v915q0 314 284 314q70 0 125 -19v-88q-53 17 -100 17q-95 0 -148 -50t-53 -174v-792l383 586h33z" />
    <glyph glyph-name="uni0E1E" unicode="&#xe1e;" horiz-adv-x="1562" 
d="M459 0h-119l-260 1217h110l226 -1051l329 1051h72l330 -1051l225 1051h111l-260 -1217h-119l-324 1024z" />
    <glyph glyph-name="uni0E1F" unicode="&#xe1f;" horiz-adv-x="1548" 
d="M453 0h-121l-248 1217h111l213 -1051l335 1051h76l342 -1051l256 1466h107l-293 -1632h-115l-334 1024z" />
    <glyph glyph-name="uni0E20" unicode="&#xe20;" horiz-adv-x="1288" 
d="M338 236q0 -134 -70.5 -190t-210.5 -58v90q93 3 131.5 38.5t38.5 119.5v213q0 124 32 185.5t108 84.5h-222v82q0 88 33 165.5t95.5 137.5t161.5 94.5t222 34.5q243 0 367.5 -127.5t124.5 -349.5v-756h-111v758q0 177 -96.5 280t-288.5 103q-185 0 -292 -92.5t-107 -225.5
v-22h260v-78q-95 -26 -135.5 -88t-40.5 -176v-223z" />
    <glyph glyph-name="uni0E21" unicode="&#xe21;" horiz-adv-x="1265" 
d="M1110 434q0 -103 -22 -183.5t-69 -142t-126 -94t-186 -32.5q-84 0 -154.5 20t-116.5 49t-81.5 68t-53 72t-27.5 65v-256h-106v1217h111v-719q0 -189 107.5 -304.5t295.5 -115.5q93 0 157.5 30.5t98 87t47.5 120.5t14 147v754h111v-783z" />
    <glyph glyph-name="uni0E22" unicode="&#xe22;" horiz-adv-x="1265" 
d="M1108 444q0 -243 -115.5 -353.5t-361.5 -110.5q-242 0 -368 97.5t-126 272.5q0 131 65.5 205.5t186.5 93.5q-120 18 -188 87.5t-68 193.5q0 142 94 221.5t271 79.5q80 0 164 -23v-88q-79 21 -150 21q-127 0 -197.5 -55.5t-70.5 -163.5q0 -107 74.5 -165.5t230.5 -58.5
h113v-92h-82q-178 0 -255 -62.5t-77 -183.5q0 -135 96.5 -211.5t288.5 -76.5q189 0 276.5 86t87.5 284v775h111v-773z" />
    <glyph glyph-name="uni0E23" unicode="&#xe23;" horiz-adv-x="1099" 
d="M1012 328q0 -166 -115 -257t-322 -91q-211 0 -332.5 92t-150.5 247h109q21 -113 118 -181t256 -68q158 0 244 69.5t86 188.5q0 49 -17 84.5t-40 58t-78.5 44t-98 33.5t-134.5 34q-57 14 -94.5 24.5t-84.5 27t-77.5 33t-62.5 41.5t-50 53.5t-29.5 67t-11.5 84.5
q0 106 57.5 180t149.5 107t209 33q184 0 304.5 -84t141.5 -246h-106q-20 112 -111 176t-231 64q-136 0 -222 -59.5t-86 -165.5q0 -33 10.5 -61t25.5 -48.5t43.5 -39t52 -30t65.5 -24.5t69 -20t76 -19q47 -11 75.5 -18.5t68.5 -19t64.5 -21t56.5 -23t51 -27.5t41 -32.5
t34.5 -39.5t24 -46t16.5 -55.5t5 -65.5z" />
    <glyph glyph-name="uni0E24" unicode="&#xe24;" horiz-adv-x="1277" 
d="M135 801q0 89 31 166t91.5 137t157.5 94.5t220 34.5q241 0 365 -127.5t124 -349.5v-1227h-110v1229q0 177 -96 280t-287 103q-183 0 -285 -92t-102 -226v-22h258v-76q-108 -29 -169 -99t-61 -202v-100q0 -136 57.5 -192t159.5 -56q65 0 115 18v-90q-58 -18 -133 -18
q-309 0 -309 338v90q0 142 50.5 210.5t141.5 94.5h-219v82z" />
    <glyph glyph-name="uni0E25" unicode="&#xe25;" horiz-adv-x="1261" 
d="M156 854q6 75 38.5 141t90 120.5t151 86t211.5 31.5q220 0 339.5 -110.5t119.5 -319.5v-803h-111v594h-338q-119 0 -203 -20t-130.5 -57.5t-67 -84t-20.5 -106.5q0 -116 78.5 -184t242.5 -68q98 0 203 24v-86q-100 -28 -217 -28q-212 0 -316 92t-104 250q0 358 532 358
h340v115q0 169 -89 255.5t-261 86.5q-90 0 -160.5 -23.5t-115 -64.5t-70.5 -90.5t-35 -108.5h-108z" />
    <glyph glyph-name="uni0E26" unicode="&#xe26;" horiz-adv-x="1288" 
d="M145 801q0 88 33 165.5t95.5 137.5t161.5 94.5t222 34.5q243 0 367.5 -127.5t124.5 -349.5v-1227h-111v1229q0 177 -96.5 280t-288.5 103q-185 0 -292 -92.5t-107 -225.5v-22h260v-78q-95 -26 -135.5 -88t-40.5 -176v-223q0 -134 -70.5 -190t-210.5 -58v90
q93 3 131.5 38.5t38.5 119.5v213q0 124 32 185.5t108 84.5h-222v82z" />
    <glyph glyph-name="uni0E27" unicode="&#xe27;" horiz-adv-x="1208" 
d="M1106 598q0 -301 -143 -461t-388 -160q-178 0 -297.5 83.5t-173.5 230.5h113q45 -111 139 -166t217 -55q90 0 164.5 30.5t132.5 93t90.5 165.5t32.5 239v16q0 109 -22 197.5t-60 149t-91 101t-113.5 59t-128.5 18.5q-140 0 -245 -78.5t-155 -233.5h-108q46 197 179 300.5
t326 103.5q243 0 387 -160t144 -457v-16z" />
    <glyph glyph-name="uni0E28" unicode="&#xe28;" horiz-adv-x="1286" 
d="M1114 1296h125l-209 -235q90 -111 90 -305v-756h-110v760q0 82 -19 147.5t-60.5 119.5t-116 84t-177.5 30q-102 0 -177 -30t-117.5 -83.5t-62.5 -120t-20 -147.5v-314q21 61 59 101.5t90 60.5t103.5 27.5t118.5 7.5h117v-92h-117q-65 0 -114 -6.5t-99.5 -28.5t-82.5 -59
t-52.5 -102t-20.5 -154v-201h-108v756q0 477 481 477q225 0 334 -103z" />
    <glyph glyph-name="uni0E29" unicode="&#xe29;" horiz-adv-x="1298" 
d="M1116 465q0 -228 -116.5 -356.5t-364.5 -128.5q-126 0 -219 34.5t-150 100t-84.5 152.5t-27.5 198v752h110v-752q0 -85 19.5 -153.5t62 -123.5t116 -85.5t173.5 -30.5t173.5 30.5t116 85.5t62 123.5t19.5 153.5v176h-349v92h349v484h110v-484h162v-92h-162v-176z" />
    <glyph glyph-name="uni0E2A" unicode="&#xe2a;" horiz-adv-x="1275" 
d="M760 12q-96 -28 -215 -28q-212 0 -317 92t-105 250q0 358 534 358h338v115q0 168 -89.5 255t-262.5 87q-89 0 -159.5 -23.5t-115 -64t-70.5 -91t-34 -108.5h-110q7 76 40 142.5t91.5 120.5t150.5 85t207 31q215 0 326 -111l151 174h125l-213 -239q72 -93 72 -254v-803
h-109v594h-338q-421 0 -421 -268q0 -116 79 -184t246 -68q101 0 199 26v-88z" />
    <glyph glyph-name="uni0E2B" unicode="&#xe2b;" horiz-adv-x="1185" 
d="M272 0h-104v1217h104v-664l637 664h135l-411 -424q43 16 96 16q155 0 252.5 -103.5t97.5 -277.5v-428h-110v420q0 151 -74 231t-203 80q-111 0 -178 -67l-242 -242v-422z" />
    <glyph glyph-name="uni0E2C" unicode="&#xe2c;" horiz-adv-x="1554" 
d="M455 0h-117l-258 1217h108l224 -1051l331 938h76l332 -938l164 776q32 149 -9.5 227t-170.5 78h-127v90h137q69 0 119.5 11.5t86.5 32.5t62 58.5t43 82t33 110.5h100q-38 -167 -101 -248.5t-181 -101.5q175 -68 116 -346l-198 -936h-119l-326 934z" />
    <glyph glyph-name="uni0E2D" unicode="&#xe2d;" horiz-adv-x="1335" 
d="M1235 594q0 -146 -43.5 -263t-120 -193.5t-180.5 -117t-227 -40.5q-247 0 -398 155.5t-151 429.5v72h520v-90h-410q1 -225 123 -351t314 -126q73 0 138.5 18t125 58.5t102.5 100.5t68.5 149.5t25.5 199.5v16q0 110 -26.5 200t-70.5 150t-103.5 101.5t-123.5 59.5t-132 18
q-95 0 -182.5 -33t-156 -103.5t-91.5 -166.5h-109q39 184 189.5 288.5t349.5 104.5q119 0 222 -40.5t180.5 -116.5t122 -195.5t44.5 -268.5v-16z" />
    <glyph glyph-name="uni0E2E" unicode="&#xe2e;" horiz-adv-x="1345" 
d="M1235 594q0 -146 -43.5 -263t-120 -193.5t-180.5 -117t-227 -40.5q-247 0 -398 155.5t-151 429.5v72h520v-90h-410q1 -225 123 -351t314 -126q73 0 138.5 18t125 58.5t102.5 100.5t68.5 149.5t25.5 199.5v16q0 110 -26.5 200t-70.5 150t-103.5 101.5t-123.5 59.5t-132 18
q-95 0 -182.5 -33t-156 -103.5t-91.5 -166.5h-109q39 184 189.5 288.5t349.5 104.5q108 0 202 -32.5t158 -92.5l170 190h125l-231 -256q145 -160 145 -430v-16z" />
    <glyph glyph-name="uni0E2F" unicode="&#xe2f;" horiz-adv-x="1159" 
d="M971 0h-111v721q-42 -92 -133.5 -150.5t-228.5 -58.5q-184 0 -294 104t-110 271q0 158 101 252t278 94q84 0 168 -33v-90q-71 31 -160 31q-132 0 -207 -69.5t-75 -186.5q0 -123 82 -203t231 -80q88 0 157.5 30.5t109.5 79.5t60.5 104.5t20.5 111.5v291h111v-1219z" />
    <glyph glyph-name="uni0E30" unicode="&#xe30;" horiz-adv-x="686" 
d="M614 803h-290q-122 0 -177 45.5t-55 152.5v58h107v-49q0 -64 30 -89.5t103 -25.5h282v-92zM614 121h-290q-122 0 -177 45t-55 153v56h107v-49q0 -64 30 -89.5t103 -25.5h282v-90z" />
    <glyph glyph-name="uni0E31" unicode="&#xe31;" 
d="M41 1403h-553q-118 0 -172.5 49.5t-54.5 157.5v45h104v-45q0 -61 29 -88t94 -27h553v-92z" />
    <glyph glyph-name="uni0E32" unicode="&#xe32;" horiz-adv-x="894" 
d="M723 0h-111v860q0 283 -288 283q-139 0 -287 -72v94q130 68 299 68q189 0 288 -92.5t99 -276.5v-864z" />
    <glyph glyph-name="uni0E33" unicode="&#xe33;" horiz-adv-x="931" 
d="M-53 1544q0 -79 -53.5 -128.5t-137.5 -49.5t-137 49.5t-53 128.5t53.5 129.5t136.5 50.5q84 0 137.5 -50.5t53.5 -129.5zM-354 1544q0 -50 30.5 -81t79.5 -31t80 31t31 81q0 51 -31.5 83t-79.5 32t-79 -32t-31 -83zM723 0h-111v860q0 283 -288 283q-139 0 -287 -72v94
q130 68 299 68q189 0 288 -92.5t99 -276.5v-864z" />
    <glyph glyph-name="uni0E34" unicode="&#xe34;" 
d="M-168 1403h-919v92h919v-92z" />
    <glyph glyph-name="uni0E35" unicode="&#xe35;" 
d="M-168 1403h-919v92h815v209h104v-301z" />
    <glyph glyph-name="uni0E36" unicode="&#xe36;" 
d="M-336 1403h-751v92h620q-22 31 -22 76q0 65 50 108t124 43q75 0 122.5 -43.5t47.5 -115.5q0 -74 -51.5 -117t-139.5 -43zM-412 1565q0 -42 27.5 -70.5t67.5 -28.5t66 28t26 71q0 42 -26 68t-66 26q-41 0 -68 -26t-27 -68z" />
    <glyph glyph-name="uni0E37" unicode="&#xe37;" 
d="M-168 1403h-919v92h569v209h98v-209h154v209h98v-301z" />
    <glyph glyph-name="uni0E38" unicode="&#xe38;" 
d="M-168 -580h-104v240q0 76 -84 76q-42 0 -86 -21v90q56 23 116 23q72 0 115 -37.5t43 -112.5v-258z" />
    <glyph glyph-name="uni0E39" unicode="&#xe39;" 
d="M-168 -381q0 -94 -59.5 -151.5t-182.5 -57.5q-125 0 -182 57t-57 152v66q0 57 -51 57q-32 0 -64 -12v75q44 21 94 21q65 0 92 -30t27 -89v-61q0 -73 31 -113.5t110 -40.5q78 0 110 40.5t32 113.5v178h100v-205z" />
    <glyph glyph-name="uni0E3A" unicode="&#xe3a;" 
d="M-156 -281q0 -37 -25.5 -61.5t-66.5 -24.5q-38 0 -63 24.5t-25 61.5q0 38 25 63t63 25q41 0 66.5 -24.5t25.5 -63.5z" />
    <glyph glyph-name="uni0E3F" unicode="&#xe3f;" horiz-adv-x="1234" 
d="M637 -276h-82v276h-367v1464h367v201h82v-201q192 -8 301 -98t109 -272v-9q0 -122 -62.5 -202.5t-185.5 -114.5q164 -31 242.5 -118.5t78.5 -237.5v-9q0 -197 -121 -300t-333 -103h-29v-276zM301 1374v-569h254v569h-254zM637 1374v-569q299 15 299 282v9q0 263 -299 278
zM301 715v-625h254v625h-254zM637 715v-625h27q171 0 258.5 80t87.5 233v9q0 297 -373 303z" />
    <glyph glyph-name="uni0E40" unicode="&#xe40;" horiz-adv-x="585" 
d="M526 0q-62 -16 -102 -16q-201 0 -201 211v1022h111v-1006q0 -70 28.5 -103.5t90.5 -33.5q33 0 73 12v-86z" />
    <glyph glyph-name="uni0E41" unicode="&#xe41;" horiz-adv-x="1171" 
d="M1112 0q-62 -16 -102 -16q-201 0 -201 211v1022h111v-1006q0 -70 28 -103.5t90 -33.5q34 0 74 12v-86zM526 0q-62 -16 -102 -16q-201 0 -201 211v1022h111v-1006q0 -70 28.5 -103.5t90.5 -33.5q33 0 73 12v-86z" />
    <glyph glyph-name="uni0E42" unicode="&#xe42;" horiz-adv-x="671" 
d="M606 0q-62 -16 -102 -16q-201 0 -201 211v1099q0 77 -6.5 135.5t-23 111t-44.5 88.5t-72 60.5t-104 34.5v86h660v-92h-484q97 -42 141 -147.5t44 -276.5v-1083q0 -70 28 -103.5t90 -33.5q34 0 74 12v-86z" />
    <glyph glyph-name="uni0E43" unicode="&#xe43;" horiz-adv-x="669" 
d="M606 0q-62 -16 -104 -16q-201 0 -201 211v786q0 79 18.5 149t38 107.5t56.5 97.5q49 79 70.5 127t21.5 101q0 84 -51.5 130t-135.5 46q-81 0 -132.5 -47t-63.5 -136h-105q11 138 97 205.5t211 67.5q128 0 208 -69t80 -193q0 -64 -21.5 -118.5t-64.5 -125.5
q-62 -102 -80 -146q-36 -89 -36 -202v-764q0 -70 28.5 -103.5t91.5 -33.5q34 0 74 12v-86z" />
    <glyph glyph-name="uni0E44" unicode="&#xe44;" horiz-adv-x="671" 
d="M608 0q-62 -16 -106 -16q-199 0 -199 211v811q0 62 9.5 112t33.5 99.5t45 83t64 94.5q48 69 70 115t22 92q0 54 -30.5 85t-84.5 37l-131 -151h-70q-13 71 -69.5 110t-132.5 39v105q87 0 153.5 -47.5t91.5 -124.5l144 172q112 -14 173.5 -69.5t61.5 -153.5
q0 -58 -22.5 -111t-73.5 -129q-41 -59 -61 -92t-42.5 -79t-31 -91t-8.5 -98v-793q0 -70 28 -103.5t90 -33.5q36 0 76 12v-86z" />
    <glyph glyph-name="uni0E45" unicode="&#xe45;" horiz-adv-x="931" 
d="M723 -471h-111v1331q0 283 -288 283q-139 0 -287 -72v94q130 68 299 68q189 0 288 -92.5t99 -276.5v-1335z" />
    <glyph glyph-name="uni0E46" unicode="&#xe46;" horiz-adv-x="1247" 
d="M1055 -352h-111v1243q0 109 -35.5 160.5t-124.5 76.5l-170 -139h-24l-162 139q-87 -24 -142 -95.5t-55 -190.5q0 -145 81.5 -228.5t211.5 -83.5q60 0 121 15v-88q-56 -17 -131 -17q-182 0 -286.5 108t-104.5 292q0 170 87 271t226 122l168 -146l176 146
q148 -37 211.5 -113.5t63.5 -220.5v-1251z" />
    <glyph glyph-name="uni0E47" unicode="&#xe47;" 
d="M-221 1595q0 -105 -50 -152.5t-128 -47.5q-79 0 -123.5 41.5t-57.5 93.5l-100 -127h-27q-116 0 -176.5 59t-60.5 158q0 103 62 164t171 61h512v-86h-510q-65 0 -102 -38.5t-37 -102.5t36 -101.5t105 -37.5l121 151h49q21 -155 123 -155q97 0 97 129v26h96v-35z" />
    <glyph glyph-name="uni0E48" unicode="&#xe48;" 
d="M-170 1403h-104v371h104v-371z" />
    <glyph glyph-name="uni0E49" unicode="&#xe49;" 
d="M-35 1403h-665v57q192 43 192 148q0 82 -100 82q-57 0 -107 -23v74q52 24 131 24q181 0 181 -135q0 -95 -86 -139h454v-88z" />
    <glyph glyph-name="uni0E4A" unicode="&#xe4a;" 
d="M-496 1399q-34 -6 -69 -6q-100 0 -158.5 48.5t-58.5 139.5q0 92 58.5 141.5t152.5 49.5l106 -80l105 80q95 -4 140.5 -50.5t45.5 -138.5v-92h203v-88h-305v174q0 54 -20.5 78.5t-59.5 27.5l-103 -75h-8l-104 75q-46 -2 -75.5 -28t-29.5 -76q0 -51 33.5 -80t91.5 -29
q20 0 55 7v-78z" />
    <glyph glyph-name="uni0E4B" unicode="&#xe4b;" 
d="M-170 1403h-104v149h-187v88h187v144h104v-144h184v-88h-184v-149z" />
    <glyph glyph-name="uni0E4C" unicode="&#xe4c;" 
d="M-289 1403h-104v53q0 109 53.5 154t175.5 45h230v-90h-220q-74 0 -104.5 -25.5t-30.5 -89.5v-47z" />
    <glyph glyph-name="uni0E4D" unicode="&#xe4d;" 
d="M-53 1544q0 -79 -53.5 -128.5t-137.5 -49.5t-137 49.5t-53 128.5t53.5 129.5t136.5 50.5q84 0 137.5 -50.5t53.5 -129.5zM-354 1544q0 -50 30.5 -81t79.5 -31t80 31t31 81q0 51 -31.5 83t-79.5 32t-79 -32t-31 -83z" />
    <glyph glyph-name="uni0E4E" unicode="&#xe4e;" 
d="M-373 1403h-90v35q0 182 180 182h25v16q0 148 174 148h78v-80h-55q-59 0 -85 -25.5t-26 -79.5v-51h-80q-65 0 -93 -27.5t-28 -88.5v-29z" />
    <glyph glyph-name="uni0E4F" unicode="&#xe4f;" horiz-adv-x="1316" 
d="M1188 532q0 -155 -70 -270.5t-189.5 -175t-271.5 -59.5q-232 0 -380 136t-148 369v13q0 232 148 369t380 137q152 0 272 -60t189.5 -176t69.5 -270v-13zM231 532q0 -189 119 -304t307 -115t308 115t120 304v13q0 187 -120 303.5t-308 116.5q-187 0 -306.5 -116
t-119.5 -304v-13zM944 539q0 -137 -79 -214t-208 -77q-127 0 -205.5 77t-78.5 214q0 135 78.5 212.5t205.5 77.5q129 0 208 -77.5t79 -212.5zM461 539q0 -100 53.5 -156.5t142.5 -56.5q91 0 145 56.5t54 156.5q0 99 -54.5 156t-144.5 57q-89 0 -142.5 -57t-53.5 -156z" />
    <glyph glyph-name="uni0E50" unicode="&#xe50;" horiz-adv-x="1327" 
d="M1188 528q0 -125 -41 -229.5t-112 -173.5t-166.5 -107t-204.5 -38q-110 0 -205.5 38t-166.5 107.5t-112 173.5t-41 229v13q0 125 41 229.5t112 174t166.5 107.5t205.5 38q109 0 204.5 -38t166.5 -107.5t112 -174t41 -229.5v-13zM252 528q0 -212 116.5 -335t295.5 -123
t295 123t116 335v13q0 211 -116.5 334.5t-294.5 123.5q-179 0 -295.5 -123.5t-116.5 -334.5v-13z" />
    <glyph glyph-name="uni0E51" unicode="&#xe51;" horiz-adv-x="1290" 
d="M1151 526q0 -148 -52.5 -267t-147.5 -197.5t-226 -121t-289 -44.5v94q285 12 443.5 146.5t158.5 389.5v15q0 121 -31 211t-87 143t-127.5 78.5t-157.5 25.5q-183 0 -288 -102t-105 -254v-10q0 -157 86 -249.5t247 -92.5q34 0 58 6v-88q-27 -8 -78 -8q-197 0 -309.5 114
t-112.5 316v12q0 199 138 323t364 124q111 0 203.5 -33t163 -98t110 -172t39.5 -246v-15z" />
    <glyph glyph-name="uni0E52" unicode="&#xe52;" horiz-adv-x="1503" 
d="M1341 455q0 -222 -139.5 -347.5t-437.5 -125.5q-296 0 -439 125.5t-143 347.5v886h111v-884q0 -178 114 -280.5t359 -102.5q244 0 354.5 102t110.5 281v315q0 103 -36 150t-118 65l-143 -125h-23l-141 125q-172 -24 -172 -227q0 -112 52.5 -175t152.5 -63q54 0 106 15
v-88q-56 -17 -123 -17q-148 0 -222.5 88.5t-74.5 241.5q0 149 72.5 234t212.5 89l150 -133l149 133q133 -20 200.5 -90.5t67.5 -210.5v-329z" />
    <glyph glyph-name="uni0E53" unicode="&#xe53;" horiz-adv-x="1413" 
d="M651 0q-58 -14 -125 -14q-187 0 -279.5 140t-92.5 406v23q0 255 84.5 391.5t246.5 136.5q185 0 238 -178q28 83 86.5 130.5t165.5 47.5q125 0 199.5 -78.5t74.5 -218.5v-786h-110v774q0 103 -47 158t-131 55q-88 0 -136.5 -56t-48.5 -163v-428h-106v428q0 106 -51 162.5
t-130 56.5q-225 0 -225 -430v-22q0 -233 68.5 -345t214.5 -112q53 0 104 10v-88z" />
    <glyph glyph-name="uni0E54" unicode="&#xe54;" horiz-adv-x="1269" 
d="M1184 0h-568q-233 0 -351 122.5t-118 395.5v6q0 279 140 413t393 134h154q95 0 137.5 40t42.5 118v112h110v-120q0 -120 -64.5 -180t-211.5 -60h-162q-199 0 -313.5 -110.5t-114.5 -346.5v-6q0 -121 25.5 -205.5t76 -132.5t117 -69t156.5 -21h248q-52 30 -80.5 92
t-28.5 137q0 126 75.5 197.5t194.5 71.5q46 0 95 -15v-90q-44 13 -78 13q-82 0 -129 -50.5t-47 -136.5q0 -36 10.5 -72.5t32.5 -70.5t61 -55t90 -21h107v-90z" />
    <glyph glyph-name="uni0E55" unicode="&#xe55;" horiz-adv-x="1269" 
d="M1184 0h-568q-233 0 -351 122.5t-118 395.5v6q0 228 89.5 354.5t271.5 163.5q-80 51 -80 142q0 79 53.5 129.5t136.5 50.5q84 0 137.5 -48.5t53.5 -127.5q0 -76 -59 -117h84q95 0 137.5 40t42.5 118v112h110v-120q0 -120 -64.5 -180t-211.5 -60h-162q-428 0 -428 -457v-6
q0 -121 25.5 -205.5t76 -132.5t117 -69t156.5 -21h248q-52 30 -80.5 93t-28.5 139q0 124 76 195t194 71q46 0 95 -15v-90q-44 13 -78 13q-82 0 -129 -51t-47 -134q0 -37 10.5 -74t32.5 -71t61 -55t90 -21h107v-90zM508 1184q0 -50 30.5 -82.5t79.5 -32.5t80 32.5t31 82.5
q0 49 -32 81.5t-79 32.5q-49 0 -79.5 -32t-30.5 -82z" />
    <glyph glyph-name="uni0E56" unicode="&#xe56;" horiz-adv-x="1333" 
d="M293 895q60 93 162 142.5t235 49.5q228 0 370 -148.5t142 -399.5v-13q0 -250 -144.5 -398t-381.5 -148q-212 0 -343.5 122.5t-131.5 307.5v45h321v-93h-215q2 -49 28.5 -100t72.5 -94t116.5 -70.5t151.5 -27.5q86 0 161 29t132 84.5t90 144t33 198.5v15q0 115 -32.5 204
t-90 143t-130 81.5t-157.5 27.5q-139 0 -244.5 -66.5t-150.5 -193.5h-74l-94 604h102z" />
    <glyph glyph-name="uni0E57" unicode="&#xe57;" horiz-adv-x="1816" 
d="M651 0q-58 -14 -125 -14q-187 0 -279.5 140t-92.5 406v23q0 256 83.5 392t239.5 136q92 0 151.5 -47.5t82.5 -130.5q58 178 245 178q122 0 195.5 -77t73.5 -220v-694q329 8 329 373v876h111v-866q0 -105 -26 -190t-78.5 -149.5t-140 -100t-203.5 -35.5h-103v774
q0 104 -46 156.5t-128 52.5q-83 0 -129.5 -53t-46.5 -162v-428h-107v428q0 108 -48.5 161.5t-127.5 53.5q-217 0 -217 -426v-22q0 -233 68.5 -345t214.5 -112q53 0 104 10v-88z" />
    <glyph glyph-name="uni0E58" unicode="&#xe58;" horiz-adv-x="1398" 
d="M1292 293q0 -156 -75 -230.5t-197 -74.5q-236 0 -295 274l-147 -270h-27q-188 0 -298 133t-110 391v8q0 277 136.5 412t375.5 135h263q194 0 194 168v102h111v-102q0 -130 -74 -194t-229 -64h-254q-90 0 -163 -25.5t-130 -78.5t-88 -143t-31 -212v-6q0 -90 15.5 -161.5
t41.5 -118.5t63 -79t77 -47t86 -18l157 287h86q39 -297 221 -297q78 0 130.5 53t52.5 154v143h-160v90h268v-229z" />
    <glyph glyph-name="uni0E59" unicode="&#xe59;" horiz-adv-x="1222" 
d="M674 2q-54 -16 -133 -16q-95 0 -165.5 31t-121.5 99t-76.5 180.5t-25.5 270.5q0 271 77.5 395.5t239.5 124.5q87 0 144.5 -35t95.5 -104q0 64 38.5 93t122.5 42q29 4 45 7.5t40 10t37.5 16t28 23.5t20.5 35t6 48v118h104v-112q0 -42 -7.5 -74.5t-25 -55t-35.5 -37.5
t-49 -25.5t-54 -16t-62 -12.5q-70 -13 -106 -37.5t-36 -81.5q0 -44 41 -146l293 -743h-121l-319 836q-61 161 -197 161q-112 0 -161.5 -102t-49.5 -326q0 -185 34 -294.5t98.5 -154t170.5 -44.5q57 0 109 12v-86z" />
    <glyph glyph-name="uni0E5A" unicode="&#xe5a;" horiz-adv-x="1548" 
d="M971 0h-111v721q-42 -92 -133.5 -150.5t-228.5 -58.5q-184 0 -294 104t-110 271q0 158 101 252t278 94q84 0 168 -33v-90q-71 31 -160 31q-132 0 -207 -69.5t-75 -186.5q0 -123 82 -203t231 -80q88 0 157.5 30.5t109.5 79.5t60.5 104.5t20.5 111.5v291h111v-582
q71 13 126.5 48t88 81t49 95t16.5 97v261h111v-1219h-111v756q-34 -73 -103 -130t-177 -77v-549z" />
    <glyph glyph-name="uni0E5B" unicode="&#xe5b;" horiz-adv-x="1642" 
d="M848 725q-15 -94 -43 -171t-74.5 -142t-119.5 -101.5t-167 -36.5q-147 0 -237 89.5t-90 240.5q0 80 27 143t74 101.5t107 58t130 19.5q65 0 112 -15v-86q-44 13 -90 13q-113 0 -182.5 -59.5t-69.5 -176.5q0 -106 62 -171.5t166 -65.5q65 0 117 28t87 71.5t62.5 109.5
t43 129t28.5 143h104l145 -383l140 383h86l86 -207q31 -76 61.5 -106.5t95.5 -30.5q21 0 56 6v-86q-36 -8 -68 -8q-85 0 -132 37.5t-83 128.5l-61 153l-136 -395h-88z" />
    <glyph glyph-name="uni1E80" unicode="&#x1e80;" horiz-adv-x="1884" 
d="M913 1579l-180 250h135l131 -250h-86zM455 0l-387 1464h114l336 -1290l387 1290h80l373 -1294l354 1294h105l-402 -1464h-110l-361 1262l-381 -1262h-108z" />
    <glyph glyph-name="uni1E81" unicode="&#x1e81;" horiz-adv-x="1589" 
d="M774 1239l-188 301h133l139 -301h-84zM393 0l-334 1071h117l287 -938l293 938h92l282 -938l289 938h111l-338 -1071h-125l-266 897l-285 -897h-123z" />
    <glyph glyph-name="uni1E82" unicode="&#x1e82;" horiz-adv-x="1884" 
d="M899 1579l131 250h135l-180 -250h-86zM455 0l-387 1464h114l336 -1290l387 1290h80l373 -1294l354 1294h105l-402 -1464h-110l-361 1262l-381 -1262h-108z" />
    <glyph glyph-name="uni1E83" unicode="&#x1e83;" horiz-adv-x="1589" 
d="M750 1239l139 301h133l-188 -301h-84zM393 0l-334 1071h117l287 -938l293 938h92l282 -938l289 938h111l-338 -1071h-125l-266 897l-285 -897h-123z" />
    <glyph glyph-name="uni1E84" unicode="&#x1e84;" horiz-adv-x="1884" 
d="M760 1614q-32 0 -54 22.5t-22 53.5q0 30 22 51.5t54 21.5q30 0 52 -21.5t22 -51.5q0 -31 -21.5 -53.5t-52.5 -22.5zM1128 1614q-30 0 -51.5 22.5t-21.5 53.5q0 30 21.5 51.5t51.5 21.5t52 -21.5t22 -51.5q0 -31 -21.5 -53.5t-52.5 -22.5zM455 0l-387 1464h114l336 -1290
l387 1290h80l373 -1294l354 1294h105l-402 -1464h-110l-361 1262l-381 -1262h-108z" />
    <glyph glyph-name="uni1E85" unicode="&#x1e85;" horiz-adv-x="1589" 
d="M631 1303q-32 0 -54 22t-22 53t22 52.5t54 21.5q31 0 52.5 -21.5t21.5 -52.5t-21.5 -53t-52.5 -22zM971 1303q-31 0 -52.5 22t-21.5 53t21.5 52.5t52.5 21.5q32 0 54 -21.5t22 -52.5t-22 -53t-54 -22zM393 0l-334 1071h117l287 -938l293 938h92l282 -938l289 938h111
l-338 -1071h-125l-266 897l-285 -897h-123z" />
    <glyph glyph-name="uni1EF2" unicode="&#x1ef2;" horiz-adv-x="1183" 
d="M578 1579l-181 250h135l132 -250h-86zM549 0v651l-502 813h127l434 -716l414 716h115l-473 -815v-649h-115z" />
    <glyph glyph-name="uni1EF3" unicode="&#x1ef3;" horiz-adv-x="1040" 
d="M496 1239l-189 301h133l140 -301h-84zM281 -373l194 465l-424 979h117l367 -854l342 854h110l-594 -1444h-112z" />
    <glyph glyph-name="uni2009" unicode="&#x2009;" horiz-adv-x="225" 
 />
    <glyph glyph-name="uni2013" unicode="&#x2013;" horiz-adv-x="1030" 
d="M94 522v92h842v-92h-842z" />
    <glyph glyph-name="uni2014" unicode="&#x2014;" horiz-adv-x="1779" 
d="M94 522v92h1592v-92h-1592z" />
    <glyph glyph-name="uni2018" unicode="&#x2018;" horiz-adv-x="438" 
d="M190 1081l-104 47l188 351l70 -33z" />
    <glyph glyph-name="uni2019" unicode="&#x2019;" horiz-adv-x="438" 
d="M164 1081l-70 35l154 363l104 -45z" />
    <glyph glyph-name="uni201A" unicode="&#x201a;" horiz-adv-x="438" 
d="M164 -178l-70 35l154 362l104 -45z" />
    <glyph glyph-name="uni201C" unicode="&#x201c;" horiz-adv-x="724" 
d="M190 1081l-104 47l188 351l70 -33zM477 1081l-104 47l188 351l70 -33z" />
    <glyph glyph-name="uni201D" unicode="&#x201d;" horiz-adv-x="724" 
d="M164 1081l-70 35l154 363l104 -45zM451 1081l-72 35l156 363l104 -45z" />
    <glyph glyph-name="uni201E" unicode="&#x201e;" horiz-adv-x="724" 
d="M164 -178l-70 35l154 362l104 -45zM451 -178l-72 35l156 362l104 -45z" />
    <glyph glyph-name="uni2020" unicode="&#x2020;" horiz-adv-x="714" 
d="M307 453v645h-241v90h241v276h101v-276h241v-90h-241v-645h-101z" />
    <glyph glyph-name="uni2021" unicode="&#x2021;" horiz-adv-x="714" 
d="M307 819v279h-241v90h241v276h101v-276h241v-90h-241v-279h241v-90h-241v-276h-101v276h-241v90h241z" />
    <glyph glyph-name="uni2022" unicode="&#x2022;" horiz-adv-x="647" 
d="M324 408q-92 0 -155 63.5t-63 153.5q0 91 63 154t155 63q93 0 155 -63t62 -154q0 -90 -62 -153.5t-155 -63.5z" />
    <glyph glyph-name="uni2026" unicode="&#x2026;" horiz-adv-x="1427" 
d="M233 -10q-35 0 -60.5 25.5t-25.5 60.5q0 37 25.5 62.5t60.5 25.5q37 0 63 -25.5t26 -62.5q0 -35 -26 -60.5t-63 -25.5zM713 -10q-35 0 -60.5 25.5t-25.5 60.5q0 37 25.5 62.5t60.5 25.5q37 0 62.5 -25.5t25.5 -62.5q0 -35 -25.5 -60.5t-62.5 -25.5zM1192 -10
q-35 0 -60.5 25.5t-25.5 60.5q0 37 25.5 62.5t60.5 25.5q37 0 62.5 -25.5t25.5 -62.5q0 -35 -25.5 -60.5t-62.5 -25.5z" />
    <glyph glyph-name="uni2030" unicode="&#x2030;" horiz-adv-x="2271" 
d="M397 827q-126 0 -220.5 91t-94.5 229q0 142 93.5 235t221.5 93q131 0 223.5 -92t92.5 -232q0 -142 -93.5 -233t-222.5 -91zM256 0l932 1464h102l-932 -1464h-102zM397 913q93 0 154 64t61 174q0 107 -60.5 172.5t-154.5 65.5q-92 0 -153.5 -64.5t-61.5 -175.5
q0 -109 61.5 -172.5t153.5 -63.5zM1141 -14q-127 0 -221.5 90.5t-94.5 228.5q0 143 93 235.5t223 92.5t222.5 -92t92.5 -232q0 -142 -93.5 -232.5t-221.5 -90.5zM1874 -14q-126 0 -219.5 90.5t-93.5 228.5q0 143 92.5 235.5t220.5 92.5q131 0 223 -92t92 -232
q0 -142 -93 -232.5t-222 -90.5zM1141 72q94 0 154.5 63.5t60.5 173.5q0 107 -60.5 172.5t-154.5 65.5t-154.5 -64.5t-60.5 -175.5q0 -109 61 -172t154 -63zM1874 72q94 0 154.5 63.5t60.5 173.5q0 107 -60.5 172.5t-154.5 65.5q-92 0 -153.5 -64.5t-61.5 -175.5
q0 -109 61 -172t154 -63z" />
    <glyph glyph-name="uni2032" unicode="&#x2032;" horiz-adv-x="356" 
d="M88 1036l62 428h118l-98 -428h-82z" />
    <glyph glyph-name="uni2033" unicode="&#x2033;" horiz-adv-x="624" 
d="M88 1036l62 428h118l-98 -428h-82zM356 1036l62 428h117l-97 -428h-82z" />
    <glyph glyph-name="uni2039" unicode="&#x2039;" horiz-adv-x="593" 
d="M387 170l-276 365l276 364h111l-271 -364l271 -365h-111z" />
    <glyph glyph-name="uni203A" unicode="&#x203a;" horiz-adv-x="593" 
d="M96 170l271 365l-271 364h111l276 -364l-276 -365h-111z" />
    <glyph glyph-name="uni2044" unicode="&#x2044;" horiz-adv-x="231" 
d="M-459 0l1057 1464h92l-1057 -1464h-92z" />
    <glyph glyph-name="uni20AC" unicode="&#x20ac;" horiz-adv-x="1345" 
d="M66 831v78h141q12 167 76 294.5t182.5 202.5t277.5 75q208 0 333.5 -112.5t150.5 -311.5h-109q-24 159 -119 245.5t-256 86.5q-189 0 -299.5 -129t-124.5 -351h517l-15 -78h-504v-200h465l-14 -78h-449q14 -223 123 -348t303 -125q168 0 268.5 93.5t125.5 266.5h106
q-26 -215 -157 -335.5t-343 -120.5q-238 0 -379 155.5t-159 413.5h-141v78h139v200h-139z" />
    <glyph glyph-name="uni2122" unicode="&#x2122;" horiz-adv-x="1382" 
d="M664 819v645h110l207 -508l205 508h110v-645h-77v547l-228 -547h-28l-228 547v-547h-71zM262 819v582h-201v63h480v-63h-199v-582h-80z" />
    <glyph glyph-name="uni2153" unicode="&#x2153;" horiz-adv-x="1439" 
d="M236 762v606l-181 -125v84l197 137h76v-702h-92zM70 0l1056 1464h93l-1057 -1464h-92zM1114 -8q-119 0 -189 60t-75 155h84q8 -65 53 -105.5t125 -40.5q76 0 118 36.5t42 101.5q0 62 -39.5 97.5t-110.5 35.5h-55v67h51q67 0 101 33t34 88t-36.5 88t-100.5 33
q-68 0 -109 -37t-49 -98h-81q6 90 70 147.5t171 57.5q101 0 162 -52.5t61 -132.5q0 -117 -120 -155q64 -14 103.5 -59t39.5 -113q0 -96 -67.5 -151.5t-182.5 -55.5z" />
    <glyph glyph-name="uni2154" unicode="&#x2154;" horiz-adv-x="1521" 
d="M37 762v18l266 269q67 69 97 118.5t30 102.5q0 61 -36.5 96t-98.5 35q-67 0 -106 -41.5t-48 -118.5h-84q6 108 70.5 170t169.5 62q103 0 163 -55.5t60 -145.5q0 -69 -34.5 -127t-112.5 -133l-185 -178h340v-72h-491zM188 0l1057 1464h92l-1056 -1464h-93zM1196 -8
q-119 0 -189 60t-75 155h84q8 -65 53 -105.5t125 -40.5q76 0 118 36.5t42 101.5q0 62 -39.5 97.5t-110.5 35.5h-55v67h51q67 0 101 33t34 88t-36.5 88t-100.5 33q-68 0 -109 -37t-49 -98h-82q6 89 70.5 147t171.5 58q101 0 162 -52.5t61 -132.5q0 -117 -120 -155
q64 -14 103.5 -59t39.5 -113q0 -96 -67.5 -151.5t-182.5 -55.5z" />
    <glyph glyph-name="uni215B" unicode="&#x215b;" horiz-adv-x="1425" 
d="M229 762v606l-180 -125v84l197 137h76v-702h-93zM76 0l1057 1464h92l-1057 -1464h-92zM1096 -8q-111 0 -184.5 53t-73.5 150q0 69 41.5 115.5t109.5 64.5q-56 20 -89.5 59t-33.5 94q0 82 67.5 132.5t162.5 50.5t162 -50t67 -131q0 -56 -33 -95.5t-88 -57.5
q150 -46 150 -178q0 -99 -72 -153t-186 -54zM1098 406q61 0 100 31.5t39 88.5q0 52 -39.5 84.5t-101.5 32.5t-102 -32.5t-40 -86.5t43 -86t101 -32zM1096 61q75 0 120.5 37t45.5 105q0 65 -46 102t-118 37t-120 -38t-48 -103q0 -67 47 -103.5t119 -36.5z" />
    <glyph glyph-name="uni215C" unicode="&#x215c;" horiz-adv-x="1497" 
d="M319 754q-119 0 -189 59.5t-75 155.5h84q8 -65 53 -105.5t125 -40.5q76 0 118 36.5t42 101.5q0 61 -39 97t-110 36h-56v67h52q67 0 101 32.5t34 88.5q0 55 -36.5 88t-100.5 33q-68 0 -109 -37t-49 -98h-82q6 89 70.5 147t171.5 58q101 0 162 -53t61 -134q0 -58 -32.5 -98
t-88.5 -55q64 -14 103.5 -59.5t39.5 -115.5q0 -96 -67.5 -150t-182.5 -54zM170 0l1057 1464h92l-1057 -1464h-92zM1167 -8q-111 0 -184.5 53t-73.5 150q0 69 42 115.5t110 64.5q-56 20 -89.5 59t-33.5 94q0 82 67.5 132.5t161.5 50.5q96 0 163 -50t67 -131q0 -56 -33 -95.5
t-88 -57.5q149 -46 149 -178q0 -99 -72 -153t-186 -54zM1169 406q61 0 100.5 31.5t39.5 88.5q0 52 -40 84.5t-102 32.5q-61 0 -101 -32.5t-40 -86.5t42.5 -86t100.5 -32zM1167 61q75 0 120.5 37t45.5 105q0 65 -46 102t-118 37t-120 -38t-48 -103q0 -67 47 -103.5t119 -36.5
z" />
    <glyph glyph-name="uni215D" unicode="&#x215d;" horiz-adv-x="1474" 
d="M297 754q-111 0 -173.5 55t-70.5 143h88q18 -127 156 -127q71 0 112.5 45t41.5 121q0 74 -41.5 119t-108.5 45q-108 0 -164 -70h-47l4 379h410v-71h-336l-2 -230q62 62 162 62q95 0 156 -64t61 -170q0 -109 -69 -173t-179 -64zM147 0l1057 1464h92l-1056 -1464h-93z
M1145 -8q-111 0 -184.5 53t-73.5 150q0 69 41.5 115.5t109.5 64.5q-56 20 -89.5 59t-33.5 94q0 82 67.5 132.5t162.5 50.5t162 -50t67 -131q0 -56 -33 -95.5t-88 -57.5q150 -46 150 -178q0 -99 -72 -153t-186 -54zM1147 406q61 0 100 31.5t39 88.5q0 52 -39.5 84.5
t-101.5 32.5q-61 0 -101 -32.5t-40 -86.5t42.5 -86t100.5 -32zM1145 61q75 0 120.5 37t45.5 105q0 65 -46 102t-118 37t-120 -38t-48 -103q0 -67 47 -103.5t119 -36.5z" />
    <glyph glyph-name="uni215E" unicode="&#x215e;" horiz-adv-x="1419" 
d="M160 762l254 627h-369v75h485v-12l-276 -690h-94zM57 0l1057 1464h92l-1056 -1464h-93zM1090 -8q-112 0 -185.5 53t-73.5 150q0 69 42 115.5t110 64.5q-56 20 -89.5 59t-33.5 94q0 82 67.5 132.5t162.5 50.5t162 -50t67 -131q0 -56 -33 -95.5t-88 -57.5q150 -46 150 -178
q0 -99 -72 -153t-186 -54zM1092 406q61 0 100 31.5t39 88.5q0 52 -39.5 84.5t-101.5 32.5t-102 -32.5t-40 -86.5t43 -86t101 -32zM1090 61q74 0 119.5 37t45.5 105q0 65 -45.5 102t-117.5 37t-120 -38t-48 -103q0 -67 47 -103.5t119 -36.5z" />
    <glyph glyph-name="uni2212" unicode="&#x2212;" horiz-adv-x="1044" 
d="M74 653v95h897v-95h-897z" />
    <glyph glyph-name="uni2248" unicode="&#x2248;" horiz-adv-x="1013" 
d="M82 711q11 97 67 153t144 56q67 0 147 -28t155 -55.5t128 -27.5q51 0 84 32t39 83h86q-10 -98 -66 -153.5t-143 -55.5q-68 0 -148.5 27t-155.5 54t-128 27q-51 0 -83 -30.5t-40 -81.5h-86zM82 369q11 97 67 153t144 56q67 0 147 -27t155 -54.5t128 -27.5q51 0 84 31
t39 82h86q-10 -98 -66 -153.5t-143 -55.5q-68 0 -148.5 27t-155.5 54t-128 27q-51 0 -83 -30.5t-40 -81.5h-86z" />
    <glyph glyph-name="uni2260" unicode="&#x2260;" horiz-adv-x="991" 
d="M82 778v94h461l102 240h100l-104 -240h268v-94h-307l-106 -248h413v-94h-454l-103 -239h-100l102 239h-272v94h313l107 248h-420z" />
    <glyph glyph-name="uni2264" unicode="&#x2264;" horiz-adv-x="1015" 
d="M891 240l-787 419v27l787 420v-107l-623 -327l623 -326v-106zM104 0v92h787v-92h-787z" />
    <glyph glyph-name="uni2265" unicode="&#x2265;" horiz-adv-x="1015" 
d="M125 240v106l625 326l-625 327v107l786 -420v-27zM125 0v92h786v-92h-786z" />
    <glyph glyph-name="uni24C5" unicode="&#x24c5;" horiz-adv-x="1728" 
d="M862 -18q-205 0 -377 98t-272 270.5t-100 380.5q0 154 59 293.5t159 240t240 159.5t295 59q157 0 296.5 -59t238.5 -159t157 -238t58 -292q0 -157 -59 -297t-159.5 -240t-240 -158t-295.5 -58zM862 47q137 0 261.5 52t216 142t146 219t54.5 275q0 145 -53 272t-143 216.5
t-214.5 141.5t-263.5 52t-264 -52t-216 -142.5t-144.5 -218.5t-53.5 -273q0 -146 54.5 -274.5t146.5 -217.5t215 -140.5t258 -51.5zM635 319v832h244q142 0 220.5 -60t78.5 -184v-6q0 -124 -79 -184t-216 -60h-142v-338h-106zM741 737h138q194 0 194 164v6q0 85 -49.5 122.5
t-144.5 37.5h-138v-330z" />
    <glyph glyph-name="uniFB01" unicode="&#xfb01;" horiz-adv-x="1122" 
d="M215 0v979h-162v92h162v193q0 163 79.5 244t215.5 81q72 0 113 -16v-92q-46 16 -111 16q-89 0 -138.5 -54.5t-49.5 -168.5v-203h299v-92h-299v-979h-109zM893 1300q-32 0 -55 23t-23 55q0 31 23 53.5t55 22.5t54 -22.5t22 -53.5q0 -32 -22 -55t-54 -23zM840 0v1071h108
v-1071h-108z" />
    <glyph glyph-name="uniFB02" unicode="&#xfb02;" horiz-adv-x="1122" 
d="M215 0v979h-162v92h162v193q0 163 79.5 244t215.5 81q72 0 113 -16v-92q-46 16 -111 16q-89 0 -138.5 -54.5t-49.5 -168.5v-203h299v-92h-299v-979h-109zM840 0v1583h110v-1583h-110z" />
    <glyph glyph-name="space_uni0326" horiz-adv-x="819" 
d="M356 -418l-69 33l119 301l104 -31z" />
    <glyph glyph-name="idotaccent" horiz-adv-x="452" 
d="M225 1300q-32 0 -55 23t-23 55q0 31 23 53.5t55 22.5t54 -22.5t22 -53.5q0 -32 -22 -55t-54 -23zM172 0v1071h109v-1071h-109z" />
    <glyph glyph-name="uni0E0D.less" horiz-adv-x="1998" 
d="M1843 457q0 -224 -111 -350.5t-337 -126.5t-337.5 126.5t-111.5 350.5v315q0 175 -83.5 272.5t-254.5 96.5q-168 0 -261 -89t-93 -229v-22h258v-76q-108 -29 -168.5 -99t-60.5 -202v-98q0 -137 57.5 -193.5t159.5 -56.5q64 0 114 18v-90q-58 -18 -133 -18
q-309 0 -309 338v90q0 74 14.5 129t42.5 89.5t60.5 54t75.5 32.5h-220v90q0 89 29 165t84.5 134.5t145.5 91.5t204 33q222 0 335.5 -121.5t113.5 -339.5v-315q0 -83 18.5 -150.5t57.5 -121.5t106 -83.5t156 -29.5t156 29.5t106 83.5t57.5 121.5t18.5 150.5v760h110v-760z
" />
    <glyph glyph-name="uni0E10.less" horiz-adv-x="1218" 
d="M1094 1296h125l-228 -254q117 -139 117 -409v-17q0 -292 -137 -462t-359 -170q-97 0 -186 28l-129 520h-176v91h258l135 -535q44 -12 94 -12q173 0 280 148.5t107 393.5v15q0 136 -31 236t-88.5 158.5t-130.5 86t-165 27.5q-162 0 -274 -81t-136 -222h-104
q28 192 170 293.5t346 101.5q220 0 346 -123z" />
    <glyph glyph-name="uni0E31.narrow" 
d="M-432 1403h-346q-118 0 -173 49.5t-55 157.5v45h105v-45q0 -61 29 -88t94 -27h346v-92z" />
    <glyph glyph-name="uni0E34.narrow" 
d="M-430 1403h-805v92h805v-92z" />
    <glyph glyph-name="uni0E35.narrow" 
d="M-432 1403h-803v92h698v209h105v-301z" />
    <glyph glyph-name="uni0E36.narrow" 
d="M-764 1569q0 68 49.5 110.5t126.5 42.5t125.5 -43t48.5 -116q0 -74 -52 -117t-142 -43h-627v92h494q-23 33 -23 74zM-686 1565q0 -44 26.5 -71.5t69.5 -27.5t69.5 27.5t26.5 71.5t-26.5 69t-69.5 25t-69.5 -25t-26.5 -69z" />
    <glyph glyph-name="uni0E37.narrow" 
d="M-432 1403h-803v92h463v209h98v-209h142v209h100v-301z" />
    <glyph glyph-name="uni0E47.narrow" 
d="M-403 1595q0 -105 -50 -152.5t-129 -47.5t-123 41.5t-57 93.5l-100 -127h-27q-109 0 -168 59.5t-59 157.5q0 103 62 164t171 61h502v-86h-500q-65 0 -102 -38.5t-37 -102.5q0 -63 34.5 -101t96.5 -38l121 151h49q21 -155 123 -155q96 0 96 129v26h97v-35z" />
    <glyph glyph-name="uni0E48.narrow" 
d="M-545 1403h-106v371h106v-371z" />
    <glyph glyph-name="uni0E49.narrow" 
d="M-424 1403h-483v57q192 43 192 148q0 82 -100 82q-57 0 -107 -23v74q55 24 131 24q181 0 181 -135q0 -97 -86 -139h272v-88z" />
    <glyph glyph-name="uni0E4A.narrow" 
d="M-803 1399q-35 -6 -67 -6q-93 0 -147 48t-54 140t53 141.5t141 49.5l103 -80l98 80q180 -9 180 -189v-92h146v-88h-246v174q0 54 -20 78.5t-58 27.5l-96 -75h-6l-101 75q-37 -2 -64.5 -28.5t-27.5 -75.5q0 -50 31.5 -79.5t81.5 -29.5q18 0 53 7v-78z" />
    <glyph glyph-name="uni0E4B.narrow" 
d="M-608 1403h-105v149h-186v88h186v144h105v-144h186v-88h-186v-149z" />
    <glyph glyph-name="uni0E4C.narrow" 
d="M-780 1403h-105v53q0 109 54 154t176 45h229v-90h-219q-74 0 -104.5 -25.5t-30.5 -89.5v-47z" />
    <glyph glyph-name="uni0E4D.narrow" 
d="M-467 1544q0 -79 -53 -128.5t-137 -49.5t-137.5 49.5t-53.5 128.5t53.5 129.5t137.5 50.5q83 0 136.5 -50.5t53.5 -129.5zM-768 1544q0 -50 31 -81t80 -31t79.5 31t30.5 81q0 51 -31 83t-79 32t-79.5 -32t-31.5 -83z" />
    <glyph glyph-name="uni0E38.small" 
d="M-168 -858h-104v240q0 75 -84 75q-44 0 -86 -20v90q53 22 116 22q73 0 115.5 -37t42.5 -112v-258z" />
    <glyph glyph-name="uni0E39.small" 
d="M-168 -653q0 -94 -59.5 -151.5t-182.5 -57.5q-125 0 -182 57t-57 152v65q0 58 -51 58q-29 0 -64 -13v76q44 21 94 21q65 0 92 -30t27 -89v-62q0 -73 31 -113t110 -40q78 0 110 40.5t32 112.5v178h100v-204z" />
    <glyph glyph-name="uni0E3A.small" 
d="M-156 -557q0 -37 -25.5 -61.5t-66.5 -24.5q-38 0 -63 24.5t-25 61.5q0 38 25 63t63 25q41 0 66.5 -24.5t25.5 -63.5z" />
    <glyph glyph-name="uni0E48.small" 
d="M-168 1843h-104v320h104v-320z" />
    <glyph glyph-name="uni0E49.small" 
d="M70 1843h-521v58q168 29 168 116q0 35 -24.5 51.5t-59.5 16.5q-51 0 -94 -21v72q54 23 121 23q72 0 113 -30.5t41 -88.5q0 -79 -62 -109h318v-88z" />
    <glyph glyph-name="uni0E4A.small" 
d="M-268 1837q-30 -6 -62 -6q-80 0 -129 42.5t-49 119.5q0 79 50 120t124 41l78 -53l70 53q78 0 120.5 -37.5t42.5 -111.5v-80h164v-82h-254v142q0 48 -18 67t-57 21l-64 -50h-6l-72 50q-36 -2 -60 -22t-24 -58q0 -39 27 -62.5t70 -23.5q33 0 49 4v-74z" />
    <glyph glyph-name="uni0E4B.small" 
d="M-168 1839h-104v123h-158v82h158v123h104v-123h160v-82h-160v-123z" />
    <glyph glyph-name="uni0E4C.small" 
d="M-285 1843h-106v49q0 109 56 158t175 49h213v-92h-213q-66 0 -95.5 -27t-29.5 -88v-49z" />
    <glyph glyph-name="uni0E48.1" 
d="M-193 1843h-104v320h104v-320zM-53 1544q0 -79 -53.5 -128.5t-137.5 -49.5t-137 49.5t-53 128.5t53.5 129.5t136.5 50.5q84 0 137.5 -50.5t53.5 -129.5zM-354 1544q0 -50 30.5 -81t79.5 -31t80 31t31 81q0 51 -31.5 83t-79.5 32t-79 -32t-31 -83z" />
    <glyph glyph-name="uni0E49.1" 
d="M45 1843h-520v58q168 29 168 116q0 35 -24.5 51.5t-59.5 16.5q-51 0 -94 -21v72q54 23 120 23q72 0 113 -30.5t41 -88.5q0 -79 -61 -109h317v-88zM-53 1544q0 -79 -53.5 -128.5t-137.5 -49.5t-137 49.5t-53 128.5t53.5 129.5t136.5 50.5q84 0 137.5 -50.5t53.5 -129.5z
M-354 1544q0 -50 30.5 -81t79.5 -31t80 31t31 81q0 51 -31.5 83t-79.5 32t-79 -32t-31 -83z" />
    <glyph glyph-name="uni0E4A.1" 
d="M-293 1837q-30 -6 -61 -6q-80 0 -129 42.5t-49 119.5q0 79 50 120t124 41l77 -53l70 53q78 0 121 -37.5t43 -111.5v-80h164v-82h-254v142q0 47 -18.5 66.5t-57.5 21.5l-63 -50h-7l-71 50q-36 -2 -60 -22t-24 -58q0 -39 26.5 -62.5t69.5 -23.5q33 0 49 4v-74zM-53 1544
q0 -79 -53.5 -128.5t-137.5 -49.5t-137 49.5t-53 128.5t53.5 129.5t136.5 50.5q84 0 137.5 -50.5t53.5 -129.5zM-354 1544q0 -50 30.5 -81t79.5 -31t80 31t31 81q0 51 -31.5 83t-79.5 32t-79 -32t-31 -83z" />
    <glyph glyph-name="uni0E4B.1" 
d="M-193 1839h-104v123h-158v82h158v123h104v-123h160v-82h-160v-123zM-53 1544q0 -79 -53.5 -128.5t-137.5 -49.5t-137 49.5t-53 128.5t53.5 129.5t136.5 50.5q84 0 137.5 -50.5t53.5 -129.5zM-354 1544q0 -50 30.5 -81t79.5 -31t80 31t31 81q0 51 -31.5 83t-79.5 32
t-79 -32t-31 -83z" />
    <glyph glyph-name="uni0E48.narrow.1" 
d="M-600 1843h-105v320h105v-320zM-467 1544q0 -79 -53 -128.5t-137 -49.5t-137.5 49.5t-53.5 128.5t53.5 129.5t137.5 50.5q83 0 136.5 -50.5t53.5 -129.5zM-768 1544q0 -50 31 -81t80 -31t79.5 31t30.5 81q0 51 -31 83t-79 32t-79.5 -32t-31.5 -83z" />
    <glyph glyph-name="uni0E49.narrow.1" 
d="M-362 1843h-521v58q168 29 168 116q0 35 -24.5 51.5t-59.5 16.5q-51 0 -94 -21v72q54 23 121 23q72 0 113 -30.5t41 -88.5q0 -79 -62 -109h318v-88zM-467 1544q0 -79 -53 -128.5t-137 -49.5t-137.5 49.5t-53.5 128.5t53.5 129.5t137.5 50.5q83 0 136.5 -50.5t53.5 -129.5
zM-768 1544q0 -50 31 -81t80 -31t79.5 31t30.5 81q0 51 -31 83t-79 32t-79.5 -32t-31.5 -83z" />
    <glyph glyph-name="uni0E4A.narrow.1" 
d="M-700 1837q-30 -6 -62 -6q-80 0 -129 42.5t-49 119.5q0 79 50 120t124 41l78 -53l70 53q78 0 120.5 -37.5t42.5 -111.5v-80h164v-82h-254v142q0 47 -18.5 66.5t-57.5 21.5l-63 -50h-6l-72 50q-36 -2 -60 -22t-24 -58q0 -39 26.5 -62.5t69.5 -23.5q34 0 50 4v-74z
M-467 1544q0 -79 -53 -128.5t-137 -49.5t-137.5 49.5t-53.5 128.5t53.5 129.5t137.5 50.5q83 0 136.5 -50.5t53.5 -129.5zM-768 1544q0 -50 31 -81t80 -31t79.5 31t30.5 81q0 51 -31 83t-79 32t-79.5 -32t-31.5 -83z" />
    <glyph glyph-name="uni0E4B.narrow.1" 
d="M-600 1839h-105v123h-157v82h157v123h105v-123h160v-82h-160v-123zM-467 1544q0 -79 -53 -128.5t-137 -49.5t-137.5 49.5t-53.5 128.5t53.5 129.5t137.5 50.5q83 0 136.5 -50.5t53.5 -129.5zM-768 1544q0 -50 31 -81t80 -31t79.5 31t30.5 81q0 51 -31 83t-79 32
t-79.5 -32t-31.5 -83z" />
    <glyph glyph-name="uni002D.uc" horiz-adv-x="733" 
d="M127 631v102h481v-102h-481z" />
    <glyph glyph-name="uni2013.uc" horiz-adv-x="1030" 
d="M94 633v94h842v-94h-842z" />
    <glyph glyph-name="uni2014.uc" horiz-adv-x="1779" 
d="M94 633v94h1592v-94h-1592z" />
    <glyph glyph-name="uni0028.uc" horiz-adv-x="608" 
d="M446 -201q-146 175 -237.5 406t-91.5 495t91.5 496.5t237.5 407.5h109q-324 -411 -324 -904q0 -490 324 -901h-109z" />
    <glyph glyph-name="uni0029.uc" horiz-adv-x="608" 
d="M53 -201q324 415 324 903q0 487 -324 902h109q146 -174 236.5 -405.5t90.5 -496.5q0 -266 -90.5 -497t-236.5 -406h-109z" />
    <glyph glyph-name="uni005B.uc" horiz-adv-x="696" 
d="M190 -172v1765h422v-88h-313v-1589h313v-88h-422z" />
    <glyph glyph-name="uni005D.uc" horiz-adv-x="696" 
d="M86 -172v88h311v1589h-311v88h420v-1765h-420z" />
    <glyph glyph-name="uni007B.uc" horiz-adv-x="745" 
d="M659 -178q-219 0 -312 88.5t-58 298.5l33 199q12 54 3 101.5t-33.5 82.5t-77 55t-128.5 21v82q76 1 128.5 21.5t77 55.5t33.5 82t-3 101l-33 198q-35 210 58 298.5t312 88.5v-84q-55 -1 -96 -6.5t-76 -19t-55.5 -36t-35 -56t-14 -79t8.5 -106.5l35 -211
q37 -233 -193 -288q230 -55 193 -289l-35 -211q-8 -61 -8.5 -106.5t14 -79t35 -56t55.5 -36t76 -19t96 -6.5v-84z" />
    <glyph glyph-name="uni007D.uc" horiz-adv-x="745" 
d="M86 -178v84q55 1 95.5 6.5t75.5 19t55.5 36t35 56t13.5 79t-9 106.5l-33 211q-40 233 193 289q-233 56 -193 288l33 211q8 61 9 106.5t-13.5 79t-35 56t-55.5 36t-75.5 19t-95.5 6.5v84q219 0 312 -88t59 -299l-35 -198q-12 -54 -3 -101t34 -82t77.5 -55.5t128.5 -21.5
v-82q-101 -1 -159.5 -36.5t-74.5 -91.5t-3 -132l35 -199q34 -211 -59 -299t-312 -88z" />
    <glyph glyph-name="uni2039.uc" horiz-adv-x="593" 
d="M387 242l-276 374l276 375h111l-271 -375l271 -374h-111z" />
    <glyph glyph-name="uni203A.uc" horiz-adv-x="593" 
d="M96 242l271 374l-271 375h111l276 -375l-276 -374h-111z" />
    <glyph glyph-name="uni00AB.uc" horiz-adv-x="917" 
d="M387 242l-276 374l276 375h111l-271 -375l271 -374h-111zM711 242l-277 374l277 375h110l-270 -375l270 -374h-110z" />
    <glyph glyph-name="uni00BB.uc" horiz-adv-x="917" 
d="M96 242l271 374l-271 375h111l276 -375l-276 -374h-111zM420 242l270 374l-270 375h110l277 -375l-277 -374h-110z" />
    <glyph glyph-name="uni002F.uc" horiz-adv-x="800" 
d="M66 -172l557 1765h102l-557 -1765h-102z" />
    <glyph glyph-name="uni005C.uc" horiz-adv-x="800" 
d="M631 -172l-555 1765h102l555 -1765h-102z" />
    <glyph glyph-name="uni007C.uc" horiz-adv-x="493" 
d="M201 -172v1765h92v-1765h-92z" />
    <glyph glyph-name="uni0040.uc" horiz-adv-x="1839" 
d="M930 -119q-156 0 -289.5 43t-230.5 119t-166.5 178t-103.5 220.5t-34 246.5q0 178 69 337t184 270.5t270 177t321 65.5q174 0 321.5 -56t249 -153.5t158 -231t56.5 -286.5q0 -130 -31 -230t-83 -157t-112 -85t-125 -28q-212 0 -225 201q-39 -87 -122 -151t-185 -64
q-142 0 -228.5 93t-86.5 251q0 197 113 329t272 132q103 0 170.5 -52t89.5 -132l16 167h111l-56 -477q-29 -217 131 -217q110 0 181 104.5t71 311.5q0 140 -47 258t-133.5 203t-216.5 132.5t-289 47.5q-152 0 -288 -57t-235.5 -156.5t-157.5 -241t-58 -303.5
q0 -145 46.5 -273.5t134 -228.5t226.5 -158.5t312 -58.5q343 0 534 201h107q-79 -128 -248.5 -209.5t-392.5 -81.5zM872 381q116 0 202.5 106t86.5 261q0 127 -62.5 197.5t-168.5 70.5q-115 0 -199 -104t-84 -269q0 -123 62 -192.5t163 -69.5z" />
    <glyph glyph-name="uni00A1.uc" horiz-adv-x="557" 
d="M279 1300q-35 0 -60.5 26t-25.5 63q0 35 25.5 60.5t60.5 25.5q37 0 62.5 -25.5t25.5 -60.5q0 -37 -25.5 -63t-62.5 -26zM217 0l16 1098h86l19 -1098h-121z" />
    <glyph glyph-name="uni00BF.uc" horiz-adv-x="976" 
d="M545 1475q35 0 60.5 -25.5t25.5 -60.5q0 -37 -25.5 -63t-60.5 -26q-37 0 -62.5 26t-25.5 63q0 35 25.5 60.5t62.5 25.5zM592 1098v-117q0 -48 -12 -92t-26.5 -74.5t-47 -71t-53 -62t-66.5 -67.5q-49 -48 -70.5 -71t-51.5 -63t-42 -79.5t-12 -85.5q0 -109 68 -174t200 -65
q134 0 220 82.5t96 224.5h104q-11 -180 -126.5 -289.5t-295.5 -109.5q-184 0 -280.5 93t-96.5 234q0 30 5.5 59.5t10.5 50t22.5 49.5t24 41.5t33.5 42.5t33 37t40.5 41.5l39.5 39.5q45 45 60.5 61t47.5 54t43.5 62.5t22.5 62t11 77.5v109h98z" />
    <glyph glyph-name="uni00B4.uc" horiz-adv-x="819" 
d="M356 1579l131 250h136l-181 -250h-86z" />
    <glyph glyph-name="uni0060.uc" horiz-adv-x="819" 
d="M377 1579l-180 250h135l131 -250h-86z" />
    <glyph glyph-name="uni02DD.uc" horiz-adv-x="819" 
d="M229 1579l93 250h122l-133 -250h-82zM500 1579l92 250h123l-133 -250h-82z" />
    <glyph glyph-name="uni02C6.uc" horiz-adv-x="819" 
d="M135 1579l225 250h103l221 -250h-86l-188 160l-191 -160h-84z" />
    <glyph glyph-name="uni02C7.uc" horiz-adv-x="819" 
d="M356 1579l-223 250h86l191 -158l192 158h84l-227 -250h-103z" />
    <glyph glyph-name="uni02D8.uc" horiz-adv-x="819" 
d="M408 1579q-104 0 -178 71.5t-80 178.5h90q8 -72 53 -116t115 -44q71 0 119 44.5t57 115.5h88q-6 -106 -83 -178t-181 -72z" />
    <glyph glyph-name="uni02DC.uc" horiz-adv-x="819" 
d="M541 1585q-42 0 -89.5 27.5t-90.5 54.5t-72 27q-36 0 -61.5 -29.5t-32.5 -81.5h-84q12 96 60.5 149.5t117.5 53.5q41 0 88 -27t90.5 -54.5t73.5 -27.5q35 0 61 30t33 81h82q-12 -96 -60 -149.5t-116 -53.5z" />
    <glyph glyph-name="uni00AF.uc" horiz-adv-x="819" 
d="M156 1620v86h508v-86h-508z" />
    <glyph glyph-name="uni00A8.uc" horiz-adv-x="819" 
d="M225 1614q-32 0 -53.5 22.5t-21.5 53.5q0 30 21.5 51.5t53.5 21.5q31 0 52.5 -21.5t21.5 -51.5q0 -31 -21.5 -53.5t-52.5 -22.5zM594 1614q-31 0 -52.5 22.5t-21.5 53.5q0 30 22 51.5t52 21.5t52 -21.5t22 -51.5q0 -31 -21.5 -53.5t-52.5 -22.5z" />
    <glyph glyph-name="uni02D9.uc" horiz-adv-x="819" 
d="M410 1612q-32 0 -55 23t-23 55q0 31 23 53t55 22t54.5 -22t22.5 -53q0 -32 -22.5 -55t-54.5 -23z" />
    <glyph glyph-name="uni02DA.uc" horiz-adv-x="819" 
d="M410 1544q-82 0 -141.5 58.5t-59.5 138.5q0 79 59.5 136.5t141.5 57.5q83 0 141.5 -57t58.5 -137t-58.5 -138.5t-141.5 -58.5zM410 1610q54 0 89.5 37.5t35.5 93.5t-35.5 93.5t-89.5 37.5q-53 0 -89 -38t-36 -93t36 -93t89 -38z" />
    <glyph glyph-name="uni0030.den" horiz-adv-x="716" 
d="M358 -8q-133 0 -210.5 88.5t-77.5 245.5v49q0 157 77 246.5t209 89.5t211.5 -88.5t79.5 -243.5v-49q0 -158 -77.5 -248t-211.5 -90zM360 66q94 0 144.5 67t50.5 197v49q0 123 -53 190.5t-146 67.5q-92 0 -143 -67t-51 -193v-49q0 -130 52.5 -196t145.5 -66z" />
    <glyph glyph-name="uni0031.den" horiz-adv-x="450" 
d="M223 0v606l-180 -123v82l197 137h75v-702h-92z" />
    <glyph glyph-name="uni0032.den" horiz-adv-x="585" 
d="M31 0v18l266 271q67 67 97 117t30 104q0 60 -36.5 94.5t-98.5 34.5q-136 0 -154 -160h-84q6 108 70.5 170t169.5 62q103 0 163 -54.5t60 -146.5q0 -68 -35 -127t-112 -131l-185 -180h340v-72h-491z" />
    <glyph glyph-name="uni0033.den" horiz-adv-x="632" 
d="M313 -8q-119 0 -189 60t-75 155h84q8 -65 53 -105.5t125 -40.5q76 0 118 36.5t42 101.5q0 62 -39 97.5t-110 35.5h-56v67h51q67 0 101.5 33t34.5 88t-37 88t-101 33q-68 0 -108.5 -37t-48.5 -98h-82q6 90 70 147.5t171 57.5q101 0 162.5 -52.5t61.5 -132.5
q0 -116 -121 -155q64 -14 103.5 -59t39.5 -113q0 -96 -67.5 -151.5t-182.5 -55.5z" />
    <glyph glyph-name="uni0034.den" horiz-adv-x="634" 
d="M401 0v152h-364v32l336 518h116v-481h97v-69h-97v-152h-88zM141 221h262v414z" />
    <glyph glyph-name="uni0035.den" horiz-adv-x="606" 
d="M291 -8q-111 0 -173.5 55t-70.5 143h88q8 -57 46 -92t110 -35q71 0 112 45.5t41 122.5q0 73 -41.5 117.5t-107.5 44.5q-108 0 -164 -69h-47l4 378h410v-71h-336l-2 -230q58 62 162 62q95 0 156 -63.5t61 -170.5q0 -109 -69 -173t-179 -64z" />
    <glyph glyph-name="uni0036.den" horiz-adv-x="651" 
d="M334 -8q-137 0 -199.5 84t-62.5 229v37q0 181 76.5 275t205.5 94q89 0 145 -43.5t68 -128.5h-84q-18 100 -133 100q-86 0 -136.5 -69.5t-51.5 -207.5v-20q23 51 74.5 80t115.5 29q105 0 170.5 -63t65.5 -163q0 -105 -69.5 -169t-184.5 -64zM334 61q71 0 116.5 45
t45.5 117q0 73 -43.5 118.5t-116.5 45.5q-71 0 -119.5 -44t-48.5 -114q0 -74 44 -121t122 -47z" />
    <glyph glyph-name="uni0037.den" horiz-adv-x="552" 
d="M150 0l253 627h-368v75h485v-12l-276 -690h-94z" />
    <glyph glyph-name="uni0038.den" horiz-adv-x="643" 
d="M322 -8q-112 0 -185.5 53t-73.5 150q0 69 42 115.5t110 64.5q-56 20 -89.5 59t-33.5 94q0 82 67.5 132.5t162.5 50.5t162 -50t67 -131q0 -56 -33 -95.5t-88 -57.5q150 -46 150 -178q0 -99 -72 -153t-186 -54zM324 406q61 0 100 31.5t39 88.5q0 52 -39.5 84.5t-101.5 32.5
t-102 -32.5t-40 -86.5t43 -86t101 -32zM322 61q74 0 119.5 37t45.5 105q0 65 -45.5 102t-117.5 37t-120 -38t-48 -103q0 -67 47 -103.5t119 -36.5z" />
    <glyph glyph-name="uni0039.den" horiz-adv-x="649" 
d="M305 -8q-95 0 -157 47.5t-74 132.5h86q26 -109 147 -109q182 0 182 263v30q-26 -49 -76 -76.5t-112 -27.5q-107 0 -171 61.5t-64 161.5q0 106 68.5 171t182.5 65q132 0 198.5 -83.5t66.5 -228.5v-59q0 -178 -72.5 -263t-204.5 -85zM315 317q70 0 118 43.5t48 112.5
q0 73 -44 121.5t-120 48.5q-72 0 -116.5 -46t-44.5 -120q0 -72 43 -116t116 -44z" />
    <glyph glyph-name="uni0030.num" horiz-adv-x="716" 
d="M358 754q-133 0 -210.5 88t-77.5 245v48q0 158 77 248t209 90t211.5 -89t79.5 -245v-49q0 -156 -77.5 -246t-211.5 -90zM360 827q94 0 144.5 66.5t50.5 198.5v47q0 125 -53 192.5t-146 67.5q-92 0 -143 -67.5t-51 -194.5v-50q0 -129 52.5 -194.5t145.5 -65.5z" />
    <glyph glyph-name="uni0031.num" horiz-adv-x="448" 
d="M223 762v606l-180 -125v84l197 137h75v-702h-92z" />
    <glyph glyph-name="uni0032.num" horiz-adv-x="583" 
d="M31 762v18l266 269q67 69 97 118.5t30 102.5q0 61 -36.5 96t-98.5 35q-67 0 -106 -41.5t-48 -118.5h-84q6 108 70.5 170t169.5 62q103 0 163 -55.5t60 -145.5q0 -69 -34.5 -127t-112.5 -133l-185 -178h340v-72h-491z" />
    <glyph glyph-name="uni0033.num" horiz-adv-x="630" 
d="M313 754q-119 0 -189 59.5t-75 155.5h84q8 -65 53 -105.5t125 -40.5q76 0 118 36.5t42 101.5q0 61 -39 97t-110 36h-56v67h51q67 0 101.5 32.5t34.5 88.5q0 55 -37 88t-101 33q-68 0 -108.5 -37t-48.5 -98h-82q6 90 70 147.5t171 57.5q101 0 162.5 -53t61.5 -134
q0 -58 -32.5 -98t-88.5 -55q64 -14 103.5 -59.5t39.5 -115.5q0 -96 -67.5 -150t-182.5 -54z" />
    <glyph glyph-name="uni0034.num" horiz-adv-x="634" 
d="M401 762v151h-364v31l336 520h116v-481h97v-70h-97v-151h-88zM141 983h262v412z" />
    <glyph glyph-name="uni0035.num" horiz-adv-x="604" 
d="M291 754q-111 0 -173.5 55t-70.5 143h88q18 -127 156 -127q71 0 112 45t41 121q0 74 -41 119t-108 45q-108 0 -164 -70h-47l4 379h410v-71h-336l-2 -230q62 62 162 62q95 0 156 -64t61 -170q0 -109 -69 -173t-179 -64z" />
    <glyph glyph-name="uni0036.num" horiz-adv-x="649" 
d="M334 754q-137 0 -199.5 83.5t-62.5 227.5v37q0 182 76.5 276.5t205.5 94.5q88 0 144.5 -44.5t68.5 -130.5h-84q-19 103 -133 103q-86 0 -136.5 -70.5t-51.5 -208.5v-16q25 49 76 77.5t114 28.5q105 0 170.5 -62.5t65.5 -162.5q0 -106 -69.5 -169.5t-184.5 -63.5zM334 821
q71 0 116.5 45.5t45.5 118.5t-43.5 117.5t-116.5 44.5q-71 0 -119.5 -43.5t-48.5 -112.5q0 -74 44.5 -122t121.5 -48z" />
    <glyph glyph-name="uni0037.num" horiz-adv-x="550" 
d="M150 762l253 627h-368v75h485v-12l-276 -690h-94z" />
    <glyph glyph-name="uni0038.num" horiz-adv-x="643" 
d="M322 754q-112 0 -185.5 52.5t-73.5 149.5q0 69 42 116t110 65q-55 18 -89 58t-34 95q0 82 67.5 132.5t162.5 50.5t162 -50t67 -131q0 -56 -33 -95.5t-88 -57.5q69 -21 109.5 -67t40.5 -114q0 -98 -72 -151t-186 -53zM324 1167q61 0 100 32t39 89q0 52 -39.5 83.5
t-101.5 31.5q-61 0 -101.5 -32t-40.5 -85q0 -55 43 -87t101 -32zM322 823q74 0 119.5 37t45.5 105q0 64 -46 101.5t-117 37.5q-72 0 -120 -38t-48 -103q0 -68 46.5 -104t119.5 -36z" />
    <glyph glyph-name="uni0039.num" horiz-adv-x="649" 
d="M305 754q-95 0 -157 47.5t-74 132.5h86q25 -109 147 -109q182 0 182 262v31q-26 -50 -76 -78t-112 -28q-107 0 -171 61.5t-64 163.5q0 106 68.5 171t182.5 65q132 0 198.5 -83.5t66.5 -228.5v-59q0 -178 -72.5 -263t-204.5 -85zM315 1079q71 0 118.5 42.5t47.5 111.5
q0 74 -44 122t-120 48q-72 0 -116.5 -45.5t-44.5 -118.5q0 -72 43 -116t116 -44z" />
    <glyph glyph-name="uni0030.old" horiz-adv-x="1282" 
d="M641 -16q-240 0 -389.5 166t-149.5 442v84q0 278 149 443t390 165q240 0 388.5 -164t148.5 -440v-84q0 -280 -146.5 -446t-390.5 -166zM643 78q196 0 309 135.5t113 382.5v82q0 239 -115.5 376.5t-308.5 137.5t-308.5 -136.5t-115.5 -379.5v-84q0 -244 116 -379t310 -135
z" />
    <glyph glyph-name="uni0031.old" horiz-adv-x="739" 
d="M391 0v1149l-332 -229v104l349 244h94v-1268h-111z" />
    <glyph glyph-name="uni0032.old" horiz-adv-x="1079" 
d="M49 0v27l516 469q70 62 113 105t84 97t59.5 108.5t18.5 115.5q0 127 -80 199.5t-219 72.5q-141 0 -230.5 -85.5t-109.5 -248.5h-103q17 193 137.5 308.5t305.5 115.5q186 0 298.5 -98t112.5 -264q0 -57 -17.5 -111.5t-42 -97.5t-73.5 -97.5t-87 -91t-107 -98.5l-373 -334
h723v-92h-926z" />
    <glyph glyph-name="uni0033.old" horiz-adv-x="1157" 
d="M571 -213q-112 0 -205 34.5t-154.5 93.5t-96.5 136.5t-39 165.5h104q13 -150 112 -245t281 -95q178 0 273.5 86.5t95.5 243.5q0 147 -90 232t-258 85h-107v94h99q151 0 227 77.5t76 203.5q0 131 -79.5 212t-223.5 81q-149 0 -243.5 -85.5t-109.5 -223.5h-98
q9 170 135 285.5t316 115.5q189 0 300 -109t111 -272q0 -122 -65 -206t-176 -119q134 -29 216.5 -125.5t82.5 -245.5q0 -194 -133 -307t-351 -113z" />
    <glyph glyph-name="uni0034.old" horiz-adv-x="1218" 
d="M823 -199v334h-764v35l717 1096h158v-1041h205v-90h-205v-334h-111zM205 225h618v957z" />
    <glyph glyph-name="uni0035.old" horiz-adv-x="1126" 
d="M541 -213q-208 0 -329.5 107.5t-135.5 275.5h102q20 -132 108.5 -212.5t252.5 -80.5q170 0 269 106t99 289q0 169 -96 272t-246 103q-232 0 -362 -155h-41v776h784v-97h-692v-553q49 50 135 84.5t193 34.5q190 0 314 -126.5t124 -338.5q0 -221 -134.5 -353t-344.5 -132z
" />
    <glyph glyph-name="uni0036.old" horiz-adv-x="1191" 
d="M610 -16q-133 0 -231.5 46.5t-155.5 130.5t-84.5 190t-27.5 237v135q0 192 40.5 339t113.5 237.5t171 136t217 45.5q163 0 267.5 -84.5t132.5 -241.5h-107q-49 234 -299 234q-94 0 -169 -37t-132.5 -113t-89.5 -201.5t-33 -292.5v-77q44 112 156.5 176.5t243.5 64.5
q217 0 343 -129.5t126 -330.5q0 -207 -132.5 -336t-349.5 -129zM610 72q165 0 267 103t102 269q0 172 -97.5 273.5t-273.5 101.5q-158 0 -266.5 -98t-108.5 -256q0 -169 99 -281t278 -112z" />
    <glyph glyph-name="uni0037.old" horiz-adv-x="1021" 
d="M270 -199l568 1375h-783v90h922v-19l-594 -1446h-113z" />
    <glyph glyph-name="uni0038.old" horiz-adv-x="1171" 
d="M588 -16q-95 0 -181.5 27t-156 78t-111 132.5t-41.5 181.5q0 145 90 243.5t232 135.5q-117 36 -188.5 119.5t-71.5 206.5q0 111 62 198t158.5 131t207.5 44q110 0 206.5 -45t157 -130.5t60.5 -193.5q0 -126 -69.5 -209t-186.5 -119q145 -40 231 -135.5t86 -240.5
q0 -101 -40 -183t-107.5 -134t-154 -79.5t-183.5 -27.5zM594 823q134 0 220.5 77t86.5 212q0 121 -90 200t-223 79q-136 0 -226 -78t-90 -205q0 -131 95.5 -208t226.5 -77zM588 78q165 0 269 86.5t104 245.5q0 101 -51 175.5t-134 111t-184 36.5q-102 0 -187 -37
t-138.5 -112.5t-53.5 -177.5q0 -105 52.5 -180.5t136 -111.5t186.5 -36z" />
    <glyph glyph-name="uni0039.old" horiz-adv-x="1191" 
d="M559 -213q-178 0 -295.5 92t-142.5 254h106q24 -119 110.5 -186.5t227.5 -67.5q202 0 301.5 150.5t102.5 482.5v88q-46 -114 -157 -178t-243 -64q-217 0 -343 130t-126 329q0 208 132 337.5t348 129.5q108 0 193 -30.5t141.5 -84t94 -131t54 -167t16.5 -195.5v-141
q0 -382 -134 -565t-386 -183zM584 449q157 0 265.5 97t108.5 257q0 171 -99 281t-279 110q-165 0 -266 -103.5t-101 -269.5q0 -171 97 -271.5t274 -100.5z" />
    <glyph glyph-name="uni0024.old" horiz-adv-x="1204" 
d="M561 -272v258q-116 6 -204.5 41.5t-143.5 94t-85.5 129.5t-41.5 157h109q9 -69 30.5 -122.5t62 -100.5t109.5 -75.5t164 -35.5v624q-217 36 -319.5 122.5t-102.5 244.5t117 259.5t305 109.5v182h82v-182q174 -12 281 -105t127 -250h-101q-25 123 -100 188.5t-207 75.5
v-561q118 -19 197.5 -46.5t138 -72.5t85 -112.5t26.5 -163.5q0 -166 -123 -280t-324 -123v-256h-82zM242 1073q0 -114 69.5 -179t249.5 -99v548q-150 -6 -234.5 -77.5t-84.5 -192.5zM983 379q0 140 -75 206.5t-265 98.5v-610q155 9 247.5 93.5t92.5 211.5z" />
    <glyph glyph-name="uni00A3.old" horiz-adv-x="1185" 
d="M98 651v82h140q-48 169 -48 297q0 181 122 293.5t309 112.5t294.5 -98t122.5 -265h-106q-23 134 -96 202t-215 68q-141 0 -228.5 -86t-87.5 -227q0 -135 45 -297h455v-82h-434q37 -169 37 -272q0 -88 -37 -164q61 -9 142.5 -43.5t155 -63t128.5 -28.5q189 0 204 205h95
q-8 -136 -85.5 -218.5t-203.5 -82.5q-61 0 -131.5 22.5t-123.5 50t-113.5 50t-104.5 22.5q-67 0 -106.5 -36.5t-47.5 -92.5h-96q5 46 25.5 88t62.5 77.5t98 47.5q39 80 39 166q0 112 -49 272h-162z" />
    <glyph glyph-name="uni00A5.old" horiz-adv-x="1097" 
d="M139 606v78h340l-428 737h121l385 -676l365 676h108l-401 -737h338v-78h-357v-192h357v-78h-357v-336h-110v336h-361v78h361v192h-361z" />
    <glyph glyph-name="uni20AC.old" horiz-adv-x="1323" 
d="M63 805v78h138q10 161 72.5 285t178 196t269.5 72q201 0 322.5 -108.5t146.5 -301.5h-105q-24 153 -116 236.5t-248 83.5q-184 0 -291 -124t-121 -339h502l-14 -78h-490v-193h453l-15 -77h-436q14 -217 120 -338t294 -121q163 0 259.5 91t123.5 261h100
q-23 -208 -150 -326t-333 -118q-228 0 -366 151t-156 400h-138v77h136v193h-136z" />
    <glyph glyph-name="uni0030.oldtab" horiz-adv-x="1228" 
d="M618 -16q-231 0 -366 152t-135 407v180q0 255 134 408t363 153q228 0 364 -152.5t136 -404.5v-178q0 -259 -132.5 -412t-363.5 -153zM618 78q187 0 284 122t97 349v178q0 213 -101.5 339t-283.5 126q-183 0 -284 -124.5t-101 -344.5v-178q0 -222 102 -344.5t287 -122.5z
" />
    <glyph glyph-name="uni0031.oldtab" horiz-adv-x="1228" 
d="M670 0v1147l-449 -336v107l463 350h96v-1268h-110z" />
    <glyph glyph-name="uni0032.oldtab" horiz-adv-x="1228" 
d="M125 0v27l516 469q70 62 113 105t83.5 97t59 108.5t18.5 115.5q0 127 -80 199.5t-219 72.5q-140 0 -230.5 -85.5t-111.5 -248.5h-100q17 193 137 308.5t305 115.5q186 0 299 -98t113 -264q0 -57 -18 -112t-42.5 -97.5t-73.5 -97t-87 -90.5t-107 -99l-372 -334h723v-92
h-926z" />
    <glyph glyph-name="uni0033.oldtab" horiz-adv-x="1228" 
d="M606 -213q-112 0 -205 34.5t-154.5 93.5t-96.5 136.5t-39 165.5h104q13 -150 112 -245t281 -95q177 0 273 86.5t96 243.5q0 147 -90 232t-258 85h-107v94h99q151 0 227 77.5t76 203.5q0 131 -79.5 212t-223.5 81q-149 0 -243.5 -85.5t-109.5 -223.5h-98q9 170 135 285.5
t316 115.5q189 0 300 -109t111 -272q0 -122 -65 -206t-176 -119q134 -29 216.5 -125.5t82.5 -245.5q0 -194 -133 -307t-351 -113z" />
    <glyph glyph-name="uni0034.oldtab" horiz-adv-x="1228" 
d="M823 -199v334h-743v35l692 1096h160v-1041h196v-90h-196v-334h-109zM223 225h600v957z" />
    <glyph glyph-name="uni0035.oldtab" horiz-adv-x="1228" 
d="M596 -213q-206 0 -327.5 108t-137.5 275h105q19 -131 107.5 -212t252.5 -81q171 0 270 105t99 288q0 169 -96.5 273t-247.5 104q-231 0 -361 -155h-41v776h785v-97h-693v-553q49 50 135 84.5t193 34.5q190 0 314 -128t124 -339q0 -220 -135.5 -351.5t-345.5 -131.5z" />
    <glyph glyph-name="uni0036.oldtab" horiz-adv-x="1228" 
d="M633 -16q-102 0 -184.5 29.5t-139 82.5t-94 128t-55 163t-17.5 191v157q0 188 39 332t110 234t166.5 135t213.5 45q163 0 268 -84.5t133 -241.5h-108q-49 234 -299 234q-190 0 -299.5 -157t-112.5 -487v-77q45 113 153 177t238 64q217 0 340 -129.5t123 -330.5
q0 -206 -131 -335.5t-344 -129.5zM633 72q161 0 260.5 103t99.5 269q0 171 -95.5 273t-266.5 102q-154 0 -260.5 -98.5t-106.5 -255.5q0 -110 41 -197.5t126 -141.5t202 -54z" />
    <glyph glyph-name="uni0037.oldtab" horiz-adv-x="1228" 
d="M360 -199l578 1375h-778v90h921v-19l-606 -1446h-115z" />
    <glyph glyph-name="uni0038.oldtab" horiz-adv-x="1228" 
d="M616 -16q-93 0 -178 27t-152.5 78t-108 132.5t-40.5 181.5q0 146 87.5 244t228.5 135q-116 35 -185 118.5t-69 207.5q0 112 59.5 198.5t153.5 130.5t204 44q109 0 203.5 -45t153.5 -130.5t59 -193.5q0 -127 -68 -209.5t-184 -118.5q145 -40 229.5 -135.5t84.5 -240.5
q0 -101 -39.5 -183t-106 -134t-152 -79.5t-180.5 -27.5zM623 823q130 0 213.5 76.5t83.5 212.5q0 121 -87 200t-217 79q-133 0 -220 -78t-87 -205q0 -131 93 -208t221 -77zM616 78q163 0 264 86.5t101 245.5q0 151 -103.5 237t-256.5 86q-100 0 -183.5 -37t-135.5 -112.5
t-52 -177.5q0 -156 104.5 -242t261.5 -86z" />
    <glyph glyph-name="uni0039.oldtab" horiz-adv-x="1228" 
d="M578 -213q-176 0 -292 92t-141 254h107q24 -119 108.5 -186.5t225.5 -67.5q191 0 289.5 151.5t101.5 481.5v88q-44 -115 -151.5 -178.5t-237.5 -63.5q-213 0 -338 130t-125 329q0 207 131.5 337t343.5 130q127 0 222 -44t152.5 -124.5t85 -187t27.5 -238.5v-172
q0 -731 -509 -731zM602 449q153 0 259 97.5t106 256.5q0 171 -96 281t-271 110q-161 0 -261.5 -103.5t-100.5 -269.5q0 -170 96.5 -271t267.5 -101z" />
    <glyph glyph-name="uni0024.oldtab" horiz-adv-x="1228" 
d="M578 -272v258q-117 6 -206 41.5t-144 94t-85.5 129.5t-40.5 157h107q10 -69 32 -122.5t63 -101t110 -75.5t164 -35v624q-217 36 -319.5 122t-102.5 245q0 158 117 260.5t305 110.5v180h79v-182q176 -12 282 -104t128 -251h-100q-25 123 -100.5 188.5t-209.5 75.5v-561
q119 -19 198.5 -46.5t138 -72.5t85.5 -112.5t27 -163.5q0 -108 -55 -198t-158 -145t-236 -60v-256h-79zM258 1073q0 -114 69 -179t251 -99v548q-150 -6 -235 -77.5t-85 -192.5zM997 379q0 140 -75 206.5t-265 98.5v-610q155 7 247.5 92t92.5 213z" />
    <glyph glyph-name="uni00A3.oldtab" horiz-adv-x="1228" 
d="M119 651v82h139q-45 158 -45 297q0 181 121 293.5t309 112.5q186 0 294.5 -98t123.5 -265h-107q-23 134 -96 202t-215 68t-229.5 -85.5t-87.5 -227.5q0 -121 45 -297h456v-82h-434q37 -152 37 -272q0 -88 -37 -164q61 -9 143 -43.5t155 -63t126 -28.5q94 0 146.5 51
t58.5 154h96q-8 -136 -85.5 -218.5t-203.5 -82.5q-62 0 -132.5 22.5t-123 50t-113 50t-104.5 22.5q-67 0 -106 -36.5t-47 -92.5h-99q8 72 57 135t132 80q37 72 37 164q0 107 -47 272h-164z" />
    <glyph glyph-name="uni00A5.oldtab" horiz-adv-x="1228" 
d="M207 606v78h342l-420 737h121l375 -676l354 676h106l-391 -737h338v-78h-356v-192h356v-78h-356v-336h-109v336h-360v78h360v192h-360z" />
    <glyph glyph-name="uni20AC.oldtab" horiz-adv-x="1228" 
d="M70 805v78h123q8 257 135 405t348 148q185 0 293 -105t133 -299h-105q-45 314 -321 314q-176 0 -271.5 -119.5t-101.5 -343.5h465l-16 -78h-449v-193h412l-15 -77h-397q8 -226 101.5 -342.5t273.5 -116.5q290 0 344 344h102q-25 -207 -142 -321.5t-304 -114.5
q-221 0 -349.5 145t-135.5 406h-123v77h123v193h-123z" />
    <glyph glyph-name="uni0030.sub" horiz-adv-x="716" 
d="M358 -184q-133 0 -210.5 88.5t-77.5 245.5v49q0 157 77 246.5t209 89.5t211.5 -88.5t79.5 -243.5v-49q0 -158 -77.5 -248t-211.5 -90zM360 -111q93 0 144 67.5t51 197.5v49q0 123 -53 190.5t-146 67.5q-92 0 -143 -67t-51 -193v-49q0 -130 52.5 -196.5t145.5 -66.5z" />
    <glyph glyph-name="uni0031.sub" horiz-adv-x="450" 
d="M223 -178v608l-180 -125v84l197 137h75v-704h-92z" />
    <glyph glyph-name="uni0032.sub" horiz-adv-x="585" 
d="M31 -176v18l266 271q67 67 97 117t30 104q0 60 -36.5 94.5t-98.5 34.5q-136 0 -154 -160h-84q6 108 70.5 170t169.5 62q103 0 163 -54.5t60 -146.5q0 -68 -35 -127t-112 -131l-185 -180h340v-72h-491z" />
    <glyph glyph-name="uni0033.sub" horiz-adv-x="632" 
d="M313 -184q-119 0 -189 60t-75 155h84q8 -65 53 -105.5t125 -40.5q76 0 118 36.5t42 101.5q0 62 -39 97.5t-110 35.5h-56v67h51q67 0 101.5 33t34.5 88t-37 88t-101 33q-68 0 -108.5 -37t-48.5 -98h-82q6 90 70 147.5t171 57.5q101 0 162.5 -52.5t61.5 -132.5
q0 -116 -121 -155q64 -14 103.5 -59t39.5 -113q0 -96 -67.5 -151.5t-182.5 -55.5z" />
    <glyph glyph-name="uni0034.sub" horiz-adv-x="634" 
d="M401 -176v151h-364v33l336 518h116v-481h97v-70h-97v-151h-88zM141 45h262v414z" />
    <glyph glyph-name="uni0035.sub" horiz-adv-x="606" 
d="M291 -184q-111 0 -173.5 55t-70.5 143h88q8 -57 46 -92t110 -35q71 0 112 45.5t41 122.5q0 73 -41.5 117.5t-107.5 44.5q-108 0 -164 -70h-47l4 379h410v-71h-336l-2 -230q58 62 162 62q95 0 156 -63.5t61 -170.5q0 -109 -69 -173t-179 -64z" />
    <glyph glyph-name="uni0036.sub" horiz-adv-x="651" 
d="M334 -184q-137 0 -199.5 84t-62.5 229v37q0 181 76.5 275t205.5 94q89 0 145 -43.5t68 -129.5h-84q-18 101 -133 101q-86 0 -136.5 -69.5t-51.5 -207.5v-20q23 50 74.5 79t115.5 29q105 0 170.5 -62.5t65.5 -162.5q0 -105 -69.5 -169t-184.5 -64zM334 -115q71 0 116.5 45
t45.5 117q0 73 -43.5 118.5t-116.5 45.5q-71 0 -119.5 -44t-48.5 -114q0 -74 44 -121t122 -47z" />
    <glyph glyph-name="uni0037.sub" horiz-adv-x="552" 
d="M150 -176l253 627h-368v75h485v-12l-276 -690h-94z" />
    <glyph glyph-name="uni0038.sub" horiz-adv-x="643" 
d="M322 -184q-112 0 -185.5 52.5t-73.5 149.5q0 69 42 116t110 65q-56 20 -89.5 59t-33.5 94q0 82 67.5 132.5t162.5 50.5t162 -50t67 -131q0 -56 -33 -95.5t-88 -57.5q150 -46 150 -178q0 -99 -72 -153t-186 -54zM324 229q61 0 100 32t39 89q0 52 -39.5 84.5t-101.5 32.5
t-102 -32.5t-40 -86.5t43 -86.5t101 -32.5zM322 -115q74 0 119.5 37t45.5 105q0 65 -45.5 102t-117.5 37t-120 -38t-48 -103q0 -67 47 -103.5t119 -36.5z" />
    <glyph glyph-name="uni0039.sub" horiz-adv-x="649" 
d="M305 -184q-95 0 -157 47.5t-74 132.5h86q26 -109 147 -109q182 0 182 263v30q-26 -49 -76 -76.5t-112 -27.5q-107 0 -171 61.5t-64 161.5q0 106 68.5 171t182.5 65q132 0 198.5 -83.5t66.5 -228.5v-59q0 -178 -72.5 -263t-204.5 -85zM315 141q70 0 118 43.5t48 112.5
q0 73 -44 121.5t-120 48.5q-72 0 -116.5 -46t-44.5 -120q0 -72 43 -116t116 -44z" />
    <glyph glyph-name="uni002B.sub" horiz-adv-x="661" 
d="M291 -90v221h-213v74h213v225h78v-225h217v-74h-217v-221h-78z" />
    <glyph glyph-name="uni2212.sub" horiz-adv-x="661" 
d="M78 131v74h508v-74h-508z" />
    <glyph glyph-name="uni0030.sup" horiz-adv-x="716" 
d="M358 872q-133 0 -210.5 88.5t-77.5 245.5v47q0 158 77 248t209 90t211.5 -89t79.5 -245v-49q0 -156 -77.5 -246t-211.5 -90zM360 946q94 0 144.5 66.5t50.5 197.5v47q0 125 -53 193t-146 68q-92 0 -143 -67.5t-51 -195.5v-49q0 -129 52.5 -194.5t145.5 -65.5z" />
    <glyph glyph-name="uni0031.sup" horiz-adv-x="450" 
d="M223 881v606l-180 -125v84l197 137h75v-702h-92z" />
    <glyph glyph-name="uni0032.sup" horiz-adv-x="585" 
d="M31 881v18l266 268q67 68 97 118.5t30 103.5q0 61 -36.5 96t-98.5 35q-67 0 -106 -41.5t-48 -118.5h-84q6 108 70.5 169.5t169.5 61.5q103 0 163 -55t60 -145q0 -69 -34.5 -128t-112.5 -133l-185 -178h340v-71h-491z" />
    <glyph glyph-name="uni0033.sup" horiz-adv-x="632" 
d="M313 872q-119 0 -189 59.5t-75 155.5h84q8 -64 53 -104.5t125 -40.5q76 0 118 36t42 101q0 61 -39 97t-110 36h-56v68h51q67 0 101.5 32.5t34.5 88.5q0 55 -37 88t-101 33q-68 0 -108.5 -37.5t-48.5 -98.5h-82q6 90 70 147.5t171 57.5q101 0 162.5 -52.5t61.5 -133.5
q0 -59 -32.5 -99t-88.5 -55q64 -14 103.5 -59t39.5 -115q0 -96 -67.5 -150.5t-182.5 -54.5z" />
    <glyph glyph-name="uni0034.sup" horiz-adv-x="634" 
d="M401 881v151h-364v31l336 520h116v-481h97v-70h-97v-151h-88zM141 1102h262v411z" />
    <glyph glyph-name="uni0035.sup" horiz-adv-x="606" 
d="M291 872q-111 0 -173.5 55.5t-70.5 143.5h88q18 -127 156 -127q71 0 112 45t41 121q0 74 -41 119t-108 45q-108 0 -164 -70h-47l4 379h410v-72h-336l-2 -229q61 61 162 61q95 0 156 -63.5t61 -169.5q0 -109 -69 -173.5t-179 -64.5z" />
    <glyph glyph-name="uni0036.sup" horiz-adv-x="651" 
d="M334 872q-137 0 -199.5 84t-62.5 228v37q0 182 76.5 276t205.5 94q89 0 145 -44t68 -130h-84q-19 103 -133 103q-86 0 -136.5 -70.5t-51.5 -208.5v-16q25 49 76 77.5t114 28.5q105 0 170.5 -62.5t65.5 -162.5q0 -106 -69.5 -170t-184.5 -64zM334 940q71 0 116.5 45.5
t45.5 118.5t-43.5 117.5t-116.5 44.5q-71 0 -119.5 -43.5t-48.5 -112.5q0 -74 44.5 -122t121.5 -48z" />
    <glyph glyph-name="uni0037.sup" horiz-adv-x="552" 
d="M150 881l253 626h-368v76h485v-12l-276 -690h-94z" />
    <glyph glyph-name="uni0038.sup" horiz-adv-x="643" 
d="M322 872q-112 0 -185.5 53t-73.5 150q0 69 42 115.5t110 64.5q-55 18 -89 58.5t-34 95.5q0 82 67.5 132t162.5 50q96 0 162.5 -49.5t66.5 -130.5q0 -56 -33 -96t-88 -58q69 -21 109.5 -66.5t40.5 -113.5q0 -98 -72.5 -151.5t-185.5 -53.5zM324 1286q61 0 100 32t39 89
q0 52 -39.5 83.5t-101.5 31.5q-61 0 -101.5 -32t-40.5 -85q0 -55 43 -87t101 -32zM322 942q75 0 120 36.5t45 104.5q0 64 -46 102t-117 38q-72 0 -120 -38.5t-48 -103.5q0 -68 46.5 -103.5t119.5 -35.5z" />
    <glyph glyph-name="uni0039.sup" horiz-adv-x="649" 
d="M305 872q-95 0 -157 48t-74 133h86q25 -109 147 -109q182 0 182 262v31q-26 -51 -76 -79t-112 -28q-107 0 -171 62t-64 164q0 106 68.5 170.5t182.5 64.5q132 0 198.5 -83t66.5 -228v-59q0 -178 -72.5 -263.5t-204.5 -85.5zM315 1198q71 0 118.5 42.5t47.5 111.5
q0 74 -44 122t-120 48q-72 0 -116.5 -45.5t-44.5 -118.5q0 -72 43 -116t116 -44z" />
    <glyph glyph-name="uni002B.sup" horiz-adv-x="661" 
d="M291 971v221h-213v74h213v225h78v-225h217v-74h-217v-221h-78z" />
    <glyph glyph-name="uni2212.sup" horiz-adv-x="661" 
d="M78 1192v74h508v-74h-508z" />
    <glyph glyph-name="uni0066.short" horiz-adv-x="655" 
d="M215 0v979h-162v92h162v193q0 163 79.5 244t215.5 81q72 0 113 -16v-92q-46 16 -111 16q-89 0 -138.5 -54.5t-49.5 -168.5v-203h299v-92h-299v-979h-109z" />
    <glyph glyph-name="uni0E0E.short" horiz-adv-x="1327" 
d="M354 -352h-108v18q0 119 96 198t262 79q149 0 273 -62.5t182 -138.5v1016q0 177 -96.5 280t-288.5 103q-186 0 -293 -92.5t-107 -225.5v-22h261v-78q-96 -26 -136.5 -88t-40.5 -176v-223q0 -134 -70.5 -190t-209.5 -58v90q93 3 131.5 38.5t38.5 119.5v213q0 124 32 185.5
t107 84.5h-221v82q0 88 33 165.5t95.5 137.5t161.5 94.5t222 34.5q242 0 366.5 -127.5t124.5 -349.5v-1108h-116q-64 82 -177.5 142t-244.5 60q-137 0 -207 -62t-70 -140z" />
    <glyph glyph-name="uni0E0F.short" horiz-adv-x="1327" 
d="M246 -352h-23v96h23q67 0 129 42t94 138h41l137 -170l131 172h29l156 -184q98 12 98 154v862q0 176 -97 279.5t-286 103.5q-187 0 -294.5 -92.5t-107.5 -225.5v-22h261v-78q-96 -26 -136.5 -88t-40.5 -176v-223q0 -134 -70.5 -190t-209.5 -58v90q93 3 131.5 38.5
t38.5 119.5v213q0 124 32 185.5t107 84.5h-221v82q0 88 33 166t95.5 137.5t161 94t220.5 34.5q243 0 368 -127.5t125 -349.5v-852q0 -118 -56 -187t-165 -69h-22l-137 168l-125 -168h-37l-129 159q-70 -159 -254 -159z" />
    <glyph glyph-name="uni0E24.short" horiz-adv-x="1277" 
d="M1124 -352h-110v1110q0 177 -96 280t-287 103q-183 0 -285 -92t-102 -226v-22h258v-76q-108 -29 -169 -99t-61 -202v-100q0 -136 57.5 -192t159.5 -56q65 0 115 18v-90q-58 -18 -133 -18q-309 0 -309 338v90q0 142 50.5 210.5t141.5 94.5h-219v82q0 89 31 166t91.5 137
t157.5 94.5t220 34.5q241 0 365 -127.5t124 -349.5v-1108z" />
    <glyph glyph-name="uni0E26.short" horiz-adv-x="1304" 
d="M1149 -352h-111v1110q0 177 -96.5 280t-288.5 103q-185 0 -292 -92.5t-107 -225.5v-22h260v-78q-95 -26 -135.5 -88t-40.5 -176v-223q0 -134 -70.5 -190t-210.5 -58v90q93 3 131.5 38.5t38.5 119.5v213q0 124 32 185.5t108 84.5h-222v82q0 88 33 165.5t95.5 137.5
t161.5 94.5t222 34.5q243 0 367.5 -127.5t124.5 -349.5v-1108z" />
    <glyph glyph-name="uni0E2C.short" horiz-adv-x="1515" 
d="M457 0h-123l-217 1217h110l187 -1070l309 824h82l342 -824l113 607q29 155 -9.5 236t-165.5 81h-145v90h174q141 0 197 33t78 121h102q-24 -97 -78 -149.5t-151 -65.5q63 -25 92.5 -82.5t26.5 -127t-17 -149.5l-147 -741h-113l-338 829z" />
    <glyph glyph-name="uniFB00.short" horiz-adv-x="1224" 
d="M215 0v979h-162v92h162v176q0 162 82 244t221 82q66 0 119 -19v-92q-59 19 -115 19q-93 0 -145.5 -55.5t-52.5 -168.5v-186h462v193q0 163 78.5 244t214.5 81q72 0 113 -16v-92q-46 16 -109 16q-89 0 -138.5 -54.5t-49.5 -168.5v-203h297v-92h-297v-979h-109v979h-462
v-979h-109z" />
    <glyph glyph-name="space_uni0326.alt" horiz-adv-x="819" 
d="M440 1243l-106 31l153 303l72 -35z" />
    <glyph glyph-name="uni0061.alt" horiz-adv-x="1232" 
d="M561 -16q-96 0 -181.5 36.5t-150.5 103.5t-103 169.5t-38 226.5v17q0 121 39 225t106 174.5t156.5 110.5t188.5 40q139 0 233 -69.5t143 -179.5v233h111v-1071h-111v246q-45 -105 -152 -183.5t-241 -78.5zM571 76q78 0 147 29.5t123 85t85.5 143t31.5 194.5v17
q0 215 -103.5 332.5t-268.5 117.5q-167 0 -276 -121.5t-109 -332.5v-17q0 -212 105.5 -330t264.5 -118z" />
    <glyph glyph-name="uni00E0.alt" horiz-adv-x="1232" 
d="M569 1239l-188 301h133l139 -301h-84zM561 -16q-96 0 -181.5 36.5t-150.5 103.5t-103 169.5t-38 226.5v17q0 121 39 225t106 174.5t156.5 110.5t188.5 40q139 0 233 -69.5t143 -179.5v233h111v-1071h-111v246q-45 -105 -152 -183.5t-241 -78.5zM571 76q78 0 147 29.5
t123 85t85.5 143t31.5 194.5v17q0 215 -103.5 332.5t-268.5 117.5q-167 0 -276 -121.5t-109 -332.5v-17q0 -212 105.5 -330t264.5 -118z" />
    <glyph glyph-name="uni00E1.alt" horiz-adv-x="1232" 
d="M541 1239l139 301h133l-188 -301h-84zM561 -16q-96 0 -181.5 36.5t-150.5 103.5t-103 169.5t-38 226.5v17q0 121 39 225t106 174.5t156.5 110.5t188.5 40q139 0 233 -69.5t143 -179.5v233h111v-1071h-111v246q-45 -105 -152 -183.5t-241 -78.5zM571 76q78 0 147 29.5
t123 85t85.5 143t31.5 194.5v17q0 215 -103.5 332.5t-268.5 117.5q-167 0 -276 -121.5t-109 -332.5v-17q0 -212 105.5 -330t264.5 -118z" />
    <glyph glyph-name="uni00E2.alt" horiz-adv-x="1232" 
d="M326 1239l225 277h102l221 -277h-86l-188 184l-190 -184h-84zM561 -16q-96 0 -181.5 36.5t-150.5 103.5t-103 169.5t-38 226.5v17q0 121 39 225t106 174.5t156.5 110.5t188.5 40q139 0 233 -69.5t143 -179.5v233h111v-1071h-111v246q-45 -105 -152 -183.5t-241 -78.5z
M571 76q78 0 147 29.5t123 85t85.5 143t31.5 194.5v17q0 215 -103.5 332.5t-268.5 117.5q-167 0 -276 -121.5t-109 -332.5v-17q0 -212 105.5 -330t264.5 -118z" />
    <glyph glyph-name="uni00E3.alt" horiz-adv-x="1232" 
d="M725 1262q-42 0 -90 27t-91.5 54t-72.5 27q-33 0 -59 -29t-33 -79h-84q12 95 60.5 148.5t117.5 53.5q41 0 88.5 -27t91 -54t72.5 -27q34 0 60.5 28.5t33.5 79.5h82q-12 -95 -60 -148.5t-116 -53.5zM561 -16q-96 0 -181.5 36.5t-150.5 103.5t-103 169.5t-38 226.5v17
q0 121 39 225t106 174.5t156.5 110.5t188.5 40q139 0 233 -69.5t143 -179.5v233h111v-1071h-111v246q-45 -105 -152 -183.5t-241 -78.5zM571 76q78 0 147 29.5t123 85t85.5 143t31.5 194.5v17q0 215 -103.5 332.5t-268.5 117.5q-167 0 -276 -121.5t-109 -332.5v-17
q0 -212 105.5 -330t264.5 -118z" />
    <glyph glyph-name="uni00E4.alt" horiz-adv-x="1232" 
d="M432 1303q-32 0 -54 22t-22 53t22 52.5t54 21.5q31 0 52.5 -21.5t21.5 -52.5t-21.5 -53t-52.5 -22zM772 1303q-31 0 -52.5 22t-21.5 53t21.5 52.5t52.5 21.5q32 0 54 -21.5t22 -52.5t-22 -53t-54 -22zM561 -16q-96 0 -181.5 36.5t-150.5 103.5t-103 169.5t-38 226.5v17
q0 121 39 225t106 174.5t156.5 110.5t188.5 40q139 0 233 -69.5t143 -179.5v233h111v-1071h-111v246q-45 -105 -152 -183.5t-241 -78.5zM571 76q78 0 147 29.5t123 85t85.5 143t31.5 194.5v17q0 215 -103.5 332.5t-268.5 117.5q-167 0 -276 -121.5t-109 -332.5v-17
q0 -212 105.5 -330t264.5 -118z" />
    <glyph glyph-name="uni00E5.alt" horiz-adv-x="1232" 
d="M594 1231q-82 0 -141.5 57.5t-59.5 136.5q0 80 59.5 138.5t141.5 58.5q83 0 142 -58.5t59 -138.5t-59 -137t-142 -57zM594 1296q54 0 89.5 36.5t35.5 92.5q0 57 -35.5 94t-89.5 37q-53 0 -89 -37t-36 -94q0 -55 36 -92t89 -37zM561 -16q-96 0 -181.5 36.5t-150.5 103.5
t-103 169.5t-38 226.5v17q0 121 39 225t106 174.5t156.5 110.5t188.5 40q139 0 233 -69.5t143 -179.5v233h111v-1071h-111v246q-45 -105 -152 -183.5t-241 -78.5zM571 76q78 0 147 29.5t123 85t85.5 143t31.5 194.5v17q0 215 -103.5 332.5t-268.5 117.5q-167 0 -276 -121.5
t-109 -332.5v-17q0 -212 105.5 -330t264.5 -118z" />
    <glyph glyph-name="uni0101.alt" horiz-adv-x="1232" 
d="M352 1325v86h496v-86h-496zM561 -16q-96 0 -181.5 36.5t-150.5 103.5t-103 169.5t-38 226.5v17q0 121 39 225t106 174.5t156.5 110.5t188.5 40q139 0 233 -69.5t143 -179.5v233h111v-1071h-111v246q-45 -105 -152 -183.5t-241 -78.5zM571 76q78 0 147 29.5t123 85
t85.5 143t31.5 194.5v17q0 215 -103.5 332.5t-268.5 117.5q-167 0 -276 -121.5t-109 -332.5v-17q0 -212 105.5 -330t264.5 -118z" />
    <glyph glyph-name="uni0103.alt" horiz-adv-x="1232" 
d="M598 1262q-104 0 -174 69t-76 178h90q8 -73 49.5 -115t110.5 -42q71 0 115 42t55 115h86q-6 -108 -79 -177.5t-177 -69.5zM561 -16q-96 0 -181.5 36.5t-150.5 103.5t-103 169.5t-38 226.5v17q0 121 39 225t106 174.5t156.5 110.5t188.5 40q139 0 233 -69.5t143 -179.5
v233h111v-1071h-111v246q-45 -105 -152 -183.5t-241 -78.5zM571 76q78 0 147 29.5t123 85t85.5 143t31.5 194.5v17q0 215 -103.5 332.5t-268.5 117.5q-167 0 -276 -121.5t-109 -332.5v-17q0 -212 105.5 -330t264.5 -118z" />
    <glyph glyph-name="uni0105.alt" horiz-adv-x="1232" 
d="M987 -373q-88 0 -139 42t-51 112q0 66 45 124.5t112 94.5v246q-45 -105 -152 -183.5t-241 -78.5q-96 0 -181.5 36.5t-150.5 103.5t-103 169.5t-38 226.5v17q0 121 39 225t106 174.5t156.5 110.5t188.5 40q139 0 233 -69.5t143 -179.5v233h111v-1065q-84 -53 -124 -102.5
t-40 -104.5q0 -42 25 -66t75 -24q57 0 103 21v-80q-59 -23 -117 -23zM571 76q78 0 147 29.5t123 85t85.5 143t31.5 194.5v17q0 215 -103.5 332.5t-268.5 117.5q-167 0 -276 -121.5t-109 -332.5v-17q0 -212 105.5 -330t264.5 -118z" />
    <glyph glyph-name="uni01FB.alt" horiz-adv-x="1232" 
d="M549 1698l131 250h135l-180 -250h-86zM594 1210q-82 0 -141.5 58t-59.5 137q0 80 59.5 138.5t141.5 58.5q83 0 142 -58.5t59 -138.5t-59 -137.5t-142 -57.5zM594 1276q54 0 89.5 36.5t35.5 92.5q0 57 -35.5 94t-89.5 37q-53 0 -89 -37t-36 -94q0 -55 36 -92t89 -37z
M561 -16q-96 0 -181.5 36.5t-150.5 103.5t-103 169.5t-38 226.5v17q0 121 39 225t106 174.5t156.5 110.5t188.5 40q139 0 233 -69.5t143 -179.5v233h111v-1071h-111v246q-45 -105 -152 -183.5t-241 -78.5zM571 76q78 0 147 29.5t123 85t85.5 143t31.5 194.5v17
q0 215 -103.5 332.5t-268.5 117.5q-167 0 -276 -121.5t-109 -332.5v-17q0 -212 105.5 -330t264.5 -118z" />
    <glyph glyph-name="uni0074.alt" horiz-adv-x="653" 
d="M229 0v979h-178v92h178v244h109v-244h260v-92h-260v-979h-109z" />
    <glyph glyph-name="uni0163.alt" horiz-adv-x="653" 
d="M229 0v979h-178v92h178v244h109v-244h260v-92h-260v-979h-109zM201 -418l-70 33l119 301l104 -31z" />
    <glyph glyph-name="uni0165.alt" horiz-adv-x="653" 
d="M498 1251l24 332h123l-67 -332h-80zM229 0v979h-178v92h178v244h109v-244h260v-92h-260v-979h-109z" />
    <glyph glyph-name="uni00DF.alt" horiz-adv-x="1218" 
d="M801 -14q-153 0 -246.5 83.5t-99.5 211.5h104q8 -85 70 -144t172 -59q107 0 170 58t63 165q0 31 -7 57t-26 50t-34.5 40t-50 38t-54.5 33.5t-65 35.5q-51 28 -69.5 38.5t-57.5 35.5t-54.5 41t-36.5 41.5t-28.5 52.5t-7.5 59q0 45 25 88.5t62 75.5t81 68.5t81 69t62 76.5
t25 91q0 98 -70.5 152.5t-192.5 54.5q-160 0 -250 -100t-90 -277v-1122h-108v1118q0 213 124 342t324 129q163 0 265 -80t102 -215q0 -68 -35 -126.5t-84.5 -99.5t-99 -78.5t-84.5 -79.5t-35 -85q0 -16 4 -29t15.5 -26.5t22 -23t34.5 -25t40.5 -24.5t53 -30t59.5 -34
q53 -30 85.5 -50t72.5 -52.5t62 -63t37.5 -73t15.5 -91.5q0 -148 -95.5 -232.5t-250.5 -84.5z" />
    <glyph glyph-name="uni0167.alt" horiz-adv-x="653" 
d="M51 616v82h178v281h-178v92h178v244h109v-244h260v-92h-260v-281h260v-82h-260v-616h-109v616h-178z" />
    <glyph glyph-name="uni02C7.alt" horiz-adv-x="684" 
d="M295 1251l24 332h123l-67 -332h-80z" />
    <glyph glyph-name="uni00AE.alt" horiz-adv-x="1728" 
d="M862 -18q-205 0 -377 98t-272 270.5t-100 380.5q0 154 59 293.5t159 240t240 159.5t295 59q157 0 296.5 -59t238.5 -159t157 -238t58 -292q0 -157 -59 -297t-159.5 -240t-240 -158t-295.5 -58zM862 47q137 0 261.5 52t216 142t146 219t54.5 275q0 145 -53 272t-143 216.5
t-214.5 141.5t-263.5 52t-264 -52t-216 -142.5t-144.5 -218.5t-53.5 -273q0 -146 54.5 -274.5t146.5 -217.5t215 -140.5t258 -51.5zM606 324v835h252q139 0 218 -56.5t79 -176.5v-4q0 -97 -54.5 -153.5t-146.5 -70.5l250 -374h-117l-243 360h-131v-360h-107zM713 764h143
q195 0 195 154v6q0 82 -50 116.5t-145 34.5h-143v-311z" />
    <glyph glyph-name="uni0020.tab" horiz-adv-x="614" 
 />
    <glyph glyph-name="uni0030.tab" horiz-adv-x="1228" 
d="M621 -16q-236 0 -372 155.5t-136 442.5v292q0 290 133.5 448.5t367.5 158.5t369 -156t135 -440v-297q0 -292 -130 -448t-367 -156zM621 80q194 0 288.5 124t94.5 384v299q0 239 -101.5 369t-288.5 130q-189 0 -288 -129t-99 -380v-293q0 -255 101.5 -379.5t292.5 -124.5z
" />
    <glyph glyph-name="uni0031.tab" horiz-adv-x="1228" 
d="M668 0v1341l-459 -364v108l463 379h108v-1464h-112z" />
    <glyph glyph-name="uni0032.tab" horiz-adv-x="1228" 
d="M104 0v27l588 608q120 123 175 228.5t55 221.5q0 144 -84 222.5t-228 78.5q-146 0 -237.5 -86.5t-112.5 -261.5h-106q17 206 140 324.5t316 118.5q192 0 309 -106.5t117 -293.5q0 -130 -69 -256t-207 -262l-475 -469h772v-94h-953z" />
    <glyph glyph-name="uni0033.tab" horiz-adv-x="1228" 
d="M600 -16q-216 0 -346.5 123.5t-138.5 306.5h106q13 -149 107.5 -242.5t273.5 -93.5q174 0 269.5 86t95.5 242q0 145 -85 229t-251 84h-107v96h99q150 0 224.5 77.5t74.5 201.5q0 129 -77 209.5t-220 80.5q-149 0 -243 -85t-108 -220h-100q9 171 135 286.5t316 115.5
q188 0 298.5 -111t110.5 -274q0 -118 -65.5 -203t-177.5 -119q135 -30 213.5 -125t78.5 -243q0 -196 -133 -309t-350 -113z" />
    <glyph glyph-name="uni0034.tab" horiz-adv-x="1228" 
d="M823 0v330h-733v35l688 1099h158v-1040h186v-94h-186v-330h-113zM236 424h587v952z" />
    <glyph glyph-name="uni0035.tab" horiz-adv-x="1228" 
d="M588 -16q-108 0 -195.5 31t-144.5 85t-90 124.5t-41 152.5h108q11 -65 35.5 -116.5t66.5 -94t108.5 -65.5t152.5 -23q174 0 273.5 106t99.5 291q0 171 -99.5 277t-253.5 106q-228 0 -364 -160h-41v766h798v-98h-702v-537q52 52 137 87.5t191 35.5q195 0 322.5 -130.5
t127.5 -346.5q0 -225 -136.5 -358t-352.5 -133z" />
    <glyph glyph-name="uni0036.tab" horiz-adv-x="1228" 
d="M635 -16q-135 0 -235.5 47t-159.5 132t-87 194t-28 243v107q0 197 40.5 347t114.5 242.5t173.5 138.5t222.5 46q167 0 276 -84.5t135 -249.5h-108q-25 120 -101 178.5t-208 58.5q-199 0 -314 -157t-118 -486v-59q48 118 161.5 184t247.5 66q221 0 350 -132.5t129 -336.5
q0 -215 -134.5 -347t-356.5 -132zM635 76q169 0 272 106t103 277q0 174 -99 277.5t-280 103.5q-161 0 -271 -99.5t-110 -263.5q0 -175 100 -288t285 -113z" />
    <glyph glyph-name="uni0037.tab" horiz-adv-x="1228" 
d="M385 0l559 1370h-788v94h936v-18l-590 -1446h-117z" />
    <glyph glyph-name="uni0038.tab" horiz-adv-x="1228" 
d="M616 -16q-96 0 -183 27.5t-156.5 78.5t-110.5 133.5t-41 184.5q0 148 89 248t232 137q-118 34 -189 116.5t-71 202.5q0 109 62 195t159 130t209 44q173 0 300.5 -103t127.5 -262q0 -123 -69 -204.5t-187 -118.5q146 -38 232 -135.5t86 -245.5q0 -103 -40 -186t-108 -135
t-155.5 -79.5t-186.5 -27.5zM623 834q135 0 221 74t86 208q0 119 -89 196t-225 77q-137 0 -226 -76t-89 -201q0 -129 95.5 -203.5t226.5 -74.5zM616 80q167 0 270 87t103 249q0 153 -104.5 239t-263.5 86q-160 0 -269.5 -88t-109.5 -241q0 -159 106 -245.5t268 -86.5z" />
    <glyph glyph-name="uni0039.tab" horiz-adv-x="1228" 
d="M578 -14q-182 0 -301.5 91t-149.5 259h113q55 -256 340 -256q100 0 174 32t129 103t83 190.5t29 288.5v78q-49 -113 -163.5 -176.5t-249.5 -63.5q-220 0 -349 132t-129 340q0 214 135 345.5t357 131.5q253 0 381.5 -162t128.5 -442v-168q0 -376 -135 -549.5t-393 -173.5z
M596 625q163 0 275 97t112 255q0 179 -101.5 296.5t-285.5 117.5q-169 0 -272 -106t-103 -277q0 -174 98.5 -278.5t276.5 -104.5z" />
    <glyph glyph-name="uni0028.tab" horiz-adv-x="614" 
d="M434 -303q-303 408 -303 942q0 536 303 944h111q-301 -425 -301 -944q0 -517 301 -942h-111z" />
    <glyph glyph-name="uni0029.tab" horiz-adv-x="614" 
d="M72 -303q301 425 301 942q0 519 -301 944h108q305 -406 305 -944q0 -536 -305 -942h-108z" />
    <glyph glyph-name="uni005B.tab" horiz-adv-x="614" 
d="M156 -303v1892h379v-88h-271v-1716h271v-88h-379z" />
    <glyph glyph-name="uni005D.tab" horiz-adv-x="614" 
d="M80 -303v88h270v1716h-270v88h379v-1892h-379z" />
    <glyph glyph-name="uni007B.tab" horiz-adv-x="614" 
d="M535 -299q-197 0 -282.5 95.5t-43.5 312.5l47 233q49 228 -201 264v82q250 36 201 264l-47 234q-42 217 43.5 312t282.5 95v-86q-56 -1 -96.5 -10t-73.5 -31t-47.5 -58.5t-18.5 -90.5t12 -129l49 -246q12 -51 6 -92.5t-20 -72.5t-41 -56t-58 -42.5t-71 -31.5
q40 -14 71 -31.5t58 -42.5t41 -56t20 -72.5t-6 -92.5l-49 -246q-16 -75 -11.5 -129t19.5 -90.5t47.5 -58.5t73 -31t95.5 -10v-86z" />
    <glyph glyph-name="uni007D.tab" horiz-adv-x="614" 
d="M80 -299v86q56 1 96 10t73 31t47.5 58.5t18.5 90.5t-12 129l-49 246q-12 51 -6 92.5t20 72.5t41 56t58 42.5t71 31.5q-40 14 -71 31.5t-58 42.5t-41 56t-20 72.5t6 92.5l49 246q16 75 12 129t-18.5 90.5t-47 58.5t-73 31t-96.5 10v86q197 0 282.5 -95t43.5 -312l-48 -234
q-49 -228 201 -264v-82q-250 -36 -201 -264l48 -233q42 -217 -43.5 -312.5t-282.5 -95.5z" />
    <glyph glyph-name="uni0025.tab" horiz-adv-x="1638" 
d="M420 815q-130 0 -226 91.5t-96 234.5q0 144 95.5 239t226.5 95q133 0 226 -93.5t93 -236.5q0 -146 -94 -238t-225 -92zM301 0l934 1464h102l-934 -1464h-102zM420 901q97 0 158 65t61 179q0 111 -62 177.5t-157 66.5t-157 -66.5t-62 -181.5q0 -112 62 -176t157 -64z
M1219 -14q-129 0 -224.5 92t-95.5 235q0 144 94.5 239t225.5 95q133 0 227 -94t94 -236q0 -146 -95 -238.5t-226 -92.5zM1219 74q97 0 158 64.5t61 178.5q0 111 -61 176.5t-158 65.5q-95 0 -157.5 -66t-62.5 -180q0 -112 62 -175.5t158 -63.5z" />
    <glyph glyph-name="uni2030.tab" horiz-adv-x="2048" 
d="M379 846q-119 0 -203 85.5t-84 225.5q0 143 83.5 231.5t203.5 88.5q119 0 202 -87.5t83 -228.5q0 -142 -83.5 -228.5t-201.5 -86.5zM174 0l932 1464h104l-934 -1464h-102zM379 932q81 0 133.5 63t52.5 166t-52 167.5t-134 64.5t-134 -64.5t-52 -169.5q0 -103 51.5 -165
t134.5 -62zM1008 -14q-117 0 -201 86.5t-84 226.5q0 143 83.5 231t201.5 88q120 0 202 -87t82 -228q0 -143 -83 -230t-201 -87zM1669 -14q-115 0 -199 86.5t-84 226.5q0 143 83 231t200 88q121 0 204 -87t83 -228q0 -143 -83.5 -230t-203.5 -87zM1008 72q83 0 134.5 63
t51.5 168q0 102 -52 165.5t-134 63.5q-83 0 -135 -63t-52 -168q0 -104 52 -166.5t135 -62.5zM1669 72q83 0 134.5 63t51.5 168q0 103 -51.5 166t-134.5 63q-81 0 -132.5 -63.5t-51.5 -167.5t51.5 -166.5t132.5 -62.5z" />
    <glyph glyph-name="uni002E.tab" horiz-adv-x="614" 
d="M307 -10q-35 0 -60.5 25.5t-25.5 60.5q0 37 25.5 62.5t60.5 25.5q37 0 61.5 -25.5t24.5 -62.5q0 -36 -25 -61t-61 -25z" />
    <glyph glyph-name="uni002C.tab" horiz-adv-x="614" 
d="M215 -240l-76 37l160 375l107 -49z" />
    </font>
</defs>
</svg>
