<?xml version="1.0" standalone="no"?>
<!DOCTYPE svg PUBLIC "-//W3C//DTD SVG 1.1//EN" "http://www.w3.org/Graphics/SVG/1.1/DTD/svg11.dtd" >
<svg xmlns="http://www.w3.org/2000/svg" xmlns:xlink="http://www.w3.org/1999/xlink" version="1.1">
<metadata>
Created by FontForge 20170731 at Fri Jun  4 06:59:55 2021
 By Aleksey,,,
Copyright (c) 2017 Commercial Type, Inc.. All rights reserved.
</metadata>
<defs>
<font id="GraphikTH-Medium" horiz-adv-x="0" >
  <font-face 
    font-family="Graphik TH Medium"
    font-weight="500"
    font-stretch="normal"
    units-per-em="2048"
    panose-1="2 11 6 3 3 2 2 6 2 3"
    ascent="1638"
    descent="-410"
    x-height="1071"
    cap-height="1464"
    bbox="-1335 -956 2322 2300"
    underline-thickness="135"
    underline-position="-323"
    unicode-range="U+0020-FB02"
  />
<missing-glyph horiz-adv-x="1040" 
 />
    <glyph glyph-name="uniFB00" unicode="ff" horiz-adv-x="1366" 
d="M190 0v885h-145v186h145v129q0 177 93 270t266 93q73 0 141 -21v-192q-58 20 -110 20q-72 0 -107 -42.5t-35 -115.5v-141h377v143q0 176 94 269.5t265 93.5q76 0 143 -21v-192q-52 18 -113 18q-72 0 -106.5 -42t-34.5 -115v-154h244v-186h-244v-885h-248v885h-377v-885
h-248z" />
    <glyph glyph-name="uni0E45.2" unicode="&#xe24;&#xe45;" horiz-adv-x="2162" 
d="M1194 -483h-260v1220q0 140 -71 219.5t-218 79.5q-136 0 -212.5 -65t-76.5 -160v-16h215v-146q-190 -30 -190 -213v-80q0 -174 160 -174q49 0 86 13v-187q-67 -24 -156 -24q-165 0 -256.5 85t-91.5 265v65q0 225 182 283h-205v90q0 211 142 338t409 127
q181 0 301.5 -68.5t175.5 -197.5q113 266 437 266q220 0 341.5 -119t121.5 -334v-1267h-261v1241q0 280 -260 280q-49 0 -91 -10.5t-83 -38t-70.5 -71t-48 -114.5t-20.5 -163v-1124z" />
    <glyph glyph-name="uni0E45.1" unicode="&#xe26;&#xe45;" horiz-adv-x="2168" 
d="M1198 -483h-260v1220q0 141 -70.5 220t-218.5 79q-136 0 -211.5 -65t-75.5 -160v-16h213v-146q-79 -14 -108 -66t-29 -153v-147q0 -89 -29 -148.5t-86.5 -90.5t-126.5 -42.5t-165 -9.5v194q83 5 116 31.5t33 97.5v109q0 110 29.5 171t99.5 87h-205v90q0 211 142.5 338
t408.5 127q378 0 480 -276q57 145 171 210.5t263 65.5q222 0 343.5 -118.5t121.5 -334.5v-1267h-260v1241q0 280 -263 280q-64 0 -117 -20t-97.5 -64t-70.5 -123.5t-28 -189.5v-1124z" />
    <glyph glyph-name=".notdef" horiz-adv-x="1040" 
 />
    <glyph glyph-name=".null" 
 />
    <glyph glyph-name="nonmarkingreturn" horiz-adv-x="682" 
 />
    <glyph glyph-name="uni0020" unicode=" " horiz-adv-x="487" 
 />
    <glyph glyph-name="uni0021" unicode="!" horiz-adv-x="624" 
d="M213 440l-37 1024h277l-39 -1024h-201zM311 -14q-68 0 -116 45.5t-48 111.5q0 67 48 113.5t116 46.5q69 0 117.5 -46.5t48.5 -113.5q0 -66 -48.5 -111.5t-117.5 -45.5z" />
    <glyph glyph-name="uni0022" unicode="&#x22;" horiz-adv-x="837" 
d="M143 938l-34 526h247l-34 -526h-179zM518 938l-37 526h248l-35 -526h-176z" />
    <glyph glyph-name="uni0023" unicode="#" horiz-adv-x="1089" 
d="M530 203l50 342h-170l-50 -342h-182l49 342h-157v200h188l33 226h-168v194h196l46 299h180l-43 -299h170l45 299h182l-45 -299h166v-194h-195l-32 -226h174v-200h-205l-49 -342h-183zM473 971l-33 -226h170l33 226h-170z" />
    <glyph glyph-name="uni0024" unicode="$" horiz-adv-x="1300" 
d="M586 -276v258q-128 9 -224 48.5t-155.5 104t-91 143.5t-39.5 175h254q7 -55 20 -95.5t40.5 -79.5t76.5 -63t119 -33v461q-236 40 -348.5 136.5t-112.5 285.5q0 171 126.5 287t334.5 129v184h137v-186q201 -19 318 -123.5t135 -292.5h-242q-18 95 -68.5 148.5t-142.5 68.5
v-420q243 -39 361 -135t118 -293q0 -184 -129 -309.5t-350 -140.5v-258h-137zM367 1087q0 -85 45 -131.5t174 -72.5v403q-103 -12 -161 -66.5t-58 -132.5zM950 408q0 90 -48 137t-179 76v-439q103 14 165 75t62 151z" />
    <glyph glyph-name="uni0025" unicode="%" horiz-adv-x="1640" 
d="M418 768q-151 0 -254 101t-103 253t105 254.5t254 102.5t251.5 -100.5t102.5 -252.5q0 -154 -102 -256t-254 -102zM262 0l944 1464h172l-942 -1464h-174zM420 934q72 0 113.5 50t41.5 140q0 89 -41.5 140t-113.5 51q-73 0 -115.5 -50t-42.5 -141q0 -92 42.5 -141
t115.5 -49zM1221 -20q-151 0 -253 101t-102 253t104 254t253 102q150 0 253 -100t103 -252q0 -154 -103 -256t-255 -102zM1223 145q72 0 113.5 50.5t41.5 140.5q0 89 -41.5 139.5t-113.5 50.5q-73 0 -115.5 -49.5t-42.5 -140.5q0 -92 42.5 -141.5t115.5 -49.5z" />
    <glyph glyph-name="uni0026" unicode="&#x26;" horiz-adv-x="1466" 
d="M1403 758l-240 -459l246 -299h-313l-123 150q-164 -168 -402 -168q-216 0 -348.5 113.5t-132.5 303.5q0 152 85 255.5t245 179.5q-115 150 -115 288q0 111 57 193.5t147.5 122t199.5 39.5q156 0 262 -87t106 -231q0 -241 -305 -373l258 -315l150 287h223zM547 1120
q0 -48 26.5 -97.5t83.5 -117.5q104 48 149.5 103.5t45.5 140.5q0 64 -39.5 104.5t-103.5 40.5q-71 0 -116.5 -45t-45.5 -129zM600 186q143 0 246 121l-311 379q-91 -46 -139 -105t-48 -155q0 -111 66.5 -175.5t185.5 -64.5z" />
    <glyph glyph-name="uni0027" unicode="'" horiz-adv-x="468" 
d="M143 938l-34 526h251l-34 -526h-183z" />
    <glyph glyph-name="uni0028" unicode="(" horiz-adv-x="686" 
d="M436 -303q-340 404 -340 944t340 944h217q-311 -414 -311 -944t311 -944h-217z" />
    <glyph glyph-name="uni0029" unicode=")" horiz-adv-x="686" 
d="M35 -299q309 416 309 944t-309 944h215q340 -404 340 -944t-340 -944h-215z" />
    <glyph glyph-name="uni002A" unicode="*" horiz-adv-x="878" 
d="M305 807l-158 113l175 208l-246 48l55 182l234 -103l-27 267h205l-27 -267l234 103l53 -182l-248 -48l174 -208l-156 -113l-137 242z" />
    <glyph glyph-name="uni002B" unicode="+" horiz-adv-x="1103" 
d="M449 197v405h-373v193h373v405h206v-405h375v-193h-375v-405h-206z" />
    <glyph glyph-name="uni002C" unicode="," horiz-adv-x="598" 
d="M211 -252l-154 68l187 485l235 -94z" />
    <glyph glyph-name="uni002D" unicode="-" horiz-adv-x="722" 
d="M115 469v205h491v-205h-491z" />
    <glyph glyph-name="uni002E" unicode="." horiz-adv-x="591" 
d="M295 -14q-68 0 -115 46t-47 113t47.5 114.5t114.5 47.5q69 0 116.5 -47t47.5 -115q0 -67 -47.5 -113t-116.5 -46z" />
    <glyph glyph-name="uni002F" unicode="/" horiz-adv-x="849" 
d="M-12 -303l616 1892h211l-618 -1892h-209z" />
    <glyph glyph-name="uni0030" unicode="0" horiz-adv-x="1435" 
d="M719 -20q-281 0 -448 192.5t-167 521.5v74q0 331 168 524t447 193q280 0 446 -191.5t166 -519.5v-74q0 -332 -163 -526t-449 -194zM725 197q334 0 334 503v72q0 236 -87.5 368t-250.5 132q-166 0 -254 -129t-88 -373v-74q0 -246 90 -372.5t256 -126.5z" />
    <glyph glyph-name="uni0031" unicode="1" horiz-adv-x="858" 
d="M375 0v1194l-309 -211v240l340 241h243v-1464h-274z" />
    <glyph glyph-name="uni0032" unicode="2" horiz-adv-x="1183" 
d="M31 0v49l553 584q111 117 167 217t56 199q0 104 -57 163.5t-162 59.5q-112 0 -178 -70t-84 -221h-250q13 239 150.5 371.5t369.5 132.5q225 0 354 -118t129 -314q0 -136 -73.5 -263t-212.5 -262l-326 -317h623v-211h-1059z" />
    <glyph glyph-name="uni0033" unicode="3" horiz-adv-x="1275" 
d="M623 -20q-255 0 -398.5 128.5t-152.5 344.5h247q11 -123 83.5 -196t213.5 -73q139 0 209 63t70 175q0 240 -264 240h-113v194h105q243 0 243 215q0 93 -58.5 150t-168.5 57q-116 0 -188 -65.5t-84 -176.5h-242q11 196 150 322.5t368 126.5q222 0 352.5 -112.5
t130.5 -280.5q0 -231 -237 -320q131 -30 206.5 -120.5t75.5 -233.5q0 -202 -148 -320t-400 -118z" />
    <glyph glyph-name="uni0034" unicode="4" horiz-adv-x="1312" 
d="M788 0v297h-725v96l648 1071h342v-964h196v-203h-196v-297h-265zM354 500h439v757z" />
    <glyph glyph-name="uni0035" unicode="5" horiz-adv-x="1236" 
d="M596 -20q-247 0 -378 120.5t-144 319.5h254q19 -113 77 -171.5t189 -58.5q125 0 194.5 80t69.5 217q0 132 -71.5 210.5t-192.5 78.5q-195 0 -305 -127h-139l12 815h889v-215h-680l-2 -397q106 123 315 123q201 0 326 -132.5t125 -359.5q0 -229 -150 -366t-389 -137z" />
    <glyph glyph-name="uni0036" unicode="6" horiz-adv-x="1312" 
d="M678 -20q-155 0 -268.5 52t-179 147t-96 215.5t-30.5 271.5v34q0 187 45.5 336.5t127 247t192 149.5t242.5 52q202 0 326.5 -98.5t150.5 -288.5h-254q-22 88 -73 132t-152 44q-150 0 -239 -131t-95 -377q53 88 144.5 138t217.5 50q212 0 347 -132t135 -345
q0 -224 -147 -360.5t-394 -136.5zM674 180q123 0 198.5 80t75.5 211q0 133 -74.5 214t-199.5 81q-124 0 -203.5 -78.5t-79.5 -200.5q0 -144 78 -225.5t205 -81.5z" />
    <glyph glyph-name="uni0037" unicode="7" horiz-adv-x="1116" 
d="M270 0l471 1243h-682v221h1024v-32l-532 -1432h-281z" />
    <glyph glyph-name="uni0038" unicode="8" horiz-adv-x="1284" 
d="M643 -20q-149 0 -271.5 47.5t-200 148t-77.5 238.5q0 136 74 232t201 140q-103 40 -160 119.5t-57 186.5q0 119 70.5 210.5t181 137t239.5 45.5q132 0 243 -46t179 -136t68 -207q0 -213 -218 -308q131 -46 202 -140t71 -226q0 -105 -43.5 -190.5t-118.5 -139.5t-173 -83
t-210 -29zM647 866q101 0 164 57.5t63 155.5q0 93 -65.5 151t-165.5 58q-99 0 -165 -57.5t-66 -153.5q0 -97 68 -154t167 -57zM643 184q121 0 196.5 67t75.5 187q0 118 -76 184t-194 66t-197 -67t-79 -185t79 -185t195 -67z" />
    <glyph glyph-name="uni0039" unicode="9" horiz-adv-x="1314" 
d="M618 -18q-222 0 -354 104t-158 295h256q22 -92 80.5 -140t171.5 -48q158 0 240.5 126t85.5 375q-113 -184 -360 -184q-215 0 -350.5 130t-135.5 345q0 226 147 364t396 138q282 0 426.5 -178.5t144.5 -501.5v-76q0 -360 -153.5 -554.5t-436.5 -194.5zM637 700
q125 0 204 76t79 197q0 145 -78.5 228t-206.5 83q-123 0 -198 -80t-75 -211q0 -133 75 -213t200 -80z" />
    <glyph glyph-name="uni003A" unicode=":" horiz-adv-x="608" 
d="M303 584q-68 0 -115 47t-47 114t47 113.5t115 46.5q69 0 116.5 -46.5t47.5 -113.5q0 -68 -47.5 -114.5t-116.5 -46.5zM303 -14q-68 0 -115 46t-47 113t47.5 114.5t114.5 47.5q69 0 116.5 -47t47.5 -115q0 -67 -47.5 -113t-116.5 -46z" />
    <glyph glyph-name="uni003B" unicode=";" horiz-adv-x="620" 
d="M334 584q-69 0 -116.5 46.5t-47.5 114.5q0 67 47.5 113.5t116.5 46.5q68 0 116 -46.5t48 -113.5t-48 -114t-116 -47zM186 -252l-151 68l186 485l234 -94z" />
    <glyph glyph-name="uni003C" unicode="&#x3c;" horiz-adv-x="1038" 
d="M915 166l-815 467v53l815 467v-229l-479 -262l479 -269v-227z" />
    <glyph glyph-name="uni003D" unicode="=" horiz-adv-x="1050" 
d="M80 760v188h889v-188h-889zM80 379v186h889v-186h-889z" />
    <glyph glyph-name="uni003E" unicode="&#x3e;" horiz-adv-x="1038" 
d="M123 166v231l479 262l-479 269v227l817 -469v-51z" />
    <glyph glyph-name="uni003F" unicode="?" horiz-adv-x="1056" 
d="M358 440v78q0 39 7 74.5t26 70.5t32 57.5t46 58t45.5 48l50.5 50.5t56 57.5t43 51.5t35 61t10 61q0 81 -46 126.5t-137 45.5q-95 0 -156.5 -62.5t-72.5 -168.5h-238q10 200 141.5 318t338.5 118q210 0 320 -100.5t110 -258.5q0 -52 -14 -98t-43.5 -88.5t-55 -71.5
t-68.5 -71q-6 -5 -28.5 -27t-29 -28t-26.5 -26t-27 -28.5t-22.5 -27t-21.5 -29.5t-16.5 -28.5t-15 -31.5t-8.5 -31t-5 -34v-66h-230zM471 -14q-69 0 -118.5 45.5t-49.5 111.5q0 67 49.5 113.5t118.5 46.5q68 0 116 -46.5t48 -113.5q0 -66 -48 -111.5t-116 -45.5z" />
    <glyph glyph-name="uni0040" unicode="@" horiz-adv-x="1878" 
d="M942 -309q-161 0 -300.5 43.5t-241.5 121t-175 182.5t-109 229t-36 259q0 152 46.5 290t130.5 245t195 186.5t245 121.5t276 42q180 0 334.5 -56.5t262.5 -155t169 -237t61 -298.5q0 -114 -25 -206.5t-65.5 -153.5t-94 -102t-109.5 -59t-113 -18q-123 0 -184 43.5
t-79 128.5q-44 -82 -121 -132t-171 -50q-152 0 -242 98.5t-90 267.5q0 208 116.5 342.5t286.5 134.5q181 0 240 -133l14 117h221l-63 -532q-21 -152 94 -152q96 0 163 101.5t67 302.5q0 277 -180 444.5t-492 167.5q-155 0 -289.5 -54.5t-231.5 -151.5t-152.5 -237.5
t-55.5 -304.5q0 -144 45 -269.5t130 -221.5t220.5 -151.5t304.5 -55.5q306 0 500 172h170q-89 -140 -269 -224.5t-403 -84.5zM899 289q90 0 156.5 81t66.5 216q0 96 -47 146t-135 50t-147.5 -80.5t-59.5 -214.5q0 -90 45.5 -144t120.5 -54z" />
    <glyph glyph-name="uni0041" unicode="A" horiz-adv-x="1439" 
d="M55 0l490 1464h356l483 -1464h-282l-117 362h-559l-115 -362h-256zM707 1241l-218 -680h433z" />
    <glyph glyph-name="uni0042" unicode="B" horiz-adv-x="1320" 
d="M168 0v1464h524q479 0 479 -381v-8q0 -240 -231 -311q150 -32 221.5 -116t71.5 -230v-8q0 -202 -129 -306t-373 -104h-563zM434 848h225q134 0 192 51t58 164v8q0 104 -61.5 151.5t-192.5 47.5h-221v-422zM434 195h264q267 0 267 233v8q0 116 -68 172t-217 56h-246v-469z
" />
    <glyph glyph-name="uni0043" unicode="C" horiz-adv-x="1517" 
d="M809 -20q-340 0 -527.5 200t-187.5 543v16q0 216 92.5 387.5t254.5 266t364 94.5q171 0 305 -55t221 -172.5t103 -284.5h-277q-24 148 -109 221.5t-241 73.5q-195 0 -310.5 -142t-115.5 -387v-16q0 -248 113 -386t315 -138q156 0 255 78.5t120 230.5h266
q-32 -258 -203 -394t-438 -136z" />
    <glyph glyph-name="uni0044" unicode="D" horiz-adv-x="1462" 
d="M168 0v1464h444q188 0 333 -51.5t237.5 -147t140 -226t47.5 -291.5v-19q0 -162 -47.5 -294t-140 -230t-239 -151.5t-335.5 -53.5h-440zM440 215h160q242 0 363.5 132.5t121.5 379.5v16q0 506 -487 506h-158v-1034z" />
    <glyph glyph-name="uni0045" unicode="E" horiz-adv-x="1196" 
d="M168 0v1464h915v-215h-643v-401h516v-205h-516v-428h678v-215h-950z" />
    <glyph glyph-name="uni0046" unicode="F" horiz-adv-x="1144" 
d="M168 0v1464h907v-217h-635v-436h500v-211h-500v-600h-272z" />
    <glyph glyph-name="uni0047" unicode="G" horiz-adv-x="1587" 
d="M825 -20q-229 0 -396 96t-251 262.5t-84 384.5v16q0 215 93 386t260 266.5t378 95.5q121 0 226 -28.5t191.5 -86.5t143 -155t70.5 -224h-272q-24 142 -116 210.5t-239 68.5q-213 0 -332.5 -145t-119.5 -390v-16q0 -243 114.5 -385.5t337.5 -142.5q100 0 176 28.5
t122.5 79.5t70.5 116t27 144h-369v205h637v-135q0 -304 -178.5 -477.5t-489.5 -173.5z" />
    <glyph glyph-name="uni0048" unicode="H" horiz-adv-x="1538" 
d="M168 0v1464h272v-622h658v622h274v-1464h-274v623h-658v-623h-272z" />
    <glyph glyph-name="uni0049" unicode="I" horiz-adv-x="628" 
d="M176 0v1464h275v-1464h-275z" />
    <glyph glyph-name="uni004A" unicode="J" horiz-adv-x="907" 
d="M303 -18q-148 0 -229 43v213q94 -37 188 -37q219 0 219 250v1013h275v-1020q0 -230 -121.5 -346t-331.5 -116z" />
    <glyph glyph-name="uni004B" unicode="K" horiz-adv-x="1349" 
d="M168 0v1464h272v-663l561 665h293l-606 -700l637 -766h-321l-564 684v-684h-272z" />
    <glyph glyph-name="uni004C" unicode="L" horiz-adv-x="1128" 
d="M168 0v1464h272v-1247h625v-217h-897z" />
    <glyph glyph-name="uni004D" unicode="M" horiz-adv-x="1822" 
d="M168 0v1464h364l386 -999l376 999h361v-1464h-273v1106l-436 -1106h-88l-444 1106v-1106h-246z" />
    <glyph glyph-name="uni004E" unicode="N" horiz-adv-x="1525" 
d="M168 0v1464h326l616 -1058v1058h248v-1464h-283l-659 1122v-1122h-248z" />
    <glyph glyph-name="uni004F" unicode="O" horiz-adv-x="1667" 
d="M836 -20q-220 0 -390 97.5t-261 266.5t-91 379v16q0 159 55.5 297t152.5 237t235.5 155.5t298.5 56.5q215 0 383.5 -95t261 -263.5t92.5 -381.5v-16q0 -213 -90.5 -383t-259.5 -268t-387 -98zM840 199q206 0 328 144.5t122 383.5v16q0 151 -53 269.5t-157 187t-244 68.5
q-213 0 -335 -144t-122 -383v-16q0 -237 129.5 -381.5t331.5 -144.5z" />
    <glyph glyph-name="uni0050" unicode="P" horiz-adv-x="1247" 
d="M168 0v1464h471q254 0 398.5 -114t144.5 -338v-8q0 -113 -39.5 -199.5t-112 -140t-169.5 -80.5t-216 -27h-205v-557h-272zM440 754h199q135 0 205.5 64t70.5 186v8q0 126 -70.5 183.5t-205.5 57.5h-199v-499z" />
    <glyph glyph-name="uni0051" unicode="Q" horiz-adv-x="1667" 
d="M1319 -186l-201 215q-133 -49 -282 -49q-220 0 -390 97.5t-261 266.5t-91 379v16q0 212 94.5 381.5t264 266t383.5 96.5q215 0 384 -95t262 -263t93 -380v-16q0 -180 -66.5 -330t-187.5 -252l162 -174zM838 195q62 0 114 12l-143 155l166 156l180 -194q135 148 135 405
v16q0 231 -121.5 377t-332.5 146q-214 0 -336.5 -144t-122.5 -383v-16q0 -242 129.5 -386t331.5 -144z" />
    <glyph glyph-name="uni0052" unicode="R" horiz-adv-x="1341" 
d="M168 0v1464h491q123 0 221.5 -25.5t172 -77t113.5 -134.5t40 -193v-8q0 -162 -88.5 -258.5t-236.5 -134.5l411 -633h-295l-383 592h-174v-592h-272zM440 786h219q279 0 279 234v8q0 121 -71 173t-208 52h-219v-467z" />
    <glyph glyph-name="uni0053" unicode="S" horiz-adv-x="1300" 
d="M666 -20q-146 0 -257 35t-180 99.5t-106 149.5t-45 191h262q6 -48 17 -85t34.5 -73.5t58 -60t89.5 -38t127 -14.5q122 0 199 62.5t77 163.5q0 102 -63.5 149t-241.5 76q-271 36 -393.5 132t-122.5 296q0 182 142 301t368 119q238 0 374 -107.5t158 -316.5h-250
q-20 115 -87.5 167t-194.5 52q-121 0 -186.5 -53t-65.5 -140q0 -48 11.5 -79.5t44.5 -58.5t92.5 -45t154.5 -32q108 -15 187 -35.5t144.5 -54.5t106 -81t62.5 -113.5t22 -153.5q0 -194 -149.5 -323t-388.5 -129z" />
    <glyph glyph-name="uni0054" unicode="T" horiz-adv-x="1193" 
d="M461 0v1249h-408v215h1090v-215h-408v-1249h-274z" />
    <glyph glyph-name="uni0055" unicode="U" horiz-adv-x="1480" 
d="M731 -20q-277 0 -426 148t-149 429v907h274v-886q0 -202 70.5 -290.5t232.5 -88.5q165 0 241.5 88.5t76.5 308.5v868h274v-891q0 -288 -152 -440.5t-442 -152.5z" />
    <glyph glyph-name="uni0056" unicode="V" horiz-adv-x="1398" 
d="M541 0l-494 1464h285l381 -1188l383 1188h256l-496 -1464h-315z" />
    <glyph glyph-name="uni0057" unicode="W" horiz-adv-x="1955" 
d="M418 0l-365 1464h279l254 -1075l284 1075h226l290 -1081l263 1081h254l-367 -1464h-272l-289 1067l-297 -1067h-260z" />
    <glyph glyph-name="uni0058" unicode="X" horiz-adv-x="1423" 
d="M74 0l471 752l-439 712h308l311 -520l309 520h281l-432 -706l469 -758h-312l-344 571l-344 -571h-278z" />
    <glyph glyph-name="uni0059" unicode="Y" horiz-adv-x="1288" 
d="M520 0v635l-485 829h301l330 -606l321 606h266l-458 -831v-633h-275z" />
    <glyph glyph-name="uni005A" unicode="Z" horiz-adv-x="1245" 
d="M45 0v37l748 1212h-672v215h1057v-34l-732 -1211h711v-219h-1112z" />
    <glyph glyph-name="uni005B" unicode="[" horiz-adv-x="772" 
d="M162 -303v1892h524v-186h-274v-1520h274v-186h-524z" />
    <glyph glyph-name="uni005C" unicode="\" horiz-adv-x="849" 
d="M653 -303l-616 1892h209l616 -1892h-209z" />
    <glyph glyph-name="uni005D" unicode="]" horiz-adv-x="772" 
d="M86 -303v186h274v1520h-274v186h524v-1892h-524z" />
    <glyph glyph-name="uni005E" unicode="^" horiz-adv-x="1056" 
d="M74 823l340 641h231l340 -641h-229l-230 437l-231 -437h-221z" />
    <glyph glyph-name="uni005F" unicode="_" horiz-adv-x="839" 
d="M-2 -326v152h844v-152h-844z" />
    <glyph glyph-name="uni0060" unicode="`" horiz-adv-x="819" 
d="M334 1231l-213 317h274l121 -317h-182z" />
    <glyph glyph-name="uni0061" unicode="a" horiz-adv-x="1136" 
d="M428 -20q-158 0 -258 79t-100 238q0 91 41.5 158t118 106t173 57.5t215.5 18.5h134v55q0 111 -44.5 163t-150.5 52q-186 0 -205 -168h-239q6 73 32.5 132.5t68 100.5t98 69t121.5 40.5t138 12.5q94 0 169 -20.5t134.5 -65t92 -122t32.5 -184.5v-702h-243v131
q-56 -74 -133.5 -112.5t-194.5 -38.5zM487 158q117 0 191 58t74 159v106h-127q-150 0 -230 -40t-80 -134q0 -149 172 -149z" />
    <glyph glyph-name="uni0062" unicode="b" horiz-adv-x="1296" 
d="M745 -20q-123 0 -214 53t-136 139v-172h-248v1567h248v-668q47 82 142 138.5t208 56.5q207 0 341.5 -146t134.5 -399v-17q0 -254 -132.5 -403t-343.5 -149zM684 176q137 0 210 90.5t73 261.5v17q0 172 -79 263t-206 91q-134 0 -214.5 -90.5t-80.5 -263.5v-17
q0 -175 79 -263.5t218 -88.5z" />
    <glyph glyph-name="uni0063" unicode="c" horiz-adv-x="1177" 
d="M616 -20q-154 0 -275.5 63t-193 187.5t-71.5 291.5v17q0 166 73 293.5t195 194.5t272 67q93 0 173.5 -22t149 -68t113 -125.5t54.5 -186.5h-240q-14 104 -78.5 153.5t-166.5 49.5q-130 0 -210.5 -94.5t-80.5 -257.5v-17q0 -172 79 -264t218 -92q103 0 175.5 59.5
t82.5 169.5h227q-14 -187 -147.5 -303t-348.5 -116z" />
    <glyph glyph-name="uni0064" unicode="d" horiz-adv-x="1296" 
d="M549 -20q-101 0 -187 35.5t-149 102.5t-99 169.5t-36 230.5v17q0 253 134.5 406t346.5 153q124 0 209 -50.5t133 -136.5v660h248v-1567h-248v180q-45 -84 -141.5 -142t-210.5 -58zM610 176q135 0 217 90t82 264v17q0 174 -75.5 263t-212.5 89t-213 -93t-76 -265v-17
q0 -171 76.5 -259.5t201.5 -88.5z" />
    <glyph glyph-name="uni0065" unicode="e" horiz-adv-x="1187" 
d="M618 -20q-240 0 -391 147t-151 397v17q0 246 150.5 399.5t381.5 153.5q82 0 155 -19t138 -61.5t112 -104.5t74 -153t27 -203v-72h-784q6 -153 82 -235t213 -82q217 0 245 164h240q-26 -167 -155.5 -257.5t-336.5 -90.5zM334 647h534q-17 266 -260 266
q-112 0 -183.5 -70.5t-90.5 -195.5z" />
    <glyph glyph-name="uni0066" unicode="f" horiz-adv-x="741" 
d="M190 0v885h-145v186h145v143q0 176 94 269.5t267 93.5q73 0 141 -21v-192q-52 18 -112 18q-72 0 -107 -42t-35 -115v-154h244v-186h-244v-885h-248z" />
    <glyph glyph-name="uni0067" unicode="g" horiz-adv-x="1296" 
d="M604 -393q-240 0 -366.5 96t-149.5 260h250q32 -168 264 -168q146 0 222.5 72.5t76.5 216.5v158q-48 -83 -143 -141t-207 -58q-205 0 -340 141t-135 369v14q0 226 137 376.5t344 150.5q236 0 344 -187v164h248v-991q-1 -232 -146 -352.5t-399 -120.5zM612 233
q131 0 214 88.5t83 239.5v14q0 152 -77 238t-211 86q-136 0 -213.5 -89.5t-77.5 -238.5v-16q0 -146 79.5 -234t202.5 -88z" />
    <glyph glyph-name="uni0068" unicode="h" horiz-adv-x="1245" 
d="M147 0v1567h248v-666q41 84 131 138.5t215 54.5q169 0 268 -103.5t99 -316.5v-674h-248v651q0 122 -51.5 179t-161.5 57t-181 -66.5t-71 -189.5v-631h-248z" />
    <glyph glyph-name="uni0069" unicode="i" horiz-adv-x="555" 
d="M274 1247q-62 0 -104.5 41t-42.5 101q0 61 42.5 102t104.5 41t105 -41t43 -102q0 -60 -43 -101t-105 -41zM154 0v1071h247v-1071h-247z" />
    <glyph glyph-name="uni006A" unicode="j" horiz-adv-x="555" 
d="M274 1247q-62 0 -104.5 41t-42.5 101q0 61 42.5 102t104.5 41t105 -41t43 -102q0 -60 -43 -101t-105 -41zM6 -385v190q79 6 113.5 44t34.5 108v1114h247v-1108q0 -171 -90.5 -258t-304.5 -90z" />
    <glyph glyph-name="uni006B" unicode="k" horiz-adv-x="1105" 
d="M147 0v1567h248v-967l383 471h271l-416 -491l450 -580h-286l-402 526v-526h-248z" />
    <glyph glyph-name="uni006C" unicode="l" horiz-adv-x="555" 
d="M154 0v1567h247v-1567h-247z" />
    <glyph glyph-name="uni006D" unicode="m" horiz-adv-x="1880" 
d="M147 0v1071h248v-164q41 80 127 133.5t199 53.5q107 0 185.5 -48t117.5 -145q59 95 157.5 144t204.5 49q76 0 139.5 -24t113 -73t77 -130.5t27.5 -188.5v-678h-248v662q0 225 -190 225q-99 0 -167.5 -64.5t-68.5 -181.5v-641h-248v662q0 225 -190 225q-99 0 -167.5 -64.5
t-68.5 -181.5v-641h-248z" />
    <glyph glyph-name="uni006E" unicode="n" horiz-adv-x="1245" 
d="M147 0v1071h248v-170q41 84 131 138.5t215 54.5q169 0 268 -103.5t99 -316.5v-674h-248v651q0 122 -51.5 179t-161.5 57t-181 -66.5t-71 -189.5v-631h-248z" />
    <glyph glyph-name="uni006F" unicode="o" horiz-adv-x="1251" 
d="M625 -20q-239 0 -394 151t-155 393v17q0 246 156 399.5t395 153.5q238 0 393.5 -152t155.5 -395v-17q0 -247 -155.5 -398.5t-395.5 -151.5zM627 172q138 0 216.5 95.5t78.5 260.5v15q0 166 -78.5 261t-216.5 95t-217.5 -94.5t-79.5 -259.5v-17q0 -165 78.5 -260.5
t218.5 -95.5z" />
    <glyph glyph-name="uni0070" unicode="p" horiz-adv-x="1296" 
d="M147 -367v1438h248v-172q47 82 142 138.5t208 56.5q207 0 341.5 -146t134.5 -399v-17q0 -254 -132.5 -403t-343.5 -149q-122 0 -213.5 52.5t-136.5 135.5v-535h-248zM684 176q137 0 210 90.5t73 261.5v17q0 172 -79 263t-206 91q-134 0 -214.5 -90.5t-80.5 -263.5v-17
q0 -175 79 -263.5t218 -88.5z" />
    <glyph glyph-name="uni0071" unicode="q" horiz-adv-x="1296" 
d="M901 -367v543q-45 -81 -142 -138.5t-210 -57.5q-101 0 -187 35.5t-149 102.5t-99 169.5t-36 230.5v17q0 253 134.5 406t346.5 153q124 0 209 -50.5t133 -136.5v164h248v-1438h-248zM610 176q135 0 217 90t82 264v17q0 174 -75.5 263t-212.5 89t-213 -93t-76 -265v-17
q0 -171 76.5 -259.5t201.5 -88.5z" />
    <glyph glyph-name="uni0072" unicode="r" horiz-adv-x="813" 
d="M147 0v1071h248v-201q54 106 136 161t212 56v-231q-173 -2 -260.5 -69t-87.5 -230v-557h-248z" />
    <glyph glyph-name="uni0073" unicode="s" horiz-adv-x="1011" 
d="M514 -20q-207 0 -324 92t-124 262h233q9 -86 58.5 -129t154.5 -43q193 0 193 137q0 63 -52.5 94.5t-177.5 52.5q-214 34 -300.5 105.5t-86.5 220.5q0 103 59.5 178t148.5 109.5t193 34.5q384 0 420 -324h-229q-15 74 -60.5 108.5t-130.5 34.5q-79 0 -124.5 -34.5
t-45.5 -92.5t47 -86.5t175 -50.5q103 -16 170.5 -36t123 -56.5t81.5 -94t26 -140.5q0 -163 -111.5 -252.5t-316.5 -89.5z" />
    <glyph glyph-name="uni0074" unicode="t" horiz-adv-x="755" 
d="M512 -18q-159 0 -241.5 82t-82.5 235v586h-143v186h143v236h248v-236h236v-186h-236v-563q0 -138 123 -138q69 0 121 21v-197q-72 -26 -168 -26z" />
    <glyph glyph-name="uni0075" unicode="u" horiz-adv-x="1239" 
d="M506 -20q-168 0 -268.5 100.5t-100.5 304.5v686h248v-657q0 -121 51.5 -178.5t159.5 -57.5q106 0 178 67t72 189v637h248v-1071h-248v168q-43 -84 -129.5 -136t-210.5 -52z" />
    <glyph glyph-name="uni0076" unicode="v" horiz-adv-x="1140" 
d="M428 0l-391 1071h266l281 -817l276 817h244l-387 -1071h-289z" />
    <glyph glyph-name="uni0077" unicode="w" horiz-adv-x="1667" 
d="M369 0l-328 1071h264l213 -774l227 774h207l209 -774l223 774h242l-336 -1071h-252l-198 721l-217 -721h-254z" />
    <glyph glyph-name="uni0078" unicode="x" horiz-adv-x="1138" 
d="M43 0l373 549l-348 522h286l224 -346l221 346h260l-346 -504l383 -567h-289l-250 387l-256 -387h-258z" />
    <glyph glyph-name="uni0079" unicode="y" horiz-adv-x="1132" 
d="M266 -367l195 476l-424 962h268l285 -690l262 690h242l-584 -1438h-244z" />
    <glyph glyph-name="uni007A" unicode="z" horiz-adv-x="1009" 
d="M35 0v29l567 845h-512v197h879v-35l-566 -837h549v-199h-917z" />
    <glyph glyph-name="uni007B" unicode="{" horiz-adv-x="811" 
d="M725 -301q-267 0 -384 106t-77 338l35 197q17 93 -37 155t-188 62v178q133 0 187.5 62.5t37.5 154.5l-35 197q-40 235 76.5 339.5t384.5 104.5v-182q-142 -3 -192 -58.5t-29 -201.5l35 -225q17 -107 -39.5 -179.5t-165.5 -99.5q110 -25 166 -97.5t39 -180.5l-35 -224
q-21 -147 29.5 -204t191.5 -60v-182z" />
    <glyph glyph-name="uni007C" unicode="|" horiz-adv-x="530" 
d="M172 -303v1892h184v-1892h-184z" />
    <glyph glyph-name="uni007D" unicode="}" horiz-adv-x="811" 
d="M86 -301v182q140 3 191 60t28 204l-33 224q-17 108 39 180.5t166 97.5q-110 27 -166 99t-39 180l33 225q23 145 -27.5 201t-191.5 59v182q268 0 384.5 -104.5t76.5 -339.5l-35 -197q-17 -92 37 -154.5t186 -62.5v-178q-132 0 -185.5 -62t-37.5 -155l35 -197
q40 -232 -77 -338t-384 -106z" />
    <glyph glyph-name="uni007E" unicode="~" horiz-adv-x="970" 
d="M78 451q10 157 81 237t169 80q60 0 119.5 -24.5t105.5 -49t72 -24.5q37 0 62.5 26.5t29.5 75.5h176q-7 -153 -79 -236t-167 -83q-49 0 -98 15.5t-81 34.5t-65.5 34.5t-56.5 15.5q-37 0 -61.5 -26.5t-30.5 -75.5h-176z" />
    <glyph glyph-name="uni00A0" unicode="&#xa0;" horiz-adv-x="487" 
 />
    <glyph glyph-name="uni00A1" unicode="&#xa1;" horiz-adv-x="626" 
d="M313 922q-68 0 -117 46t-49 113q0 66 49 112t117 46t117 -46t49 -112q0 -67 -49 -113t-117 -46zM174 -240l39 1024h199l39 -1024h-277z" />
    <glyph glyph-name="uni00A2" unicode="&#xa2;" horiz-adv-x="1181" 
d="M553 -276v260q-214 21 -345.5 164t-131.5 376v17q0 228 134.5 376.5t342.5 172.5v198h137v-198q83 -7 154 -33.5t129 -74t95.5 -121.5t47.5 -169h-233q-13 87 -64 138t-129 67v-729q86 16 143 75.5t66 155.5h223q-14 -172 -130 -285t-302 -130v-260h-137zM326 524
q0 -148 60 -238t167 -114v723q-104 -25 -165.5 -117.5t-61.5 -236.5v-17z" />
    <glyph glyph-name="uni00A3" unicode="&#xa3;" horiz-adv-x="1269" 
d="M86 623v174h123q-33 136 -33 245q0 132 66 233.5t178 154.5t252 53q225 0 349 -114.5t138 -313.5h-256q-19 111 -71 164t-154 53t-164.5 -66t-62.5 -174q0 -98 26 -235h408v-174h-373q20 -110 20 -209q0 -62 -24 -129q42 -11 103.5 -34t106 -36.5t77.5 -13.5
q75 0 116 35.5t47 117.5h240q-9 -167 -103 -269.5t-255 -102.5q-81 0 -169 30t-160.5 60t-115.5 30q-56 0 -86 -29.5t-35 -72.5h-213q5 64 28 121.5t71.5 106t115.5 67.5q21 61 21 121q0 78 -37 207h-174z" />
    <glyph glyph-name="uni00A5" unicode="&#xa5;" horiz-adv-x="1236" 
d="M156 586v129h305l-418 749h297l301 -590l289 590h262l-393 -749h307v-129h-340v-137h340v-132h-340v-317h-270v317h-340v132h340v137h-340z" />
    <glyph glyph-name="uni00A6" unicode="&#xa6;" horiz-adv-x="540" 
d="M172 756v833h184v-833h-184zM172 -303v915h184v-915h-184z" />
    <glyph glyph-name="uni00A7" unicode="&#xa7;" horiz-adv-x="1157" 
d="M565 -281q-188 0 -297.5 93t-113.5 258h237q6 -81 47.5 -123.5t128.5 -42.5q85 0 128.5 41t43.5 108q0 68 -53.5 107t-206.5 76q-100 24 -170 53t-126.5 71.5t-84.5 103t-28 140.5q0 100 60.5 172t166.5 105q-113 90 -113 252q0 155 118.5 252.5t289.5 97.5
q185 0 291 -90t112 -252h-235q-6 77 -45 117t-125 40q-85 0 -127.5 -42t-42.5 -109q0 -69 49.5 -105.5t200.5 -74.5q81 -20 139 -39.5t114.5 -50t90.5 -68t55 -91.5t21 -122q0 -93 -60.5 -167.5t-165.5 -111.5q111 -88 111 -249q0 -150 -117.5 -249.5t-292.5 -99.5zM702 410
q146 36 146 155q0 69 -53.5 105t-182.5 73l-157 45q-67 -14 -105.5 -55t-38.5 -100q0 -65 55 -102.5t183 -73.5z" />
    <glyph glyph-name="uni00A8" unicode="&#xa8;" horiz-adv-x="819" 
d="M207 1255q-56 0 -95.5 39.5t-39.5 94.5q0 54 40 93.5t95 39.5t95 -39.5t40 -93.5q0 -55 -39.5 -94.5t-95.5 -39.5zM612 1255q-57 0 -96 39t-39 95q0 55 39.5 94t95.5 39q55 0 95.5 -39.5t40.5 -93.5q0 -55 -40 -94.5t-96 -39.5z" />
    <glyph glyph-name="uni00A9" unicode="&#xa9;" horiz-adv-x="1726" 
d="M862 -27q-209 0 -384.5 99t-277.5 273.5t-102 385.5q0 156 60 297t162.5 242.5t245 161t300.5 59.5q160 0 302 -59t243 -160t160 -241t59 -296q0 -159 -60 -301t-163 -242.5t-245 -159.5t-300 -59zM862 66q131 0 251 49.5t210 135.5t143.5 212.5t53.5 271.5
q0 143 -52 268t-140.5 211t-208.5 135.5t-253 49.5q-181 0 -331 -84t-238 -238t-88 -346q0 -145 53 -270.5t142.5 -211.5t208.5 -134.5t249 -48.5zM870 313q-195 0 -302 110.5t-107 299.5v16q0 184 114 298t291 114q155 0 253 -76t110 -223h-197q-21 143 -166 143
q-93 0 -146.5 -66.5t-53.5 -189.5v-14q0 -123 52 -188.5t150 -65.5q75 0 123.5 38.5t57.5 113.5h188q-12 -150 -111 -230t-256 -80z" />
    <glyph glyph-name="uni00AA" unicode="&#xaa;" horiz-adv-x="909" 
d="M346 592q-126 0 -206.5 63.5t-80.5 190.5q0 270 441 270h104v45q0 79 -33.5 117.5t-109.5 38.5q-134 0 -154 -121h-213q10 142 113 214.5t264 72.5q166 0 260 -76t94 -242v-555h-219v103q-85 -121 -260 -121zM410 754q86 0 140 41t54 114v76h-98q-223 0 -223 -125
q0 -106 127 -106z" />
    <glyph glyph-name="uni00AB" unicode="&#xab;" horiz-adv-x="1007" 
d="M360 160l-262 375l262 374h195l-252 -374l252 -375h-195zM727 160l-262 375l262 374h195l-252 -374l252 -375h-195z" />
    <glyph glyph-name="uni00AE" unicode="&#xae;" horiz-adv-x="1054" 
d="M528 575q-193 0 -326.5 131t-133.5 322q0 124 60.5 229t166.5 166.5t233 61.5q194 0 326.5 -132.5t132.5 -322.5q0 -192 -133.5 -323.5t-325.5 -131.5zM528 653q160 0 267.5 106t107.5 271q0 166 -105.5 271.5t-269.5 105.5q-165 0 -270.5 -106t-105.5 -273
q0 -166 107.5 -270.5t268.5 -104.5zM365 811v449h167q85 0 132 -35.5t47 -104.5v-2q0 -89 -86 -121l112 -186h-121l-98 166h-39v-166h-114zM479 1055h49q70 0 70 57v2q0 57 -70 57h-49v-116z" />
    <glyph glyph-name="uni00AF" unicode="&#xaf;" horiz-adv-x="819" 
d="M123 1298v160h573v-160h-573z" />
    <glyph glyph-name="uni00B0" unicode="&#xb0;" horiz-adv-x="894" 
d="M449 811q-144 0 -245.5 98.5t-101.5 235.5q0 140 101.5 239t245.5 99q142 0 243 -99t101 -239q0 -137 -101 -235.5t-243 -98.5zM449 940q81 0 132.5 59t51.5 146q0 90 -51.5 149.5t-132.5 59.5q-83 0 -137 -59.5t-54 -149.5q0 -87 54 -146t137 -59z" />
    <glyph glyph-name="uni00B1" unicode="&#xb1;" horiz-adv-x="1103" 
d="M449 322v358h-373v192h373v361h206v-361h375v-192h-375v-358h-206zM76 0v182h956v-182h-956z" />
    <glyph glyph-name="uni00B2" unicode="&#xb2;" horiz-adv-x="641" 
d="M14 737v27l262 276q121 124 121 203q0 41 -22 64.5t-64 23.5q-92 0 -106 -125h-174q6 128 82 198.5t206 70.5q127 0 196 -61.5t69 -162.5q0 -69 -36.5 -129.5t-107.5 -128.5l-118 -116h268v-140h-576z" />
    <glyph glyph-name="uni00B3" unicode="&#xb3;" horiz-adv-x="688" 
d="M340 725q-146 0 -221 66.5t-78 179.5h170q5 -51 34 -81t85 -30q54 0 82 25.5t28 70.5q0 93 -110 93h-58v118h56q106 0 106 88q0 38 -23.5 60t-68.5 22q-46 0 -75.5 -26t-35.5 -72h-170q8 105 83 170.5t202 65.5q125 0 196.5 -55t71.5 -144q0 -117 -125 -158
q65 -12 104.5 -56.5t39.5 -111.5q0 -104 -77.5 -164.5t-215.5 -60.5z" />
    <glyph glyph-name="uni00B4" unicode="&#xb4;" horiz-adv-x="819" 
d="M303 1231l121 317h274l-213 -317h-182z" />
    <glyph glyph-name="uni00B6" unicode="&#xb6;" horiz-adv-x="1173" 
d="M549 -205v899h-23q-206 0 -327 97t-121 282q0 191 123 291t325 100h475v-1669h-147v1546h-160v-1546h-145z" />
    <glyph glyph-name="uni00B7" unicode="&#xb7;" horiz-adv-x="591" 
d="M295 508q-67 0 -114.5 47t-47.5 115q0 67 47 113t115 46q69 0 116.5 -46t47.5 -113q0 -68 -47.5 -115t-116.5 -47z" />
    <glyph glyph-name="uni00B8" unicode="&#xb8;" horiz-adv-x="819" 
d="M422 -449q-96 0 -156 48.5t-69 132.5h135q5 -29 26 -48.5t56 -19.5t55 19.5t20 50.5q0 29 -19.5 47t-51.5 18q-35 0 -62 -18l-69 65l90 154h123l-60 -102q83 10 144 -34.5t61 -135.5q0 -84 -62 -130.5t-161 -46.5z" />
    <glyph glyph-name="uni00B9" unicode="&#xb9;" horiz-adv-x="518" 
d="M213 737v543l-168 -104v159l193 129h168v-727h-193z" />
    <glyph glyph-name="uni00BA" unicode="&#xba;" horiz-adv-x="1032" 
d="M516 592q-194 0 -320 120t-126 314v12q0 200 126.5 322.5t321.5 122.5q193 0 319 -120.5t126 -315.5v-13q0 -199 -126.5 -320.5t-320.5 -121.5zM518 766q102 0 157.5 71t55.5 195v12q0 124 -56 194.5t-157 70.5t-159 -70.5t-58 -194.5v-12q0 -125 56.5 -195.5
t160.5 -70.5z" />
    <glyph glyph-name="uni00BB" unicode="&#xbb;" horiz-adv-x="1007" 
d="M88 160l252 375l-252 374h195l262 -374l-262 -375h-195zM453 160l252 375l-252 374h194l262 -374l-262 -375h-194z" />
    <glyph glyph-name="uni00BC" unicode="&#xbc;" horiz-adv-x="1482" 
d="M219 737v543l-168 -104v159l193 129h168v-727h-193zM113 0l1081 1464h158l-1082 -1464h-157zM1159 0v141h-364v70l315 516h231v-455h95v-131h-95v-141h-182zM977 272h186v322z" />
    <glyph glyph-name="uni00BD" unicode="&#xbd;" horiz-adv-x="1490" 
d="M219 737v543l-168 -104v159l193 129h168v-727h-193zM86 0l1081 1464h158l-1081 -1464h-158zM856 0v27l262 276q121 124 121 203q0 42 -22 65t-64 23q-92 0 -106 -125h-175q6 129 82.5 198.5t206.5 69.5q127 0 195.5 -61t68.5 -162q0 -68 -36.5 -129.5t-106.5 -128.5
l-119 -117h269v-139h-576z" />
    <glyph glyph-name="uni00BE" unicode="&#xbe;" horiz-adv-x="1511" 
d="M346 725q-146 0 -221 66.5t-78 179.5h170q5 -51 34 -81t85 -30q54 0 82 25.5t28 70.5q0 93 -110 93h-57v118h55q106 0 106 88q0 38 -23.5 60t-68.5 22q-46 0 -75 -26t-35 -72h-170q8 105 82.5 170.5t201.5 65.5q125 0 197 -55t72 -144q0 -117 -125 -158q65 -12 104 -56.5
t39 -111.5q0 -104 -77.5 -164.5t-215.5 -60.5zM197 0l1081 1464h158l-1082 -1464h-157zM1182 0v141h-365v70l316 516h231v-455h94v-131h-94v-141h-182zM999 272h187v322z" />
    <glyph glyph-name="uni00BF" unicode="&#xbf;" horiz-adv-x="1056" 
d="M586 1241q69 0 117.5 -47t48.5 -113q0 -67 -48.5 -113t-117.5 -46q-68 0 -117 46t-49 113q0 66 49 113t117 47zM696 784v-77q0 -47 -13.5 -92t-29 -75.5t-49 -71.5t-52.5 -60l-60 -60q-72 -68 -108 -119.5t-36 -111.5q0 -81 44.5 -126.5t135.5 -45.5q96 0 157.5 62.5
t72.5 168.5h237q-9 -199 -140 -316.5t-339 -117.5q-211 0 -320.5 99.5t-109.5 258.5q0 96 46.5 169.5t133.5 158.5q6 6 31.5 30t32.5 31l29 29t29.5 32t23.5 30t22.5 33.5t16 32.5t13.5 36.5t5 36.5v65h227z" />
    <glyph glyph-name="uni00C0" unicode="&#xc0;" horiz-adv-x="1439" 
d="M637 1569l-201 276h279l108 -276h-186zM55 0l490 1464h356l483 -1464h-282l-117 362h-559l-115 -362h-256zM707 1241l-218 -680h433z" />
    <glyph glyph-name="uni00C1" unicode="&#xc1;" horiz-adv-x="1439" 
d="M610 1569l111 276h278l-202 -276h-187zM55 0l490 1464h356l483 -1464h-282l-117 362h-559l-115 -362h-256zM707 1241l-218 -680h433z" />
    <glyph glyph-name="uni00C2" unicode="&#xc2;" horiz-adv-x="1439" 
d="M385 1569l227 276h213l222 -276h-181l-151 112l-154 -112h-176zM55 0l490 1464h356l483 -1464h-282l-117 362h-559l-115 -362h-256zM707 1241l-218 -680h433z" />
    <glyph glyph-name="uni00C3" unicode="&#xc3;" horiz-adv-x="1439" 
d="M836 1573q-54 0 -129.5 40t-100.5 40q-27 0 -48.5 -23t-27.5 -59h-155q10 126 72 197t151 71q51 0 127 -41t104 -41q27 0 47.5 23t26.5 59h158q-12 -125 -74.5 -195.5t-150.5 -70.5zM55 0l490 1464h356l483 -1464h-282l-117 362h-559l-115 -362h-256zM707 1241l-218 -680
h433z" />
    <glyph glyph-name="uni00C4" unicode="&#xc4;" horiz-adv-x="1439" 
d="M500 1591q-56 0 -95.5 39t-39.5 94t39.5 94.5t95.5 39.5t95.5 -39.5t39.5 -94.5t-39.5 -94t-95.5 -39zM932 1591q-56 0 -95.5 39t-39.5 94t39.5 94.5t95.5 39.5t95.5 -39.5t39.5 -94.5t-39.5 -94t-95.5 -39zM55 0l490 1464h356l483 -1464h-282l-117 362h-559l-115 -362
h-256zM707 1241l-218 -680h433z" />
    <glyph glyph-name="uni00C5" unicode="&#xc5;" horiz-adv-x="1439" 
d="M717 1542q-95 0 -162.5 65.5t-67.5 157.5t67.5 158t162.5 66t162 -66t67 -158t-67 -157.5t-162 -65.5zM717 1653q44 0 73 31.5t29 80.5t-29 81t-73 32q-46 0 -74.5 -31.5t-28.5 -81.5t28.5 -81t74.5 -31zM55 0l490 1464h356l483 -1464h-282l-117 362h-559l-115 -362h-256
zM707 1241l-218 -680h433z" />
    <glyph glyph-name="uni00C6" unicode="&#xc6;" horiz-adv-x="1988" 
d="M45 0l719 1464h1112v-215h-639v-401h512v-205h-512v-428h674v-215h-946v375h-476l-178 -375h-266zM909 1249l-325 -680h381v680h-56z" />
    <glyph glyph-name="uni00C7" unicode="&#xc7;" horiz-adv-x="1517" 
d="M778 -449q-96 0 -156 48.5t-69 132.5h135q5 -29 26 -48.5t56 -19.5t55.5 19.5t20.5 50.5q0 29 -20 47t-52 18q-34 0 -61 -18l-70 65l80 138q-301 26 -465 222.5t-164 516.5v16q0 216 92.5 387.5t254.5 266t364 94.5q171 0 305 -55t221 -172.5t103 -284.5h-277
q-24 148 -109 221.5t-241 73.5q-195 0 -310.5 -142t-115.5 -387v-16q0 -248 113 -386t315 -138q156 0 255 78.5t120 230.5h266q-32 -250 -192.5 -385.5t-413.5 -144.5l-47 -82q83 10 143.5 -34.5t60.5 -135.5q0 -84 -62 -130.5t-161 -46.5z" />
    <glyph glyph-name="uni00C8" unicode="&#xc8;" horiz-adv-x="1196" 
d="M561 1569l-201 276h279l109 -276h-187zM168 0v1464h915v-215h-643v-401h516v-205h-516v-428h678v-215h-950z" />
    <glyph glyph-name="uni00C9" unicode="&#xc9;" horiz-adv-x="1196" 
d="M535 1569l110 276h279l-203 -276h-186zM168 0v1464h915v-215h-643v-401h516v-205h-516v-428h678v-215h-950z" />
    <glyph glyph-name="uni00CA" unicode="&#xca;" horiz-adv-x="1196" 
d="M309 1569l228 276h213l221 -276h-180l-152 112l-154 -112h-176zM168 0v1464h915v-215h-643v-401h516v-205h-516v-428h678v-215h-950z" />
    <glyph glyph-name="uni00CB" unicode="&#xcb;" horiz-adv-x="1196" 
d="M424 1591q-56 0 -95.5 39t-39.5 94t39.5 94.5t95.5 39.5t95.5 -39.5t39.5 -94.5t-39.5 -94t-95.5 -39zM856 1591q-56 0 -95.5 39t-39.5 94t39.5 94.5t95.5 39.5t95.5 -39.5t39.5 -94.5t-39.5 -94t-95.5 -39zM168 0v1464h915v-215h-643v-401h516v-205h-516v-428h678v-215
h-950z" />
    <glyph glyph-name="uni00CC" unicode="&#xcc;" horiz-adv-x="628" 
d="M233 1569l-200 276h278l109 -276h-187zM176 0v1464h275v-1464h-275z" />
    <glyph glyph-name="uni00CD" unicode="&#xcd;" horiz-adv-x="628" 
d="M207 1569l110 276h279l-203 -276h-186zM176 0v1464h275v-1464h-275z" />
    <glyph glyph-name="uni00CE" unicode="&#xce;" horiz-adv-x="628" 
d="M-18 1569l227 276h213l221 -276h-180l-152 112l-153 -112h-176zM176 0v1464h275v-1464h-275z" />
    <glyph glyph-name="uni00CF" unicode="&#xcf;" horiz-adv-x="628" 
d="M96 1591q-56 0 -95.5 39t-39.5 94t39.5 94.5t95.5 39.5t95.5 -39.5t39.5 -94.5t-39.5 -94t-95.5 -39zM528 1591q-56 0 -95.5 39t-39.5 94t39.5 94.5t95.5 39.5t96 -39.5t40 -94.5t-40 -94t-96 -39zM176 0v1464h275v-1464h-275z" />
    <glyph glyph-name="uni00D0" unicode="&#xd0;" horiz-adv-x="1513" 
d="M66 637v194h141v633h444q188 0 333 -51.5t237.5 -147t140 -226t47.5 -291.5v-19q0 -162 -47 -294t-139.5 -230t-238.5 -151.5t-335 -53.5h-442v637h-141zM477 215h164q242 0 362.5 132.5t120.5 379.5v16q0 506 -485 506h-162v-418h354v-194h-354v-422z" />
    <glyph glyph-name="uni00D1" unicode="&#xd1;" horiz-adv-x="1525" 
d="M907 1573q-42 0 -86.5 20t-81.5 40t-61 20q-27 0 -48.5 -23t-27.5 -59h-156q10 126 72.5 197t151.5 71q51 0 127 -41t104 -41q27 0 47.5 23t26.5 59h158q-12 -125 -75 -195.5t-151 -70.5zM168 0v1464h326l616 -1058v1058h248v-1464h-283l-659 1122v-1122h-248z" />
    <glyph glyph-name="uni00D2" unicode="&#xd2;" horiz-adv-x="1667" 
d="M752 1569l-201 276h278l109 -276h-186zM836 -20q-220 0 -390 97.5t-261 266.5t-91 379v16q0 159 55.5 297t152.5 237t235.5 155.5t298.5 56.5q215 0 383.5 -95t261 -263.5t92.5 -381.5v-16q0 -213 -90.5 -383t-259.5 -268t-387 -98zM840 199q206 0 328 144.5t122 383.5
v16q0 151 -53 269.5t-157 187t-244 68.5q-213 0 -335 -144t-122 -383v-16q0 -237 129.5 -381.5t331.5 -144.5z" />
    <glyph glyph-name="uni00D3" unicode="&#xd3;" horiz-adv-x="1667" 
d="M725 1569l111 276h278l-203 -276h-186zM836 -20q-220 0 -390 97.5t-261 266.5t-91 379v16q0 159 55.5 297t152.5 237t235.5 155.5t298.5 56.5q215 0 383.5 -95t261 -263.5t92.5 -381.5v-16q0 -213 -90.5 -383t-259.5 -268t-387 -98zM840 199q206 0 328 144.5t122 383.5
v16q0 151 -53 269.5t-157 187t-244 68.5q-213 0 -335 -144t-122 -383v-16q0 -237 129.5 -381.5t331.5 -144.5z" />
    <glyph glyph-name="uni00D4" unicode="&#xd4;" horiz-adv-x="1667" 
d="M500 1569l227 276h213l221 -276h-180l-152 112l-153 -112h-176zM836 -20q-220 0 -390 97.5t-261 266.5t-91 379v16q0 159 55.5 297t152.5 237t235.5 155.5t298.5 56.5q215 0 383.5 -95t261 -263.5t92.5 -381.5v-16q0 -213 -90.5 -383t-259.5 -268t-387 -98zM840 199
q206 0 328 144.5t122 383.5v16q0 151 -53 269.5t-157 187t-244 68.5q-213 0 -335 -144t-122 -383v-16q0 -237 129.5 -381.5t331.5 -144.5z" />
    <glyph glyph-name="uni00D5" unicode="&#xd5;" horiz-adv-x="1667" 
d="M950 1573q-42 0 -86.5 20t-81.5 40t-61 20q-27 0 -48.5 -23t-27.5 -59h-156q10 126 72.5 197t151.5 71q51 0 127 -41t104 -41q27 0 47.5 23t26.5 59h158q-12 -125 -75 -195.5t-151 -70.5zM836 -20q-220 0 -390 97.5t-261 266.5t-91 379v16q0 159 55.5 297t152.5 237
t235.5 155.5t298.5 56.5q215 0 383.5 -95t261 -263.5t92.5 -381.5v-16q0 -213 -90.5 -383t-259.5 -268t-387 -98zM840 199q206 0 328 144.5t122 383.5v16q0 151 -53 269.5t-157 187t-244 68.5q-213 0 -335 -144t-122 -383v-16q0 -237 129.5 -381.5t331.5 -144.5z" />
    <glyph glyph-name="uni00D6" unicode="&#xd6;" horiz-adv-x="1667" 
d="M614 1591q-56 0 -95.5 39t-39.5 94t39.5 94.5t95.5 39.5t96 -39.5t40 -94.5t-40 -94t-96 -39zM1047 1591q-56 0 -96 39t-40 94t40 94.5t96 39.5t95.5 -39.5t39.5 -94.5t-39.5 -94t-95.5 -39zM836 -20q-220 0 -390 97.5t-261 266.5t-91 379v16q0 159 55.5 297t152.5 237
t235.5 155.5t298.5 56.5q215 0 383.5 -95t261 -263.5t92.5 -381.5v-16q0 -213 -90.5 -383t-259.5 -268t-387 -98zM840 199q206 0 328 144.5t122 383.5v16q0 151 -53 269.5t-157 187t-244 68.5q-213 0 -335 -144t-122 -383v-16q0 -237 129.5 -381.5t331.5 -144.5z" />
    <glyph glyph-name="uni00D7" unicode="&#xd7;" horiz-adv-x="1042" 
d="M207 236l-135 135l315 313l-317 315l135 138l315 -318l316 316l135 -136l-316 -315l318 -315l-137 -136l-316 318z" />
    <glyph glyph-name="uni00D8" unicode="&#xd8;" horiz-adv-x="1667" 
d="M172 -68l-102 105l186 201q-162 201 -162 485v16q0 212 94.5 381.5t264 266t383.5 96.5q260 0 448 -137l160 172l102 -103l-153 -166q182 -204 182 -504v-16q0 -213 -91 -383t-260.5 -268t-387.5 -98q-281 0 -476 155zM377 725q0 -169 63 -289l682 735q-118 97 -286 97
q-214 0 -336.5 -144t-122.5 -383v-16zM838 199q209 0 331.5 144.5t122.5 385.5v16q0 187 -75 316l-689 -746q122 -116 310 -116z" />
    <glyph glyph-name="uni00D9" unicode="&#xd9;" horiz-adv-x="1480" 
d="M657 1569l-200 276h278l109 -276h-187zM731 -20q-277 0 -426 148t-149 429v907h274v-886q0 -202 70.5 -290.5t232.5 -88.5q165 0 241.5 88.5t76.5 308.5v868h274v-891q0 -288 -152 -440.5t-442 -152.5z" />
    <glyph glyph-name="uni00DA" unicode="&#xda;" horiz-adv-x="1480" 
d="M631 1569l110 276h279l-203 -276h-186zM731 -20q-277 0 -426 148t-149 429v907h274v-886q0 -202 70.5 -290.5t232.5 -88.5q165 0 241.5 88.5t76.5 308.5v868h274v-891q0 -288 -152 -440.5t-442 -152.5z" />
    <glyph glyph-name="uni00DB" unicode="&#xdb;" horiz-adv-x="1480" 
d="M406 1569l227 276h213l221 -276h-180l-152 112l-153 -112h-176zM731 -20q-277 0 -426 148t-149 429v907h274v-886q0 -202 70.5 -290.5t232.5 -88.5q165 0 241.5 88.5t76.5 308.5v868h274v-891q0 -288 -152 -440.5t-442 -152.5z" />
    <glyph glyph-name="uni00DC" unicode="&#xdc;" horiz-adv-x="1480" 
d="M520 1591q-56 0 -95.5 39t-39.5 94t39.5 94.5t95.5 39.5t95.5 -39.5t39.5 -94.5t-39.5 -94t-95.5 -39zM952 1591q-56 0 -95.5 39t-39.5 94t39.5 94.5t95.5 39.5t95.5 -39.5t39.5 -94.5t-39.5 -94t-95.5 -39zM731 -20q-277 0 -426 148t-149 429v907h274v-886
q0 -202 70.5 -290.5t232.5 -88.5q165 0 241.5 88.5t76.5 308.5v868h274v-891q0 -288 -152 -440.5t-442 -152.5z" />
    <glyph glyph-name="uni00DD" unicode="&#xdd;" horiz-adv-x="1288" 
d="M543 1569l110 276h279l-203 -276h-186zM520 0v635l-485 829h301l330 -606l321 606h266l-458 -831v-633h-275z" />
    <glyph glyph-name="uni00DE" unicode="&#xde;" horiz-adv-x="1247" 
d="M168 0v1464h272v-260h199q256 0 399.5 -108t143.5 -332v-8q0 -113 -39.5 -199t-112 -139t-169 -79t-216.5 -26h-205v-313h-272zM440 512h199q136 0 206 61.5t70 182.5v8q0 126 -69.5 180.5t-206.5 54.5h-199v-487z" />
    <glyph glyph-name="uni00DF" unicode="&#xdf;" horiz-adv-x="1245" 
d="M723 -18q-114 0 -191 28v197q73 -31 148 -31q240 0 240 281v14q0 152 -96 233t-261 78v195q70 -1 122.5 18.5t82 53.5t43.5 72.5t14 80.5v8q0 93 -55 144t-158 51q-99 0 -158 -66.5t-59 -179.5v-1159h-248v1141q0 140 66.5 242.5t172.5 152t237 49.5q200 0 319 -99.5
t119 -271.5v-6q0 -102 -66 -189.5t-178 -123.5q157 -38 257 -154t100 -280v-12q0 -123 -36 -215.5t-99.5 -146t-142.5 -79.5t-173 -26z" />
    <glyph glyph-name="uni00E0" unicode="&#xe0;" horiz-adv-x="1136" 
d="M492 1231l-213 317h274l121 -317h-182zM428 -20q-158 0 -258 79t-100 238q0 91 41.5 158t118 106t173 57.5t215.5 18.5h134v55q0 111 -44.5 163t-150.5 52q-186 0 -205 -168h-239q6 73 32.5 132.5t68 100.5t98 69t121.5 40.5t138 12.5q94 0 169 -20.5t134.5 -65t92 -122
t32.5 -184.5v-702h-243v131q-56 -74 -133.5 -112.5t-194.5 -38.5zM487 158q117 0 191 58t74 159v106h-127q-150 0 -230 -40t-80 -134q0 -149 172 -149z" />
    <glyph glyph-name="uni00E1" unicode="&#xe1;" horiz-adv-x="1136" 
d="M469 1231l121 317h274l-213 -317h-182zM428 -20q-158 0 -258 79t-100 238q0 91 41.5 158t118 106t173 57.5t215.5 18.5h134v55q0 111 -44.5 163t-150.5 52q-186 0 -205 -168h-239q6 73 32.5 132.5t68 100.5t98 69t121.5 40.5t138 12.5q94 0 169 -20.5t134.5 -65t92 -122
t32.5 -184.5v-702h-243v131q-56 -74 -133.5 -112.5t-194.5 -38.5zM487 158q117 0 191 58t74 159v106h-127q-150 0 -230 -40t-80 -134q0 -149 172 -149z" />
    <glyph glyph-name="uni00E2" unicode="&#xe2;" horiz-adv-x="1136" 
d="M223 1233l234 309h196l228 -309h-176l-154 139l-156 -139h-172zM428 -20q-158 0 -258 79t-100 238q0 91 41.5 158t118 106t173 57.5t215.5 18.5h134v55q0 111 -44.5 163t-150.5 52q-186 0 -205 -168h-239q6 73 32.5 132.5t68 100.5t98 69t121.5 40.5t138 12.5
q94 0 169 -20.5t134.5 -65t92 -122t32.5 -184.5v-702h-243v131q-56 -74 -133.5 -112.5t-194.5 -38.5zM487 158q117 0 191 58t74 159v106h-127q-150 0 -230 -40t-80 -134q0 -149 172 -149z" />
    <glyph glyph-name="uni00E3" unicode="&#xe3;" horiz-adv-x="1136" 
d="M690 1241q-42 0 -86 20.5t-81 41t-60 20.5q-27 0 -48.5 -23t-27.5 -59h-154q12 127 72 197.5t148 70.5q51 0 126 -39.5t103 -39.5t48 22t26 59h153q-12 -126 -72 -198t-147 -72zM428 -20q-158 0 -258 79t-100 238q0 91 41.5 158t118 106t173 57.5t215.5 18.5h134v55
q0 111 -44.5 163t-150.5 52q-186 0 -205 -168h-239q6 73 32.5 132.5t68 100.5t98 69t121.5 40.5t138 12.5q94 0 169 -20.5t134.5 -65t92 -122t32.5 -184.5v-702h-243v131q-56 -74 -133.5 -112.5t-194.5 -38.5zM487 158q117 0 191 58t74 159v106h-127q-150 0 -230 -40
t-80 -134q0 -149 172 -149z" />
    <glyph glyph-name="uni00E4" unicode="&#xe4;" horiz-adv-x="1136" 
d="M369 1255q-56 0 -96 39.5t-40 94.5q0 54 40.5 93.5t95.5 39.5t95 -39.5t40 -93.5q0 -55 -39.5 -94.5t-95.5 -39.5zM774 1255q-57 0 -96 39t-39 95q0 55 39.5 94t95.5 39q55 0 95 -39.5t40 -93.5q0 -55 -39.5 -94.5t-95.5 -39.5zM428 -20q-158 0 -258 79t-100 238
q0 91 41.5 158t118 106t173 57.5t215.5 18.5h134v55q0 111 -44.5 163t-150.5 52q-186 0 -205 -168h-239q6 73 32.5 132.5t68 100.5t98 69t121.5 40.5t138 12.5q94 0 169 -20.5t134.5 -65t92 -122t32.5 -184.5v-702h-243v131q-56 -74 -133.5 -112.5t-194.5 -38.5zM487 158
q117 0 191 58t74 159v106h-127q-150 0 -230 -40t-80 -134q0 -149 172 -149z" />
    <glyph glyph-name="uni00E5" unicode="&#xe5;" horiz-adv-x="1136" 
d="M571 1208q-94 0 -160.5 65.5t-66.5 156.5t66.5 156t160.5 65t161 -65t67 -156t-67 -156.5t-161 -65.5zM571 1317q44 0 73.5 32.5t29.5 80.5q0 49 -29 80.5t-74 31.5q-44 0 -73 -31.5t-29 -80.5q0 -48 29 -80.5t73 -32.5zM428 -20q-158 0 -258 79t-100 238q0 91 41.5 158
t118 106t173 57.5t215.5 18.5h134v55q0 111 -44.5 163t-150.5 52q-186 0 -205 -168h-239q6 73 32.5 132.5t68 100.5t98 69t121.5 40.5t138 12.5q94 0 169 -20.5t134.5 -65t92 -122t32.5 -184.5v-702h-243v131q-56 -74 -133.5 -112.5t-194.5 -38.5zM487 158q117 0 191 58
t74 159v106h-127q-150 0 -230 -40t-80 -134q0 -149 172 -149z" />
    <glyph glyph-name="uni00E6" unicode="&#xe6;" horiz-adv-x="1824" 
d="M1270 -20q-277 0 -408 204q-72 -105 -171.5 -154.5t-248.5 -49.5q-166 0 -269 79t-103 238q0 91 41 159t116 108t171.5 59.5t215.5 19.5h140v49q0 109 -46 162t-149 53q-189 0 -207 -168h-239q7 91 45.5 160.5t101 111t139 62.5t166.5 21q249 0 340 -156q134 156 355 156
q79 0 150.5 -18.5t134.5 -60.5t109 -104t72.5 -153.5t26.5 -204.5v-68h-762q6 -155 77.5 -238t203.5 -83q209 0 237 164h238q-26 -167 -151.5 -257.5t-325.5 -90.5zM995 643h512q-20 270 -247 270q-107 0 -177.5 -72t-87.5 -198zM489 158q118 0 191.5 58t73.5 159v108h-133
q-148 0 -227 -39.5t-79 -132.5q0 -153 174 -153z" />
    <glyph glyph-name="uni00E7" unicode="&#xe7;" horiz-adv-x="1177" 
d="M580 -449q-96 0 -156.5 48.5t-69.5 132.5h135q5 -29 26 -48.5t56 -19.5t55.5 19.5t20.5 50.5q0 29 -20 47t-52 18q-34 0 -61 -18l-70 65l82 140q-202 27 -326 168.5t-124 367.5v17q0 166 73 293.5t195 194.5t272 67q93 0 173.5 -22t149 -68t113 -125.5t54.5 -186.5h-240
q-14 104 -78.5 153.5t-166.5 49.5q-130 0 -210.5 -94.5t-80.5 -257.5v-17q0 -172 79 -264t218 -92q103 0 175.5 59.5t82.5 169.5h227q-14 -181 -139 -295.5t-328 -123.5l-47 -82q83 10 144 -34.5t61 -135.5q0 -84 -62 -130.5t-161 -46.5z" />
    <glyph glyph-name="uni00E8" unicode="&#xe8;" horiz-adv-x="1187" 
d="M524 1231l-213 317h275l121 -317h-183zM618 -20q-240 0 -391 147t-151 397v17q0 246 150.5 399.5t381.5 153.5q82 0 155 -19t138 -61.5t112 -104.5t74 -153t27 -203v-72h-784q6 -153 82 -235t213 -82q217 0 245 164h240q-26 -167 -155.5 -257.5t-336.5 -90.5zM334 647
h534q-17 266 -260 266q-112 0 -183.5 -70.5t-90.5 -195.5z" />
    <glyph glyph-name="uni00E9" unicode="&#xe9;" horiz-adv-x="1187" 
d="M502 1231l121 317h274l-213 -317h-182zM618 -20q-240 0 -391 147t-151 397v17q0 246 150.5 399.5t381.5 153.5q82 0 155 -19t138 -61.5t112 -104.5t74 -153t27 -203v-72h-784q6 -153 82 -235t213 -82q217 0 245 164h240q-26 -167 -155.5 -257.5t-336.5 -90.5zM334 647
h534q-17 266 -260 266q-112 0 -183.5 -70.5t-90.5 -195.5z" />
    <glyph glyph-name="uni00EA" unicode="&#xea;" horiz-adv-x="1187" 
d="M274 1233l234 309h197l227 -309h-176l-154 139l-156 -139h-172zM618 -20q-240 0 -391 147t-151 397v17q0 246 150.5 399.5t381.5 153.5q82 0 155 -19t138 -61.5t112 -104.5t74 -153t27 -203v-72h-784q6 -153 82 -235t213 -82q217 0 245 164h240q-26 -167 -155.5 -257.5
t-336.5 -90.5zM334 647h534q-17 266 -260 266q-112 0 -183.5 -70.5t-90.5 -195.5z" />
    <glyph glyph-name="uni00EB" unicode="&#xeb;" horiz-adv-x="1187" 
d="M401 1255q-56 0 -95.5 39.5t-39.5 94.5q0 54 40 93.5t95 39.5t95.5 -39.5t40.5 -93.5q0 -55 -40 -94.5t-96 -39.5zM807 1255q-57 0 -96 39t-39 95q0 55 39 94t96 39q55 0 95 -39.5t40 -93.5q0 -55 -39.5 -94.5t-95.5 -39.5zM618 -20q-240 0 -391 147t-151 397v17
q0 246 150.5 399.5t381.5 153.5q82 0 155 -19t138 -61.5t112 -104.5t74 -153t27 -203v-72h-784q6 -153 82 -235t213 -82q217 0 245 164h240q-26 -167 -155.5 -257.5t-336.5 -90.5zM334 647h534q-17 266 -260 266q-112 0 -183.5 -70.5t-90.5 -195.5z" />
    <glyph glyph-name="uni00EC" unicode="&#xec;" horiz-adv-x="555" 
d="M199 1231l-213 317h274l121 -317h-182zM154 0v1071h247v-1071h-247z" />
    <glyph glyph-name="uni00ED" unicode="&#xed;" horiz-adv-x="555" 
d="M176 1231l121 317h274l-213 -317h-182zM154 0v1071h247v-1071h-247z" />
    <glyph glyph-name="uni00EE" unicode="&#xee;" horiz-adv-x="555" 
d="M-51 1233l233 309h197l227 -309h-176l-154 139l-155 -139h-172zM154 0v1071h247v-1071h-247z" />
    <glyph glyph-name="uni00EF" unicode="&#xef;" horiz-adv-x="555" 
d="M80 1255q-56 0 -95.5 39.5t-39.5 94.5q0 54 40 93.5t95 39.5t95 -39.5t40 -93.5q0 -55 -39.5 -94.5t-95.5 -39.5zM473 1255q-56 0 -95.5 39.5t-39.5 94.5q0 54 40 93.5t95 39.5t95 -39.5t40 -93.5q0 -55 -39.5 -94.5t-95.5 -39.5zM154 0v1071h247v-1071h-247z" />
    <glyph glyph-name="uni00F0" unicode="&#xf0;" horiz-adv-x="1251" 
d="M344 1159l-55 111l211 100q-110 97 -254 197h293q89 -51 153 -103l191 92l55 -110l-141 -70q78 -72 142.5 -152.5t119.5 -178.5t86 -213t31 -234v-45q0 -257 -154.5 -415t-398.5 -158q-239 0 -393 152.5t-154 397.5v21q0 118 40 220t107 170.5t155 107t183 38.5
q164 0 275 -124q-79 159 -240 317zM627 172q137 0 216 96t79 258v17q0 166 -78.5 261t-214.5 95q-138 0 -218.5 -94.5t-80.5 -259.5v-17q0 -165 79 -260.5t218 -95.5z" />
    <glyph glyph-name="uni00F1" unicode="&#xf1;" horiz-adv-x="1245" 
d="M739 1241q-42 0 -86 20.5t-81 41t-60 20.5q-27 0 -48.5 -23t-27.5 -59h-153q12 127 71.5 197.5t147.5 70.5q51 0 126 -39.5t103 -39.5t48 22t26 59h153q-12 -126 -72 -198t-147 -72zM147 0v1071h248v-170q41 84 131 138.5t215 54.5q169 0 268 -103.5t99 -316.5v-674h-248
v651q0 122 -51.5 179t-161.5 57t-181 -66.5t-71 -189.5v-631h-248z" />
    <glyph glyph-name="uni00F2" unicode="&#xf2;" horiz-adv-x="1251" 
d="M545 1231l-213 317h274l121 -317h-182zM625 -20q-239 0 -394 151t-155 393v17q0 246 156 399.5t395 153.5q238 0 393.5 -152t155.5 -395v-17q0 -247 -155.5 -398.5t-395.5 -151.5zM627 172q138 0 216.5 95.5t78.5 260.5v15q0 166 -78.5 261t-216.5 95t-217.5 -94.5
t-79.5 -259.5v-17q0 -165 78.5 -260.5t218.5 -95.5z" />
    <glyph glyph-name="uni00F3" unicode="&#xf3;" horiz-adv-x="1251" 
d="M522 1231l121 317h275l-213 -317h-183zM625 -20q-239 0 -394 151t-155 393v17q0 246 156 399.5t395 153.5q238 0 393.5 -152t155.5 -395v-17q0 -247 -155.5 -398.5t-395.5 -151.5zM627 172q138 0 216.5 95.5t78.5 260.5v15q0 166 -78.5 261t-216.5 95t-217.5 -94.5
t-79.5 -259.5v-17q0 -165 78.5 -260.5t218.5 -95.5z" />
    <glyph glyph-name="uni00F4" unicode="&#xf4;" horiz-adv-x="1251" 
d="M295 1233l233 309h197l227 -309h-176l-153 139l-156 -139h-172zM625 -20q-239 0 -394 151t-155 393v17q0 246 156 399.5t395 153.5q238 0 393.5 -152t155.5 -395v-17q0 -247 -155.5 -398.5t-395.5 -151.5zM627 172q138 0 216.5 95.5t78.5 260.5v15q0 166 -78.5 261
t-216.5 95t-217.5 -94.5t-79.5 -259.5v-17q0 -165 78.5 -260.5t218.5 -95.5z" />
    <glyph glyph-name="uni00F5" unicode="&#xf5;" horiz-adv-x="1251" 
d="M743 1241q-42 0 -86 20.5t-81 41t-60 20.5q-27 0 -48.5 -23t-27.5 -59h-153q12 127 71.5 197.5t147.5 70.5q51 0 126 -39.5t103 -39.5t48 22t26 59h154q-12 -126 -72.5 -198t-147.5 -72zM625 -20q-239 0 -394 151t-155 393v17q0 246 156 399.5t395 153.5
q238 0 393.5 -152t155.5 -395v-17q0 -247 -155.5 -398.5t-395.5 -151.5zM627 172q138 0 216.5 95.5t78.5 260.5v15q0 166 -78.5 261t-216.5 95t-217.5 -94.5t-79.5 -259.5v-17q0 -165 78.5 -260.5t218.5 -95.5z" />
    <glyph glyph-name="uni00F6" unicode="&#xf6;" horiz-adv-x="1251" 
d="M422 1255q-56 0 -95.5 39.5t-39.5 94.5q0 54 40 93.5t95 39.5t95 -39.5t40 -93.5q0 -55 -39.5 -94.5t-95.5 -39.5zM827 1255q-57 0 -96 39t-39 95q0 55 39 94t96 39q55 0 95.5 -39.5t40.5 -93.5q0 -55 -40 -94.5t-96 -39.5zM625 -20q-239 0 -394 151t-155 393v17
q0 246 156 399.5t395 153.5q238 0 393.5 -152t155.5 -395v-17q0 -247 -155.5 -398.5t-395.5 -151.5zM627 172q138 0 216.5 95.5t78.5 260.5v15q0 166 -78.5 261t-216.5 95t-217.5 -94.5t-79.5 -259.5v-17q0 -165 78.5 -260.5t218.5 -95.5z" />
    <glyph glyph-name="uni00F7" unicode="&#xf7;" horiz-adv-x="1105" 
d="M553 944q-65 0 -110.5 45t-45.5 109q0 66 45.5 110.5t110.5 44.5q64 0 110 -45t46 -110q0 -64 -46 -109t-110 -45zM76 606v187h956v-187h-956zM553 145q-65 0 -110.5 45t-45.5 109t45.5 109t110.5 45q64 0 110 -45t46 -109t-46 -109t-110 -45z" />
    <glyph glyph-name="uni00F8" unicode="&#xf8;" horiz-adv-x="1251" 
d="M141 -78l-96 86l150 162q-119 144 -119 354v17q0 246 156 399.5t395 153.5q184 0 325 -99l138 150l96 -86l-137 -150q127 -146 127 -362v-17q0 -247 -155.5 -398.5t-395.5 -151.5q-197 0 -336 102zM330 528q0 -99 28 -178l451 490q-77 61 -182 61q-138 0 -217.5 -95
t-79.5 -261v-17zM627 172q139 0 218 95t79 259v17q0 112 -37 190l-455 -493q74 -68 195 -68z" />
    <glyph glyph-name="uni00F9" unicode="&#xf9;" horiz-adv-x="1239" 
d="M539 1231l-213 317h274l121 -317h-182zM506 -20q-168 0 -268.5 100.5t-100.5 304.5v686h248v-657q0 -121 51.5 -178.5t159.5 -57.5q106 0 178 67t72 189v637h248v-1071h-248v168q-43 -84 -129.5 -136t-210.5 -52z" />
    <glyph glyph-name="uni00FA" unicode="&#xfa;" horiz-adv-x="1239" 
d="M516 1231l121 317h274l-213 -317h-182zM506 -20q-168 0 -268.5 100.5t-100.5 304.5v686h248v-657q0 -121 51.5 -178.5t159.5 -57.5q106 0 178 67t72 189v637h248v-1071h-248v168q-43 -84 -129.5 -136t-210.5 -52z" />
    <glyph glyph-name="uni00FB" unicode="&#xfb;" horiz-adv-x="1239" 
d="M289 1233l233 309h197l227 -309h-176l-154 139l-155 -139h-172zM506 -20q-168 0 -268.5 100.5t-100.5 304.5v686h248v-657q0 -121 51.5 -178.5t159.5 -57.5q106 0 178 67t72 189v637h248v-1071h-248v168q-43 -84 -129.5 -136t-210.5 -52z" />
    <glyph glyph-name="uni00FC" unicode="&#xfc;" horiz-adv-x="1239" 
d="M416 1255q-56 0 -95.5 39.5t-39.5 94.5q0 54 40 93.5t95 39.5t95 -39.5t40 -93.5q0 -55 -39.5 -94.5t-95.5 -39.5zM821 1255q-57 0 -96 39t-39 95q0 55 39 94t96 39q55 0 95 -39.5t40 -93.5q0 -55 -39.5 -94.5t-95.5 -39.5zM506 -20q-168 0 -268.5 100.5t-100.5 304.5
v686h248v-657q0 -121 51.5 -178.5t159.5 -57.5q106 0 178 67t72 189v637h248v-1071h-248v168q-43 -84 -129.5 -136t-210.5 -52z" />
    <glyph glyph-name="uni00FD" unicode="&#xfd;" horiz-adv-x="1132" 
d="M481 1231l121 317h275l-213 -317h-183zM266 -367l195 476l-424 962h268l285 -690l262 690h242l-584 -1438h-244z" />
    <glyph glyph-name="uni00FE" unicode="&#xfe;" horiz-adv-x="1296" 
d="M147 -367v1934h248v-668q47 82 142 138.5t208 56.5q207 0 341.5 -146t134.5 -399v-17q0 -254 -132.5 -403t-343.5 -149q-122 0 -213.5 52.5t-136.5 135.5v-535h-248zM684 176q137 0 210 90.5t73 261.5v17q0 172 -79 263t-206 91q-134 0 -214.5 -90.5t-80.5 -263.5v-17
q0 -175 79 -263.5t218 -88.5z" />
    <glyph glyph-name="uni00FF" unicode="&#xff;" horiz-adv-x="1132" 
d="M381 1255q-56 0 -95.5 39.5t-39.5 94.5q0 54 40 93.5t95 39.5t95 -39.5t40 -93.5q0 -55 -39.5 -94.5t-95.5 -39.5zM786 1255q-57 0 -96 39t-39 95q0 55 39.5 94t95.5 39q55 0 95.5 -39.5t40.5 -93.5q0 -55 -40 -94.5t-96 -39.5zM266 -367l195 476l-424 962h268l285 -690
l262 690h242l-584 -1438h-244z" />
    <glyph glyph-name="uni0100" unicode="&#x100;" horiz-adv-x="1439" 
d="M422 1597v166h590v-166h-590zM55 0l490 1464h356l483 -1464h-282l-117 362h-559l-115 -362h-256zM707 1241l-218 -680h433z" />
    <glyph glyph-name="uni0101" unicode="&#x101;" horiz-adv-x="1136" 
d="M285 1298v160h573v-160h-573zM428 -20q-158 0 -258 79t-100 238q0 91 41.5 158t118 106t173 57.5t215.5 18.5h134v55q0 111 -44.5 163t-150.5 52q-186 0 -205 -168h-239q6 73 32.5 132.5t68 100.5t98 69t121.5 40.5t138 12.5q94 0 169 -20.5t134.5 -65t92 -122
t32.5 -184.5v-702h-243v131q-56 -74 -133.5 -112.5t-194.5 -38.5zM487 158q117 0 191 58t74 159v106h-127q-150 0 -230 -40t-80 -134q0 -149 172 -149z" />
    <glyph glyph-name="uni0102" unicode="&#x102;" horiz-adv-x="1439" 
d="M715 1559q-127 0 -209 79t-88 207h174q16 -114 123 -114q110 0 129 114h172q-7 -127 -91.5 -206.5t-209.5 -79.5zM55 0l490 1464h356l483 -1464h-282l-117 362h-559l-115 -362h-256zM707 1241l-218 -680h433z" />
    <glyph glyph-name="uni0103" unicode="&#x103;" horiz-adv-x="1136" 
d="M569 1241q-126 0 -208 80.5t-89 212.5h172q16 -119 125 -119q110 0 133 119h168q-7 -131 -92 -212t-209 -81zM428 -20q-158 0 -258 79t-100 238q0 91 41.5 158t118 106t173 57.5t215.5 18.5h134v55q0 111 -44.5 163t-150.5 52q-186 0 -205 -168h-239q6 73 32.5 132.5
t68 100.5t98 69t121.5 40.5t138 12.5q94 0 169 -20.5t134.5 -65t92 -122t32.5 -184.5v-702h-243v131q-56 -74 -133.5 -112.5t-194.5 -38.5zM487 158q117 0 191 58t74 159v106h-127q-150 0 -230 -40t-80 -134q0 -149 172 -149z" />
    <glyph glyph-name="uni0104" unicode="&#x104;" horiz-adv-x="1439" 
d="M1239 -373q-105 0 -167 45t-62 121q0 64 47 117.5t119 89.5h-74l-117 362h-559l-115 -362h-256l490 1464h356l477 -1450q-145 -83 -145 -170q0 -65 72 -65q51 0 88 18v-141q-63 -29 -154 -29zM707 1241l-218 -680h433z" />
    <glyph glyph-name="uni0105" unicode="&#x105;" horiz-adv-x="1136" 
d="M862 -373q-101 0 -162 44t-61 120q0 66 47.5 119.5t120.5 89.5h-51v131q-56 -74 -133.5 -112.5t-194.5 -38.5q-158 0 -258 79t-100 238q0 91 41.5 158t118 106t173 57.5t215.5 18.5h134v55q0 111 -44.5 163t-150.5 52q-186 0 -205 -168h-239q6 73 32.5 132.5t68 100.5
t98 69t121.5 40.5t138 12.5q94 0 169 -20.5t134.5 -65t92 -122t32.5 -184.5v-688q-143 -87 -143 -172q0 -67 72 -67q48 0 88 18v-137q-63 -29 -154 -29zM487 158q117 0 191 58t74 159v106h-127q-150 0 -230 -40t-80 -134q0 -149 172 -149z" />
    <glyph glyph-name="uni0106" unicode="&#x106;" horiz-adv-x="1517" 
d="M700 1569l111 276h279l-203 -276h-187zM809 -20q-340 0 -527.5 200t-187.5 543v16q0 216 92.5 387.5t254.5 266t364 94.5q171 0 305 -55t221 -172.5t103 -284.5h-277q-24 148 -109 221.5t-241 73.5q-195 0 -310.5 -142t-115.5 -387v-16q0 -248 113 -386t315 -138
q156 0 255 78.5t120 230.5h266q-32 -258 -203 -394t-438 -136z" />
    <glyph glyph-name="uni0107" unicode="&#x107;" horiz-adv-x="1177" 
d="M508 1231l121 317h274l-213 -317h-182zM616 -20q-154 0 -275.5 63t-193 187.5t-71.5 291.5v17q0 166 73 293.5t195 194.5t272 67q93 0 173.5 -22t149 -68t113 -125.5t54.5 -186.5h-240q-14 104 -78.5 153.5t-166.5 49.5q-130 0 -210.5 -94.5t-80.5 -257.5v-17
q0 -172 79 -264t218 -92q103 0 175.5 59.5t82.5 169.5h227q-14 -187 -147.5 -303t-348.5 -116z" />
    <glyph glyph-name="uni0108" unicode="&#x108;" horiz-adv-x="1517" 
d="M475 1569l227 276h213l222 -276h-181l-151 112l-154 -112h-176zM809 -20q-340 0 -527.5 200t-187.5 543v16q0 216 92.5 387.5t254.5 266t364 94.5q171 0 305 -55t221 -172.5t103 -284.5h-277q-24 148 -109 221.5t-241 73.5q-195 0 -310.5 -142t-115.5 -387v-16
q0 -248 113 -386t315 -138q156 0 255 78.5t120 230.5h266q-32 -258 -203 -394t-438 -136z" />
    <glyph glyph-name="uni0109" unicode="&#x109;" horiz-adv-x="1177" 
d="M281 1233l233 309h197l227 -309h-176l-154 139l-155 -139h-172zM616 -20q-154 0 -275.5 63t-193 187.5t-71.5 291.5v17q0 166 73 293.5t195 194.5t272 67q93 0 173.5 -22t149 -68t113 -125.5t54.5 -186.5h-240q-14 104 -78.5 153.5t-166.5 49.5q-130 0 -210.5 -94.5
t-80.5 -257.5v-17q0 -172 79 -264t218 -92q103 0 175.5 59.5t82.5 169.5h227q-14 -187 -147.5 -303t-348.5 -116z" />
    <glyph glyph-name="uni010A" unicode="&#x10a;" horiz-adv-x="1517" 
d="M801 1587q-61 0 -103.5 41.5t-42.5 100.5t42.5 99t103.5 40q60 0 102.5 -40.5t42.5 -98.5q0 -59 -42.5 -100.5t-102.5 -41.5zM809 -20q-340 0 -527.5 200t-187.5 543v16q0 216 92.5 387.5t254.5 266t364 94.5q171 0 305 -55t221 -172.5t103 -284.5h-277
q-24 148 -109 221.5t-241 73.5q-195 0 -310.5 -142t-115.5 -387v-16q0 -248 113 -386t315 -138q156 0 255 78.5t120 230.5h266q-32 -258 -203 -394t-438 -136z" />
    <glyph glyph-name="uni010B" unicode="&#x10b;" horiz-adv-x="1177" 
d="M612 1251q-61 0 -103 41t-42 101q0 59 42 99t103 40q60 0 103 -40.5t43 -98.5q0 -60 -43 -101t-103 -41zM616 -20q-154 0 -275.5 63t-193 187.5t-71.5 291.5v17q0 166 73 293.5t195 194.5t272 67q93 0 173.5 -22t149 -68t113 -125.5t54.5 -186.5h-240
q-14 104 -78.5 153.5t-166.5 49.5q-130 0 -210.5 -94.5t-80.5 -257.5v-17q0 -172 79 -264t218 -92q103 0 175.5 59.5t82.5 169.5h227q-14 -187 -147.5 -303t-348.5 -116z" />
    <glyph glyph-name="uni010C" unicode="&#x10c;" horiz-adv-x="1517" 
d="M696 1569l-221 276h180l154 -112l152 112h176l-226 -276h-215zM809 -20q-340 0 -527.5 200t-187.5 543v16q0 216 92.5 387.5t254.5 266t364 94.5q171 0 305 -55t221 -172.5t103 -284.5h-277q-24 148 -109 221.5t-241 73.5q-195 0 -310.5 -142t-115.5 -387v-16
q0 -248 113 -386t315 -138q156 0 255 78.5t120 230.5h266q-32 -258 -203 -394t-438 -136z" />
    <glyph glyph-name="uni010D" unicode="&#x10d;" horiz-adv-x="1177" 
d="M510 1233l-229 309h178l153 -137l154 137h172l-231 -309h-197zM616 -20q-154 0 -275.5 63t-193 187.5t-71.5 291.5v17q0 166 73 293.5t195 194.5t272 67q93 0 173.5 -22t149 -68t113 -125.5t54.5 -186.5h-240q-14 104 -78.5 153.5t-166.5 49.5q-130 0 -210.5 -94.5
t-80.5 -257.5v-17q0 -172 79 -264t218 -92q103 0 175.5 59.5t82.5 169.5h227q-14 -187 -147.5 -303t-348.5 -116z" />
    <glyph glyph-name="uni010E" unicode="&#x10e;" horiz-adv-x="1462" 
d="M553 1569l-221 276h180l154 -112l151 112h176l-225 -276h-215zM168 0v1464h444q188 0 333 -51.5t237.5 -147t140 -226t47.5 -291.5v-19q0 -162 -47.5 -294t-140 -230t-239 -151.5t-335.5 -53.5h-440zM440 215h160q242 0 363.5 132.5t121.5 379.5v16q0 506 -487 506h-158
v-1034z" />
    <glyph glyph-name="uni010F" unicode="&#x10f;" horiz-adv-x="1296" 
d="M549 -20q-101 0 -187 35.5t-149 102.5t-99 169.5t-36 230.5v17q0 253 134.5 406t346.5 153q124 0 209 -50.5t133 -136.5v660h248v-1567h-248v180q-45 -84 -141.5 -142t-210.5 -58zM1239 1208l21 359h225l-101 -359h-145zM610 176q135 0 217 90t82 264v17q0 174 -75.5 263
t-212.5 89t-213 -93t-76 -265v-17q0 -171 76.5 -259.5t201.5 -88.5z" />
    <glyph glyph-name="uni0110" unicode="&#x110;" horiz-adv-x="1513" 
d="M66 637v194h141v633h444q188 0 333 -51.5t237.5 -147t140 -226t47.5 -291.5v-19q0 -162 -47 -294t-139.5 -230t-238.5 -151.5t-335 -53.5h-442v637h-141zM477 215h164q242 0 362.5 132.5t120.5 379.5v16q0 506 -485 506h-162v-418h354v-194h-354v-422z" />
    <glyph glyph-name="uni0111" unicode="&#x111;" horiz-adv-x="1296" 
d="M555 1237v154h346v176h248v-176h139v-154h-139v-1237h-248v180q-45 -84 -141.5 -142t-210.5 -58q-101 0 -187 35.5t-149 102.5t-99 169.5t-36 230.5v17q0 253 134.5 406t346.5 153q124 0 209 -50.5t133 -136.5v330h-346zM610 176q135 0 217 90t82 264v17q0 174 -75.5 263
t-212.5 89t-213 -93t-76 -265v-17q0 -171 76.5 -259.5t201.5 -88.5z" />
    <glyph glyph-name="uni0112" unicode="&#x112;" horiz-adv-x="1196" 
d="M346 1597v166h590v-166h-590zM168 0v1464h915v-215h-643v-401h516v-205h-516v-428h678v-215h-950z" />
    <glyph glyph-name="uni0113" unicode="&#x113;" horiz-adv-x="1187" 
d="M317 1298v160h574v-160h-574zM618 -20q-240 0 -391 147t-151 397v17q0 246 150.5 399.5t381.5 153.5q82 0 155 -19t138 -61.5t112 -104.5t74 -153t27 -203v-72h-784q6 -153 82 -235t213 -82q217 0 245 164h240q-26 -167 -155.5 -257.5t-336.5 -90.5zM334 647h534
q-17 266 -260 266q-112 0 -183.5 -70.5t-90.5 -195.5z" />
    <glyph glyph-name="uni0114" unicode="&#x114;" horiz-adv-x="1196" 
d="M647 1559q-127 0 -209 79t-88 207h174q16 -114 123 -114q110 0 129 114h172q-7 -127 -91.5 -206.5t-209.5 -79.5zM168 0v1464h915v-215h-643v-401h516v-205h-516v-428h678v-215h-950z" />
    <glyph glyph-name="uni0115" unicode="&#x115;" horiz-adv-x="1187" 
d="M588 1241q-126 0 -208 80.5t-89 212.5h172q16 -119 125 -119q110 0 133 119h168q-7 -131 -92 -212t-209 -81zM618 -20q-240 0 -391 147t-151 397v17q0 246 150.5 399.5t381.5 153.5q82 0 155 -19t138 -61.5t112 -104.5t74 -153t27 -203v-72h-784q6 -153 82 -235t213 -82
q217 0 245 164h240q-26 -167 -155.5 -257.5t-336.5 -90.5zM334 647h534q-17 266 -260 266q-112 0 -183.5 -70.5t-90.5 -195.5z" />
    <glyph glyph-name="uni0116" unicode="&#x116;" horiz-adv-x="1196" 
d="M641 1587q-61 0 -103 41.5t-42 100.5t42 99t103 40q60 0 102.5 -40.5t42.5 -98.5q0 -59 -42.5 -100.5t-102.5 -41.5zM168 0v1464h915v-215h-643v-401h516v-205h-516v-428h678v-215h-950z" />
    <glyph glyph-name="uni0117" unicode="&#x117;" horiz-adv-x="1187" 
d="M604 1251q-61 0 -103 41t-42 101q0 59 42 99t103 40q60 0 103 -40.5t43 -98.5q0 -60 -43 -101t-103 -41zM618 -20q-240 0 -391 147t-151 397v17q0 246 150.5 399.5t381.5 153.5q82 0 155 -19t138 -61.5t112 -104.5t74 -153t27 -203v-72h-784q6 -153 82 -235t213 -82
q217 0 245 164h240q-26 -167 -155.5 -257.5t-336.5 -90.5zM334 647h534q-17 266 -260 266q-112 0 -183.5 -70.5t-90.5 -195.5z" />
    <glyph glyph-name="uni0118" unicode="&#x118;" horiz-adv-x="1196" 
d="M940 -373q-103 0 -165 45t-62 121q0 64 47 117.5t119 89.5h-711v1464h915v-215h-643v-401h516v-205h-516v-428h678v-215h-65q-60 -43 -88.5 -79.5t-28.5 -76.5q0 -65 72 -65q48 0 88 18v-141q-63 -29 -156 -29z" />
    <glyph glyph-name="uni0119" unicode="&#x119;" horiz-adv-x="1187" 
d="M809 -373q-102 0 -163.5 44t-61.5 120q0 58 42.5 109t108.5 88q-47 -8 -117 -8q-240 0 -391 147t-151 397v17q0 246 150.5 399.5t381.5 153.5q82 0 155 -19t138 -61.5t112 -104.5t74 -153t27 -203v-72h-784q6 -153 82 -235t213 -82q217 0 245 164h240q-9 -55 -27.5 -101
t-48 -82.5t-46.5 -54t-48 -45.5q-70 -64 -105.5 -111.5t-35.5 -91.5q0 -67 71 -67q50 0 91 18v-137q-67 -29 -152 -29zM334 647h534q-17 266 -260 266q-112 0 -183.5 -70.5t-90.5 -195.5z" />
    <glyph glyph-name="uni011A" unicode="&#x11a;" horiz-adv-x="1196" 
d="M535 1569l-222 276h181l153 -112l152 112h176l-225 -276h-215zM168 0v1464h915v-215h-643v-401h516v-205h-516v-428h678v-215h-950z" />
    <glyph glyph-name="uni011B" unicode="&#x11b;" horiz-adv-x="1187" 
d="M504 1233l-230 309h179l153 -137l154 137h172l-232 -309h-196zM618 -20q-240 0 -391 147t-151 397v17q0 246 150.5 399.5t381.5 153.5q82 0 155 -19t138 -61.5t112 -104.5t74 -153t27 -203v-72h-784q6 -153 82 -235t213 -82q217 0 245 164h240q-26 -167 -155.5 -257.5
t-336.5 -90.5zM334 647h534q-17 266 -260 266q-112 0 -183.5 -70.5t-90.5 -195.5z" />
    <glyph glyph-name="uni011C" unicode="&#x11c;" horiz-adv-x="1587" 
d="M483 1569l228 276h213l221 -276h-180l-152 112l-154 -112h-176zM825 -20q-229 0 -396 96t-251 262.5t-84 384.5v16q0 215 93 386t260 266.5t378 95.5q121 0 226 -28.5t191.5 -86.5t143 -155t70.5 -224h-272q-24 142 -116 210.5t-239 68.5q-213 0 -332.5 -145t-119.5 -390
v-16q0 -243 114.5 -385.5t337.5 -142.5q100 0 176 28.5t122.5 79.5t70.5 116t27 144h-369v205h637v-135q0 -304 -178.5 -477.5t-489.5 -173.5z" />
    <glyph glyph-name="uni011D" unicode="&#x11d;" horiz-adv-x="1296" 
d="M281 1233l233 309h197l227 -309h-176l-154 139l-155 -139h-172zM604 -393q-240 0 -366.5 96t-149.5 260h250q32 -168 264 -168q146 0 222.5 72.5t76.5 216.5v158q-48 -83 -143 -141t-207 -58q-205 0 -340 141t-135 369v14q0 226 137 376.5t344 150.5q236 0 344 -187v164
h248v-991q-1 -232 -146 -352.5t-399 -120.5zM612 233q131 0 214 88.5t83 239.5v14q0 152 -77 238t-211 86q-136 0 -213.5 -89.5t-77.5 -238.5v-16q0 -146 79.5 -234t202.5 -88z" />
    <glyph glyph-name="uni011E" unicode="&#x11e;" horiz-adv-x="1587" 
d="M813 1559q-127 0 -209 79t-88 207h174q16 -114 123 -114q110 0 129 114h172q-7 -127 -91.5 -206.5t-209.5 -79.5zM825 -20q-229 0 -396 96t-251 262.5t-84 384.5v16q0 215 93 386t260 266.5t378 95.5q121 0 226 -28.5t191.5 -86.5t143 -155t70.5 -224h-272
q-24 142 -116 210.5t-239 68.5q-213 0 -332.5 -145t-119.5 -390v-16q0 -243 114.5 -385.5t337.5 -142.5q100 0 176 28.5t122.5 79.5t70.5 116t27 144h-369v205h637v-135q0 -304 -178.5 -477.5t-489.5 -173.5z" />
    <glyph glyph-name="uni011F" unicode="&#x11f;" horiz-adv-x="1296" 
d="M608 1241q-126 0 -208 80.5t-89 212.5h172q16 -119 125 -119q110 0 133 119h168q-7 -131 -92 -212t-209 -81zM604 -393q-240 0 -366.5 96t-149.5 260h250q32 -168 264 -168q146 0 222.5 72.5t76.5 216.5v158q-48 -83 -143 -141t-207 -58q-205 0 -340 141t-135 369v14
q0 226 137 376.5t344 150.5q236 0 344 -187v164h248v-991q-1 -232 -146 -352.5t-399 -120.5zM612 233q131 0 214 88.5t83 239.5v14q0 152 -77 238t-211 86q-136 0 -213.5 -89.5t-77.5 -238.5v-16q0 -146 79.5 -234t202.5 -88z" />
    <glyph glyph-name="uni0120" unicode="&#x120;" horiz-adv-x="1587" 
d="M815 1587q-61 0 -103 41.5t-42 100.5t42 99t103 40q60 0 103 -40.5t43 -98.5t-43 -100t-103 -42zM825 -20q-229 0 -396 96t-251 262.5t-84 384.5v16q0 215 93 386t260 266.5t378 95.5q121 0 226 -28.5t191.5 -86.5t143 -155t70.5 -224h-272q-24 142 -116 210.5t-239 68.5
q-213 0 -332.5 -145t-119.5 -390v-16q0 -243 114.5 -385.5t337.5 -142.5q100 0 176 28.5t122.5 79.5t70.5 116t27 144h-369v205h637v-135q0 -304 -178.5 -477.5t-489.5 -173.5z" />
    <glyph glyph-name="uni0121" unicode="&#x121;" horiz-adv-x="1296" 
d="M610 1251q-61 0 -103 41t-42 101q0 59 42 99t103 40q60 0 103 -40.5t43 -98.5q0 -60 -43 -101t-103 -41zM604 -393q-240 0 -366.5 96t-149.5 260h250q32 -168 264 -168q146 0 222.5 72.5t76.5 216.5v158q-48 -83 -143 -141t-207 -58q-205 0 -340 141t-135 369v14
q0 226 137 376.5t344 150.5q236 0 344 -187v164h248v-991q-1 -232 -146 -352.5t-399 -120.5zM612 233q131 0 214 88.5t83 239.5v14q0 152 -77 238t-211 86q-136 0 -213.5 -89.5t-77.5 -238.5v-16q0 -146 79.5 -234t202.5 -88z" />
    <glyph glyph-name="uni0122" unicode="&#x122;" horiz-adv-x="1587" 
d="M825 -20q-229 0 -396 96t-251 262.5t-84 384.5v16q0 215 93 386t260 266.5t378 95.5q121 0 226 -28.5t191.5 -86.5t143 -155t70.5 -224h-272q-24 142 -116 210.5t-239 68.5q-213 0 -332.5 -145t-119.5 -390v-16q0 -243 114.5 -385.5t337.5 -142.5q100 0 176 28.5
t122.5 79.5t70.5 116t27 144h-369v205h637v-135q0 -304 -178.5 -477.5t-489.5 -173.5zM762 -461l-146 55l107 338l227 -45z" />
    <glyph glyph-name="uni0123" unicode="&#x123;" horiz-adv-x="1296" 
d="M727 1204l-227 45l188 346l143 -53zM604 -393q-240 0 -366.5 96t-149.5 260h250q32 -168 264 -168q146 0 222.5 72.5t76.5 216.5v158q-48 -83 -143 -141t-207 -58q-205 0 -340 141t-135 369v14q0 226 137 376.5t344 150.5q236 0 344 -187v164h248v-991
q-1 -232 -146 -352.5t-399 -120.5zM612 233q131 0 214 88.5t83 239.5v14q0 152 -77 238t-211 86q-136 0 -213.5 -89.5t-77.5 -238.5v-16q0 -146 79.5 -234t202.5 -88z" />
    <glyph glyph-name="uni0124" unicode="&#x124;" horiz-adv-x="1538" 
d="M436 1569l228 276h213l221 -276h-180l-152 112l-154 -112h-176zM168 0v1464h272v-622h658v622h274v-1464h-274v623h-658v-623h-272z" />
    <glyph glyph-name="uni0125" unicode="&#x125;" horiz-adv-x="1245" 
d="M311 1651l228 276h213l221 -276h-180l-152 112l-154 -112h-176zM147 0v1567h248v-666q41 84 131 138.5t215 54.5q169 0 268 -103.5t99 -316.5v-674h-248v651q0 122 -51.5 179t-161.5 57t-181 -66.5t-71 -189.5v-631h-248z" />
    <glyph glyph-name="uni0126" unicode="&#x126;" horiz-adv-x="1538" 
d="M33 1032v160h135v272h272v-272h658v272h274v-272h135v-160h-135v-1032h-274v623h-658v-623h-272v1032h-135zM440 842h658v190h-658v-190z" />
    <glyph glyph-name="uni0127" unicode="&#x127;" horiz-adv-x="1245" 
d="M8 1237v154h139v176h248v-176h346v-154h-346v-336q41 84 131 138.5t215 54.5q169 0 268 -103.5t99 -316.5v-674h-248v651q0 122 -51.5 179t-161.5 57t-181 -66.5t-71 -189.5v-631h-248v1237h-139z" />
    <glyph glyph-name="uni0128" unicode="&#x128;" horiz-adv-x="628" 
d="M436 1573q-42 0 -86.5 20t-81.5 40t-61 20q-27 0 -48.5 -23t-27.5 -59h-156q10 126 72.5 197t151.5 71q51 0 127 -41t104 -41q27 0 47.5 23t26.5 59h158q-12 -125 -75 -195.5t-151 -70.5zM176 0v1464h275v-1464h-275z" />
    <glyph glyph-name="uni0129" unicode="&#x129;" horiz-adv-x="555" 
d="M397 1241q-42 0 -86 20.5t-81 41t-60 20.5q-27 0 -48.5 -23t-27.5 -59h-153q12 127 71.5 197.5t147.5 70.5q51 0 126 -39.5t103 -39.5t48 22t26 59h153q-12 -126 -72 -198t-147 -72zM154 0v1071h247v-1071h-247z" />
    <glyph glyph-name="uni012A" unicode="&#x12a;" horiz-adv-x="628" 
d="M18 1597v166h590v-166h-590zM176 0v1464h275v-1464h-275z" />
    <glyph glyph-name="uni012B" unicode="&#x12b;" horiz-adv-x="555" 
d="M57 1298v160h439v-160h-439zM154 0v1071h247v-1071h-247z" />
    <glyph glyph-name="uni012C" unicode="&#x12c;" horiz-adv-x="628" 
d="M315 1559q-127 0 -209 79t-88 207h175q16 -114 122 -114q110 0 129 114h172q-7 -127 -91.5 -206.5t-209.5 -79.5zM176 0v1464h275v-1464h-275z" />
    <glyph glyph-name="uni012D" unicode="&#x12d;" horiz-adv-x="555" 
d="M276 1241q-126 0 -207 80.5t-89 212.5h172q16 -119 124 -119q111 0 134 119h168q-7 -131 -92.5 -212t-209.5 -81zM154 0v1071h247v-1071h-247z" />
    <glyph glyph-name="uni012E" unicode="&#x12e;" horiz-adv-x="628" 
d="M317 -373q-105 0 -167 45t-62 121q0 64 47 117.5t119 89.5h-78v1464h275v-1450q-140 -85 -140 -170q0 -65 72 -65q51 0 88 18v-141q-63 -29 -154 -29z" />
    <glyph glyph-name="uni012F" unicode="&#x12f;" horiz-adv-x="555" 
d="M274 1247q-62 0 -104.5 41t-42.5 101q0 61 42.5 102t104.5 41t105 -41t43 -102q0 -60 -43 -101t-105 -41zM274 -373q-102 0 -162.5 44.5t-60.5 121.5q0 65 46.5 118.5t119.5 88.5h-63v1071h247v-1061q-135 -86 -135 -168q0 -67 72 -67q50 0 88 18v-137q-63 -29 -152 -29z
" />
    <glyph glyph-name="uni0130" unicode="&#x130;" horiz-adv-x="628" 
d="M315 1587q-61 0 -103 41.5t-42 100.5t42 99t103 40q60 0 103 -40.5t43 -98.5t-43 -100t-103 -42zM176 0v1464h275v-1464h-275z" />
    <glyph glyph-name="uni0131" unicode="&#x131;" horiz-adv-x="555" 
d="M154 0v1071h247v-1071h-247z" />
    <glyph glyph-name="uni0132" unicode="&#x132;" horiz-adv-x="1464" 
d="M176 0v1464h275v-1464h-275zM858 -18q-148 0 -229 43v213q94 -37 188 -37q219 0 219 250v1013h275v-1020q0 -230 -121.5 -346t-331.5 -116z" />
    <glyph glyph-name="uni0133" unicode="&#x133;" horiz-adv-x="555" 
d="M274 1247q-62 0 -104.5 41t-42.5 101q0 61 42.5 102t104.5 41t105 -41t43 -102q0 -60 -43 -101t-105 -41zM829 1247q-62 0 -104.5 41t-42.5 101q0 61 42.5 102t104.5 41t105 -41t43 -102q0 -60 -43 -101t-105 -41zM154 0v1071h247v-1071h-247zM561 -385v190
q79 6 113.5 44t34.5 108v1114h247v-1108q0 -171 -90.5 -258t-304.5 -90z" />
    <glyph glyph-name="uni0134" unicode="&#x134;" horiz-adv-x="907" 
d="M281 1569l227 276h213l221 -276h-180l-152 112l-153 -112h-176zM303 -18q-148 0 -229 43v213q94 -37 188 -37q219 0 219 250v1013h275v-1020q0 -230 -121.5 -346t-331.5 -116z" />
    <glyph glyph-name="uni0135" unicode="&#x135;" horiz-adv-x="555" 
d="M-53 1233l233 309h197l227 -309h-176l-154 139l-155 -139h-172zM6 -385v190q79 6 113.5 44t34.5 108v1114h247v-1108q0 -171 -90.5 -258t-304.5 -90z" />
    <glyph glyph-name="uni0136" unicode="&#x136;" horiz-adv-x="1349" 
d="M168 0v1464h272v-663l561 665h293l-606 -700l637 -766h-321l-564 684v-684h-272zM647 -461l-145 55l106 338l228 -45z" />
    <glyph glyph-name="uni0137" unicode="&#x137;" horiz-adv-x="1105" 
d="M147 0v1567h248v-967l383 471h271l-416 -491l450 -580h-286l-402 526v-526h-248zM524 -461l-145 55l106 338l228 -45z" />
    <glyph glyph-name="uni0139" unicode="&#x139;" horiz-adv-x="1128" 
d="M203 1569l110 276h279l-203 -276h-186zM168 0v1464h272v-1247h625v-217h-897z" />
    <glyph glyph-name="uni013A" unicode="&#x13a;" horiz-adv-x="555" 
d="M176 1651l111 276h278l-203 -276h-186zM154 0v1567h247v-1567h-247z" />
    <glyph glyph-name="uni013B" unicode="&#x13b;" horiz-adv-x="1128" 
d="M168 0v1464h272v-1247h625v-217h-897zM561 -461l-145 55l106 338l228 -45z" />
    <glyph glyph-name="uni013C" unicode="&#x13c;" horiz-adv-x="555" 
d="M154 0v1567h247v-1567h-247zM225 -461l-145 55l106 338l228 -45z" />
    <glyph glyph-name="uni013D" unicode="&#x13d;" horiz-adv-x="1128" 
d="M641 1126l41 338h236l-121 -338h-156zM168 0v1464h272v-1247h625v-217h-897z" />
    <glyph glyph-name="uni013E" unicode="&#x13e;" horiz-adv-x="555" 
d="M154 0v1567h247v-1567h-247zM492 1208l20 359h225l-100 -359h-145z" />
    <glyph glyph-name="uni013F" unicode="&#x13f;" horiz-adv-x="1148" 
d="M168 0v1464h272v-1247h625v-217h-897zM879 639q-67 0 -114.5 47.5t-47.5 114.5t47 113.5t115 46.5q69 0 116 -46t47 -114t-47 -115t-116 -47z" />
    <glyph glyph-name="uni0140" unicode="&#x140;" horiz-adv-x="774" 
d="M154 0v1567h247v-1567h-247zM659 584q-67 0 -114 47t-47 114t46.5 113.5t114.5 46.5q69 0 116.5 -46.5t47.5 -113.5q0 -68 -47.5 -114.5t-116.5 -46.5z" />
    <glyph glyph-name="uni0141" unicode="&#x141;" horiz-adv-x="1167" 
d="M72 496v172l135 47v749h274v-651l391 141v-172l-391 -141v-424h625v-217h-899v543z" />
    <glyph glyph-name="uni0142" unicode="&#x142;" horiz-adv-x="612" 
d="M39 596v180l143 76v715h248v-584l152 82v-180l-152 -82v-803h-248v672z" />
    <glyph glyph-name="uni0143" unicode="&#x143;" horiz-adv-x="1525" 
d="M682 1569l111 276h278l-203 -276h-186zM168 0v1464h326l616 -1058v1058h248v-1464h-283l-659 1122v-1122h-248z" />
    <glyph glyph-name="uni0144" unicode="&#x144;" horiz-adv-x="1245" 
d="M518 1231l121 317h274l-213 -317h-182zM147 0v1071h248v-170q41 84 131 138.5t215 54.5q169 0 268 -103.5t99 -316.5v-674h-248v651q0 122 -51.5 179t-161.5 57t-181 -66.5t-71 -189.5v-631h-248z" />
    <glyph glyph-name="uni0145" unicode="&#x145;" horiz-adv-x="1525" 
d="M168 0v1464h326l616 -1058v1058h248v-1464h-283l-659 1122v-1122h-248zM690 -461l-145 55l106 338l228 -45z" />
    <glyph glyph-name="uni0146" unicode="&#x146;" horiz-adv-x="1245" 
d="M147 0v1071h248v-170q41 84 131 138.5t215 54.5q169 0 268 -103.5t99 -316.5v-674h-248v651q0 122 -51.5 179t-161.5 57t-181 -66.5t-71 -189.5v-631h-248zM567 -461l-145 55l106 338l228 -45z" />
    <glyph glyph-name="uni0147" unicode="&#x147;" horiz-adv-x="1525" 
d="M678 1569l-221 276h180l154 -112l151 112h176l-225 -276h-215zM168 0v1464h326l616 -1058v1058h248v-1464h-283l-659 1122v-1122h-248z" />
    <glyph glyph-name="uni0148" unicode="&#x148;" horiz-adv-x="1245" 
d="M520 1233l-229 309h178l154 -137l153 137h172l-231 -309h-197zM147 0v1071h248v-170q41 84 131 138.5t215 54.5q169 0 268 -103.5t99 -316.5v-674h-248v651q0 122 -51.5 179t-161.5 57t-181 -66.5t-71 -189.5v-631h-248z" />
    <glyph glyph-name="uni0149" unicode="&#x149;" horiz-adv-x="1341" 
d="M66 950l-146 66l176 473l223 -88zM242 0v1071h247v-170q41 84 131.5 138.5t215.5 54.5q169 0 267.5 -103.5t98.5 -316.5v-674h-248v651q0 122 -51.5 179t-161.5 57t-181 -66.5t-71 -189.5v-631h-247z" />
    <glyph glyph-name="uni014A" unicode="&#x14a;" horiz-adv-x="1525" 
d="M918 -395q-136 0 -224 43v207q94 -37 180 -37q95 0 151 48.5t62 145.5l-667 1125v-1137h-252v1464h330l608 -1038v1038h252v-1433q0 -207 -118.5 -316.5t-321.5 -109.5z" />
    <glyph glyph-name="uni014B" unicode="&#x14b;" horiz-adv-x="1245" 
d="M715 -385v190q79 6 112 43.5t33 108.5v694q0 122 -51.5 179t-161.5 57t-181 -66.5t-71 -189.5v-631h-248v1071h248v-170q41 84 131 138.5t215 54.5q169 0 268 -103.5t99 -316.5v-711q0 -171 -90 -258t-303 -90z" />
    <glyph glyph-name="uni014C" unicode="&#x14c;" horiz-adv-x="1667" 
d="M537 1597v166h589v-166h-589zM836 -20q-220 0 -390 97.5t-261 266.5t-91 379v16q0 159 55.5 297t152.5 237t235.5 155.5t298.5 56.5q215 0 383.5 -95t261 -263.5t92.5 -381.5v-16q0 -213 -90.5 -383t-259.5 -268t-387 -98zM840 199q206 0 328 144.5t122 383.5v16
q0 151 -53 269.5t-157 187t-244 68.5q-213 0 -335 -144t-122 -383v-16q0 -237 129.5 -381.5t331.5 -144.5z" />
    <glyph glyph-name="uni014D" unicode="&#x14d;" horiz-adv-x="1251" 
d="M338 1298v160h573v-160h-573zM625 -20q-239 0 -394 151t-155 393v17q0 246 156 399.5t395 153.5q238 0 393.5 -152t155.5 -395v-17q0 -247 -155.5 -398.5t-395.5 -151.5zM627 172q138 0 216.5 95.5t78.5 260.5v15q0 166 -78.5 261t-216.5 95t-217.5 -94.5t-79.5 -259.5
v-17q0 -165 78.5 -260.5t218.5 -95.5z" />
    <glyph glyph-name="uni014E" unicode="&#x14e;" horiz-adv-x="1667" 
d="M829 1559q-127 0 -209 79t-88 207h175q16 -114 122 -114q110 0 129 114h172q-7 -127 -91.5 -206.5t-209.5 -79.5zM836 -20q-220 0 -390 97.5t-261 266.5t-91 379v16q0 159 55.5 297t152.5 237t235.5 155.5t298.5 56.5q215 0 383.5 -95t261 -263.5t92.5 -381.5v-16
q0 -213 -90.5 -383t-259.5 -268t-387 -98zM840 199q206 0 328 144.5t122 383.5v16q0 151 -53 269.5t-157 187t-244 68.5q-213 0 -335 -144t-122 -383v-16q0 -237 129.5 -381.5t331.5 -144.5z" />
    <glyph glyph-name="uni014F" unicode="&#x14f;" horiz-adv-x="1251" 
d="M623 1241q-126 0 -208 80.5t-89 212.5h172q16 -119 125 -119q110 0 133 119h168q-7 -131 -92 -212t-209 -81zM625 -20q-239 0 -394 151t-155 393v17q0 246 156 399.5t395 153.5q238 0 393.5 -152t155.5 -395v-17q0 -247 -155.5 -398.5t-395.5 -151.5zM627 172
q138 0 216.5 95.5t78.5 260.5v15q0 166 -78.5 261t-216.5 95t-217.5 -94.5t-79.5 -259.5v-17q0 -165 78.5 -260.5t218.5 -95.5z" />
    <glyph glyph-name="uni0150" unicode="&#x150;" horiz-adv-x="1667" 
d="M557 1569l78 276h242l-150 -276h-170zM905 1569l78 276h242l-150 -276h-170zM836 -20q-220 0 -390 97.5t-261 266.5t-91 379v16q0 159 55.5 297t152.5 237t235.5 155.5t298.5 56.5q215 0 383.5 -95t261 -263.5t92.5 -381.5v-16q0 -213 -90.5 -383t-259.5 -268t-387 -98z
M840 199q206 0 328 144.5t122 383.5v16q0 151 -53 269.5t-157 187t-244 68.5q-213 0 -335 -144t-122 -383v-16q0 -237 129.5 -381.5t331.5 -144.5z" />
    <glyph glyph-name="uni0151" unicode="&#x151;" horiz-adv-x="1251" 
d="M362 1231l84 317h232l-156 -317h-160zM696 1231l84 317h232l-156 -317h-160zM625 -20q-239 0 -394 151t-155 393v17q0 246 156 399.5t395 153.5q238 0 393.5 -152t155.5 -395v-17q0 -247 -155.5 -398.5t-395.5 -151.5zM627 172q138 0 216.5 95.5t78.5 260.5v15
q0 166 -78.5 261t-216.5 95t-217.5 -94.5t-79.5 -259.5v-17q0 -165 78.5 -260.5t218.5 -95.5z" />
    <glyph glyph-name="uni0152" unicode="&#x152;" horiz-adv-x="1974" 
d="M94 735q0 162 47.5 294t140 230t238.5 151.5t334 53.5h1010v-215h-613v-401h484v-205h-484v-428h647v-215h-1048q-187 0 -332 52t-237 147t-139.5 226t-47.5 292v18zM979 1249h-119q-241 0 -361 -132.5t-120 -379.5v-16q0 -506 485 -506h115v1034z" />
    <glyph glyph-name="uni0153" unicode="&#x153;" horiz-adv-x="2029" 
d="M625 -20q-239 0 -394 151t-155 393v17q0 246 156 399.5t395 153.5q136 0 243 -55t174 -156q65 101 169.5 156t236.5 55q103 0 192 -31.5t161 -94.5t113.5 -169.5t41.5 -245.5v-72h-787q6 -153 82 -235t215 -82q214 0 246 164h238q-26 -167 -155 -257.5t-335 -90.5
q-141 0 -248 53.5t-172 154.5q-66 -100 -173.5 -154t-243.5 -54zM1176 647h534q-17 266 -260 266q-110 0 -182.5 -70.5t-91.5 -195.5zM627 172q137 0 216 96t79 258v17q0 166 -78.5 261t-216.5 95t-217.5 -94.5t-79.5 -259.5v-17q0 -165 79 -260.5t218 -95.5z" />
    <glyph glyph-name="uni0154" unicode="&#x154;" horiz-adv-x="1341" 
d="M549 1569l110 276h279l-203 -276h-186zM168 0v1464h491q123 0 221.5 -25.5t172 -77t113.5 -134.5t40 -193v-8q0 -162 -88.5 -258.5t-236.5 -134.5l411 -633h-295l-383 592h-174v-592h-272zM440 786h219q279 0 279 234v8q0 121 -71 173t-208 52h-219v-467z" />
    <glyph glyph-name="uni0155" unicode="&#x155;" horiz-adv-x="813" 
d="M340 1231l121 317h274l-213 -317h-182zM147 0v1071h248v-201q54 106 136 161t212 56v-231q-173 -2 -260.5 -69t-87.5 -230v-557h-248z" />
    <glyph glyph-name="uni0156" unicode="&#x156;" horiz-adv-x="1341" 
d="M168 0v1464h491q123 0 221.5 -25.5t172 -77t113.5 -134.5t40 -193v-8q0 -162 -88.5 -258.5t-236.5 -134.5l411 -633h-295l-383 592h-174v-592h-272zM440 786h219q279 0 279 234v8q0 121 -71 173t-208 52h-219v-467zM627 -461l-146 55l107 338l227 -45z" />
    <glyph glyph-name="uni0157" unicode="&#x157;" horiz-adv-x="813" 
d="M147 0v1071h248v-201q54 106 136 161t212 56v-231q-173 -2 -260.5 -69t-87.5 -230v-557h-248zM217 -461l-145 55l106 338l228 -45z" />
    <glyph glyph-name="uni0158" unicode="&#x158;" horiz-adv-x="1341" 
d="M545 1569l-221 276h180l153 -112l152 112h176l-225 -276h-215zM168 0v1464h491q123 0 221.5 -25.5t172 -77t113.5 -134.5t40 -193v-8q0 -162 -88.5 -258.5t-236.5 -134.5l411 -633h-295l-383 592h-174v-592h-272zM440 786h219q279 0 279 234v8q0 121 -71 173t-208 52
h-219v-467z" />
    <glyph glyph-name="uni0159" unicode="&#x159;" horiz-adv-x="813" 
d="M342 1233l-229 309h178l153 -137l154 137h172l-231 -309h-197zM147 0v1071h248v-201q54 106 136 161t212 56v-231q-173 -2 -260.5 -69t-87.5 -230v-557h-248z" />
    <glyph glyph-name="uni015A" unicode="&#x15a;" horiz-adv-x="1300" 
d="M526 1569l111 276h278l-202 -276h-187zM666 -20q-146 0 -257 35t-180 99.5t-106 149.5t-45 191h262q6 -48 17 -85t34.5 -73.5t58 -60t89.5 -38t127 -14.5q122 0 199 62.5t77 163.5q0 102 -63.5 149t-241.5 76q-271 36 -393.5 132t-122.5 296q0 182 142 301t368 119
q238 0 374 -107.5t158 -316.5h-250q-20 115 -87.5 167t-194.5 52q-121 0 -186.5 -53t-65.5 -140q0 -48 11.5 -79.5t44.5 -58.5t92.5 -45t154.5 -32q108 -15 187 -35.5t144.5 -54.5t106 -81t62.5 -113.5t22 -153.5q0 -194 -149.5 -323t-388.5 -129z" />
    <glyph glyph-name="uni015B" unicode="&#x15b;" horiz-adv-x="1011" 
d="M399 1231l121 317h275l-213 -317h-183zM514 -20q-207 0 -324 92t-124 262h233q9 -86 58.5 -129t154.5 -43q193 0 193 137q0 63 -52.5 94.5t-177.5 52.5q-214 34 -300.5 105.5t-86.5 220.5q0 103 59.5 178t148.5 109.5t193 34.5q384 0 420 -324h-229q-15 74 -60.5 108.5
t-130.5 34.5q-79 0 -124.5 -34.5t-45.5 -92.5t47 -86.5t175 -50.5q103 -16 170.5 -36t123 -56.5t81.5 -94t26 -140.5q0 -163 -111.5 -252.5t-316.5 -89.5z" />
    <glyph glyph-name="uni015C" unicode="&#x15c;" horiz-adv-x="1300" 
d="M301 1569l227 276h213l222 -276h-181l-151 112l-154 -112h-176zM666 -20q-146 0 -257 35t-180 99.5t-106 149.5t-45 191h262q6 -48 17 -85t34.5 -73.5t58 -60t89.5 -38t127 -14.5q122 0 199 62.5t77 163.5q0 102 -63.5 149t-241.5 76q-271 36 -393.5 132t-122.5 296
q0 182 142 301t368 119q238 0 374 -107.5t158 -316.5h-250q-20 115 -87.5 167t-194.5 52q-121 0 -186.5 -53t-65.5 -140q0 -48 11.5 -79.5t44.5 -58.5t92.5 -45t154.5 -32q108 -15 187 -35.5t144.5 -54.5t106 -81t62.5 -113.5t22 -153.5q0 -194 -149.5 -323t-388.5 -129z
" />
    <glyph glyph-name="uni015D" unicode="&#x15d;" horiz-adv-x="1011" 
d="M170 1233l233 309h197l227 -309h-176l-153 139l-156 -139h-172zM514 -20q-207 0 -324 92t-124 262h233q9 -86 58.5 -129t154.5 -43q193 0 193 137q0 63 -52.5 94.5t-177.5 52.5q-214 34 -300.5 105.5t-86.5 220.5q0 103 59.5 178t148.5 109.5t193 34.5q384 0 420 -324
h-229q-15 74 -60.5 108.5t-130.5 34.5q-79 0 -124.5 -34.5t-45.5 -92.5t47 -86.5t175 -50.5q103 -16 170.5 -36t123 -56.5t81.5 -94t26 -140.5q0 -163 -111.5 -252.5t-316.5 -89.5z" />
    <glyph glyph-name="uni015E" unicode="&#x15e;" horiz-adv-x="1300" 
d="M604 -449q-96 0 -156 48.5t-69 132.5h135q5 -29 26 -48.5t56 -19.5t55.5 19.5t20.5 50.5q0 29 -20 47t-52 18q-34 0 -61 -18l-70 65l82 140q-228 25 -343.5 149t-129.5 320h262q6 -48 17 -85t34.5 -73.5t58 -60t89.5 -38t127 -14.5q122 0 199 62.5t77 163.5
q0 102 -63.5 149t-241.5 76q-271 36 -393.5 132t-122.5 296q0 182 142 301t368 119q238 0 374 -107.5t158 -316.5h-250q-20 115 -87.5 167t-194.5 52q-121 0 -186.5 -53t-65.5 -140q0 -48 11.5 -79.5t44.5 -58.5t92.5 -45t154.5 -32q108 -15 187 -35.5t144.5 -54.5t106 -81
t62.5 -113.5t22 -153.5q0 -193 -148 -322t-386 -130l-47 -82q83 10 143.5 -34.5t60.5 -135.5q0 -84 -62 -130.5t-161 -46.5z" />
    <glyph glyph-name="uni015F" unicode="&#x15f;" horiz-adv-x="1011" 
d="M475 -449q-96 0 -156 48.5t-69 132.5h135q5 -29 26 -48.5t56 -19.5t55.5 19.5t20.5 50.5q0 29 -20 47t-52 18q-34 0 -61 -18l-70 65l80 140q-165 19 -256.5 108.5t-97.5 239.5h233q9 -86 58.5 -129t154.5 -43q193 0 193 137q0 63 -52.5 94.5t-177.5 52.5
q-214 34 -300.5 105.5t-86.5 220.5q0 103 59.5 178t148.5 109.5t193 34.5q384 0 420 -324h-229q-15 74 -60.5 108.5t-130.5 34.5q-79 0 -124.5 -34.5t-45.5 -92.5t47 -86.5t175 -50.5q103 -16 170.5 -36t123 -56.5t81.5 -94t26 -140.5q0 -158 -104 -247t-297 -95l-47 -82
q83 10 143.5 -34.5t60.5 -135.5q0 -84 -62 -130.5t-161 -46.5z" />
    <glyph glyph-name="uni0160" unicode="&#x160;" horiz-adv-x="1300" 
d="M522 1569l-221 276h180l154 -112l151 112h177l-226 -276h-215zM666 -20q-146 0 -257 35t-180 99.5t-106 149.5t-45 191h262q6 -48 17 -85t34.5 -73.5t58 -60t89.5 -38t127 -14.5q122 0 199 62.5t77 163.5q0 102 -63.5 149t-241.5 76q-271 36 -393.5 132t-122.5 296
q0 182 142 301t368 119q238 0 374 -107.5t158 -316.5h-250q-20 115 -87.5 167t-194.5 52q-121 0 -186.5 -53t-65.5 -140q0 -48 11.5 -79.5t44.5 -58.5t92.5 -45t154.5 -32q108 -15 187 -35.5t144.5 -54.5t106 -81t62.5 -113.5t22 -153.5q0 -194 -149.5 -323t-388.5 -129z
" />
    <glyph glyph-name="uni0161" unicode="&#x161;" horiz-adv-x="1011" 
d="M397 1233l-229 309h178l154 -137l153 137h172l-231 -309h-197zM514 -20q-207 0 -324 92t-124 262h233q9 -86 58.5 -129t154.5 -43q193 0 193 137q0 63 -52.5 94.5t-177.5 52.5q-214 34 -300.5 105.5t-86.5 220.5q0 103 59.5 178t148.5 109.5t193 34.5q384 0 420 -324
h-229q-15 74 -60.5 108.5t-130.5 34.5q-79 0 -124.5 -34.5t-45.5 -92.5t47 -86.5t175 -50.5q103 -16 170.5 -36t123 -56.5t81.5 -94t26 -140.5q0 -163 -111.5 -252.5t-316.5 -89.5z" />
    <glyph glyph-name="uni0162" unicode="&#x162;" horiz-adv-x="1196" 
d="M461 0v1249h-408v215h1090v-215h-408v-1249h-274zM543 -461l-146 55l107 338l227 -45z" />
    <glyph glyph-name="uni0163" unicode="&#x163;" horiz-adv-x="755" 
d="M512 -18q-159 0 -241.5 82t-82.5 235v586h-143v186h143v236h248v-236h236v-186h-236v-563q0 -138 123 -138q69 0 121 21v-197q-72 -26 -168 -26zM354 -461l-145 55l106 338l228 -45z" />
    <glyph glyph-name="uni0164" unicode="&#x164;" horiz-adv-x="1193" 
d="M485 1569l-221 276h180l154 -112l152 112h176l-226 -276h-215zM461 0v1249h-408v215h1090v-215h-408v-1249h-274z" />
    <glyph glyph-name="uni0165" unicode="&#x165;" horiz-adv-x="755" 
d="M563 1208l21 359h225l-100 -359h-146zM512 -18q-159 0 -241.5 82t-82.5 235v586h-143v186h143v236h248v-236h236v-186h-236v-563q0 -138 123 -138q69 0 121 21v-197q-72 -26 -168 -26z" />
    <glyph glyph-name="uni0166" unicode="&#x166;" horiz-adv-x="1193" 
d="M178 645v184h283v420h-408v215h1090v-215h-408v-420h281v-184h-281v-645h-274v645h-283z" />
    <glyph glyph-name="uni0167" unicode="&#x167;" horiz-adv-x="755" 
d="M45 535v153h143v199h-143v184h143v236h248v-236h234v-184h-234v-199h234v-153h-234v-213q0 -140 123 -140q63 0 121 23v-197q-84 -26 -168 -26q-159 0 -241.5 82t-82.5 235v236h-143z" />
    <glyph glyph-name="uni0168" unicode="&#x168;" horiz-adv-x="1480" 
d="M856 1573q-42 0 -86.5 20t-81.5 40t-61 20q-27 0 -48.5 -23t-27.5 -59h-156q10 126 72 197t151 71q51 0 127.5 -41t104.5 -41q27 0 47.5 23t26.5 59h157q-12 -125 -74.5 -195.5t-150.5 -70.5zM731 -20q-277 0 -426 148t-149 429v907h274v-886q0 -202 70.5 -290.5
t232.5 -88.5q165 0 241.5 88.5t76.5 308.5v868h274v-891q0 -288 -152 -440.5t-442 -152.5z" />
    <glyph glyph-name="uni0169" unicode="&#x169;" horiz-adv-x="1239" 
d="M737 1241q-42 0 -86 20.5t-81 41t-60 20.5q-27 0 -48.5 -23t-27.5 -59h-153q12 127 71.5 197.5t147.5 70.5q51 0 126 -39.5t103 -39.5t48 22t26 59h153q-12 -126 -72 -198t-147 -72zM506 -20q-168 0 -268.5 100.5t-100.5 304.5v686h248v-657q0 -121 51.5 -178.5
t159.5 -57.5q106 0 178 67t72 189v637h248v-1071h-248v168q-43 -84 -129.5 -136t-210.5 -52z" />
    <glyph glyph-name="uni016A" unicode="&#x16a;" horiz-adv-x="1480" 
d="M442 1597v166h590v-166h-590zM731 -20q-277 0 -426 148t-149 429v907h274v-886q0 -202 70.5 -290.5t232.5 -88.5q165 0 241.5 88.5t76.5 308.5v868h274v-891q0 -288 -152 -440.5t-442 -152.5z" />
    <glyph glyph-name="uni016B" unicode="&#x16b;" horiz-adv-x="1239" 
d="M332 1298v160h573v-160h-573zM506 -20q-168 0 -268.5 100.5t-100.5 304.5v686h248v-657q0 -121 51.5 -178.5t159.5 -57.5q106 0 178 67t72 189v637h248v-1071h-248v168q-43 -84 -129.5 -136t-210.5 -52z" />
    <glyph glyph-name="uni016C" unicode="&#x16c;" horiz-adv-x="1480" 
d="M735 1559q-127 0 -209 79t-88 207h174q16 -114 123 -114q110 0 129 114h172q-7 -127 -91.5 -206.5t-209.5 -79.5zM731 -20q-277 0 -426 148t-149 429v907h274v-886q0 -202 70.5 -290.5t232.5 -88.5q165 0 241.5 88.5t76.5 308.5v868h274v-891q0 -288 -152 -440.5
t-442 -152.5z" />
    <glyph glyph-name="uni016D" unicode="&#x16d;" horiz-adv-x="1239" 
d="M616 1241q-126 0 -208 80.5t-89 212.5h173q16 -119 124 -119q111 0 134 119h168q-7 -131 -92.5 -212t-209.5 -81zM506 -20q-168 0 -268.5 100.5t-100.5 304.5v686h248v-657q0 -121 51.5 -178.5t159.5 -57.5q106 0 178 67t72 189v637h248v-1071h-248v168
q-43 -84 -129.5 -136t-210.5 -52z" />
    <glyph glyph-name="uni016E" unicode="&#x16e;" horiz-adv-x="1480" 
d="M737 1501q-95 0 -162 65.5t-67 157.5t67 158t162 66t162.5 -66t67.5 -158t-67.5 -157.5t-162.5 -65.5zM737 1612q45 0 74 31.5t29 80.5t-29.5 81t-73.5 32q-45 0 -73.5 -31.5t-28.5 -81.5t28 -81t74 -31zM731 -20q-277 0 -426 148t-149 429v907h274v-886
q0 -202 70.5 -290.5t232.5 -88.5q165 0 241.5 88.5t76.5 308.5v868h274v-891q0 -288 -152 -440.5t-442 -152.5z" />
    <glyph glyph-name="uni016F" unicode="&#x16f;" horiz-adv-x="1239" 
d="M612 1153q-94 0 -160.5 65t-66.5 156t66.5 156t160.5 65t161 -65t67 -156t-67 -156t-161 -65zM612 1262q44 0 73.5 32.5t29.5 79.5q0 49 -29.5 81t-73.5 32t-73 -32t-29 -81q0 -48 29 -80t73 -32zM506 -20q-168 0 -268.5 100.5t-100.5 304.5v686h248v-657
q0 -121 51.5 -178.5t159.5 -57.5q106 0 178 67t72 189v637h248v-1071h-248v168q-43 -84 -129.5 -136t-210.5 -52z" />
    <glyph glyph-name="uni0170" unicode="&#x170;" horiz-adv-x="1480" 
d="M463 1569l78 276h241l-149 -276h-170zM811 1569l78 276h241l-149 -276h-170zM731 -20q-277 0 -426 148t-149 429v907h274v-886q0 -202 70.5 -290.5t232.5 -88.5q165 0 241.5 88.5t76.5 308.5v868h274v-891q0 -288 -152 -440.5t-442 -152.5z" />
    <glyph glyph-name="uni0171" unicode="&#x171;" horiz-adv-x="1239" 
d="M356 1231l84 317h232l-156 -317h-160zM690 1231l84 317h232l-156 -317h-160zM506 -20q-168 0 -268.5 100.5t-100.5 304.5v686h248v-657q0 -121 51.5 -178.5t159.5 -57.5q106 0 178 67t72 189v637h248v-1071h-248v168q-43 -84 -129.5 -136t-210.5 -52z" />
    <glyph glyph-name="uni0172" unicode="&#x172;" horiz-adv-x="1480" 
d="M815 -373q-102 0 -163.5 44t-61.5 120q0 56 36 105t93 84q-270 2 -416.5 150.5t-146.5 426.5v907h274v-886q0 -202 70.5 -290.5t232.5 -88.5q165 0 241.5 88.5t76.5 308.5v868h274v-891q0 -201 -75.5 -336.5t-215.5 -199.5q-35 -16 -45.5 -21t-40 -19.5t-40 -21.5
t-31.5 -20.5t-29 -24t-19 -24.5t-14.5 -28.5t-3.5 -31.5q0 -67 72 -67q51 0 88 18v-141q-63 -29 -156 -29z" />
    <glyph glyph-name="uni0173" unicode="&#x173;" horiz-adv-x="1239" 
d="M961 -373q-101 0 -162.5 44.5t-61.5 121.5q0 65 47.5 118t120.5 89h-59v168q-43 -84 -129.5 -136t-210.5 -52q-168 0 -268.5 100.5t-100.5 304.5v686h248v-657q0 -121 51.5 -178.5t159.5 -57.5q106 0 178 67t72 189v637h248v-1055q-75 -51 -107.5 -91.5t-32.5 -82.5
q0 -67 72 -67q50 0 88 18v-137q-63 -29 -153 -29z" />
    <glyph glyph-name="uni0174" unicode="&#x174;" horiz-adv-x="1955" 
d="M645 1569l227 276h213l222 -276h-181l-151 112l-154 -112h-176zM418 0l-365 1464h279l254 -1075l284 1075h226l290 -1081l263 1081h254l-367 -1464h-272l-289 1067l-297 -1067h-260z" />
    <glyph glyph-name="uni0175" unicode="&#x175;" horiz-adv-x="1667" 
d="M502 1233l233 309h197l227 -309h-176l-154 139l-155 -139h-172zM369 0l-328 1071h264l213 -774l227 774h207l209 -774l223 774h242l-336 -1071h-252l-198 721l-217 -721h-254z" />
    <glyph glyph-name="uni0176" unicode="&#x176;" horiz-adv-x="1288" 
d="M317 1569l228 276h213l221 -276h-180l-152 112l-153 -112h-177zM520 0v635l-485 829h301l330 -606l321 606h266l-458 -831v-633h-275z" />
    <glyph glyph-name="uni0177" unicode="&#x177;" horiz-adv-x="1132" 
d="M242 1233l233 309h197l227 -309h-176l-154 139l-155 -139h-172zM266 -367l195 476l-424 962h268l285 -690l262 690h242l-584 -1438h-244z" />
    <glyph glyph-name="uni0178" unicode="&#x178;" horiz-adv-x="1288" 
d="M432 1591q-56 0 -95.5 39t-39.5 94t39.5 94.5t95.5 39.5t95.5 -39.5t39.5 -94.5t-39.5 -94t-95.5 -39zM864 1591q-56 0 -95.5 39t-39.5 94t39.5 94.5t95.5 39.5t95.5 -39.5t39.5 -94.5t-39.5 -94t-95.5 -39zM520 0v635l-485 829h301l330 -606l321 606h266l-458 -831v-633
h-275z" />
    <glyph glyph-name="uni0179" unicode="&#x179;" horiz-adv-x="1245" 
d="M518 1569l111 276h278l-202 -276h-187zM45 0v37l748 1212h-672v215h1057v-34l-732 -1211h711v-219h-1112z" />
    <glyph glyph-name="uni017A" unicode="&#x17a;" horiz-adv-x="1009" 
d="M414 1231l121 317h274l-213 -317h-182zM35 0v29l567 845h-512v197h879v-35l-566 -837h549v-199h-917z" />
    <glyph glyph-name="uni017B" unicode="&#x17b;" horiz-adv-x="1245" 
d="M625 1587q-61 0 -103.5 41.5t-42.5 100.5t42.5 99t103.5 40q60 0 102.5 -40.5t42.5 -98.5q0 -59 -42.5 -100.5t-102.5 -41.5zM45 0v37l748 1212h-672v215h1057v-34l-732 -1211h711v-219h-1112z" />
    <glyph glyph-name="uni017C" unicode="&#x17c;" horiz-adv-x="1009" 
d="M518 1251q-61 0 -103 41t-42 101q0 59 42 99t103 40q60 0 103 -40.5t43 -98.5q0 -60 -43 -101t-103 -41zM35 0v29l567 845h-512v197h879v-35l-566 -837h549v-199h-917z" />
    <glyph glyph-name="uni017D" unicode="&#x17d;" horiz-adv-x="1245" 
d="M514 1569l-221 276h180l154 -112l151 112h176l-225 -276h-215zM45 0v37l748 1212h-672v215h1057v-34l-732 -1211h711v-219h-1112z" />
    <glyph glyph-name="uni017E" unicode="&#x17e;" horiz-adv-x="1009" 
d="M416 1233l-230 309h179l153 -137l154 137h172l-232 -309h-196zM35 0v29l567 845h-512v197h879v-35l-566 -837h549v-199h-917z" />
    <glyph glyph-name="uni0192" unicode="&#x192;" horiz-adv-x="854" 
d="M55 664v184h193l43 289q51 346 387 346q85 0 147 -23v-194q-48 20 -123 20q-143 0 -167 -168l-41 -270h256v-184h-283l-154 -1037h-245l153 1037h-166z" />
    <glyph glyph-name="uni01FA" unicode="&#x1fa;" horiz-adv-x="1439" 
d="M633 2023l110 277h279l-203 -277h-186zM729 1528q-95 0 -162 65.5t-67 157.5t67 157.5t162 65.5t162 -65.5t67 -157.5t-67 -157.5t-162 -65.5zM729 1638q44 0 73 32t29 81t-29 81t-73 32q-45 0 -73.5 -31.5t-28.5 -81.5t28.5 -81.5t73.5 -31.5zM55 0l490 1464h356
l483 -1464h-282l-117 362h-559l-115 -362h-256zM707 1241l-218 -680h433z" />
    <glyph glyph-name="uni01FB" unicode="&#x1fb;" horiz-adv-x="1136" 
d="M492 1696l110 276h279l-203 -276h-186zM573 1180q-94 0 -160.5 65t-66.5 156t66.5 156t160.5 65t161 -65t67 -156t-67 -156t-161 -65zM573 1288q44 0 73.5 32.5t29.5 80.5q0 49 -29 80.5t-74 31.5q-44 0 -73 -31.5t-29 -80.5q0 -48 29 -80.5t73 -32.5zM428 -20
q-158 0 -258 79t-100 238q0 91 41.5 158t118 106t173 57.5t215.5 18.5h134v55q0 111 -44.5 163t-150.5 52q-186 0 -205 -168h-239q6 73 32.5 132.5t68 100.5t98 69t121.5 40.5t138 12.5q94 0 169 -20.5t134.5 -65t92 -122t32.5 -184.5v-702h-243v131q-56 -74 -133.5 -112.5
t-194.5 -38.5zM487 158q117 0 191 58t74 159v106h-127q-150 0 -230 -40t-80 -134q0 -149 172 -149z" />
    <glyph glyph-name="uni01FC" unicode="&#x1fc;" horiz-adv-x="1988" 
d="M1145 1569l110 276h279l-203 -276h-186zM45 0l719 1464h1112v-215h-639v-401h512v-205h-512v-428h674v-215h-946v375h-476l-178 -375h-266zM909 1249l-325 -680h381v680h-56z" />
    <glyph glyph-name="uni01FD" unicode="&#x1fd;" horiz-adv-x="1824" 
d="M827 1231l121 317h275l-213 -317h-183zM1270 -20q-277 0 -408 204q-72 -105 -171.5 -154.5t-248.5 -49.5q-166 0 -269 79t-103 238q0 91 41 159t116 108t171.5 59.5t215.5 19.5h140v49q0 109 -46 162t-149 53q-189 0 -207 -168h-239q7 91 45.5 160.5t101 111t139 62.5
t166.5 21q249 0 340 -156q134 156 355 156q79 0 150.5 -18.5t134.5 -60.5t109 -104t72.5 -153.5t26.5 -204.5v-68h-762q6 -155 77.5 -238t203.5 -83q209 0 237 164h238q-26 -167 -151.5 -257.5t-325.5 -90.5zM995 643h512q-20 270 -247 270q-107 0 -177.5 -72t-87.5 -198z
M489 158q118 0 191.5 58t73.5 159v108h-133q-148 0 -227 -39.5t-79 -132.5q0 -153 174 -153z" />
    <glyph glyph-name="uni01FE" unicode="&#x1fe;" horiz-adv-x="1667" 
d="M727 1569l111 276h278l-203 -276h-186zM172 -68l-102 105l186 201q-162 201 -162 485v16q0 212 94.5 381.5t264 266t383.5 96.5q260 0 448 -137l160 172l102 -103l-153 -166q182 -204 182 -504v-16q0 -213 -91 -383t-260.5 -268t-387.5 -98q-281 0 -476 155zM377 725
q0 -169 63 -289l682 735q-118 97 -286 97q-214 0 -336.5 -144t-122.5 -383v-16zM838 199q209 0 331.5 144.5t122.5 385.5v16q0 187 -75 316l-689 -746q122 -116 310 -116z" />
    <glyph glyph-name="uni01FF" unicode="&#x1ff;" horiz-adv-x="1251" 
d="M520 1231l121 317h274l-213 -317h-182zM141 -78l-96 86l150 162q-119 144 -119 354v17q0 246 156 399.5t395 153.5q184 0 325 -99l138 150l96 -86l-137 -150q127 -146 127 -362v-17q0 -247 -155.5 -398.5t-395.5 -151.5q-197 0 -336 102zM330 528q0 -99 28 -178l451 490
q-77 61 -182 61q-138 0 -217.5 -95t-79.5 -261v-17zM627 172q139 0 218 95t79 259v17q0 112 -37 190l-455 -493q74 -68 195 -68z" />
    <glyph glyph-name="uni0218" unicode="&#x218;" horiz-adv-x="1302" 
d="M666 -20q-146 0 -257 35t-180 99.5t-106 149.5t-45 191h262q6 -48 17 -85t34.5 -73.5t58 -60t89.5 -38t127 -14.5q122 0 199 62.5t77 163.5q0 102 -63.5 149t-241.5 76q-271 36 -393.5 132t-122.5 296q0 182 142 301t368 119q238 0 374 -107.5t158 -316.5h-250
q-20 115 -87.5 167t-194.5 52q-121 0 -186.5 -53t-65.5 -140q0 -48 11.5 -79.5t44.5 -58.5t92.5 -45t154.5 -32q108 -15 187 -35.5t144.5 -54.5t106 -81t62.5 -113.5t22 -153.5q0 -194 -149.5 -323t-388.5 -129zM580 -461l-146 55l107 338l227 -45z" />
    <glyph glyph-name="uni0219" unicode="&#x219;" horiz-adv-x="1011" 
d="M514 -20q-207 0 -324 92t-124 262h233q9 -86 58.5 -129t154.5 -43q193 0 193 137q0 63 -52.5 94.5t-177.5 52.5q-214 34 -300.5 105.5t-86.5 220.5q0 103 59.5 178t148.5 109.5t193 34.5q384 0 420 -324h-229q-15 74 -60.5 108.5t-130.5 34.5q-79 0 -124.5 -34.5
t-45.5 -92.5t47 -86.5t175 -50.5q103 -16 170.5 -36t123 -56.5t81.5 -94t26 -140.5q0 -163 -111.5 -252.5t-316.5 -89.5zM446 -461l-145 55l107 338l227 -45z" />
    <glyph glyph-name="uni021A" unicode="&#x21a;" horiz-adv-x="1196" 
d="M461 0v1249h-408v215h1090v-215h-408v-1249h-274zM543 -461l-146 55l107 338l227 -45z" />
    <glyph glyph-name="uni021B" unicode="&#x21b;" horiz-adv-x="755" 
d="M512 -18q-159 0 -241.5 82t-82.5 235v586h-143v186h143v236h248v-236h236v-186h-236v-563q0 -138 123 -138q69 0 121 21v-197q-72 -26 -168 -26zM354 -461l-145 55l106 338l228 -45z" />
    <glyph glyph-name="uni0237" unicode="&#x237;" horiz-adv-x="555" 
d="M6 -385v190q79 6 113.5 44t34.5 108v1114h247v-1108q0 -171 -90.5 -258t-304.5 -90z" />
    <glyph glyph-name="uni02C6" unicode="&#x2c6;" horiz-adv-x="819" 
d="M80 1233l233 309h197l227 -309h-176l-153 139l-156 -139h-172z" />
    <glyph glyph-name="uni02C7" unicode="&#x2c7;" horiz-adv-x="819" 
d="M309 1233l-229 309h178l154 -137l153 137h172l-231 -309h-197z" />
    <glyph glyph-name="uni02D8" unicode="&#x2d8;" horiz-adv-x="819" 
d="M408 1241q-126 0 -208 80.5t-89 212.5h172q16 -119 125 -119q110 0 133 119h168q-7 -131 -92 -212t-209 -81z" />
    <glyph glyph-name="uni02D9" unicode="&#x2d9;" horiz-adv-x="819" 
d="M410 1251q-62 0 -104 41t-42 101q0 59 42.5 99t103.5 40q60 0 102.5 -40.5t42.5 -98.5q0 -60 -42.5 -101t-102.5 -41z" />
    <glyph glyph-name="uni02DA" unicode="&#x2da;" horiz-adv-x="819" 
d="M410 1208q-94 0 -161 65.5t-67 156.5t67 156t161 65t160.5 -65t66.5 -156t-66.5 -156.5t-160.5 -65.5zM410 1317q44 0 73 32.5t29 80.5q0 49 -29 80.5t-73 31.5q-45 0 -74 -31.5t-29 -80.5q0 -48 29.5 -80.5t73.5 -32.5z" />
    <glyph glyph-name="uni02DB" unicode="&#x2db;" horiz-adv-x="819" 
d="M436 -373q-99 0 -161 43.5t-62 118.5q0 66 47.5 120.5t120.5 90.5h168q-119 -82 -119 -158q0 -67 72 -67q50 0 88 18v-137q-63 -29 -154 -29z" />
    <glyph glyph-name="uni02DC" unicode="&#x2dc;" horiz-adv-x="819" 
d="M528 1241q-42 0 -86 20.5t-81 41t-60 20.5q-27 0 -48.5 -23t-27.5 -59h-153q12 127 71.5 197.5t147.5 70.5q51 0 126 -39.5t103 -39.5t48 22t26 59h154q-12 -126 -72.5 -198t-147.5 -72z" />
    <glyph glyph-name="uni02DD" unicode="&#x2dd;" horiz-adv-x="819" 
d="M164 1231l84 317h231l-155 -317h-160zM498 1231l84 317h231l-156 -317h-159z" />
    <glyph glyph-name="uni0E01" unicode="&#xe01;" horiz-adv-x="1331" 
d="M408 0h-261v408q0 116 43.5 181.5t128.5 92.5h-208v90q0 210 142.5 337.5t405.5 127.5q272 0 408.5 -132t136.5 -370v-735h-260v737q0 141 -70 220t-217 79q-136 0 -211 -65t-75 -160v-16h211v-146q-89 -15 -131.5 -68.5t-42.5 -150.5v-430z" />
    <glyph glyph-name="uni0E02" unicode="&#xe02;" horiz-adv-x="1236" 
d="M1108 446q0 -106 -27.5 -190.5t-85.5 -148t-155 -98t-228 -34.5q-255 0 -375 125.5t-120 350.5v24q0 117 27 186.5t85 141.5q69 90 81 114q12 26 12 50q0 71 -93 71q-62 0 -127 -20v180q87 33 201 33q264 0 264 -232q0 -60 -21 -109t-77 -132q-55 -80 -75.5 -132.5
t-20.5 -138.5v-34q0 -277 239 -277q117 0 176.5 69.5t59.5 203.5v768h260v-771z" />
    <glyph glyph-name="uni0E03" unicode="&#xe03;" horiz-adv-x="1286" 
d="M1155 461q0 -111 -27.5 -197.5t-86.5 -152.5t-158 -101t-234 -35q-253 0 -383.5 117t-130.5 320v41q0 64 13 114.5t44 93.5t58.5 71t79.5 73q68 60 98.5 101t30.5 83q0 34 -20 53t-54 19q-39 0 -65 -30t-39 -109h-146l-94 295h166l41 -168q30 186 215 186
q104 0 159.5 -57t55.5 -164q0 -87 -35.5 -147t-112.5 -134q-44 -42 -65.5 -65t-41 -55.5t-26 -68t-6.5 -87.5v-25q0 -117 67 -186.5t195 -69.5t188 72.5t60 216.5v752h254v-756z" />
    <glyph glyph-name="uni0E04" unicode="&#xe04;" horiz-adv-x="1335" 
d="M385 0h-260v739q0 233 133.5 365.5t407.5 132.5q275 0 409.5 -133t134.5 -365v-739h-258v739q0 149 -68 223t-216 74t-218.5 -74.5t-70.5 -222.5v-247q42 94 125.5 132t206.5 38h61v-203h-61q-61 0 -106 -6t-88.5 -24.5t-71 -49.5t-44 -84t-16.5 -125v-170z" />
    <glyph glyph-name="uni0E05" unicode="&#xe05;" horiz-adv-x="1337" 
d="M385 0h-260v827q0 82 16 146.5t53 119.5t103.5 90.5t161.5 49.5l209 -160l211 160q77 -11 135 -37t95.5 -62t60.5 -85.5t32.5 -102.5t9.5 -119v-827h-260v819q0 88 -21 132t-85 57l-172 -125h-19l-168 125q-65 -13 -86.5 -57t-21.5 -132v-327q42 94 125.5 132t206.5 38
h61v-203h-61q-61 0 -106 -6t-88.5 -24.5t-71 -49.5t-44 -84t-16.5 -125v-170z" />
    <glyph glyph-name="uni0E06" unicode="&#xe06;" horiz-adv-x="1323" 
d="M1194 408q0 -203 -102.5 -315.5t-303.5 -112.5q-86 0 -157.5 21t-117.5 56t-74.5 69.5t-45.5 70.5v-197h-258v444q0 63 12.5 115t41 97t59 80t80.5 81q40 38 54.5 52t34.5 38t26 41.5t6 38.5q0 33 -18.5 51.5t-51.5 18.5q-83 0 -103 -135h-143l-108 295h176l47 -166
q46 184 217 184q101 0 157 -57t56 -168q0 -76 -31.5 -129.5t-120.5 -149.5q-79 -86 -107 -135.5t-28 -126.5v-8q0 -107 83 -187.5t228 -80.5q124 0 178 64.5t54 184.5v775h260v-809z" />
    <glyph glyph-name="uni0E07" unicode="&#xe07;" horiz-adv-x="1261" 
d="M545 0h-162l-354 1219h256l297 -1020q63 3 120.5 30.5t107 78.5t79 138t29.5 197v8q0 104 -27.5 181t-75 118.5t-100.5 60.5t-113 19q-61 0 -104 -14v198q82 21 159 21q113 0 208 -35.5t165.5 -104.5t110 -178t39.5 -249v-13q0 -168 -50 -296.5t-138.5 -205.5t-201 -115
t-245.5 -38z" />
    <glyph glyph-name="uni0E08" unicode="&#xe08;" horiz-adv-x="1257" 
d="M1178 610q0 -292 -151 -458t-394 -166q-70 0 -150 13t-135 36l-102 440h-152v182h361l106 -467q40 -8 70 -8q125 0 206 119t81 315v15q0 211 -86.5 306t-233.5 95q-126 0 -207 -62.5t-96 -166.5h-244q15 144 92.5 243.5t193.5 145t263 45.5q266 0 422 -153t156 -451v-23z
" />
    <glyph glyph-name="uni0E09" unicode="&#xe09;" horiz-adv-x="1302" 
d="M920 205q-15 -36 -42.5 -71t-73.5 -72t-119.5 -59.5t-162.5 -22.5q-201 0 -302 112.5t-101 315.5v215h260v-144q0 -63 10.5 -111.5t35 -89.5t72 -63t115.5 -22q137 0 221.5 86t84.5 225v225q0 307 -285 307q-76 0 -135 -21.5t-93 -57t-51.5 -75t-19.5 -81.5h-246
q11 201 154.5 318.5t396.5 117.5q260 0 399.5 -128.5t139.5 -379.5v-729h-258v205z" />
    <glyph glyph-name="uni0E0A" unicode="&#xe0a;" horiz-adv-x="1236" 
d="M1120 442q0 -217 -125 -342t-383 -125q-130 0 -226.5 33.5t-154.5 96.5t-86 147t-28 190v33q0 118 26.5 186.5t85.5 141.5q69 90 81 115q12 24 12 47q0 73 -93 73q-62 0 -127 -20v180q87 33 203 33q128 0 195 -58t67 -174q0 -63 -21 -110.5t-77 -130.5
q-55 -80 -75.5 -133t-20.5 -138v-38q0 -273 241 -273q119 0 182.5 70.5t63.5 202.5v96q0 99 -51.5 148.5t-134.5 49.5h-35v164h16q236 0 236 299v11h244v-11q0 -119 -54.5 -220t-167.5 -144q97 -32 152 -106.5t55 -188.5v-105z" />
    <glyph glyph-name="uni0E0B" unicode="&#xe0b;" horiz-adv-x="1255" 
d="M1143 444q0 -222 -123 -345.5t-387 -123.5q-260 0 -383 121.5t-123 333.5v23q0 67 12 117.5t41 93t56 70t77 71.5q66 58 97.5 100t31.5 84q0 34 -19 53t-54 19q-40 0 -67 -30t-40 -109h-143l-94 295h165l43 -177q26 195 213 195q103 0 157 -56.5t54 -164.5
q0 -88 -35 -148.5t-110 -132.5q-54 -52 -78 -83.5t-36.5 -76.5t-12.5 -116v-21q0 -125 62.5 -192.5t187.5 -67.5q126 0 190 69t64 201v95q0 102 -49.5 153t-126.5 51h-8v162h8q100 0 149 79.5t49 219.5v11h248v-11q0 -57 -11 -108.5t-35 -100t-67.5 -86.5t-101.5 -59
q96 -32 147.5 -107.5t51.5 -183.5v-117z" />
    <glyph glyph-name="uni0E0C" unicode="&#xe0c;" horiz-adv-x="2002" 
d="M1874 397q0 -200 -98 -308.5t-281 -108.5q-82 0 -149.5 22t-109.5 58t-66.5 69t-39.5 68v-197h-251v758q0 136 -66.5 207t-196.5 71q-125 0 -192.5 -63t-67.5 -162v-16h215v-146q-190 -30 -190 -213v-80q0 -174 160 -174q49 0 86 13v-187q-67 -24 -156 -24
q-165 0 -256.5 85t-91.5 265v78q0 222 182 280h-205v90q0 204 137 329.5t392 125.5q245 0 375.5 -123t130.5 -350v-260q0 -138 74.5 -224.5t195.5 -86.5q110 0 159.5 69t49.5 176v779h260v-820z" />
    <glyph glyph-name="uni0E0D" unicode="&#xe0d;" horiz-adv-x="2017" 
d="M1880 25q0 -244 -137 -368t-377 -124q-118 0 -211.5 29.5t-152 81t-91.5 116.5t-41 140h250q19 -83 75.5 -129.5t170.5 -46.5q124 0 191 66.5t67 219.5v197q-11 -25 -28 -50t-47.5 -54t-68 -50.5t-94.5 -36t-122 -14.5q-184 0 -287 109t-103 323v338q0 125 -65 194.5
t-193 69.5q-125 0 -192.5 -63t-67.5 -162v-16h215v-146q-190 -30 -190 -213v-80q0 -174 164 -174q45 0 82 13v-187q-67 -24 -156 -24q-165 0 -256.5 85t-91.5 265v78q0 222 182 280h-205v90q0 204 138 329.5t393 125.5q244 0 373 -120t129 -339v-317q0 -248 210 -248
q127 0 202 86.5t75 226.5v691h260v-1192z" />
    <glyph glyph-name="uni0E0E" unicode="&#xe0e;" horiz-adv-x="1353" 
d="M418 -483h-242v37q0 155 98.5 244t278.5 89q142 0 251 -53t163 -125v1028q0 141 -70.5 220t-214.5 79q-138 0 -214.5 -65t-76.5 -160v-16h213v-146q-79 -14 -108 -66t-29 -153v-147q0 -89 -29 -148.5t-86 -90.5t-126 -42.5t-165 -9.5v194q83 5 116.5 31.5t33.5 97.5v109
q0 110 29.5 171t99.5 87h-205v90q0 211 142 338t409 127q269 0 405 -132t136 -370v-1218h-250q-46 77 -134.5 130.5t-203.5 53.5q-116 0 -168.5 -54t-52.5 -130z" />
    <glyph glyph-name="uni0E0F" unicode="&#xe0f;" horiz-adv-x="1353" 
d="M207 -483h-25v209h23q166 0 217 137h45l129 -148l129 152h33l137 -154q42 10 59 40t17 87v897q0 141 -71 220t-218 79q-138 0 -214.5 -65t-76.5 -160v-16h213v-146q-79 -14 -108 -66t-29 -153v-147q0 -89 -29 -148.5t-86 -90.5t-126 -42.5t-165 -9.5v194q83 5 116.5 31.5
t33.5 97.5v109q0 110 29.5 171t99.5 87h-205v90q0 211 142 338t409 127q269 0 405 -132t136 -370v-880q0 -338 -285 -338h-53l-131 147l-131 -149h-45l-121 141q-25 -44 -56.5 -73.5t-67 -42.5t-65 -18t-65.5 -5z" />
    <glyph glyph-name="uni0E10" unicode="&#xe10;" horiz-adv-x="1265" 
d="M1178 610q0 -294 -151.5 -459t-405.5 -165q-131 0 -273 49l-102 440h-152v182h361l106 -467q40 -8 70 -8q125 0 206 119t81 315v15q0 213 -86 309t-234 96q-126 0 -207 -63.5t-96 -169.5h-244q15 144 93 243.5t193.5 145t260.5 45.5q212 0 334 -102l115 147h245
l-229 -281q115 -131 115 -370v-21zM1151 -223q0 -131 -68 -206t-206 -75q-85 0 -148 34t-123 118q-35 -49 -67.5 -78t-75.5 -43t-82 -17.5t-109 -3.5h-92v193h90q106 0 160.5 30.5t106.5 114.5h59q44 -78 88 -114.5t104 -36.5q54 0 86.5 31.5t32.5 97.5v39h244v-84z" />
    <glyph glyph-name="uni0E11" unicode="&#xe11;" horiz-adv-x="1335" 
d="M397 0h-258v459q0 110 44.5 189.5t133.5 168.5q19 19 45.5 44t40.5 38.5t29 30.5t21 32t6 31q0 31 -20 49.5t-54 18.5q-40 0 -66.5 -30t-37.5 -109h-144l-94 295h164l45 -177q14 104 70.5 149.5t134.5 45.5q79 0 131 -40.5t59 -119.5q112 160 287 160q125 0 196.5 -74.5
t71.5 -212.5v-948h-258v903q0 107 -96 107q-49 0 -109 -43t-170 -172q-104 -122 -138 -198.5t-34 -184.5v-412z" />
    <glyph glyph-name="uni0E12" unicode="&#xe12;" horiz-adv-x="2074" 
d="M1946 397q0 -200 -98 -308.5t-281 -108.5q-82 0 -149 22t-108.5 58t-66 69t-39.5 68v-197h-254v829q0 81 -22.5 122t-81.5 61l-152 -113h-16l-141 113q-89 -28 -136 -121t-47 -273v-14q0 -416 303 -416q25 0 86 9v-193q-52 -18 -141 -18q-242 0 -376 153t-134 469v15
q0 552 436 612l160 -135l174 135q83 -15 144.5 -44t99.5 -66.5t61.5 -87t32 -99.5t8.5 -111v-323q0 -139 74 -225t195 -86q110 0 159.5 69t49.5 176v779h260v-820z" />
    <glyph glyph-name="uni0E13" unicode="&#xe13;" horiz-adv-x="2015" 
d="M1622 197q-12 -27 -29 -53t-48 -57t-69 -53.5t-95 -38t-124 -15.5q-182 0 -282.5 108t-100.5 305v363q0 132 -65 206t-193 74q-120 0 -190 -64t-70 -161v-16h215v-146q-190 -30 -190 -213v-80q0 -174 164 -174q45 0 82 13v-187q-67 -24 -156 -24q-165 0 -256.5 85
t-91.5 265v72q0 224 182 282h-205v90q0 208 138.5 333.5t388.5 125.5q246 0 376 -125t130 -350v-328q0 -241 208 -241q126 0 200.5 86t74.5 225v713h260v-1217h-254v197z" />
    <glyph glyph-name="uni0E14" unicode="&#xe14;" horiz-adv-x="1345" 
d="M737 2q-53 -16 -141 -16q-237 0 -369.5 152.5t-132.5 457.5v14q0 314 156 470.5t434 156.5q261 0 400 -130.5t139 -363.5v-743h-260v752q0 137 -72 210.5t-207 73.5q-72 0 -129.5 -23t-103 -72t-70.5 -134t-25 -201v-14q0 -207 81.5 -306.5t217.5 -99.5q48 0 82 11v-195z
" />
    <glyph glyph-name="uni0E15" unicode="&#xe15;" horiz-adv-x="1357" 
d="M743 2q-50 -16 -141 -16q-237 0 -373.5 157.5t-136.5 464.5v15q0 261 112.5 421.5t334.5 190.5l168 -143l182 143q102 -18 172 -57.5t107 -95.5t52 -117t15 -138v-827h-260v829q0 80 -24 121.5t-85 61.5l-157 -115h-19l-145 115q-90 -27 -140.5 -128t-50.5 -266v-14
q0 -213 83 -315.5t220 -102.5q49 0 86 11v-195z" />
    <glyph glyph-name="uni0E16" unicode="&#xe16;" horiz-adv-x="1318" 
d="M627 8q-67 -24 -156 -24q-165 0 -256.5 85t-91.5 265v65q0 225 182 283h-205v90q0 211 142 338t409 127q268 0 405.5 -132.5t137.5 -369.5v-735h-260v737q0 140 -71 219.5t-218 79.5q-136 0 -212.5 -65t-76.5 -160v-16h215v-146q-190 -30 -190 -213v-80q0 -174 160 -174
q49 0 86 13v-187z" />
    <glyph glyph-name="uni0E17" unicode="&#xe17;" horiz-adv-x="1318" 
d="M399 0h-260v1217h256v-205q16 37 43 71.5t73 71.5t118.5 59.5t161.5 22.5q198 0 299.5 -112.5t101.5 -315.5v-809h-260v737q0 50 -6 90t-22 78t-41.5 63.5t-68 40.5t-98.5 15q-139 0 -218 -85.5t-79 -225.5v-713z" />
    <glyph glyph-name="uni0E18" unicode="&#xe18;" horiz-adv-x="1247" 
d="M1157 371q0 -102 -38.5 -179t-108 -124t-161.5 -70t-204 -23q-271 0 -504 125v432h244v-309q108 -55 250 -55q122 0 195 48.5t73 152.5q0 84 -56 134t-188 77l-544 104v139q0 107 37 187.5t105.5 129t158.5 72t202 23.5q229 0 365.5 -94t155.5 -258h-244
q-13 71 -80.5 116t-187.5 45q-127 0 -198 -50t-71 -134v-24l387 -76q97 -19 168 -47.5t128.5 -73.5t86.5 -112t29 -156z" />
    <glyph glyph-name="uni0E19" unicode="&#xe19;" horiz-adv-x="1318" 
d="M924 205q-12 -29 -30 -56t-51 -59t-74.5 -55.5t-104.5 -39t-136 -15.5q-197 0 -298 113t-101 315v809h260v-738q0 -63 10.5 -111.5t35.5 -89.5t72.5 -63t115.5 -22q139 0 218 85.5t79 225.5v713h260v-1217h-256v205z" />
    <glyph glyph-name="uni0E1A" unicode="&#xe1a;" horiz-adv-x="1306" 
d="M1178 485q0 -244 -130 -377t-397 -133q-264 0 -393 133t-129 377v732h260v-742q0 -299 264 -299q265 0 265 299v742h260v-732z" />
    <glyph glyph-name="uni0E1B" unicode="&#xe1b;" horiz-adv-x="1306" 
d="M1178 485q0 -244 -130 -377t-397 -133q-264 0 -393 133t-129 377v732h260v-742q0 -299 264 -299q265 0 265 299v1157h260v-1147z" />
    <glyph glyph-name="uni0E1C" unicode="&#xe1c;" horiz-adv-x="1390" 
d="M414 0h-287v883q0 185 87 266.5t245 81.5q82 0 153 -23v-186q-38 10 -77 10q-76 0 -117 -37t-41 -131v-588l280 433h62l282 -433v943h250v-1219h-286l-273 438z" />
    <glyph glyph-name="uni0E1D" unicode="&#xe1d;" horiz-adv-x="1388" 
d="M414 0h-287v883q0 185 87 266.5t245 81.5q82 0 153 -23v-186q-38 10 -77 10q-76 0 -117 -37t-41 -131v-588l280 433h62l282 -433v1356h250v-1632h-286l-273 438z" />
    <glyph glyph-name="uni0E1E" unicode="&#xe1e;" horiz-adv-x="1611" 
d="M551 0h-248l-250 1217h258l156 -848l260 848h170l254 -848l162 848h246l-259 -1217h-241l-254 819z" />
    <glyph glyph-name="uni0E1F" unicode="&#xe1f;" horiz-adv-x="1615" 
d="M555 0h-252l-250 1217h258l156 -848l256 848h180l256 -848l209 1263h240l-303 -1632h-242l-258 821z" />
    <glyph glyph-name="uni0E20" unicode="&#xe20;" horiz-adv-x="1302" 
d="M438 283q0 -89 -29 -148.5t-86.5 -90.5t-126.5 -42.5t-165 -9.5v194q83 5 116 31.5t33 97.5v109q0 110 29.5 171t99.5 87h-205v90q0 211 142.5 338t408.5 127q269 0 406 -132.5t137 -369.5v-735h-260v737q0 141 -70.5 220t-218.5 79q-136 0 -211.5 -65t-75.5 -160v-16
h213v-146q-79 -14 -108 -66t-29 -153v-147z" />
    <glyph glyph-name="uni0E21" unicode="&#xe21;" horiz-adv-x="1318" 
d="M1190 408q0 -202 -101.5 -315t-297.5 -113q-73 0 -135 15.5t-103.5 39t-75 55.5t-51.5 59t-31 56v-205h-256v1217h260v-713q0 -140 79 -225.5t218 -85.5q68 0 115.5 22t72.5 63t35.5 89.5t10.5 111.5v738h260v-809z" />
    <glyph glyph-name="uni0E22" unicode="&#xe22;" horiz-adv-x="1298" 
d="M1169 467q0 -260 -130 -376t-400 -116q-266 0 -400.5 102.5t-134.5 280.5q0 129 66 199t178 90q-113 21 -178.5 90.5t-65.5 186.5q0 139 99.5 224t283.5 85q75 0 177 -27v-184q-66 12 -105 12q-92 0 -143 -38t-51 -111q0 -72 53 -113t166 -41h80v-166h-54
q-132 0 -188.5 -45t-56.5 -131q0 -99 67 -156t207 -57q139 0 204.5 67t65.5 222v752h260v-750z" />
    <glyph glyph-name="uni0E23" unicode="&#xe23;" horiz-adv-x="1140" 
d="M1077 350q0 -185 -130.5 -280t-356.5 -95q-236 0 -366 98.5t-156 268.5h247q13 -77 84.5 -127.5t190.5 -50.5q113 0 174 45t61 123q0 29 -7.5 50.5t-26.5 39t-39.5 29.5t-61 24.5t-75 21t-95.5 21.5q-80 19 -133 35t-114 45.5t-97 65.5t-60 92.5t-24 128.5
q0 90 36.5 158.5t100.5 110t147 62.5t181 21q103 0 188.5 -22t152 -65.5t106.5 -113.5t47 -162h-244q-14 79 -80.5 127t-175.5 48q-97 0 -156 -40t-59 -110q0 -33 15 -59t36.5 -42.5t64.5 -32.5t77.5 -25t97.5 -23q56 -13 94 -22.5t84.5 -24t77.5 -29.5t65 -35.5t55 -45
t39.5 -55.5t26.5 -70t8 -85z" />
    <glyph glyph-name="uni0E24" unicode="&#xe24;" horiz-adv-x="1316" 
d="M1194 -483h-260v1220q0 140 -71 219.5t-218 79.5q-136 0 -212.5 -65t-76.5 -160v-16h215v-146q-190 -30 -190 -213v-80q0 -174 160 -174q49 0 86 13v-187q-67 -24 -156 -24q-165 0 -256.5 85t-91.5 265v65q0 225 182 283h-205v90q0 211 142 338t409 127
q268 0 405.5 -132.5t137.5 -369.5v-1218z" />
    <glyph glyph-name="uni0E25" unicode="&#xe25;" horiz-adv-x="1286" 
d="M721 12q-111 -30 -221 -30q-202 0 -306 92.5t-104 253.5q0 383 594 383h223v63q0 129 -65.5 196.5t-196.5 67.5q-124 0 -190.5 -57t-79.5 -150h-254q6 87 41 159.5t98.5 128.5t163 87t225.5 31q247 0 379.5 -115t132.5 -338v-784h-254v524h-215q-84 0 -146 -10.5
t-98.5 -27.5t-58.5 -42t-29.5 -49.5t-7.5 -54.5q0 -74 53 -116t164 -42q69 0 152 17v-187z" />
    <glyph glyph-name="uni0E26" unicode="&#xe26;" horiz-adv-x="1323" 
d="M1198 -483h-260v1220q0 141 -70.5 220t-218.5 79q-136 0 -211.5 -65t-75.5 -160v-16h213v-146q-79 -14 -108 -66t-29 -153v-147q0 -89 -29 -148.5t-86.5 -90.5t-126.5 -42.5t-165 -9.5v194q83 5 116 31.5t33 97.5v109q0 110 29.5 171t99.5 87h-205v90q0 211 142.5 338
t408.5 127q269 0 406 -132.5t137 -369.5v-1218z" />
    <glyph glyph-name="uni0E27" unicode="&#xe27;" horiz-adv-x="1249" 
d="M1167 600q0 -306 -150.5 -466.5t-412.5 -160.5q-216 0 -349.5 104t-170.5 279h256q29 -87 96.5 -133.5t163.5 -46.5q144 0 227.5 105.5t83.5 320.5v16q0 210 -85.5 312t-225.5 102q-105 0 -178 -59.5t-105 -179.5h-256q16 114 65 201t122 139t161.5 78t190.5 26
q259 0 413 -160t154 -459v-18z" />
    <glyph glyph-name="uni0E28" unicode="&#xe28;" horiz-adv-x="1359" 
d="M381 0h-254v729q0 242 136 375t401 133q208 0 321 -80l94 125h248l-207 -256q92 -114 92 -307v-719h-260v741q0 293 -284 293q-79 0 -137 -22.5t-91.5 -63t-49 -92t-15.5 -115.5v-260q74 181 305 181h92v-207h-92q-52 0 -91.5 -5.5t-80.5 -23.5t-67.5 -48.5t-43 -83
t-16.5 -124.5v-170z" />
    <glyph glyph-name="uni0E29" unicode="&#xe29;" horiz-adv-x="1359" 
d="M1198 489q0 -245 -131.5 -379.5t-404.5 -134.5q-271 0 -402 134.5t-131 379.5v728h260v-738q0 -301 275 -301q145 0 210.5 81t65.5 220v111h-278v192h278v435h258v-435h145v-192h-145v-101z" />
    <glyph glyph-name="uni0E2A" unicode="&#xe2a;" horiz-adv-x="1316" 
d="M723 12q-114 -30 -219 -30q-205 0 -309.5 92t-104.5 254q0 383 596 383h219v63q0 128 -66 196t-196 68q-123 0 -189 -57t-81 -150h-252q12 183 146.5 294.5t371.5 111.5q200 0 317 -88l107 133h248l-221 -272q69 -89 69 -244v-766h-254v524h-211q-84 0 -146 -10.5
t-98.5 -27.5t-58.5 -42t-29.5 -49.5t-7.5 -54.5q0 -74 53.5 -116t165.5 -42q63 0 150 17v-187z" />
    <glyph glyph-name="uni0E2B" unicode="&#xe2b;" horiz-adv-x="1249" 
d="M387 0h-248v1217h244v-555l494 555h282l-387 -418q16 4 53 4q144 0 241 -88.5t97 -253.5v-461h-260v432q0 110 -50.5 162.5t-137.5 52.5q-83 0 -131 -53l-197 -211v-383z" />
    <glyph glyph-name="uni0E2C" unicode="&#xe2c;" horiz-adv-x="1615" 
d="M551 0h-248l-250 1217h258l158 -865l254 719h178l248 -719l104 586q26 150 -9.5 209t-153.5 59h-144v180h201q72 0 113 9t71.5 40t47 72.5t40.5 124.5h221q-42 -179 -95 -259t-163 -107q58 -30 88.5 -86t31.5 -118.5t-11 -131.5l-191 -930h-241l-254 750z" />
    <glyph glyph-name="uni0E2D" unicode="&#xe2d;" horiz-adv-x="1355" 
d="M1280 592q0 -291 -166.5 -454t-435.5 -163q-263 0 -425.5 153.5t-162.5 416.5v123h574v-181h-322q13 -147 100.5 -229t227.5 -82q74 0 135 23.5t109.5 72t76 131.5t27.5 193v18q0 110 -29 193.5t-78.5 131.5t-109.5 71.5t-129 23.5q-119 0 -210 -62.5t-108 -168.5h-248
q13 105 65.5 189t132 137t175 80.5t199.5 27.5q126 0 235 -40.5t191 -118t129 -198.5t47 -272v-16z" />
    <glyph glyph-name="uni0E2E" unicode="&#xe2e;" horiz-adv-x="1370" 
d="M1280 592q0 -291 -166.5 -454t-435.5 -163q-263 0 -425.5 153.5t-162.5 416.5v123h574v-181h-322q13 -147 100.5 -229t227.5 -82q74 0 135 23.5t109.5 72t76 131.5t27.5 193v18q0 110 -29 193.5t-78.5 131.5t-109.5 71.5t-129 23.5q-119 0 -210 -62.5t-108 -168.5h-248
q13 105 65.5 189t132 137t175 80.5t199.5 27.5q207 0 338 -98l114 143h248l-227 -278q129 -153 129 -396v-16z" />
    <glyph glyph-name="uni0E2F" unicode="&#xe2f;" horiz-adv-x="1185" 
d="M1034 0h-256v627q-42 -61 -122 -101.5t-195 -40.5q-189 0 -302.5 104t-113.5 283q0 166 107 264.5t294 98.5q85 0 170 -31v-176q-56 21 -118 21q-101 0 -156 -48t-55 -131q0 -87 57.5 -142.5t169.5 -55.5q131 0 197.5 73.5t66.5 184.5v289h256v-1219z" />
    <glyph glyph-name="uni0E30" unicode="&#xe30;" horiz-adv-x="716" 
d="M651 750h-291q-147 0 -213.5 51.5t-66.5 183.5v96h229v-39q0 -55 27.5 -76.5t93.5 -21.5h221v-194zM651 94h-291q-147 0 -213.5 51.5t-66.5 182.5v98h229v-39q0 -56 27.5 -77t93.5 -21h221v-195z" />
    <glyph glyph-name="uni0E31" unicode="&#xe31;" 
d="M39 1374h-516q-141 0 -209 57.5t-68 186.5v84h230v-51q0 -97 104 -97h459v-180z" />
    <glyph glyph-name="uni0E32" unicode="&#xe32;" horiz-adv-x="905" 
d="M772 0h-260v799q0 126 -62 181.5t-182 55.5q-117 0 -237 -51v197q129 55 299 55q227 0 334.5 -102.5t107.5 -307.5v-827z" />
    <glyph glyph-name="uni0E33" unicode="&#xe33;" horiz-adv-x="927" 
d="M-47 1548q0 -92 -65 -149.5t-171 -57.5t-170.5 57.5t-64.5 149.5q0 94 64.5 151.5t170.5 57.5t171 -57.5t65 -151.5zM-373 1548q0 -43 24.5 -69.5t65.5 -26.5t67 26.5t26 69.5q0 42 -26.5 69.5t-66.5 27.5t-65 -27t-25 -70zM772 0h-260v799q0 126 -62 181.5t-182 55.5
q-117 0 -237 -51v197q129 55 299 55q227 0 334.5 -102.5t107.5 -307.5v-827z" />
    <glyph glyph-name="uni0E34" unicode="&#xe34;" 
d="M-143 1374h-1014v180h1014v-180z" />
    <glyph glyph-name="uni0E35" unicode="&#xe35;" 
d="M-143 1374h-1014v180h780v177h234v-357z" />
    <glyph glyph-name="uni0E36" unicode="&#xe36;" 
d="M-346 1374h-811v182h625q-3 9 -3 21q0 77 61.5 126.5t154.5 49.5q97 0 156 -52t59 -138q0 -88 -63.5 -138.5t-178.5 -50.5zM-408 1561q0 -38 23.5 -62t60.5 -24t59.5 24t22.5 62q0 39 -22.5 62.5t-59.5 23.5t-60.5 -23.5t-23.5 -62.5z" />
    <glyph glyph-name="uni0E37" unicode="&#xe37;" 
d="M-143 1374h-1014v180h493v177h191v-177h141v177h189v-357z" />
    <glyph glyph-name="uni0E38" unicode="&#xe38;" 
d="M-143 -584h-224v201q0 40 -20 58t-62 18q-39 0 -77 -15v160q76 31 166 31q217 0 217 -203v-250z" />
    <glyph glyph-name="uni0E39" unicode="&#xe39;" 
d="M-143 -377q0 -108 -81.5 -167.5t-234.5 -59.5q-156 0 -231.5 60.5t-75.5 162.5v43q0 47 -47 47q-15 0 -51 -6v137q62 25 139 25q90 0 127 -37.5t37 -112.5v-37q0 -60 21 -90t81 -30q59 0 82 30.5t23 89.5v181h211v-236z" />
    <glyph glyph-name="uni0E3A" unicode="&#xe3a;" 
d="M-133 -276q0 -62 -42 -103t-106 -41q-61 0 -102 41t-41 103t41 102.5t102 40.5q64 0 106 -40.5t42 -102.5z" />
    <glyph glyph-name="uni0E3F" unicode="&#xe3f;" horiz-adv-x="1320" 
d="M715 -276h-135v276h-414v1464h414v201h135v-201q224 -6 342.5 -97t118.5 -284v-8q0 -239 -234 -311q151 -32 222 -116t71 -232v-8q0 -408 -520 -408v-276zM406 1270v-422h174v422h-174zM715 1268v-420q108 9 155.5 60t47.5 155v8q0 94 -49.5 141.5t-153.5 55.5zM406 662
v-467h174v467h-174zM715 662v-467q258 3 258 231v8q0 110 -62.5 167t-195.5 61z" />
    <glyph glyph-name="uni0E40" unicode="&#xe40;" horiz-adv-x="647" 
d="M596 4q-78 -20 -141 -20q-139 0 -210 64.5t-71 205.5v963h260v-916q0 -63 26.5 -92t80.5 -29q28 0 55 10v-186z" />
    <glyph glyph-name="uni0E41" unicode="&#xe41;" horiz-adv-x="1292" 
d="M1243 4q-82 -20 -141 -20q-139 0 -211 64.5t-72 205.5v963h260v-916q0 -63 26.5 -92t82.5 -29q28 0 55 10v-186zM596 4q-78 -20 -141 -20q-139 0 -210 64.5t-71 205.5v963h260v-916q0 -63 26.5 -92t80.5 -29q28 0 55 10v-186z" />
    <glyph glyph-name="uni0E42" unicode="&#xe42;" horiz-adv-x="729" 
d="M676 4q-78 -20 -141 -20q-139 0 -210 64.5t-71 205.5v1040q0 195 -47 296.5t-168 125.5v170h743v-188h-440q172 -94 172 -428v-969q0 -63 26.5 -92t80.5 -29q28 0 55 10v-186z" />
    <glyph glyph-name="uni0E43" unicode="&#xe43;" horiz-adv-x="729" 
d="M678 4q-78 -20 -143 -20q-138 0 -209.5 64.5t-71.5 205.5v707q0 67 9.5 122t30.5 103.5t38 78.5t49 78q51 78 74.5 128.5t23.5 101.5q0 63 -36.5 99t-102.5 36q-68 0 -107 -39.5t-47 -112.5h-215q13 183 119 266t264 83q173 0 270 -86.5t97 -235.5q0 -124 -90 -272
q-44 -67 -64.5 -106t-36.5 -105t-16 -150v-649q0 -63 26.5 -92t80.5 -29q30 0 57 10v-186z" />
    <glyph glyph-name="uni0E44" unicode="&#xe44;" horiz-adv-x="729" 
d="M678 4q-78 -20 -141 -20q-139 0 -210 64.5t-71 205.5v754q0 62 10 115.5t33 102.5t42 81t54 84q31 46 46.5 73t29.5 63.5t14 67.5q0 78 -67 99l-115 -138h-84q-24 121 -201 121v230q108 0 177.5 -52t95.5 -131l143 177q150 -17 226.5 -90t76.5 -191q0 -63 -21.5 -119
t-70.5 -133q-44 -72 -66 -113t-42.5 -111t-20.5 -143v-700q0 -121 105 -121q30 0 57 10v-186z" />
    <glyph glyph-name="uni0E45" unicode="&#xe45;" horiz-adv-x="927" 
d="M772 -483h-260v1282q0 126 -62 181.5t-182 55.5q-117 0 -237 -51v197q129 55 299 55q227 0 334.5 -102.5t107.5 -307.5v-1310z" />
    <glyph glyph-name="uni0E46" unicode="&#xe46;" horiz-adv-x="1286" 
d="M1137 -352h-260v1190q0 80 -24 118.5t-81 59.5l-143 -107h-25l-137 107q-133 -45 -133 -201q0 -104 61.5 -163.5t161.5 -59.5q49 0 96 12v-186q-56 -17 -141 -17q-199 0 -313.5 110t-114.5 310q0 183 98.5 288t274.5 126l161 -135l185 135q178 -40 256 -136.5t78 -252.5
v-1198z" />
    <glyph glyph-name="uni0E47" unicode="&#xe47;" 
d="M-694 1360h-49q-125 0 -194 70t-69 188q0 113 75 180.5t202 67.5h534v-154h-514q-49 0 -77.5 -28t-28.5 -72q0 -43 23.5 -72t62.5 -29l100 113h74q5 -48 30 -81.5t68 -33.5q33 0 50.5 24t17.5 64v27h184v-49q0 -111 -56 -164t-149 -53q-73 0 -119.5 34.5t-68.5 84.5z" />
    <glyph glyph-name="uni0E48" unicode="&#xe48;" 
d="M-154 1374h-237v412h237v-412z" />
    <glyph glyph-name="uni0E49" unicode="&#xe49;" 
d="M-39 1374h-709v92q148 45 148 125q0 68 -84 68q-42 0 -88 -19v119q65 33 170 33t161 -39t56 -111q0 -65 -37 -102h383v-166z" />
    <glyph glyph-name="uni0E4A" unicode="&#xe4a;" 
d="M-539 1370q-40 -6 -88 -6q-256 0 -256 211q0 109 68 166t180 59l121 -90l113 90q124 -7 181.5 -62t57.5 -161v-47h189v-156h-396v178q0 78 -55 84l-84 -59h-8l-86 59q-68 -3 -68 -71q0 -72 86 -72q29 0 45 4v-127z" />
    <glyph glyph-name="uni0E4B" unicode="&#xe4b;" 
d="M-154 1374h-221v125h-172v168h172v119h221v-119h172v-168h-172v-125z" />
    <glyph glyph-name="uni0E4C" unicode="&#xe4c;" 
d="M-238 1374h-235v78q0 143 76 202.5t233 59.5h227v-182h-178q-66 0 -94.5 -22t-28.5 -78v-58z" />
    <glyph glyph-name="uni0E4D" unicode="&#xe4d;" 
d="M-45 1548q0 -93 -64.5 -150t-171.5 -57q-106 0 -170.5 57.5t-64.5 149.5q0 94 64.5 151.5t170.5 57.5q107 0 171.5 -57.5t64.5 -151.5zM-373 1548q0 -43 25.5 -69.5t66.5 -26.5t67 26.5t26 69.5q0 42 -26.5 69.5t-66.5 27.5q-41 0 -66.5 -27t-25.5 -70z" />
    <glyph glyph-name="uni0E4E" unicode="&#xe4e;" 
d="M-326 1374h-198v66q0 90 45.5 142t140.5 52h29v21q0 84 50.5 120.5t145.5 36.5h129v-145h-61q-54 0 -76 -23.5t-22 -74.5v-47h-82q-54 0 -77.5 -24.5t-23.5 -78.5v-45z" />
    <glyph glyph-name="uni0E4F" unicode="&#xe4f;" horiz-adv-x="1386" 
d="M1260 532q0 -161 -74.5 -281.5t-202 -182.5t-289.5 -62q-249 0 -408 142t-159 384v11q0 161 74.5 282t202 183.5t290.5 62.5q247 0 406.5 -143t159.5 -385v-11zM297 532q0 -176 110.5 -279t286.5 -103q175 0 285.5 103.5t110.5 278.5v11q0 176 -110.5 280.5t-285.5 104.5
t-286 -104t-111 -281v-11zM977 537q0 -130 -77.5 -205.5t-205.5 -75.5q-129 0 -206.5 75t-77.5 206q0 134 77.5 209t206.5 75q127 0 205 -75.5t78 -208.5zM553 537q0 -74 38 -116t103 -42q64 0 102 42t38 116q0 76 -38 117.5t-102 41.5q-66 0 -103.5 -41t-37.5 -118z" />
    <glyph glyph-name="uni0E50" unicode="&#xe50;" horiz-adv-x="1335" 
d="M1227 530q0 -249 -155 -402t-404 -153q-246 0 -402.5 153t-156.5 402v13q0 247 156.5 400t402.5 153q249 0 404 -152.5t155 -400.5v-13zM365 530q0 -170 82.5 -263t220.5 -93q139 0 221 93t82 263v11q0 169 -82 262.5t-221 93.5q-138 0 -220.5 -93.5t-82.5 -262.5v-11z
" />
    <glyph glyph-name="uni0E51" unicode="&#xe51;" horiz-adv-x="1284" 
d="M1174 524q0 -309 -196 -475.5t-542 -169.5v193q237 16 359.5 121t122.5 331v17q0 358 -287 358q-133 0 -205 -70.5t-72 -181.5v-8q0 -110 57.5 -173.5t166.5 -64.5q24 0 49 7v-179q-55 -10 -115 -10q-186 0 -299 109.5t-113 308.5v10q0 207 146.5 328t384.5 121
q254 0 398.5 -145.5t144.5 -407.5v-19z" />
    <glyph glyph-name="uni0E52" unicode="&#xe52;" horiz-adv-x="1540" 
d="M1421 477q0 -497 -639 -497q-320 0 -481.5 125t-161.5 372v864h250v-860q0 -143 96.5 -223t305.5 -80q397 0 397 301v254q0 72 -23 105.5t-75 46.5l-119 -90h-17l-118 90q-56 -11 -79.5 -47.5t-23.5 -98.5q0 -155 133 -155q41 0 72 10v-160q-58 -10 -113 -10
q-156 0 -230.5 88.5t-74.5 243.5q0 157 74 242t219 85l148 -120l151 120q142 -11 225.5 -91t83.5 -230v-285z" />
    <glyph glyph-name="uni0E53" unicode="&#xe53;" horiz-adv-x="1474" 
d="M676 0q-58 -16 -137 -16q-213 0 -315.5 138t-102.5 413v22q0 252 96.5 391t276.5 139q190 0 258 -165q73 165 266 165q155 0 237 -89.5t82 -243.5v-754h-237v735q0 67 -31 103t-92 36q-121 0 -121 -147v-354h-213v354q0 72 -33.5 109.5t-91.5 37.5q-74 0 -111.5 -68.5
t-37.5 -223.5v-43q0 -195 50 -278t175 -83q41 0 82 8v-186z" />
    <glyph glyph-name="uni0E54" unicode="&#xe54;" horiz-adv-x="1286" 
d="M1194 0h-573q-256 0 -382 126.5t-126 387.5v8q0 549 563 549h90q86 0 119 34.5t33 108.5v127h247v-182q0 -146 -74 -216.5t-249 -70.5h-131q-165 0 -253.5 -86t-88.5 -264v-8q0 -178 74.5 -253t230.5 -75h151q-39 30 -62.5 81t-23.5 112q0 125 84 191.5t213 66.5
q65 0 125 -14v-168q-50 8 -71 8q-60 0 -94.5 -30.5t-34.5 -92.5t39 -108t120 -46h74v-186z" />
    <glyph glyph-name="uni0E55" unicode="&#xe55;" horiz-adv-x="1286" 
d="M1194 0h-573q-256 0 -382 127t-126 393v8q0 383 297 478q-84 54 -84 155q0 91 62 147t163 56q100 0 160.5 -54t60.5 -143q0 -63 -37 -100h45q76 0 109 33.5t33 101.5v139h243v-182q0 -146 -74 -216.5t-249 -70.5h-131q-165 0 -253.5 -86t-88.5 -264v-8q0 -178 74.5 -253
t230.5 -75h151q-39 30 -62.5 81t-23.5 114q0 123 85 189.5t212 66.5q65 0 125 -14v-168q-50 8 -71 8q-59 0 -94 -30.5t-35 -90.5q0 -64 39 -110t120 -46h74v-186zM461 1155q0 -40 24.5 -66t63.5 -26q38 0 63 26t25 66q0 42 -24.5 68t-63.5 26q-40 0 -64 -25.5t-24 -68.5z
" />
    <glyph glyph-name="uni0E56" unicode="&#xe56;" horiz-adv-x="1314" 
d="M1217 528q0 -253 -151.5 -403t-406.5 -150q-224 0 -364.5 119.5t-140.5 329.5v88h397v-164h-158q3 -65 74.5 -121.5t185.5 -56.5q137 0 223.5 92.5t86.5 261.5v13q0 179 -89.5 267.5t-234.5 88.5q-103 0 -181.5 -43.5t-117.5 -128.5h-166l-98 620h243l56 -362
q116 113 315 113q231 0 379 -148.5t148 -402.5v-13z" />
    <glyph glyph-name="uni0E57" unicode="&#xe57;" horiz-adv-x="1902" 
d="M664 0q-58 -16 -136 -16q-407 0 -407 544v29q0 254 93.5 391t268.5 137q192 0 258 -167q81 165 269 165q134 0 215.5 -80t81.5 -231v-579q127 6 178 72t51 202v874h244v-841q0 -240 -118 -370t-359 -130h-228v735q0 139 -119 139q-114 0 -114 -147v-354h-203v358
q0 71 -31 107t-88 36q-145 0 -145 -292v-47q0 -192 47.5 -274.5t161.5 -82.5q41 0 80 8v-186z" />
    <glyph glyph-name="uni0E58" unicode="&#xe58;" horiz-adv-x="1398" 
d="M1315 317q0 -88 -23 -153.5t-64.5 -103.5t-92.5 -56t-113 -18q-117 0 -189 59t-100 158l-127 -213h-57q-208 0 -324 132.5t-116 387.5v12q0 277 148.5 413t420.5 136h172q88 0 128 38t40 120v112h246v-159q0 -159 -87.5 -234.5t-271.5 -75.5h-196q-170 0 -259.5 -84.5
t-89.5 -271.5v-8q0 -156 54 -228.5t141 -72.5l131 201h115q15 -102 52.5 -156.5t109.5 -54.5q57 0 92 34.5t35 100.5v88h-115v155h340v-258z" />
    <glyph glyph-name="uni0E59" unicode="&#xe59;" horiz-adv-x="1288" 
d="M678 0q-58 -16 -152 -16q-208 0 -311.5 127.5t-103.5 418.5q0 560 381 560q174 0 258 -129q4 52 33.5 79t95.5 45q5 1 29 7t31.5 8.5t25 11.5t24 19t13 28t6.5 41v141h235v-133q0 -57 -11.5 -100t-29 -70t-48 -47t-60 -31t-74.5 -22q-60 -12 -92.5 -38t-32.5 -83
q0 -49 31 -123l274 -694h-258l-291 772q-43 113 -139 113q-86 0 -119 -81.5t-33 -252.5q0 -148 23 -228.5t71 -112.5t136 -32q49 0 88 10v-188z" />
    <glyph glyph-name="uni0E5A" unicode="&#xe5a;" horiz-adv-x="1675" 
d="M1034 0h-256v627q-42 -61 -122 -101.5t-195 -40.5q-189 0 -302.5 104t-113.5 283q0 166 107 264.5t294 98.5q85 0 170 -31v-176q-56 21 -118 21q-101 0 -156 -48t-55 -131q0 -87 57.5 -142.5t169.5 -55.5q131 0 197.5 73.5t66.5 184.5v289h256v-523q118 10 176 80.5
t58 173.5v269h256v-1219h-256v647q-81 -114 -234 -131v-516z" />
    <glyph glyph-name="uni0E5B" unicode="&#xe5b;" horiz-adv-x="1730" 
d="M887 639q-12 -62 -31.5 -115.5t-54.5 -106.5t-80 -90t-111.5 -60t-146.5 -23q-167 0 -268 99t-101 263q0 165 102 256.5t269 91.5q71 0 143 -20v-172q-50 8 -78 8q-88 0 -139 -41t-51 -127q0 -75 44 -120.5t122 -45.5q64 0 113 33t81 95.5t52 136t34 171.5h199l115 -344
l110 344h172l78 -196q30 -72 59 -100.5t83 -28.5q27 0 57 6v-174q-35 -14 -84 -14q-82 0 -138.5 40t-95.5 130l-49 120l-100 -344h-186z" />
    <glyph glyph-name="uni1E80" unicode="&#x1e80;" horiz-adv-x="1955" 
d="M903 1569l-201 276h279l109 -276h-187zM418 0l-365 1464h279l254 -1075l284 1075h226l290 -1081l263 1081h254l-367 -1464h-272l-289 1067l-297 -1067h-260z" />
    <glyph glyph-name="uni1E81" unicode="&#x1e81;" horiz-adv-x="1667" 
d="M770 1231l-213 317h274l121 -317h-182zM369 0l-328 1071h264l213 -774l227 774h207l209 -774l223 774h242l-336 -1071h-252l-198 721l-217 -721h-254z" />
    <glyph glyph-name="uni1E82" unicode="&#x1e82;" horiz-adv-x="1955" 
d="M893 1569l111 276h278l-203 -276h-186zM418 0l-365 1464h279l254 -1075l284 1075h226l290 -1081l263 1081h254l-367 -1464h-272l-289 1067l-297 -1067h-260z" />
    <glyph glyph-name="uni1E83" unicode="&#x1e83;" horiz-adv-x="1667" 
d="M754 1231l120 317h275l-213 -317h-182zM369 0l-328 1071h264l213 -774l227 774h207l209 -774l223 774h242l-336 -1071h-252l-198 721l-217 -721h-254z" />
    <glyph glyph-name="uni1E84" unicode="&#x1e84;" horiz-adv-x="1955" 
d="M766 1591q-56 0 -95.5 39t-39.5 94t39.5 94.5t95.5 39.5t95.5 -39.5t39.5 -94.5t-39.5 -94t-95.5 -39zM1198 1591q-56 0 -95.5 39t-39.5 94t39.5 94.5t95.5 39.5t95.5 -39.5t39.5 -94.5t-39.5 -94t-95.5 -39zM418 0l-365 1464h279l254 -1075l284 1075h226l290 -1081
l263 1081h254l-367 -1464h-272l-289 1067l-297 -1067h-260z" />
    <glyph glyph-name="uni1E85" unicode="&#x1e85;" horiz-adv-x="1667" 
d="M643 1255q-56 0 -95.5 39.5t-39.5 94.5q0 54 40 93.5t95 39.5t95 -39.5t40 -93.5q0 -55 -39.5 -94.5t-95.5 -39.5zM1049 1255q-57 0 -96.5 39t-39.5 95q0 54 39.5 93.5t96.5 39.5q55 0 95 -39.5t40 -93.5q0 -55 -39.5 -94.5t-95.5 -39.5zM369 0l-328 1071h264l213 -774
l227 774h207l209 -774l223 774h242l-336 -1071h-252l-198 721l-217 -721h-254z" />
    <glyph glyph-name="uni1EF2" unicode="&#x1ef2;" horiz-adv-x="1288" 
d="M584 1569l-201 276h279l108 -276h-186zM520 0v635l-485 829h301l330 -606l321 606h266l-458 -831v-633h-275z" />
    <glyph glyph-name="uni1EF3" unicode="&#x1ef3;" horiz-adv-x="1132" 
d="M498 1231l-213 317h274l121 -317h-182zM266 -367l195 476l-424 962h268l285 -690l262 690h242l-584 -1438h-244z" />
    <glyph glyph-name="uni2009" unicode="&#x2009;" horiz-adv-x="206" 
 />
    <glyph glyph-name="uni2013" unicode="&#x2013;" horiz-adv-x="1089" 
d="M92 492v172h903v-172h-903z" />
    <glyph glyph-name="uni2014" unicode="&#x2014;" horiz-adv-x="1861" 
d="M92 492v172h1677v-172h-1677z" />
    <glyph glyph-name="uni2018" unicode="&#x2018;" horiz-adv-x="567" 
d="M299 950l-225 88l256 451l145 -64z" />
    <glyph glyph-name="uni2019" unicode="&#x2019;" horiz-adv-x="567" 
d="M238 950l-146 66l176 473l224 -88z" />
    <glyph glyph-name="uni201A" unicode="&#x201a;" horiz-adv-x="565" 
d="M233 -227l-143 63l174 475l225 -88z" />
    <glyph glyph-name="uni201C" unicode="&#x201c;" horiz-adv-x="968" 
d="M299 950l-225 88l256 451l145 -64zM702 950l-225 88l256 451l144 -64z" />
    <glyph glyph-name="uni201D" unicode="&#x201d;" horiz-adv-x="968" 
d="M238 950l-146 66l176 473l224 -88zM639 950l-143 66l174 473l225 -88z" />
    <glyph glyph-name="uni201E" unicode="&#x201e;" horiz-adv-x="968" 
d="M233 -227l-143 63l174 475l225 -88zM637 -227l-145 63l176 475l225 -88z" />
    <glyph glyph-name="uni2020" unicode="&#x2020;" horiz-adv-x="790" 
d="M291 436v590h-230v184h230v254h211v-254h227v-184h-227v-590h-211z" />
    <glyph glyph-name="uni2021" unicode="&#x2021;" horiz-adv-x="790" 
d="M291 852v197h-230v174h230v241h211v-241h227v-174h-227v-197h227v-174h-227v-242h-211v242h-230v174h230z" />
    <glyph glyph-name="uni2022" unicode="&#x2022;" horiz-adv-x="712" 
d="M356 362q-112 0 -187 76.5t-75 186.5q0 108 75.5 185t186.5 77q112 0 187 -76.5t75 -185.5q0 -110 -74.5 -186.5t-187.5 -76.5z" />
    <glyph glyph-name="uni2026" unicode="&#x2026;" horiz-adv-x="1720" 
d="M295 -14q-68 0 -115 46t-47 113t47.5 114.5t114.5 47.5q69 0 116.5 -47t47.5 -115q0 -67 -47.5 -113t-116.5 -46zM860 -14q-69 0 -115.5 45.5t-46.5 113.5t46.5 115t115.5 47t116.5 -47t47.5 -115q0 -67 -47.5 -113t-116.5 -46zM1423 -14q-68 0 -114.5 46t-46.5 113
q0 68 47 115t114 47q69 0 117.5 -47.5t48.5 -114.5t-48.5 -113t-117.5 -46z" />
    <glyph glyph-name="uni2030" unicode="&#x2030;" horiz-adv-x="2383" 
d="M412 786q-148 0 -249.5 98.5t-101.5 245.5q0 149 103 249t248 100q146 0 247 -97t101 -245q0 -150 -100.5 -250.5t-247.5 -100.5zM250 0l942 1464h174l-944 -1464h-172zM412 950q69 0 109 49.5t40 135.5q0 83 -40 132.5t-109 49.5t-110.5 -49t-41.5 -135t41.5 -134.5
t110.5 -48.5zM1190 -20q-148 0 -248 98.5t-100 245.5q0 149 102 248.5t246 99.5q146 0 247 -97t101 -245q0 -150 -100.5 -250t-247.5 -100zM1972 -20q-148 0 -248 98.5t-100 245.5q0 149 102 248.5t246 99.5q147 0 248.5 -97.5t101.5 -244.5q0 -150 -101 -250t-249 -100z
M1190 143q69 0 109 49.5t40 135.5q0 83 -40 132.5t-109 49.5q-68 0 -109 -48.5t-41 -135.5q0 -86 40.5 -134.5t109.5 -48.5zM1972 143q71 0 111.5 49.5t40.5 135.5q0 84 -41 133t-111 49q-68 0 -108.5 -48.5t-40.5 -135.5t40.5 -135t108.5 -48z" />
    <glyph glyph-name="uni2032" unicode="&#x2032;" horiz-adv-x="464" 
d="M86 938l47 526h248l-119 -526h-176z" />
    <glyph glyph-name="uni2033" unicode="&#x2033;" horiz-adv-x="837" 
d="M86 938l47 526h248l-119 -526h-176zM459 938l47 526h248l-119 -526h-176z" />
    <glyph glyph-name="uni2039" unicode="&#x2039;" horiz-adv-x="647" 
d="M360 160l-262 375l262 374h199l-252 -374l252 -375h-199z" />
    <glyph glyph-name="uni203A" unicode="&#x203a;" horiz-adv-x="647" 
d="M88 160l252 375l-252 374h199l262 -374l-262 -375h-199z" />
    <glyph glyph-name="uni2044" unicode="&#x2044;" horiz-adv-x="276" 
d="M-481 0l1081 1464h158l-1082 -1464h-157z" />
    <glyph glyph-name="uni20AC" unicode="&#x20ac;" horiz-adv-x="1417" 
d="M57 797v129h142q21 162 94 286.5t199.5 198.5t289.5 74q233 0 373.5 -125t165.5 -356h-256q-17 130 -90.5 200t-192.5 70q-136 0 -215 -91.5t-100 -256.5h422l-25 -129h-403v-140h377l-23 -129h-348q21 -162 100 -247.5t217 -85.5q256 0 297 297h254
q-28 -244 -171.5 -378t-383.5 -134q-247 0 -398 149.5t-183 398.5h-142v129h136v140h-136z" />
    <glyph glyph-name="uni2122" unicode="&#x2122;" horiz-adv-x="1501" 
d="M700 805v659h199l160 -407l158 407h200v-659h-155v459l-187 -459h-51l-186 459v-459h-138zM254 805v536h-188v123h532v-123h-188v-536h-156z" />
    <glyph glyph-name="uni2153" unicode="&#x2153;" horiz-adv-x="1552" 
d="M219 737v543l-168 -104v159l193 129h168v-727h-193zM102 0l1082 1464h157l-1081 -1464h-158zM1196 -12q-146 0 -221 66t-78 179h170q10 -108 119 -108q110 0 110 94t-110 94h-58v117h56q106 0 106 88q0 38 -24 61t-68 23q-46 0 -75.5 -26.5t-35.5 -73.5h-169
q8 106 82.5 170.5t201.5 64.5q125 0 196.5 -54.5t71.5 -143.5q0 -117 -124 -158q65 -12 104 -56.5t39 -111.5q0 -104 -77.5 -164.5t-215.5 -60.5z" />
    <glyph glyph-name="uni2154" unicode="&#x2154;" horiz-adv-x="1638" 
d="M20 737v27l263 276q120 123 120 203q0 41 -22 64.5t-64 23.5q-92 0 -106 -125h-174q6 128 82.5 198.5t206.5 70.5q127 0 195.5 -61.5t68.5 -162.5q0 -69 -36.5 -129.5t-107.5 -128.5l-118 -116h268v-140h-576zM217 0l1081 1464h158l-1081 -1464h-158zM1282 -12
q-146 0 -221 66t-78 179h170q10 -108 119 -108q110 0 110 94t-110 94h-58v117h56q106 0 106 88q0 38 -24 61t-68 23q-46 0 -75 -26.5t-35 -73.5h-170q8 106 82.5 170.5t201.5 64.5q125 0 196.5 -54.5t71.5 -143.5q0 -117 -124 -158q65 -12 104 -56.5t39 -111.5
q0 -104 -77.5 -164.5t-215.5 -60.5z" />
    <glyph glyph-name="uni215B" unicode="&#x215b;" horiz-adv-x="1538" 
d="M219 737v543l-168 -104v159l193 129h168v-727h-193zM96 0l1082 1464h157l-1081 -1464h-158zM1182 -12q-136 0 -217.5 56t-81.5 161q0 64 35 111t98 69q-105 45 -105 152q0 92 79 146t194 54q116 0 192 -53.5t76 -146.5q0 -107 -106 -150q135 -48 135 -178
q0 -104 -82 -162.5t-217 -58.5zM1184 434q40 0 67 24.5t27 63.5t-27 62.5t-67 23.5q-41 0 -69 -24t-28 -64q0 -38 28.5 -62t68.5 -24zM1182 121q49 0 79.5 27t30.5 77q0 46 -31 73.5t-79 27.5t-79.5 -27.5t-31.5 -75.5t31.5 -75t79.5 -27z" />
    <glyph glyph-name="uni215C" unicode="&#x215c;" horiz-adv-x="1607" 
d="M346 725q-146 0 -221 66.5t-78 179.5h170q5 -51 34 -81t85 -30q54 0 82 25.5t28 70.5q0 93 -110 93h-57v118h55q106 0 106 88q0 38 -23.5 60t-68.5 22q-46 0 -75 -26t-35 -72h-170q8 105 82.5 170.5t201.5 65.5q125 0 197 -55t72 -144q0 -117 -125 -158q65 -12 104 -56.5
t39 -111.5q0 -104 -77.5 -164.5t-215.5 -60.5zM188 0l1082 1464h157l-1081 -1464h-158zM1251 -12q-136 0 -217.5 56t-81.5 161q0 64 35 111t98 69q-104 45 -104 152q0 92 78.5 146t193.5 54q116 0 192.5 -53.5t76.5 -146.5q0 -106 -107 -150q135 -48 135 -178
q0 -104 -82 -162.5t-217 -58.5zM1253 434q41 0 68 24.5t27 63.5t-27.5 62.5t-67.5 23.5q-41 0 -68.5 -24t-27.5 -64q0 -39 28 -62.5t68 -23.5zM1251 121q49 0 80 27.5t31 76.5q0 46 -31.5 73.5t-79.5 27.5q-47 0 -78.5 -27.5t-31.5 -75.5t31 -75t79 -27z" />
    <glyph glyph-name="uni215D" unicode="&#x215d;" horiz-adv-x="1587" 
d="M332 725q-137 0 -208.5 63t-76.5 168h176q7 -44 30 -67t75 -23q49 0 75.5 31.5t26.5 85.5q0 53 -27.5 83t-76.5 30q-79 0 -121 -56h-127l14 424h488v-139h-351l-4 -178q60 76 172 76q101 0 163.5 -63.5t62.5 -174.5q0 -121 -79 -190.5t-212 -69.5zM168 0l1081 1464h158
l-1081 -1464h-158zM1233 -12q-136 0 -217.5 56t-81.5 161q0 64 35 111t98 69q-104 45 -104 152q0 92 78.5 146t193.5 54q116 0 192 -53.5t76 -146.5q0 -107 -106 -150q135 -48 135 -178q0 -104 -82 -162.5t-217 -58.5zM1235 434q40 0 67 24.5t27 63.5t-27 62.5t-67 23.5
q-41 0 -68.5 -24t-27.5 -64q0 -39 28 -62.5t68 -23.5zM1233 121q49 0 79.5 27t30.5 77q0 46 -31 73.5t-79 27.5t-79.5 -27.5t-31.5 -75.5t31.5 -75t79.5 -27z" />
    <glyph glyph-name="uni215E" unicode="&#x215e;" horiz-adv-x="1527" 
d="M139 737l217 576h-313v151h553v-20l-264 -707h-193zM70 0l1081 1464h158l-1082 -1464h-157zM1174 -12q-136 0 -218 56.5t-82 160.5q0 64 35.5 111t98.5 69q-105 45 -105 152q0 92 79 146t194 54q116 0 192 -53.5t76 -146.5q0 -106 -107 -150q136 -48 136 -178
q0 -104 -82 -162.5t-217 -58.5zM1176 434q40 0 67 24.5t27 63.5t-27 62.5t-67 23.5q-41 0 -69 -24t-28 -64q0 -38 28.5 -62t68.5 -24zM1174 121q49 0 79.5 27t30.5 77q0 46 -31 73.5t-79 27.5t-79.5 -27.5t-31.5 -75.5t31.5 -75t79.5 -27z" />
    <glyph glyph-name="uni2212" unicode="&#x2212;" horiz-adv-x="1105" 
d="M76 600v197h956v-197h-956z" />
    <glyph glyph-name="uni2248" unicode="&#x2248;" horiz-adv-x="1085" 
d="M84 700q11 145 80.5 218t169.5 73q68 0 149 -21.5t150.5 -43t111.5 -21.5q37 0 63 24t30 68h161q-7 -142 -76 -216t-167 -74q-70 0 -152 22t-152 44t-112 22q-36 0 -61.5 -25t-32.5 -70h-162zM84 303q11 145 80.5 218t169.5 73q68 0 149 -21.5t150.5 -43t111.5 -21.5
q37 0 63 24t30 68h161q-7 -142 -76.5 -216.5t-166.5 -74.5q-70 0 -152 22t-152 44t-112 22q-36 0 -61.5 -24.5t-32.5 -69.5h-162z" />
    <glyph glyph-name="uni2260" unicode="&#x2260;" horiz-adv-x="1050" 
d="M80 760v188h465l80 205h186l-80 -205h238v-188h-312l-73 -195h385v-186h-457l-80 -207h-186l80 207h-246v186h317l74 195h-391z" />
    <glyph glyph-name="uni2264" unicode="&#x2264;" horiz-adv-x="1038" 
d="M915 262l-815 436v54l815 436v-227l-456 -234l456 -235v-230zM100 0v182h815v-182h-815z" />
    <glyph glyph-name="uni2265" unicode="&#x2265;" horiz-adv-x="1038" 
d="M123 262v230l457 235l-457 234v227l817 -436v-54zM123 0v182h817v-182h-817z" />
    <glyph glyph-name="uni24C5" unicode="&#x24c5;" horiz-adv-x="1726" 
d="M862 -27q-209 0 -384.5 99t-277.5 273.5t-102 385.5q0 156 60 297t162.5 242.5t245 161t300.5 59.5q160 0 302 -59t243 -160t160 -241t59 -296q0 -159 -60 -301t-163 -242.5t-245 -159.5t-300 -59zM862 66q131 0 251 49.5t210 135.5t143.5 212.5t53.5 271.5
q0 143 -52 268t-140.5 211t-208.5 135.5t-253 49.5q-181 0 -331 -84t-238 -238t-88 -346q0 -145 53 -270.5t142.5 -211.5t208.5 -134.5t249 -48.5zM602 328v817h287q154 0 235.5 -66.5t81.5 -195.5v-6q0 -127 -81 -191.5t-226 -64.5h-100v-293h-197zM799 756h86
q66 0 100.5 31t34.5 90v6q0 112 -135 112h-86v-239z" />
    <glyph glyph-name="uniFB01" unicode="&#xfb01;" horiz-adv-x="1286" 
d="M190 0v885h-145v186h145v143q0 176 93 269.5t264 93.5q77 0 135 -18v-193q-39 16 -104 16q-71 0 -105.5 -42.5t-34.5 -114.5v-154h244v-186h-244v-885h-248zM1004 1247q-62 0 -105 41t-43 101q0 61 43 102t105 41t104.5 -41t42.5 -102q0 -60 -42.5 -101t-104.5 -41z
M883 0v1071h247v-1071h-247z" />
    <glyph glyph-name="uniFB02" unicode="&#xfb02;" horiz-adv-x="1286" 
d="M190 0v885h-145v186h145v143q0 176 93 269.5t264 93.5q77 0 135 -18v-193q-39 16 -104 16q-71 0 -105.5 -42.5t-34.5 -114.5v-154h244v-186h-244v-885h-248zM883 0v1567h247v-1567h-247z" />
    <glyph glyph-name="space_uni0326" horiz-adv-x="819" 
d="M381 -461l-145 55l106 338l227 -45z" />
    <glyph glyph-name="idotaccent" horiz-adv-x="555" 
d="M274 1247q-62 0 -104.5 41t-42.5 101q0 61 42.5 102t104.5 41t105 -41t43 -102q0 -60 -43 -101t-105 -41zM154 0v1071h247v-1071h-247z" />
    <glyph glyph-name="uni0E0D.less" horiz-adv-x="2025" 
d="M1896 473q0 -242 -126 -370t-386 -128q-259 0 -384.5 128t-125.5 370v299q0 125 -65.5 194.5t-194.5 69.5q-122 0 -190 -63t-68 -162v-16h215v-146q-190 -30 -190 -219v-80q0 -174 160 -174q58 0 86 12v-180q-77 -24 -156 -24q-348 0 -348 348v80q0 222 182 280h-205v90
q0 204 137 329.5t390 125.5q245 0 374 -120t129 -339v-301q0 -297 254 -297q252 0 252 297v740h260v-744z" />
    <glyph glyph-name="uni0E10.less" horiz-adv-x="1265" 
d="M1178 610q0 -294 -151.5 -459t-405.5 -165q-131 0 -273 49l-102 440h-152v182h361l106 -467q40 -8 70 -8q125 0 206 119t81 315v15q0 213 -86 309t-234 96q-126 0 -207 -63.5t-96 -169.5h-244q15 144 93 243.5t193.5 145t260.5 45.5q212 0 334 -102l115 147h245
l-229 -281q115 -131 115 -370v-21z" />
    <glyph glyph-name="uni0E31.narrow" 
d="M-522 1374h-359q-141 0 -208.5 57t-67.5 187v84h229v-51q0 -97 105 -97h301v-180z" />
    <glyph glyph-name="uni0E34.narrow" 
d="M-524 1374h-799v180h799v-180z" />
    <glyph glyph-name="uni0E35.narrow" 
d="M-526 1374h-809v180h585v177h224v-357z" />
    <glyph glyph-name="uni0E36.narrow" 
d="M-723 1374h-612v182h434q-2 6 -2 19q0 76 58.5 127t146.5 51q90 0 145 -52t55 -138q0 -88 -59 -138.5t-166 -50.5zM-784 1561q0 -38 22 -62t57 -24q36 0 58 23.5t22 62.5q0 40 -21.5 63t-58.5 23q-36 0 -57.5 -23.5t-21.5 -62.5z" />
    <glyph glyph-name="uni0E37.narrow" 
d="M-526 1374h-809v180h356v177h172v-177h109v177h172v-357z" />
    <glyph glyph-name="uni0E47.narrow" 
d="M-952 1360h-47q-118 0 -184 70t-66 184q0 117 71 184.5t193 67.5h506v-154h-490q-46 0 -72 -28.5t-26 -73.5q0 -42 21.5 -70.5t58.5 -28.5l96 113h72q5 -47 29 -81t63 -34q32 0 48.5 24t16.5 64v27h179v-49q0 -110 -56 -163.5t-143 -53.5q-126 0 -178 119z" />
    <glyph glyph-name="uni0E48.narrow" 
d="M-608 1374h-238v412h238v-412z" />
    <glyph glyph-name="uni0E49.narrow" 
d="M-526 1374h-555v92q149 45 149 125q0 68 -84 68q-44 0 -90 -19v119q67 33 170 33q106 0 161.5 -38.5t55.5 -111.5q0 -62 -35 -102h228v-166z" />
    <glyph glyph-name="uni0E4A.narrow" 
d="M-938 1370q-37 -6 -80 -6q-105 0 -165 51t-60 160q0 107 59 165t160 60l109 -90l98 90q223 -15 223 -223v-47h113v-156h-305v178q0 77 -48 84l-77 -59h-7l-77 59q-18 -2 -35 -20t-17 -49q0 -36 22 -55t52 -19q21 0 35 2v-125z" />
    <glyph glyph-name="uni0E4B.narrow" 
d="M-680 1374h-221v125h-162v168h162v119h221v-119h162v-168h-162v-125z" />
    <glyph glyph-name="uni0E4C.narrow" 
d="M-811 1374h-236v78q0 142 77 202t233 60h227v-182h-178q-66 0 -94.5 -22t-28.5 -78v-58z" />
    <glyph glyph-name="uni0E4D.narrow" 
d="M-516 1548q0 -93 -64.5 -150t-171.5 -57q-106 0 -170.5 57.5t-64.5 149.5q0 94 64.5 151.5t170.5 57.5q107 0 171.5 -57.5t64.5 -151.5zM-844 1548q0 -43 25.5 -69.5t66.5 -26.5t67 26.5t26 69.5q0 42 -26.5 69.5t-66.5 27.5q-41 0 -66.5 -27t-25.5 -70z" />
    <glyph glyph-name="uni0E38.small" 
d="M-143 -950h-226v200q0 42 -19.5 59t-60.5 17q-49 0 -79 -12v160q84 30 166 30q219 0 219 -204v-250z" />
    <glyph glyph-name="uni0E39.small" 
d="M-143 -729q0 -108 -82 -167.5t-234 -59.5q-156 0 -232.5 59.5t-76.5 161.5v45q0 47 -49 47q-13 0 -49 -6v137q66 25 141 25q88 0 124 -37t36 -113v-37q0 -59 22.5 -89t81.5 -30q60 0 82.5 30t22.5 89v178h213v-233z" />
    <glyph glyph-name="uni0E3A.small" 
d="M-133 -637q0 -62 -42 -102.5t-106 -40.5q-61 0 -102 41t-41 102t40.5 101t102.5 40q65 0 106.5 -40t41.5 -101z" />
    <glyph glyph-name="uni0E48.small" 
d="M-143 1864h-234v340h234v-340z" />
    <glyph glyph-name="uni0E49.small" 
d="M80 1864h-588v84q131 34 131 98q0 53 -69 53q-39 0 -82 -16v108q63 29 166 29q90 0 137 -32t47 -93q0 -51 -29 -80h287v-151z" />
    <glyph glyph-name="uni0E4A.small" 
d="M-315 1858q-44 -7 -78 -7q-93 0 -147 44t-54 135q0 92 56 140t143 50l94 -66l80 66q100 -2 153.5 -45t53.5 -125v-45h143v-141h-319v145q0 37 -13 51.5t-41 16.5l-53 -43h-6l-59 43q-22 -2 -37 -16t-15 -40t17 -39.5t45 -13.5q23 0 37 2v-112z" />
    <glyph glyph-name="uni0E4B.small" 
d="M-152 1853h-208v109h-164v149h164v109h208v-109h162v-149h-162v-109z" />
    <glyph glyph-name="uni0E4C.small" 
d="M-207 1864h-235v53q0 141 79 204.5t228 63.5h211v-180h-172q-111 0 -111 -102v-39z" />
    <glyph glyph-name="uni0E48.1" 
d="M-164 1864h-235v340h235v-340zM-45 1548q0 -93 -64.5 -150t-171.5 -57q-106 0 -170.5 57.5t-64.5 149.5q0 94 64.5 151.5t170.5 57.5q107 0 171.5 -57.5t64.5 -151.5zM-373 1548q0 -43 25.5 -69.5t66.5 -26.5t67 26.5t26 69.5q0 42 -26.5 69.5t-66.5 27.5
q-41 0 -66.5 -27t-25.5 -70z" />
    <glyph glyph-name="uni0E49.1" 
d="M59 1864h-587v84q64 17 98.5 39.5t34.5 58.5q0 26 -19.5 39.5t-50.5 13.5q-41 0 -84 -16v108q63 29 166 29q182 0 182 -125q0 -54 -26 -80h286v-151zM-45 1548q0 -93 -64.5 -150t-171.5 -57q-106 0 -170.5 57.5t-64.5 149.5q0 94 64.5 151.5t170.5 57.5
q107 0 171.5 -57.5t64.5 -151.5zM-373 1548q0 -43 25.5 -69.5t66.5 -26.5t67 26.5t26 69.5q0 42 -26.5 69.5t-66.5 27.5q-41 0 -66.5 -27t-25.5 -70z" />
    <glyph glyph-name="uni0E4A.1" 
d="M-336 1858q-44 -7 -78 -7q-93 0 -146.5 44t-53.5 135q0 92 56 140t144 50l92 -66l80 66q100 -2 153.5 -45t53.5 -125v-45h144v-141h-320v145q0 37 -12.5 51.5t-40.5 16.5l-53 -43h-7l-59 43q-21 -2 -36 -16t-15 -40t16 -39.5t43 -13.5q25 0 39 2v-112zM-45 1548
q0 -93 -64.5 -150t-171.5 -57q-106 0 -170.5 57.5t-64.5 149.5q0 94 64.5 151.5t170.5 57.5q107 0 171.5 -57.5t64.5 -151.5zM-373 1548q0 -43 25.5 -69.5t66.5 -26.5t67 26.5t26 69.5q0 42 -26.5 69.5t-66.5 27.5q-41 0 -66.5 -27t-25.5 -70z" />
    <glyph glyph-name="uni0E4B.1" 
d="M-176 1853h-209v109h-164v149h164v109h209v-109h162v-149h-162v-109zM-45 1548q0 -93 -64.5 -150t-171.5 -57q-106 0 -170.5 57.5t-64.5 149.5q0 94 64.5 151.5t170.5 57.5q107 0 171.5 -57.5t64.5 -151.5zM-373 1548q0 -43 25.5 -69.5t66.5 -26.5t67 26.5t26 69.5
q0 42 -26.5 69.5t-66.5 27.5q-41 0 -66.5 -27t-25.5 -70z" />
    <glyph glyph-name="uni0E48.narrow.1" 
d="M-635 1864h-235v340h235v-340zM-516 1548q0 -93 -64.5 -150t-171.5 -57q-106 0 -170.5 57.5t-64.5 149.5q0 94 64.5 151.5t170.5 57.5q107 0 171.5 -57.5t64.5 -151.5zM-844 1548q0 -43 25.5 -69.5t66.5 -26.5t67 26.5t26 69.5q0 42 -26.5 69.5t-66.5 27.5
q-41 0 -66.5 -27t-25.5 -70z" />
    <glyph glyph-name="uni0E49.narrow.1" 
d="M-414 1864h-587v84q64 17 98.5 39.5t34.5 58.5q0 53 -70 53q-38 0 -84 -16v108q66 29 166 29q90 0 137 -32t47 -93q0 -51 -26 -80h284v-151zM-516 1548q0 -93 -64.5 -150t-171.5 -57q-106 0 -170.5 57.5t-64.5 149.5q0 94 64.5 151.5t170.5 57.5q107 0 171.5 -57.5
t64.5 -151.5zM-844 1548q0 -43 25.5 -69.5t66.5 -26.5t67 26.5t26 69.5q0 42 -26.5 69.5t-66.5 27.5q-41 0 -66.5 -27t-25.5 -70z" />
    <glyph glyph-name="uni0E4A.narrow.1" 
d="M-807 1858q-44 -7 -78 -7q-94 0 -147 43.5t-53 135.5t55 140t143 50l92 -66l82 66q99 -2 152 -45t53 -125v-45h146v-141h-320v145q0 37 -13 51.5t-42 16.5l-54 -43h-6l-59 43q-21 -2 -36 -16t-15 -40q0 -25 17 -39t44 -14q25 0 39 2v-112zM-516 1548q0 -93 -64.5 -150
t-171.5 -57q-106 0 -170.5 57.5t-64.5 149.5q0 94 64.5 151.5t170.5 57.5q107 0 171.5 -57.5t64.5 -151.5zM-844 1548q0 -43 25.5 -69.5t66.5 -26.5t67 26.5t26 69.5q0 42 -26.5 69.5t-66.5 27.5q-41 0 -66.5 -27t-25.5 -70z" />
    <glyph glyph-name="uni0E4B.narrow.1" 
d="M-643 1853h-209v109h-164v149h164v109h209v-109h162v-149h-162v-109zM-516 1548q0 -93 -64.5 -150t-171.5 -57q-106 0 -170.5 57.5t-64.5 149.5q0 94 64.5 151.5t170.5 57.5q107 0 171.5 -57.5t64.5 -151.5zM-844 1548q0 -43 25.5 -69.5t66.5 -26.5t67 26.5t26 69.5
q0 42 -26.5 69.5t-66.5 27.5q-41 0 -66.5 -27t-25.5 -70z" />
    <glyph glyph-name="uni002D.uc" horiz-adv-x="778" 
d="M115 563v211h549v-211h-549z" />
    <glyph glyph-name="uni2013.uc" horiz-adv-x="1089" 
d="M92 584v172h903v-172h-903z" />
    <glyph glyph-name="uni2014.uc" horiz-adv-x="1861" 
d="M92 584v172h1677v-172h-1677z" />
    <glyph glyph-name="uni0028.uc" horiz-adv-x="686" 
d="M438 -201q-67 80 -124 172t-106.5 205.5t-77.5 249t-28 276.5q0 269 96 501t240 403h215q-133 -179 -219 -412t-86 -492q0 -260 86 -491.5t219 -411.5h-215z" />
    <glyph glyph-name="uni0029.uc" horiz-adv-x="686" 
d="M35 -201q132 180 217.5 412.5t85.5 490.5q0 259 -85.5 491.5t-217.5 412.5h213q67 -80 124 -172t106.5 -206t77.5 -249.5t28 -276.5q0 -269 -96 -500.5t-240 -402.5h-213z" />
    <glyph glyph-name="uni005B.uc" horiz-adv-x="772" 
d="M162 -180v1777h524v-186h-274v-1403h274v-188h-524z" />
    <glyph glyph-name="uni005D.uc" horiz-adv-x="772" 
d="M86 -180v188h274v1403h-274v186h524v-1777h-524z" />
    <glyph glyph-name="uni007B.uc" horiz-adv-x="811" 
d="M725 -184q-265 0 -379 98.5t-80 321.5l25 172q15 94 -34.5 152t-182.5 58v179q133 0 182.5 59t34.5 152l-25 172q-34 226 79.5 322.5t379.5 96.5v-184q-140 -3 -188.5 -51t-30.5 -182l24 -201q13 -108 -40.5 -176.5t-163.5 -95.5q109 -25 163 -95t41 -178l-24 -200
q-18 -134 31 -183.5t188 -52.5v-184z" />
    <glyph glyph-name="uni007D.uc" horiz-adv-x="811" 
d="M86 -184v184q139 3 187 52t30 184l-24 200q-13 108 41.5 178t162.5 95q-109 27 -163 96t-41 176l24 201q18 134 -30 182t-187 51v184q265 0 379 -97t80 -322l-27 -172q-13 -93 36.5 -152t180.5 -59v-179q-132 0 -181 -58t-36 -152l27 -172q33 -223 -81 -321.5t-378 -98.5
z" />
    <glyph glyph-name="uni2039.uc" horiz-adv-x="647" 
d="M360 225l-262 391l262 392h199l-252 -392l252 -391h-199z" />
    <glyph glyph-name="uni203A.uc" horiz-adv-x="647" 
d="M88 225l252 391l-252 392h199l262 -392l-262 -391h-199z" />
    <glyph glyph-name="uni00AB.uc" horiz-adv-x="1007" 
d="M360 225l-262 391l262 392h195l-252 -392l252 -391h-195zM727 225l-262 391l262 392h195l-252 -392l252 -391h-195z" />
    <glyph glyph-name="uni00BB.uc" horiz-adv-x="1007" 
d="M88 225l252 391l-252 392h195l262 -392l-262 -391h-195zM453 225l252 391l-252 392h194l262 -392l-262 -391h-194z" />
    <glyph glyph-name="uni002F.uc" horiz-adv-x="849" 
d="M27 -172l577 1763h211l-579 -1763h-209z" />
    <glyph glyph-name="uni005C.uc" horiz-adv-x="849" 
d="M612 -172l-575 1763h209l575 -1763h-209z" />
    <glyph glyph-name="uni007C.uc" horiz-adv-x="530" 
d="M172 -172v1763h184v-1763h-184z" />
    <glyph glyph-name="uni0040.uc" horiz-adv-x="1878" 
d="M942 -137q-197 0 -359 66t-267 178.5t-162.5 260t-57.5 312.5q0 185 71 347.5t190 275t278.5 177t333.5 64.5q235 0 421 -94t289 -260.5t103 -376.5q0 -111 -24.5 -201.5t-64 -149.5t-92.5 -99t-108 -57t-113 -17q-119 0 -178.5 43t-75.5 125q-42 -80 -118.5 -129
t-167.5 -49q-148 0 -236 95.5t-88 260.5q0 203 113.5 335t279.5 132q179 0 234 -129l14 112h221l-63 -520q-18 -147 90 -147q93 0 157 99t64 296q0 268 -176 430t-479 162q-152 0 -283 -52t-225 -145.5t-147.5 -230t-53.5 -297.5q0 -112 27 -213t82.5 -186t135.5 -147
t192 -97t245 -35q301 0 486 164h169q-88 -137 -263.5 -220t-393.5 -83zM899 449q88 0 153.5 79t65.5 211q0 93 -46.5 142t-131.5 49q-86 0 -142.5 -78.5t-56.5 -208.5q0 -89 43 -141.5t115 -52.5z" />
    <glyph glyph-name="uni00A1.uc" horiz-adv-x="626" 
d="M313 1161q-68 0 -117 46.5t-49 113.5q0 66 49 112t117 46t117 -46t49 -112q0 -67 -49 -113.5t-117 -46.5zM174 0l39 1024h199l39 -1024h-277z" />
    <glyph glyph-name="uni00BF.uc" horiz-adv-x="1056" 
d="M586 1479q69 0 117.5 -46t48.5 -112q0 -67 -48.5 -113.5t-117.5 -46.5q-68 0 -117 46.5t-49 113.5q0 66 49 112t117 46zM696 1024v-78q0 -47 -13.5 -92t-28.5 -75t-49.5 -71.5t-52.5 -60t-60 -59.5q-48 -47 -74 -76t-48 -72t-22 -84q0 -81 44.5 -126.5t135.5 -45.5
q96 0 157.5 63t72.5 169h237q-9 -200 -140 -318t-339 -118q-210 0 -320 100t-110 258q0 98 46.5 171.5t133.5 158.5q5 5 35 33.5t37 35.5t31.5 32t32 36t24 34t22.5 39t13 37.5t8 42.5v66h227z" />
    <glyph glyph-name="uni00B4.uc" horiz-adv-x="819" 
d="M299 1569l111 276h278l-203 -276h-186z" />
    <glyph glyph-name="uni0060.uc" horiz-adv-x="819" 
d="M334 1569l-201 276h279l108 -276h-186z" />
    <glyph glyph-name="uni02DD.uc" horiz-adv-x="819" 
d="M152 1569l77 276h242l-149 -276h-170zM500 1569l78 276h241l-149 -276h-170z" />
    <glyph glyph-name="uni02C6.uc" horiz-adv-x="819" 
d="M78 1569l227 276h213l221 -276h-180l-151 112l-154 -112h-176z" />
    <glyph glyph-name="uni02C7.uc" horiz-adv-x="819" 
d="M299 1569l-221 276h180l154 -112l151 112h176l-225 -276h-215z" />
    <glyph glyph-name="uni02D8.uc" horiz-adv-x="819" 
d="M408 1559q-127 0 -209 79t-88 207h174q16 -114 123 -114q110 0 129 114h172q-7 -127 -91.5 -206.5t-209.5 -79.5z" />
    <glyph glyph-name="uni02DC.uc" horiz-adv-x="819" 
d="M528 1573q-42 0 -86.5 20t-81.5 40t-61 20q-27 0 -48.5 -23t-27.5 -59h-155q10 126 72 197t151 71q51 0 127 -41t104 -41q27 0 47.5 23t26.5 59h158q-12 -125 -75 -195.5t-151 -70.5z" />
    <glyph glyph-name="uni00AF.uc" horiz-adv-x="819" 
d="M115 1597v166h590v-166h-590z" />
    <glyph glyph-name="uni00A8.uc" horiz-adv-x="819" 
d="M193 1591q-56 0 -96 39t-40 94t40 94.5t96 39.5t95.5 -39.5t39.5 -94.5t-39.5 -94t-95.5 -39zM625 1591q-56 0 -96 39t-40 94t40 94.5t96 39.5t95.5 -39.5t39.5 -94.5t-39.5 -94t-95.5 -39z" />
    <glyph glyph-name="uni02D9.uc" horiz-adv-x="819" 
d="M410 1587q-61 0 -103.5 41.5t-42.5 100.5t42.5 99t103.5 40q60 0 102.5 -40.5t42.5 -98.5q0 -59 -42.5 -100.5t-102.5 -41.5z" />
    <glyph glyph-name="uni02DA.uc" horiz-adv-x="819" 
d="M410 1542q-95 0 -162.5 65.5t-67.5 157.5t67.5 158t162.5 66t162 -66t67 -158t-67 -157.5t-162 -65.5zM410 1653q44 0 73 31.5t29 80.5t-29 81t-73 32q-46 0 -74.5 -31.5t-28.5 -81.5t28.5 -81t74.5 -31z" />
    <glyph glyph-name="uni0030.den" horiz-adv-x="774" 
d="M385 -12q-155 0 -242.5 97t-87.5 265v25q0 167 91.5 264.5t240.5 97.5t240.5 -95t91.5 -263v-23q0 -169 -89 -268.5t-245 -99.5zM389 137q139 0 139 217v23q0 215 -141 215q-139 0 -139 -217v-23q0 -215 141 -215z" />
    <glyph glyph-name="uni0031.den" horiz-adv-x="520" 
d="M213 0v543l-168 -105v160l193 129h168v-727h-193z" />
    <glyph glyph-name="uni0032.den" horiz-adv-x="641" 
d="M14 0v27l262 276q121 124 121 203q0 42 -22 65t-64 23q-92 0 -106 -125h-174q6 129 82 198.5t206 69.5q127 0 196 -61t69 -162q0 -68 -37 -129.5t-107 -128.5l-118 -117h268v-139h-576z" />
    <glyph glyph-name="uni0033.den" horiz-adv-x="688" 
d="M340 -12q-146 0 -221 66t-78 179h170q10 -108 119 -108q110 0 110 94t-110 94h-58v117h56q106 0 106 88q0 38 -24 61t-68 23q-46 0 -75.5 -26.5t-35.5 -73.5h-170q8 106 83 170.5t202 64.5q125 0 196.5 -54.5t71.5 -143.5q0 -117 -125 -158q65 -12 104.5 -56.5
t39.5 -111.5q0 -104 -77.5 -164.5t-215.5 -60.5z" />
    <glyph glyph-name="uni0034.den" horiz-adv-x="712" 
d="M395 0v141h-364v70l315 516h232v-455h94v-131h-94v-141h-183zM213 272h186v322z" />
    <glyph glyph-name="uni0035.den" horiz-adv-x="671" 
d="M326 -12q-137 0 -208.5 63t-76.5 168h176q7 -44 30 -66t75 -22q49 0 75.5 31t26.5 86q0 53 -28 82.5t-77 29.5q-78 0 -120 -55h-127l14 422h487v-139h-350l-4 -178q60 75 172 75q102 0 163.5 -62.5t61.5 -174.5q0 -120 -79 -190t-211 -70z" />
    <glyph glyph-name="uni0036.den" horiz-adv-x="714" 
d="M371 -12q-164 0 -240 94t-76 258v20q0 177 91 277t239 100q116 0 184 -53.5t78 -155.5h-174q-14 70 -88 70q-65 0 -100.5 -55.5t-38.5 -157.5q57 88 176 88q105 0 173.5 -61t68.5 -170q0 -115 -79 -184.5t-214 -69.5zM369 121q49 0 79.5 32t30.5 85t-29.5 85.5
t-80.5 32.5t-82 -32t-31 -82q0 -56 30.5 -88.5t82.5 -32.5z" />
    <glyph glyph-name="uni0037.den" horiz-adv-x="610" 
d="M133 0l217 575h-313v152h553v-20l-264 -707h-193z" />
    <glyph glyph-name="uni0038.den" horiz-adv-x="696" 
d="M348 -12q-136 0 -217.5 56t-81.5 161q0 64 35 111t98 69q-104 45 -104 152q0 92 78.5 146t193.5 54q116 0 192 -53.5t76 -146.5q0 -107 -106 -150q135 -48 135 -178q0 -104 -82 -162.5t-217 -58.5zM350 434q40 0 67 24.5t27 63.5t-27 62.5t-67 23.5q-41 0 -68.5 -24
t-27.5 -64q0 -39 28 -62.5t68 -23.5zM348 121q49 0 80 27.5t31 76.5q0 46 -31.5 73.5t-79.5 27.5q-47 0 -78.5 -27.5t-31.5 -75.5t31 -75t79 -27z" />
    <glyph glyph-name="uni0039.den" horiz-adv-x="714" 
d="M338 -12q-122 0 -194.5 56.5t-84.5 158.5h177q8 -37 30.5 -55.5t69.5 -18.5q130 0 133 209q-58 -86 -170 -86q-110 0 -179 60.5t-69 170.5q0 116 79.5 186t213.5 70q156 0 235.5 -93.5t79.5 -256.5v-31q0 -178 -82.5 -274t-238.5 -96zM344 371q50 0 81.5 31t31.5 79
q0 57 -31 91t-82 34q-49 0 -78.5 -32.5t-29.5 -86.5q0 -52 29 -84t79 -32z" />
    <glyph glyph-name="uni0030.num" horiz-adv-x="774" 
d="M385 725q-155 0 -242.5 97t-87.5 265v23q0 168 91.5 266.5t240.5 98.5t240.5 -95t91.5 -264v-22q0 -170 -89 -269.5t-245 -99.5zM389 872q139 0 139 220v22q0 215 -141 215q-139 0 -139 -217v-22q0 -218 141 -218z" />
    <glyph glyph-name="uni0031.num" horiz-adv-x="518" 
d="M213 737v543l-168 -104v159l193 129h168v-727h-193z" />
    <glyph glyph-name="uni0032.num" horiz-adv-x="641" 
d="M14 737v27l262 276q121 124 121 203q0 41 -22 64.5t-64 23.5q-92 0 -106 -125h-174q6 128 82 198.5t206 70.5q127 0 196 -61.5t69 -162.5q0 -69 -36.5 -129.5t-107.5 -128.5l-118 -116h268v-140h-576z" />
    <glyph glyph-name="uni0033.num" horiz-adv-x="688" 
d="M340 725q-146 0 -221 66.5t-78 179.5h170q5 -51 34 -81t85 -30q54 0 82 25.5t28 70.5q0 93 -110 93h-58v118h56q106 0 106 88q0 38 -23.5 60t-68.5 22q-46 0 -75.5 -26t-35.5 -72h-170q8 105 83 170.5t202 65.5q125 0 196.5 -55t71.5 -144q0 -117 -125 -158
q65 -12 104.5 -56.5t39.5 -111.5q0 -104 -77.5 -164.5t-215.5 -60.5z" />
    <glyph glyph-name="uni0034.num" horiz-adv-x="710" 
d="M395 737v142h-364v69l315 516h232v-454h94v-131h-94v-142h-183zM213 1010h186v321z" />
    <glyph glyph-name="uni0035.num" horiz-adv-x="669" 
d="M326 725q-137 0 -208.5 63t-76.5 168h176q7 -44 30 -67t75 -23q49 0 75.5 31.5t26.5 85.5q0 53 -28 83t-77 30q-78 0 -120 -56h-127l14 424h487v-139h-350l-4 -178q60 76 172 76q101 0 163 -63.5t62 -174.5q0 -121 -78.5 -190.5t-211.5 -69.5z" />
    <glyph glyph-name="uni0036.num" horiz-adv-x="712" 
d="M371 725q-164 0 -240 94t-76 258v19q0 178 91 278.5t239 100.5q116 0 184 -53.5t78 -155.5h-174q-13 69 -88 69q-65 0 -100.5 -55.5t-38.5 -157.5q57 88 176 88q105 0 173.5 -61t68.5 -170q0 -115 -79 -184.5t-214 -69.5zM369 856q49 0 79.5 33t30.5 86t-29.5 85
t-80.5 32t-82 -31.5t-31 -81.5q0 -57 31 -90t82 -33z" />
    <glyph glyph-name="uni0037.num" horiz-adv-x="610" 
d="M133 737l217 576h-313v151h553v-20l-264 -707h-193z" />
    <glyph glyph-name="uni0038.num" horiz-adv-x="696" 
d="M348 725q-136 0 -217.5 56t-81.5 159q0 66 35 113t98 69q-104 45 -104 150q0 93 78.5 148t193.5 55q116 0 192 -54t76 -147q0 -107 -106 -150q135 -48 135 -178q0 -104 -82 -162.5t-217 -58.5zM350 1171q40 0 67 25t27 64t-27 62.5t-67 23.5q-41 0 -68.5 -24.5
t-27.5 -64.5q0 -39 28 -62.5t68 -23.5zM348 858q49 0 80 27.5t31 77.5q0 45 -31.5 72.5t-79.5 27.5t-79 -27t-31 -75t31.5 -75.5t78.5 -27.5z" />
    <glyph glyph-name="uni0039.num" horiz-adv-x="712" 
d="M338 725q-122 0 -194.5 55.5t-84.5 157.5h177q17 -74 100 -74q130 0 133 209q-57 -84 -170 -84q-110 0 -179 61t-69 171q0 116 79 185t214 69q156 0 235.5 -94t79.5 -257v-28q0 -178 -82.5 -274.5t-238.5 -96.5zM344 1108q50 0 81.5 31.5t31.5 79.5q0 57 -31 90.5
t-82 33.5q-49 0 -78.5 -32.5t-29.5 -85.5t29 -85t79 -32z" />
    <glyph glyph-name="uni0030.old" horiz-adv-x="1341" 
d="M672 -20q-260 0 -420 168.5t-160 451.5v66q0 287 160 454.5t420 167.5t418.5 -166t158.5 -450v-64q0 -289 -157.5 -458.5t-419.5 -169.5zM674 184q153 0 232 108t79 314v62q0 200 -80.5 308.5t-232.5 108.5q-153 0 -234.5 -106.5t-81.5 -308.5v-66q0 -204 82.5 -312
t235.5 -108z" />
    <glyph glyph-name="uni0031.old" horiz-adv-x="831" 
d="M373 0v1010l-303 -205v229l331 234h230v-1268h-258z" />
    <glyph glyph-name="uni0032.old" horiz-adv-x="1144" 
d="M37 0v47l495 465q64 61 99.5 98.5t73.5 87t54.5 95t16.5 94.5q0 92 -56.5 146t-158.5 54q-218 0 -254 -274h-233q14 218 145.5 346.5t351.5 128.5q214 0 340.5 -107t126.5 -282q0 -53 -17 -105t-41 -93.5t-70.5 -94.5t-84 -89.5t-102.5 -96.5l-238 -221h566v-199h-1014z
" />
    <glyph glyph-name="uni0033.old" horiz-adv-x="1236" 
d="M610 -215q-252 0 -391.5 129t-148.5 342h239q24 -272 295 -272q141 0 210 65.5t69 183.5q0 238 -273 238h-108v186h100q125 0 184.5 58.5t59.5 163.5q0 98 -56 154.5t-165 56.5q-116 0 -187.5 -65.5t-85.5 -180.5h-231q5 93 41.5 174t100 141t158.5 94.5t210 34.5
q216 0 340.5 -110t124.5 -279q0 -231 -232 -321q281 -74 281 -355q0 -199 -144 -318.5t-391 -119.5z" />
    <glyph glyph-name="uni0034.old" horiz-adv-x="1306" 
d="M788 -195v299h-739v86l660 1076h335v-977h199v-185h-199v-299h-256zM332 289h459v778z" />
    <glyph glyph-name="uni0035.old" horiz-adv-x="1200" 
d="M584 -215q-240 0 -369.5 117t-142.5 311h241q19 -110 79 -168.5t190 -58.5q122 0 193 81t71 216q0 128 -72 206t-190 78q-193 0 -303 -127h-131l10 828h868v-211h-668l-4 -418q105 117 314 117q194 0 316 -127.5t122 -345.5q0 -225 -146 -361.5t-378 -136.5z" />
    <glyph glyph-name="uni0036.old" horiz-adv-x="1284" 
d="M659 -20q-121 0 -216.5 33.5t-159.5 92.5t-105.5 144t-59.5 183.5t-18 215.5v66q0 184 44 330.5t122.5 242.5t187 146.5t238.5 50.5q198 0 319.5 -97t147.5 -284h-246q-21 89 -74 133.5t-153 44.5q-148 0 -233 -135.5t-91 -398.5q50 83 142 133.5t215 50.5
q208 0 340.5 -128.5t132.5 -336.5q0 -221 -144 -354t-389 -133zM659 174q122 0 197.5 79t75.5 208q0 130 -75 209.5t-200 79.5q-123 0 -202.5 -77.5t-79.5 -197.5q0 -140 78.5 -220.5t205.5 -80.5z" />
    <glyph glyph-name="uni0037.old" horiz-adv-x="1110" 
d="M229 -195l508 1250h-684v211h1016v-31l-567 -1430h-273z" />
    <glyph glyph-name="uni0038.old" horiz-adv-x="1253" 
d="M627 -20q-108 0 -204.5 28t-171.5 81t-119 136t-44 185q0 134 78.5 228t206.5 138q-105 41 -166.5 121t-61.5 190q0 121 69 213.5t178 138.5t237 46q130 0 238 -46t175.5 -137t67.5 -210q0 -112 -61.5 -191t-167.5 -123q132 -46 208 -138t76 -222q0 -138 -74 -239
t-194.5 -150t-269.5 -49zM633 858q101 0 164 60t63 161q0 94 -66 153.5t-165 59.5q-100 0 -167 -59t-67 -158q0 -98 69 -157.5t169 -59.5zM629 178q120 0 197 68.5t77 185.5q0 115 -76.5 181.5t-195.5 66.5t-199 -67t-80 -183t80 -184t197 -68z" />
    <glyph glyph-name="uni0039.old" horiz-adv-x="1284" 
d="M598 -215q-213 0 -341 105t-153 292h248q44 -194 256 -194q165 0 236.5 126t77.5 408q-52 -84 -144 -135t-213 -51q-208 0 -340.5 128.5t-132.5 334.5q0 222 144 355.5t389 133.5q121 0 216.5 -33.5t159 -93t104.5 -145.5t59 -185.5t18 -218.5v-61q0 -372 -149 -569
t-435 -197zM625 518q124 0 203 77.5t79 197.5q0 140 -77.5 220.5t-204.5 80.5q-122 0 -197.5 -79t-75.5 -206q0 -131 74.5 -211t198.5 -80z" />
    <glyph glyph-name="uni0024.old" horiz-adv-x="1271" 
d="M567 -268v250q-241 18 -359 139t-134 317h245q7 -53 20 -93t39.5 -77t74 -60.5t114.5 -31.5v451q-230 38 -338 131t-108 276q0 165 123 277t323 125v180h135v-182q195 -19 307.5 -120t131.5 -282h-234q-18 91 -67 143.5t-138 67.5v-409q116 -19 197.5 -48t144 -76.5
t93 -119t30.5 -170.5q0 -178 -125 -300.5t-340 -137.5v-250h-135zM356 1055q0 -82 43.5 -127.5t167.5 -71.5v391q-100 -12 -155.5 -64.5t-55.5 -127.5zM922 395q0 89 -46.5 134.5t-173.5 72.5v-426q99 14 159.5 73t60.5 146z" />
    <glyph glyph-name="uni00A3.old" horiz-adv-x="1243" 
d="M84 604v168h119q-31 124 -31 240q0 193 136.5 309.5t344.5 116.5q218 0 338 -111t131 -305h-245q-19 108 -69.5 158.5t-150.5 50.5q-99 0 -160 -62.5t-61 -167.5q0 -100 25 -229h397v-168h-362q20 -105 20 -203q0 -60 -24 -127q40 -11 99.5 -32t103 -34t75.5 -13
q74 0 115 34.5t45 114.5h231q-8 -162 -99 -262t-249 -100q-62 0 -129.5 18t-115 40t-99 40t-86.5 18q-54 0 -83 -28.5t-34 -69.5h-207q8 96 60.5 177t146.5 108q21 58 21 116q0 84 -35 203h-168z" />
    <glyph glyph-name="uni00A5.old" horiz-adv-x="1200" 
d="M150 569v125h294l-401 727h285l293 -573l282 573h254l-383 -727h299v-125h-330v-135h330v-125h-330v-309h-264v309h-329v125h329v135h-329z" />
    <glyph glyph-name="uni20AC.old" horiz-adv-x="1374" 
d="M55 772v125h140q19 157 89.5 278.5t193.5 193t282 71.5q226 0 361.5 -120.5t158.5 -344.5h-246q-19 126 -90 194t-186 68q-132 0 -209 -90t-96 -250h409l-24 -125h-392v-133h367l-22 -127h-338q19 -156 96 -240t213 -84q249 0 289 289h243q-26 -237 -164.5 -367
t-371.5 -130q-238 0 -385.5 146t-177.5 386h-140v127h133v133h-133z" />
    <glyph glyph-name="uni0030.oldtab" horiz-adv-x="1228" 
d="M614 -20q-238 0 -379 153.5t-141 405.5v192q0 251 143 404t377 153q236 0 378.5 -150t142.5 -401v-194q0 -256 -140 -409.5t-381 -153.5zM618 190q132 0 196.5 90.5t64.5 260.5v192q0 165 -67 257.5t-196 92.5q-131 0 -198.5 -91.5t-67.5 -258.5v-194q0 -167 68.5 -258
t199.5 -91z" />
    <glyph glyph-name="uni0031.oldtab" horiz-adv-x="1228" 
d="M608 0v1010l-395 -277v230l422 305h231v-1268h-258z" />
    <glyph glyph-name="uni0032.oldtab" horiz-adv-x="1228" 
d="M86 0v47l494 465q122 115 178.5 198t56.5 177q0 92 -55.5 146t-155.5 54q-212 0 -248 -274h-233q15 218 144.5 346.5t346.5 128.5q213 0 338 -107t125 -282q0 -53 -16.5 -105t-40.5 -94t-68.5 -94t-83.5 -90t-102 -96l-238 -221h562v-199h-1004z" />
    <glyph glyph-name="uni0033.oldtab" horiz-adv-x="1228" 
d="M602 -215q-247 0 -383.5 129t-144.5 342h237q24 -272 289 -272q137 0 204.5 65.5t67.5 181.5q0 240 -264 240h-106v186h100q120 0 179 59t59 165q0 96 -55 152.5t-164 56.5q-115 0 -185 -65t-82 -181h-231q9 191 145.5 317.5t356.5 126.5q215 0 336.5 -109.5
t121.5 -279.5q0 -237 -225 -321q129 -32 202 -120.5t73 -230.5q0 -202 -144 -322t-387 -120z" />
    <glyph glyph-name="uni0034.oldtab" horiz-adv-x="1228" 
d="M733 -195v299h-676v84l594 1078h330v-977h176v-185h-176v-299h-248zM315 289h420v772z" />
    <glyph glyph-name="uni0035.oldtab" horiz-adv-x="1228" 
d="M604 -215q-237 0 -362 115t-136 313h236q16 -112 74.5 -169.5t185.5 -57.5q121 0 189.5 80t68.5 217q0 129 -69.5 206.5t-186.5 77.5q-195 0 -295 -127h-129l10 828h846v-209h-647l-4 -420q45 52 122 85.5t179 33.5q192 0 311 -128t119 -341q0 -230 -142 -367t-370 -137z
" />
    <glyph glyph-name="uni0036.oldtab" horiz-adv-x="1228" 
d="M639 -20q-136 0 -239 47t-166 133.5t-94 202t-31 258.5v122q0 352 152 547t409 195q189 0 307 -96t141 -285h-235q-19 90 -71.5 135t-149.5 45q-142 0 -221 -134.5t-83 -401.5q51 83 136.5 133.5t201.5 50.5q202 0 323.5 -125.5t121.5 -335.5q0 -222 -136.5 -356.5
t-365.5 -134.5zM639 176q114 0 187 78t73 205q0 132 -72.5 211.5t-189.5 79.5t-193.5 -75.5t-76.5 -197.5q0 -142 76 -221.5t196 -79.5z" />
    <glyph glyph-name="uni0037.oldtab" horiz-adv-x="1228" 
d="M268 -195l514 1250h-667v211h1007v-31l-581 -1430h-273z" />
    <glyph glyph-name="uni0038.oldtab" horiz-adv-x="1228" 
d="M616 -20q-102 0 -194 28t-163 81t-113 136t-42 185q0 135 73 229t196 137q-102 41 -157.5 120t-55.5 191q0 122 64.5 214t167.5 138t226 46q190 0 322.5 -107.5t132.5 -285.5q0 -113 -57.5 -192t-159.5 -122q128 -45 199 -137t71 -223q0 -138 -70.5 -239t-184.5 -150
t-255 -49zM621 858q96 0 154.5 59.5t58.5 161.5q0 94 -62 154.5t-154 60.5q-94 0 -156.5 -59.5t-62.5 -157.5q0 -99 64.5 -159t157.5 -60zM616 178q115 0 186.5 67t71.5 185q0 117 -71.5 183.5t-184.5 66.5q-112 0 -187 -67.5t-75 -184.5q0 -115 74.5 -182.5t185.5 -67.5z
" />
    <glyph glyph-name="uni0039.oldtab" horiz-adv-x="1228" 
d="M573 -217q-207 0 -328 104t-143 295h234q21 -93 78 -145.5t168 -52.5q149 0 217 129t71 401q-48 -82 -131.5 -130t-197.5 -48q-199 0 -325 125.5t-126 335.5q0 220 139.5 355.5t366.5 135.5q136 0 238 -46t164 -131.5t92 -199.5t30 -258v-133q0 -359 -137.5 -548
t-409.5 -189zM598 518q116 0 191 76.5t75 198.5q0 142 -74.5 221.5t-193.5 79.5q-114 0 -188 -79t-74 -206q0 -131 73.5 -211t190.5 -80z" />
    <glyph glyph-name="uni0024.oldtab" horiz-adv-x="1228" 
d="M551 -268v252q-122 9 -213.5 47t-148 99.5t-86.5 137.5t-37 170h239q7 -53 20 -93t39.5 -77t73 -60.5t113.5 -31.5v451q-225 38 -331.5 131t-106.5 276q0 165 120.5 277t317.5 125v180h133v-182q192 -17 303.5 -119t130.5 -283h-229q-19 93 -67.5 144.5t-137.5 66.5v-409
q91 -15 160 -35.5t127.5 -53.5t95.5 -77t57.5 -106.5t20.5 -141.5q0 -178 -124.5 -300.5t-336.5 -137.5v-250h-133zM342 1055q0 -82 43 -127.5t166 -71.5v389q-98 -10 -153.5 -62.5t-55.5 -127.5zM903 395q0 88 -46.5 134t-172.5 73v-426q100 14 159.5 73t59.5 146z" />
    <glyph glyph-name="uni00A3.oldtab" horiz-adv-x="1228" 
d="M92 604v170h113q-31 124 -31 236q0 129 64.5 228t171.5 149.5t239 50.5q210 0 327.5 -109t129.5 -305h-244q-18 110 -64.5 158.5t-144.5 48.5t-155.5 -61t-57.5 -169q0 -89 23 -227h379v-170h-346q18 -113 18 -203q0 -67 -22 -125q37 -11 95 -33.5t99 -35t72 -12.5
q73 0 113 34.5t44 114.5h228q-8 -164 -99 -263t-243 -99q-60 0 -124.5 18t-109.5 40t-94 40t-82 18q-100 0 -112 -98h-211q8 90 59.5 169.5t138.5 111.5q21 58 21 120q0 67 -35 203h-160z" />
    <glyph glyph-name="uni00A5.oldtab" horiz-adv-x="1228" 
d="M178 580v125h297l-383 716h275l270 -555l258 555h242l-363 -716h303v-125h-323v-136h323v-125h-323v-319h-258v319h-318v125h318v136h-318z" />
    <glyph glyph-name="uni20AC.oldtab" horiz-adv-x="1228" 
d="M63 774v125h111q13 253 147 397t355 144q199 0 315.5 -113.5t136.5 -335.5h-229q-15 126 -69 188t-154 62q-245 0 -260 -342h381l-23 -125h-358v-135h332l-23 -125h-309q9 -170 73 -251t191 -81q107 0 165 66.5t77 206.5h223q-17 -232 -139.5 -353.5t-329.5 -121.5
q-223 0 -356 139t-146 395h-111v125h111v135h-111z" />
    <glyph glyph-name="uni0030.sub" horiz-adv-x="774" 
d="M385 -215q-155 0 -242.5 97t-87.5 265v23q0 168 91.5 266.5t240.5 98.5t240.5 -95t91.5 -264v-22q0 -170 -89 -269.5t-245 -99.5zM389 -68q139 0 139 220v22q0 215 -141 215q-139 0 -139 -217v-22q0 -218 141 -218z" />
    <glyph glyph-name="uni0031.sub" horiz-adv-x="520" 
d="M213 -205v543l-168 -105v160l193 129h168v-727h-193z" />
    <glyph glyph-name="uni0032.sub" horiz-adv-x="641" 
d="M14 -203v27l262 276q121 124 121 203q0 41 -22 64.5t-64 23.5q-92 0 -106 -125h-174q6 128 82 198.5t206 70.5q127 0 196 -61.5t69 -162.5q0 -69 -36.5 -129.5t-107.5 -128.5l-118 -116h268v-140h-576z" />
    <glyph glyph-name="uni0033.sub" horiz-adv-x="688" 
d="M340 -215q-146 0 -221 66.5t-78 179.5h170q5 -51 34 -81t85 -30q54 0 82 25.5t28 70.5q0 93 -110 93h-58v118h56q106 0 106 88q0 38 -23.5 60t-68.5 22q-46 0 -75.5 -26t-35.5 -72h-170q8 105 83 170.5t202 65.5q125 0 196.5 -55t71.5 -144q0 -117 -125 -158
q65 -12 104.5 -56.5t39.5 -111.5q0 -104 -77.5 -164.5t-215.5 -60.5z" />
    <glyph glyph-name="uni0034.sub" horiz-adv-x="712" 
d="M395 -203v142h-364v69l315 516h232v-454h94v-131h-94v-142h-183zM213 70h186v321z" />
    <glyph glyph-name="uni0035.sub" horiz-adv-x="671" 
d="M326 -215q-137 0 -208.5 63t-76.5 168h176q7 -44 30 -67t75 -23q49 0 75.5 31.5t26.5 85.5q0 53 -28 83t-77 30q-78 0 -120 -56h-127l14 424h487v-139h-350l-4 -178q60 76 172 76q101 0 163 -63.5t62 -174.5q0 -121 -78.5 -190.5t-211.5 -69.5z" />
    <glyph glyph-name="uni0036.sub" horiz-adv-x="714" 
d="M371 -215q-164 0 -240 94t-76 258v19q0 178 91 278.5t239 100.5q116 0 184 -53.5t78 -155.5h-174q-13 69 -88 69q-65 0 -100.5 -55.5t-38.5 -157.5q57 88 176 88q105 0 173.5 -61t68.5 -170q0 -115 -79 -184.5t-214 -69.5zM369 -84q49 0 79.5 33t30.5 86t-29.5 85
t-80.5 32t-82 -31.5t-31 -81.5q0 -57 31 -90t82 -33z" />
    <glyph glyph-name="uni0037.sub" horiz-adv-x="610" 
d="M133 -203l217 576h-313v151h553v-20l-264 -707h-193z" />
    <glyph glyph-name="uni0038.sub" horiz-adv-x="696" 
d="M348 -215q-136 0 -217.5 56t-81.5 159q0 66 35 113t98 69q-104 45 -104 150q0 93 78.5 148t193.5 55q116 0 192 -54t76 -147q0 -107 -106 -150q135 -48 135 -178q0 -104 -82 -162.5t-217 -58.5zM350 231q40 0 67 24.5t27 63.5t-27.5 63t-66.5 24q-41 0 -68.5 -24.5
t-27.5 -64.5q0 -39 28 -62.5t68 -23.5zM348 -82q49 0 80 27.5t31 77.5q0 45 -31.5 72.5t-79.5 27.5q-47 0 -78.5 -27.5t-31.5 -75.5t31 -75t79 -27z" />
    <glyph glyph-name="uni0039.sub" horiz-adv-x="714" 
d="M338 -215q-122 0 -194.5 55.5t-84.5 157.5h177q17 -74 100 -74q130 0 133 209q-57 -84 -170 -84q-110 0 -179 61t-69 171q0 116 79 185t214 69q156 0 235.5 -94t79.5 -257v-28q0 -178 -82.5 -274.5t-238.5 -96.5zM344 168q50 0 81.5 31.5t31.5 79.5q0 57 -31 90.5
t-82 33.5q-49 0 -78.5 -32.5t-29.5 -85.5t29 -85t79 -32z" />
    <glyph glyph-name="uni002B.sub" horiz-adv-x="708" 
d="M283 -119v211h-203v139h203v213h143v-213h205v-139h-205v-211h-143z" />
    <glyph glyph-name="uni2212.sub" horiz-adv-x="708" 
d="M80 92v139h551v-139h-551z" />
    <glyph glyph-name="uni0030.sup" horiz-adv-x="774" 
d="M385 844q-155 0 -242.5 97t-87.5 265v23q0 168 91 266t241 98q149 0 240.5 -95t91.5 -263v-23q0 -170 -89 -269t-245 -99zM389 991q139 0 139 219v23q0 215 -141 215q-139 0 -139 -217v-23q0 -217 141 -217z" />
    <glyph glyph-name="uni0031.sup" horiz-adv-x="520" 
d="M213 856v543l-168 -105v160l193 129h168v-727h-193z" />
    <glyph glyph-name="uni0032.sup" horiz-adv-x="641" 
d="M14 856v27l262 276q121 124 121 203q0 41 -22 64.5t-64 23.5q-92 0 -106 -125h-174q6 128 82 198t206 70q127 0 196 -61t69 -162q0 -69 -36.5 -129.5t-107.5 -128.5l-118 -117h268v-139h-576z" />
    <glyph glyph-name="uni0033.sup" horiz-adv-x="688" 
d="M340 844q-146 0 -221 66.5t-78 179.5h170q5 -51 34 -81t85 -30q54 0 82 25.5t28 70.5q0 92 -110 92h-58v119h56q106 0 106 88q0 38 -23.5 60t-68.5 22q-46 0 -75.5 -26t-35.5 -72h-170q8 105 83 170t202 65q125 0 196.5 -54.5t71.5 -143.5q0 -117 -125 -158
q65 -12 104.5 -56.5t39.5 -111.5q0 -104 -77.5 -164.5t-215.5 -60.5z" />
    <glyph glyph-name="uni0034.sup" horiz-adv-x="712" 
d="M395 856v141h-364v70l315 516h232v-455h94v-131h-94v-141h-183zM213 1128h186v322z" />
    <glyph glyph-name="uni0035.sup" horiz-adv-x="671" 
d="M326 844q-137 0 -208.5 63t-76.5 168h176q7 -44 30 -67t75 -23q49 0 75.5 31.5t26.5 85.5q0 53 -28 82.5t-77 29.5q-78 0 -120 -55h-127l14 424h487v-139h-350l-4 -178q60 75 172 75q101 0 163 -63t62 -174q0 -121 -78.5 -190.5t-211.5 -69.5z" />
    <glyph glyph-name="uni0036.sup" horiz-adv-x="714" 
d="M371 844q-164 0 -240 94t-76 258v18q0 178 91 278.5t239 100.5q116 0 184 -53.5t78 -155.5h-174q-14 70 -88 70q-65 0 -100.5 -55.5t-38.5 -157.5q57 88 176 88q105 0 173.5 -61t68.5 -170q0 -115 -79 -184.5t-214 -69.5zM369 975q49 0 79.5 33t30.5 86t-29.5 84.5
t-80.5 31.5t-82 -31t-31 -81q0 -57 31 -90t82 -33z" />
    <glyph glyph-name="uni0037.sup" horiz-adv-x="610" 
d="M133 856l217 576h-313v151h553v-20l-264 -707h-193z" />
    <glyph glyph-name="uni0038.sup" horiz-adv-x="696" 
d="M348 844q-136 0 -217.5 56t-81.5 159q0 66 35 113t98 69q-104 45 -104 150q0 93 78.5 147.5t193.5 54.5q116 0 192 -53.5t76 -146.5q0 -107 -106 -150q135 -48 135 -178q0 -104 -82 -162.5t-217 -58.5zM350 1290q40 0 67 24.5t27 63.5t-27 62.5t-67 23.5q-41 0 -68.5 -24
t-27.5 -64q0 -39 28 -62.5t68 -23.5zM348 977q49 0 80 27.5t31 76.5q0 45 -31.5 73t-79.5 28q-47 0 -78.5 -27.5t-31.5 -75.5t31 -75t79 -27z" />
    <glyph glyph-name="uni0039.sup" horiz-adv-x="714" 
d="M338 844q-122 0 -194.5 55.5t-84.5 157.5h177q17 -74 100 -74q130 0 133 209q-57 -84 -170 -84q-110 0 -179 60.5t-69 170.5q0 116 79 185t214 69q156 0 235.5 -93.5t79.5 -256.5v-29q0 -178 -82.5 -274t-238.5 -96zM344 1227q50 0 81.5 31t31.5 79q0 57 -31 91t-82 34
q-49 0 -78.5 -33t-29.5 -86t29 -84.5t79 -31.5z" />
    <glyph glyph-name="uni002B.sup" horiz-adv-x="708" 
d="M283 942v209h-203v141h203v211h143v-211h205v-141h-205v-209h-143z" />
    <glyph glyph-name="uni2212.sup" horiz-adv-x="708" 
d="M80 1151v141h551v-141h-551z" />
    <glyph glyph-name="uni0066.short" horiz-adv-x="714" 
d="M190 0v885h-145v186h145v143q0 176 93 269.5t264 93.5q77 0 135 -18v-193q-39 16 -104 16q-71 0 -105.5 -42.5t-34.5 -114.5v-154h244v-186h-244v-885h-248z" />
    <glyph glyph-name="uni0E0E.short" horiz-adv-x="1353" 
d="M418 -381h-242v37q0 153 101.5 238.5t279.5 85.5q135 0 245.5 -49t168.5 -119v925q0 141 -71 220t-218 79q-138 0 -214.5 -65t-76.5 -160v-16h213v-146q-84 -14 -112.5 -65.5t-28.5 -153.5v-147q0 -72 -19.5 -124.5t-53 -84.5t-85.5 -51t-110 -25.5t-134 -5.5v194
q83 5 116.5 31.5t33.5 97.5v109q0 110 29.5 171t99.5 87h-205v90q0 211 142 338t409 127q269 0 405 -132t136 -370v-1116h-250q-46 77 -134.5 130.5t-203.5 53.5q-116 0 -168.5 -54t-52.5 -130z" />
    <glyph glyph-name="uni0E0F.short" horiz-adv-x="1353" 
d="M207 -379h-25v213h23q165 0 217 129h45l129 -151l129 151h33l137 -153q42 10 59 40t17 87v800q0 141 -71 220t-218 79q-138 0 -214.5 -65t-76.5 -160v-16h213v-146q-84 -14 -112.5 -65.5t-28.5 -153.5v-147q0 -72 -19.5 -124.5t-53 -84.5t-85.5 -51t-110 -25.5t-134 -5.5
v194q83 5 116.5 31.5t33.5 97.5v109q0 110 29.5 171t99.5 87h-205v90q0 211 142 338t409 127q269 0 405 -132t136 -370v-774q0 -340 -285 -340h-53l-131 150l-131 -150h-45l-121 141q-80 -141 -254 -141z" />
    <glyph glyph-name="uni0E24.short" horiz-adv-x="1316" 
d="M1194 -381h-260v1118q0 140 -71 219.5t-218 79.5q-136 0 -212.5 -65t-76.5 -160v-16h215v-146q-190 -30 -190 -213v-80q0 -174 160 -174q49 0 86 13v-187q-67 -24 -156 -24q-165 0 -256.5 85t-91.5 265v65q0 225 182 283h-205v90q0 211 142 338t409 127
q268 0 405.5 -132.5t137.5 -369.5v-1116z" />
    <glyph glyph-name="uni0E26.short" horiz-adv-x="1323" 
d="M1198 -381h-260v1118q0 141 -70.5 220t-218.5 79q-136 0 -211.5 -65t-75.5 -160v-16h213v-146q-79 -14 -108 -66t-29 -153v-147q0 -89 -29 -148.5t-86.5 -90.5t-126.5 -42.5t-165 -9.5v194q83 5 116 31.5t33 97.5v109q0 110 29.5 171t99.5 87h-205v90q0 211 142.5 338
t408.5 127q269 0 406 -132.5t137 -369.5v-1116z" />
    <glyph glyph-name="uni0E2C.short" horiz-adv-x="1576" 
d="M524 0h-250l-178 1217h250l113 -922l237 625h178l269 -625l71 448q22 140 -14 199t-151 59h-138v177h199q125 0 169.5 25t61.5 102h228q-22 -114 -74.5 -174t-146.5 -80q142 -74 92 -330l-140 -721h-237l-281 655z" />
    <glyph glyph-name="uniFB00.short" horiz-adv-x="1339" 
d="M190 0v885h-145v186h145v129q0 177 93 270t266 93q73 0 141 -21v-192q-58 20 -110 20q-72 0 -107 -42.5t-35 -115.5v-141h377v143q0 176 92.5 269.5t263.5 93.5q77 0 136 -18v-193q-41 16 -105 16q-139 0 -139 -157v-154h244v-186h-244v-885h-248v885h-377v-885h-248z
" />
    <glyph glyph-name="space_uni0326.alt" horiz-adv-x="819" 
d="M508 1204l-227 45l188 346l143 -53z" />
    <glyph glyph-name="uni0061.alt" horiz-adv-x="1275" 
d="M541 -20q-95 0 -178 35.5t-147 102t-101 170t-37 230.5v17q0 125 37.5 231t102 177t150.5 111t183 40q224 0 330 -185v162h247v-1071h-247v176q-47 -82 -140.5 -139t-199.5 -57zM600 176q127 0 208 91t81 263v17q0 174 -74 263t-203 89t-204.5 -93.5t-75.5 -264.5v-17
q0 -170 74.5 -259t193.5 -89z" />
    <glyph glyph-name="uni00E0.alt" horiz-adv-x="1275" 
d="M553 1231l-213 317h274l121 -317h-182zM541 -20q-95 0 -178 35.5t-147 102t-101 170t-37 230.5v17q0 125 37.5 231t102 177t150.5 111t183 40q224 0 330 -185v162h247v-1071h-247v176q-47 -82 -140.5 -139t-199.5 -57zM600 176q127 0 208 91t81 263v17q0 174 -74 263
t-203 89t-204.5 -93.5t-75.5 -264.5v-17q0 -170 74.5 -259t193.5 -89z" />
    <glyph glyph-name="uni00E1.alt" horiz-adv-x="1275" 
d="M526 1231l121 317h275l-213 -317h-183zM541 -20q-95 0 -178 35.5t-147 102t-101 170t-37 230.5v17q0 125 37.5 231t102 177t150.5 111t183 40q224 0 330 -185v162h247v-1071h-247v176q-47 -82 -140.5 -139t-199.5 -57zM600 176q127 0 208 91t81 263v17q0 174 -74 263
t-203 89t-204.5 -93.5t-75.5 -264.5v-17q0 -170 74.5 -259t193.5 -89z" />
    <glyph glyph-name="uni00E2.alt" horiz-adv-x="1275" 
d="M301 1233l234 309h196l227 -309h-176l-153 139l-156 -139h-172zM541 -20q-95 0 -178 35.5t-147 102t-101 170t-37 230.5v17q0 125 37.5 231t102 177t150.5 111t183 40q224 0 330 -185v162h247v-1071h-247v176q-47 -82 -140.5 -139t-199.5 -57zM600 176q127 0 208 91
t81 263v17q0 174 -74 263t-203 89t-204.5 -93.5t-75.5 -264.5v-17q0 -170 74.5 -259t193.5 -89z" />
    <glyph glyph-name="uni00E3.alt" horiz-adv-x="1275" 
d="M748 1241q-42 0 -86.5 20.5t-81.5 41t-60 20.5q-27 0 -48.5 -23t-27.5 -59h-153q12 127 71.5 197.5t147.5 70.5q51 0 126 -39.5t103 -39.5t48 22t26 59h154q-12 -126 -72 -198t-147 -72zM541 -20q-95 0 -178 35.5t-147 102t-101 170t-37 230.5v17q0 125 37.5 231t102 177
t150.5 111t183 40q224 0 330 -185v162h247v-1071h-247v176q-47 -82 -140.5 -139t-199.5 -57zM600 176q127 0 208 91t81 263v17q0 174 -74 263t-203 89t-204.5 -93.5t-75.5 -264.5v-17q0 -170 74.5 -259t193.5 -89z" />
    <glyph glyph-name="uni00E4.alt" horiz-adv-x="1275" 
d="M432 1255q-56 0 -95.5 39.5t-39.5 94.5q0 54 40 93.5t95 39.5t95 -39.5t40 -93.5q0 -55 -39.5 -94.5t-95.5 -39.5zM838 1255q-57 0 -96.5 39t-39.5 95q0 54 39.5 93.5t96.5 39.5q55 0 95 -39.5t40 -93.5q0 -55 -39.5 -94.5t-95.5 -39.5zM541 -20q-95 0 -178 35.5
t-147 102t-101 170t-37 230.5v17q0 125 37.5 231t102 177t150.5 111t183 40q224 0 330 -185v162h247v-1071h-247v176q-47 -82 -140.5 -139t-199.5 -57zM600 176q127 0 208 91t81 263v17q0 174 -74 263t-203 89t-204.5 -93.5t-75.5 -264.5v-17q0 -170 74.5 -259t193.5 -89z
" />
    <glyph glyph-name="uni00E5.alt" horiz-adv-x="1275" 
d="M623 1208q-94 0 -161 65.5t-67 156.5t67 156t161 65t160.5 -65t66.5 -156t-66.5 -156.5t-160.5 -65.5zM623 1317q44 0 73 32.5t29 80.5q0 49 -29 80.5t-73 31.5q-45 0 -74 -31.5t-29 -80.5q0 -48 29.5 -80.5t73.5 -32.5zM541 -20q-95 0 -178 35.5t-147 102t-101 170
t-37 230.5v17q0 125 37.5 231t102 177t150.5 111t183 40q224 0 330 -185v162h247v-1071h-247v176q-47 -82 -140.5 -139t-199.5 -57zM600 176q127 0 208 91t81 263v17q0 174 -74 263t-203 89t-204.5 -93.5t-75.5 -264.5v-17q0 -170 74.5 -259t193.5 -89z" />
    <glyph glyph-name="uni0101.alt" horiz-adv-x="1275" 
d="M344 1298v160h574v-160h-574zM541 -20q-95 0 -178 35.5t-147 102t-101 170t-37 230.5v17q0 125 37.5 231t102 177t150.5 111t183 40q224 0 330 -185v162h247v-1071h-247v176q-47 -82 -140.5 -139t-199.5 -57zM600 176q127 0 208 91t81 263v17q0 174 -74 263t-203 89
t-204.5 -93.5t-75.5 -264.5v-17q0 -170 74.5 -259t193.5 -89z" />
    <glyph glyph-name="uni0103.alt" horiz-adv-x="1275" 
d="M629 1241q-126 0 -208 80.5t-89 212.5h172q16 -119 125 -119q110 0 133 119h168q-7 -131 -92 -212t-209 -81zM541 -20q-95 0 -178 35.5t-147 102t-101 170t-37 230.5v17q0 125 37.5 231t102 177t150.5 111t183 40q224 0 330 -185v162h247v-1071h-247v176
q-47 -82 -140.5 -139t-199.5 -57zM600 176q127 0 208 91t81 263v17q0 174 -74 263t-203 89t-204.5 -93.5t-75.5 -264.5v-17q0 -170 74.5 -259t193.5 -89z" />
    <glyph glyph-name="uni0105.alt" horiz-adv-x="1275" 
d="M995 -373q-102 0 -162.5 44.5t-60.5 121.5q0 65 46.5 118.5t119.5 88.5h-57v176q-47 -82 -140.5 -139t-199.5 -57q-95 0 -178 35.5t-147 102t-101 170t-37 230.5v17q0 125 37.5 231t102 177t150.5 111t183 40q224 0 330 -185v162h247v-1055q-141 -93 -141 -174
q0 -67 72 -67q51 0 88 18v-137q-63 -29 -152 -29zM600 176q127 0 208 91t81 263v17q0 174 -74 263t-203 89t-204.5 -93.5t-75.5 -264.5v-17q0 -170 74.5 -259t193.5 -89z" />
    <glyph glyph-name="uni01FB.alt" horiz-adv-x="1275" 
d="M541 1696l110 276h279l-203 -276h-186zM623 1180q-94 0 -161 65t-67 156t67 156t161 65t160.5 -65t66.5 -156t-66.5 -156t-160.5 -65zM623 1288q44 0 73 32.5t29 80.5q0 49 -29 80.5t-73 31.5q-45 0 -74 -31.5t-29 -80.5q0 -48 29.5 -80.5t73.5 -32.5zM541 -20
q-95 0 -178 35.5t-147 102t-101 170t-37 230.5v17q0 125 37.5 231t102 177t150.5 111t183 40q224 0 330 -185v162h247v-1071h-247v176q-47 -82 -140.5 -139t-199.5 -57zM600 176q127 0 208 91t81 263v17q0 174 -74 263t-203 89t-204.5 -93.5t-75.5 -264.5v-17
q0 -170 74.5 -259t193.5 -89z" />
    <glyph glyph-name="uni0074.alt" horiz-adv-x="724" 
d="M205 0v885h-160v186h160v236h248v-236h219v-186h-219v-885h-248z" />
    <glyph glyph-name="uni0163.alt" horiz-adv-x="724" 
d="M205 0v885h-160v186h160v236h248v-236h219v-186h-219v-885h-248zM274 -461l-145 55l107 338l227 -45z" />
    <glyph glyph-name="uni0165.alt" horiz-adv-x="724" 
d="M565 1208l21 359h225l-100 -359h-146zM205 0v885h-160v186h160v236h248v-236h219v-186h-219v-885h-248z" />
    <glyph glyph-name="uni00DF.alt" horiz-adv-x="1320" 
d="M883 -18q-172 0 -273 86t-106 235h223q5 -66 42 -103.5t105 -37.5q140 0 140 143q0 22 -5.5 41.5t-21.5 37.5t-28 30t-40.5 29.5t-43.5 26t-52 28.5q-44 23 -72.5 40t-65.5 45t-58 55.5t-36.5 66.5t-15.5 83q0 54 28 105.5t67.5 92t79.5 78.5t68 80.5t28 84.5
q0 77 -50 117t-147 40q-121 0 -187.5 -70t-66.5 -204v-1112h-248v1106q0 216 141 344.5t363 128.5q192 0 314 -87t122 -239q0 -56 -20.5 -106.5t-51.5 -85t-67 -68.5t-67 -59.5t-51.5 -55.5t-20.5 -59q0 -11 3.5 -20t13 -19t19 -18t30 -20.5t37.5 -22.5t48.5 -28.5
t57.5 -33.5q40 -24 71.5 -46.5t64.5 -54t54.5 -64.5t35 -76.5t13.5 -91.5q0 -163 -102.5 -252.5t-271.5 -89.5z" />
    <glyph glyph-name="uni0167.alt" horiz-adv-x="724" 
d="M45 535v153h160v197h-160v186h160v236h248v-236h219v-186h-219v-197h219v-153h-219v-535h-248v535h-160z" />
    <glyph glyph-name="uni02C7.alt" horiz-adv-x="819" 
d="M348 1208l21 359h225l-100 -359h-146z" />
    <glyph glyph-name="uni00AE.alt" horiz-adv-x="1726" 
d="M862 -27q-209 0 -384.5 99t-277.5 273.5t-102 385.5q0 156 60 297t162.5 242.5t245 161t300.5 59.5q160 0 302 -59t243 -160t160 -241t59 -296q0 -159 -60 -301t-163 -242.5t-245 -159.5t-300 -59zM862 66q131 0 251 49.5t210 135.5t143.5 212.5t53.5 271.5
q0 143 -52 268t-140.5 211t-208.5 135.5t-253 49.5q-181 0 -331 -84t-238 -238t-88 -346q0 -145 53 -270.5t142.5 -211.5t208.5 -134.5t249 -48.5zM567 330v817h299q151 0 234.5 -62.5t83.5 -187.5v-4q0 -165 -164 -217l211 -346h-203l-188 311h-80v-311h-193zM760 772h98
q133 0 133 113v6q0 57 -33 81.5t-98 24.5h-100v-225z" />
    <glyph glyph-name="uni0020.tab" horiz-adv-x="614" 
 />
    <glyph glyph-name="uni0030.tab" horiz-adv-x="1228" 
d="M616 -20q-244 0 -385 156.5t-141 451.5v278q0 299 142 458t384 159q244 0 383.5 -154t139.5 -448v-287q0 -298 -137 -456t-386 -158zM623 195q138 0 196 91.5t58 305.5v287q0 200 -63 296.5t-196 96.5q-137 0 -201.5 -97t-64.5 -307v-278q0 -210 67 -302.5t204 -92.5z
" />
    <glyph glyph-name="uni0031.tab" horiz-adv-x="1228" 
d="M594 0v1192l-393 -297v238l407 331h258v-1464h-272z" />
    <glyph glyph-name="uni0032.tab" horiz-adv-x="1228" 
d="M72 0v49l530 584q111 127 165 225.5t54 198.5q0 102 -55 159.5t-154 57.5q-108 0 -169 -69.5t-76 -223.5h-252q14 236 141.5 369t361.5 133q225 0 350.5 -113t125.5 -307q0 -134 -76 -263t-219 -274l-314 -311h613v-215h-1026z" />
    <glyph glyph-name="uni0033.tab" horiz-adv-x="1228" 
d="M602 -20q-247 0 -384.5 127.5t-145.5 345.5h243q21 -267 281 -267q135 0 200.5 62.5t65.5 173.5q0 240 -256 240h-112v194h106q120 0 180 55t60 158q0 93 -55.5 150t-161.5 57q-114 0 -184 -64.5t-81 -177.5h-235q8 197 144 323t358 126q217 0 342 -110.5t125 -280.5
q0 -119 -63 -199.5t-173 -120.5q129 -32 203 -121.5t74 -230.5q0 -204 -143 -322t-388 -118z" />
    <glyph glyph-name="uni0034.tab" horiz-adv-x="1228" 
d="M741 0v297h-675v90l600 1077h327v-970h162v-197h-162v-297h-252zM332 494h413v757z" />
    <glyph glyph-name="uni0035.tab" horiz-adv-x="1228" 
d="M594 -20q-243 0 -368.5 116.5t-137.5 325.5h244q16 -114 73 -171.5t187 -57.5q122 0 190 80t68 219q0 130 -70 207t-190 77q-191 0 -295 -129h-135l10 817h864v-215h-659l-4 -399q47 54 124.5 88.5t180.5 34.5q199 0 319.5 -130t120.5 -351q0 -235 -144 -373.5
t-378 -138.5z" />
    <glyph glyph-name="uni0036.tab" horiz-adv-x="1228" 
d="M635 -20q-118 0 -210.5 32.5t-155.5 90.5t-104 142t-59 182.5t-18 215.5v74q0 367 160.5 566.5t425.5 199.5q194 0 312.5 -96.5t139.5 -288.5h-241q-20 91 -70 135.5t-149 44.5q-146 0 -232 -131t-90 -383q50 84 139.5 135t208.5 51q204 0 331.5 -129.5t127.5 -341.5
q0 -227 -139 -363t-377 -136zM631 184q120 0 194 79t74 208q0 132 -73.5 210.5t-196.5 78.5q-122 0 -199.5 -75.5t-77.5 -197.5q0 -143 77 -223t202 -80z" />
    <glyph glyph-name="uni0037.tab" horiz-adv-x="1228" 
d="M295 0l493 1247h-669v217h1011v-32l-559 -1432h-276z" />
    <glyph glyph-name="uni0038.tab" horiz-adv-x="1228" 
d="M616 -20q-106 0 -200.5 28t-168 81t-116.5 137.5t-43 189.5q0 134 71 229t193 141q-98 40 -153.5 119t-55.5 185q0 120 68 211.5t174.5 136.5t230.5 45q127 0 233.5 -46t172 -136t65.5 -207q0 -107 -55.5 -184.5t-154.5 -121.5q126 -46 196 -140t70 -226
q0 -105 -42 -190.5t-114.5 -139.5t-167.5 -83t-203 -29zM623 866q98 0 159.5 57t61.5 154q0 93 -65 151t-163 58q-96 0 -160.5 -57t-64.5 -152q0 -97 66.5 -154t165.5 -57zM616 188q118 0 193.5 66t75.5 184q0 117 -74.5 182.5t-189.5 65.5q-116 0 -194.5 -66t-78.5 -184
q0 -116 77.5 -182t190.5 -66z" />
    <glyph glyph-name="uni0039.tab" horiz-adv-x="1228" 
d="M575 -18q-215 0 -339.5 103t-147.5 298h242q20 -96 77.5 -146.5t167.5 -50.5q308 0 314 512q-49 -85 -139.5 -134.5t-210.5 -49.5q-203 0 -332 128t-129 343q0 226 139.5 363t376.5 137q269 0 408 -169t139 -487v-114q0 -352 -148 -542.5t-418 -190.5zM600 707
q123 0 200 73t77 193q0 145 -77.5 227t-201.5 82q-120 0 -194 -78.5t-74 -208.5q0 -132 73.5 -210t196.5 -78z" />
    <glyph glyph-name="uni0028.tab" horiz-adv-x="614" 
d="M377 -303q-285 422 -285 944t285 944h205q-254 -429 -254 -944t254 -944h-205z" />
    <glyph glyph-name="uni0029.tab" horiz-adv-x="614" 
d="M33 -303q254 429 254 944t-254 944h205q284 -421 284 -944t-284 -944h-205z" />
    <glyph glyph-name="uni005B.tab" horiz-adv-x="614" 
d="M123 -303v1892h434v-176h-201v-1540h201v-176h-434z" />
    <glyph glyph-name="uni005D.tab" horiz-adv-x="614" 
d="M57 -303v176h201v1540h-201v176h435v-1892h-435z" />
    <glyph glyph-name="uni007B.tab" horiz-adv-x="614" 
d="M557 -301q-238 0 -335 106.5t-52 339.5l39 201q16 89 -19 142t-145 75v168q110 21 145 73.5t19 141.5l-39 201q-46 236 51 341t336 105v-172q-114 -3 -152 -58.5t-14 -201.5l37 -221q19 -112 -31.5 -180t-169.5 -113q119 -43 170 -111.5t31 -179.5l-37 -223
q-24 -146 14.5 -202.5t151.5 -59.5v-172z" />
    <glyph glyph-name="uni007D.tab" horiz-adv-x="614" 
d="M57 -301v172q113 3 151.5 59.5t14.5 202.5l-37 223q-20 111 31 179.5t170 111.5q-119 45 -169.5 113t-31.5 180l37 221q24 146 -14 201.5t-152 58.5v172q239 0 336 -105t51 -341l-38 -201q-16 -89 18.5 -141.5t144.5 -73.5v-168q-110 -22 -144.5 -75t-18.5 -142l38 -201
q45 -233 -52 -339.5t-335 -106.5z" />
    <glyph glyph-name="uni0025.tab" horiz-adv-x="1638" 
d="M426 784q-147 0 -247.5 99t-100.5 247q0 149 102 249t246 100q146 0 247 -98t101 -246q0 -151 -100.5 -251t-247.5 -100zM268 0l932 1464h172l-932 -1464h-172zM426 944q72 0 113 50t41 139q0 87 -41 137.5t-113 50.5q-70 0 -111 -50t-41 -138q0 -91 41 -140t111 -49z
M1212 -20q-147 0 -247.5 99t-100.5 247q0 149 102 248.5t246 99.5q147 0 248 -97t101 -245q0 -151 -101 -251.5t-248 -100.5zM1212 141q71 0 111.5 49t40.5 138q0 88 -40.5 138t-111.5 50q-70 0 -111.5 -49.5t-41.5 -138.5q0 -90 41 -138.5t112 -48.5z" />
    <glyph glyph-name="uni2030.tab" horiz-adv-x="2048" 
d="M365 803q-125 0 -208 91.5t-83 244.5q0 155 84.5 247.5t208.5 92.5t207 -90t83 -244q0 -156 -83 -249t-209 -93zM152 0l931 1464h170l-931 -1464h-170zM367 956q106 0 106 185q0 186 -106 186q-109 0 -109 -186q0 -185 109 -185zM1030 -20q-126 0 -208.5 92t-82.5 245
q0 155 84 246.5t207 91.5q126 0 209.5 -89t83.5 -244q0 -156 -83.5 -249t-209.5 -93zM1681 -20q-126 0 -208 91.5t-82 245.5q0 155 84 246.5t208 91.5q125 0 208 -89t83 -244q0 -156 -83.5 -249t-209.5 -93zM1030 133q109 0 109 186q0 185 -109 185q-106 0 -106 -185
q0 -186 106 -186zM1683 133q107 0 107 186q0 90 -27.5 137.5t-79.5 47.5q-108 0 -108 -185q0 -186 108 -186z" />
    <glyph glyph-name="uni002E.tab" horiz-adv-x="614" 
d="M305 -14q-68 0 -115 46t-47 113t47.5 114.5t114.5 47.5q69 0 117.5 -47.5t48.5 -114.5t-48.5 -113t-117.5 -46z" />
    <glyph glyph-name="uni002C.tab" horiz-adv-x="614" 
d="M217 -252l-154 68l187 485l235 -94z" />
    <glyph glyph-name="uni003A.tab" horiz-adv-x="614" 
d="M305 584q-68 0 -115 47t-47 114t47 113.5t115 46.5q69 0 117.5 -46.5t48.5 -113.5t-48.5 -114t-117.5 -47zM305 -14q-68 0 -115 46t-47 113t47.5 114.5t114.5 47.5q69 0 117.5 -47.5t48.5 -114.5t-48.5 -113t-117.5 -46z" />
    <glyph glyph-name="uni003B.tab" horiz-adv-x="614" 
d="M319 584q-67 0 -114 47t-47 114t46.5 113.5t114.5 46.5q69 0 116.5 -46.5t47.5 -113.5q0 -68 -47.5 -114.5t-116.5 -46.5zM178 -252l-151 68l186 485l233 -94z" />
    <glyph glyph-name="uni002B.tab" horiz-adv-x="1228" 
d="M512 203v399h-369v193h369v399h207v-399h368v-193h-368v-399h-207z" />
    <glyph glyph-name="uni2212.tab" horiz-adv-x="1228" 
d="M141 600v197h946v-197h-946z" />
    <glyph glyph-name="uni00B1.tab" horiz-adv-x="1228" 
d="M512 322v358h-375v192h375v361h207v-361h373v-192h-373v-358h-207zM137 0v182h957v-182h-957z" />
    <glyph glyph-name="uni00F7.tab" horiz-adv-x="1228" 
d="M614 944q-65 0 -110 45t-45 109q0 66 45 110.5t110 44.5t110.5 -44.5t45.5 -110.5q0 -64 -45.5 -109t-110.5 -45zM137 606v187h957v-187h-957zM614 145q-65 0 -110 45t-45 109t45 109t110 45t110.5 -45t45.5 -109t-45.5 -109t-110.5 -45z" />
    <glyph glyph-name="uni00D7.tab" horiz-adv-x="1228" 
d="M301 236l-135 135l315 313l-317 315l135 138l315 -318l314 316l137 -136l-315 -315l317 -315l-137 -136l-316 318z" />
    <glyph glyph-name="uni003D.tab" horiz-adv-x="1228" 
d="M176 760v188h877v-188h-877zM176 379v186h877v-186h-877z" />
    <glyph glyph-name="uni003C.tab" horiz-adv-x="1228" 
d="M1022 166l-834 467v53l834 467v-229l-492 -262l492 -269v-227z" />
    <glyph glyph-name="uni003E.tab" horiz-adv-x="1228" 
d="M207 166v231l491 262l-491 269v227l833 -469v-51z" />
    <glyph glyph-name="uni2264.tab" horiz-adv-x="1228" 
d="M1012 262l-817 436v54l817 436v-227l-457 -234l457 -235v-230zM195 0v182h817v-182h-817z" />
    <glyph glyph-name="uni2265.tab" horiz-adv-x="1228" 
d="M217 262v230l457 235l-457 234v227l817 -436v-54zM217 0v182h817v-182h-817z" />
    <glyph glyph-name="uni2248.tab" horiz-adv-x="1228" 
d="M160 700q10 145 79.5 218t170.5 73q86 0 223 -43t184 -43q35 0 60.5 24t31.5 68h160q-7 -141 -76.5 -215.5t-167.5 -74.5q-70 0 -150.5 22t-149.5 44t-111 22q-36 0 -62 -25t-33 -70h-159zM160 303q10 145 79.5 218t170.5 73q86 0 223 -43t184 -43q35 0 60.5 24t31.5 68
h160q-7 -142 -76.5 -216.5t-167.5 -74.5q-70 0 -150.5 22t-149.5 44t-111 22q-36 0 -62 -24.5t-33 -69.5h-159z" />
    <glyph glyph-name="uni2260.tab" horiz-adv-x="1228" 
d="M170 760v188h465l80 205h186l-80 -205h238v-188h-311l-74 -195h385v-186h-457l-80 -207h-186l80 207h-246v186h317l74 195h-391z" />
    <glyph glyph-name="uni0024.tab" horiz-adv-x="1228" 
d="M551 -276v258q-125 8 -219 47.5t-152.5 103.5t-89.5 143.5t-39 176.5h246q5 -44 14 -78.5t27 -69t44.5 -58.5t69.5 -42t99 -25v463q-231 40 -342 137.5t-111 286.5q0 169 125 284t328 130v184h135v-186q196 -17 309.5 -123t132.5 -293h-235q-18 96 -67.5 150t-139.5 69
v-422q117 -20 199.5 -50t145.5 -79t93.5 -123.5t30.5 -177.5q0 -182 -125 -306.5t-344 -141.5v-258h-135zM336 1087q0 -85 44.5 -131.5t170.5 -72.5v403q-103 -12 -159 -66t-56 -133zM909 408q0 90 -48 138t-175 75v-441q103 15 163 76t60 152z" />
    <glyph glyph-name="uni00A2.tab" horiz-adv-x="1228" 
d="M578 -276v260q-213 21 -345.5 164.5t-132.5 375.5v17q0 228 135 376.5t343 172.5v198h135v-198q83 -7 154 -34t130 -74t96.5 -121t47.5 -169h-236q-13 88 -63.5 139.5t-128.5 65.5v-729q86 16 144 75.5t67 155.5h223q-14 -171 -131 -284.5t-303 -130.5v-260h-135z
M350 524q0 -149 60 -238.5t168 -113.5v723q-104 -25 -166 -117.5t-62 -236.5v-17z" />
    <glyph glyph-name="uni00A3.tab" horiz-adv-x="1228" 
d="M88 627v164h117q-33 139 -33 251q0 201 135.5 321t341.5 120q216 0 334.5 -111.5t130.5 -314.5h-237q-19 112 -69.5 163.5t-152.5 51.5q-101 0 -162 -64.5t-61 -175.5q0 -113 27 -241h393v-164h-360q20 -136 20 -215q0 -67 -25 -125q40 -11 100.5 -34t104.5 -36.5
t76 -13.5q75 0 116.5 35t45.5 116h223q-8 -170 -97.5 -271t-244.5 -101q-62 0 -129 19t-113.5 41t-98 41t-87.5 19q-54 0 -83 -29.5t-32 -72.5h-205q7 99 58 181.5t145 111.5q19 55 19 121q0 73 -35 213h-162z" />
    <glyph glyph-name="uni00A5.tab" horiz-adv-x="1228" 
d="M164 586v129h307l-393 749h282l277 -573l264 573h250l-373 -749h312v-129h-332v-137h332v-132h-332v-317h-266v317h-328v132h328v137h-328z" />
    <glyph glyph-name="uni20AC.tab" horiz-adv-x="1228" 
d="M29 797v131h114q14 260 152 408.5t367 148.5q204 0 324.5 -118t139.5 -345h-235q-15 131 -70.5 194.5t-158.5 63.5q-251 0 -269 -352h391l-24 -131h-367v-138h342l-24 -129h-318q9 -176 74.5 -259t198.5 -83q109 0 168.5 67.5t78.5 213.5h232q-19 -240 -145 -364.5
t-341 -124.5q-230 0 -366.5 143t-149.5 407h-114v129h114v138h-114z" />
    <glyph glyph-name="uni0192.tab" horiz-adv-x="1228" 
d="M207 664v184h229l43 289q51 346 387 346q85 0 150 -23v-194q-52 20 -125 20q-141 0 -168 -168l-41 -270h276v-184h-303l-153 -1037h-246l154 1037h-203z" />
    </font>
</defs>
</svg>
