<?xml version="1.0" standalone="no"?>
<!DOCTYPE svg PUBLIC "-//W3C//DTD SVG 1.1//EN" "http://www.w3.org/Graphics/SVG/1.1/DTD/svg11.dtd" >
<svg xmlns="http://www.w3.org/2000/svg" xmlns:xlink="http://www.w3.org/1999/xlink" version="1.1">
<metadata>
Created by FontForge 20170731 at Fri Jun  4 06:59:56 2021
 By Aleksey,,,
Copyright (c) 2017 Commercial Type, Inc.. All rights reserved.
</metadata>
<defs>
<font id="GraphikTH-Regular" horiz-adv-x="0" >
  <font-face 
    font-family="Graphik TH Regular"
    font-weight="400"
    font-stretch="normal"
    units-per-em="2048"
    panose-1="2 11 5 3 3 2 2 6 2 3"
    ascent="1638"
    descent="-410"
    x-height="1071"
    cap-height="1464"
    bbox="-1266 -915 2236 2279"
    underline-thickness="135"
    underline-position="-323"
    unicode-range="U+0020-FB02"
  />
<missing-glyph horiz-adv-x="1024" 
 />
    <glyph glyph-name="uniFB00" unicode="ff" horiz-adv-x="1298" 
d="M209 0v928h-154v143h154v160q0 165 80.5 254.5t238.5 89.5q62 0 127 -21v-143q-59 23 -120 23q-80 0 -118 -49.5t-38 -135.5v-178h420v174q0 165 80.5 254.5t238.5 89.5q66 0 127 -20v-144q-59 23 -121 23q-155 0 -155 -184v-193h262v-143h-262v-928h-170v928h-420v-928
h-170z" />
    <glyph glyph-name="uni0E45.2" unicode="&#xe24;&#xe45;" horiz-adv-x="2134" 
d="M1155 -471h-174v1216q0 162 -85 255.5t-259 93.5q-163 0 -255.5 -77t-92.5 -186v-18h243v-119q-213 -39 -213 -256v-106q0 -205 191 -205q65 0 104 16v-137q-59 -20 -139 -20q-154 0 -242 83.5t-88 260.5v98q0 122 49.5 186t139.5 91h-215v83q0 197 136 322t388 125
q177 0 293.5 -79t161.5 -222q51 158 166 229.5t264 71.5q212 0 330 -118.5t118 -330.5v-1257h-174v1257q0 161 -76.5 237.5t-214.5 76.5q-53 0 -99.5 -11t-93.5 -42.5t-81 -81.5t-56.5 -134t-25.5 -194v-1108z" />
    <glyph glyph-name="uni0E45.1" unicode="&#xe26;&#xe45;" horiz-adv-x="2134" 
d="M1155 -471h-174v1216q0 162 -85 255.5t-259 93.5q-163 0 -255.5 -77t-92.5 -186v-18h243v-119q-91 -18 -124 -77t-33 -171v-178q0 -155 -85.5 -216.5t-254.5 -61.5v139q94 5 130 33.5t36 105.5v168q0 122 29.5 183.5t103.5 85.5h-215v83q0 197 136 322t388 125
q183 0 301 -79.5t154 -235.5q48 166 164 240.5t266 74.5q212 0 330 -118.5t118 -330.5v-1257h-174v1257q0 161 -76.5 237.5t-214.5 76.5q-53 0 -99.5 -11t-93.5 -42.5t-81 -81.5t-56.5 -134t-25.5 -194v-1108z" />
    <glyph glyph-name=".notdef" horiz-adv-x="1024" 
 />
    <glyph glyph-name=".null" 
 />
    <glyph glyph-name="nonmarkingreturn" horiz-adv-x="682" 
 />
    <glyph glyph-name="uni0020" unicode=" " horiz-adv-x="542" 
 />
    <glyph glyph-name="uni0021" unicode="!" horiz-adv-x="585" 
d="M229 414l-28 1050h188l-29 -1050h-131zM293 -10q-54 0 -92.5 38t-38.5 93t38.5 93t92.5 38t92.5 -38t38.5 -93t-38.5 -93t-92.5 -38z" />
    <glyph glyph-name="uni0022" unicode="&#x22;" horiz-adv-x="768" 
d="M156 963l-31 501h184l-30 -501h-123zM489 963l-30 501h184l-31 -501h-123z" />
    <glyph glyph-name="uni0023" unicode="#" horiz-adv-x="1030" 
d="M516 203l53 375h-198l-54 -375h-139l53 375h-170v143h193l39 270h-174v144h194l49 329h140l-49 -329h198l49 329h140l-49 -329h178v-144h-199l-39 -270h180v-143h-202l-54 -375h-139zM432 991l-39 -270h199l39 270h-199z" />
    <glyph glyph-name="uni0024" unicode="$" horiz-adv-x="1284" 
d="M584 -276v260q-102 7 -183 35t-134.5 70t-91 100t-56.5 120.5t-27 136.5h172q7 -54 17 -93.5t32.5 -82t55.5 -70.5t87.5 -49t127.5 -28v569q-106 20 -182 48.5t-134.5 74t-87 113t-28.5 157.5q0 161 120.5 272.5t311.5 123.5v184h121v-186q185 -17 295 -119.5t130 -280.5
h-159q-23 119 -87.5 182t-178.5 78v-512q118 -21 199 -50t141 -77t88 -118t28 -168q0 -175 -128.5 -296.5t-327.5 -133.5v-260h-121zM313 1102q0 -52 10.5 -88t39.5 -69t83 -56.5t138 -40.5v493q-127 -10 -199 -76t-72 -163zM991 401q0 117 -61 176.5t-225 94.5v-549
q125 12 205.5 89t80.5 189z" />
    <glyph glyph-name="uni0025" unicode="%" horiz-adv-x="1605" 
d="M406 784q-134 0 -235 98t-101 244q0 149 100 250t236 101q138 0 236.5 -100t98.5 -247q0 -149 -99.5 -247.5t-235.5 -98.5zM276 0l895 1464h156l-895 -1464h-156zM406 918q84 0 132 55t48 157q0 98 -48.5 155.5t-131.5 57.5t-132 -56t-49 -159q0 -102 48.5 -156
t132.5 -54zM1200 -16q-134 0 -235 98t-101 244q0 149 100 249.5t236 100.5q138 0 237 -99.5t99 -246.5q0 -149 -100 -247.5t-236 -98.5zM1200 117q84 0 132 55.5t48 157.5q0 98 -48.5 155.5t-131.5 57.5t-131.5 -56t-48.5 -159q0 -102 48 -156.5t132 -54.5z" />
    <glyph glyph-name="uni0026" unicode="&#x26;" horiz-adv-x="1404" 
d="M1319 756l-240 -457l246 -299h-207l-145 176q-165 -190 -406 -190q-203 0 -333 110.5t-130 290.5q0 84 25 152.5t73.5 121t104.5 90.5t133 76q-129 167 -129 310q0 106 52 184t132 115t175 37q136 0 227.5 -85.5t91.5 -216.5q0 -243 -313 -378l307 -375l178 338h158z
M475 1135q0 -52 31 -109t96 -139q125 56 176 120t51 169q0 71 -46 117t-119 46q-82 0 -135.5 -51t-53.5 -153zM573 125q179 0 312 160l-365 444q-58 -28 -99 -56.5t-75.5 -67.5t-52 -89t-17.5 -113q0 -131 79 -204.5t218 -73.5z" />
    <glyph glyph-name="uni0027" unicode="'" horiz-adv-x="434" 
d="M156 963l-31 501h184l-30 -501h-123z" />
    <glyph glyph-name="uni0028" unicode="(" horiz-adv-x="659" 
d="M449 -303q-340 400 -340 942q0 288 93 525.5t247 418.5h169q-154 -192 -242.5 -420.5t-88.5 -523.5q0 -294 88 -522t243 -420h-169z" />
    <glyph glyph-name="uni0029" unicode=")" horiz-adv-x="659" 
d="M41 -297q155 192 243.5 421t88.5 523t-88.5 521.5t-243.5 420.5h170q340 -400 340 -942q0 -288 -93 -525.5t-247 -418.5h-170z" />
    <glyph glyph-name="uni002A" unicode="*" horiz-adv-x="864" 
d="M285 838l-117 84l170 227l-252 59l45 138l242 -99l-15 275h150l-14 -275l239 99l45 -138l-254 -59l170 -227l-114 -84l-152 245z" />
    <glyph glyph-name="uni002B" unicode="+" horiz-adv-x="1062" 
d="M457 215v414h-383v143h383v414h149v-414h383v-143h-383v-414h-149z" />
    <glyph glyph-name="uni002C" unicode="," horiz-adv-x="577" 
d="M184 -252l-110 57l196 449l166 -78z" />
    <glyph glyph-name="uni002D" unicode="-" horiz-adv-x="684" 
d="M123 483v160h438v-160h-438z" />
    <glyph glyph-name="uni002E" unicode="." horiz-adv-x="577" 
d="M289 -10q-54 0 -92.5 38t-38.5 93t38.5 93t92.5 38t92.5 -38t38.5 -93t-38.5 -93t-92.5 -38z" />
    <glyph glyph-name="uni002F" unicode="/" horiz-adv-x="825" 
d="M12 -303l596 1892h156l-596 -1892h-156z" />
    <glyph glyph-name="uni0030" unicode="0" horiz-adv-x="1394" 
d="M705 -18q-263 0 -422.5 194.5t-159.5 513.5v82q0 326 155 518.5t422 192.5q266 0 419 -194.5t153 -512.5v-82q0 -324 -150.5 -518t-416.5 -194zM705 129q191 0 289 144t98 423v82q0 258 -104 409.5t-288 151.5q-187 0 -291 -148t-104 -417v-82q0 -273 106.5 -418
t293.5 -145z" />
    <glyph glyph-name="uni0031" unicode="1" horiz-adv-x="817" 
d="M395 0v1288l-327 -235v166l340 245h165v-1464h-178z" />
    <glyph glyph-name="uni0032" unicode="2" horiz-adv-x="1134" 
d="M39 0v41l582 612q104 111 157 213.5t53 210.5q0 123 -69 192.5t-193 69.5q-268 0 -309 -325h-166q17 217 142.5 343t332.5 126q203 0 323 -111.5t120 -300.5q0 -244 -295 -532l-404 -394h707v-145h-981z" />
    <glyph glyph-name="uni0033" unicode="3" horiz-adv-x="1236" 
d="M594 -18q-228 0 -366 126.5t-146 323.5h164q13 -139 100 -223t252 -84q167 0 250.5 75t83.5 208q0 284 -309 284h-111v150h102q275 0 275 250q0 109 -68.5 177t-197.5 68q-136 0 -223 -75.5t-101 -200.5h-156q8 178 141.5 300t338.5 122q102 0 186 -32t139 -85.5t85 -123
t30 -146.5q0 -224 -232 -320q133 -35 208 -127.5t75 -240.5q0 -196 -144.5 -311t-375.5 -115z" />
    <glyph glyph-name="uni0034" unicode="4" horiz-adv-x="1263" 
d="M813 0v307h-733v58l670 1099h237v-1011h203v-146h-203v-307h-174zM305 453h508v876z" />
    <glyph glyph-name="uni0035" unicode="5" horiz-adv-x="1202" 
d="M575 -18q-227 0 -349 112t-138 301h170q12 -65 30.5 -110.5t53.5 -83.5t92.5 -57t138.5 -19q150 0 236 94.5t86 259.5q0 155 -84 248.5t-223 93.5q-122 0 -203 -35.5t-143 -105.5h-66v784h823v-153h-675v-447q108 101 299 101q200 0 327 -132.5t127 -353.5
q0 -150 -67.5 -264.5t-181 -173.5t-253.5 -59z" />
    <glyph glyph-name="uni0036" unicode="6" horiz-adv-x="1267" 
d="M649 -18q-117 0 -208 34.5t-150 93.5t-97.5 144.5t-54.5 182t-16 210.5v35q0 385 157 593t416 208q174 0 286.5 -90.5t141.5 -264.5h-170q-26 106 -88.5 157.5t-181.5 51.5q-171 0 -275 -151t-110 -434q54 91 153 144.5t224 53.5q214 0 346.5 -137t132.5 -342
q0 -221 -137.5 -355t-368.5 -134zM649 121q145 0 234.5 93.5t89.5 248.5q0 159 -88.5 253.5t-237.5 94.5q-148 0 -242 -91t-94 -233q0 -175 93 -270.5t245 -95.5z" />
    <glyph glyph-name="uni0037" unicode="7" horiz-adv-x="1075" 
d="M299 0l510 1321h-743v143h964v-24l-549 -1440h-182z" />
    <glyph glyph-name="uni0038" unicode="8" horiz-adv-x="1243" 
d="M623 -18q-92 0 -180.5 27.5t-162 79.5t-118.5 137t-45 190q0 141 76 238t200 141q-105 40 -163 120t-58 187q0 114 66.5 203t168 133.5t216.5 44.5t216.5 -45.5t166.5 -133.5t65 -198q0 -107 -60 -185t-165 -124q131 -47 205.5 -143.5t74.5 -233.5q0 -106 -43.5 -191.5
t-115.5 -138t-160.5 -80.5t-183.5 -28zM629 858q119 0 190.5 65.5t71.5 180.5q0 105 -76.5 172t-191.5 67q-117 0 -194 -66t-77 -177q0 -112 80 -177t197 -65zM623 127q140 0 230.5 78.5t90.5 220.5q0 139 -90 215t-227 76q-138 0 -233 -77.5t-95 -217.5q0 -138 94.5 -216.5
t229.5 -78.5z" />
    <glyph glyph-name="uni0039" unicode="9" horiz-adv-x="1269" 
d="M594 -16q-200 0 -320.5 98.5t-150.5 277.5h172q26 -113 97 -172t206 -59q177 0 274.5 147t100.5 435q-53 -90 -153.5 -142.5t-225.5 -52.5q-212 0 -346.5 135.5t-134.5 343.5q0 221 137.5 355.5t367.5 134.5q258 0 392.5 -169t134.5 -487v-92q0 -363 -144 -558t-407 -195
zM621 655q148 0 241.5 88t93.5 230q0 176 -93 274.5t-245 98.5q-145 0 -234 -93.5t-89 -248.5q0 -159 88.5 -254t237.5 -95z" />
    <glyph glyph-name="uni003A" unicode=":" horiz-adv-x="598" 
d="M299 598q-54 0 -92.5 38t-38.5 93t38.5 93t92.5 38t92.5 -38t38.5 -93t-38.5 -93t-92.5 -38zM299 -10q-54 0 -92.5 38t-38.5 93t38.5 93t92.5 38t92.5 -38t38.5 -93t-38.5 -93t-92.5 -38z" />
    <glyph glyph-name="uni003B" unicode=";" horiz-adv-x="598" 
d="M317 598q-54 0 -92.5 38t-38.5 93t38.5 93t92.5 38t93 -38t39 -93t-39 -93t-93 -38zM154 -252l-111 57l197 449l166 -78z" />
    <glyph glyph-name="uni003C" unicode="&#x3c;" horiz-adv-x="1032" 
d="M895 195l-786 444v41l786 444v-163l-539 -302l539 -301v-163z" />
    <glyph glyph-name="uni003D" unicode="=" horiz-adv-x="991" 
d="M82 770v148h827v-148h-827zM82 401v148h827v-148h-827z" />
    <glyph glyph-name="uni003E" unicode="&#x3e;" horiz-adv-x="1032" 
d="M137 195v163l539 301l-539 302v163l787 -444v-41z" />
    <glyph glyph-name="uni003F" unicode="?" horiz-adv-x="1001" 
d="M367 414v102q0 40 7.5 76.5t26 72t32.5 59.5t46 59t47 50l52 52q49 49 76 80.5t50 78.5t23 93q0 95 -54.5 149.5t-164.5 54.5q-115 0 -188 -72t-84 -194h-160q11 182 129.5 295t304.5 113q101 0 178 -28.5t122 -77.5t67 -108t22 -126q0 -44 -13 -86t-28 -71.5t-48 -68.5
t-52 -57.5t-60 -58.5q-45 -43 -69 -68.5t-54 -65.5t-43.5 -80t-13.5 -85v-88h-151zM438 -10q-54 0 -92.5 38t-38.5 93t38.5 93t92.5 38t92.5 -38t38.5 -93t-38.5 -93t-92.5 -38z" />
    <glyph glyph-name="uni0040" unicode="@" horiz-adv-x="1873" 
d="M940 -301q-160 0 -297.5 44.5t-237.5 123t-171.5 184t-106.5 228t-35 253.5q0 184 70.5 348t189 279.5t279.5 182.5t336 67q180 0 333 -58t258.5 -158.5t164.5 -238.5t59 -295q0 -111 -24.5 -201.5t-63.5 -149t-90.5 -98t-103 -56.5t-103.5 -17q-117 0 -170 45t-66 131
q-46 -82 -129 -136t-176 -54q-150 0 -240 95.5t-90 260.5q0 203 117.5 339t286.5 136q101 0 162 -39.5t86 -99.5l14 123h170l-62 -516q-21 -162 99 -162q97 0 166 99.5t69 295.5q0 280 -177.5 449.5t-489.5 169.5q-153 0 -286 -54.5t-228 -151t-149 -234t-54 -297.5
q0 -142 44.5 -267.5t128.5 -223.5t217.5 -155t299.5 -57q161 0 272 40t211 126h158q-79 -136 -251 -218.5t-390 -82.5zM893 254q103 0 182.5 90t79.5 244q0 115 -55.5 173t-157.5 58q-101 0 -171.5 -91.5t-70.5 -246.5q0 -105 54 -166t139 -61z" />
    <glyph glyph-name="uni0041" unicode="A" horiz-adv-x="1380" 
d="M74 0l504 1464h233l496 -1464h-177l-143 422h-604l-141 -422h-168zM686 1317l-254 -754h508z" />
    <glyph glyph-name="uni0042" unicode="B" horiz-adv-x="1273" 
d="M184 0v1464h441q85 0 154 -11.5t129 -39t101 -70t64 -108t23 -150.5v-8q0 -234 -222 -309q157 -38 225 -121.5t68 -228.5v-8q0 -202 -127.5 -306t-353.5 -104h-502zM358 825h267q160 0 228.5 61t68.5 197v9q0 123 -72.5 178t-228.5 55h-263v-500zM358 139h324
q311 0 311 273v8q0 136 -80.5 201t-255.5 65h-299v-547z" />
    <glyph glyph-name="uni0043" unicode="C" horiz-adv-x="1495" 
d="M797 -18q-317 0 -500.5 200.5t-183.5 540.5v16q0 214 88.5 385t246 267t353.5 96q156 0 282.5 -52.5t211.5 -162.5t100 -264h-176q-28 170 -129.5 254t-286.5 84q-228 0 -367 -164.5t-139 -440.5v-16q0 -280 134 -439t370 -159q183 0 299 91t143 267h166
q-37 -248 -198.5 -375.5t-413.5 -127.5z" />
    <glyph glyph-name="uni0044" unicode="D" horiz-adv-x="1425" 
d="M184 0v1464h387q184 0 327.5 -54.5t233 -152.5t135.5 -227.5t46 -284.5v-18q0 -123 -28 -231.5t-87.5 -200t-146.5 -157t-210.5 -102t-273.5 -36.5h-383zM362 145h201q277 0 421 155t144 429v16q0 130 -32.5 233t-99.5 181t-177 120t-258 42h-199v-1176z" />
    <glyph glyph-name="uni0045" unicode="E" horiz-adv-x="1159" 
d="M184 0v1464h854v-145h-676v-498h545v-145h-545v-531h713v-145h-891z" />
    <glyph glyph-name="uni0046" unicode="F" horiz-adv-x="1118" 
d="M184 0v1464h856v-145h-678v-518h529v-146h-529v-655h-178z" />
    <glyph glyph-name="uni0047" unicode="G" horiz-adv-x="1570" 
d="M821 -18q-220 0 -382 96.5t-244 263t-82 381.5v16q0 212 88.5 382.5t251 268t368.5 97.5q112 0 210 -27t179.5 -81.5t136 -145.5t70.5 -211h-178q-30 168 -138 246t-276 78q-248 0 -388 -166t-140 -439v-16q0 -277 135.5 -438.5t388.5 -161.5q116 0 204.5 36t143 100.5
t83 147.5t30.5 183h-428v147h602v-108q0 -208 -81 -355.5t-223 -220.5t-331 -73z" />
    <glyph glyph-name="uni0048" unicode="H" horiz-adv-x="1495" 
d="M184 0v1464h178v-663h771v663h178v-1464h-178v651h-771v-651h-178z" />
    <glyph glyph-name="uni0049" unicode="I" horiz-adv-x="567" 
d="M195 0v1464h178v-1464h-178z" />
    <glyph glyph-name="uni004A" unicode="J" horiz-adv-x="860" 
d="M283 -18q-131 0 -205 38v148q94 -41 194 -41q113 0 175.5 68t62.5 211v1058h178v-1067q0 -107 -31.5 -188t-87.5 -130t-128 -73t-158 -24z" />
    <glyph glyph-name="uni004B" unicode="K" horiz-adv-x="1261" 
d="M184 0v1464h178v-704l637 706h199l-651 -712l684 -754h-215l-654 715v-715h-178z" />
    <glyph glyph-name="uni004C" unicode="L" horiz-adv-x="1095" 
d="M184 0v1464h178v-1319h670v-145h-848z" />
    <glyph glyph-name="uni004D" unicode="M" horiz-adv-x="1753" 
d="M184 0v1464h248l453 -1140l438 1140h246v-1464h-178v1233l-486 -1233h-55l-502 1233v-1233h-164z" />
    <glyph glyph-name="uni004E" unicode="N" horiz-adv-x="1482" 
d="M184 0v1464h232l712 -1210v1210h170v-1464h-204l-740 1255v-1255h-170z" />
    <glyph glyph-name="uni004F" unicode="O" horiz-adv-x="1660" 
d="M838 -18q-159 0 -295 58.5t-230 158t-147 235.5t-53 289v16q0 155 52.5 291.5t146 236.5t229 158t293.5 58t292.5 -58t226.5 -157.5t143.5 -235t51.5 -289.5v-16q0 -154 -51.5 -291t-143 -237t-225.5 -158.5t-290 -58.5zM838 129q242 0 384 165.5t142 434.5v16
q0 166 -61 299.5t-183 214t-286 80.5q-167 0 -289.5 -77t-185 -211.5t-62.5 -309.5v-16q0 -262 154.5 -429t386.5 -167z" />
    <glyph glyph-name="uni0050" unicode="P" horiz-adv-x="1189" 
d="M184 0v1464h416q109 0 199.5 -24.5t161.5 -74.5t111 -134t40 -195v-8q0 -113 -40 -198t-112 -135t-162 -74.5t-198 -24.5h-238v-596h-178zM362 737h250q157 0 239.5 75t82.5 216v8q0 150 -83 217.5t-239 67.5h-250v-584z" />
    <glyph glyph-name="uni0051" unicode="Q" horiz-adv-x="1660" 
d="M1350 -182l-205 229q-136 -65 -307 -65q-159 0 -295 58.5t-230 158t-147 235.5t-53 289v16q0 155 52.5 291.5t146 236.5t229 158t293.5 58t292.5 -58t226.5 -157.5t143.5 -235t51.5 -289.5v-16q0 -185 -72 -341.5t-202 -258.5l184 -205zM838 129q113 0 200 37l-164 184
l109 105l186 -211q94 80 144.5 204.5t50.5 280.5v16q0 166 -61 299.5t-183 214t-286 80.5q-167 0 -289.5 -77t-185 -211.5t-62.5 -309.5v-16q0 -262 154.5 -429t386.5 -167z" />
    <glyph glyph-name="uni0052" unicode="R" horiz-adv-x="1286" 
d="M184 0v1464h441q109 0 199 -23t161.5 -70t111.5 -127t40 -187v-8q0 -171 -99.5 -269.5t-263.5 -130.5l449 -649h-199l-436 637h-226v-637h-178zM362 778h275q158 0 239.5 68.5t81.5 202.5v8q0 143 -81.5 203.5t-239.5 60.5h-275v-543z" />
    <glyph glyph-name="uni0053" unicode="S" horiz-adv-x="1284" 
d="M657 -18q-114 0 -205.5 24.5t-153 66.5t-104.5 102t-65.5 126.5t-30.5 144.5h172q10 -73 29.5 -125t61 -99.5t116 -72t180.5 -24.5q143 0 238.5 76.5t95.5 199.5q0 127 -74 187.5t-280 93.5q-121 19 -207 47t-152 74t-98.5 116t-32.5 166q0 170 133 284t338 114
q220 0 351 -104.5t153 -299.5h-159q-26 137 -109 198.5t-236 61.5q-146 0 -225.5 -65.5t-79.5 -171.5q0 -58 13.5 -96t51 -71t107.5 -55.5t181 -39.5q259 -40 378 -134t119 -292q0 -185 -144 -308.5t-362 -123.5z" />
    <glyph glyph-name="uni0054" unicode="T" horiz-adv-x="1148" 
d="M485 0v1319h-426v145h1031v-145h-426v-1319h-179z" />
    <glyph glyph-name="uni0055" unicode="U" horiz-adv-x="1425" 
d="M698 -18q-252 0 -389 143.5t-137 409.5v929h178v-909q0 -228 83.5 -327t268.5 -99q92 0 157.5 21t115.5 71t75 139.5t25 221.5v882h178v-907q0 -274 -139 -424.5t-416 -150.5z" />
    <glyph glyph-name="uni0056" unicode="V" horiz-adv-x="1339" 
d="M559 0l-498 1464h177l436 -1292l436 1292h168l-506 -1464h-213z" />
    <glyph glyph-name="uni0057" unicode="W" horiz-adv-x="1900" 
d="M451 0l-381 1464h182l297 -1181l344 1181h127l344 -1185l301 1185h166l-381 -1464h-164l-332 1157l-342 -1157h-161z" />
    <glyph glyph-name="uni0058" unicode="X" horiz-adv-x="1345" 
d="M92 0l483 752l-450 712h197l364 -575l363 575h182l-455 -712l477 -752h-200l-391 616l-392 -616h-178z" />
    <glyph glyph-name="uni0059" unicode="Y" horiz-adv-x="1224" 
d="M537 0v639l-490 825h201l383 -680l368 680h179l-463 -827v-637h-178z" />
    <glyph glyph-name="uni005A" unicode="Z" horiz-adv-x="1218" 
d="M57 0v29l830 1290h-756v145h1002v-26l-807 -1286h794v-152h-1063z" />
    <glyph glyph-name="uni005B" unicode="[" horiz-adv-x="729" 
d="M180 -303v1892h459v-135h-289v-1622h289v-135h-459z" />
    <glyph glyph-name="uni005C" unicode="\" horiz-adv-x="825" 
d="M657 -303l-596 1892h156l596 -1892h-156z" />
    <glyph glyph-name="uni005D" unicode="]" horiz-adv-x="729" 
d="M90 -303v135h289v1622h-289v135h459v-1892h-459z" />
    <glyph glyph-name="uni005E" unicode="^" horiz-adv-x="1038" 
d="M90 836l342 628h174l342 -628h-172l-260 483l-258 -483h-168z" />
    <glyph glyph-name="uni005F" unicode="_" horiz-adv-x="806" 
d="M-2 -324v136h811v-136h-811z" />
    <glyph glyph-name="uni0060" unicode="`" horiz-adv-x="819" 
d="M362 1255l-212 301h212l127 -301h-127z" />
    <glyph glyph-name="uni0061" unicode="a" horiz-adv-x="1105" 
d="M440 -18q-103 0 -181 32t-126.5 104.5t-48.5 178.5q0 89 44.5 155.5t122 104t170 55t200.5 17.5h153v78q0 128 -53 184.5t-176 56.5q-223 0 -246 -192h-170q8 88 46 154.5t97.5 104.5t129.5 56.5t151 18.5q65 0 120 -11t106 -38t86.5 -69.5t57 -110t21.5 -154.5v-707
h-170v135q-62 -78 -140.5 -115.5t-193.5 -37.5zM457 117q139 0 228 68.5t89 189.5v133h-147q-373 0 -373 -211q0 -88 47.5 -134t155.5 -46z" />
    <glyph glyph-name="uni0062" unicode="b" horiz-adv-x="1284" 
d="M705 -18q-124 0 -219 54.5t-144 139.5v-176h-170v1583h170v-692q48 82 149.5 140.5t213.5 58.5q215 0 351 -146.5t136 -392.5v-16q0 -247 -133.5 -400t-353.5 -153zM688 123q159 0 243.5 104t84.5 299v17q0 194 -94 299.5t-236 105.5q-156 0 -253 -103.5t-97 -301.5v-17
q0 -199 95 -301t257 -102z" />
    <glyph glyph-name="uni0063" unicode="c" horiz-adv-x="1167" 
d="M616 -18q-228 0 -376 148.5t-148 393.5v17q0 120 41 223.5t111 174.5t165.5 111t202.5 40q87 0 163 -21t140.5 -64t107 -117t54.5 -173h-168q-19 121 -98.5 177t-198.5 56q-150 0 -247 -111t-97 -296v-17q0 -192 95.5 -296.5t254.5 -104.5q120 0 207.5 68.5t100.5 193.5
h157q-17 -176 -146.5 -289.5t-320.5 -113.5z" />
    <glyph glyph-name="uni0064" unicode="d" horiz-adv-x="1284" 
d="M575 -18q-215 0 -349 143t-134 389v16q0 246 139.5 403t360.5 157q125 0 212.5 -52.5t137.5 -138.5v684h170v-1583h-170v184q-48 -82 -151.5 -142t-215.5 -60zM594 123q157 0 255.5 104t98.5 301v17q0 201 -89.5 302t-250.5 101q-160 0 -250 -107.5t-90 -301.5v-17
q0 -194 91.5 -296.5t234.5 -102.5z" />
    <glyph glyph-name="uni0065" unicode="e" horiz-adv-x="1163" 
d="M610 -18q-229 0 -373.5 148.5t-144.5 393.5v17q0 243 140.5 396t361.5 153q76 0 145 -18.5t131 -59.5t107 -101.5t71.5 -151t26.5 -202.5v-55h-807q6 -184 93.5 -281.5t250.5 -97.5q251 0 285 186h170q-27 -158 -149.5 -242.5t-307.5 -84.5zM274 639h627
q-22 309 -307 309q-129 0 -213.5 -82.5t-106.5 -226.5z" />
    <glyph glyph-name="uni0066" unicode="f" horiz-adv-x="708" 
d="M209 0v928h-154v143h154v174q0 165 80.5 254.5t238.5 89.5q66 0 127 -20v-144q-59 23 -120 23q-80 0 -118 -49t-38 -135v-193h262v-143h-262v-928h-170z" />
    <glyph glyph-name="uni0067" unicode="g" horiz-adv-x="1284" 
d="M600 -391q-224 0 -342.5 91.5t-142.5 238.5h174q38 -187 309 -187q164 0 254 81.5t90 248.5v156q-49 -83 -149.5 -143t-212.5 -60q-211 0 -349.5 143.5t-138.5 364.5v14q0 145 62.5 266.5t178 194t259.5 72.5q125 0 212.5 -52.5t137.5 -138.5v172h170v-999
q-1 -226 -140.5 -344.5t-371.5 -118.5zM598 176q153 0 251.5 101.5t98.5 277.5v14q0 179 -91 279t-249 100q-157 0 -248.5 -106t-91.5 -277v-16q0 -170 95 -271.5t235 -101.5z" />
    <glyph glyph-name="uni0068" unicode="h" horiz-adv-x="1224" 
d="M172 0v1583h170v-682q40 81 129.5 135t214.5 54q175 0 276 -105t101 -328v-657h-170v670q0 141 -61.5 206.5t-190.5 65.5q-126 0 -212.5 -77.5t-86.5 -215.5v-649h-170z" />
    <glyph glyph-name="uni0069" unicode="i" horiz-adv-x="522" 
d="M258 1294q-46 0 -79.5 33.5t-33.5 79.5t33.5 79.5t79.5 33.5t79.5 -33.5t33.5 -79.5t-33.5 -79.5t-79.5 -33.5zM176 0v1071h170v-1071h-170z" />
    <glyph glyph-name="uni006A" unicode="j" horiz-adv-x="522" 
d="M258 1294q-46 0 -79.5 33.5t-33.5 79.5t33.5 79.5t79.5 33.5t79.5 -33.5t33.5 -79.5t-33.5 -79.5t-79.5 -33.5zM18 -391v143q86 7 122 49t36 117v1153h170v-1139q0 -158 -77 -237.5t-251 -85.5z" />
    <glyph glyph-name="uni006B" unicode="k" horiz-adv-x="1056" 
d="M172 0v1583h170v-1005l444 493h199l-459 -498l498 -573h-207l-475 555v-555h-170z" />
    <glyph glyph-name="uni006C" unicode="l" horiz-adv-x="524" 
d="M176 0v1583h172v-1583h-172z" />
    <glyph glyph-name="uni006D" unicode="m" horiz-adv-x="1863" 
d="M172 0v1071h170v-164q39 79 124 131t196 52q109 0 191.5 -49t121.5 -152q52 98 154.5 149.5t211.5 51.5q75 0 138 -23.5t114 -72.5t80 -133t29 -197v-664h-170v676q0 138 -57 202t-170 64q-114 0 -198.5 -75.5t-84.5 -211.5v-655h-170v676q0 138 -57 202t-170 64
q-114 0 -198.5 -75.5t-84.5 -211.5v-655h-170z" />
    <glyph glyph-name="uni006E" unicode="n" horiz-adv-x="1224" 
d="M172 0v1071h170v-170q40 81 129.5 135t214.5 54q175 0 276 -105t101 -328v-657h-170v670q0 141 -61.5 206.5t-190.5 65.5q-126 0 -212.5 -77.5t-86.5 -215.5v-649h-170z" />
    <glyph glyph-name="uni006F" unicode="o" horiz-adv-x="1236" 
d="M616 -18q-228 0 -376 154.5t-148 389.5v17q0 240 149 393.5t377 153.5q229 0 378 -152.5t149 -392.5v-17q0 -241 -149.5 -393.5t-379.5 -152.5zM618 123q160 0 255.5 110.5t95.5 292.5v15q0 186 -95.5 296.5t-255.5 110.5q-161 0 -255.5 -110t-94.5 -295v-17
q0 -184 94 -293.5t256 -109.5z" />
    <glyph glyph-name="uni0070" unicode="p" horiz-adv-x="1284" 
d="M172 -373v1444h170v-180q48 82 149.5 140.5t213.5 58.5q215 0 351 -146.5t136 -392.5v-16q0 -247 -133.5 -400t-353.5 -153q-125 0 -219.5 54.5t-143.5 139.5v-549h-170zM688 123q159 0 243.5 104t84.5 299v17q0 194 -94 299.5t-236 105.5q-156 0 -253 -103.5t-97 -301.5
v-17q0 -199 95 -301t257 -102z" />
    <glyph glyph-name="uni0071" unicode="q" horiz-adv-x="1284" 
d="M942 -373v557q-48 -82 -151.5 -142t-215.5 -60q-215 0 -349 143t-134 389v16q0 246 139.5 403t360.5 157q125 0 212.5 -52.5t137.5 -138.5v172h170v-1444h-170zM594 123q157 0 255.5 104t98.5 301v17q0 201 -89.5 302t-250.5 101q-160 0 -250 -107.5t-90 -301.5v-17
q0 -194 91.5 -296.5t234.5 -102.5z" />
    <glyph glyph-name="uni0072" unicode="r" horiz-adv-x="770" 
d="M172 0v1071h170v-192q56 100 136 153.5t216 57.5v-160q-86 -4 -146.5 -21t-109 -54.5t-72.5 -103.5t-24 -163v-588h-170z" />
    <glyph glyph-name="uni0073" unicode="s" horiz-adv-x="983" 
d="M504 -18q-192 0 -302 91.5t-118 256.5h166q9 -100 68.5 -153.5t183.5 -53.5q121 0 177 41.5t56 128.5q0 80 -58 117.5t-192 62.5q-209 38 -290.5 107t-81.5 208q0 58 21.5 107.5t57.5 85t83 60.5t98 37t102 12q75 0 138 -16.5t116.5 -51.5t87.5 -96.5t45 -145.5h-164
q-19 88 -71.5 128t-153.5 40q-92 0 -147.5 -42t-55.5 -111q0 -73 51.5 -108.5t198.5 -61.5q76 -14 125.5 -27t101.5 -37t82 -56t49 -82t19 -116q0 -150 -101 -237.5t-292 -87.5z" />
    <glyph glyph-name="uni0074" unicode="t" horiz-adv-x="727" 
d="M498 -14q-142 0 -215.5 76t-73.5 206v660h-154v143h154v244h170v-244h250v-143h-250v-643q0 -156 133 -156q70 0 131 23v-144q-64 -22 -145 -22z" />
    <glyph glyph-name="uni0075" unicode="u" horiz-adv-x="1216" 
d="M535 -18q-170 0 -271.5 100t-101.5 311v678h170v-670q0 -140 60.5 -206t187.5 -66q122 0 208 77.5t86 215.5v649h170v-1071h-170v170q-40 -81 -128.5 -134.5t-210.5 -53.5z" />
    <glyph glyph-name="uni0076" unicode="v" horiz-adv-x="1093" 
d="M440 0l-389 1071h185l317 -899l313 899h176l-385 -1071h-217z" />
    <glyph glyph-name="uni0077" unicode="w" horiz-adv-x="1626" 
d="M387 0l-330 1071h185l250 -862l260 862h147l244 -862l252 862h174l-334 -1071h-188l-224 803l-250 -803h-186z" />
    <glyph glyph-name="uni0078" unicode="x" horiz-adv-x="1081" 
d="M57 0l383 551l-358 520h199l262 -389l260 389h184l-354 -508l391 -563h-201l-288 432l-295 -432h-183z" />
    <glyph glyph-name="uni0079" unicode="y" horiz-adv-x="1083" 
d="M268 -373l203 484l-420 960h182l328 -768l297 768h174l-592 -1444h-172z" />
    <glyph glyph-name="uni007A" unicode="z" horiz-adv-x="989" 
d="M43 0v25l633 903h-572v143h834v-31l-619 -890h611v-150h-887z" />
    <glyph glyph-name="uni007B" unicode="{" horiz-adv-x="780" 
d="M690 -301q-236 0 -340.5 101t-64.5 325l39 213q5 37 3.5 72t-18.5 66.5t-44.5 55.5t-74.5 38t-108 14v127q61 0 108 14t74.5 37.5t44.5 55t18.5 66.5t-3.5 72l-39 213q-40 224 64.5 325t340.5 101v-129q-62 -1 -106 -10t-77.5 -30t-48.5 -55t-20 -85.5t8 -120.5l39 -235
q18 -111 -37 -183t-163 -100q108 -28 163 -99.5t37 -182.5l-39 -236q-13 -69 -8 -120.5t20 -85.5t48.5 -55t77.5 -30t106 -10v-129z" />
    <glyph glyph-name="uni007C" unicode="|" horiz-adv-x="518" 
d="M190 -303v1892h138v-1892h-138z" />
    <glyph glyph-name="uni007D" unicode="}" horiz-adv-x="780" 
d="M90 -301v129q62 1 106 10t77.5 30t48.5 55t20 85.5t-8 120.5l-39 236q-18 111 37.5 182.5t163.5 99.5q-108 28 -163.5 100t-37.5 183l39 235q13 69 8 120.5t-20 85.5t-48.5 55t-77.5 30t-106 10v129q236 0 341 -101t65 -325l-39 -213q-5 -37 -3.5 -72t18.5 -66.5
t44.5 -55t74 -37.5t107.5 -14v-127q-61 0 -107.5 -14t-74 -38t-44.5 -55.5t-18.5 -66.5t3.5 -72l39 -213q40 -224 -65 -325t-341 -101z" />
    <glyph glyph-name="uni007E" unicode="~" horiz-adv-x="911" 
d="M90 457q10 126 72.5 194t144.5 68q58 0 115 -26.5t101.5 -52.5t70.5 -26q35 0 61.5 28t30.5 81h135q-8 -128 -70 -195t-141 -67q-48 0 -95.5 16.5t-78.5 35.5t-63.5 35.5t-53.5 16.5q-35 0 -61 -28t-33 -80h-135z" />
    <glyph glyph-name="uni00A0" unicode="&#xa0;" horiz-adv-x="542" 
 />
    <glyph glyph-name="uni00A1" unicode="&#xa1;" horiz-adv-x="589" 
d="M295 973q-54 0 -92.5 38t-38.5 93t38.5 93t92.5 38t92.5 -38t38.5 -93t-38.5 -93t-92.5 -38zM199 -240l28 1051h131l29 -1051h-188z" />
    <glyph glyph-name="uni00A2" unicode="&#xa2;" horiz-adv-x="1157" 
d="M547 -276v262q-203 21 -329 166t-126 372v17q0 223 128.5 371.5t326.5 172.5v203h121v-203q164 -13 275.5 -104t133.5 -266h-168q-16 104 -80 160t-161 69v-817q103 14 175 81t83 177h157q-15 -162 -129.5 -273t-285.5 -126v-262h-121zM268 524q0 -171 74 -273t205 -124
v815q-126 -24 -202.5 -130.5t-76.5 -270.5v-17z" />
    <glyph glyph-name="uni00A3" unicode="&#xa3;" horiz-adv-x="1220" 
d="M98 645v127h133q-36 155 -36 289q0 185 128.5 303.5t321.5 118.5q194 0 309 -104.5t129 -282.5h-172q-23 123 -83 182t-183 59q-119 0 -194.5 -76.5t-75.5 -201.5q0 -120 35 -287h436v-127h-408q31 -159 31 -270q0 -67 -27 -133q55 -13 179.5 -62t173.5 -49
q86 0 133 40.5t53 135.5h149q-9 -146 -91.5 -235.5t-223.5 -89.5q-61 0 -130.5 20t-121 44.5t-108.5 44.5t-95 20q-62 0 -95 -32.5t-38 -78.5h-149q3 37 17 74.5t38.5 74.5t65 64t90.5 37q24 60 24 127q0 95 -47 268h-168z" />
    <glyph glyph-name="uni00A5" unicode="&#xa5;" horiz-adv-x="1179" 
d="M172 575v119h320l-435 770h193l358 -663l342 663h172l-409 -770h321v-119h-344v-159h344v-119h-344v-297h-174v297h-344v119h344v159h-344z" />
    <glyph glyph-name="uni00A6" unicode="&#xa6;" horiz-adv-x="532" 
d="M190 752v837h138v-837h-138zM190 -303v911h138v-911h-138z" />
    <glyph glyph-name="uni00A7" unicode="&#xa7;" horiz-adv-x="1103" 
d="M545 -281q-173 0 -277.5 88.5t-107.5 245.5h174q8 -93 56 -141.5t151 -48.5t156 51.5t53 132.5q0 83 -58 129.5t-231 89.5q-90 23 -154.5 50t-116.5 67.5t-78 97.5t-26 131q0 100 61.5 173t169.5 104q-63 44 -93.5 105.5t-30.5 154.5q0 142 109.5 238t254.5 96
q169 0 270 -84.5t105 -237.5h-172q-6 87 -51.5 132.5t-147.5 45.5t-153.5 -52t-51.5 -134q0 -83 55 -128.5t220 -86.5q75 -19 127.5 -37t105 -47t84 -64.5t51 -87t19.5 -116.5q0 -90 -60 -166t-165 -109q120 -88 120 -260q0 -138 -107 -235t-261 -97zM668 379
q182 45 182 192q0 84 -60.5 128t-195.5 79l-162 43q-81 -18 -129.5 -69t-48.5 -125q0 -78 61.5 -122.5t198.5 -82.5z" />
    <glyph glyph-name="uni00A8" unicode="&#xa8;" horiz-adv-x="819" 
d="M217 1298q-44 0 -76 32.5t-32 76.5t32 76.5t76 32.5t76.5 -32.5t32.5 -76.5t-32.5 -76.5t-76.5 -32.5zM602 1298q-44 0 -76 32.5t-32 76.5t32 76.5t76 32.5t76.5 -32.5t32.5 -76.5t-32.5 -76.5t-76.5 -32.5z" />
    <glyph glyph-name="uni00A9" unicode="&#xa9;" horiz-adv-x="1728" 
d="M862 -18q-205 0 -377 98t-272 270.5t-100 380.5q0 154 59 293.5t159 240t240 159.5t295 59q157 0 296.5 -59t238.5 -159t157 -238t58 -292q0 -157 -59 -297t-159.5 -240t-240 -158t-295.5 -58zM862 68q130 0 249.5 49.5t209.5 135.5t143.5 212t53.5 270q0 190 -89 342.5
t-238 236t-325 83.5q-178 0 -327.5 -84t-238.5 -237.5t-89 -344.5q0 -144 53.5 -269.5t143.5 -211t208 -134t246 -48.5zM866 317q-185 0 -289 109.5t-104 296.5v16q0 182 110.5 295t282.5 113q144 0 239 -72.5t107 -210.5h-155q-25 160 -191 160q-107 0 -169 -75.5
t-62 -209.5v-14q0 -135 60.5 -209t170.5 -74q86 0 140.5 43t66.5 127h148q-15 -144 -110.5 -219.5t-244.5 -75.5z" />
    <glyph glyph-name="uni00AA" unicode="&#xaa;" horiz-adv-x="858" 
d="M348 594q-126 0 -206.5 64t-80.5 190q0 72 35 125.5t96.5 83.5t137 44.5t166.5 14.5h118v53q0 96 -40.5 140.5t-133.5 44.5q-162 0 -184 -140h-158q8 91 59 153.5t125 89t167 26.5q325 0 325 -312v-561h-160v107q-93 -123 -266 -123zM377 719q105 0 171 50.5t66 141.5v95
h-114q-277 0 -277 -154q0 -66 36 -99.5t118 -33.5z" />
    <glyph glyph-name="uni00AB" unicode="&#xab;" horiz-adv-x="1024" 
d="M387 170l-266 365l266 364h168l-256 -364l256 -365h-168zM752 170l-267 365l267 364h168l-256 -364l256 -365h-168z" />
    <glyph glyph-name="uni00AE" unicode="&#xae;" horiz-adv-x="1052" 
d="M526 578q-190 0 -322 129.5t-132 320.5q0 189 132 322t322 133q193 0 324 -131.5t131 -321.5q0 -191 -132 -321.5t-323 -130.5zM526 651q160 0 266.5 106.5t106.5 272.5q0 167 -105 273t-268 106t-267.5 -107t-104.5 -274q0 -166 106.5 -271.5t265.5 -105.5zM371 811v449
h157q80 0 126 -34.5t46 -101.5v-2q0 -93 -92 -121l119 -190h-102l-109 174h-47v-174h-98zM469 1053h57q78 0 78 65v2q0 64 -78 64h-57v-131z" />
    <glyph glyph-name="uni00AF" unicode="&#xaf;" horiz-adv-x="819" 
d="M141 1327v131h537v-131h-537z" />
    <glyph glyph-name="uni00B0" unicode="&#xb0;" horiz-adv-x="874" 
d="M438 831q-139 0 -237.5 95.5t-98.5 228.5q0 135 98.5 231.5t237.5 96.5q138 0 236 -96.5t98 -231.5q0 -132 -98 -228t-236 -96zM438 950q81 0 132 58.5t51 146.5q0 90 -51 149.5t-132 59.5q-83 0 -136.5 -59.5t-53.5 -149.5q0 -87 54 -146t136 -59z" />
    <glyph glyph-name="uni00B1" unicode="&#xb1;" horiz-adv-x="1062" 
d="M457 297v373h-383v143h383v373h149v-373h383v-143h-383v-373h-149zM74 0v143h915v-143h-915z" />
    <glyph glyph-name="uni00B2" unicode="&#xb2;" horiz-adv-x="585" 
d="M16 764v22l263 279q110 113 110 199q0 48 -26.5 75t-75.5 27q-106 0 -123 -135h-125q6 115 72.5 178.5t179.5 63.5q109 0 171 -56t62 -151q0 -118 -135 -250l-149 -148h290v-104h-514z" />
    <glyph glyph-name="uni00B3" unicode="&#xb3;" horiz-adv-x="636" 
d="M311 754q-125 0 -195 61t-73 166h125q14 -125 139 -125q64 0 96.5 29.5t32.5 81.5q0 110 -123 110h-53v97h51q115 0 115 100q0 43 -27.5 69.5t-79.5 26.5q-54 0 -87 -30t-39 -83h-125q6 96 74 156t180 60q109 0 172 -53.5t63 -135.5q0 -109 -117 -151q63 -14 100.5 -57.5
t37.5 -110.5q0 -98 -72 -154.5t-195 -56.5z" />
    <glyph glyph-name="uni00B4" unicode="&#xb4;" horiz-adv-x="819" 
d="M330 1255l127 301h213l-213 -301h-127z" />
    <glyph glyph-name="uni00B6" unicode="&#xb6;" horiz-adv-x="1204" 
d="M565 -205v914h-28q-202 0 -323.5 95t-121.5 275q0 126 59.5 214.5t158 129.5t227.5 41h475v-1669h-142v1553h-165v-1553h-140z" />
    <glyph glyph-name="uni00B7" unicode="&#xb7;" horiz-adv-x="577" 
d="M289 539q-54 0 -92.5 38t-38.5 93t38.5 93t92.5 38t92.5 -38t38.5 -93t-38.5 -93t-92.5 -38z" />
    <glyph glyph-name="uni00B8" unicode="&#xb8;" horiz-adv-x="819" 
d="M426 -438q-88 0 -143.5 47.5t-61.5 124.5h111q7 -32 29.5 -53t58.5 -21q38 0 60 20.5t22 53.5q0 32 -20.5 50.5t-53.5 18.5q-30 0 -57 -16l-66 57l86 156h109l-60 -109q77 10 135 -33.5t58 -131.5q0 -79 -59 -121.5t-148 -42.5z" />
    <glyph glyph-name="uni00B9" unicode="&#xb9;" horiz-adv-x="473" 
d="M215 764v565l-166 -110v120l182 125h123v-700h-139z" />
    <glyph glyph-name="uni00BA" unicode="&#xba;" horiz-adv-x="1009" 
d="M504 594q-186 0 -307 123t-121 313v12q0 195 121.5 318t308.5 123q186 0 307 -121.5t121 -314.5v-13q0 -196 -121 -318t-309 -122zM506 725q120 0 190 84t70 223v12q0 140 -70.5 224t-189.5 84q-121 0 -191.5 -84t-70.5 -224v-12q0 -141 70 -224t192 -83z" />
    <glyph glyph-name="uni00BB" unicode="&#xbb;" horiz-adv-x="1024" 
d="M104 170l256 365l-256 364h168l267 -364l-267 -365h-168zM469 170l256 365l-256 364h168l266 -364l-266 -365h-168z" />
    <glyph glyph-name="uni00BC" unicode="&#xbc;" horiz-adv-x="1388" 
d="M221 764v565l-166 -110v120l183 125h122v-700h-139zM100 0l1039 1464h135l-1038 -1464h-136zM1118 0v141h-352v49l313 510h170v-458h92v-101h-92v-141h-131zM913 242h207v354z" />
    <glyph glyph-name="uni00BD" unicode="&#xbd;" horiz-adv-x="1386" 
d="M221 764v565l-166 -110v120l183 125h122v-700h-139zM74 0l1038 1464h135l-1038 -1464h-135zM809 0v23l262 278q111 114 111 199q0 48 -27 75t-76 27q-106 0 -123 -135h-125q6 115 72.5 178.5t179.5 63.5q109 0 171.5 -56t62.5 -151q0 -118 -135 -250l-150 -148h291v-104
h-514z" />
    <glyph glyph-name="uni00BE" unicode="&#xbe;" horiz-adv-x="1394" 
d="M317 754q-125 0 -195 61t-73 166h125q14 -125 139 -125q64 0 96.5 29.5t32.5 81.5q0 110 -123 110h-53v97h51q115 0 115 100q0 43 -27 69.5t-79 26.5q-54 0 -87.5 -30t-39.5 -83h-125q6 96 74 156t180 60q109 0 172 -53.5t63 -135.5q0 -109 -117 -151q63 -14 100.5 -57.5
t37.5 -110.5q0 -98 -72 -154.5t-195 -56.5zM174 0l1038 1464h136l-1039 -1464h-135zM1118 0v141h-352v49l313 510h170v-458h92v-101h-92v-141h-131zM913 242h207v354z" />
    <glyph glyph-name="uni00BF" unicode="&#xbf;" horiz-adv-x="1001" 
d="M563 1235q54 0 92.5 -38t38.5 -93t-38.5 -93t-92.5 -38t-92.5 38t-38.5 93t38.5 93t92.5 38zM635 811v-102q0 -40 -7.5 -76.5t-26 -72t-32.5 -59.5t-46 -59t-47 -50l-52 -52t-58.5 -61t-45.5 -57t-35 -66t-11 -68q0 -95 55 -150t165 -55q115 0 188 72.5t84 194.5h160
q-11 -182 -129.5 -295t-304.5 -113q-101 0 -178 28.5t-122 77.5t-67.5 108t-22.5 126q0 44 13 86t28 71.5t48 68.5t52 57.5t60 58.5q45 43 69 68.5t54 65.5t43.5 80t13.5 85v88h152z" />
    <glyph glyph-name="uni00C0" unicode="&#xc0;" horiz-adv-x="1380" 
d="M639 1579l-201 260h213l115 -260h-127zM74 0l504 1464h233l496 -1464h-177l-143 422h-604l-141 -422h-168zM686 1317l-254 -754h508z" />
    <glyph glyph-name="uni00C1" unicode="&#xc1;" horiz-adv-x="1380" 
d="M614 1579l115 260h213l-201 -260h-127zM74 0l504 1464h233l496 -1464h-177l-143 422h-604l-141 -422h-168zM686 1317l-254 -754h508z" />
    <glyph glyph-name="uni00C2" unicode="&#xc2;" horiz-adv-x="1380" 
d="M393 1579l221 260h154l219 -260h-125l-174 119l-174 -119h-121zM74 0l504 1464h233l496 -1464h-177l-143 422h-604l-141 -422h-168zM686 1317l-254 -754h508z" />
    <glyph glyph-name="uni00C3" unicode="&#xc3;" horiz-adv-x="1380" 
d="M801 1585q-37 0 -80 22t-80 44t-61 22q-29 0 -51.5 -26t-30.5 -66h-123q12 108 69.5 173t137.5 65q37 0 79 -22t79 -44t61 -22q29 0 51.5 26t30.5 66h123q-12 -108 -69 -173t-136 -65zM74 0l504 1464h233l496 -1464h-177l-143 422h-604l-141 -422h-168zM686 1317
l-254 -754h508z" />
    <glyph glyph-name="uni00C4" unicode="&#xc4;" horiz-adv-x="1380" 
d="M481 1616q-44 0 -76 32t-32 76t32 76.5t76 32.5t76.5 -32.5t32.5 -76.5t-32.5 -76t-76.5 -32zM897 1616q-44 0 -76.5 32t-32.5 76t32.5 76.5t76.5 32.5t76.5 -32.5t32.5 -76.5t-32.5 -76t-76.5 -32zM74 0l504 1464h233l496 -1464h-177l-143 422h-604l-141 -422h-168z
M686 1317l-254 -754h508z" />
    <glyph glyph-name="uni00C5" unicode="&#xc5;" horiz-adv-x="1380" 
d="M690 1554q-91 0 -155 62.5t-64 150.5t64 150.5t155 62.5t155 -62.5t64 -150.5t-64 -150.5t-155 -62.5zM690 1649q47 0 78 33.5t31 84.5t-31 85t-78 34t-77.5 -34t-30.5 -85t30.5 -84.5t77.5 -33.5zM74 0l504 1464h233l496 -1464h-177l-143 422h-604l-141 -422h-168z
M686 1317l-254 -754h508z" />
    <glyph glyph-name="uni00C6" unicode="&#xc6;" horiz-adv-x="1945" 
d="M59 0l758 1464h1008v-145h-676v-498h545v-145h-545v-531h713v-145h-891v424h-516l-215 -424h-181zM907 1319l-383 -756h447v756h-64z" />
    <glyph glyph-name="uni00C7" unicode="&#xc7;" horiz-adv-x="1495" 
d="M780 -438q-88 0 -143.5 47.5t-61.5 124.5h111q7 -32 29.5 -53t58.5 -21q38 0 60 20.5t22 53.5q0 32 -20.5 50.5t-53.5 18.5q-30 0 -57 -16l-66 57l76 140q-290 20 -456 218t-166 521v16q0 214 88.5 385t246 267t353.5 96q156 0 282.5 -52.5t211.5 -162.5t100 -264h-176
q-28 170 -129.5 254t-286.5 84q-228 0 -367 -164.5t-139 -440.5v-16q0 -280 134 -439t370 -159q183 0 299 91t143 267h166q-36 -237 -184 -363.5t-381 -137.5l-49 -93q77 10 134.5 -33.5t57.5 -131.5q0 -79 -59 -121.5t-148 -42.5z" />
    <glyph glyph-name="uni00C8" unicode="&#xc8;" horiz-adv-x="1159" 
d="M575 1579l-200 260h213l114 -260h-127zM184 0v1464h854v-145h-676v-498h545v-145h-545v-531h713v-145h-891z" />
    <glyph glyph-name="uni00C9" unicode="&#xc9;" horiz-adv-x="1159" 
d="M551 1579l115 260h213l-201 -260h-127zM184 0v1464h854v-145h-676v-498h545v-145h-545v-531h713v-145h-891z" />
    <glyph glyph-name="uni00CA" unicode="&#xca;" horiz-adv-x="1159" 
d="M330 1579l221 260h154l219 -260h-125l-174 119l-174 -119h-121zM184 0v1464h854v-145h-676v-498h545v-145h-545v-531h713v-145h-891z" />
    <glyph glyph-name="uni00CB" unicode="&#xcb;" horiz-adv-x="1159" 
d="M418 1616q-44 0 -76.5 32t-32.5 76t32.5 76.5t76.5 32.5t76 -32.5t32 -76.5t-32 -76t-76 -32zM834 1616q-44 0 -76.5 32t-32.5 76t32.5 76.5t76.5 32.5t76 -32.5t32 -76.5t-32 -76t-76 -32zM184 0v1464h854v-145h-676v-498h545v-145h-545v-531h713v-145h-891z" />
    <glyph glyph-name="uni00CC" unicode="&#xcc;" horiz-adv-x="567" 
d="M231 1579l-200 260h213l114 -260h-127zM195 0v1464h178v-1464h-178z" />
    <glyph glyph-name="uni00CD" unicode="&#xcd;" horiz-adv-x="567" 
d="M207 1579l115 260h213l-201 -260h-127zM195 0v1464h178v-1464h-178z" />
    <glyph glyph-name="uni00CE" unicode="&#xce;" horiz-adv-x="567" 
d="M-14 1579l221 260h153l220 -260h-125l-174 119l-175 -119h-120zM195 0v1464h178v-1464h-178z" />
    <glyph glyph-name="uni00CF" unicode="&#xcf;" horiz-adv-x="567" 
d="M74 1616q-44 0 -76.5 32t-32.5 76t32.5 76.5t76.5 32.5t76 -32.5t32 -76.5t-32 -76t-76 -32zM489 1616q-44 0 -76 32t-32 76t32 76.5t76 32.5t76.5 -32.5t32.5 -76.5t-32.5 -76t-76.5 -32zM195 0v1464h178v-1464h-178z" />
    <glyph glyph-name="uni00D0" unicode="&#xd0;" horiz-adv-x="1466" 
d="M70 666v137h155v661h387q184 0 327.5 -54.5t233 -152.5t135.5 -227.5t46 -284.5v-18q0 -123 -28 -231.5t-87.5 -200t-146.5 -157t-210.5 -102t-273.5 -36.5h-383v666h-155zM403 145h201q277 0 421 155t144 429v16q0 130 -32.5 233t-99.5 181t-177 120t-258 42h-199v-518
h424v-137h-424v-521z" />
    <glyph glyph-name="uni00D1" unicode="&#xd1;" horiz-adv-x="1482" 
d="M872 1585q-37 0 -80 22t-80 44t-61 22q-29 0 -51.5 -26t-30.5 -66h-123q12 108 69.5 173t137.5 65q37 0 79 -22t79 -44t61 -22q29 0 51.5 26t30.5 66h123q-12 -108 -69 -173t-136 -65zM184 0v1464h232l712 -1210v1210h170v-1464h-204l-740 1255v-1255h-170z" />
    <glyph glyph-name="uni00D2" unicode="&#xd2;" horiz-adv-x="1660" 
d="M778 1579l-200 260h213l114 -260h-127zM838 -18q-159 0 -295 58.5t-230 158t-147 235.5t-53 289v16q0 155 52.5 291.5t146 236.5t229 158t293.5 58t292.5 -58t226.5 -157.5t143.5 -235t51.5 -289.5v-16q0 -154 -51.5 -291t-143 -237t-225.5 -158.5t-290 -58.5zM838 129
q242 0 384 165.5t142 434.5v16q0 166 -61 299.5t-183 214t-286 80.5q-167 0 -289.5 -77t-185 -211.5t-62.5 -309.5v-16q0 -262 154.5 -429t386.5 -167z" />
    <glyph glyph-name="uni00D3" unicode="&#xd3;" horiz-adv-x="1660" 
d="M754 1579l114 260h213l-200 -260h-127zM838 -18q-159 0 -295 58.5t-230 158t-147 235.5t-53 289v16q0 155 52.5 291.5t146 236.5t229 158t293.5 58t292.5 -58t226.5 -157.5t143.5 -235t51.5 -289.5v-16q0 -154 -51.5 -291t-143 -237t-225.5 -158.5t-290 -58.5zM838 129
q242 0 384 165.5t142 434.5v16q0 166 -61 299.5t-183 214t-286 80.5q-167 0 -289.5 -77t-185 -211.5t-62.5 -309.5v-16q0 -262 154.5 -429t386.5 -167z" />
    <glyph glyph-name="uni00D4" unicode="&#xd4;" horiz-adv-x="1660" 
d="M532 1579l222 260h153l219 -260h-125l-174 119l-174 -119h-121zM838 -18q-159 0 -295 58.5t-230 158t-147 235.5t-53 289v16q0 155 52.5 291.5t146 236.5t229 158t293.5 58t292.5 -58t226.5 -157.5t143.5 -235t51.5 -289.5v-16q0 -154 -51.5 -291t-143 -237
t-225.5 -158.5t-290 -58.5zM838 129q242 0 384 165.5t142 434.5v16q0 166 -61 299.5t-183 214t-286 80.5q-167 0 -289.5 -77t-185 -211.5t-62.5 -309.5v-16q0 -262 154.5 -429t386.5 -167z" />
    <glyph glyph-name="uni00D5" unicode="&#xd5;" horiz-adv-x="1660" 
d="M940 1585q-37 0 -80 22t-80 44t-61 22q-29 0 -51.5 -26t-30.5 -66h-123q12 108 69.5 173t137.5 65q37 0 79 -22t79 -44t61 -22q29 0 51.5 26t30.5 66h123q-12 -108 -69 -173t-136 -65zM838 -18q-159 0 -295 58.5t-230 158t-147 235.5t-53 289v16q0 155 52.5 291.5
t146 236.5t229 158t293.5 58t292.5 -58t226.5 -157.5t143.5 -235t51.5 -289.5v-16q0 -154 -51.5 -291t-143 -237t-225.5 -158.5t-290 -58.5zM838 129q242 0 384 165.5t142 434.5v16q0 166 -61 299.5t-183 214t-286 80.5q-167 0 -289.5 -77t-185 -211.5t-62.5 -309.5v-16
q0 -262 154.5 -429t386.5 -167z" />
    <glyph glyph-name="uni00D6" unicode="&#xd6;" horiz-adv-x="1660" 
d="M621 1616q-44 0 -76.5 32t-32.5 76t32.5 76.5t76.5 32.5t76 -32.5t32 -76.5t-32 -76t-76 -32zM1036 1616q-44 0 -76 32t-32 76t32 76.5t76 32.5t76.5 -32.5t32.5 -76.5t-32.5 -76t-76.5 -32zM838 -18q-159 0 -295 58.5t-230 158t-147 235.5t-53 289v16q0 155 52.5 291.5
t146 236.5t229 158t293.5 58t292.5 -58t226.5 -157.5t143.5 -235t51.5 -289.5v-16q0 -154 -51.5 -291t-143 -237t-225.5 -158.5t-290 -58.5zM838 129q242 0 384 165.5t142 434.5v16q0 166 -61 299.5t-183 214t-286 80.5q-167 0 -289.5 -77t-185 -211.5t-62.5 -309.5v-16
q0 -262 154.5 -429t386.5 -167z" />
    <glyph glyph-name="uni00D7" unicode="&#xd7;" horiz-adv-x="960" 
d="M164 268l-96 99l315 315l-315 315l96 99l315 -318l316 318l98 -99l-315 -315l315 -315l-98 -99l-316 318z" />
    <glyph glyph-name="uni00D8" unicode="&#xd8;" horiz-adv-x="1660" 
d="M164 -68l-92 93l200 219q-159 201 -159 479v16q0 155 52.5 291.5t146 236.5t229 158t293.5 58q251 0 438 -144l166 181l92 -93l-162 -178q87 -99 133.5 -229t46.5 -277v-16q0 -154 -51.5 -291t-143 -237t-225.5 -158.5t-290 -58.5q-277 0 -476 168zM297 725
q0 -206 90 -354l782 856q-134 112 -335 112q-167 0 -289.5 -77t-185 -211.5t-62.5 -309.5v-16zM838 129q242 0 384 165.5t142 434.5v16q0 229 -107 385l-786 -862q142 -139 367 -139z" />
    <glyph glyph-name="uni00D9" unicode="&#xd9;" horiz-adv-x="1425" 
d="M662 1579l-201 260h213l114 -260h-126zM698 -18q-252 0 -389 143.5t-137 409.5v929h178v-909q0 -228 83.5 -327t268.5 -99q92 0 157.5 21t115.5 71t75 139.5t25 221.5v882h178v-907q0 -274 -139 -424.5t-416 -150.5z" />
    <glyph glyph-name="uni00DA" unicode="&#xda;" horiz-adv-x="1425" 
d="M637 1579l115 260h213l-201 -260h-127zM698 -18q-252 0 -389 143.5t-137 409.5v929h178v-909q0 -228 83.5 -327t268.5 -99q92 0 157.5 21t115.5 71t75 139.5t25 221.5v882h178v-907q0 -274 -139 -424.5t-416 -150.5z" />
    <glyph glyph-name="uni00DB" unicode="&#xdb;" horiz-adv-x="1425" 
d="M416 1579l221 260h154l219 -260h-125l-174 119l-174 -119h-121zM698 -18q-252 0 -389 143.5t-137 409.5v929h178v-909q0 -228 83.5 -327t268.5 -99q92 0 157.5 21t115.5 71t75 139.5t25 221.5v882h178v-907q0 -274 -139 -424.5t-416 -150.5z" />
    <glyph glyph-name="uni00DC" unicode="&#xdc;" horiz-adv-x="1425" 
d="M504 1616q-44 0 -76.5 32t-32.5 76t32.5 76.5t76.5 32.5t76 -32.5t32 -76.5t-32 -76t-76 -32zM920 1616q-44 0 -76.5 32t-32.5 76t32.5 76.5t76.5 32.5t76 -32.5t32 -76.5t-32 -76t-76 -32zM698 -18q-252 0 -389 143.5t-137 409.5v929h178v-909q0 -228 83.5 -327
t268.5 -99q92 0 157.5 21t115.5 71t75 139.5t25 221.5v882h178v-907q0 -274 -139 -424.5t-416 -150.5z" />
    <glyph glyph-name="uni00DD" unicode="&#xdd;" horiz-adv-x="1224" 
d="M537 1579l114 260h213l-200 -260h-127zM537 0v639l-490 825h201l383 -680l368 680h179l-463 -827v-637h-178z" />
    <glyph glyph-name="uni00DE" unicode="&#xde;" horiz-adv-x="1189" 
d="M184 0v1464h178v-274h238q109 0 199 -23.5t161.5 -71.5t111.5 -131t40 -194v-8q0 -91 -26.5 -163.5t-73 -120.5t-112 -80t-140 -46t-160.5 -14h-238v-338h-178zM362 479h250q158 0 240 71.5t82 211.5v8q0 149 -82 213t-240 64h-250v-568z" />
    <glyph glyph-name="uni00DF" unicode="&#xdf;" horiz-adv-x="1208" 
d="M686 -18q-105 0 -188 32v146q80 -37 180 -37q266 0 266 307v14q0 167 -109 265t-292 92v145q83 -2 144.5 21.5t95 64t49.5 86.5t16 96v9q0 109 -64.5 168t-185.5 59q-117 0 -186.5 -77t-69.5 -206v-1167h-170v1159q0 191 125.5 310.5t302.5 119.5q183 0 296.5 -101
t113.5 -265v-9q0 -103 -65 -197t-179 -132q159 -40 256.5 -160t97.5 -279v-12q0 -101 -24 -180t-64.5 -129t-97.5 -83t-118 -46.5t-130 -13.5z" />
    <glyph glyph-name="uni00E0" unicode="&#xe0;" horiz-adv-x="1105" 
d="M504 1255l-213 301h213l127 -301h-127zM440 -18q-103 0 -181 32t-126.5 104.5t-48.5 178.5q0 89 44.5 155.5t122 104t170 55t200.5 17.5h153v78q0 128 -53 184.5t-176 56.5q-223 0 -246 -192h-170q8 88 46 154.5t97.5 104.5t129.5 56.5t151 18.5q65 0 120 -11t106 -38
t86.5 -69.5t57 -110t21.5 -154.5v-707h-170v135q-62 -78 -140.5 -115.5t-193.5 -37.5zM457 117q139 0 228 68.5t89 189.5v133h-147q-373 0 -373 -211q0 -88 47.5 -134t155.5 -46z" />
    <glyph glyph-name="uni00E1" unicode="&#xe1;" horiz-adv-x="1105" 
d="M479 1255l127 301h213l-213 -301h-127zM440 -18q-103 0 -181 32t-126.5 104.5t-48.5 178.5q0 89 44.5 155.5t122 104t170 55t200.5 17.5h153v78q0 128 -53 184.5t-176 56.5q-223 0 -246 -192h-170q8 88 46 154.5t97.5 104.5t129.5 56.5t151 18.5q65 0 120 -11t106 -38
t86.5 -69.5t57 -110t21.5 -154.5v-707h-170v135q-62 -78 -140.5 -115.5t-193.5 -37.5zM457 117q139 0 228 68.5t89 189.5v133h-147q-373 0 -373 -211q0 -88 47.5 -134t155.5 -46z" />
    <glyph glyph-name="uni00E2" unicode="&#xe2;" horiz-adv-x="1105" 
d="M236 1255l221 295h153l219 -295h-124l-175 154l-174 -154h-120zM440 -18q-103 0 -181 32t-126.5 104.5t-48.5 178.5q0 89 44.5 155.5t122 104t170 55t200.5 17.5h153v78q0 128 -53 184.5t-176 56.5q-223 0 -246 -192h-170q8 88 46 154.5t97.5 104.5t129.5 56.5t151 18.5
q65 0 120 -11t106 -38t86.5 -69.5t57 -110t21.5 -154.5v-707h-170v135q-62 -78 -140.5 -115.5t-193.5 -37.5zM457 117q139 0 228 68.5t89 189.5v133h-147q-373 0 -373 -211q0 -88 47.5 -134t155.5 -46z" />
    <glyph glyph-name="uni00E3" unicode="&#xe3;" horiz-adv-x="1105" 
d="M666 1268q-37 0 -80 22t-80.5 44t-61.5 22q-29 0 -51.5 -26t-30.5 -66h-122q12 108 69 172.5t137 64.5q37 0 79.5 -22t79.5 -44t61 -22q29 0 51.5 26t30.5 66h122q-12 -108 -68.5 -172.5t-135.5 -64.5zM440 -18q-103 0 -181 32t-126.5 104.5t-48.5 178.5q0 89 44.5 155.5
t122 104t170 55t200.5 17.5h153v78q0 128 -53 184.5t-176 56.5q-223 0 -246 -192h-170q8 88 46 154.5t97.5 104.5t129.5 56.5t151 18.5q65 0 120 -11t106 -38t86.5 -69.5t57 -110t21.5 -154.5v-707h-170v135q-62 -78 -140.5 -115.5t-193.5 -37.5zM457 117q139 0 228 68.5
t89 189.5v133h-147q-373 0 -373 -211q0 -88 47.5 -134t155.5 -46z" />
    <glyph glyph-name="uni00E4" unicode="&#xe4;" horiz-adv-x="1105" 
d="M362 1298q-44 0 -76 32.5t-32 76.5t32 76.5t76 32.5t76.5 -32.5t32.5 -76.5t-32.5 -76.5t-76.5 -32.5zM748 1298q-44 0 -76.5 32.5t-32.5 76.5t32.5 76.5t76.5 32.5t76 -32.5t32 -76.5t-32 -76.5t-76 -32.5zM440 -18q-103 0 -181 32t-126.5 104.5t-48.5 178.5
q0 89 44.5 155.5t122 104t170 55t200.5 17.5h153v78q0 128 -53 184.5t-176 56.5q-223 0 -246 -192h-170q8 88 46 154.5t97.5 104.5t129.5 56.5t151 18.5q65 0 120 -11t106 -38t86.5 -69.5t57 -110t21.5 -154.5v-707h-170v135q-62 -78 -140.5 -115.5t-193.5 -37.5zM457 117
q139 0 228 68.5t89 189.5v133h-147q-373 0 -373 -211q0 -88 47.5 -134t155.5 -46z" />
    <glyph glyph-name="uni00E5" unicode="&#xe5;" horiz-adv-x="1105" 
d="M555 1225q-91 0 -155 62.5t-64 150.5t64 150.5t155 62.5t155 -62.5t64 -150.5t-64 -150.5t-155 -62.5zM555 1319q47 0 78 34t31 85t-31 84.5t-78 33.5t-78 -33.5t-31 -84.5t31 -85t78 -34zM440 -18q-103 0 -181 32t-126.5 104.5t-48.5 178.5q0 89 44.5 155.5t122 104
t170 55t200.5 17.5h153v78q0 128 -53 184.5t-176 56.5q-223 0 -246 -192h-170q8 88 46 154.5t97.5 104.5t129.5 56.5t151 18.5q65 0 120 -11t106 -38t86.5 -69.5t57 -110t21.5 -154.5v-707h-170v135q-62 -78 -140.5 -115.5t-193.5 -37.5zM457 117q139 0 228 68.5t89 189.5
v133h-147q-373 0 -373 -211q0 -88 47.5 -134t155.5 -46z" />
    <glyph glyph-name="uni00E6" unicode="&#xe6;" horiz-adv-x="1802" 
d="M1262 -18q-134 0 -238 58t-166 163q-74 -116 -172.5 -168.5t-245.5 -52.5q-103 0 -181 32t-126.5 104.5t-48.5 178.5q0 90 43.5 157.5t119.5 106t167.5 56.5t199.5 18h160v70q0 127 -55 185t-174 58q-223 0 -246 -192h-170q8 88 46 154.5t97.5 104.5t129.5 56.5t151 18.5
q255 0 336 -183q130 183 360 183q74 0 140 -18t126 -58.5t104 -101t69.5 -151.5t25.5 -204v-51h-776q6 -186 88 -284.5t238 -98.5q238 0 272 186h170q-27 -158 -146.5 -242.5t-297.5 -84.5zM944 635h596q-12 164 -85.5 238.5t-205.5 74.5q-124 0 -204.5 -83.5t-100.5 -229.5
zM457 117q139 0 228 68.5t89 189.5v131h-153q-367 0 -367 -209q0 -88 47.5 -134t155.5 -46z" />
    <glyph glyph-name="uni00E7" unicode="&#xe7;" horiz-adv-x="1167" 
d="M586 -438q-88 0 -143.5 47.5t-61.5 124.5h111q7 -32 29.5 -53t58.5 -21q38 0 60 20.5t22 53.5q0 32 -20.5 50.5t-53.5 18.5q-31 0 -58 -16l-65 57l78 142q-200 24 -325.5 168.5t-125.5 369.5v17q0 120 41 223.5t111 174.5t165.5 111t202.5 40q87 0 163 -21t140.5 -64
t107 -117t54.5 -173h-168q-19 121 -98.5 177t-198.5 56q-150 0 -247 -111t-97 -296v-17q0 -192 95.5 -296.5t254.5 -104.5q120 0 207.5 68.5t100.5 193.5h157q-17 -168 -136 -279.5t-298 -121.5l-49 -93q77 10 135 -33.5t58 -131.5q0 -79 -59 -121.5t-148 -42.5z" />
    <glyph glyph-name="uni00E8" unicode="&#xe8;" horiz-adv-x="1163" 
d="M543 1255l-213 301h213l127 -301h-127zM610 -18q-229 0 -373.5 148.5t-144.5 393.5v17q0 243 140.5 396t361.5 153q76 0 145 -18.5t131 -59.5t107 -101.5t71.5 -151t26.5 -202.5v-55h-807q6 -184 93.5 -281.5t250.5 -97.5q251 0 285 186h170q-27 -158 -149.5 -242.5
t-307.5 -84.5zM274 639h627q-22 309 -307 309q-129 0 -213.5 -82.5t-106.5 -226.5z" />
    <glyph glyph-name="uni00E9" unicode="&#xe9;" horiz-adv-x="1163" 
d="M518 1255l127 301h213l-213 -301h-127zM610 -18q-229 0 -373.5 148.5t-144.5 393.5v17q0 243 140.5 396t361.5 153q76 0 145 -18.5t131 -59.5t107 -101.5t71.5 -151t26.5 -202.5v-55h-807q6 -184 93.5 -281.5t250.5 -97.5q251 0 285 186h170q-27 -158 -149.5 -242.5
t-307.5 -84.5zM274 639h627q-22 309 -307 309q-129 0 -213.5 -82.5t-106.5 -226.5z" />
    <glyph glyph-name="uni00EA" unicode="&#xea;" horiz-adv-x="1163" 
d="M297 1255l221 295h154l219 -295h-125l-174 154l-174 -154h-121zM610 -18q-229 0 -373.5 148.5t-144.5 393.5v17q0 243 140.5 396t361.5 153q76 0 145 -18.5t131 -59.5t107 -101.5t71.5 -151t26.5 -202.5v-55h-807q6 -184 93.5 -281.5t250.5 -97.5q251 0 285 186h170
q-27 -158 -149.5 -242.5t-307.5 -84.5zM274 639h627q-22 309 -307 309q-129 0 -213.5 -82.5t-106.5 -226.5z" />
    <glyph glyph-name="uni00EB" unicode="&#xeb;" horiz-adv-x="1163" 
d="M401 1298q-44 0 -76 32.5t-32 76.5t32 76.5t76 32.5t76.5 -32.5t32.5 -76.5t-32.5 -76.5t-76.5 -32.5zM786 1298q-44 0 -76 32.5t-32 76.5t32 76.5t76 32.5t76.5 -32.5t32.5 -76.5t-32.5 -76.5t-76.5 -32.5zM610 -18q-229 0 -373.5 148.5t-144.5 393.5v17
q0 243 140.5 396t361.5 153q76 0 145 -18.5t131 -59.5t107 -101.5t71.5 -151t26.5 -202.5v-55h-807q6 -184 93.5 -281.5t250.5 -97.5q251 0 285 186h170q-27 -158 -149.5 -242.5t-307.5 -84.5zM274 639h627q-22 309 -307 309q-129 0 -213.5 -82.5t-106.5 -226.5z" />
    <glyph glyph-name="uni00EC" unicode="&#xec;" horiz-adv-x="522" 
d="M209 1255l-213 301h213l127 -301h-127zM176 0v1071h170v-1071h-170z" />
    <glyph glyph-name="uni00ED" unicode="&#xed;" horiz-adv-x="522" 
d="M184 1255l127 301h213l-213 -301h-127zM176 0v1071h170v-1071h-170z" />
    <glyph glyph-name="uni00EE" unicode="&#xee;" horiz-adv-x="522" 
d="M-37 1255l221 295h154l219 -295h-125l-174 154l-174 -154h-121zM176 0v1071h170v-1071h-170z" />
    <glyph glyph-name="uni00EF" unicode="&#xef;" horiz-adv-x="522" 
d="M76 1298q-44 0 -76.5 32.5t-32.5 76.5t32.5 76.5t76.5 32.5t76 -32.5t32 -76.5t-32 -76.5t-76 -32.5zM444 1298q-44 0 -76 32.5t-32 76.5t32 76.5t76 32.5t76.5 -32.5t32.5 -76.5t-32.5 -76.5t-76.5 -32.5zM176 0v1071h170v-1071h-170z" />
    <glyph glyph-name="uni00F0" unicode="&#xf0;" horiz-adv-x="1236" 
d="M379 1174l-60 98l199 117q-108 95 -254 194h219q97 -55 172 -113l170 101l60 -101l-137 -79q81 -75 148.5 -160t125.5 -187.5t90.5 -221.5t32.5 -240v-45q0 -242 -150 -398.5t-379 -156.5q-228 0 -376 154.5t-148 389.5v17q0 118 39.5 221t106 174t155.5 111.5t187 40.5
q189 0 309 -148q-94 186 -281 367zM618 123q160 0 255.5 110.5t95.5 292.5v15q0 186 -94 296.5t-254 110.5q-161 0 -257 -110t-96 -295v-17q0 -184 94 -293.5t256 -109.5z" />
    <glyph glyph-name="uni00F1" unicode="&#xf1;" horiz-adv-x="1224" 
d="M721 1268q-37 0 -80 22t-80 44t-61 22q-29 0 -51.5 -26t-30.5 -66h-123q12 108 69.5 172.5t137.5 64.5q37 0 79 -22t79 -44t61 -22q29 0 51.5 26t30.5 66h123q-12 -107 -69 -172t-136 -65zM172 0v1071h170v-170q40 81 129.5 135t214.5 54q175 0 276 -105t101 -328v-657
h-170v670q0 141 -61.5 206.5t-190.5 65.5q-126 0 -212.5 -77.5t-86.5 -215.5v-649h-170z" />
    <glyph glyph-name="uni00F2" unicode="&#xf2;" horiz-adv-x="1236" 
d="M567 1255l-213 301h213l127 -301h-127zM616 -18q-228 0 -376 154.5t-148 389.5v17q0 240 149 393.5t377 153.5q229 0 378 -152.5t149 -392.5v-17q0 -241 -149.5 -393.5t-379.5 -152.5zM618 123q160 0 255.5 110.5t95.5 292.5v15q0 186 -95.5 296.5t-255.5 110.5
q-161 0 -255.5 -110t-94.5 -295v-17q0 -184 94 -293.5t256 -109.5z" />
    <glyph glyph-name="uni00F3" unicode="&#xf3;" horiz-adv-x="1236" 
d="M543 1255l127 301h213l-213 -301h-127zM616 -18q-228 0 -376 154.5t-148 389.5v17q0 240 149 393.5t377 153.5q229 0 378 -152.5t149 -392.5v-17q0 -241 -149.5 -393.5t-379.5 -152.5zM618 123q160 0 255.5 110.5t95.5 292.5v15q0 186 -95.5 296.5t-255.5 110.5
q-161 0 -255.5 -110t-94.5 -295v-17q0 -184 94 -293.5t256 -109.5z" />
    <glyph glyph-name="uni00F4" unicode="&#xf4;" horiz-adv-x="1236" 
d="M322 1255l221 295h153l219 -295h-124l-175 154l-174 -154h-120zM616 -18q-228 0 -376 154.5t-148 389.5v17q0 240 149 393.5t377 153.5q229 0 378 -152.5t149 -392.5v-17q0 -241 -149.5 -393.5t-379.5 -152.5zM618 123q160 0 255.5 110.5t95.5 292.5v15
q0 186 -95.5 296.5t-255.5 110.5q-161 0 -255.5 -110t-94.5 -295v-17q0 -184 94 -293.5t256 -109.5z" />
    <glyph glyph-name="uni00F5" unicode="&#xf5;" horiz-adv-x="1236" 
d="M729 1268q-37 0 -80 22t-80 44t-61 22q-29 0 -51.5 -26t-30.5 -66h-123q12 108 69.5 172.5t137.5 64.5q37 0 79 -22t79 -44t61 -22q29 0 51.5 26t30.5 66h123q-12 -107 -69 -172t-136 -65zM616 -18q-228 0 -376 154.5t-148 389.5v17q0 240 149 393.5t377 153.5
q229 0 378 -152.5t149 -392.5v-17q0 -241 -149.5 -393.5t-379.5 -152.5zM618 123q160 0 255.5 110.5t95.5 292.5v15q0 186 -95.5 296.5t-255.5 110.5q-161 0 -255.5 -110t-94.5 -295v-17q0 -184 94 -293.5t256 -109.5z" />
    <glyph glyph-name="uni00F6" unicode="&#xf6;" horiz-adv-x="1236" 
d="M426 1298q-44 0 -76.5 32.5t-32.5 76.5t32.5 76.5t76.5 32.5t76.5 -32.5t32.5 -76.5t-32.5 -76.5t-76.5 -32.5zM811 1298q-44 0 -76.5 32.5t-32.5 76.5t32.5 76.5t76.5 32.5t76.5 -32.5t32.5 -76.5t-32.5 -76.5t-76.5 -32.5zM616 -18q-228 0 -376 154.5t-148 389.5v17
q0 240 149 393.5t377 153.5q229 0 378 -152.5t149 -392.5v-17q0 -241 -149.5 -393.5t-379.5 -152.5zM618 123q160 0 255.5 110.5t95.5 292.5v15q0 186 -95.5 296.5t-255.5 110.5q-161 0 -255.5 -110t-94.5 -295v-17q0 -184 94 -293.5t256 -109.5z" />
    <glyph glyph-name="uni00F7" unicode="&#xf7;" horiz-adv-x="1062" 
d="M530 956q-54 0 -92.5 38t-38.5 93t38.5 93.5t92.5 38.5t93 -38.5t39 -93.5t-39 -93t-93 -38zM74 629v143h915v-143h-915zM530 182q-54 0 -92.5 38t-38.5 93t38.5 93t92.5 38t93 -38t39 -93t-39 -93t-93 -38z" />
    <glyph glyph-name="uni00F8" unicode="&#xf8;" horiz-adv-x="1236" 
d="M137 -76l-90 78l158 174q-113 144 -113 350v17q0 240 149 393.5t377 153.5q186 0 320 -103l139 152l90 -78l-143 -158q121 -150 121 -358v-17q0 -241 -149.5 -393.5t-379.5 -152.5q-189 0 -327 110zM268 526q0 -133 49 -227l519 573q-88 76 -218 76q-161 0 -255.5 -110
t-94.5 -295v-17zM618 123q160 0 255.5 110.5t95.5 292.5v15q0 133 -56 239l-524 -575q91 -82 229 -82z" />
    <glyph glyph-name="uni00F9" unicode="&#xf9;" horiz-adv-x="1216" 
d="M557 1255l-213 301h213l127 -301h-127zM535 -18q-170 0 -271.5 100t-101.5 311v678h170v-670q0 -140 60.5 -206t187.5 -66q122 0 208 77.5t86 215.5v649h170v-1071h-170v170q-40 -81 -128.5 -134.5t-210.5 -53.5z" />
    <glyph glyph-name="uni00FA" unicode="&#xfa;" horiz-adv-x="1216" 
d="M532 1255l127 301h213l-213 -301h-127zM535 -18q-170 0 -271.5 100t-101.5 311v678h170v-670q0 -140 60.5 -206t187.5 -66q122 0 208 77.5t86 215.5v649h170v-1071h-170v170q-40 -81 -128.5 -134.5t-210.5 -53.5z" />
    <glyph glyph-name="uni00FB" unicode="&#xfb;" horiz-adv-x="1216" 
d="M311 1255l221 295h154l219 -295h-125l-174 154l-174 -154h-121zM535 -18q-170 0 -271.5 100t-101.5 311v678h170v-670q0 -140 60.5 -206t187.5 -66q122 0 208 77.5t86 215.5v649h170v-1071h-170v170q-40 -81 -128.5 -134.5t-210.5 -53.5z" />
    <glyph glyph-name="uni00FC" unicode="&#xfc;" horiz-adv-x="1216" 
d="M416 1298q-44 0 -76.5 32.5t-32.5 76.5t32.5 76.5t76.5 32.5t76 -32.5t32 -76.5t-32 -76.5t-76 -32.5zM801 1298q-44 0 -76.5 32.5t-32.5 76.5t32.5 76.5t76.5 32.5t76 -32.5t32 -76.5t-32 -76.5t-76 -32.5zM535 -18q-170 0 -271.5 100t-101.5 311v678h170v-670
q0 -140 60.5 -206t187.5 -66q122 0 208 77.5t86 215.5v649h170v-1071h-170v170q-40 -81 -128.5 -134.5t-210.5 -53.5z" />
    <glyph glyph-name="uni00FD" unicode="&#xfd;" horiz-adv-x="1083" 
d="M481 1255l127 301h213l-213 -301h-127zM268 -373l203 484l-420 960h182l328 -768l297 768h174l-592 -1444h-172z" />
    <glyph glyph-name="uni00FE" unicode="&#xfe;" horiz-adv-x="1284" 
d="M172 -373v1956h170v-692q48 82 149.5 140.5t213.5 58.5q215 0 351 -146.5t136 -392.5v-16q0 -247 -133.5 -400t-353.5 -153q-125 0 -219.5 54.5t-143.5 139.5v-549h-170zM688 123q159 0 243.5 104t84.5 299v17q0 194 -94 299.5t-236 105.5q-156 0 -253 -103.5t-97 -301.5
v-17q0 -199 95 -301t257 -102z" />
    <glyph glyph-name="uni00FF" unicode="&#xff;" horiz-adv-x="1083" 
d="M365 1298q-44 0 -76.5 32.5t-32.5 76.5t32.5 76.5t76.5 32.5t76 -32.5t32 -76.5t-32 -76.5t-76 -32.5zM750 1298q-44 0 -76.5 32.5t-32.5 76.5t32.5 76.5t76.5 32.5t76 -32.5t32 -76.5t-32 -76.5t-76 -32.5zM268 -373l203 484l-420 960h182l328 -768l297 768h174
l-592 -1444h-172z" />
    <glyph glyph-name="uni0100" unicode="&#x100;" horiz-adv-x="1380" 
d="M418 1610v131h545v-131h-545zM74 0l504 1464h233l496 -1464h-177l-143 422h-604l-141 -422h-168zM686 1317l-254 -754h508z" />
    <glyph glyph-name="uni0101" unicode="&#x101;" horiz-adv-x="1105" 
d="M287 1327v131h536v-131h-536zM440 -18q-103 0 -181 32t-126.5 104.5t-48.5 178.5q0 89 44.5 155.5t122 104t170 55t200.5 17.5h153v78q0 128 -53 184.5t-176 56.5q-223 0 -246 -192h-170q8 88 46 154.5t97.5 104.5t129.5 56.5t151 18.5q65 0 120 -11t106 -38t86.5 -69.5
t57 -110t21.5 -154.5v-707h-170v135q-62 -78 -140.5 -115.5t-193.5 -37.5zM457 117q139 0 228 68.5t89 189.5v133h-147q-373 0 -373 -211q0 -88 47.5 -134t155.5 -46z" />
    <glyph glyph-name="uni0102" unicode="&#x102;" horiz-adv-x="1380" 
d="M686 1571q-110 0 -187 76.5t-83 193.5h135q23 -131 135 -131q122 0 148 131h131q-6 -116 -87 -193t-192 -77zM74 0l504 1464h233l496 -1464h-177l-143 422h-604l-141 -422h-168zM686 1317l-254 -754h508z" />
    <glyph glyph-name="uni0103" unicode="&#x103;" horiz-adv-x="1105" 
d="M551 1268q-110 0 -187 76.5t-83 193.5h135q23 -131 135 -131q121 0 147 131h131q-6 -116 -86.5 -193t-191.5 -77zM440 -18q-103 0 -181 32t-126.5 104.5t-48.5 178.5q0 89 44.5 155.5t122 104t170 55t200.5 17.5h153v78q0 128 -53 184.5t-176 56.5q-223 0 -246 -192h-170
q8 88 46 154.5t97.5 104.5t129.5 56.5t151 18.5q65 0 120 -11t106 -38t86.5 -69.5t57 -110t21.5 -154.5v-707h-170v135q-62 -78 -140.5 -115.5t-193.5 -37.5zM457 117q139 0 228 68.5t89 189.5v133h-147q-373 0 -373 -211q0 -88 47.5 -134t155.5 -46z" />
    <glyph glyph-name="uni0104" unicode="&#x104;" horiz-adv-x="1380" 
d="M1198 -373q-96 0 -154.5 44t-58.5 120q0 60 41.5 114.5t106.5 88.5l-146 428h-604l-141 -422h-168l504 1464h233l494 -1458q-84 -49 -121 -92t-37 -90q0 -74 78 -74q61 0 106 23v-121q-63 -25 -133 -25zM686 1317l-254 -754h508z" />
    <glyph glyph-name="uni0105" unicode="&#x105;" horiz-adv-x="1105" 
d="M834 -373q-96 0 -154.5 44t-58.5 120q0 62 42.5 117t110.5 90v137q-62 -78 -140.5 -115.5t-193.5 -37.5q-103 0 -181 32t-126.5 104.5t-48.5 178.5q0 89 44.5 155.5t122 104t170 55t200.5 17.5h153v78q0 128 -53 184.5t-176 56.5q-223 0 -246 -192h-170q8 88 46 154.5
t97.5 104.5t129.5 56.5t151 18.5q65 0 120 -11t106 -38t86.5 -69.5t57 -110t21.5 -154.5v-699q-162 -92 -162 -184q0 -74 78 -74q62 0 107 23v-121q-63 -25 -133 -25zM457 117q139 0 228 68.5t89 189.5v133h-147q-373 0 -373 -211q0 -88 47.5 -134t155.5 -46z" />
    <glyph glyph-name="uni0106" unicode="&#x106;" horiz-adv-x="1495" 
d="M729 1579l115 260h213l-201 -260h-127zM797 -18q-317 0 -500.5 200.5t-183.5 540.5v16q0 214 88.5 385t246 267t353.5 96q156 0 282.5 -52.5t211.5 -162.5t100 -264h-176q-28 170 -129.5 254t-286.5 84q-228 0 -367 -164.5t-139 -440.5v-16q0 -280 134 -439t370 -159
q183 0 299 91t143 267h166q-37 -248 -198.5 -375.5t-413.5 -127.5z" />
    <glyph glyph-name="uni0107" unicode="&#x107;" horiz-adv-x="1167" 
d="M535 1255l127 301h212l-212 -301h-127zM616 -18q-228 0 -376 148.5t-148 393.5v17q0 120 41 223.5t111 174.5t165.5 111t202.5 40q87 0 163 -21t140.5 -64t107 -117t54.5 -173h-168q-19 121 -98.5 177t-198.5 56q-150 0 -247 -111t-97 -296v-17q0 -192 95.5 -296.5
t254.5 -104.5q120 0 207.5 68.5t100.5 193.5h157q-17 -176 -146.5 -289.5t-320.5 -113.5z" />
    <glyph glyph-name="uni0108" unicode="&#x108;" horiz-adv-x="1495" 
d="M508 1579l221 260h154l219 -260h-125l-174 119l-174 -119h-121zM797 -18q-317 0 -500.5 200.5t-183.5 540.5v16q0 214 88.5 385t246 267t353.5 96q156 0 282.5 -52.5t211.5 -162.5t100 -264h-176q-28 170 -129.5 254t-286.5 84q-228 0 -367 -164.5t-139 -440.5v-16
q0 -280 134 -439t370 -159q183 0 299 91t143 267h166q-37 -248 -198.5 -375.5t-413.5 -127.5z" />
    <glyph glyph-name="uni0109" unicode="&#x109;" horiz-adv-x="1167" 
d="M313 1255l222 295h153l219 -295h-125l-174 154l-174 -154h-121zM616 -18q-228 0 -376 148.5t-148 393.5v17q0 120 41 223.5t111 174.5t165.5 111t202.5 40q87 0 163 -21t140.5 -64t107 -117t54.5 -173h-168q-19 121 -98.5 177t-198.5 56q-150 0 -247 -111t-97 -296v-17
q0 -192 95.5 -296.5t254.5 -104.5q120 0 207.5 68.5t100.5 193.5h157q-17 -176 -146.5 -289.5t-320.5 -113.5z" />
    <glyph glyph-name="uni010A" unicode="&#x10a;" horiz-adv-x="1495" 
d="M797 1612q-46 0 -79.5 33t-33.5 79t33.5 79.5t79.5 33.5t79 -33.5t33 -79.5t-33 -79t-79 -33zM797 -18q-317 0 -500.5 200.5t-183.5 540.5v16q0 214 88.5 385t246 267t353.5 96q156 0 282.5 -52.5t211.5 -162.5t100 -264h-176q-28 170 -129.5 254t-286.5 84
q-228 0 -367 -164.5t-139 -440.5v-16q0 -280 134 -439t370 -159q183 0 299 91t143 267h166q-37 -248 -198.5 -375.5t-413.5 -127.5z" />
    <glyph glyph-name="uni010B" unicode="&#x10b;" horiz-adv-x="1167" 
d="M610 1294q-46 0 -79 33.5t-33 79.5t33 79.5t79 33.5t79.5 -33.5t33.5 -79.5t-33.5 -79.5t-79.5 -33.5zM616 -18q-228 0 -376 148.5t-148 393.5v17q0 120 41 223.5t111 174.5t165.5 111t202.5 40q87 0 163 -21t140.5 -64t107 -117t54.5 -173h-168q-19 121 -98.5 177
t-198.5 56q-150 0 -247 -111t-97 -296v-17q0 -192 95.5 -296.5t254.5 -104.5q120 0 207.5 68.5t100.5 193.5h157q-17 -176 -146.5 -289.5t-320.5 -113.5z" />
    <glyph glyph-name="uni010C" unicode="&#x10c;" horiz-adv-x="1495" 
d="M727 1579l-219 260h125l174 -119l174 119h121l-221 -260h-154zM797 -18q-317 0 -500.5 200.5t-183.5 540.5v16q0 214 88.5 385t246 267t353.5 96q156 0 282.5 -52.5t211.5 -162.5t100 -264h-176q-28 170 -129.5 254t-286.5 84q-228 0 -367 -164.5t-139 -440.5v-16
q0 -280 134 -439t370 -159q183 0 299 91t143 267h166q-37 -248 -198.5 -375.5t-413.5 -127.5z" />
    <glyph glyph-name="uni010D" unicode="&#x10d;" horiz-adv-x="1167" 
d="M532 1255l-219 295h125l174 -153l174 153h121l-221 -295h-154zM616 -18q-228 0 -376 148.5t-148 393.5v17q0 120 41 223.5t111 174.5t165.5 111t202.5 40q87 0 163 -21t140.5 -64t107 -117t54.5 -173h-168q-19 121 -98.5 177t-198.5 56q-150 0 -247 -111t-97 -296v-17
q0 -192 95.5 -296.5t254.5 -104.5q120 0 207.5 68.5t100.5 193.5h157q-17 -176 -146.5 -289.5t-320.5 -113.5z" />
    <glyph glyph-name="uni010E" unicode="&#x10e;" horiz-adv-x="1425" 
d="M569 1579l-219 260h125l174 -119l174 119h121l-221 -260h-154zM184 0v1464h387q184 0 327.5 -54.5t233 -152.5t135.5 -227.5t46 -284.5v-18q0 -123 -28 -231.5t-87.5 -200t-146.5 -157t-210.5 -102t-273.5 -36.5h-383zM362 145h201q277 0 421 155t144 429v16
q0 130 -32.5 233t-99.5 181t-177 120t-258 42h-199v-1176z" />
    <glyph glyph-name="uni010F" unicode="&#x10f;" horiz-adv-x="1284" 
d="M575 -18q-215 0 -349 143t-134 389v16q0 246 139.5 403t360.5 157q125 0 212.5 -52.5t137.5 -138.5v684h170v-1583h-170v184q-48 -82 -151.5 -142t-215.5 -60zM1210 1225l25 358h192l-98 -358h-119zM594 123q157 0 255.5 104t98.5 301v17q0 201 -89.5 302t-250.5 101
q-160 0 -250 -107.5t-90 -301.5v-17q0 -194 91.5 -296.5t234.5 -102.5z" />
    <glyph glyph-name="uni0110" unicode="&#x110;" horiz-adv-x="1466" 
d="M70 666v137h155v661h387q184 0 327.5 -54.5t233 -152.5t135.5 -227.5t46 -284.5v-18q0 -123 -28 -231.5t-87.5 -200t-146.5 -157t-210.5 -102t-273.5 -36.5h-383v666h-155zM403 145h201q277 0 421 155t144 429v16q0 130 -32.5 233t-99.5 181t-177 120t-258 42h-199v-518
h424v-137h-424v-521z" />
    <glyph glyph-name="uni0111" unicode="&#x111;" horiz-adv-x="1284" 
d="M578 1260v124h364v199h170v-199h154v-124h-154v-1260h-170v184q-48 -82 -151.5 -142t-215.5 -60q-215 0 -349 143t-134 389v16q0 246 139.5 403t360.5 157q125 0 212.5 -52.5t137.5 -138.5v361h-364zM594 123q157 0 255.5 104t98.5 301v17q0 201 -89.5 302t-250.5 101
q-160 0 -250 -107.5t-90 -301.5v-17q0 -194 91.5 -296.5t234.5 -102.5z" />
    <glyph glyph-name="uni0112" unicode="&#x112;" horiz-adv-x="1159" 
d="M354 1610v131h545v-131h-545zM184 0v1464h854v-145h-676v-498h545v-145h-545v-531h713v-145h-891z" />
    <glyph glyph-name="uni0113" unicode="&#x113;" horiz-adv-x="1163" 
d="M326 1327v131h536v-131h-536zM610 -18q-229 0 -373.5 148.5t-144.5 393.5v17q0 243 140.5 396t361.5 153q76 0 145 -18.5t131 -59.5t107 -101.5t71.5 -151t26.5 -202.5v-55h-807q6 -184 93.5 -281.5t250.5 -97.5q251 0 285 186h170q-27 -158 -149.5 -242.5t-307.5 -84.5z
M274 639h627q-22 309 -307 309q-129 0 -213.5 -82.5t-106.5 -226.5z" />
    <glyph glyph-name="uni0114" unicode="&#x114;" horiz-adv-x="1159" 
d="M637 1571q-110 0 -187 76.5t-83 193.5h135q23 -131 135 -131q121 0 147 131h131q-6 -116 -86.5 -193t-191.5 -77zM184 0v1464h854v-145h-676v-498h545v-145h-545v-531h713v-145h-891z" />
    <glyph glyph-name="uni0115" unicode="&#x115;" horiz-adv-x="1163" 
d="M573 1268q-110 0 -187 76.5t-83 193.5h135q23 -131 135 -131q122 0 148 131h131q-6 -116 -87 -193t-192 -77zM610 -18q-229 0 -373.5 148.5t-144.5 393.5v17q0 243 140.5 396t361.5 153q76 0 145 -18.5t131 -59.5t107 -101.5t71.5 -151t26.5 -202.5v-55h-807
q6 -184 93.5 -281.5t250.5 -97.5q251 0 285 186h170q-27 -158 -149.5 -242.5t-307.5 -84.5zM274 639h627q-22 309 -307 309q-129 0 -213.5 -82.5t-106.5 -226.5z" />
    <glyph glyph-name="uni0116" unicode="&#x116;" horiz-adv-x="1159" 
d="M627 1612q-46 0 -79.5 33t-33.5 79t33.5 79.5t79.5 33.5t79 -33.5t33 -79.5t-33 -79t-79 -33zM184 0v1464h854v-145h-676v-498h545v-145h-545v-531h713v-145h-891z" />
    <glyph glyph-name="uni0117" unicode="&#x117;" horiz-adv-x="1163" 
d="M594 1294q-46 0 -79.5 33.5t-33.5 79.5t33.5 79.5t79.5 33.5t79.5 -33.5t33.5 -79.5t-33.5 -79.5t-79.5 -33.5zM610 -18q-229 0 -373.5 148.5t-144.5 393.5v17q0 243 140.5 396t361.5 153q76 0 145 -18.5t131 -59.5t107 -101.5t71.5 -151t26.5 -202.5v-55h-807
q6 -184 93.5 -281.5t250.5 -97.5q251 0 285 186h170q-27 -158 -149.5 -242.5t-307.5 -84.5zM274 639h627q-22 309 -307 309q-129 0 -213.5 -82.5t-106.5 -226.5z" />
    <glyph glyph-name="uni0118" unicode="&#x118;" horiz-adv-x="1159" 
d="M930 -373q-96 0 -154.5 44t-58.5 120q0 63 45 119t115 90h-693v1464h854v-145h-676v-498h545v-145h-545v-531h713v-145h-57q-71 -47 -105 -88.5t-34 -87.5q0 -74 77 -74q62 0 107 23v-121q-62 -25 -133 -25z" />
    <glyph glyph-name="uni0119" unicode="&#x119;" horiz-adv-x="1163" 
d="M795 -373q-96 0 -154.5 44t-58.5 120q0 59 39 112t102 87q-49 -8 -113 -8q-229 0 -373.5 148.5t-144.5 393.5v17q0 243 140.5 396t361.5 153q76 0 145 -18.5t131 -59.5t107 -101.5t71.5 -151t26.5 -202.5v-55h-807q6 -184 93.5 -281.5t250.5 -97.5q251 0 285 186h170
q-5 -27 -12 -51.5t-17.5 -46.5t-19 -39t-24 -36t-23 -29.5t-25.5 -27t-23 -21t-23 -19.5t-19 -16q-138 -117 -138 -199q0 -74 78 -74q62 0 107 23v-121q-62 -25 -133 -25zM274 639h627q-22 309 -307 309q-129 0 -213.5 -82.5t-106.5 -226.5z" />
    <glyph glyph-name="uni011A" unicode="&#x11a;" horiz-adv-x="1159" 
d="M557 1579l-219 260h125l174 -119l174 119h121l-221 -260h-154zM184 0v1464h854v-145h-676v-498h545v-145h-545v-531h713v-145h-891z" />
    <glyph glyph-name="uni011B" unicode="&#x11b;" horiz-adv-x="1163" 
d="M516 1255l-219 295h125l174 -153l174 153h121l-221 -295h-154zM610 -18q-229 0 -373.5 148.5t-144.5 393.5v17q0 243 140.5 396t361.5 153q76 0 145 -18.5t131 -59.5t107 -101.5t71.5 -151t26.5 -202.5v-55h-807q6 -184 93.5 -281.5t250.5 -97.5q251 0 285 186h170
q-27 -158 -149.5 -242.5t-307.5 -84.5zM274 639h627q-22 309 -307 309q-129 0 -213.5 -82.5t-106.5 -226.5z" />
    <glyph glyph-name="uni011C" unicode="&#x11c;" horiz-adv-x="1570" 
d="M512 1579l221 260h154l219 -260h-125l-174 119l-174 -119h-121zM821 -18q-220 0 -382 96.5t-244 263t-82 381.5v16q0 212 88.5 382.5t251 268t368.5 97.5q112 0 210 -27t179.5 -81.5t136 -145.5t70.5 -211h-178q-30 168 -138 246t-276 78q-248 0 -388 -166t-140 -439v-16
q0 -277 135.5 -438.5t388.5 -161.5q116 0 204.5 36t143 100.5t83 147.5t30.5 183h-428v147h602v-108q0 -208 -81 -355.5t-223 -220.5t-331 -73z" />
    <glyph glyph-name="uni011D" unicode="&#x11d;" horiz-adv-x="1284" 
d="M305 1255l221 295h154l219 -295h-125l-174 154l-174 -154h-121zM600 -391q-224 0 -342.5 91.5t-142.5 238.5h174q38 -187 309 -187q164 0 254 81.5t90 248.5v156q-49 -83 -149.5 -143t-212.5 -60q-211 0 -349.5 143.5t-138.5 364.5v14q0 145 62.5 266.5t178 194
t259.5 72.5q125 0 212.5 -52.5t137.5 -138.5v172h170v-999q-1 -226 -140.5 -344.5t-371.5 -118.5zM598 176q153 0 251.5 101.5t98.5 277.5v14q0 179 -91 279t-249 100q-157 0 -248.5 -106t-91.5 -277v-16q0 -170 95 -271.5t235 -101.5z" />
    <glyph glyph-name="uni011E" unicode="&#x11e;" horiz-adv-x="1570" 
d="M805 1571q-110 0 -187 76.5t-83 193.5h135q23 -131 135 -131q121 0 147 131h131q-6 -116 -86.5 -193t-191.5 -77zM821 -18q-220 0 -382 96.5t-244 263t-82 381.5v16q0 212 88.5 382.5t251 268t368.5 97.5q112 0 210 -27t179.5 -81.5t136 -145.5t70.5 -211h-178
q-30 168 -138 246t-276 78q-248 0 -388 -166t-140 -439v-16q0 -277 135.5 -438.5t388.5 -161.5q116 0 204.5 36t143 100.5t83 147.5t30.5 183h-428v147h602v-108q0 -208 -81 -355.5t-223 -220.5t-331 -73z" />
    <glyph glyph-name="uni011F" unicode="&#x11f;" horiz-adv-x="1284" 
d="M598 1268q-110 0 -187 76.5t-83 193.5h135q23 -131 135 -131q121 0 147 131h132q-6 -116 -87 -193t-192 -77zM600 -391q-224 0 -342.5 91.5t-142.5 238.5h174q38 -187 309 -187q164 0 254 81.5t90 248.5v156q-49 -83 -149.5 -143t-212.5 -60q-211 0 -349.5 143.5
t-138.5 364.5v14q0 145 62.5 266.5t178 194t259.5 72.5q125 0 212.5 -52.5t137.5 -138.5v172h170v-999q-1 -226 -140.5 -344.5t-371.5 -118.5zM598 176q153 0 251.5 101.5t98.5 277.5v14q0 179 -91 279t-249 100q-157 0 -248.5 -106t-91.5 -277v-16q0 -170 95 -271.5
t235 -101.5z" />
    <glyph glyph-name="uni0120" unicode="&#x120;" horiz-adv-x="1570" 
d="M809 1612q-46 0 -79.5 33t-33.5 79t33.5 79.5t79.5 33.5t79.5 -33.5t33.5 -79.5t-33.5 -79t-79.5 -33zM821 -18q-220 0 -382 96.5t-244 263t-82 381.5v16q0 212 88.5 382.5t251 268t368.5 97.5q112 0 210 -27t179.5 -81.5t136 -145.5t70.5 -211h-178q-30 168 -138 246
t-276 78q-248 0 -388 -166t-140 -439v-16q0 -277 135.5 -438.5t388.5 -161.5q116 0 204.5 36t143 100.5t83 147.5t30.5 183h-428v147h602v-108q0 -208 -81 -355.5t-223 -220.5t-331 -73z" />
    <glyph glyph-name="uni0121" unicode="&#x121;" horiz-adv-x="1284" 
d="M602 1294q-46 0 -79.5 33.5t-33.5 79.5t33.5 79.5t79.5 33.5t79.5 -33.5t33.5 -79.5t-33.5 -79.5t-79.5 -33.5zM600 -391q-224 0 -342.5 91.5t-142.5 238.5h174q38 -187 309 -187q164 0 254 81.5t90 248.5v156q-49 -83 -149.5 -143t-212.5 -60q-211 0 -349.5 143.5
t-138.5 364.5v14q0 145 62.5 266.5t178 194t259.5 72.5q125 0 212.5 -52.5t137.5 -138.5v172h170v-999q-1 -226 -140.5 -344.5t-371.5 -118.5zM598 176q153 0 251.5 101.5t98.5 277.5v14q0 179 -91 279t-249 100q-157 0 -248.5 -106t-91.5 -277v-16q0 -170 95 -271.5
t235 -101.5z" />
    <glyph glyph-name="uni0122" unicode="&#x122;" horiz-adv-x="1570" 
d="M821 -18q-220 0 -382 96.5t-244 263t-82 381.5v16q0 212 88.5 382.5t251 268t368.5 97.5q112 0 210 -27t179.5 -81.5t136 -145.5t70.5 -211h-178q-30 168 -138 246t-276 78q-248 0 -388 -166t-140 -439v-16q0 -277 135.5 -438.5t388.5 -161.5q116 0 204.5 36t143 100.5
t83 147.5t30.5 183h-428v147h602v-108q0 -208 -81 -355.5t-223 -220.5t-331 -73zM741 -451l-104 54l119 321l164 -49z" />
    <glyph glyph-name="uni0123" unicode="&#x123;" horiz-adv-x="1284" 
d="M684 1233l-164 49l178 326l105 -54zM600 -391q-224 0 -342.5 91.5t-142.5 238.5h174q38 -187 309 -187q164 0 254 81.5t90 248.5v156q-49 -83 -149.5 -143t-212.5 -60q-211 0 -349.5 143.5t-138.5 364.5v14q0 145 62.5 266.5t178 194t259.5 72.5q125 0 212.5 -52.5
t137.5 -138.5v172h170v-999q-1 -226 -140.5 -344.5t-371.5 -118.5zM598 176q153 0 251.5 101.5t98.5 277.5v14q0 179 -91 279t-249 100q-157 0 -248.5 -106t-91.5 -277v-16q0 -170 95 -271.5t235 -101.5z" />
    <glyph glyph-name="uni0124" unicode="&#x124;" horiz-adv-x="1495" 
d="M451 1579l221 260h153l219 -260h-124l-175 119l-174 -119h-120zM184 0v1464h178v-663h771v663h178v-1464h-178v651h-771v-651h-178z" />
    <glyph glyph-name="uni0125" unicode="&#x125;" horiz-adv-x="1224" 
d="M344 1681l221 261h154l219 -261h-125l-174 119l-174 -119h-121zM172 0v1583h170v-682q40 81 129.5 135t214.5 54q175 0 276 -105t101 -328v-657h-170v670q0 141 -61.5 206.5t-190.5 65.5q-126 0 -212.5 -77.5t-86.5 -215.5v-649h-170z" />
    <glyph glyph-name="uni0126" unicode="&#x126;" horiz-adv-x="1495" 
d="M41 1010v137h143v317h178v-317h771v317h178v-317h143v-137h-143v-1010h-178v651h-771v-651h-178v1010h-143zM362 801h771v209h-771v-209z" />
    <glyph glyph-name="uni0127" unicode="&#x127;" horiz-adv-x="1224" 
d="M18 1260v124h154v199h170v-199h365v-124h-365v-359q40 81 129.5 135t214.5 54q175 0 276 -105t101 -328v-657h-170v670q0 141 -61.5 206.5t-190.5 65.5q-126 0 -212.5 -77.5t-86.5 -215.5v-649h-170v1260h-154z" />
    <glyph glyph-name="uni0128" unicode="&#x128;" horiz-adv-x="567" 
d="M397 1585q-37 0 -80 22t-80 44t-61 22q-29 0 -51.5 -26t-30.5 -66h-123q12 108 69.5 173t137.5 65q37 0 79 -22t79 -44t61 -22q29 0 51.5 26t30.5 66h123q-12 -108 -69 -173t-136 -65zM195 0v1464h178v-1464h-178z" />
    <glyph glyph-name="uni0129" unicode="&#x129;" horiz-adv-x="522" 
d="M373 1268q-37 0 -80 22t-80 44t-61 22q-29 0 -51.5 -26t-30.5 -66h-123q12 108 69.5 172.5t137.5 64.5q37 0 79 -22t79 -44t61 -22q29 0 51.5 26t30.5 66h123q-12 -107 -69 -172t-136 -65zM176 0v1071h170v-1071h-170z" />
    <glyph glyph-name="uni012A" unicode="&#x12a;" horiz-adv-x="567" 
d="M10 1610v131h545v-131h-545zM195 0v1464h178v-1464h-178z" />
    <glyph glyph-name="uni012B" unicode="&#x12b;" horiz-adv-x="522" 
d="M61 1327v131h398v-131h-398zM176 0v1071h170v-1071h-170z" />
    <glyph glyph-name="uni012C" unicode="&#x12c;" horiz-adv-x="567" 
d="M283 1571q-111 0 -188 76.5t-83 193.5h135q23 -131 136 -131q121 0 147 131h131q-6 -116 -86.5 -193t-191.5 -77zM195 0v1464h178v-1464h-178z" />
    <glyph glyph-name="uni012D" unicode="&#x12d;" horiz-adv-x="522" 
d="M258 1268q-110 0 -187 76.5t-83 193.5h135q23 -131 135 -131q122 0 148 131h131q-6 -116 -87 -193t-192 -77zM176 0v1071h170v-1071h-170z" />
    <glyph glyph-name="uni012E" unicode="&#x12e;" horiz-adv-x="567" 
d="M266 -373q-96 0 -154.5 44t-58.5 120q0 59 39.5 112.5t102.5 88.5v1472h178v-1456q-158 -90 -158 -184q0 -74 78 -74q61 0 106 23v-121q-62 -25 -133 -25z" />
    <glyph glyph-name="uni012F" unicode="&#x12f;" horiz-adv-x="522" 
d="M258 1294q-46 0 -79.5 33.5t-33.5 79.5t33.5 79.5t79.5 33.5t79.5 -33.5t33.5 -79.5t-33.5 -79.5t-79.5 -33.5zM246 -373q-96 0 -154.5 44t-58.5 120q0 61 39.5 114t103.5 87v1079h170v-1065q-151 -91 -151 -182q0 -74 77 -74q62 0 107 23v-121q-62 -25 -133 -25z" />
    <glyph glyph-name="uni0130" unicode="&#x130;" horiz-adv-x="567" 
d="M283 1612q-46 0 -79.5 33t-33.5 79t33.5 79.5t79.5 33.5t79 -33.5t33 -79.5t-33 -79t-79 -33zM195 0v1464h178v-1464h-178z" />
    <glyph glyph-name="uni0131" unicode="&#x131;" horiz-adv-x="522" 
d="M176 0v1071h170v-1071h-170z" />
    <glyph glyph-name="uni0132" unicode="&#x132;" horiz-adv-x="1345" 
d="M195 0v1464h178v-1464h-178zM768 -18q-131 0 -205 38v148q94 -41 195 -41q237 0 237 279v1058h179v-1067q0 -107 -31.5 -188t-88 -130t-128.5 -73t-158 -24z" />
    <glyph glyph-name="uni0133" unicode="&#x133;" horiz-adv-x="522" 
d="M258 1294q-46 0 -79.5 33.5t-33.5 79.5t33.5 79.5t79.5 33.5t79.5 -33.5t33.5 -79.5t-33.5 -79.5t-79.5 -33.5zM780 1294q-46 0 -79 33.5t-33 79.5t33 79.5t79 33.5t79.5 -33.5t33.5 -79.5t-33.5 -79.5t-79.5 -33.5zM176 0v1071h170v-1071h-170zM541 -391v143
q86 7 121.5 49t35.5 117v1153h170v-1139q0 -158 -76.5 -237.5t-250.5 -85.5z" />
    <glyph glyph-name="uni0134" unicode="&#x134;" horiz-adv-x="860" 
d="M297 1579l221 260h154l219 -260h-125l-174 119l-174 -119h-121zM283 -18q-131 0 -205 38v148q94 -41 194 -41q113 0 175.5 68t62.5 211v1058h178v-1067q0 -107 -31.5 -188t-87.5 -130t-128 -73t-158 -24z" />
    <glyph glyph-name="uni0135" unicode="&#x135;" horiz-adv-x="522" 
d="M-39 1255l221 295h154l219 -295h-125l-174 154l-174 -154h-121zM18 -391v143q86 7 122 49t36 117v1153h170v-1139q0 -158 -77 -237.5t-251 -85.5z" />
    <glyph glyph-name="uni0136" unicode="&#x136;" horiz-adv-x="1261" 
d="M184 0v1464h178v-704l637 706h199l-651 -712l684 -754h-215l-654 715v-715h-178zM592 -451l-105 54l119 321l164 -49z" />
    <glyph glyph-name="uni0137" unicode="&#x137;" horiz-adv-x="1056" 
d="M172 0v1583h170v-1005l444 493h199l-459 -498l498 -573h-207l-475 555v-555h-170zM485 -451l-104 54l119 321l164 -49z" />
    <glyph glyph-name="uni0139" unicode="&#x139;" horiz-adv-x="1095" 
d="M201 1579l114 260h213l-200 -260h-127zM184 0v1464h178v-1319h670v-145h-848z" />
    <glyph glyph-name="uni013A" unicode="&#x13a;" horiz-adv-x="524" 
d="M188 1681l115 261h213l-201 -261h-127zM176 0v1583h172v-1583h-172z" />
    <glyph glyph-name="uni013B" unicode="&#x13b;" horiz-adv-x="1095" 
d="M184 0v1464h178v-1319h670v-145h-848zM543 -451l-105 54l119 321l164 -49z" />
    <glyph glyph-name="uni013C" unicode="&#x13c;" horiz-adv-x="524" 
d="M176 0v1583h172v-1583h-172zM195 -451l-105 54l119 321l164 -49z" />
    <glyph glyph-name="uni013D" unicode="&#x13d;" horiz-adv-x="1095" 
d="M600 1143l45 321h193l-119 -321h-119zM184 0v1464h178v-1319h670v-145h-848z" />
    <glyph glyph-name="uni013E" unicode="&#x13e;" horiz-adv-x="524" 
d="M176 0v1583h172v-1583h-172zM446 1225l25 358h193l-99 -358h-119z" />
    <glyph glyph-name="uni013F" unicode="&#x13f;" horiz-adv-x="1095" 
d="M184 0v1464h178v-1319h670v-145h-848zM819 655q-54 0 -92.5 38t-38.5 93t38.5 93.5t92.5 38.5t92.5 -38.5t38.5 -93.5t-38.5 -93t-92.5 -38z" />
    <glyph glyph-name="uni0140" unicode="&#x140;" horiz-adv-x="671" 
d="M176 0v1583h172v-1583h-172zM594 621q-54 0 -92.5 38t-38.5 93t38.5 93t92.5 38t92.5 -38t38.5 -93t-38.5 -93t-92.5 -38z" />
    <glyph glyph-name="uni0141" unicode="&#x141;" horiz-adv-x="1136" 
d="M86 514v139l139 52v759h178v-694l408 150v-140l-408 -149v-486h670v-145h-848v565z" />
    <glyph glyph-name="uni0142" unicode="&#x142;" horiz-adv-x="565" 
d="M41 637v143l156 88v715h172v-616l163 94v-143l-163 -95v-823h-172v725z" />
    <glyph glyph-name="uni0143" unicode="&#x143;" horiz-adv-x="1482" 
d="M686 1579l115 260h213l-201 -260h-127zM184 0v1464h232l712 -1210v1210h170v-1464h-204l-740 1255v-1255h-170z" />
    <glyph glyph-name="uni0144" unicode="&#x144;" horiz-adv-x="1224" 
d="M535 1255l127 301h212l-212 -301h-127zM172 0v1071h170v-170q40 81 129.5 135t214.5 54q175 0 276 -105t101 -328v-657h-170v670q0 141 -61.5 206.5t-190.5 65.5q-126 0 -212.5 -77.5t-86.5 -215.5v-649h-170z" />
    <glyph glyph-name="uni0145" unicode="&#x145;" horiz-adv-x="1482" 
d="M184 0v1464h232l712 -1210v1210h170v-1464h-204l-740 1255v-1255h-170zM649 -451l-104 54l119 321l163 -49z" />
    <glyph glyph-name="uni0146" unicode="&#x146;" horiz-adv-x="1224" 
d="M172 0v1071h170v-170q40 81 129.5 135t214.5 54q175 0 276 -105t101 -328v-657h-170v670q0 141 -61.5 206.5t-190.5 65.5q-126 0 -212.5 -77.5t-86.5 -215.5v-649h-170zM543 -451l-105 54l119 321l164 -49z" />
    <glyph glyph-name="uni0147" unicode="&#x147;" horiz-adv-x="1482" 
d="M684 1579l-219 260h125l174 -119l174 119h121l-221 -260h-154zM184 0v1464h232l712 -1210v1210h170v-1464h-204l-740 1255v-1255h-170z" />
    <glyph glyph-name="uni0148" unicode="&#x148;" horiz-adv-x="1224" 
d="M532 1255l-219 295h125l174 -153l174 153h121l-221 -295h-154zM172 0v1071h170v-170q40 81 129.5 135t214.5 54q175 0 276 -105t101 -328v-657h-170v670q0 141 -61.5 206.5t-190.5 65.5q-126 0 -212.5 -77.5t-86.5 -215.5v-649h-170z" />
    <glyph glyph-name="uni0149" unicode="&#x149;" horiz-adv-x="1224" 
d="M14 999l-104 54l182 434l162 -74zM172 0v1071h170v-170q40 81 129.5 135t214.5 54q175 0 276 -105t101 -328v-657h-170v670q0 141 -61.5 206.5t-190.5 65.5q-126 0 -212.5 -77.5t-86.5 -215.5v-649h-170z" />
    <glyph glyph-name="uni014A" unicode="&#x14a;" horiz-adv-x="1482" 
d="M893 -395q-129 0 -205 39v147q94 -41 195 -41q110 0 174 62.5t67 185.5l-770 1257v-1255h-170v1464h232l712 -1163v1163h170v-1444q0 -107 -31.5 -188t-87.5 -130t-128 -73t-158 -24z" />
    <glyph glyph-name="uni014B" unicode="&#x14b;" horiz-adv-x="1224" 
d="M735 -391v143q86 7 122 49t36 117v752q0 141 -61.5 206.5t-190.5 65.5q-126 0 -212.5 -77.5t-86.5 -215.5v-649h-170v1071h170v-170q40 81 129.5 135t214.5 54q175 0 276 -105t101 -328v-725q0 -158 -77 -237.5t-251 -85.5z" />
    <glyph glyph-name="uni014C" unicode="&#x14c;" horiz-adv-x="1660" 
d="M557 1610v131h545v-131h-545zM838 -18q-159 0 -295 58.5t-230 158t-147 235.5t-53 289v16q0 155 52.5 291.5t146 236.5t229 158t293.5 58t292.5 -58t226.5 -157.5t143.5 -235t51.5 -289.5v-16q0 -154 -51.5 -291t-143 -237t-225.5 -158.5t-290 -58.5zM838 129
q242 0 384 165.5t142 434.5v16q0 166 -61 299.5t-183 214t-286 80.5q-167 0 -289.5 -77t-185 -211.5t-62.5 -309.5v-16q0 -262 154.5 -429t386.5 -167z" />
    <glyph glyph-name="uni014D" unicode="&#x14d;" horiz-adv-x="1236" 
d="M350 1327v131h537v-131h-537zM616 -18q-228 0 -376 154.5t-148 389.5v17q0 240 149 393.5t377 153.5q229 0 378 -152.5t149 -392.5v-17q0 -241 -149.5 -393.5t-379.5 -152.5zM618 123q160 0 255.5 110.5t95.5 292.5v15q0 186 -95.5 296.5t-255.5 110.5
q-161 0 -255.5 -110t-94.5 -295v-17q0 -184 94 -293.5t256 -109.5z" />
    <glyph glyph-name="uni014E" unicode="&#x14e;" horiz-adv-x="1660" 
d="M825 1571q-110 0 -187 76.5t-83 193.5h135q23 -131 135 -131q122 0 148 131h131q-6 -116 -87 -193t-192 -77zM838 -18q-159 0 -295 58.5t-230 158t-147 235.5t-53 289v16q0 155 52.5 291.5t146 236.5t229 158t293.5 58t292.5 -58t226.5 -157.5t143.5 -235t51.5 -289.5
v-16q0 -154 -51.5 -291t-143 -237t-225.5 -158.5t-290 -58.5zM838 129q242 0 384 165.5t142 434.5v16q0 166 -61 299.5t-183 214t-286 80.5q-167 0 -289.5 -77t-185 -211.5t-62.5 -309.5v-16q0 -262 154.5 -429t386.5 -167z" />
    <glyph glyph-name="uni014F" unicode="&#x14f;" horiz-adv-x="1236" 
d="M614 1268q-110 0 -187 76.5t-83 193.5h135q23 -131 135 -131q122 0 148 131h131q-6 -116 -87 -193t-192 -77zM616 -18q-228 0 -376 154.5t-148 389.5v17q0 240 149 393.5t377 153.5q229 0 378 -152.5t149 -392.5v-17q0 -241 -149.5 -393.5t-379.5 -152.5zM618 123
q160 0 255.5 110.5t95.5 292.5v15q0 186 -95.5 296.5t-255.5 110.5q-161 0 -255.5 -110t-94.5 -295v-17q0 -184 94 -293.5t256 -109.5z" />
    <glyph glyph-name="uni0150" unicode="&#x150;" horiz-adv-x="1660" 
d="M600 1579l76 260h194l-147 -260h-123zM915 1579l76 260h195l-148 -260h-123zM838 -18q-159 0 -295 58.5t-230 158t-147 235.5t-53 289v16q0 155 52.5 291.5t146 236.5t229 158t293.5 58t292.5 -58t226.5 -157.5t143.5 -235t51.5 -289.5v-16q0 -154 -51.5 -291t-143 -237
t-225.5 -158.5t-290 -58.5zM838 129q242 0 384 165.5t142 434.5v16q0 166 -61 299.5t-183 214t-286 80.5q-167 0 -289.5 -77t-185 -211.5t-62.5 -309.5v-16q0 -262 154.5 -429t386.5 -167z" />
    <glyph glyph-name="uni0151" unicode="&#x151;" horiz-adv-x="1236" 
d="M389 1255l82 301h195l-154 -301h-123zM705 1255l81 301h195l-154 -301h-122zM616 -18q-228 0 -376 154.5t-148 389.5v17q0 240 149 393.5t377 153.5q229 0 378 -152.5t149 -392.5v-17q0 -241 -149.5 -393.5t-379.5 -152.5zM618 123q160 0 255.5 110.5t95.5 292.5v15
q0 186 -95.5 296.5t-255.5 110.5q-161 0 -255.5 -110t-94.5 -295v-17q0 -184 94 -293.5t256 -109.5z" />
    <glyph glyph-name="uni0152" unicode="&#x152;" horiz-adv-x="1955" 
d="M113 737q0 155 45.5 285.5t134.5 230t233.5 155.5t331.5 56h977v-145h-643v-498h512v-145h-512v-531h680v-145h-1018q-184 0 -327.5 54.5t-233 152.5t-135 227.5t-45.5 284.5v18zM1014 1319h-152q-277 0 -421 -155t-144 -429v-16q0 -130 32.5 -233t99.5 -181t177 -120
t258 -42h150v1176z" />
    <glyph glyph-name="uni0153" unicode="&#x153;" horiz-adv-x="2037" 
d="M616 -18q-228 0 -376 154.5t-148 389.5v17q0 240 149 393.5t377 153.5q149 0 261.5 -68.5t173.5 -190.5q58 122 164.5 190.5t250.5 68.5q97 0 181 -30.5t152.5 -91.5t108.5 -167t40 -244v-55h-807q6 -184 93.5 -281.5t250.5 -97.5q251 0 285 186h170
q-27 -158 -149.5 -242.5t-307.5 -84.5q-151 0 -262 66.5t-170 189.5q-62 -122 -175 -189t-262 -67zM618 123q160 0 255.5 110.5t95.5 292.5v15q0 186 -95.5 296.5t-255.5 110.5q-161 0 -255.5 -110t-94.5 -295v-17q0 -184 94 -293.5t256 -109.5zM1149 639h627
q-22 309 -308 309q-129 0 -213 -82.5t-106 -226.5z" />
    <glyph glyph-name="uni0154" unicode="&#x154;" horiz-adv-x="1286" 
d="M559 1579l115 260h213l-201 -260h-127zM184 0v1464h441q109 0 199 -23t161.5 -70t111.5 -127t40 -187v-8q0 -171 -99.5 -269.5t-263.5 -130.5l449 -649h-199l-436 637h-226v-637h-178zM362 778h275q158 0 239.5 68.5t81.5 202.5v8q0 143 -81.5 203.5t-239.5 60.5h-275
v-543z" />
    <glyph glyph-name="uni0155" unicode="&#x155;" horiz-adv-x="770" 
d="M344 1255l127 301h213l-213 -301h-127zM172 0v1071h170v-192q56 100 136 153.5t216 57.5v-160q-86 -4 -146.5 -21t-109 -54.5t-72.5 -103.5t-24 -163v-588h-170z" />
    <glyph glyph-name="uni0156" unicode="&#x156;" horiz-adv-x="1286" 
d="M184 0v1464h441q109 0 199 -23t161.5 -70t111.5 -127t40 -187v-8q0 -171 -99.5 -269.5t-263.5 -130.5l449 -649h-199l-436 637h-226v-637h-178zM362 778h275q158 0 239.5 68.5t81.5 202.5v8q0 143 -81.5 203.5t-239.5 60.5h-275v-543zM567 -451l-104 54l119 321l163 -49z
" />
    <glyph glyph-name="uni0157" unicode="&#x157;" horiz-adv-x="770" 
d="M172 0v1071h170v-192q56 100 136 153.5t216 57.5v-160q-86 -4 -146.5 -21t-109 -54.5t-72.5 -103.5t-24 -163v-588h-170zM184 -451l-104 54l119 321l163 -49z" />
    <glyph glyph-name="uni0158" unicode="&#x158;" horiz-adv-x="1286" 
d="M557 1579l-219 260h125l174 -119l174 119h121l-221 -260h-154zM184 0v1464h441q109 0 199 -23t161.5 -70t111.5 -127t40 -187v-8q0 -171 -99.5 -269.5t-263.5 -130.5l449 -649h-199l-436 637h-226v-637h-178zM362 778h275q158 0 239.5 68.5t81.5 202.5v8
q0 143 -81.5 203.5t-239.5 60.5h-275v-543z" />
    <glyph glyph-name="uni0159" unicode="&#x159;" horiz-adv-x="770" 
d="M342 1255l-219 295h125l174 -153l174 153h121l-221 -295h-154zM172 0v1071h170v-192q56 100 136 153.5t216 57.5v-160q-86 -4 -146.5 -21t-109 -54.5t-72.5 -103.5t-24 -163v-588h-170z" />
    <glyph glyph-name="uni015A" unicode="&#x15a;" horiz-adv-x="1284" 
d="M543 1579l114 260h213l-200 -260h-127zM657 -18q-114 0 -205.5 24.5t-153 66.5t-104.5 102t-65.5 126.5t-30.5 144.5h172q10 -73 29.5 -125t61 -99.5t116 -72t180.5 -24.5q143 0 238.5 76.5t95.5 199.5q0 127 -74 187.5t-280 93.5q-121 19 -207 47t-152 74t-98.5 116
t-32.5 166q0 170 133 284t338 114q220 0 351 -104.5t153 -299.5h-159q-26 137 -109 198.5t-236 61.5q-146 0 -225.5 -65.5t-79.5 -171.5q0 -58 13.5 -96t51 -71t107.5 -55.5t181 -39.5q259 -40 378 -134t119 -292q0 -185 -144 -308.5t-362 -123.5z" />
    <glyph glyph-name="uni015B" unicode="&#x15b;" horiz-adv-x="983" 
d="M412 1255l127 301h213l-213 -301h-127zM504 -18q-192 0 -302 91.5t-118 256.5h166q9 -100 68.5 -153.5t183.5 -53.5q121 0 177 41.5t56 128.5q0 80 -58 117.5t-192 62.5q-209 38 -290.5 107t-81.5 208q0 58 21.5 107.5t57.5 85t83 60.5t98 37t102 12q75 0 138 -16.5
t116.5 -51.5t87.5 -96.5t45 -145.5h-164q-19 88 -71.5 128t-153.5 40q-92 0 -147.5 -42t-55.5 -111q0 -73 51.5 -108.5t198.5 -61.5q76 -14 125.5 -27t101.5 -37t82 -56t49 -82t19 -116q0 -150 -101 -237.5t-292 -87.5z" />
    <glyph glyph-name="uni015C" unicode="&#x15c;" horiz-adv-x="1284" 
d="M322 1579l221 260h153l219 -260h-124l-175 119l-174 -119h-120zM657 -18q-114 0 -205.5 24.5t-153 66.5t-104.5 102t-65.5 126.5t-30.5 144.5h172q10 -73 29.5 -125t61 -99.5t116 -72t180.5 -24.5q143 0 238.5 76.5t95.5 199.5q0 127 -74 187.5t-280 93.5
q-121 19 -207 47t-152 74t-98.5 116t-32.5 166q0 170 133 284t338 114q220 0 351 -104.5t153 -299.5h-159q-26 137 -109 198.5t-236 61.5q-146 0 -225.5 -65.5t-79.5 -171.5q0 -58 13.5 -96t51 -71t107.5 -55.5t181 -39.5q259 -40 378 -134t119 -292q0 -185 -144 -308.5
t-362 -123.5z" />
    <glyph glyph-name="uni015D" unicode="&#x15d;" horiz-adv-x="983" 
d="M190 1255l222 295h153l219 -295h-125l-174 154l-174 -154h-121zM504 -18q-192 0 -302 91.5t-118 256.5h166q9 -100 68.5 -153.5t183.5 -53.5q121 0 177 41.5t56 128.5q0 80 -58 117.5t-192 62.5q-209 38 -290.5 107t-81.5 208q0 58 21.5 107.5t57.5 85t83 60.5t98 37
t102 12q75 0 138 -16.5t116.5 -51.5t87.5 -96.5t45 -145.5h-164q-19 88 -71.5 128t-153.5 40q-92 0 -147.5 -42t-55.5 -111q0 -73 51.5 -108.5t198.5 -61.5q76 -14 125.5 -27t101.5 -37t82 -56t49 -82t19 -116q0 -150 -101 -237.5t-292 -87.5z" />
    <glyph glyph-name="uni015E" unicode="&#x15e;" horiz-adv-x="1284" 
d="M594 -438q-88 0 -143.5 47.5t-61.5 124.5h111q7 -32 29.5 -53t58.5 -21q38 0 60 20.5t22 53.5q0 32 -20.5 50.5t-53.5 18.5q-30 0 -57 -16l-66 57l78 144q-113 13 -198 54t-136.5 104t-80 136.5t-38.5 163.5h172q10 -73 29.5 -125t61 -99.5t116 -72t180.5 -24.5
q143 0 238.5 76.5t95.5 199.5q0 127 -74 187.5t-280 93.5q-121 19 -207 47t-152 74t-98.5 116t-32.5 166q0 170 133 284t338 114q220 0 351 -104.5t153 -299.5h-159q-26 137 -109 198.5t-236 61.5q-146 0 -225.5 -65.5t-79.5 -171.5q0 -58 13.5 -96t51 -71t107.5 -55.5
t181 -39.5q259 -40 378 -134t119 -292q0 -185 -144 -308.5t-362 -123.5l-49 -91q77 10 135 -33.5t58 -131.5q0 -79 -59 -121.5t-148 -42.5z" />
    <glyph glyph-name="uni015F" unicode="&#x15f;" horiz-adv-x="983" 
d="M465 -438q-88 0 -143.5 47.5t-61.5 124.5h111q7 -32 29.5 -53t58.5 -21q38 0 60 20.5t22 53.5q0 32 -20.5 50.5t-53.5 18.5q-30 0 -57 -16l-66 57l78 144q-155 17 -243.5 106.5t-94.5 235.5h166q9 -100 68.5 -153.5t183.5 -53.5q121 0 177 41.5t56 128.5q0 80 -58 117.5
t-192 62.5q-209 38 -290.5 107t-81.5 208q0 58 21.5 107.5t57.5 85t83 60.5t98 37t102 12q75 0 138 -16.5t116.5 -51.5t87.5 -96.5t45 -145.5h-164q-19 88 -71.5 128t-153.5 40q-92 0 -147.5 -42t-55.5 -111q0 -73 51.5 -108.5t198.5 -61.5q76 -14 125.5 -27t101.5 -37
t82 -56t49 -82t19 -116q0 -145 -95 -232t-274 -93l-49 -91q77 10 135 -33.5t58 -131.5q0 -79 -59 -121.5t-148 -42.5z" />
    <glyph glyph-name="uni0160" unicode="&#x160;" horiz-adv-x="1284" 
d="M541 1579l-219 260h124l175 -119l174 119h120l-221 -260h-153zM657 -18q-114 0 -205.5 24.5t-153 66.5t-104.5 102t-65.5 126.5t-30.5 144.5h172q10 -73 29.5 -125t61 -99.5t116 -72t180.5 -24.5q143 0 238.5 76.5t95.5 199.5q0 127 -74 187.5t-280 93.5q-121 19 -207 47
t-152 74t-98.5 116t-32.5 166q0 170 133 284t338 114q220 0 351 -104.5t153 -299.5h-159q-26 137 -109 198.5t-236 61.5q-146 0 -225.5 -65.5t-79.5 -171.5q0 -58 13.5 -96t51 -71t107.5 -55.5t181 -39.5q259 -40 378 -134t119 -292q0 -185 -144 -308.5t-362 -123.5z" />
    <glyph glyph-name="uni0161" unicode="&#x161;" horiz-adv-x="983" 
d="M410 1255l-220 295h125l174 -153l175 153h120l-221 -295h-153zM504 -18q-192 0 -302 91.5t-118 256.5h166q9 -100 68.5 -153.5t183.5 -53.5q121 0 177 41.5t56 128.5q0 80 -58 117.5t-192 62.5q-209 38 -290.5 107t-81.5 208q0 58 21.5 107.5t57.5 85t83 60.5t98 37
t102 12q75 0 138 -16.5t116.5 -51.5t87.5 -96.5t45 -145.5h-164q-19 88 -71.5 128t-153.5 40q-92 0 -147.5 -42t-55.5 -111q0 -73 51.5 -108.5t198.5 -61.5q76 -14 125.5 -27t101.5 -37t82 -56t49 -82t19 -116q0 -150 -101 -237.5t-292 -87.5z" />
    <glyph glyph-name="uni0162" unicode="&#x162;" horiz-adv-x="1148" 
d="M485 0v1319h-426v145h1031v-145h-426v-1319h-179zM506 -451l-105 54l119 321l164 -49z" />
    <glyph glyph-name="uni0163" unicode="&#x163;" horiz-adv-x="727" 
d="M498 -14q-142 0 -215.5 76t-73.5 206v660h-154v143h154v244h170v-244h250v-143h-250v-643q0 -156 133 -156q70 0 131 23v-144q-64 -22 -145 -22zM324 -451l-105 54l119 321l164 -49z" />
    <glyph glyph-name="uni0164" unicode="&#x164;" horiz-adv-x="1148" 
d="M496 1579l-220 260h125l174 -119l175 119h120l-221 -260h-153zM485 0v1319h-426v145h1031v-145h-426v-1319h-179z" />
    <glyph glyph-name="uni0165" unicode="&#x165;" horiz-adv-x="727" 
d="M526 1225l25 358h192l-98 -358h-119zM498 -14q-142 0 -215.5 76t-73.5 206v660h-154v143h154v244h170v-244h250v-143h-250v-643q0 -156 133 -156q70 0 131 23v-144q-64 -22 -145 -22z" />
    <glyph glyph-name="uni0166" unicode="&#x166;" horiz-adv-x="1148" 
d="M188 692v135h297v492h-426v145h1031v-145h-426v-492h297v-135h-297v-692h-179v692h-297z" />
    <glyph glyph-name="uni0167" unicode="&#x167;" horiz-adv-x="727" 
d="M55 573v121h154v234h-154v143h154v244h170v-244h250v-143h-250v-234h250v-121h-250v-288q0 -156 133 -156q70 0 131 23v-144q-64 -22 -145 -22q-142 0 -215.5 76t-73.5 206v305h-154z" />
    <glyph glyph-name="uni0168" unicode="&#x168;" horiz-adv-x="1425" 
d="M823 1585q-37 0 -80 22t-80 44t-61 22q-29 0 -51.5 -26t-30.5 -66h-123q12 108 69.5 173t137.5 65q37 0 79 -22t79 -44t61 -22q29 0 51.5 26t30.5 66h123q-12 -108 -69 -173t-136 -65zM698 -18q-252 0 -389 143.5t-137 409.5v929h178v-909q0 -228 83.5 -327t268.5 -99
q92 0 157.5 21t115.5 71t75 139.5t25 221.5v882h178v-907q0 -274 -139 -424.5t-416 -150.5z" />
    <glyph glyph-name="uni0169" unicode="&#x169;" horiz-adv-x="1216" 
d="M719 1268q-37 0 -80 22t-80 44t-61 22q-29 0 -51.5 -26t-30.5 -66h-123q12 108 69.5 172.5t137.5 64.5q37 0 79 -22t79 -44t61 -22q29 0 51.5 26t30.5 66h123q-12 -107 -69 -172t-136 -65zM535 -18q-170 0 -271.5 100t-101.5 311v678h170v-670q0 -140 60.5 -206
t187.5 -66q122 0 208 77.5t86 215.5v649h170v-1071h-170v170q-40 -81 -128.5 -134.5t-210.5 -53.5z" />
    <glyph glyph-name="uni016A" unicode="&#x16a;" horiz-adv-x="1425" 
d="M440 1610v131h545v-131h-545zM698 -18q-252 0 -389 143.5t-137 409.5v929h178v-909q0 -228 83.5 -327t268.5 -99q92 0 157.5 21t115.5 71t75 139.5t25 221.5v882h178v-907q0 -274 -139 -424.5t-416 -150.5z" />
    <glyph glyph-name="uni016B" unicode="&#x16b;" horiz-adv-x="1216" 
d="M340 1327v131h537v-131h-537zM535 -18q-170 0 -271.5 100t-101.5 311v678h170v-670q0 -140 60.5 -206t187.5 -66q122 0 208 77.5t86 215.5v649h170v-1071h-170v170q-40 -81 -128.5 -134.5t-210.5 -53.5z" />
    <glyph glyph-name="uni016C" unicode="&#x16c;" horiz-adv-x="1425" 
d="M709 1571q-111 0 -188 76.5t-83 193.5h135q23 -131 136 -131q121 0 147 131h131q-6 -116 -86.5 -193t-191.5 -77zM698 -18q-252 0 -389 143.5t-137 409.5v929h178v-909q0 -228 83.5 -327t268.5 -99q92 0 157.5 21t115.5 71t75 139.5t25 221.5v882h178v-907
q0 -274 -139 -424.5t-416 -150.5z" />
    <glyph glyph-name="uni016D" unicode="&#x16d;" horiz-adv-x="1216" 
d="M604 1268q-110 0 -187 76.5t-83 193.5h135q23 -131 135 -131q122 0 148 131h131q-6 -116 -87 -193t-192 -77zM535 -18q-170 0 -271.5 100t-101.5 311v678h170v-670q0 -140 60.5 -206t187.5 -66q122 0 208 77.5t86 215.5v649h170v-1071h-170v170q-40 -81 -128.5 -134.5
t-210.5 -53.5z" />
    <glyph glyph-name="uni016E" unicode="&#x16e;" horiz-adv-x="1425" 
d="M713 1513q-91 0 -155 62.5t-64 150.5t64 150.5t155 62.5t155 -62.5t64 -150.5t-64 -150.5t-155 -62.5zM713 1608q47 0 77.5 33.5t30.5 84.5t-30.5 85t-77.5 34t-78 -34t-31 -85t31 -84.5t78 -33.5zM698 -18q-252 0 -389 143.5t-137 409.5v929h178v-909q0 -228 83.5 -327
t268.5 -99q92 0 157.5 21t115.5 71t75 139.5t25 221.5v882h178v-907q0 -274 -139 -424.5t-416 -150.5z" />
    <glyph glyph-name="uni016F" unicode="&#x16f;" horiz-adv-x="1216" 
d="M602 1163q-91 0 -155 62.5t-64 150.5t64 150.5t155 62.5t155 -62.5t64 -150.5t-64 -150.5t-155 -62.5zM602 1257q47 0 78 34t31 85t-31 85t-78 34t-77.5 -34t-30.5 -85t30.5 -85t77.5 -34zM535 -18q-170 0 -271.5 100t-101.5 311v678h170v-670q0 -140 60.5 -206
t187.5 -66q122 0 208 77.5t86 215.5v649h170v-1071h-170v170q-40 -81 -128.5 -134.5t-210.5 -53.5z" />
    <glyph glyph-name="uni0170" unicode="&#x170;" horiz-adv-x="1425" 
d="M483 1579l76 260h195l-148 -260h-123zM799 1579l75 260h195l-147 -260h-123zM698 -18q-252 0 -389 143.5t-137 409.5v929h178v-909q0 -228 83.5 -327t268.5 -99q92 0 157.5 21t115.5 71t75 139.5t25 221.5v882h178v-907q0 -274 -139 -424.5t-416 -150.5z" />
    <glyph glyph-name="uni0171" unicode="&#x171;" horiz-adv-x="1216" 
d="M379 1255l82 301h194l-153 -301h-123zM694 1255l82 301h195l-154 -301h-123zM535 -18q-170 0 -271.5 100t-101.5 311v678h170v-670q0 -140 60.5 -206t187.5 -66q122 0 208 77.5t86 215.5v649h170v-1071h-170v170q-40 -81 -128.5 -134.5t-210.5 -53.5z" />
    <glyph glyph-name="uni0172" unicode="&#x172;" horiz-adv-x="1425" 
d="M786 -373q-96 0 -154.5 44t-58.5 120q0 56 35 105.5t92 85.5h-2q-252 0 -389 143.5t-137 409.5v929h178v-909q0 -228 83.5 -327t268.5 -99q92 0 157.5 21t115.5 71t75 139.5t25 221.5v882h178v-907q0 -194 -69.5 -326t-202.5 -194q-135 -64 -175 -94q-71 -52 -71 -119
q0 -74 78 -74q62 0 107 23v-121q-62 -25 -134 -25z" />
    <glyph glyph-name="uni0173" unicode="&#x173;" horiz-adv-x="1216" 
d="M940 -373q-96 0 -154.5 44t-58.5 120q0 61 41 115t106 88v176q-40 -81 -128.5 -134.5t-210.5 -53.5q-170 0 -271.5 100t-101.5 311v678h170v-670q0 -140 60.5 -206t187.5 -66q122 0 208 77.5t86 215.5v649h170v-1061q-83 -52 -119 -95.5t-36 -90.5q0 -74 78 -74
q61 0 106 23v-121q-62 -25 -133 -25z" />
    <glyph glyph-name="uni0174" unicode="&#x174;" horiz-adv-x="1900" 
d="M653 1579l221 260h154l219 -260h-125l-174 119l-174 -119h-121zM451 0l-381 1464h182l297 -1181l344 1181h127l344 -1185l301 1185h166l-381 -1464h-164l-332 1157l-342 -1157h-161z" />
    <glyph glyph-name="uni0175" unicode="&#x175;" horiz-adv-x="1626" 
d="M516 1255l221 295h154l219 -295h-125l-174 154l-174 -154h-121zM387 0l-330 1071h185l250 -862l260 862h147l244 -862l252 862h174l-334 -1071h-188l-224 803l-250 -803h-186z" />
    <glyph glyph-name="uni0176" unicode="&#x176;" horiz-adv-x="1224" 
d="M315 1579l222 260h153l219 -260h-125l-174 119l-174 -119h-121zM537 0v639l-490 825h201l383 -680l368 680h179l-463 -827v-637h-178z" />
    <glyph glyph-name="uni0177" unicode="&#x177;" horiz-adv-x="1083" 
d="M244 1255l221 295h153l220 -295h-125l-174 154l-174 -154h-121zM268 -373l203 484l-420 960h182l328 -768l297 768h174l-592 -1444h-172z" />
    <glyph glyph-name="uni0178" unicode="&#x178;" horiz-adv-x="1224" 
d="M403 1616q-44 0 -76 32t-32 76t32 76.5t76 32.5t76.5 -32.5t32.5 -76.5t-32.5 -76t-76.5 -32zM819 1616q-44 0 -76 32t-32 76t32 76.5t76 32.5t76.5 -32.5t32.5 -76.5t-32.5 -76t-76.5 -32zM537 0v639l-490 825h201l383 -680l368 680h179l-463 -827v-637h-178z" />
    <glyph glyph-name="uni0179" unicode="&#x179;" horiz-adv-x="1218" 
d="M528 1579l115 260h213l-201 -260h-127zM57 0v29l830 1290h-756v145h1002v-26l-807 -1286h794v-152h-1063z" />
    <glyph glyph-name="uni017A" unicode="&#x17a;" horiz-adv-x="989" 
d="M432 1255l127 301h213l-213 -301h-127zM43 0v25l633 903h-572v143h834v-31l-619 -890h611v-150h-887z" />
    <glyph glyph-name="uni017B" unicode="&#x17b;" horiz-adv-x="1218" 
d="M604 1612q-46 0 -79 33t-33 79t33 79.5t79 33.5t79.5 -33.5t33.5 -79.5t-33.5 -79t-79.5 -33zM57 0v29l830 1290h-756v145h1002v-26l-807 -1286h794v-152h-1063z" />
    <glyph glyph-name="uni017C" unicode="&#x17c;" horiz-adv-x="989" 
d="M508 1294q-46 0 -79.5 33.5t-33.5 79.5t33.5 79.5t79.5 33.5t79.5 -33.5t33.5 -79.5t-33.5 -79.5t-79.5 -33.5zM43 0v25l633 903h-572v143h834v-31l-619 -890h611v-150h-887z" />
    <glyph glyph-name="uni017D" unicode="&#x17d;" horiz-adv-x="1218" 
d="M526 1579l-219 260h125l174 -119l174 119h121l-221 -260h-154zM57 0v29l830 1290h-756v145h1002v-26l-807 -1286h794v-152h-1063z" />
    <glyph glyph-name="uni017E" unicode="&#x17e;" horiz-adv-x="989" 
d="M430 1255l-219 295h125l174 -153l174 153h121l-221 -295h-154zM43 0v25l633 903h-572v143h834v-31l-619 -890h611v-150h-887z" />
    <glyph glyph-name="uni0192" unicode="&#x192;" horiz-adv-x="813" 
d="M59 707v139h199l47 311q51 326 346 326q76 0 140 -23v-143q-62 24 -136 24q-154 0 -182 -192l-47 -303h270v-139h-290l-164 -1080h-170l164 1080h-177z" />
    <glyph glyph-name="uni01FA" unicode="&#x1fa;" horiz-adv-x="1380" 
d="M637 2019l115 260h213l-201 -260h-127zM705 1534q-91 0 -155.5 62.5t-64.5 150.5t64.5 150.5t155.5 62.5t155 -62.5t64 -150.5t-64 -150.5t-155 -62.5zM705 1628q47 0 77.5 34t30.5 85t-30.5 85t-77.5 34t-78 -34t-31 -85t31 -85t78 -34zM74 0l504 1464h233l496 -1464
h-177l-143 422h-604l-141 -422h-168zM686 1317l-254 -754h508z" />
    <glyph glyph-name="uni01FB" unicode="&#x1fb;" horiz-adv-x="1105" 
d="M506 1698l115 260h213l-201 -260h-127zM559 1184q-91 0 -155 62.5t-64 150.5t64 150.5t155 62.5t155 -62.5t64 -150.5t-64 -150.5t-155 -62.5zM559 1278q47 0 78 34t31 85t-31 85t-78 34t-77.5 -34t-30.5 -85t30.5 -85t77.5 -34zM440 -18q-103 0 -181 32t-126.5 104.5
t-48.5 178.5q0 89 44.5 155.5t122 104t170 55t200.5 17.5h153v78q0 128 -53 184.5t-176 56.5q-223 0 -246 -192h-170q8 88 46 154.5t97.5 104.5t129.5 56.5t151 18.5q65 0 120 -11t106 -38t86.5 -69.5t57 -110t21.5 -154.5v-707h-170v135q-62 -78 -140.5 -115.5
t-193.5 -37.5zM457 117q139 0 228 68.5t89 189.5v133h-147q-373 0 -373 -211q0 -88 47.5 -134t155.5 -46z" />
    <glyph glyph-name="uni01FC" unicode="&#x1fc;" horiz-adv-x="1945" 
d="M1174 1579l114 260h213l-201 -260h-126zM59 0l758 1464h1008v-145h-676v-498h545v-145h-545v-531h713v-145h-891v424h-516l-215 -424h-181zM907 1319l-383 -756h447v756h-64z" />
    <glyph glyph-name="uni01FD" unicode="&#x1fd;" horiz-adv-x="1802" 
d="M834 1255l127 301h213l-213 -301h-127zM1262 -18q-134 0 -238 58t-166 163q-74 -116 -172.5 -168.5t-245.5 -52.5q-103 0 -181 32t-126.5 104.5t-48.5 178.5q0 90 43.5 157.5t119.5 106t167.5 56.5t199.5 18h160v70q0 127 -55 185t-174 58q-223 0 -246 -192h-170
q8 88 46 154.5t97.5 104.5t129.5 56.5t151 18.5q255 0 336 -183q130 183 360 183q74 0 140 -18t126 -58.5t104 -101t69.5 -151.5t25.5 -204v-51h-776q6 -186 88 -284.5t238 -98.5q238 0 272 186h170q-27 -158 -146.5 -242.5t-297.5 -84.5zM944 635h596q-12 164 -85.5 238.5
t-205.5 74.5q-124 0 -204.5 -83.5t-100.5 -229.5zM457 117q139 0 228 68.5t89 189.5v131h-153q-367 0 -367 -209q0 -88 47.5 -134t155.5 -46z" />
    <glyph glyph-name="uni01FE" unicode="&#x1fe;" horiz-adv-x="1660" 
d="M756 1579l114 260h213l-200 -260h-127zM164 -68l-92 93l200 219q-159 201 -159 479v16q0 155 52.5 291.5t146 236.5t229 158t293.5 58q251 0 438 -144l166 181l92 -93l-162 -178q87 -99 133.5 -229t46.5 -277v-16q0 -154 -51.5 -291t-143 -237t-225.5 -158.5t-290 -58.5
q-277 0 -476 168zM297 725q0 -206 90 -354l782 856q-134 112 -335 112q-167 0 -289.5 -77t-185 -211.5t-62.5 -309.5v-16zM838 129q242 0 384 165.5t142 434.5v16q0 229 -107 385l-786 -862q142 -139 367 -139z" />
    <glyph glyph-name="uni01FF" unicode="&#x1ff;" horiz-adv-x="1236" 
d="M541 1255l127 301h213l-213 -301h-127zM137 -76l-90 78l158 174q-113 144 -113 350v17q0 240 149 393.5t377 153.5q186 0 320 -103l139 152l90 -78l-143 -158q121 -150 121 -358v-17q0 -241 -149.5 -393.5t-379.5 -152.5q-189 0 -327 110zM268 526q0 -133 49 -227
l519 573q-88 76 -218 76q-161 0 -255.5 -110t-94.5 -295v-17zM618 123q160 0 255.5 110.5t95.5 292.5v15q0 133 -56 239l-524 -575q91 -82 229 -82z" />
    <glyph glyph-name="uni0218" unicode="&#x218;" horiz-adv-x="1284" 
d="M657 -18q-114 0 -205.5 24.5t-153 66.5t-104.5 102t-65.5 126.5t-30.5 144.5h172q10 -73 29.5 -125t61 -99.5t116 -72t180.5 -24.5q143 0 238.5 76.5t95.5 199.5q0 127 -74 187.5t-280 93.5q-121 19 -207 47t-152 74t-98.5 116t-32.5 166q0 170 133 284t338 114
q220 0 351 -104.5t153 -299.5h-159q-26 137 -109 198.5t-236 61.5q-146 0 -225.5 -65.5t-79.5 -171.5q0 -58 13.5 -96t51 -71t107.5 -55.5t181 -39.5q259 -40 378 -134t119 -292q0 -185 -144 -308.5t-362 -123.5zM551 -451l-105 54l119 321l164 -49z" />
    <glyph glyph-name="uni0219" unicode="&#x219;" horiz-adv-x="983" 
d="M504 -18q-192 0 -302 91.5t-118 256.5h166q9 -100 68.5 -153.5t183.5 -53.5q121 0 177 41.5t56 128.5q0 80 -58 117.5t-192 62.5q-209 38 -290.5 107t-81.5 208q0 58 21.5 107.5t57.5 85t83 60.5t98 37t102 12q75 0 138 -16.5t116.5 -51.5t87.5 -96.5t45 -145.5h-164
q-19 88 -71.5 128t-153.5 40q-92 0 -147.5 -42t-55.5 -111q0 -73 51.5 -108.5t198.5 -61.5q76 -14 125.5 -27t101.5 -37t82 -56t49 -82t19 -116q0 -150 -101 -237.5t-292 -87.5zM420 -451l-105 54l119 321l164 -49z" />
    <glyph glyph-name="uni021A" unicode="&#x21a;" horiz-adv-x="1148" 
d="M485 0v1319h-426v145h1031v-145h-426v-1319h-179zM506 -451l-105 54l119 321l164 -49z" />
    <glyph glyph-name="uni021B" unicode="&#x21b;" horiz-adv-x="727" 
d="M498 -14q-142 0 -215.5 76t-73.5 206v660h-154v143h154v244h170v-244h250v-143h-250v-643q0 -156 133 -156q70 0 131 23v-144q-64 -22 -145 -22zM324 -451l-105 54l119 321l164 -49z" />
    <glyph glyph-name="uni0237" unicode="&#x237;" horiz-adv-x="522" 
d="M18 -391v143q86 7 122 49t36 117v1153h170v-1139q0 -158 -77 -237.5t-251 -85.5z" />
    <glyph glyph-name="uni02C6" unicode="&#x2c6;" horiz-adv-x="819" 
d="M113 1255l221 295h153l220 -295h-125l-174 154l-175 -154h-120z" />
    <glyph glyph-name="uni02C7" unicode="&#x2c7;" horiz-adv-x="819" 
d="M332 1255l-219 295h125l174 -153l174 153h121l-222 -295h-153z" />
    <glyph glyph-name="uni02D8" unicode="&#x2d8;" horiz-adv-x="819" 
d="M406 1268q-111 0 -188 76.5t-83 193.5h135q23 -131 136 -131q121 0 147 131h131q-6 -116 -86.5 -193t-191.5 -77z" />
    <glyph glyph-name="uni02D9" unicode="&#x2d9;" horiz-adv-x="819" 
d="M410 1294q-46 0 -79.5 33.5t-33.5 79.5t33.5 79.5t79.5 33.5t79 -33.5t33 -79.5t-33 -79.5t-79 -33.5z" />
    <glyph glyph-name="uni02DA" unicode="&#x2da;" horiz-adv-x="819" 
d="M410 1225q-91 0 -155.5 62.5t-64.5 150.5t64.5 150.5t155.5 62.5t155 -62.5t64 -150.5t-64 -150.5t-155 -62.5zM410 1319q47 0 77.5 34t30.5 85t-30.5 84.5t-77.5 33.5t-78 -33.5t-31 -84.5t31 -85t78 -34z" />
    <glyph glyph-name="uni02DB" unicode="&#x2db;" horiz-adv-x="819" 
d="M457 -373q-96 0 -154.5 44t-58.5 120q0 63 45 119t114 90h142q-71 -47 -105 -88.5t-34 -87.5q0 -74 77 -74q62 0 107 23v-121q-62 -25 -133 -25z" />
    <glyph glyph-name="uni02DC" unicode="&#x2dc;" horiz-adv-x="819" 
d="M520 1268q-37 0 -80 22t-80 44t-61 22q-29 0 -51.5 -26t-30.5 -66h-123q12 108 69.5 172.5t137.5 64.5q37 0 79 -22t79 -44t61 -22q29 0 51.5 26t30.5 66h123q-12 -107 -69 -172t-136 -65z" />
    <glyph glyph-name="uni02DD" unicode="&#x2dd;" horiz-adv-x="819" 
d="M197 1255l82 301h194l-154 -301h-122zM512 1255l82 301h194l-153 -301h-123z" />
    <glyph glyph-name="uni0E01" unicode="&#xe01;" horiz-adv-x="1308" 
d="M344 0h-174v436q0 119 43.5 181t130.5 88h-215v83q0 197 136 322t388 125q254 0 383 -131t129 -361v-743h-174v745q0 162 -85 255.5t-259 93.5q-163 0 -255.5 -77t-92.5 -186v-18h244v-119q-102 -19 -150.5 -79.5t-48.5 -168.5v-446z" />
    <glyph glyph-name="uni0E02" unicode="&#xe02;" horiz-adv-x="1202" 
d="M1057 449q0 -106 -24.5 -189t-77 -148t-143 -100t-214.5 -35q-241 0 -352 126.5t-111 349.5v10q0 121 26 196t85 154q61 83 82.5 120.5t21.5 72.5q0 81 -100 81q-60 0 -135 -22v135q69 29 172 29q113 0 172 -52.5t59 -156.5q0 -60 -21 -107t-83 -141q-61 -92 -83 -148.5
t-22 -146.5v-24q0 -334 289 -334q142 0 213.5 83t71.5 244v771h174v-768z" />
    <glyph glyph-name="uni0E03" unicode="&#xe03;" horiz-adv-x="1249" 
d="M1104 463q0 -486 -467 -486q-231 0 -356 114t-125 308v52q0 65 11.5 113.5t42 93t57 72.5t83.5 81q72 67 104.5 116.5t32.5 94.5q0 37 -21 58.5t-60 21.5q-95 0 -119 -156h-142l-90 271h127l51 -187q15 203 205 203q97 0 150 -52t53 -149q0 -80 -37.5 -143t-120.5 -141
q-95 -88 -124 -142.5t-29 -161.5v-24q0 -138 78.5 -219.5t230.5 -81.5q150 0 220.5 85.5t70.5 258.5v754h174v-754z" />
    <glyph glyph-name="uni0E04" unicode="&#xe04;" horiz-adv-x="1304" 
d="M317 0h-174v748q0 109 29 196.5t88.5 153.5t158.5 101.5t232 35.5t232 -35.5t159 -101.5t89.5 -153.5t29.5 -196.5v-748h-174v748q0 173 -81 259.5t-253 86.5q-340 0 -340 -346v-265q43 97 134 134.5t233 37.5h80v-141h-80q-67 0 -117 -6.5t-98.5 -27.5t-79.5 -56
t-49.5 -94.5t-18.5 -141.5v-188z" />
    <glyph glyph-name="uni0E05" unicode="&#xe05;" horiz-adv-x="1306" 
d="M317 0h-174v862q0 161 71 254t232 115l207 -162l207 162q161 -22 232 -115t71 -254v-862h-174v848q0 105 -25.5 156.5t-103.5 64.5l-201 -149h-16l-201 149q-78 -13 -103.5 -64.5t-25.5 -156.5v-365q43 97 134 134.5t233 37.5h80v-141h-80q-67 0 -117 -6.5t-98.5 -27.5
t-79.5 -56t-49.5 -94.5t-18.5 -141.5v-188z" />
    <glyph glyph-name="uni0E06" unicode="&#xe06;" horiz-adv-x="1294" 
d="M1149 424q0 -207 -102.5 -324.5t-309.5 -117.5q-75 0 -140 16.5t-107.5 40.5t-76.5 56t-51.5 56.5t-29.5 49.5v-201h-174v436q0 120 46 205t144 186q76 79 101.5 115t25.5 76q0 38 -20.5 58t-57.5 20q-41 0 -69.5 -32.5t-42.5 -117.5h-142l-110 271h143l55 -173
q37 189 209 189q94 0 147.5 -52.5t53.5 -150.5q0 -71 -32.5 -126t-127.5 -161q-91 -100 -121 -155t-30 -139v-7q0 -53 24 -106.5t69 -100t118.5 -75.5t163.5 -29q76 0 130 21.5t84 62t43 91.5t13 118v793h174v-793z" />
    <glyph glyph-name="uni0E07" unicode="&#xe07;" horiz-adv-x="1226" 
d="M514 0h-106l-371 1219h174l330 -1078q78 3 149.5 34t132 89.5t97 157.5t36.5 225v6q0 97 -22 173.5t-58.5 125.5t-86 81.5t-102 45.5t-109.5 13q-55 0 -125 -19v139q79 21 159 21q108 0 200.5 -34t165 -101.5t114 -178.5t41.5 -255v-11q0 -166 -51 -294.5t-138.5 -205
t-196.5 -115t-233 -38.5z" />
    <glyph glyph-name="uni0E08" unicode="&#xe08;" horiz-adv-x="1232" 
d="M1139 614q0 -294 -141.5 -462t-376.5 -168q-119 0 -220 32l-116 492h-174v137h301l125 -510q42 -10 81 -10q153 0 249 134.5t96 358.5v15q0 123 -28.5 214t-80.5 144t-118.5 78t-149.5 25q-147 0 -245 -72.5t-118 -198.5h-164q27 201 171.5 306.5t355.5 105.5
q123 0 223.5 -37t174.5 -110.5t114.5 -189t40.5 -265.5v-19z" />
    <glyph glyph-name="uni0E09" unicode="&#xe09;" horiz-adv-x="1273" 
d="M958 211q-10 -23 -26 -47.5t-51 -59t-78 -60t-111 -44t-147 -18.5q-207 0 -309.5 117.5t-102.5 324.5v186h174v-135q0 -73 12.5 -130.5t42 -108t86.5 -78t140 -27.5q165 0 266.5 104.5t101.5 266.5v233q0 359 -335 359q-73 0 -132.5 -17t-99 -44.5t-67.5 -64t-40.5 -73.5
t-15.5 -76h-166q6 88 41 162.5t98.5 132t162 89.5t223.5 32q249 0 377 -128t128 -372v-735h-172v211z" />
    <glyph glyph-name="uni0E0A" unicode="&#xe0a;" horiz-adv-x="1198" 
d="M1069 440q0 -103 -26.5 -185.5t-81 -146t-147 -97.5t-216.5 -34q-123 0 -213.5 34t-144.5 97.5t-79.5 145.5t-25.5 186v23q0 121 26 196t85 154q61 83 82.5 120.5t21.5 72.5q0 81 -100 81q-60 0 -135 -22v135q69 29 172 29q113 0 172 -52.5t59 -156.5q0 -60 -21 -107
t-83 -141q-61 -92 -83 -148.5t-22 -146.5v-37q0 -156 72 -238.5t217 -82.5q144 0 220.5 83.5t76.5 237.5v105q0 118 -63.5 176.5t-157.5 58.5h-53v135h20q137 0 203.5 77t66.5 212v13h172v-13q0 -57 -11.5 -108.5t-37 -101.5t-72 -88t-110.5 -56q100 -30 158.5 -108
t58.5 -197v-105z" />
    <glyph glyph-name="uni0E0B" unicode="&#xe0b;" horiz-adv-x="1202" 
d="M1075 440q0 -105 -26 -187.5t-81 -145.5t-147.5 -96.5t-218.5 -33.5q-243 0 -356 120t-113 329v25q0 52 10 96t22.5 74t43 67t51.5 58t68 65q72 67 104.5 116.5t32.5 94.5q0 37 -21.5 58.5t-60.5 21.5q-95 0 -119 -156h-141l-90 271h127l51 -187q15 203 205 203
q97 0 149.5 -52t52.5 -149q0 -80 -37 -143t-120 -141q-50 -47 -75 -74t-45.5 -62.5t-27 -73t-6.5 -94.5v-18q0 -150 73 -228.5t220 -78.5q301 0 301 319v111q0 115 -61.5 173t-149.5 58h-8v135h6q114 0 169.5 76.5t55.5 212.5v13h172v-13q0 -289 -221 -350
q101 -30 156 -106.5t55 -190.5v-117z" />
    <glyph glyph-name="uni0E0C" unicode="&#xe0c;" horiz-adv-x="1982" 
d="M1837 410q0 -203 -98.5 -315.5t-282.5 -112.5q-70 0 -130.5 17.5t-99 41.5t-70 57t-46.5 56.5t-25 46.5v-201h-172v768q0 159 -79 242.5t-232 83.5q-149 0 -231 -74t-82 -189v-18h243v-119q-103 -19 -158 -84t-55 -172v-106q0 -205 191 -205q65 0 104 16v-137
q-59 -20 -139 -20q-154 0 -242 83.5t-88 260.5v98q0 220 189 277h-215v98q0 90 31.5 168t91.5 137t154.5 93t213.5 34q229 0 353 -122.5t124 -346.5v-264q0 -161 91.5 -266t236.5 -105q68 0 118 25t77 67.5t40 91.5t13 105v797h174v-807z" />
    <glyph glyph-name="uni0E0D" unicode="&#xe0d;" horiz-adv-x="1996" 
d="M1841 20q0 -241 -129 -361t-348 -120q-108 0 -193.5 28t-140.5 77t-86 110t-39 131h170q22 -98 89.5 -150t199.5 -52q69 0 122 16t95.5 52.5t65 102.5t22.5 158v207q-10 -23 -25 -46.5t-46.5 -56.5t-70.5 -57t-100 -41.5t-133 -17.5q-186 0 -285.5 111t-99.5 313v362
q0 144 -78 226t-229 82q-149 0 -231 -74t-82 -189v-18h243v-119q-103 -19 -158 -84t-55 -172v-106q0 -205 191 -205q65 0 104 16v-137q-59 -20 -139 -20q-154 0 -242 83.5t-88 260.5v98q0 220 189 277h-215v98q0 90 31.5 168t91.5 137t154.5 93t213.5 34q228 0 350.5 -119
t122.5 -332v-354q0 -129 60.5 -204.5t187.5 -75.5q152 0 244 104t92 266v697h174v-1197z" />
    <glyph glyph-name="uni0E0E" unicode="&#xe0e;" horiz-adv-x="1339" 
d="M381 -471h-174v27q0 141 98.5 227t276.5 86q149 0 267 -57.5t173 -130.5v1064q0 162 -85 255.5t-259 93.5q-163 0 -255.5 -77t-92.5 -186v-18h243v-119q-91 -18 -124 -77t-33 -171v-178q0 -155 -85.5 -216.5t-254.5 -61.5v139q94 5 130 33.5t36 105.5v168
q0 122 29.5 183.5t103.5 85.5h-215v83q0 197 136 322t388 125q254 0 383 -131t129 -361v-1214h-166q-64 82 -167 139.5t-230 57.5q-130 0 -191 -59t-61 -138z" />
    <glyph glyph-name="uni0E0F" unicode="&#xe0f;" horiz-adv-x="1339" 
d="M229 -471h-22v149h22q39 0 77 11.5t79.5 49.5t60.5 99h46l135 -153l137 157h29l145 -166q45 10 64.5 44t19.5 96v929q0 162 -85 255.5t-259 93.5q-163 0 -255.5 -77t-92.5 -186v-18h243v-119q-91 -18 -124 -77t-33 -171v-178q0 -155 -85.5 -216.5t-254.5 -61.5v139
q94 5 130 33.5t36 105.5v168q0 122 29.5 183.5t103.5 85.5h-215v83q0 197 136 322t388 125q254 0 383 -131t129 -361v-913q0 -134 -63.5 -217.5t-188.5 -83.5h-35l-131 149l-131 -149h-41l-121 139q-45 -83 -109.5 -111t-146.5 -28z" />
    <glyph glyph-name="uni0E10" unicode="&#xe10;" horiz-adv-x="1241" 
d="M1139 614q0 -294 -141.5 -462t-376.5 -168q-119 0 -220 32l-116 492h-174v137h301l125 -510q42 -10 81 -10q153 0 249 134.5t96 358.5v15q0 123 -28.5 214t-80.5 144t-118.5 78t-149.5 25q-147 0 -245 -72.5t-118 -198.5h-164q27 201 171.5 306.5t355.5 105.5
q209 0 338 -109l135 160h192l-229 -260q117 -135 117 -393v-19zM1116 -203q0 -140 -67.5 -216.5t-202.5 -76.5q-84 0 -148 34.5t-116 115.5q-28 -41 -54.5 -66.5t-50 -40.5t-61 -22t-69 -8.5t-93.5 -1.5h-70v143h68q122 0 182 33.5t113 126.5h65q42 -84 89 -125t112 -41
q129 0 129 145v43h174v-43z" />
    <glyph glyph-name="uni0E11" unicode="&#xe11;" horiz-adv-x="1310" 
d="M332 0h-172v457q0 107 44.5 190.5t143.5 190.5q19 21 47.5 50.5t40.5 42.5t26.5 32t19.5 33.5t5 31.5q0 34 -21.5 54t-59.5 20q-95 0 -119 -156h-142l-90 271h127l51 -187q4 58 23 99.5t48 63t61 31t69 9.5q79 0 130.5 -41t60.5 -121q114 162 290 162q112 0 179 -66
t67 -190v-977h-172v958q0 127 -106 127q-54 0 -121 -49t-207 -200q-138 -149 -180.5 -226.5t-42.5 -199.5v-410z" />
    <glyph glyph-name="uni0E12" unicode="&#xe12;" horiz-adv-x="2062" 
d="M1919 410q0 -203 -98.5 -315.5t-282.5 -112.5q-70 0 -130.5 17.5t-99 41.5t-70 57t-46.5 56.5t-25 46.5v-201h-172v858q0 95 -27.5 142t-97.5 69l-182 -131h-14l-166 131q-219 -54 -219 -444v-15q0 -477 358 -477q57 0 103 12v-143q-51 -14 -140 -14q-235 0 -366 153.5
t-131 468.5v15q0 271 101.5 423.5t315.5 184.5l156 -127l164 127q75 -14 131 -40t91.5 -59t57.5 -78t30.5 -92.5t8.5 -105.5v-356q0 -161 91.5 -266t236.5 -105q68 0 118 25t77 67.5t40 91.5t13 105v797h174v-807z" />
    <glyph glyph-name="uni0E13" unicode="&#xe13;" horiz-adv-x="1996" 
d="M1669 201q-10 -23 -25 -46.5t-46.5 -56.5t-70.5 -57t-100 -41.5t-133 -17.5q-186 0 -285.5 111t-99.5 313v360q0 153 -79 240.5t-230 87.5q-141 0 -226 -75.5t-85 -187.5v-18h243v-119q-213 -39 -213 -256v-106q0 -205 191 -205q65 0 104 16v-137q-59 -20 -139 -20
q-154 0 -242 83.5t-88 260.5v98q0 122 49.5 186t139.5 91h-215v92q0 195 129.5 316.5t359.5 121.5q229 0 352 -125t123 -346v-352q0 -129 60.5 -205t187.5 -76q152 0 244 104.5t92 266.5v715h174v-1217h-172v201z" />
    <glyph glyph-name="uni0E14" unicode="&#xe14;" horiz-adv-x="1337" 
d="M745 2q-51 -14 -137 -14q-230 0 -362.5 155.5t-132.5 456.5v14q0 158 41 278t117.5 194.5t179.5 111.5t233 37q245 0 377.5 -124.5t132.5 -346.5v-764h-174v764q0 159 -86.5 244.5t-247.5 85.5q-86 0 -156 -26t-125 -81t-85.5 -150t-30.5 -223v-14q0 -239 96 -355
t258 -116q55 0 102 12v-139z" />
    <glyph glyph-name="uni0E15" unicode="&#xe15;" horiz-adv-x="1343" 
d="M748 2q-51 -14 -138 -14q-229 0 -363 159.5t-134 462.5v15q0 259 106 417.5t318 190.5l168 -139l176 139q75 -14 131 -40t91.5 -59t57.5 -78t30.5 -92.5t8.5 -105.5v-858h-174v858q0 95 -28 142.5t-101 68.5l-190 -133h-15l-174 133q-106 -26 -167.5 -139t-61.5 -305v-15
q0 -243 98.5 -362t259.5 -119q55 0 101 12v-139z" />
    <glyph glyph-name="uni0E16" unicode="&#xe16;" horiz-adv-x="1298" 
d="M614 6q-59 -20 -139 -20q-154 0 -242 83.5t-88 260.5v98q0 122 49.5 186t139.5 91h-215v83q0 197 136 322t388 125q254 0 383 -131t129 -361v-743h-174v745q0 162 -85 255.5t-259 93.5q-163 0 -255.5 -77t-92.5 -186v-18h243v-119q-213 -39 -213 -256v-106
q0 -205 191 -205q65 0 104 16v-137z" />
    <glyph glyph-name="uni0E17" unicode="&#xe17;" horiz-adv-x="1290" 
d="M330 0h-174v1217h172v-211q11 24 25.5 48t48.5 58.5t75.5 60t109 44t146.5 18.5q207 0 309.5 -117.5t102.5 -324.5v-793h-174v741q0 73 -12.5 130.5t-42 108t-86.5 78t-140 27.5q-164 0 -262 -103.5t-98 -266.5v-715z" />
    <glyph glyph-name="uni0E18" unicode="&#xe18;" horiz-adv-x="1251" 
d="M1139 367q0 -193 -132.5 -291.5t-353.5 -98.5q-252 0 -481 121v463h170v-377q147 -65 309 -65q314 0 314 243q0 103 -63.5 161t-213.5 87l-549 105v116q0 102 36 180t102 126t153.5 72t194.5 24q221 0 349.5 -94t149.5 -244h-174q-16 89 -95.5 143t-223.5 54
q-151 0 -237.5 -62t-86.5 -172v-27l438 -86q192 -38 293 -126t101 -252z" />
    <glyph glyph-name="uni0E19" unicode="&#xe19;" horiz-adv-x="1290" 
d="M963 211q-11 -24 -26 -48t-48.5 -58.5t-75.5 -60t-109.5 -44t-146.5 -18.5q-207 0 -309.5 117.5t-102.5 324.5v793h174v-742q0 -73 12.5 -130.5t42 -108t86.5 -78t140 -27.5q164 0 262.5 104t98.5 267v715h174v-1217h-172v211z" />
    <glyph glyph-name="uni0E1A" unicode="&#xe1a;" horiz-adv-x="1277" 
d="M1133 469q0 -233 -121.5 -362.5t-372.5 -129.5t-372.5 129.5t-121.5 362.5v748h174v-750q0 -77 17 -138t53.5 -109.5t99.5 -74.5t150 -26q168 0 243.5 94t75.5 254v750h175v-748z" />
    <glyph glyph-name="uni0E1B" unicode="&#xe1b;" horiz-adv-x="1277" 
d="M1133 469q0 -233 -121.5 -362.5t-372.5 -129.5t-372.5 129.5t-121.5 362.5v748h174v-750q0 -77 17 -138t53.5 -109.5t99.5 -74.5t150 -26q168 0 243.5 94t75.5 254v1165h175v-1163z" />
    <glyph glyph-name="uni0E1C" unicode="&#xe1c;" horiz-adv-x="1361" 
d="M352 0h-207v897q0 332 310 332q71 0 133 -19v-137q-41 14 -92 14q-88 0 -135.5 -40.5t-47.5 -147.5v-700l340 510h45l340 -510v1020h168v-1219h-205l-325 483z" />
    <glyph glyph-name="uni0E1D" unicode="&#xe1d;" horiz-adv-x="1359" 
d="M352 0h-207v897q0 332 310 332q71 0 133 -19v-137q-41 14 -92 14q-88 0 -135.5 -40.5t-47.5 -147.5v-700l340 510h45l340 -510v1433h168v-1632h-205l-325 483z" />
    <glyph glyph-name="uni0E1E" unicode="&#xe1e;" horiz-adv-x="1585" 
d="M504 0h-172l-260 1217h174l200 -941l295 941h103l295 -941l200 941h174l-260 -1217h-172l-288 918z" />
    <glyph glyph-name="uni0E1F" unicode="&#xe1f;" horiz-adv-x="1585" 
d="M510 0h-178l-260 1217h174l200 -941l291 941h115l299 -941l246 1356h166l-306 -1632h-170l-292 920z" />
    <glyph glyph-name="uni0E20" unicode="&#xe20;" horiz-adv-x="1267" 
d="M375 268q0 -155 -85.5 -216.5t-254.5 -61.5v139q94 5 130 33.5t36 105.5v168q0 122 29.5 183.5t103.5 85.5h-215v83q0 197 136 322t388 125q254 0 383 -131t129 -361v-743h-174v745q0 162 -85 255.5t-259 93.5q-163 0 -255.5 -77t-92.5 -186v-18h243v-119
q-91 -18 -124 -77t-33 -171v-178z" />
    <glyph glyph-name="uni0E21" unicode="&#xe21;" horiz-adv-x="1290" 
d="M1145 424q0 -207 -102.5 -324.5t-309.5 -117.5q-79 0 -146.5 18.5t-109 44t-75.5 60t-48.5 58.5t-25.5 48v-211h-172v1217h174v-715q0 -163 98 -267t262 -104q83 0 140 27.5t86.5 78t42 108t12.5 130.5v742h174v-793z" />
    <glyph glyph-name="uni0E22" unicode="&#xe22;" horiz-adv-x="1284" 
d="M1139 455q0 -254 -123.5 -366t-380.5 -112q-254 0 -381 99.5t-127 275.5q0 247 250 297q-118 18 -185 86t-67 187q0 142 98 225.5t277 83.5q82 0 166 -23v-135q-66 17 -129 17q-113 0 -175.5 -46t-62.5 -135q0 -88 66 -137t204 -49h97v-141h-70q-159 0 -227 -53.5
t-68 -157.5q0 -115 82 -183.5t252 -68.5q168 0 249 77t81 257v764h174v-762z" />
    <glyph glyph-name="uni0E23" unicode="&#xe23;" horiz-adv-x="1118" 
d="M1040 336q0 -169 -122 -264t-334 -95q-222 0 -348 97t-152 256h168q14 -92 101.5 -151.5t228.5 -59.5q139 0 214.5 59t75.5 158q0 28 -8 51t-19 40t-36.5 33t-46.5 26t-65 23t-75 21t-92 23q-54 13 -92 24t-85 28t-79 35.5t-64.5 45t-52 57t-32 72t-12.5 90.5
q0 108 60 184t156.5 111t217.5 35q198 0 325 -88.5t144 -255.5h-166q-15 92 -96.5 147.5t-206.5 55.5q-120 0 -193 -50.5t-73 -136.5q0 -28 9.5 -52t22.5 -41.5t39.5 -33.5t47.5 -26t61 -22t64.5 -18.5t72.5 -17.5q91 -21 149.5 -39.5t119.5 -47.5t95.5 -64t56 -88
t21.5 -121z" />
    <glyph glyph-name="uni0E24" unicode="&#xe24;" horiz-adv-x="1296" 
d="M1155 -471h-174v1216q0 162 -85 255.5t-259 93.5q-163 0 -255.5 -77t-92.5 -186v-18h243v-119q-213 -39 -213 -256v-106q0 -205 191 -205q65 0 104 16v-137q-59 -20 -139 -20q-154 0 -242 83.5t-88 260.5v98q0 122 49.5 186t139.5 91h-215v83q0 197 136 322t388 125
q254 0 383 -131t129 -361v-1214z" />
    <glyph glyph-name="uni0E25" unicode="&#xe25;" horiz-adv-x="1273" 
d="M739 12q-100 -28 -211 -28q-201 0 -307 90.5t-106 251.5q0 65 17 118.5t60 101.5t110 81t171.5 52t241.5 19h243v90q0 149 -80.5 227.5t-234.5 78.5q-148 0 -229 -67t-97 -173h-172q5 77 38.5 144.5t93 121t154.5 84.5t214 31q229 0 357 -113t128 -327v-795h-172v559
h-241q-104 0 -182 -13.5t-123.5 -35.5t-73.5 -53.5t-37.5 -62.5t-9.5 -68q0 -201 264 -201q88 0 184 22v-135z" />
    <glyph glyph-name="uni0E26" unicode="&#xe26;" horiz-adv-x="1298" 
d="M1155 -471h-174v1216q0 162 -85 255.5t-259 93.5q-163 0 -255.5 -77t-92.5 -186v-18h243v-119q-91 -18 -124 -77t-33 -171v-178q0 -155 -85.5 -216.5t-254.5 -61.5v139q94 5 130 33.5t36 105.5v168q0 122 29.5 183.5t103.5 85.5h-215v83q0 197 136 322t388 125
q254 0 383 -131t129 -361v-1214z" />
    <glyph glyph-name="uni0E27" unicode="&#xe27;" horiz-adv-x="1230" 
d="M1137 598q0 -302 -146 -462.5t-397 -160.5q-193 0 -317.5 92t-172.5 250h175q36 -98 117.5 -148t193.5 -50q171 0 275 120t104 361v16q0 122 -29.5 215t-82.5 148.5t-119.5 83t-145.5 27.5q-123 0 -212.5 -67.5t-129.5 -199.5h-174q40 203 177.5 306.5t336.5 103.5
q250 0 398.5 -160t148.5 -457v-18z" />
    <glyph glyph-name="uni0E28" unicode="&#xe28;" horiz-adv-x="1318" 
d="M315 0h-172v743q0 235 123 363.5t385 128.5q203 0 314 -78l110 129h193l-203 -231q96 -112 96 -312v-743h-174v752q0 57 -10 106t-34.5 93t-62 74.5t-95.5 48.5t-132 18q-92 0 -160 -26.5t-107 -75t-57 -107.5t-18 -131v-279q22 54 57 91.5t79.5 56.5t90 26.5t101.5 7.5
h121v-145h-121q-55 0 -97.5 -6.5t-87 -26.5t-73.5 -54t-47.5 -94t-18.5 -141v-188z" />
    <glyph glyph-name="uni0E29" unicode="&#xe29;" horiz-adv-x="1325" 
d="M1153 475q0 -234 -123.5 -366t-380.5 -132t-380.5 132t-123.5 366v742h174v-742q0 -77 17 -139t54.5 -111.5t103 -76.5t155.5 -27t155.5 27t103 76.5t54.5 111.5t17 139v121h-320v143h320v478h174v-478h154v-143h-154v-121z" />
    <glyph glyph-name="uni0E2A" unicode="&#xe2a;" horiz-adv-x="1294" 
d="M741 12q-100 -28 -209 -28q-202 0 -309.5 90.5t-107.5 251.5q0 372 602 372h239v90q0 147 -80.5 226.5t-234.5 79.5q-148 0 -229 -67t-97 -173h-172q5 79 40 147t95.5 121t153 83t205.5 30q199 0 313 -94l125 145h193l-217 -248q77 -92 77 -243v-795h-172v559h-237
q-104 0 -182 -13.5t-123.5 -35.5t-73.5 -53.5t-37.5 -62.5t-9.5 -68q0 -201 266 -201q86 0 182 22v-135z" />
    <glyph glyph-name="uni0E2B" unicode="&#xe2b;" horiz-adv-x="1214" 
d="M322 0h-166v1217h163v-623l588 623h191l-400 -420q33 8 78 8q148 0 244 -90t96 -258v-457h-174v440q0 130 -63.5 193t-171.5 63q-99 0 -160 -61l-225 -229v-406z" />
    <glyph glyph-name="uni0E2C" unicode="&#xe2c;" horiz-adv-x="1585" 
d="M504 0h-172l-260 1217h174l200 -941l295 818h103l295 -818l135 652q34 157 -6.5 223t-165.5 66h-121v141h176q41 0 70 1.5t55.5 9t43 13.5t33.5 25t27 34t23.5 49.5t22.5 61.5t26 80h152q-55 -197 -105 -266.5t-159 -95.5q58 -28 87.5 -84.5t29.5 -121t-13 -136.5
l-197 -928h-172l-288 836z" />
    <glyph glyph-name="uni0E2D" unicode="&#xe2d;" horiz-adv-x="1347" 
d="M1257 594q0 -289 -162 -453t-419 -164q-252 0 -408.5 155t-156.5 419v104h546v-135h-370q9 -192 111 -296.5t274 -104.5q83 0 154 26.5t129 81t91 149t33 220.5v16q0 101 -23 183t-62 136.5t-91.5 91.5t-109.5 53t-119 16q-87 0 -166 -29.5t-137.5 -92.5t-71.5 -147h-170
q20 129 102 224t197 140.5t248 45.5q121 0 225.5 -40.5t184.5 -116.5t125.5 -196t45.5 -270v-16z" />
    <glyph glyph-name="uni0E2E" unicode="&#xe2e;" horiz-adv-x="1363" 
d="M1257 594q0 -289 -162 -453t-419 -164q-252 0 -408.5 155t-156.5 419v104h546v-135h-370q9 -192 111 -296.5t274 -104.5q83 0 154 26.5t129 81t91 149t33 220.5v16q0 101 -23 183t-62 136.5t-91.5 91.5t-109.5 53t-119 16q-87 0 -166 -29.5t-137.5 -92.5t-71.5 -147h-170
q20 129 102 224t197 140.5t248 45.5q103 0 194 -28.5t152 -80.5l139 162h193l-234 -264q137 -162 137 -412v-16z" />
    <glyph glyph-name="uni0E2F" unicode="&#xe2f;" horiz-adv-x="1144" 
d="M969 0h-174v659q-45 -67 -129 -113t-207 -46q-185 0 -298.5 104t-113.5 279q0 160 104 255t287 95q91 0 162 -31v-135q-71 25 -141 25q-120 0 -185 -56.5t-65 -156.5q0 -103 70.5 -170.5t203.5 -67.5q79 0 140.5 25t98 66.5t55 91.5t18.5 104v291h174v-1219z" />
    <glyph glyph-name="uni0E30" unicode="&#xe30;" horiz-adv-x="700" 
d="M631 780h-269q-145 0 -209.5 50t-64.5 178v61h164v-47q0 -59 28.5 -79.5t100.5 -20.5h250v-142zM631 109h-269q-145 0 -209.5 49.5t-64.5 177.5v61h164v-47q0 -59 28.5 -79.5t100.5 -20.5h250v-141z" />
    <glyph glyph-name="uni0E31" unicode="&#xe31;" 
d="M41 1386h-485q-139 0 -205 56.5t-66 183.5v49h164v-49q0 -53 26.5 -76.5t80.5 -23.5h485v-140z" />
    <glyph glyph-name="uni0E32" unicode="&#xe32;" horiz-adv-x="901" 
d="M743 0h-174v831q0 137 -67.5 200t-198.5 63q-132 0 -268 -62v146q130 57 291 57q417 0 417 -395v-840z" />
    <glyph glyph-name="uni0E33" unicode="&#xe33;" horiz-adv-x="931" 
d="M-43 1544q0 -86 -58 -138t-151 -52t-151 52t-58 138q0 87 58 141t151 54t151 -54t58 -141zM-344 1544q0 -43 25 -70.5t67 -27.5q41 0 66.5 27.5t25.5 70.5q0 44 -26 72.5t-66 28.5q-41 0 -66.5 -28.5t-25.5 -72.5zM743 0h-174v831q0 137 -67.5 200t-198.5 63
q-132 0 -268 -62v146q130 57 291 57q417 0 417 -395v-840z" />
    <glyph glyph-name="uni0E34" unicode="&#xe34;" 
d="M-156 1386h-960v140h960v-140z" />
    <glyph glyph-name="uni0E35" unicode="&#xe35;" 
d="M-156 1386h-960v140h797v190h163v-330z" />
    <glyph glyph-name="uni0E36" unicode="&#xe36;" 
d="M-350 1386h-766v142h608q-6 18 -6 43q0 73 56 120.5t141 47.5q86 0 139 -48.5t53 -129.5q0 -82 -59 -128.5t-166 -46.5zM-403 1563q0 -38 22 -62t59 -24t59.5 24t22.5 62t-22.5 62t-59.5 24t-59 -24t-22 -62z" />
    <glyph glyph-name="uni0E37" unicode="&#xe37;" 
d="M-156 1386h-960v140h514v190h153v-190h140v190h153v-330z" />
    <glyph glyph-name="uni0E38" unicode="&#xe38;" 
d="M-156 -580h-166v209q0 39 -19 55.5t-60 16.5q-48 0 -88 -16v137q66 24 139 24q194 0 194 -182v-244z" />
    <glyph glyph-name="uni0E39" unicode="&#xe39;" 
d="M-156 -383q0 -96 -69.5 -156.5t-204.5 -60.5q-138 0 -203 59.5t-65 157.5v49q0 47 -47 47q-28 0 -56 -8v115q48 20 111 20q80 0 111.5 -33.5t31.5 -99.5v-41q0 -70 23.5 -104.5t93.5 -34.5t94.5 35t24.5 104v172h155v-221z" />
    <glyph glyph-name="uni0E3A" unicode="&#xe3a;" 
d="M-135 -279q0 -53 -35 -86.5t-90 -33.5q-54 0 -88.5 33.5t-34.5 86.5t34.5 87t88.5 34q55 0 90 -34t35 -87z" />
    <glyph glyph-name="uni0E3F" unicode="&#xe3f;" horiz-adv-x="1273" 
d="M686 -276h-121v276h-381v1464h381v201h121v-203q410 -20 410 -377v-8q0 -234 -222 -309q157 -38 225 -121.5t68 -228.5v-8q0 -202 -127.5 -306t-353.5 -104v-276zM358 1325v-500h207v500h-207zM686 1323v-496q126 10 181 71.5t55 184.5v9q0 109 -57.5 164.5t-178.5 66.5z
M358 686v-547h207v547h-207zM686 686v-547q307 3 307 273v8q0 130 -73.5 195t-233.5 71z" />
    <glyph glyph-name="uni0E40" unicode="&#xe40;" horiz-adv-x="612" 
d="M557 2q-63 -18 -119 -18q-235 0 -235 239v994h174v-963q0 -66 27.5 -97.5t87.5 -31.5q27 0 65 10v-133z" />
    <glyph glyph-name="uni0E41" unicode="&#xe41;" horiz-adv-x="1224" 
d="M1169 2q-63 -18 -118 -18q-236 0 -236 239v994h174v-963q0 -66 27.5 -97.5t87.5 -31.5q27 0 65 10v-133zM557 2q-63 -18 -119 -18q-235 0 -235 239v994h174v-963q0 -66 27.5 -97.5t87.5 -31.5q27 0 65 10v-133z" />
    <glyph glyph-name="uni0E42" unicode="&#xe42;" horiz-adv-x="694" 
d="M637 2q-63 -18 -119 -18q-235 0 -235 239v1059q0 198 -48 301.5t-172 128.5v129h689v-141h-459q85 -45 124.5 -148t39.5 -270v-1028q0 -66 27 -97.5t87 -31.5q28 0 66 10v-133z" />
    <glyph glyph-name="uni0E43" unicode="&#xe43;" horiz-adv-x="684" 
d="M629 2q-63 -18 -119 -18q-236 0 -236 239v721q0 65 8 118.5t27.5 102.5t34 77t43.5 79q51 86 73.5 138.5t22.5 105.5q0 71 -43.5 113t-120.5 42t-121 -44t-53 -120h-165q10 152 108.5 228t241.5 76q147 0 235 -78t88 -217q0 -120 -84 -258q-31 -51 -47.5 -82.5t-36 -79
t-28 -98.5t-8.5 -111v-682q0 -66 27 -97.5t85 -31.5q30 0 68 10v-133z" />
    <glyph glyph-name="uni0E44" unicode="&#xe44;" horiz-adv-x="694" 
d="M639 2q-63 -18 -119 -18q-235 0 -235 239v781q0 65 10.5 119.5t34 105t43.5 84t57 86.5q31 45 46.5 71t29.5 62t14 67q0 77 -76 99l-118 -150h-93q-7 71 -62.5 109.5t-135.5 38.5v159q98 0 166 -49t92 -127l135 176q133 -24 196.5 -87t63.5 -166q0 -60 -21.5 -112
t-72.5 -130q-31 -48 -48 -77.5t-41 -78.5t-35 -100t-11 -105v-745q0 -66 27 -97.5t85 -31.5q30 0 68 10v-133z" />
    <glyph glyph-name="uni0E45" unicode="&#xe45;" horiz-adv-x="931" 
d="M743 -471h-174v1302q0 137 -67.5 200t-198.5 63q-132 0 -268 -62v146q130 57 291 57q417 0 417 -395v-1311z" />
    <glyph glyph-name="uni0E46" unicode="&#xe46;" horiz-adv-x="1263" 
d="M1090 -352h-175v1220q0 94 -29.5 138t-94.5 67l-170 -123h-25l-164 123q-156 -53 -156 -239q0 -126 72 -198.5t189 -72.5q57 0 112 12v-135q-53 -16 -135 -16q-189 0 -298.5 110t-109.5 300q0 175 92 276.5t246 122.5l166 -129l181 129q154 -39 226.5 -121.5t72.5 -226.5
v-1237z" />
    <glyph glyph-name="uni0E47" unicode="&#xe47;" 
d="M-209 1587q0 -110 -54 -160.5t-138 -50.5q-74 0 -118 35.5t-61 81.5l-100 -115h-35q-119 0 -182.5 67t-63.5 177q0 103 71.5 168t189.5 65h503v-131h-499q-54 0 -85.5 -30t-31.5 -76t26 -78.5t70 -32.5l113 121h74q5 -51 32 -86t70 -35q36 0 54 26.5t18 70.5v24h147v-41z
" />
    <glyph glyph-name="uni0E48" unicode="&#xe48;" 
d="M-160 1386h-166v388h166v-388z" />
    <glyph glyph-name="uni0E49" unicode="&#xe49;" 
d="M-29 1386h-676v89q162 41 162 122q0 68 -90 68q-50 0 -98 -20v106q61 27 143 27q209 0 209 -140q0 -73 -45 -118h395v-134z" />
    <glyph glyph-name="uni0E4A" unicode="&#xe4a;" 
d="M-520 1382q-35 -6 -78 -6q-109 0 -174.5 52.5t-65.5 152.5q0 99 64.5 152t167.5 55l112 -82l109 82q111 -8 164 -61t53 -158v-51h193v-132h-355v170q0 89 -59 95l-98 -68h-9l-100 68q-35 -2 -55.5 -21t-20.5 -55q0 -40 27.5 -60t75.5 -20q17 0 49 4v-117z" />
    <glyph glyph-name="uni0E4B" unicode="&#xe4b;" 
d="M-160 1386h-166v132h-174v137h174v119h166v-119h174v-137h-174v-132z" />
    <glyph glyph-name="uni0E4C" unicode="&#xe4c;" 
d="M-266 1386h-164v62q0 128 64.5 177.5t209.5 49.5h222v-139h-203q-72 0 -100.5 -20.5t-28.5 -79.5v-50z" />
    <glyph glyph-name="uni0E4D" unicode="&#xe4d;" 
d="M-43 1544q0 -86 -58 -138t-151 -52t-151 52t-58 138q0 87 58 141t151 54t151 -54t58 -141zM-344 1544q0 -43 25 -70.5t67 -27.5q41 0 66.5 27.5t25.5 70.5q0 44 -26 72.5t-66 28.5q-41 0 -66.5 -28.5t-25.5 -72.5z" />
    <glyph glyph-name="uni0E4E" unicode="&#xe4e;" 
d="M-360 1386h-136v50q0 196 183 196h22v15q0 149 189 149h98v-119h-57q-57 0 -80 -23.5t-23 -76.5v-51h-92q-56 0 -80 -24t-24 -79v-37z" />
    <glyph glyph-name="uni0E4F" unicode="&#xe4f;" horiz-adv-x="1384" 
d="M1241 532q0 -157 -72 -275t-195.5 -178.5t-281.5 -60.5t-281.5 60.5t-195.5 178.5t-72 275v13q0 157 72 275t195.5 178.5t281.5 60.5t281.5 -60.5t195.5 -178.5t72 -275v-13zM301 532q0 -172 110 -276t281 -104t281 104t110 276v13q0 172 -110 276.5t-281 104.5
t-281 -104.5t-110 -276.5v-13zM969 539q0 -130 -76.5 -204.5t-200.5 -74.5t-200 74.5t-76 204.5t76 204t200 74t200.5 -74t76.5 -204zM549 539q0 -77 38.5 -119.5t104.5 -42.5t105 42.5t39 119.5t-39 119t-105 42t-104.5 -42t-38.5 -119z" />
    <glyph glyph-name="uni0E50" unicode="&#xe50;" horiz-adv-x="1331" 
d="M1204 528q0 -245 -151 -398t-387 -153q-235 0 -387 153.5t-152 397.5v13q0 244 152 397.5t387 153.5q236 0 387 -153t151 -398v-13zM303 528q0 -192 100.5 -300.5t262.5 -108.5q163 0 262.5 108t99.5 301v13q0 192 -99.5 300.5t-262.5 108.5q-162 0 -262.5 -109
t-100.5 -300v-13z" />
    <glyph glyph-name="uni0E51" unicode="&#xe51;" horiz-adv-x="1292" 
d="M1165 526q0 -302 -192.5 -461.5t-532.5 -164.5v141q132 6 231 35.5t171.5 86.5t109.5 148t37 215v15q0 111 -25.5 191.5t-73.5 127t-109.5 68.5t-139.5 22q-165 0 -253.5 -87.5t-88.5 -223.5v-8q0 -138 71.5 -215.5t209.5 -77.5q34 0 55 6v-137q-42 -10 -98 -10
q-189 0 -301.5 114.5t-112.5 317.5v8q0 204 142 329.5t378 125.5q237 0 379.5 -142t142.5 -409v-15z" />
    <glyph glyph-name="uni0E52" unicode="&#xe52;" horiz-adv-x="1536" 
d="M1393 465q0 -230 -153 -356.5t-464 -126.5q-307 0 -459.5 125.5t-152.5 357.5v876h174v-874q0 -160 106.5 -251t335.5 -91q228 0 333.5 91t105.5 251v287q0 87 -28.5 125.5t-92.5 54.5l-142 -107h-20l-141 107q-70 -14 -98.5 -57.5t-28.5 -118.5q0 -191 159 -191
q44 0 91 13v-138q-61 -14 -121 -14q-150 0 -226.5 90t-76.5 248q0 313 301 319l151 -120l152 120q137 -16 216 -91.5t79 -219.5v-309z" />
    <glyph glyph-name="uni0E53" unicode="&#xe53;" horiz-adv-x="1445" 
d="M653 0q-63 -14 -129 -14q-193 0 -287 139t-94 416v20q0 253 91 387.5t253 134.5q181 0 244 -174q69 172 256 172q133 0 214 -83t81 -224v-774h-174v754q0 168 -147 168q-146 0 -146 -179v-374h-170v374q0 87 -39.5 133t-109.5 46q-91 0 -135 -85t-44 -272v-22
q0 -225 55 -320.5t187 -95.5q48 0 94 10v-137z" />
    <glyph glyph-name="uni0E54" unicode="&#xe54;" horiz-adv-x="1282" 
d="M1188 0h-563q-248 0 -370 123.5t-122 392.5v8q0 279 146 413t413 134h119q90 0 126 37.5t36 114.5v118h174v-131q0 -143 -71 -211.5t-240 -68.5h-134q-395 0 -395 -406v-8q0 -108 22.5 -182t68.5 -116.5t108 -60.5t149 -18h189q-44 30 -70 85t-26 124q0 131 83 204
t211 73q52 0 107 -15v-141q-41 12 -78 12q-69 0 -109 -37.5t-40 -111.5q0 -35 10.5 -67.5t32.5 -61.5t61.5 -46.5t91.5 -17.5h70v-139z" />
    <glyph glyph-name="uni0E55" unicode="&#xe55;" horiz-adv-x="1282" 
d="M1188 0h-563q-248 0 -370 123.5t-122 392.5v8q0 407 322 500q-74 57 -74 141q0 87 58.5 141t152.5 54q92 0 149.5 -50t57.5 -134q0 -68 -43 -105h55q90 0 126 37.5t36 114.5v118h174v-131q0 -143 -71 -211.5t-240 -68.5h-134q-395 0 -395 -406v-8q0 -108 22.5 -182
t68.5 -116.5t108 -60.5t149 -18h189q-44 30 -70 85.5t-26 125.5q0 129 83.5 202t210.5 73q52 0 107 -15v-141q-41 12 -78 12q-68 0 -108.5 -37.5t-40.5 -109.5q0 -78 48 -136.5t148 -58.5h70v-139zM498 1165q0 -43 25 -70.5t67 -27.5q41 0 66.5 27.5t25.5 70.5
q0 44 -26 72.5t-66 28.5q-41 0 -66.5 -28.5t-25.5 -72.5z" />
    <glyph glyph-name="uni0E56" unicode="&#xe56;" horiz-adv-x="1316" 
d="M1204 526q0 -251 -149 -400t-393 -149q-217 0 -351.5 119t-134.5 322v63h346v-141h-178q1 -34 23.5 -72t61 -71.5t100.5 -55.5t133 -22q162 0 265 107.5t103 301.5v13q0 105 -29 185t-80 127.5t-117 71t-145 23.5q-124 0 -219 -55.5t-135 -165.5h-112l-97 614h162
l61 -391q131 140 357 140q232 0 380 -149t148 -402v-13z" />
    <glyph glyph-name="uni0E57" unicode="&#xe57;" horiz-adv-x="1855" 
d="M653 0q-63 -14 -129 -14q-193 0 -287 139t-94 416v20q0 256 89.5 389t246.5 133q177 0 240 -174q70 172 252 172q129 0 207.5 -81t78.5 -226v-631q155 6 218 83.5t63 238.5v876h174v-856q0 -230 -110.5 -357.5t-344.5 -127.5h-174v754q0 168 -141 168q-139 0 -139 -179
v-374h-170v374q0 89 -38.5 134t-105.5 45q-87 0 -129.5 -83.5t-42.5 -273.5v-22q0 -225 55 -320.5t187 -95.5q48 0 94 10v-137z" />
    <glyph glyph-name="uni0E58" unicode="&#xe58;" horiz-adv-x="1402" 
d="M1311 303q0 -162 -78.5 -238.5t-206.5 -76.5q-127 0 -199.5 68t-99.5 182l-139 -246h-35q-198 0 -312 132.5t-114 389.5v10q0 278 143 412.5t404 134.5h217q94 0 140 41.5t46 130.5v98h174v-98q0 -162 -88 -237.5t-272 -75.5h-199q-188 0 -289.5 -96.5t-101.5 -313.5v-8
q0 -187 62.5 -266.5t162.5 -79.5l152 244h133q16 -126 59 -192t129 -66q64 0 103 37t39 108v119h-129v137h299v-250z" />
    <glyph glyph-name="uni0E59" unicode="&#xe59;" horiz-adv-x="1257" 
d="M672 2q-54 -16 -148 -16q-101 0 -175 29t-127.5 93.5t-80 172.5t-26.5 262q0 280 89.5 412t274.5 132q88 0 150 -31t104 -98q6 56 39.5 83.5t108.5 41.5q40 7 62 13.5t45.5 19.5t33.5 35t10 55v135h164v-127q0 -45 -7 -79.5t-24 -59t-34 -40.5t-48.5 -29t-55.5 -20
t-66 -17q-67 -15 -96 -38.5t-29 -76.5q0 -54 34 -135l285 -719h-186l-305 801q-31 83 -75 114t-102 31q-107 0 -152.5 -92.5t-45.5 -306.5q0 -166 28 -257t86 -127t162 -36q63 0 107 12v-137z" />
    <glyph glyph-name="uni0E5A" unicode="&#xe5a;" horiz-adv-x="1595" 
d="M969 0h-174v659q-45 -67 -129 -113t-207 -46q-185 0 -298.5 104t-113.5 279q0 160 104 255t287 95q91 0 162 -31v-135q-71 25 -141 25q-120 0 -185 -56.5t-65 -156.5q0 -103 70.5 -170.5t203.5 -67.5q79 0 140.5 25t98 66.5t55 91.5t18.5 104v291h174v-553q70 5 124.5 31
t87 66.5t48.5 87t16 97.5v271h174v-1219h-174v680q-40 -58 -109 -102t-167 -54v-524z" />
    <glyph glyph-name="uni0E5B" unicode="&#xe5b;" horiz-adv-x="1691" 
d="M872 686q-12 -69 -32 -129t-54.5 -116t-79.5 -95.5t-109.5 -63.5t-141.5 -24q-156 0 -252.5 96t-96.5 250q0 159 98.5 246.5t252.5 87.5q66 0 125 -16v-134q-50 11 -86 11q-99 0 -159.5 -48.5t-60.5 -150.5q0 -89 51 -140.5t140 -51.5q72 0 127 36t91 102t58 141t37 171
h168l127 -352l121 352h139l84 -196q18 -41 28 -60.5t26.5 -40t37 -28t50.5 -7.5q21 0 55 6v-129q-30 -10 -76 -10q-83 0 -134.5 39.5t-88.5 130.5l-55 133l-115 -370h-139z" />
    <glyph glyph-name="uni1E80" unicode="&#x1e80;" horiz-adv-x="1900" 
d="M905 1579l-200 260h213l114 -260h-127zM451 0l-381 1464h182l297 -1181l344 1181h127l344 -1185l301 1185h166l-381 -1464h-164l-332 1157l-342 -1157h-161z" />
    <glyph glyph-name="uni1E81" unicode="&#x1e81;" horiz-adv-x="1626" 
d="M780 1255l-213 301h213l127 -301h-127zM387 0l-330 1071h185l250 -862l260 862h147l244 -862l252 862h174l-334 -1071h-188l-224 803l-250 -803h-186z" />
    <glyph glyph-name="uni1E82" unicode="&#x1e82;" horiz-adv-x="1900" 
d="M901 1579l115 260h213l-201 -260h-127zM451 0l-381 1464h182l297 -1181l344 1181h127l344 -1185l301 1185h166l-381 -1464h-164l-332 1157l-342 -1157h-161z" />
    <glyph glyph-name="uni1E83" unicode="&#x1e83;" horiz-adv-x="1626" 
d="M758 1255l127 301h213l-213 -301h-127zM387 0l-330 1071h185l250 -862l260 862h147l244 -862l252 862h174l-334 -1071h-188l-224 803l-250 -803h-186z" />
    <glyph glyph-name="uni1E84" unicode="&#x1e84;" horiz-adv-x="1900" 
d="M748 1616q-44 0 -76.5 32t-32.5 76t32.5 76.5t76.5 32.5t76 -32.5t32 -76.5t-32 -76t-76 -32zM1163 1616q-44 0 -76 32t-32 76t32 76.5t76 32.5t76.5 -32.5t32.5 -76.5t-32.5 -76t-76.5 -32zM451 0l-381 1464h182l297 -1181l344 1181h127l344 -1185l301 1185h166
l-381 -1464h-164l-332 1157l-342 -1157h-161z" />
    <glyph glyph-name="uni1E85" unicode="&#x1e85;" horiz-adv-x="1626" 
d="M631 1298q-44 0 -76.5 32.5t-32.5 76.5t32.5 76.5t76.5 32.5t76 -32.5t32 -76.5t-32 -76.5t-76 -32.5zM1016 1298q-44 0 -76.5 32.5t-32.5 76.5t32.5 76.5t76.5 32.5t76 -32.5t32 -76.5t-32 -76.5t-76 -32.5zM387 0l-330 1071h185l250 -862l260 862h147l244 -862l252 862
h174l-334 -1071h-188l-224 803l-250 -803h-186z" />
    <glyph glyph-name="uni1EF2" unicode="&#x1ef2;" horiz-adv-x="1224" 
d="M582 1579l-201 260h213l115 -260h-127zM537 0v639l-490 825h201l383 -680l368 680h179l-463 -827v-637h-178z" />
    <glyph glyph-name="uni1EF3" unicode="&#x1ef3;" horiz-adv-x="1083" 
d="M498 1255l-213 301h213l127 -301h-127zM268 -373l203 484l-420 960h182l328 -768l297 768h174l-592 -1444h-172z" />
    <glyph glyph-name="uni2009" unicode="&#x2009;" horiz-adv-x="225" 
 />
    <glyph glyph-name="uni2013" unicode="&#x2013;" horiz-adv-x="1077" 
d="M92 494v143h893v-143h-893z" />
    <glyph glyph-name="uni2014" unicode="&#x2014;" horiz-adv-x="1812" 
d="M92 494v143h1628v-143h-1628z" />
    <glyph glyph-name="uni2018" unicode="&#x2018;" horiz-adv-x="522" 
d="M244 999l-162 74l240 414l104 -53z" />
    <glyph glyph-name="uni2019" unicode="&#x2019;" horiz-adv-x="522" 
d="M201 999l-105 54l183 434l161 -74z" />
    <glyph glyph-name="uni201A" unicode="&#x201a;" horiz-adv-x="522" 
d="M201 -233l-105 53l183 434l161 -74z" />
    <glyph glyph-name="uni201C" unicode="&#x201c;" horiz-adv-x="884" 
d="M244 999l-162 74l240 414l104 -53zM606 999l-162 74l240 414l104 -53z" />
    <glyph glyph-name="uni201D" unicode="&#x201d;" horiz-adv-x="884" 
d="M201 999l-105 54l183 434l161 -74zM563 999l-104 54l182 434l162 -74z" />
    <glyph glyph-name="uni201E" unicode="&#x201e;" horiz-adv-x="884" 
d="M201 -233l-105 53l183 434l161 -74zM563 -233l-104 53l182 434l162 -74z" />
    <glyph glyph-name="uni2020" unicode="&#x2020;" horiz-adv-x="765" 
d="M307 436v627h-237v137h237v264h154v-264h235v-137h-235v-627h-154z" />
    <glyph glyph-name="uni2021" unicode="&#x2021;" horiz-adv-x="765" 
d="M307 838v225h-237v137h237v264h154v-264h235v-137h-235v-225h235v-138h-235v-264h-154v264h-237v138h237z" />
    <glyph glyph-name="uni2022" unicode="&#x2022;" horiz-adv-x="679" 
d="M340 389q-101 0 -169.5 69.5t-68.5 168.5t68.5 168t169.5 69q102 0 170 -69t68 -168t-68 -168.5t-170 -69.5z" />
    <glyph glyph-name="uni2026" unicode="&#x2026;" horiz-adv-x="1650" 
d="M289 -10q-54 0 -92.5 38t-38.5 93t38.5 93t92.5 38t92.5 -38t38.5 -93t-38.5 -93t-92.5 -38zM825 -10q-54 0 -92.5 38t-38.5 93t38.5 93t92.5 38t92.5 -38t38.5 -93t-38.5 -93t-92.5 -38zM1362 -10q-54 0 -92.5 38t-38.5 93t38.5 93t92.5 38t92.5 -38t38.5 -93t-38.5 -93
t-92.5 -38z" />
    <glyph glyph-name="uni2030" unicode="&#x2030;" horiz-adv-x="2306" 
d="M395 809q-129 0 -227 95.5t-98 234.5q0 145 96.5 241.5t228.5 96.5q134 0 230 -95.5t96 -238.5t-97.5 -238.5t-228.5 -95.5zM258 0l895 1464h156l-895 -1464h-156zM395 940q79 0 125.5 54.5t46.5 148.5q0 92 -47 147.5t-125 55.5t-125 -54t-47 -151q0 -95 47 -148
t125 -53zM1157 -16q-130 0 -228 95t-98 234q0 145 97 241.5t229 96.5q134 0 230 -95.5t96 -238.5t-97.5 -238t-228.5 -95zM1911 -16q-130 0 -228 95t-98 234q0 145 97 241.5t229 96.5q134 0 229.5 -95.5t95.5 -238.5t-97 -238t-228 -95zM1157 115q79 0 125.5 54t46.5 148
q0 92 -47 147.5t-125 55.5t-125 -54t-47 -151q0 -95 47 -147.5t125 -52.5zM1911 115q79 0 125.5 54t46.5 148q0 92 -47 147.5t-125 55.5t-125 -54t-47 -151q0 -95 47 -147.5t125 -52.5z" />
    <glyph glyph-name="uni2032" unicode="&#x2032;" horiz-adv-x="434" 
d="M94 963l51 501h185l-113 -501h-123z" />
    <glyph glyph-name="uni2033" unicode="&#x2033;" horiz-adv-x="768" 
d="M94 963l51 501h185l-113 -501h-123zM428 963l51 501h185l-113 -501h-123z" />
    <glyph glyph-name="uni2039" unicode="&#x2039;" horiz-adv-x="659" 
d="M387 170l-266 365l266 364h168l-256 -364l256 -365h-168z" />
    <glyph glyph-name="uni203A" unicode="&#x203a;" horiz-adv-x="659" 
d="M104 170l256 365l-256 364h168l267 -364l-267 -365h-168z" />
    <glyph glyph-name="uni2044" unicode="&#x2044;" horiz-adv-x="231" 
d="M-471 0l1038 1464h135l-1038 -1464h-135z" />
    <glyph glyph-name="uni20AC" unicode="&#x20ac;" horiz-adv-x="1380" 
d="M66 807v119h151q13 119 54.5 219.5t109.5 176t166 118.5t217 43q211 0 343 -118.5t157 -330.5h-168q-22 147 -109.5 228t-222.5 81q-161 0 -256.5 -111t-116.5 -306h490l-23 -119h-471v-160h440l-22 -119h-412q21 -192 115.5 -296.5t259.5 -104.5q143 0 232 85.5
t114 250.5h166q-25 -226 -161 -353.5t-351 -127.5q-229 0 -376 151t-175 395h-151v119h145v160h-145z" />
    <glyph glyph-name="uni2122" unicode="&#x2122;" horiz-adv-x="1466" 
d="M700 805v659h158l184 -463l181 463h159v-659h-114v514l-211 -514h-39l-213 514v-514h-105zM270 805v569h-200v90h514v-90h-199v-569h-115z" />
    <glyph glyph-name="uni2153" unicode="&#x2153;" horiz-adv-x="1480" 
d="M221 764v565l-166 -110v120l183 125h122v-700h-139zM92 0l1038 1464h136l-1039 -1464h-135zM1147 -10q-125 0 -195 61t-73 166h125q14 -125 139 -125q64 0 96.5 29.5t32.5 81.5q0 110 -123 110h-53v97h51q115 0 115 100q0 43 -27.5 69.5t-79.5 26.5q-54 0 -87.5 -29.5
t-39.5 -82.5h-125q6 96 74 155.5t180 59.5q109 0 172.5 -53.5t63.5 -135.5q0 -109 -117 -151q63 -14 100 -57.5t37 -110.5q0 -98 -71.5 -154.5t-194.5 -56.5z" />
    <glyph glyph-name="uni2154" unicode="&#x2154;" horiz-adv-x="1556" 
d="M23 764v22l262 279q110 113 110 199q0 48 -26.5 75t-75.5 27q-106 0 -123 -135h-125q6 115 72.5 178.5t179.5 63.5q109 0 171 -56t62 -151q0 -118 -135 -250l-149 -148h291v-104h-514zM197 0l1038 1464h135l-1038 -1464h-135zM1223 -10q-125 0 -195.5 61t-73.5 166h125
q14 -125 140 -125q64 0 96.5 29.5t32.5 81.5q0 110 -123 110h-54v97h52q114 0 114 100q0 43 -27 69.5t-79 26.5q-54 0 -87.5 -29.5t-39.5 -82.5h-125q6 96 74 155.5t180 59.5q109 0 172 -53.5t63 -135.5q0 -110 -116 -151q63 -14 100 -57.5t37 -110.5q0 -98 -71.5 -154.5
t-194.5 -56.5z" />
    <glyph glyph-name="uni215B" unicode="&#x215b;" horiz-adv-x="1462" 
d="M221 764v565l-166 -110v120l183 125h122v-700h-139zM92 0l1038 1464h136l-1039 -1464h-135zM1133 -10q-112 0 -188.5 54.5t-76.5 152.5q0 66 34.5 111.5t94.5 66.5q-102 44 -102 145q0 86 70.5 137.5t169.5 51.5t168 -51t69 -136q0 -100 -104 -145q131 -50 131 -176
q0 -99 -75.5 -155t-190.5 -56zM1135 416q48 0 77 26.5t29 71.5q0 43 -30.5 69.5t-75.5 26.5q-47 0 -78 -26.5t-31 -71.5q0 -44 32 -70t77 -26zM1135 92q56 0 91.5 31t35.5 88q0 54 -35.5 85.5t-91.5 31.5q-55 0 -91 -32t-36 -87t36 -86t91 -31z" />
    <glyph glyph-name="uni215C" unicode="&#x215c;" horiz-adv-x="1523" 
d="M317 754q-125 0 -195 61t-73 166h125q14 -125 139 -125q64 0 96.5 29.5t32.5 81.5q0 110 -123 110h-53v97h51q115 0 115 100q0 43 -27 69.5t-79 26.5q-54 0 -87.5 -30t-39.5 -83h-125q6 96 74 156t180 60q109 0 172 -53.5t63 -135.5q0 -109 -117 -151q63 -14 100.5 -57.5
t37.5 -110.5q0 -98 -72 -154.5t-195 -56.5zM178 0l1039 1464h135l-1039 -1464h-135zM1194 -10q-112 0 -188 54.5t-76 152.5q0 66 34.5 111.5t94.5 66.5q-103 44 -103 145q0 86 70.5 137.5t169.5 51.5t168.5 -51t69.5 -136q0 -100 -105 -145q131 -50 131 -176
q0 -99 -75.5 -155t-190.5 -56zM1196 416q48 0 77.5 26.5t29.5 71.5q0 43 -31 69.5t-76 26.5q-47 0 -78 -26.5t-31 -71.5q0 -44 32 -70t77 -26zM1196 92q56 0 91.5 31t35.5 88q0 54 -35.5 85.5t-91.5 31.5q-55 0 -91 -32t-36 -87t36 -86t91 -31z" />
    <glyph glyph-name="uni215D" unicode="&#x215d;" horiz-adv-x="1511" 
d="M303 754q-120 0 -184 58t-70 155h129q8 -53 35 -80t90 -27q56 0 87.5 36.5t31.5 100.5q0 62 -32 97.5t-89 35.5q-94 0 -143 -59h-74l8 393h430v-106h-325l-2 -189q54 62 153 62q97 0 156 -63.5t59 -172.5q0 -111 -71.5 -176t-188.5 -65zM164 0l1038 1464h135l-1038 -1464
h-135zM1182 -10q-112 0 -188 54.5t-76 152.5q0 66 34.5 111.5t94.5 66.5q-103 44 -103 145q0 86 70.5 137.5t169.5 51.5t168 -51t69 -136q0 -100 -104 -145q131 -50 131 -176q0 -99 -75.5 -155t-190.5 -56zM1184 416q48 0 77 26.5t29 71.5q0 43 -30.5 69.5t-75.5 26.5
q-47 0 -78 -26.5t-31 -71.5q0 -44 32 -70t77 -26zM1184 92q56 0 91.5 31t35.5 88q0 54 -35.5 85.5t-91.5 31.5q-55 0 -91 -32t-36 -87t36 -86t91 -31z" />
    <glyph glyph-name="uni215E" unicode="&#x215e;" horiz-adv-x="1454" 
d="M141 764l221 588h-321v112h494v-16l-254 -684h-140zM68 0l1038 1464h135l-1038 -1464h-135zM1124 -10q-112 0 -188 54.5t-76 152.5q0 66 34.5 111.5t94.5 66.5q-102 44 -102 145q0 86 70.5 137.5t168.5 51.5q99 0 168.5 -51t69.5 -136q0 -100 -104 -145q131 -50 131 -176
q0 -99 -76 -155t-191 -56zM1126 416q48 0 77.5 26.5t29.5 71.5q0 43 -31 69.5t-76 26.5q-47 0 -77.5 -26.5t-30.5 -71.5q0 -44 31.5 -70t76.5 -26zM1126 92q56 0 91.5 31t35.5 88q0 54 -35.5 85.5t-91.5 31.5q-55 0 -91 -32t-36 -87t36 -86t91 -31z" />
    <glyph glyph-name="uni2212" unicode="&#x2212;" horiz-adv-x="1062" 
d="M74 629v143h915v-143h-915z" />
    <glyph glyph-name="uni2248" unicode="&#x2248;" horiz-adv-x="1019" 
d="M90 702q10 118 73 181t152 63q66 0 141.5 -22.5t142 -45t110.5 -22.5q35 0 61.5 23.5t30.5 70.5h129q-9 -119 -71 -181t-148 -62q-69 0 -146 22.5t-143 45t-109 22.5q-35 0 -61 -24.5t-33 -70.5h-129zM90 340q10 118 73 181t152 63q66 0 141.5 -22.5t142 -45t110.5 -22.5
q35 0 61.5 23.5t30.5 70.5h129q-9 -119 -71 -181.5t-148 -62.5q-69 0 -146 22.5t-143 45t-109 22.5q-35 0 -61 -24t-33 -70h-129z" />
    <glyph glyph-name="uni2260" unicode="&#x2260;" horiz-adv-x="991" 
d="M82 770v148h440l82 210h156l-82 -210h231v-148h-288l-84 -221h372v-148h-430l-82 -211h-155l82 211h-242v148h299l84 221h-383z" />
    <glyph glyph-name="uni2264" unicode="&#x2264;" horiz-adv-x="1032" 
d="M895 244l-786 420v41l786 419v-163l-533 -277l533 -276v-164zM109 0v143h786v-143h-786z" />
    <glyph glyph-name="uni2265" unicode="&#x2265;" horiz-adv-x="1032" 
d="M137 244v164l533 276l-533 277v163l787 -419v-41zM137 0v143h787v-143h-787z" />
    <glyph glyph-name="uni24C5" unicode="&#x24c5;" horiz-adv-x="1728" 
d="M862 -18q-205 0 -377 98t-272 270.5t-100 380.5q0 154 59 293.5t159 240t240 159.5t295 59q157 0 296.5 -59t238.5 -159t157 -238t58 -292q0 -157 -59 -297t-159.5 -240t-240 -158t-295.5 -58zM862 68q130 0 249.5 49.5t209.5 135.5t143.5 212t53.5 270q0 190 -89 342.5
t-238 236t-325 83.5q-178 0 -327.5 -84t-238.5 -237.5t-89 -344.5q0 -144 53.5 -269.5t143.5 -211t208 -134t246 -48.5zM623 332v809h262q142 0 221.5 -63t79.5 -187v-6q0 -124 -79.5 -186t-215.5 -62h-113v-305h-155zM778 750h107q74 0 112.5 34.5t38.5 100.5v6
q0 129 -151 129h-107v-270z" />
    <glyph glyph-name="uniFB01" unicode="&#xfb01;" horiz-adv-x="1222" 
d="M209 0v928h-154v143h154v174q0 165 79.5 254.5t235.5 89.5q73 0 117 -16v-143q-47 18 -111 18q-151 0 -151 -184v-193h262v-143h-262v-928h-170zM958 1294q-46 0 -79 33.5t-33 79.5t33 79.5t79 33.5t79.5 -33.5t33.5 -79.5t-33.5 -79.5t-79.5 -33.5zM877 0v1071h170
v-1071h-170z" />
    <glyph glyph-name="uniFB02" unicode="&#xfb02;" horiz-adv-x="1224" 
d="M209 0v928h-154v143h154v174q0 165 79.5 254.5t235.5 89.5q73 0 117 -16v-143q-47 18 -111 18q-151 0 -151 -184v-193h262v-143h-262v-928h-170zM877 0v1583h172v-1583h-172z" />
    <glyph glyph-name="space_uni0326" horiz-adv-x="819" 
d="M367 -451l-105 54l119 321l164 -49z" />
    <glyph glyph-name="idotaccent" horiz-adv-x="522" 
d="M258 1294q-46 0 -79.5 33.5t-33.5 79.5t33.5 79.5t79.5 33.5t79.5 -33.5t33.5 -79.5t-33.5 -79.5t-79.5 -33.5zM176 0v1071h170v-1071h-170z" />
    <glyph glyph-name="uni0E0D.less" horiz-adv-x="2013" 
d="M1868 469q0 -232 -118.5 -362t-360.5 -130t-361 130t-119 362v317q0 143 -78.5 225.5t-230.5 82.5q-146 0 -228.5 -74.5t-82.5 -188.5v-18h243v-119q-103 -19 -158 -84t-55 -172v-106q0 -205 191 -205q65 0 104 16v-137q-59 -20 -139 -20q-154 0 -242 83.5t-88 260.5v98
q0 220 189 277h-215v98q0 90 31.5 168t91.5 137t155 93t215 34q228 0 349.5 -119t121.5 -332v-315q0 -76 17 -137.5t52 -109.5t95.5 -74.5t141.5 -26.5q158 0 231.5 94.5t73.5 253.5v748h174v-748z" />
    <glyph glyph-name="uni0E10.less" horiz-adv-x="1241" 
d="M1139 614q0 -294 -141.5 -462t-376.5 -168q-119 0 -220 32l-116 492h-174v137h301l125 -510q42 -10 81 -10q153 0 249 134.5t96 358.5v15q0 123 -28.5 214t-80.5 144t-118.5 78t-149.5 25q-147 0 -245 -72.5t-118 -198.5h-164q27 201 171.5 306.5t355.5 105.5
q209 0 338 -109l135 160h192l-229 -260q117 -135 117 -393v-19z" />
    <glyph glyph-name="uni0E31.narrow" 
d="M-471 1386h-328q-139 0 -204.5 56.5t-65.5 183.5v49h164v-49q0 -53 26 -76.5t80 -23.5h328v-140z" />
    <glyph glyph-name="uni0E34.narrow" 
d="M-469 1386h-797v140h797v-140z" />
    <glyph glyph-name="uni0E35.narrow" 
d="M-471 1386h-795v140h631v190h164v-330z" />
    <glyph glyph-name="uni0E36.narrow" 
d="M-676 1386h-590v142h432q-6 18 -6 43q0 73 56 120.5t141 47.5q86 0 139 -48.5t53 -129.5q0 -82 -59 -128.5t-166 -46.5zM-729 1563q0 -38 22.5 -62t59.5 -24t59.5 24t22.5 62t-22.5 62t-59.5 24t-59.5 -24t-22.5 -62z" />
    <glyph glyph-name="uni0E37.narrow" 
d="M-471 1386h-795v140h369v190h154v-190h118v190h154v-330z" />
    <glyph glyph-name="uni0E47.narrow" 
d="M-416 1587q0 -109 -54 -160t-136 -51q-71 0 -114 35.5t-60 81.5l-99 -115h-32q-115 0 -177.5 67.5t-62.5 170.5q0 109 68.5 174t185.5 65h489v-131h-487q-52 0 -80.5 -30t-28.5 -78q0 -45 24.5 -77t66.5 -32l108 121h72q5 -51 31.5 -86t68.5 -35q35 0 52.5 26.5
t17.5 70.5v24h147v-41z" />
    <glyph glyph-name="uni0E48.narrow" 
d="M-573 1386h-166v388h166v-388z" />
    <glyph glyph-name="uni0E49.narrow" 
d="M-471 1386h-512v89q162 41 162 122q0 68 -90 68q-51 0 -99 -20v106q61 27 144 27q209 0 209 -140q0 -73 -45 -118h231v-134z" />
    <glyph glyph-name="uni0E4A.narrow" 
d="M-860 1382q-30 -6 -70 -6q-98 0 -155.5 52.5t-57.5 152.5q0 99 56.5 152t148.5 55l102 -82l97 82q207 -16 207 -219v-51h120v-132h-278v170q0 89 -53 95l-88 -68h-7l-90 68q-20 -2 -36.5 -22t-16.5 -54q0 -38 23.5 -59t54.5 -21q15 0 43 4v-117z" />
    <glyph glyph-name="uni0E4B.narrow" 
d="M-635 1386h-166v132h-174v137h174v119h166v-119h174v-137h-174v-132z" />
    <glyph glyph-name="uni0E4C.narrow" 
d="M-793 1386h-163v62q0 128 64.5 177.5t209.5 49.5h221v-139h-203q-72 0 -100.5 -20.5t-28.5 -79.5v-50z" />
    <glyph glyph-name="uni0E4D.narrow" 
d="M-471 1544q0 -86 -58 -138t-151 -52t-151 52t-58 138q0 87 58 141t151 54t151 -54t58 -141zM-772 1544q0 -43 25 -70.5t67 -27.5q41 0 66.5 27.5t25.5 70.5q0 44 -26 72.5t-66 28.5q-41 0 -66.5 -28.5t-25.5 -72.5z" />
    <glyph glyph-name="uni0E38.small" 
d="M-156 -903h-166v209q0 39 -19 55t-60 16q-48 0 -88 -16v137q69 25 139 25q194 0 194 -182v-244z" />
    <glyph glyph-name="uni0E39.small" 
d="M-156 -698q0 -96 -69.5 -156.5t-204.5 -60.5q-138 0 -203 59.5t-65 157.5v49q0 47 -47 47q-28 0 -56 -8v114q51 21 111 21q80 0 111.5 -33.5t31.5 -99.5v-41q0 -70 23.5 -104.5t93.5 -34.5t94.5 35t24.5 104v172h155v-221z" />
    <glyph glyph-name="uni0E3A.small" 
d="M-135 -598q0 -53 -35 -87t-90 -34q-54 0 -88.5 34t-34.5 87t34.5 87t88.5 34q55 0 90 -34t35 -87z" />
    <glyph glyph-name="uni0E48.small" 
d="M-156 1851h-163v328h163v-328z" />
    <glyph glyph-name="uni0E49.small" 
d="M66 1851h-547v84q67 15 104 37.5t37 59.5q0 51 -72 51q-42 0 -90 -19v103q55 22 137 22q175 0 175 -121q0 -55 -31 -86h287v-131z" />
    <glyph glyph-name="uni0E4A.small" 
d="M-303 1845q-34 -6 -68 -6q-86 0 -137 45t-51 129q0 86 54 131t130 45l84 -55l72 55q89 0 139.5 -40.5t50.5 -120.5v-52h150v-125h-289v138q0 43 -13.5 58t-47.5 17l-58 -45h-6l-65 45q-58 -4 -58 -55q0 -28 18.5 -42.5t49.5 -14.5q27 0 45 4v-111z" />
    <glyph glyph-name="uni0E4B.small" 
d="M-156 1845h-163v109h-160v127h160v108h163v-108h160v-127h-160v-109z" />
    <glyph glyph-name="uni0E4C.small" 
d="M-244 1851h-164v50q0 128 68.5 183.5t206.5 55.5h194v-139h-194q-57 0 -84 -23t-27 -77v-50z" />
    <glyph glyph-name="uni0E48.1" 
d="M-170 1851h-164v328h164v-328zM-43 1544q0 -86 -58 -138t-151 -52t-151 52t-58 138q0 87 58 141t151 54t151 -54t58 -141zM-344 1544q0 -43 25 -70.5t67 -27.5q41 0 66.5 27.5t25.5 70.5q0 44 -26 72.5t-66 28.5q-41 0 -66.5 -28.5t-25.5 -72.5z" />
    <glyph glyph-name="uni0E49.1" 
d="M51 1851h-547v84q67 15 104.5 37.5t37.5 59.5q0 51 -72 51q-42 0 -90 -19v103q55 22 137 22q174 0 174 -121q0 -55 -31 -86h287v-131zM-43 1544q0 -86 -58 -138t-151 -52t-151 52t-58 138q0 87 58 141t151 54t151 -54t58 -141zM-344 1544q0 -43 25 -70.5t67 -27.5
q41 0 66.5 27.5t25.5 70.5q0 44 -26 72.5t-66 28.5q-41 0 -66.5 -28.5t-25.5 -72.5z" />
    <glyph glyph-name="uni0E4A.1" 
d="M-317 1845q-35 -6 -68 -6q-86 0 -137 45t-51 129q0 86 54 131t130 45l84 -55l72 55q89 0 139.5 -40.5t50.5 -120.5v-52h149v-125h-288v138q0 43 -14 58t-48 17l-57 -45h-6l-66 45q-57 -4 -57 -55q0 -28 18.5 -42.5t49.5 -14.5q27 0 45 4v-111zM-43 1544q0 -86 -58 -138
t-151 -52t-151 52t-58 138q0 87 58 141t151 54t151 -54t58 -141zM-344 1544q0 -43 25 -70.5t67 -27.5q41 0 66.5 27.5t25.5 70.5q0 44 -26 72.5t-66 28.5q-41 0 -66.5 -28.5t-25.5 -72.5z" />
    <glyph glyph-name="uni0E4B.1" 
d="M-170 1845h-164v109h-160v127h160v108h164v-108h160v-127h-160v-109zM-43 1544q0 -86 -58 -138t-151 -52t-151 52t-58 138q0 87 58 141t151 54t151 -54t58 -141zM-344 1544q0 -43 25 -70.5t67 -27.5q41 0 66.5 27.5t25.5 70.5q0 44 -26 72.5t-66 28.5q-41 0 -66.5 -28.5
t-25.5 -72.5z" />
    <glyph glyph-name="uni0E48.narrow.1" 
d="M-598 1851h-164v328h164v-328zM-471 1544q0 -86 -58 -138t-151 -52t-151 52t-58 138q0 87 58 141t151 54t151 -54t58 -141zM-772 1544q0 -43 25 -70.5t67 -27.5q41 0 66.5 27.5t25.5 70.5q0 44 -26 72.5t-66 28.5q-41 0 -66.5 -28.5t-25.5 -72.5z" />
    <glyph glyph-name="uni0E49.narrow.1" 
d="M-377 1851h-547v84q67 15 104.5 37.5t37.5 59.5q0 51 -72 51q-42 0 -90 -19v103q55 22 137 22q174 0 174 -121q0 -55 -31 -86h287v-131zM-471 1544q0 -86 -58 -138t-151 -52t-151 52t-58 138q0 87 58 141t151 54t151 -54t58 -141zM-772 1544q0 -43 25 -70.5t67 -27.5
q41 0 66.5 27.5t25.5 70.5q0 44 -26 72.5t-66 28.5q-41 0 -66.5 -28.5t-25.5 -72.5z" />
    <glyph glyph-name="uni0E4A.narrow.1" 
d="M-745 1845q-34 -6 -68 -6q-86 0 -137 45t-51 129q0 86 54 131t130 45l84 -55l71 55q89 0 140 -40.5t51 -120.5v-52h149v-125h-288v138q0 43 -14 58t-48 17l-57 -45h-6l-66 45q-57 -4 -57 -55q0 -28 18 -42.5t49 -14.5q28 0 46 4v-111zM-471 1544q0 -86 -58 -138t-151 -52
t-151 52t-58 138q0 87 58 141t151 54t151 -54t58 -141zM-772 1544q0 -43 25 -70.5t67 -27.5q41 0 66.5 27.5t25.5 70.5q0 44 -26 72.5t-66 28.5q-41 0 -66.5 -28.5t-25.5 -72.5z" />
    <glyph glyph-name="uni0E4B.narrow.1" 
d="M-598 1845h-164v109h-160v127h160v108h164v-108h160v-127h-160v-109zM-471 1544q0 -86 -58 -138t-151 -52t-151 52t-58 138q0 87 58 141t151 54t151 -54t58 -141zM-772 1544q0 -43 25 -70.5t67 -27.5q41 0 66.5 27.5t25.5 70.5q0 44 -26 72.5t-66 28.5q-41 0 -66.5 -28.5
t-25.5 -72.5z" />
    <glyph glyph-name="uni002D.uc" horiz-adv-x="745" 
d="M123 590v160h500v-160h-500z" />
    <glyph glyph-name="uni2013.uc" horiz-adv-x="1077" 
d="M92 596v143h893v-143h-893z" />
    <glyph glyph-name="uni2014.uc" horiz-adv-x="1812" 
d="M92 596v143h1628v-143h-1628z" />
    <glyph glyph-name="uni0028.uc" horiz-adv-x="659" 
d="M451 -201q-145 171 -239.5 406t-94.5 495t94.5 497t239.5 407h167q-141 -178 -232 -414t-91 -490q0 -253 90.5 -487.5t232.5 -413.5h-167z" />
    <glyph glyph-name="uni0029.uc" horiz-adv-x="659" 
d="M41 -201q142 179 233 414.5t91 488.5t-91 488t-233 414h168q145 -170 239.5 -406t94.5 -496t-94.5 -496.5t-239.5 -406.5h-168z" />
    <glyph glyph-name="uni005B.uc" horiz-adv-x="729" 
d="M180 -172v1765h459v-135h-289v-1495h289v-135h-459z" />
    <glyph glyph-name="uni005D.uc" horiz-adv-x="729" 
d="M90 -172v135h289v1495h-289v135h459v-1765h-459z" />
    <glyph glyph-name="uni007B.uc" horiz-adv-x="780" 
d="M690 -178q-233 0 -334.5 90t-70.5 301l28 195q10 45 1 88t-31.5 76t-74 53t-126.5 20v127q75 0 126.5 20t74 53.5t31.5 76.5t-1 88l-28 194q-31 211 70.5 301t334.5 90v-129q-104 -1 -159 -23t-77 -79.5t-8 -163.5l29 -217q28 -215 -201 -274q229 -59 201 -275l-29 -217
q-14 -106 8 -163.5t77 -79.5t159 -23v-129z" />
    <glyph glyph-name="uni007D.uc" horiz-adv-x="780" 
d="M90 -178v129q104 1 159 23t77 79.5t8 163.5l-29 217q-28 216 201 275q-229 59 -201 274l29 217q14 106 -8 163.5t-77 79.5t-159 23v129q233 0 335 -90t71 -301l-29 -194q-10 -45 -1 -88t31.5 -76.5t74 -53.5t126.5 -20v-127q-75 0 -126.5 -20t-74 -53t-31.5 -76t1 -88
l29 -195q31 -211 -71 -301t-335 -90z" />
    <glyph glyph-name="uni2039.uc" horiz-adv-x="659" 
d="M387 231l-266 385l266 385h168l-256 -385l256 -385h-168z" />
    <glyph glyph-name="uni203A.uc" horiz-adv-x="659" 
d="M104 231l256 385l-256 385h168l267 -385l-267 -385h-168z" />
    <glyph glyph-name="uni00AB.uc" horiz-adv-x="1024" 
d="M387 231l-266 385l266 385h168l-256 -385l256 -385h-168zM752 231l-267 385l267 385h168l-256 -385l256 -385h-168z" />
    <glyph glyph-name="uni00BB.uc" horiz-adv-x="1024" 
d="M104 231l256 385l-256 385h168l267 -385l-267 -385h-168zM469 231l256 385l-256 385h168l266 -385l-266 -385h-168z" />
    <glyph glyph-name="uni002F.uc" horiz-adv-x="825" 
d="M49 -172l559 1765h156l-559 -1765h-156z" />
    <glyph glyph-name="uni005C.uc" horiz-adv-x="825" 
d="M618 -172l-557 1765h156l557 -1765h-156z" />
    <glyph glyph-name="uni007C.uc" horiz-adv-x="518" 
d="M190 -172v1765h138v-1765h-138z" />
    <glyph glyph-name="uni0040.uc" horiz-adv-x="1873" 
d="M940 -119q-155 0 -288.5 43.5t-230.5 119.5t-166.5 177.5t-103.5 220.5t-34 246q0 179 68 338t182.5 270.5t270 176.5t325.5 65q174 0 323 -56t252 -153.5t161 -231.5t58 -286q0 -108 -24 -196t-62 -144.5t-88 -95t-100.5 -54.5t-100.5 -16q-113 0 -164.5 44t-62.5 128
q-44 -80 -125.5 -133t-171.5 -53q-146 0 -232.5 93t-86.5 253q0 198 113.5 329.5t277.5 131.5q98 0 157 -38.5t82 -96.5l15 118h170l-60 -499q-21 -158 90 -158q95 0 159.5 96.5t64.5 286.5q0 269 -171.5 431.5t-473.5 162.5q-199 0 -355 -88.5t-244 -250.5t-88 -370
q0 -137 42.5 -257.5t123 -214t209 -148t289.5 -54.5q158 0 263.5 36.5t201.5 117.5h158q-78 -131 -244.5 -211t-378.5 -80zM895 418q100 0 177 88t77 237q0 111 -54 167.5t-153 56.5q-98 0 -164.5 -88.5t-66.5 -239.5q0 -103 50.5 -162t133.5 -59z" />
    <glyph glyph-name="uni00A1.uc" horiz-adv-x="589" 
d="M295 1212q-54 0 -92.5 38t-38.5 93t38.5 93.5t92.5 38.5t92.5 -38.5t38.5 -93.5t-38.5 -93t-92.5 -38zM199 0l28 1051h131l29 -1051h-188z" />
    <glyph glyph-name="uni00BF.uc" horiz-adv-x="1001" 
d="M563 1475q54 0 92.5 -38.5t38.5 -93.5t-38.5 -93t-92.5 -38t-92.5 38t-38.5 93t38.5 93.5t92.5 38.5zM635 1051v-103q0 -40 -7.5 -76.5t-26 -72t-32.5 -59t-46.5 -59t-46.5 -49.5l-52 -52q-37 -37 -58.5 -61t-45.5 -57t-35 -66t-11 -68q0 -95 55 -150t165 -55
q115 0 188 72t84 194h160q-11 -181 -129.5 -294t-304.5 -113q-101 0 -178 28.5t-122 77.5t-67.5 108t-22.5 126q0 44 13 86t28 71.5t48 68.5t52 57.5t60 58.5q45 43 69 68.5t54 65.5t43.5 80t13.5 85v88h152z" />
    <glyph glyph-name="uni00B4.uc" horiz-adv-x="819" 
d="M330 1579l114 260h213l-200 -260h-127z" />
    <glyph glyph-name="uni0060.uc" horiz-adv-x="819" 
d="M362 1579l-200 260h213l114 -260h-127z" />
    <glyph glyph-name="uni02DD.uc" horiz-adv-x="819" 
d="M197 1579l75 260h195l-148 -260h-122zM512 1579l76 260h194l-147 -260h-123z" />
    <glyph glyph-name="uni02C6.uc" horiz-adv-x="819" 
d="M113 1579l221 260h153l220 -260h-125l-174 119l-175 -119h-120z" />
    <glyph glyph-name="uni02C7.uc" horiz-adv-x="819" 
d="M332 1579l-219 260h125l174 -119l174 119h121l-222 -260h-153z" />
    <glyph glyph-name="uni02D8.uc" horiz-adv-x="819" 
d="M406 1571q-111 0 -188 76.5t-83 193.5h135q23 -131 136 -131q121 0 147 131h131q-6 -116 -86.5 -193t-191.5 -77z" />
    <glyph glyph-name="uni02DC.uc" horiz-adv-x="819" 
d="M520 1585q-37 0 -80 22t-80 44t-61 22q-29 0 -51.5 -26t-30.5 -66h-123q12 108 69.5 173t137.5 65q37 0 79 -22t79 -44t61 -22q29 0 51.5 26t30.5 66h123q-12 -108 -69 -173t-136 -65z" />
    <glyph glyph-name="uni00AF.uc" horiz-adv-x="819" 
d="M137 1610v131h545v-131h-545z" />
    <glyph glyph-name="uni00A8.uc" horiz-adv-x="819" 
d="M201 1616q-44 0 -76.5 32t-32.5 76t32.5 76.5t76.5 32.5t76 -32.5t32 -76.5t-32 -76t-76 -32zM616 1616q-44 0 -76 32t-32 76t32 76.5t76 32.5t76.5 -32.5t32.5 -76.5t-32.5 -76t-76.5 -32z" />
    <glyph glyph-name="uni02D9.uc" horiz-adv-x="819" 
d="M410 1612q-46 0 -79.5 33t-33.5 79t33.5 79.5t79.5 33.5t79 -33.5t33 -79.5t-33 -79t-79 -33z" />
    <glyph glyph-name="uni02DA.uc" horiz-adv-x="819" 
d="M410 1554q-91 0 -155.5 62.5t-64.5 150.5t64.5 150.5t155.5 62.5t155 -62.5t64 -150.5t-64 -150.5t-155 -62.5zM410 1649q47 0 77.5 33.5t30.5 84.5t-30.5 85t-77.5 34t-78 -34t-31 -85t31 -84.5t78 -33.5z" />
    <glyph glyph-name="uni0030.den" horiz-adv-x="716" 
d="M358 -10q-137 0 -217 94t-80 250v28q0 158 81 252.5t216 94.5t216 -93t81 -249v-29q0 -157 -79.5 -252.5t-217.5 -95.5zM360 100q158 0 158 238v29q0 111 -41.5 173t-118.5 62q-157 0 -157 -237v-29q0 -116 41 -176t118 -60z" />
    <glyph glyph-name="uni0031.den" horiz-adv-x="475" 
d="M215 0v565l-166 -110v120l182 125h123v-700h-139z" />
    <glyph glyph-name="uni0032.den" horiz-adv-x="587" 
d="M16 0v23l263 278q110 113 110 199q0 48 -26.5 75t-75.5 27q-106 0 -123 -135h-125q6 115 72.5 178.5t179.5 63.5q109 0 171 -56t62 -151q0 -118 -135 -250l-149 -148h290v-104h-514z" />
    <glyph glyph-name="uni0033.den" horiz-adv-x="638" 
d="M311 -10q-125 0 -195 61t-73 166h125q14 -125 139 -125q64 0 96.5 29.5t32.5 81.5q0 110 -123 110h-53v97h51q115 0 115 100q0 43 -27.5 69.5t-79.5 26.5q-54 0 -87 -29.5t-39 -82.5h-125q6 96 74 155.5t180 59.5q109 0 172 -53.5t63 -135.5q0 -109 -117 -151
q63 -14 100.5 -57.5t37.5 -110.5q0 -98 -72 -154.5t-195 -56.5z" />
    <glyph glyph-name="uni0034.den" horiz-adv-x="651" 
d="M387 0v141h-352v49l313 510h170v-458h92v-101h-92v-141h-131zM182 242h207v354z" />
    <glyph glyph-name="uni0035.den" horiz-adv-x="620" 
d="M297 -10q-120 0 -184 58t-70 155h129q8 -53 35 -80t90 -27q56 0 87.5 36.5t31.5 100.5q0 62 -32 98t-89 36q-93 0 -143 -60h-74l8 393h430v-106h-326l-2 -188q54 61 154 61q97 0 156 -63.5t59 -172.5q0 -111 -71.5 -176t-188.5 -65z" />
    <glyph glyph-name="uni0036.den" horiz-adv-x="657" 
d="M338 -10q-75 0 -129.5 24.5t-86 70t-46.5 103.5t-15 131v19q0 176 82 273.5t217 97.5q96 0 155 -47.5t71 -139.5h-127q-10 41 -34 61.5t-71 20.5q-71 0 -111.5 -60.5t-43.5 -176.5q56 90 172 90q101 0 166 -63t65 -165q0 -108 -71 -173.5t-193 -65.5zM338 90
q57 0 92 37.5t35 97.5q0 62 -34.5 99.5t-92.5 37.5q-59 0 -96 -36t-37 -93q0 -66 36.5 -104.5t96.5 -38.5z" />
    <glyph glyph-name="uni0037.den" horiz-adv-x="550" 
d="M135 0l221 588h-321v112h493v-16l-254 -684h-139z" />
    <glyph glyph-name="uni0038.den" horiz-adv-x="643" 
d="M319 -10q-112 0 -188 54.5t-76 152.5q0 66 34.5 111.5t94.5 66.5q-102 44 -102 145q0 86 70.5 137.5t169.5 51.5t168 -51t69 -136q0 -100 -104 -145q131 -50 131 -176q0 -99 -76 -155t-191 -56zM322 416q48 0 77 26.5t29 71.5q0 43 -30.5 69.5t-75.5 26.5
q-47 0 -78 -26.5t-31 -71.5q0 -44 32 -70t77 -26zM322 92q56 0 91.5 31t35.5 88q0 54 -35.5 85.5t-91.5 31.5q-55 0 -91 -32t-36 -87t36 -86t91 -31z" />
    <glyph glyph-name="uni0039.den" horiz-adv-x="657" 
d="M309 -10q-107 0 -170.5 50.5t-75.5 143.5h130q20 -88 116 -88q149 0 152 234q-57 -88 -170 -88q-103 0 -168.5 62t-65.5 165q0 110 70.5 176t191.5 66q137 0 208 -86.5t71 -241.5v-35q0 -172 -75 -265t-214 -93zM319 338q58 0 95 35.5t37 91.5q0 67 -36.5 106t-95.5 39
q-57 0 -91.5 -37.5t-34.5 -99.5q0 -61 34 -98t92 -37z" />
    <glyph glyph-name="uni0030.num" horiz-adv-x="716" 
d="M358 754q-137 0 -217 94t-80 250v28q0 158 81 252.5t216 94.5t216 -93t81 -250v-28q0 -157 -79.5 -252.5t-217.5 -95.5zM360 864q158 0 158 238v28q0 111 -41.5 173.5t-118.5 62.5q-78 0 -117.5 -61t-39.5 -177v-28q0 -116 41 -176t118 -60z" />
    <glyph glyph-name="uni0031.num" horiz-adv-x="473" 
d="M215 764v565l-166 -110v120l182 125h123v-700h-139z" />
    <glyph glyph-name="uni0032.num" horiz-adv-x="585" 
d="M16 764v22l263 279q110 113 110 199q0 48 -26.5 75t-75.5 27q-106 0 -123 -135h-125q6 115 72.5 178.5t179.5 63.5q109 0 171 -56t62 -151q0 -118 -135 -250l-149 -148h290v-104h-514z" />
    <glyph glyph-name="uni0033.num" horiz-adv-x="636" 
d="M311 754q-125 0 -195 61t-73 166h125q14 -125 139 -125q64 0 96.5 29.5t32.5 81.5q0 110 -123 110h-53v97h51q115 0 115 100q0 43 -27.5 69.5t-79.5 26.5q-54 0 -87 -30t-39 -83h-125q6 96 74 156t180 60q109 0 172 -53.5t63 -135.5q0 -109 -117 -151q63 -14 100.5 -57.5
t37.5 -110.5q0 -98 -72 -154.5t-195 -56.5z" />
    <glyph glyph-name="uni0034.num" horiz-adv-x="649" 
d="M387 764v141h-352v49l313 510h170v-458h92v-101h-92v-141h-131zM182 1006h207v354z" />
    <glyph glyph-name="uni0035.num" horiz-adv-x="618" 
d="M297 754q-120 0 -184 58t-70 155h129q8 -53 35 -80t90 -27q56 0 87.5 36.5t31.5 100.5q0 62 -32 97.5t-89 35.5q-94 0 -143 -59h-74l8 393h430v-106h-326l-2 -189q54 62 154 62q97 0 156 -63.5t59 -172.5q0 -111 -71.5 -176t-188.5 -65z" />
    <glyph glyph-name="uni0036.num" horiz-adv-x="655" 
d="M338 754q-75 0 -129.5 24.5t-86 70t-46.5 103.5t-15 131v19q0 176 82 273.5t217 97.5q96 0 155 -47.5t71 -139.5h-127q-10 41 -34 61.5t-71 20.5q-71 0 -111.5 -61t-43.5 -177q57 91 172 91q101 0 166 -63t65 -165q0 -108 -71 -173.5t-193 -65.5zM338 854q57 0 92 37.5
t35 97.5q0 62 -34.5 99.5t-92.5 37.5q-59 0 -96 -36t-37 -93q0 -66 36.5 -104.5t96.5 -38.5z" />
    <glyph glyph-name="uni0037.num" horiz-adv-x="548" 
d="M135 764l221 588h-321v112h493v-16l-254 -684h-139z" />
    <glyph glyph-name="uni0038.num" horiz-adv-x="641" 
d="M319 754q-112 0 -188 54.5t-76 152.5q0 66 34.5 111.5t94.5 66.5q-102 44 -102 145q0 86 70.5 137.5t169.5 51.5t168 -51t69 -136q0 -100 -104 -145q131 -50 131 -176q0 -99 -76 -155t-191 -56zM322 1180q48 0 77 26.5t29 71.5q0 43 -30.5 69.5t-75.5 26.5
q-47 0 -78 -26.5t-31 -71.5q0 -44 32 -70t77 -26zM322 856q56 0 91.5 31t35.5 88q0 54 -35.5 85.5t-91.5 31.5q-55 0 -91 -32t-36 -87t36 -86t91 -31z" />
    <glyph glyph-name="uni0039.num" horiz-adv-x="655" 
d="M309 754q-107 0 -170.5 50.5t-75.5 143.5h130q20 -88 116 -88q149 0 152 234q-57 -88 -170 -88q-103 0 -168.5 62t-65.5 165q0 110 70.5 176t191.5 66q137 0 208 -86.5t71 -241.5v-35q0 -172 -75 -265t-214 -93zM319 1102q58 0 95 35.5t37 91.5q0 67 -36.5 106t-95.5 39
q-57 0 -91.5 -37.5t-34.5 -99.5q0 -61 34 -98t92 -37z" />
    <glyph glyph-name="uni0030.old" horiz-adv-x="1316" 
d="M662 -18q-246 0 -397.5 169t-151.5 445v76q0 282 149 448t397 166q249 0 397 -166.5t148 -443.5v-76q0 -282 -147 -450t-395 -168zM662 127q177 0 270.5 121.5t93.5 351.5v74q0 222 -97 346.5t-270 124.5q-174 0 -271 -122.5t-97 -348.5v-76q0 -227 98.5 -349t272.5 -122
z" />
    <glyph glyph-name="uni0031.old" horiz-adv-x="792" 
d="M395 0v1094l-323 -230v164l336 240h161v-1268h-174z" />
    <glyph glyph-name="uni0032.old" horiz-adv-x="1107" 
d="M47 0v41l514 479q62 58 98.5 95.5t74 87.5t54.5 99.5t17 104.5q0 110 -69 175t-189 65q-258 0 -299 -313h-158q18 204 139 328t318 124q196 0 316 -105t120 -274q0 -31 -6.5 -61.5t-13.5 -55t-26.5 -56.5t-31.5 -52t-42.5 -54t-45 -50.5t-55 -55t-55.5 -53t-62 -57.5
l-289 -269h639v-143h-948z" />
    <glyph glyph-name="uni0033.old" horiz-adv-x="1214" 
d="M590 -215q-227 0 -361.5 126.5t-142.5 324.5h162q13 -144 97 -228t249 -84q167 0 248.5 77.5t81.5 215.5q0 143 -78.5 212t-235.5 69h-102v145h94q272 0 272 256q0 112 -65.5 179t-194.5 67q-135 0 -219 -76t-98 -205h-154q8 179 137.5 300.5t333.5 121.5
q102 0 184.5 -31t135.5 -84.5t81.5 -122t28.5 -145.5q0 -231 -223 -323q281 -74 281 -363q0 -198 -141.5 -315t-370.5 -117z" />
    <glyph glyph-name="uni0034.old" horiz-adv-x="1263" 
d="M813 -199v316h-752v57l689 1092h233v-1012h207v-137h-207v-316h-170zM281 254h532v876z" />
    <glyph glyph-name="uni0035.old" horiz-adv-x="1165" 
d="M565 -215q-220 0 -340.5 108.5t-136.5 290.5h162q22 -128 91.5 -194t221.5 -66q143 0 227 93.5t84 254.5q0 150 -81.5 242t-214.5 92q-120 0 -201 -34.5t-141 -102.5h-62v799h803v-150h-662v-469q46 43 122.5 69.5t172.5 26.5q194 0 318.5 -129.5t124.5 -343.5
q0 -146 -66.5 -258t-176.5 -170.5t-245 -58.5z" />
    <glyph glyph-name="uni0036.old" horiz-adv-x="1251" 
d="M641 -18q-114 0 -204 33.5t-148.5 92t-97 142.5t-54.5 178.5t-16 206.5v61q0 190 41 340t115.5 247.5t177.5 148.5t227 51q171 0 283 -89t141 -259h-166q-26 104 -89 155t-181 51q-168 0 -268.5 -153.5t-106.5 -448.5q52 87 150.5 140t220.5 53q211 0 342 -134.5
t131 -336.5q0 -216 -136 -347.5t-362 -131.5zM641 119q142 0 231 91.5t89 242.5q0 155 -88 248.5t-234 93.5q-145 0 -239.5 -89.5t-94.5 -228.5q0 -170 93 -264t243 -94z" />
    <glyph glyph-name="uni0037.old" horiz-adv-x="1071" 
d="M248 -199l553 1325h-742v140h959v-25l-592 -1440h-178z" />
    <glyph glyph-name="uni0038.old" horiz-adv-x="1218" 
d="M610 -18q-92 0 -180 28t-160.5 79.5t-116.5 135t-44 185.5q0 140 79.5 234.5t206.5 137.5q-107 39 -169 121t-62 195q0 88 38 162.5t101 122t142.5 74t164.5 26.5q115 0 215.5 -45t165 -133.5t64.5 -202.5q0 -113 -63.5 -193.5t-172.5 -124.5q134 -46 212.5 -140
t78.5 -230q0 -103 -43 -187t-114.5 -136.5t-159.5 -80.5t-183 -28zM616 846q119 0 191 68t72 186q0 108 -77 177t-192 69q-117 0 -193.5 -68t-76.5 -182q0 -115 79.5 -182.5t196.5 -67.5zM610 125q140 0 231 79t91 216q0 135 -91 211t-227 76q-137 0 -232 -78t-95 -213
q0 -134 94.5 -212.5t228.5 -78.5z" />
    <glyph glyph-name="uni0039.old" horiz-adv-x="1251" 
d="M582 -215q-192 0 -311 99.5t-146 269.5h166q58 -228 305 -228q190 0 272 145t88 457q-52 -87 -150 -139.5t-220 -52.5q-211 0 -342 134.5t-131 336.5q0 216 135.5 347.5t361.5 131.5q114 0 204 -33.5t148.5 -92t97 -142.5t54.5 -178.5t16 -206.5v-62q0 -388 -138.5 -587
t-409.5 -199zM612 473q145 0 239.5 89.5t94.5 228.5q0 170 -93 264t-243 94q-142 0 -230.5 -91.5t-88.5 -242.5q0 -155 87.5 -248.5t233.5 -93.5z" />
    <glyph glyph-name="uni0024.old" horiz-adv-x="1245" 
d="M565 -268v252q-433 32 -475 448h166q9 -66 23.5 -112t47 -92t92 -73.5t146.5 -35.5v553q-210 39 -314 125t-104 256q0 156 116.5 264.5t301.5 118.5v180h119v-182q180 -19 286.5 -118t125.5 -269h-154q-23 114 -86 174.5t-172 74.5v-495q113 -19 191.5 -47.5t137 -74.5
t86 -114.5t27.5 -163.5q0 -169 -124.5 -286.5t-317.5 -130.5v-252h-119zM303 1069q0 -50 10.5 -85.5t38.5 -67t80 -54t133 -39.5v477q-122 -10 -192 -73.5t-70 -157.5zM961 389q0 113 -59.5 171.5t-217.5 90.5v-532q121 12 199 86.5t78 183.5z" />
    <glyph glyph-name="uni00A3.old" horiz-adv-x="1183" 
d="M96 627v123h127q-35 147 -35 278q0 181 125.5 295.5t313.5 114.5t299 -101t125 -274h-166q-23 119 -81.5 176t-176.5 57q-116 0 -189 -74t-73 -196q0 -127 32 -276h424v-123h-397q31 -155 31 -262q0 -66 -27 -132q55 -13 175.5 -59.5t166.5 -46.5q84 0 130 39t52 131h144
q-8 -140 -88.5 -227.5t-216.5 -87.5q-59 0 -126.5 19.5t-117 42.5t-105 42.5t-92.5 19.5q-61 0 -92.5 -31t-36.5 -75h-145q4 48 25 96t68 90.5t110 55.5q24 60 24 123q0 93 -47 262h-160z" />
    <glyph glyph-name="uni00A5.old" horiz-adv-x="1144" 
d="M166 559v115h309l-420 747h187l348 -645l332 645h168l-398 -747h312v-115h-334v-156h334v-114h-334v-289h-170v289h-334v114h334v156h-334z" />
    <glyph glyph-name="uni20AC.old" horiz-adv-x="1339" 
d="M63 782v115h146q17 156 81.5 276t181 192.5t269.5 72.5q204 0 332.5 -114.5t151.5 -319.5h-162q-22 142 -106.5 220.5t-215.5 78.5q-157 0 -249 -108t-113 -298h475l-23 -115h-456v-153h428l-23 -117h-399q21 -187 112 -288t252 -101q139 0 225 83t111 243h160
q-23 -219 -155.5 -343t-340.5 -124q-224 0 -365.5 146t-168.5 384h-148v117h142v153h-142z" />
    <glyph glyph-name="uni0030.oldtab" horiz-adv-x="1228" 
d="M618 -18q-228 0 -367.5 153.5t-139.5 392.5v211q0 242 138 394.5t367 152.5t365.5 -152.5t136.5 -390.5v-211q0 -245 -135 -397.5t-365 -152.5zM618 127q159 0 240.5 106.5t81.5 298.5v209q0 185 -84 294.5t-240 109.5q-157 0 -242 -108t-85 -296v-211q0 -189 86 -296
t243 -107z" />
    <glyph glyph-name="uni0031.oldtab" horiz-adv-x="1228" 
d="M653 0v1094l-417 -303v163l430 314h161v-1268h-174z" />
    <glyph glyph-name="uni0032.oldtab" horiz-adv-x="1228" 
d="M109 0v41l514 479q62 58 98.5 95.5t73.5 87.5t54 99.5t17 104.5q0 110 -69 175t-189 65q-258 0 -299 -313h-157q18 204 138.5 328t317.5 124q196 0 316 -105t120 -274q0 -39 -10 -78t-22.5 -70t-42.5 -71.5t-49.5 -65t-65 -70t-68.5 -67t-79 -73.5l-289 -269h639v-143
h-948z" />
    <glyph glyph-name="uni0033.oldtab" horiz-adv-x="1228" 
d="M598 -215q-227 0 -361.5 126.5t-142.5 324.5h162q13 -144 97 -228t249 -84q167 0 248.5 77.5t81.5 215.5q0 143 -78.5 212t-235.5 69h-102v145h94q273 0 273 256q0 112 -65.5 179t-194.5 67q-135 0 -219.5 -76t-98.5 -205h-153q8 179 137.5 300.5t333.5 121.5
q102 0 184.5 -31t135.5 -84.5t81.5 -122t28.5 -145.5q0 -230 -224 -323q281 -74 281 -363q0 -198 -141.5 -315t-370.5 -117z" />
    <glyph glyph-name="uni0034.oldtab" horiz-adv-x="1228" 
d="M784 -199v316h-710v57l639 1092h241v-1012h191v-137h-191v-316h-170zM287 254h497v876z" />
    <glyph glyph-name="uni0035.oldtab" horiz-adv-x="1228" 
d="M606 -215q-220 0 -340.5 108.5t-136.5 290.5h162q22 -128 91.5 -194t221.5 -66q143 0 227 93.5t84 254.5q0 149 -82 241.5t-215 92.5q-120 0 -201 -34.5t-141 -102.5h-61v799h803v-150h-662v-469q46 43 122.5 69.5t172.5 26.5q194 0 318.5 -129.5t124.5 -343.5
q0 -146 -66.5 -258t-176.5 -170.5t-245 -58.5z" />
    <glyph glyph-name="uni0036.oldtab" horiz-adv-x="1228" 
d="M635 -18q-131 0 -229.5 48t-157.5 134.5t-88 199.5t-29 252v103q0 364 146 564t395 200q169 0 282 -89.5t142 -258.5h-166q-25 103 -90 154.5t-181 51.5q-163 0 -255.5 -152.5t-98.5 -449.5q54 89 144 141t210 52q210 0 335.5 -134t125.5 -337q0 -216 -132.5 -347.5
t-352.5 -131.5zM635 119q134 0 220.5 92t86.5 242q0 154 -86 248t-223 94q-136 0 -227 -90t-91 -228q0 -169 90 -263.5t230 -94.5z" />
    <glyph glyph-name="uni0037.oldtab" horiz-adv-x="1228" 
d="M303 -199l569 1325h-733v140h959v-25l-617 -1440h-178z" />
    <glyph glyph-name="uni0038.oldtab" horiz-adv-x="1228" 
d="M616 -18q-89 0 -174 28t-155 79.5t-113 135t-43 185.5q0 141 76 235.5t201 136.5q-106 39 -164 120.5t-58 195.5q0 89 36.5 163t96.5 121.5t137 74t160 26.5q112 0 208.5 -45t158 -133.5t61.5 -202.5q0 -115 -59.5 -195t-165.5 -123q132 -46 206.5 -139.5t74.5 -230.5
q0 -103 -41.5 -187t-110.5 -136.5t-154.5 -80.5t-177.5 -28zM623 846q112 0 178.5 67.5t66.5 186.5q0 108 -72 177t-180 69q-110 0 -182 -68t-72 -182q0 -115 75.5 -182.5t185.5 -67.5zM616 125q134 0 220 79t86 216q0 135 -85 211t-216 76q-132 0 -222 -77.5t-90 -213.5
q0 -134 89 -212.5t218 -78.5z" />
    <glyph glyph-name="uni0039.oldtab" horiz-adv-x="1228" 
d="M571 -215q-190 0 -304.5 98.5t-141.5 270.5h166q28 -108 95.5 -168t199.5 -60q171 0 252.5 148t87.5 454q-53 -88 -143.5 -140t-207.5 -52q-204 0 -333 135t-129 336q0 215 135 347t352 132q132 0 229.5 -46.5t156 -132.5t86.5 -197.5t28 -250.5v-116q0 -758 -529 -758z
M602 473q136 0 224.5 89.5t88.5 228.5q0 170 -87.5 264t-227.5 94q-134 0 -221.5 -92t-87.5 -242q0 -154 86.5 -248t224.5 -94z" />
    <glyph glyph-name="uni0024.oldtab" horiz-adv-x="1228" 
d="M557 -268v252q-433 32 -475 448h166q9 -66 23.5 -112t47 -92t92 -73.5t146.5 -35.5v553q-210 39 -314 125t-104 256q0 156 116.5 264.5t301.5 118.5v180h119v-182q180 -19 286 -118t125 -269h-153q-23 114 -86 174.5t-172 74.5v-495q113 -19 191.5 -47.5t137 -74.5
t86 -114.5t27.5 -163.5q0 -169 -124.5 -286.5t-317.5 -130.5v-252h-119zM295 1069q0 -50 10.5 -85.5t38.5 -67t80 -54t133 -39.5v477q-122 -10 -192 -73.5t-70 -157.5zM952 389q0 113 -59 171.5t-217 90.5v-532q121 12 198.5 86.5t77.5 183.5z" />
    <glyph glyph-name="uni00A3.oldtab" horiz-adv-x="1228" 
d="M119 627v123h127q-35 147 -35 278q0 181 125 295.5t313 114.5t299 -101t125 -274h-166q-23 119 -81.5 176t-176.5 57q-116 0 -189 -74t-73 -196t33 -276h424v-123h-398q31 -155 31 -262q0 -69 -26 -132q55 -13 175.5 -59.5t166.5 -46.5q84 0 130 39t52 131h143
q-8 -140 -88.5 -227.5t-216.5 -87.5q-74 0 -160 31t-160.5 62t-119.5 31q-61 0 -92.5 -31t-36.5 -75h-146q4 48 25 96t68 90.5t110 55.5q25 62 25 123q0 93 -47 262h-160z" />
    <glyph glyph-name="uni00A5.oldtab" horiz-adv-x="1228" 
d="M209 559v115h309l-401 747h188l328 -645l313 645h166l-377 -747h312v-115h-334v-156h334v-114h-334v-289h-170v289h-334v114h334v156h-334z" />
    <glyph glyph-name="uni20AC.oldtab" horiz-adv-x="1228" 
d="M72 782v115h121q14 253 142 397t347 144q184 0 295.5 -111t136.5 -317h-164q-21 145 -86.5 219t-181.5 74q-299 0 -317 -406h438l-23 -115h-418v-153h388l-21 -117h-364q11 -197 89.5 -293t231.5 -96q125 0 195.5 78t95.5 239h160q-23 -218 -143 -338t-308 -120
q-217 0 -346.5 138.5t-144.5 391.5h-123v117h121v153h-121z" />
    <glyph glyph-name="uni0030.sub" horiz-adv-x="716" 
d="M358 -186q-137 0 -217 94t-80 250v28q0 158 81 252t216 94t216 -93t81 -249v-28q0 -157 -79.5 -252.5t-217.5 -95.5zM360 -76q158 0 158 238v28q0 111 -41.5 173.5t-118.5 62.5q-78 0 -117.5 -61t-39.5 -177v-28q0 -116 41 -176t118 -60z" />
    <glyph glyph-name="uni0031.sub" horiz-adv-x="475" 
d="M215 -178v565l-166 -111v121l182 125h123v-700h-139z" />
    <glyph glyph-name="uni0032.sub" horiz-adv-x="587" 
d="M16 -176v22l263 279q110 113 110 199q0 48 -26.5 75t-75.5 27q-106 0 -123 -135h-125q6 115 72.5 178t179.5 63q109 0 171 -55.5t62 -150.5q0 -118 -135 -250l-149 -148h290v-104h-514z" />
    <glyph glyph-name="uni0033.sub" horiz-adv-x="638" 
d="M311 -186q-125 0 -195 61t-73 166h125q14 -125 139 -125q64 0 96.5 29.5t32.5 81.5q0 110 -123 110h-53v96h51q115 0 115 101q0 43 -27.5 69.5t-79.5 26.5q-54 0 -87 -30t-39 -83h-125q6 96 74 155.5t180 59.5q109 0 172 -53t63 -135q0 -109 -117 -151
q63 -14 100.5 -57.5t37.5 -110.5q0 -98 -72 -154.5t-195 -56.5z" />
    <glyph glyph-name="uni0034.sub" horiz-adv-x="651" 
d="M387 -176v141h-352v49l313 510h170v-458h92v-101h-92v-141h-131zM182 66h207v354z" />
    <glyph glyph-name="uni0035.sub" horiz-adv-x="620" 
d="M297 -186q-120 0 -184 58t-70 155h129q8 -53 35 -80t90 -27q56 0 87.5 36.5t31.5 100.5q0 62 -32 97.5t-89 35.5q-94 0 -143 -59h-74l8 393h430v-106h-326l-2 -189q54 62 154 62q97 0 156 -63.5t59 -172.5q0 -111 -71.5 -176t-188.5 -65z" />
    <glyph glyph-name="uni0036.sub" horiz-adv-x="657" 
d="M338 -186q-75 0 -129.5 24.5t-86 70t-46.5 103.5t-15 131v19q0 176 82 273t217 97q96 0 155 -47t71 -139h-127q-10 41 -34 61.5t-71 20.5q-71 0 -111.5 -61t-43.5 -177q57 91 172 91q101 0 166 -63t65 -165q0 -108 -71 -173.5t-193 -65.5zM338 -86q57 0 92 37.5t35 97.5
q0 62 -34.5 99.5t-92.5 37.5q-59 0 -96 -36t-37 -93q0 -66 36.5 -104.5t96.5 -38.5z" />
    <glyph glyph-name="uni0037.sub" horiz-adv-x="550" 
d="M135 -176l221 588h-321v112h493v-16l-254 -684h-139z" />
    <glyph glyph-name="uni0038.sub" horiz-adv-x="643" 
d="M319 -186q-112 0 -188 54t-76 152q0 66 34.5 112t94.5 67q-102 44 -102 145q0 86 70.5 137t169.5 51t168 -50.5t69 -135.5q0 -100 -104 -145q131 -50 131 -176q0 -99 -76 -155t-191 -56zM322 240q48 0 77 26.5t29 71.5q0 43 -30.5 69.5t-75.5 26.5q-47 0 -78 -26.5
t-31 -71.5q0 -44 32 -70t77 -26zM322 -84q56 0 91.5 31t35.5 88q0 54 -35.5 85.5t-91.5 31.5q-55 0 -91 -32t-36 -87t36 -86t91 -31z" />
    <glyph glyph-name="uni0039.sub" horiz-adv-x="657" 
d="M309 -186q-107 0 -170.5 50.5t-75.5 143.5h130q20 -88 116 -88q149 0 152 234q-57 -88 -170 -88q-103 0 -168.5 62t-65.5 165q0 110 70.5 176t191.5 66q137 0 208 -86.5t71 -241.5v-35q0 -172 -75 -265t-214 -93zM319 162q58 0 95 35.5t37 91.5q0 67 -36.5 106t-95.5 39
q-57 0 -91.5 -37.5t-34.5 -99.5q0 -61 34 -98t92 -37z" />
    <glyph glyph-name="uni002B.sub" horiz-adv-x="694" 
d="M291 -100v215h-207v108h207v217h112v-217h207v-108h-207v-215h-112z" />
    <glyph glyph-name="uni2212.sub" horiz-adv-x="694" 
d="M84 115v108h526v-108h-526z" />
    <glyph glyph-name="uni0030.sup" horiz-adv-x="716" 
d="M358 872q-137 0 -217 94.5t-80 250.5v28q0 158 81 252t216 94t216 -93t81 -249v-28q0 -157 -79.5 -253t-217.5 -96zM360 983q158 0 158 238v28q0 111 -41.5 173.5t-118.5 62.5q-78 0 -117.5 -61t-39.5 -177v-28q0 -116 41 -176t118 -60z" />
    <glyph glyph-name="uni0031.sup" horiz-adv-x="475" 
d="M215 883v565l-166 -111v121l182 125h123v-700h-139z" />
    <glyph glyph-name="uni0032.sup" horiz-adv-x="587" 
d="M16 883v22l263 279q110 113 110 198q0 48 -26.5 75.5t-75.5 27.5q-106 0 -123 -135h-125q6 115 72.5 178t179.5 63q109 0 171 -56t62 -151q0 -65 -34.5 -124.5t-100.5 -124.5l-149 -148h290v-104h-514z" />
    <glyph glyph-name="uni0033.sup" horiz-adv-x="638" 
d="M311 872q-125 0 -195 61.5t-73 166.5h125q14 -125 139 -125q65 0 97 29t32 81q0 111 -123 111h-53v96h51q115 0 115 101q0 43 -27.5 69.5t-79.5 26.5q-54 0 -87 -30t-39 -83h-125q6 96 74 155.5t180 59.5q109 0 172 -53t63 -135q0 -110 -117 -152q63 -14 100.5 -57.5
t37.5 -110.5q0 -98 -72 -154.5t-195 -56.5z" />
    <glyph glyph-name="uni0034.sup" horiz-adv-x="651" 
d="M387 883v141h-352v49l313 510h170v-459h92v-100h-92v-141h-131zM182 1124h207v355z" />
    <glyph glyph-name="uni0035.sup" horiz-adv-x="620" 
d="M297 872q-120 0 -184 58t-70 155h129q8 -53 35 -79.5t90 -26.5q56 0 87.5 36.5t31.5 100.5q0 62 -32 97.5t-89 35.5q-94 0 -143 -59h-74l8 393h430v-106h-326l-2 -189q54 62 154 62q97 0 156 -63.5t59 -172.5q0 -111 -71.5 -176.5t-188.5 -65.5z" />
    <glyph glyph-name="uni0036.sup" horiz-adv-x="657" 
d="M338 872q-75 0 -129.5 24.5t-86 70.5t-46.5 104t-15 131v19q0 176 82 273t217 97q96 0 155 -47t71 -139h-127q-10 41 -34 61.5t-71 20.5q-71 0 -111.5 -61t-43.5 -177q56 90 172 90q101 0 166 -62.5t65 -164.5q0 -108 -71 -174t-193 -66zM338 973q57 0 92 37.5t35 97.5
q0 62 -34.5 99.5t-92.5 37.5q-59 0 -96 -36t-37 -93q0 -66 36.5 -104.5t96.5 -38.5z" />
    <glyph glyph-name="uni0037.sup" horiz-adv-x="550" 
d="M135 883l221 587h-321v113h493v-16l-254 -684h-139z" />
    <glyph glyph-name="uni0038.sup" horiz-adv-x="643" 
d="M319 872q-112 0 -188 54.5t-76 152.5q0 66 34.5 111.5t94.5 66.5q-102 44 -102 146q0 86 70.5 137t169.5 51t168 -50.5t69 -135.5q0 -100 -104 -145q131 -50 131 -177q0 -99 -76 -155t-191 -56zM322 1298q48 0 77 27t29 72q0 43 -30.5 69.5t-75.5 26.5q-47 0 -78 -26.5
t-31 -71.5q0 -44 32 -70.5t77 -26.5zM322 975q56 0 91.5 31t35.5 88q0 54 -35.5 85t-91.5 31q-55 0 -91 -31.5t-36 -86.5t36 -86t91 -31z" />
    <glyph glyph-name="uni0039.sup" horiz-adv-x="657" 
d="M309 872q-107 0 -170.5 51t-75.5 144h130q20 -88 116 -88q149 0 152 233q-57 -88 -170 -88q-103 0 -168.5 62.5t-65.5 165.5q0 109 70.5 175t191.5 66q137 0 208 -86t71 -241v-35q0 -172 -75 -265.5t-214 -93.5zM319 1221q58 0 95 35.5t37 91.5q0 67 -36.5 106t-95.5 39
q-57 0 -91.5 -37.5t-34.5 -99.5q0 -61 34 -98t92 -37z" />
    <glyph glyph-name="uni002B.sup" horiz-adv-x="694" 
d="M291 961v215h-207v108h207v217h112v-217h207v-108h-207v-215h-112z" />
    <glyph glyph-name="uni2212.sup" horiz-adv-x="694" 
d="M84 1176v108h526v-108h-526z" />
    <glyph glyph-name="uni0066.short" horiz-adv-x="677" 
d="M209 0v928h-154v143h154v174q0 165 79.5 254.5t235.5 89.5q73 0 117 -16v-143q-47 18 -111 18q-151 0 -151 -184v-193h262v-143h-262v-928h-170z" />
    <glyph glyph-name="uni0E0E.short" horiz-adv-x="1339" 
d="M381 -352h-174v26q0 141 98.5 227.5t276.5 86.5q149 0 267 -57.5t173 -131.5v946q0 162 -85 255.5t-259 93.5q-163 0 -255.5 -77t-92.5 -186v-18h243v-119q-91 -18 -124 -77t-33 -171v-178q0 -155 -85.5 -216.5t-254.5 -61.5v139q94 5 130 33.5t36 105.5v168
q0 122 29.5 183.5t103.5 85.5h-215v83q0 197 136 322t388 125q254 0 383 -131t129 -361v-1095h-166q-64 81 -167 138.5t-230 57.5q-130 0 -191 -58.5t-61 -137.5z" />
    <glyph glyph-name="uni0E0F.short" horiz-adv-x="1339" 
d="M229 -348h-22v153h22q39 0 77 11.5t79.5 49.5t60.5 99h46l135 -158l137 158h29l145 -166q45 10 64.5 44t19.5 96v806q0 162 -85 255.5t-259 93.5q-163 0 -255.5 -77t-92.5 -186v-18h243v-119q-91 -18 -124 -77t-33 -171v-178q0 -155 -85.5 -216.5t-254.5 -61.5v139
q94 5 130 33.5t36 105.5v168q0 122 29.5 183.5t103.5 85.5h-215v83q0 197 136 322t388 125q254 0 383 -131t129 -361v-790q0 -134 -63.5 -217.5t-188.5 -83.5h-35l-131 149l-131 -149h-41l-121 139q-45 -83 -109.5 -111t-146.5 -28z" />
    <glyph glyph-name="uni0E24.short" horiz-adv-x="1296" 
d="M1155 -352h-174v1097q0 162 -85 255.5t-259 93.5q-163 0 -255.5 -77t-92.5 -186v-18h243v-119q-213 -39 -213 -256v-106q0 -205 191 -205q65 0 104 16v-137q-59 -20 -139 -20q-154 0 -242 83.5t-88 260.5v98q0 122 49.5 186t139.5 91h-215v83q0 197 136 322t388 125
q254 0 383 -131t129 -361v-1095z" />
    <glyph glyph-name="uni0E26.short" horiz-adv-x="1298" 
d="M1155 -352h-174v1097q0 162 -85 255.5t-259 93.5q-163 0 -255.5 -77t-92.5 -186v-18h243v-119q-91 -18 -124 -77t-33 -171v-178q0 -155 -85.5 -216.5t-254.5 -61.5v139q94 5 130 33.5t36 105.5v168q0 122 29.5 183.5t103.5 85.5h-215v83q0 197 136 322t388 125
q254 0 383 -131t129 -361v-1095z" />
    <glyph glyph-name="uni0E2C.short" horiz-adv-x="1556" 
d="M494 0h-181l-196 1217h176l145 -979l277 716h114l312 -716l98 507q31 159 -5.5 224t-160.5 65h-121v142h176q133 0 184.5 29t63.5 106h158q-19 -105 -70.5 -160t-146.5 -70q144 -70 88 -336l-154 -745h-166l-311 737z" />
    <glyph glyph-name="uniFB00.short" horiz-adv-x="1267" 
d="M209 0v928h-154v143h154v160q0 165 80.5 254.5t238.5 89.5q62 0 127 -21v-143q-59 23 -120 23q-80 0 -118 -49.5t-38 -135.5v-178h420v174q0 165 79.5 254.5t235.5 89.5q73 0 117 -16v-143q-47 18 -111 18q-151 0 -151 -184v-193h262v-143h-262v-928h-170v928h-420v-928
h-170z" />
    <glyph glyph-name="space_uni0326.alt" horiz-adv-x="819" 
d="M471 1233l-164 49l178 326l105 -54z" />
    <glyph glyph-name="uni0061.alt" horiz-adv-x="1259" 
d="M565 -18q-96 0 -182 36.5t-150.5 103.5t-102.5 168.5t-38 223.5v16q0 160 66 289t178 200t246 71q118 0 202 -51t134 -136v168h169v-1071h-169v180q-47 -81 -148 -139.5t-205 -58.5zM584 123q70 0 130.5 25.5t107.5 74t74.5 127t27.5 178.5v17q0 199 -88 301t-238 102
t-240 -108.5t-90 -300.5v-17q0 -98 25.5 -175.5t69.5 -125.5t100.5 -73t120.5 -25z" />
    <glyph glyph-name="uni00E0.alt" horiz-adv-x="1259" 
d="M565 1255l-213 301h213l127 -301h-127zM565 -18q-96 0 -182 36.5t-150.5 103.5t-102.5 168.5t-38 223.5v16q0 160 66 289t178 200t246 71q118 0 202 -51t134 -136v168h169v-1071h-169v180q-47 -81 -148 -139.5t-205 -58.5zM584 123q70 0 130.5 25.5t107.5 74t74.5 127
t27.5 178.5v17q0 199 -88 301t-238 102t-240 -108.5t-90 -300.5v-17q0 -98 25.5 -175.5t69.5 -125.5t100.5 -73t120.5 -25z" />
    <glyph glyph-name="uni00E1.alt" horiz-adv-x="1259" 
d="M535 1255l127 301h212l-212 -301h-127zM565 -18q-96 0 -182 36.5t-150.5 103.5t-102.5 168.5t-38 223.5v16q0 160 66 289t178 200t246 71q118 0 202 -51t134 -136v168h169v-1071h-169v180q-47 -81 -148 -139.5t-205 -58.5zM584 123q70 0 130.5 25.5t107.5 74t74.5 127
t27.5 178.5v17q0 199 -88 301t-238 102t-240 -108.5t-90 -300.5v-17q0 -98 25.5 -175.5t69.5 -125.5t100.5 -73t120.5 -25z" />
    <glyph glyph-name="uni00E2.alt" horiz-adv-x="1259" 
d="M317 1255l222 295h153l219 -295h-125l-174 154l-174 -154h-121zM565 -18q-96 0 -182 36.5t-150.5 103.5t-102.5 168.5t-38 223.5v16q0 160 66 289t178 200t246 71q118 0 202 -51t134 -136v168h169v-1071h-169v180q-47 -81 -148 -139.5t-205 -58.5zM584 123
q70 0 130.5 25.5t107.5 74t74.5 127t27.5 178.5v17q0 199 -88 301t-238 102t-240 -108.5t-90 -300.5v-17q0 -98 25.5 -175.5t69.5 -125.5t100.5 -73t120.5 -25z" />
    <glyph glyph-name="uni00E3.alt" horiz-adv-x="1259" 
d="M721 1268q-37 0 -80 22t-80 44t-61 22q-29 0 -51.5 -26t-30.5 -66h-123q12 108 69.5 172.5t137.5 64.5q37 0 79 -22t79 -44t61 -22q29 0 51.5 26t30.5 66h123q-12 -107 -69 -172t-136 -65zM565 -18q-96 0 -182 36.5t-150.5 103.5t-102.5 168.5t-38 223.5v16q0 160 66 289
t178 200t246 71q118 0 202 -51t134 -136v168h169v-1071h-169v180q-47 -81 -148 -139.5t-205 -58.5zM584 123q70 0 130.5 25.5t107.5 74t74.5 127t27.5 178.5v17q0 199 -88 301t-238 102t-240 -108.5t-90 -300.5v-17q0 -98 25.5 -175.5t69.5 -125.5t100.5 -73t120.5 -25z" />
    <glyph glyph-name="uni00E4.alt" horiz-adv-x="1259" 
d="M426 1298q-44 0 -76.5 32.5t-32.5 76.5t32.5 76.5t76.5 32.5t76.5 -32.5t32.5 -76.5t-32.5 -76.5t-76.5 -32.5zM811 1298q-44 0 -76.5 32.5t-32.5 76.5t32.5 76.5t76.5 32.5t76.5 -32.5t32.5 -76.5t-32.5 -76.5t-76.5 -32.5zM565 -18q-96 0 -182 36.5t-150.5 103.5
t-102.5 168.5t-38 223.5v16q0 160 66 289t178 200t246 71q118 0 202 -51t134 -136v168h169v-1071h-169v180q-47 -81 -148 -139.5t-205 -58.5zM584 123q70 0 130.5 25.5t107.5 74t74.5 127t27.5 178.5v17q0 199 -88 301t-238 102t-240 -108.5t-90 -300.5v-17
q0 -98 25.5 -175.5t69.5 -125.5t100.5 -73t120.5 -25z" />
    <glyph glyph-name="uni00E5.alt" horiz-adv-x="1259" 
d="M602 1225q-91 0 -155 62.5t-64 150.5t64 150.5t155 62.5t155 -62.5t64 -150.5t-64 -150.5t-155 -62.5zM602 1319q47 0 78 34t31 85t-31 84.5t-78 33.5t-77.5 -33.5t-30.5 -84.5t30.5 -85t77.5 -34zM565 -18q-96 0 -182 36.5t-150.5 103.5t-102.5 168.5t-38 223.5v16
q0 160 66 289t178 200t246 71q118 0 202 -51t134 -136v168h169v-1071h-169v180q-47 -81 -148 -139.5t-205 -58.5zM584 123q70 0 130.5 25.5t107.5 74t74.5 127t27.5 178.5v17q0 199 -88 301t-238 102t-240 -108.5t-90 -300.5v-17q0 -98 25.5 -175.5t69.5 -125.5t100.5 -73
t120.5 -25z" />
    <glyph glyph-name="uni0101.alt" horiz-adv-x="1259" 
d="M346 1327v131h537v-131h-537zM565 -18q-96 0 -182 36.5t-150.5 103.5t-102.5 168.5t-38 223.5v16q0 160 66 289t178 200t246 71q118 0 202 -51t134 -136v168h169v-1071h-169v180q-47 -81 -148 -139.5t-205 -58.5zM584 123q70 0 130.5 25.5t107.5 74t74.5 127t27.5 178.5
v17q0 199 -88 301t-238 102t-240 -108.5t-90 -300.5v-17q0 -98 25.5 -175.5t69.5 -125.5t100.5 -73t120.5 -25z" />
    <glyph glyph-name="uni0103.alt" horiz-adv-x="1259" 
d="M610 1268q-110 0 -187 76.5t-83 193.5h135q23 -131 135 -131q122 0 148 131h131q-6 -116 -87 -193t-192 -77zM565 -18q-96 0 -182 36.5t-150.5 103.5t-102.5 168.5t-38 223.5v16q0 160 66 289t178 200t246 71q118 0 202 -51t134 -136v168h169v-1071h-169v180
q-47 -81 -148 -139.5t-205 -58.5zM584 123q70 0 130.5 25.5t107.5 74t74.5 127t27.5 178.5v17q0 199 -88 301t-238 102t-240 -108.5t-90 -300.5v-17q0 -98 25.5 -175.5t69.5 -125.5t100.5 -73t120.5 -25z" />
    <glyph glyph-name="uni0105.alt" horiz-adv-x="1259" 
d="M981 -373q-96 0 -154.5 44t-58.5 120q0 62 41.5 115.5t108.5 89.5v184q-47 -81 -148 -139.5t-205 -58.5q-96 0 -182 36.5t-150.5 103.5t-102.5 168.5t-38 223.5v16q0 160 66 289t178 200t246 71q118 0 202 -51t134 -136v168h169v-1061q-83 -51 -120 -95t-37 -91
q0 -74 78 -74q61 0 106 23v-121q-62 -25 -133 -25zM584 123q70 0 130.5 25.5t107.5 74t74.5 127t27.5 178.5v17q0 199 -88 301t-238 102t-240 -108.5t-90 -300.5v-17q0 -98 25.5 -175.5t69.5 -125.5t100.5 -73t120.5 -25z" />
    <glyph glyph-name="uni01FB.alt" horiz-adv-x="1259" 
d="M549 1698l115 260h213l-201 -260h-127zM602 1184q-91 0 -155 62.5t-64 150.5t64 150.5t155 62.5t155 -62.5t64 -150.5t-64 -150.5t-155 -62.5zM602 1278q47 0 78 34t31 85t-31 85t-78 34t-77.5 -34t-30.5 -85t30.5 -85t77.5 -34zM565 -18q-96 0 -182 36.5t-150.5 103.5
t-102.5 168.5t-38 223.5v16q0 160 66 289t178 200t246 71q118 0 202 -51t134 -136v168h169v-1071h-169v180q-47 -81 -148 -139.5t-205 -58.5zM584 123q70 0 130.5 25.5t107.5 74t74.5 127t27.5 178.5v17q0 199 -88 301t-238 102t-240 -108.5t-90 -300.5v-17
q0 -98 25.5 -175.5t69.5 -125.5t100.5 -73t120.5 -25z" />
    <glyph glyph-name="uni0074.alt" horiz-adv-x="692" 
d="M223 0v928h-168v143h168v244h170v-244h236v-143h-236v-928h-170z" />
    <glyph glyph-name="uni0163.alt" horiz-adv-x="692" 
d="M223 0v928h-168v143h168v244h170v-244h236v-143h-236v-928h-170zM238 -451l-105 54l119 321l164 -49z" />
    <glyph glyph-name="uni0165.alt" horiz-adv-x="692" 
d="M522 1225l25 358h192l-98 -358h-119zM223 0v928h-168v143h168v244h170v-244h236v-143h-236v-928h-170z" />
    <glyph glyph-name="uni00DF.alt" horiz-adv-x="1259" 
d="M834 -18q-151 0 -247 83t-100 224h164q5 -74 52 -120t131 -46q83 0 129.5 45t46.5 137q0 37 -15 68t-48.5 59.5t-60 46t-77.5 47.5q-40 24 -60.5 36.5t-55 36.5t-53 44t-39 48t-29.5 59t-9 67q0 47 22.5 91.5t55.5 78t72.5 69.5t72.5 67t55.5 70t22.5 79q0 86 -60.5 132
t-168.5 46q-138 0 -215.5 -83t-77.5 -241v-1126h-170v1118q0 212 131 341.5t332 129.5q169 0 280 -84t111 -227q0 -66 -31 -124t-75 -98.5t-88.5 -77t-75.5 -76t-31 -79.5q0 -13 3.5 -23.5t13.5 -22t19.5 -20t31.5 -23t38.5 -24.5t51 -31t59.5 -36q52 -33 89.5 -63t76 -71.5
t58.5 -92t20 -107.5q0 -155 -96.5 -241t-255.5 -86z" />
    <glyph glyph-name="uni0167.alt" horiz-adv-x="692" 
d="M55 571v123h168v234h-168v143h168v244h170v-244h236v-143h-236v-234h236v-123h-236v-571h-170v571h-168z" />
    <glyph glyph-name="uni02C7.alt" horiz-adv-x="819" 
d="M373 1225l24 358h193l-98 -358h-119z" />
    <glyph glyph-name="uni00AE.alt" horiz-adv-x="1728" 
d="M862 -18q-205 0 -377 98t-272 270.5t-100 380.5q0 154 59 293.5t159 240t240 159.5t295 59q157 0 296.5 -59t238.5 -159t157 -238t58 -292q0 -157 -59 -297t-159.5 -240t-240 -158t-295.5 -58zM862 68q130 0 249.5 49.5t209.5 135.5t143.5 212t53.5 270q0 190 -89 342.5
t-238 236t-325 83.5q-178 0 -327.5 -84t-238.5 -237.5t-89 -344.5q0 -144 53.5 -269.5t143.5 -211t208 -134t246 -48.5zM588 334v809h276q140 0 220.5 -59t80.5 -179v-4q0 -90 -48.5 -143.5t-129.5 -73.5l225 -350h-161l-211 325h-99v-325h-153zM741 768h121q150 0 150 127
v6q0 123 -150 123h-121v-256z" />
    <glyph glyph-name="uni0020.tab" horiz-adv-x="614" 
 />
    <glyph glyph-name="uni0030.tab" horiz-adv-x="1228" 
d="M623 -18q-237 0 -378 158.5t-141 457.5v256q0 306 137 467.5t377 161.5t373 -158.5t133 -456.5v-266q0 -304 -131 -462t-370 -158zM623 129q172 0 246.5 109.5t74.5 365.5v266q0 469 -326 469q-167 0 -249 -118t-82 -365v-256q0 -249 84.5 -360t251.5 -111z" />
    <glyph glyph-name="uni0031.tab" horiz-adv-x="1228" 
d="M643 0v1284l-420 -336v166l412 350h186v-1464h-178z" />
    <glyph glyph-name="uni0032.tab" horiz-adv-x="1228" 
d="M86 0v41l582 612q105 111 158 213.5t53 210.5q0 123 -69.5 192.5t-193.5 69.5q-268 0 -309 -325h-166q17 217 142.5 343t332.5 126q203 0 323 -111.5t120 -300.5q0 -244 -295 -532l-404 -394h707v-145h-981z" />
    <glyph glyph-name="uni0033.tab" horiz-adv-x="1228" 
d="M590 -18q-223 0 -357.5 126.5t-142.5 323.5h164q13 -141 94.5 -224t245.5 -83q167 0 248.5 74.5t81.5 208.5q0 284 -310 284h-110v150h102q141 0 211 64t70 186q0 109 -67 177t-195 68q-135 0 -220.5 -75t-99.5 -201h-155q8 178 139.5 300t335.5 122q101 0 185 -32
t138 -85.5t83.5 -123t29.5 -146.5q0 -224 -238 -320q133 -35 208 -127.5t75 -240.5q0 -197 -142.5 -311.5t-373.5 -114.5z" />
    <glyph glyph-name="uni0034.tab" horiz-adv-x="1228" 
d="M797 0v307h-713v58l649 1099h238v-1011h172v-146h-172v-307h-174zM305 453h492v866z" />
    <glyph glyph-name="uni0035.tab" horiz-adv-x="1228" 
d="M590 -18q-227 0 -349.5 112t-138.5 301h170q12 -65 31 -110.5t54 -83.5t92.5 -57t138.5 -19q150 0 235.5 94.5t85.5 259.5q0 155 -84 248.5t-223 93.5q-122 0 -203 -35.5t-143 -105.5h-66v784h824v-153h-676v-447q108 101 299 101q200 0 327.5 -132.5t127.5 -353.5
q0 -150 -67.5 -264.5t-181 -173.5t-253.5 -59z" />
    <glyph glyph-name="uni0036.tab" horiz-adv-x="1228" 
d="M631 -18q-117 0 -208 34.5t-150.5 93.5t-98 144.5t-54.5 182t-16 210.5v35q0 384 157 592.5t417 208.5q174 0 286.5 -90.5t141.5 -264.5h-170q-26 106 -88.5 157.5t-181.5 51.5q-171 0 -275 -151t-110 -434q54 91 152.5 144.5t223.5 53.5q214 0 347 -137t133 -342
q0 -221 -137.5 -355t-368.5 -134zM631 121q145 0 234 93.5t89 248.5q0 159 -88 253.5t-237 94.5q-148 0 -242 -91t-94 -233q0 -175 93 -270.5t245 -95.5z" />
    <glyph glyph-name="uni0037.tab" horiz-adv-x="1228" 
d="M340 0l539 1321h-736v143h965v-24l-586 -1440h-182z" />
    <glyph glyph-name="uni0038.tab" horiz-adv-x="1228" 
d="M616 -18q-92 0 -180.5 27.5t-161.5 79.5t-118 137t-45 190q0 141 76 238t200 141q-105 40 -163 120t-58 187q0 86 38.5 159.5t102 121t144 74t165.5 26.5q115 0 216.5 -45.5t167 -133.5t65.5 -198q0 -107 -60 -185t-165 -124q131 -47 205.5 -143.5t74.5 -233.5
q0 -106 -43.5 -191.5t-116 -138t-161 -80.5t-183.5 -28zM623 858q119 0 190.5 65.5t71.5 180.5q0 105 -77 172t-192 67q-117 0 -193.5 -66t-76.5 -177q0 -112 80 -177t197 -65zM616 127q141 0 231.5 79t90.5 220q0 139 -90 215t-227 76q-138 0 -233 -77.5t-95 -217.5
q0 -138 94 -216.5t229 -78.5z" />
    <glyph glyph-name="uni0039.tab" horiz-adv-x="1228" 
d="M573 -16q-200 0 -320.5 98.5t-150.5 277.5h172q26 -113 97.5 -172t206.5 -59q177 0 274 147t100 435q-53 -90 -153.5 -142.5t-225.5 -52.5q-212 0 -346.5 135.5t-134.5 343.5q0 221 137.5 355.5t368.5 134.5q258 0 392 -169t134 -487v-92q0 -363 -144 -558t-407 -195z
M600 655q148 0 242 88t94 230q0 176 -93 274.5t-245 98.5q-145 0 -234.5 -93.5t-89.5 -248.5q0 -159 88.5 -254t237.5 -95z" />
    <glyph glyph-name="uni0028.tab" horiz-adv-x="614" 
d="M385 -303q-279 419 -279 942q0 525 279 944h170q-270 -432 -270 -944q0 -510 270 -942h-170z" />
    <glyph glyph-name="uni0029.tab" horiz-adv-x="614" 
d="M59 -303q271 434 271 942q0 510 -271 944h170q279 -419 279 -944q0 -523 -279 -942h-170z" />
    <glyph glyph-name="uni005B.tab" horiz-adv-x="614" 
d="M143 -303v1892h398v-135h-228v-1622h228v-135h-398z" />
    <glyph glyph-name="uni005D.tab" horiz-adv-x="614" 
d="M74 -303v135h227v1622h-227v135h397v-1892h-397z" />
    <glyph glyph-name="uni007B.tab" horiz-adv-x="614" 
d="M541 -301q-205 0 -295.5 101t-50.5 325l38 213q18 97 -21 157t-159 89v127q120 29 159 89t21 156l-38 213q-40 224 50.5 325t295.5 101v-129q-62 -1 -101.5 -15t-65 -48.5t-28 -92.5t9.5 -145l39 -235q18 -108 -34.5 -173t-165.5 -110q74 -30 119.5 -63.5t69 -89
t11.5 -129.5l-39 -236q-12 -87 -9.5 -145t28 -92.5t65 -48.5t101.5 -15v-129z" />
    <glyph glyph-name="uni007D.tab" horiz-adv-x="614" 
d="M74 -301v129q62 1 101.5 15t64.5 48.5t27.5 92.5t-9.5 145l-39 236q-18 108 34.5 172t166.5 110q-55 22 -93.5 46t-67.5 57.5t-39 78.5t-1 101l39 235q12 87 9.5 145t-27.5 92.5t-64.5 48.5t-101.5 15v129q205 0 295.5 -101t50.5 -325l-39 -213q-18 -96 21 -156t159 -89
v-127q-120 -29 -159 -89t-21 -157l39 -213q40 -224 -50.5 -325t-295.5 -101z" />
    <glyph glyph-name="uni0025.tab" horiz-adv-x="1638" 
d="M422 784q-134 0 -235 98t-101 244q0 149 100 250t236 101q138 0 237 -100t99 -247q0 -149 -100 -247.5t-236 -98.5zM293 0l895 1464h155l-894 -1464h-156zM422 918q84 0 132 55t48 157q0 98 -48.5 155.5t-131.5 57.5t-131.5 -56t-48.5 -159q0 -102 48 -156t132 -54z
M1217 -16q-134 0 -235 98t-101 244q0 149 100 249.5t236 100.5q138 0 236.5 -99.5t98.5 -246.5q0 -149 -99.5 -247.5t-235.5 -98.5zM1217 117q84 0 132 55.5t48 157.5q0 98 -48.5 155.5t-131.5 57.5t-132 -56t-49 -159q0 -102 48.5 -156.5t132.5 -54.5z" />
    <glyph glyph-name="uni2030.tab" horiz-adv-x="2048" 
d="M369 809q-113 0 -195 90t-82 240q0 156 81 247t196 91q117 0 196.5 -90t79.5 -244q0 -153 -81 -243.5t-195 -90.5zM186 0l895 1464h156l-895 -1464h-156zM369 940q60 0 92.5 53.5t32.5 149.5q0 94 -33 148.5t-92 54.5q-60 0 -92.5 -53.5t-32.5 -151.5q0 -97 32.5 -149
t92.5 -52zM1049 -16q-113 0 -195 89.5t-82 239.5q0 156 81 247t196 91q117 0 196.5 -90t79.5 -244q0 -153 -80.5 -243t-195.5 -90zM1679 -16q-113 0 -194.5 89.5t-81.5 239.5q0 156 80.5 247t195.5 91q117 0 197 -90t80 -244q0 -153 -81 -243t-196 -90zM1049 115
q60 0 92.5 53t32.5 149q0 94 -33 148.5t-92 54.5q-60 0 -92.5 -53.5t-32.5 -151.5q0 -97 32.5 -148.5t92.5 -51.5zM1679 115q60 0 92.5 53t32.5 149q0 94 -33 148.5t-92 54.5q-60 0 -92.5 -53.5t-32.5 -151.5q0 -97 32.5 -148.5t92.5 -51.5z" />
    <glyph glyph-name="uni002E.tab" horiz-adv-x="614" 
d="M307 -10q-54 0 -92.5 38t-38.5 93t38.5 93t92.5 38t92.5 -38t38.5 -93t-38.5 -93t-92.5 -38z" />
    <glyph glyph-name="uni002C.tab" horiz-adv-x="614" 
d="M203 -252l-111 57l197 449l166 -78z" />
    <glyph glyph-name="uni003A.tab" horiz-adv-x="614" 
d="M307 598q-54 0 -92.5 38t-38.5 93t38.5 93t92.5 38t92.5 -38t38.5 -93t-38.5 -93t-92.5 -38zM307 -10q-54 0 -92.5 38t-38.5 93t38.5 93t92.5 38t92.5 -38t38.5 -93t-38.5 -93t-92.5 -38z" />
    <glyph glyph-name="uni003B.tab" horiz-adv-x="614" 
d="M326 598q-54 0 -92.5 38t-38.5 93t38.5 93t92.5 38t92.5 -38t38.5 -93t-38.5 -93t-92.5 -38zM162 -252l-111 57l197 449l166 -78z" />
    <glyph glyph-name="uni002B.tab" horiz-adv-x="1228" 
d="M541 215v414h-383v143h383v414h149v-414h383v-143h-383v-414h-149z" />
    <glyph glyph-name="uni2212.tab" horiz-adv-x="1228" 
d="M158 629v143h915v-143h-915z" />
    <glyph glyph-name="uni00B1.tab" horiz-adv-x="1228" 
d="M541 297v373h-383v143h383v373h149v-373h383v-143h-383v-373h-149zM158 0v143h915v-143h-915z" />
    <glyph glyph-name="uni00F7.tab" horiz-adv-x="1228" 
d="M614 956q-54 0 -92.5 38t-38.5 93t38.5 93.5t92.5 38.5t92.5 -38.5t38.5 -93.5t-38.5 -93t-92.5 -38zM158 629v143h915v-143h-915zM614 182q-54 0 -92.5 38t-38.5 93t38.5 93t92.5 38t92.5 -38t38.5 -93t-38.5 -93t-92.5 -38z" />
    <glyph glyph-name="uni00D7.tab" horiz-adv-x="1228" 
d="M299 268l-96 99l315 315l-315 315l96 99l315 -318l316 318l98 -99l-315 -315l315 -315l-98 -99l-316 318z" />
    <glyph glyph-name="uni003D.tab" horiz-adv-x="1228" 
d="M201 770v148h827v-148h-827zM201 401v148h827v-148h-827z" />
    <glyph glyph-name="uni003C.tab" horiz-adv-x="1228" 
d="M993 195l-786 444v41l786 444v-163l-538 -302l538 -301v-163z" />
    <glyph glyph-name="uni003E.tab" horiz-adv-x="1228" 
d="M236 195v163l538 301l-538 302v163l786 -444v-41z" />
    <glyph glyph-name="uni2264.tab" horiz-adv-x="1228" 
d="M993 244l-786 420v41l786 419v-163l-532 -277l532 -276v-164zM207 0v143h786v-143h-786z" />
    <glyph glyph-name="uni2265.tab" horiz-adv-x="1228" 
d="M236 244v164l532 276l-532 277v163l786 -419v-41zM236 0v143h786v-143h-786z" />
    <glyph glyph-name="uni2248.tab" horiz-adv-x="1228" 
d="M195 702q10 118 73 181t152 63q66 0 141.5 -22.5t141.5 -45t110 -22.5q35 0 61.5 23.5t30.5 70.5h129q-9 -119 -71 -181t-148 -62q-69 0 -146 22.5t-142.5 45t-108.5 22.5q-35 0 -61 -24.5t-33 -70.5h-129zM195 340q10 118 73 181t152 63q66 0 141.5 -22.5t141.5 -45
t110 -22.5q35 0 61.5 23.5t30.5 70.5h129q-9 -119 -71 -181.5t-148 -62.5q-69 0 -146 22.5t-142.5 45t-108.5 22.5q-35 0 -61 -24t-33 -70h-129z" />
    <glyph glyph-name="uni2260.tab" horiz-adv-x="1228" 
d="M201 770v148h440l82 210h156l-82 -210h231v-148h-289l-84 -221h373v-148h-430l-82 -211h-156l82 211h-241v148h299l84 221h-383z" />
    </font>
</defs>
</svg>
